# 3ds Max Wavefront OBJ Exporter v0.97b - (c)2007 guruware
# File Created: 01.12.2020 11:03:17

mtllib arborfruit.mtl

#
# object stage1
#

v  50.0000 71.8002 -20.3648
v  50.0000 59.1263 1.2771
v  66.6268 60.3223 -5.5053
v  73.5139 63.2095 -21.8795
v  66.6268 66.0967 -38.2537
v  50.0000 67.2926 -45.0362
v  33.3732 66.0967 -38.2537
v  26.4861 63.2095 -21.8795
v  33.3732 60.3223 -5.5053
v  72.6832 46.2975 -1.8285
v  50.0000 44.6659 7.4245
v  82.0789 50.2364 -24.1671
v  72.6832 54.1753 -46.5057
v  50.0000 55.8068 -55.7586
v  27.3168 54.1753 -46.5056
v  17.9211 50.2364 -24.1670
v  27.3168 46.2975 -1.8285
v  50.0000 26.8195 5.6944
v  73.6697 28.5220 -3.9610
v  83.4741 32.6322 -27.2711
v  73.6697 36.7424 -50.5813
v  50.0000 38.4449 -60.2366
v  26.3303 36.7424 -50.5813
v  16.5259 32.6322 -27.2711
v  26.3303 28.5220 -3.9610
v  50.0000 14.2062 -30.5201
v  68.7352 16.7267 -11.0515
v  50.0000 15.3791 -3.4091
v  76.4955 19.9800 -29.5021
v  68.7352 23.2333 -47.9526
v  50.0000 24.5809 -55.5950
v  31.2648 23.2333 -47.9526
v  23.5045 19.9800 -29.5021
v  31.2648 16.7267 -11.0515
v  45.7185 69.7435 -20.7274
v  50.0000 69.0001 -16.5110
v  50.0000 73.0605 -15.7950
v  45.7185 73.8040 -20.0114
v  54.2815 69.7435 -20.7274
v  54.2815 73.8040 -20.0114
v  50.0000 70.4870 -24.9439
v  50.0000 74.5474 -24.2279
v  50.0000 73.9024 -17.5327
v  47.5760 74.3234 -19.9199
v  52.4240 74.3234 -19.9199
v  50.0000 74.7443 -22.3071
v  50.0000 79.9621 -12.3079
v  50.0000 83.4556 -6.0203
v  47.2532 86.1088 -6.7312
v  47.1069 82.0078 -14.3536
v  52.8931 82.0078 -14.3536
v  52.7468 86.1088 -6.7312
v  50.0000 84.0535 -16.3993
v  50.0000 88.7621 -7.4422
v  50.0000 81.9105 3.6559
v  53.1642 85.0267 4.2054
v  50.0000 88.1428 4.7549
v  46.8358 85.0267 4.2054
v  34.5829 68.7417 -25.6206
v  29.2309 67.2483 -22.0782
v  34.0728 71.4277 -17.8252
v  27.7902 67.6084 -17.9619
v  34.5829 69.3921 -12.8960
v  48.3446 70.9319 -23.1043
v  39.8157 70.0042 -26.6307
v  40.3507 72.4727 -17.9071
v  42.7325 70.5805 -11.8961
v  48.3447 71.5190 -17.2822
v  67.6145 70.2062 -13.1925
v  74.8725 67.0490 -16.1959
v  67.9753 72.0813 -19.0480
v  75.8399 66.9958 -22.0526
v  67.6101 68.6331 -27.7541
v  52.2251 71.0316 -16.8369
v  60.1843 71.3106 -12.9031
v  59.6493 73.2347 -19.2302
v  58.8628 70.1439 -29.0403
v  52.2251 70.9289 -24.0675
v  42.7183 65.3862 -3.9166
v  47.3364 60.5310 1.6882
v  50.4928 68.1046 -2.3844
v  52.0660 59.5474 3.0243
v  56.7142 66.2261 -3.7685
v  46.3233 70.9141 -18.0115
v  42.5396 68.6413 -10.4800
v  51.0436 72.0166 -9.8208
v  57.8993 69.7694 -11.2184
v  53.6767 70.7274 -18.0445
v  57.2817 70.4889 -38.7039
v  52.0660 67.8419 -46.6122
v  49.2676 74.0331 -38.6030
v  47.9340 67.6598 -45.5796
v  42.7183 70.9547 -38.0930
v  53.6767 71.9213 -22.8529
v  58.0033 71.7687 -30.8121
v  48.6050 75.1658 -30.2771
v  40.5696 71.7687 -30.8121
v  46.3233 71.9213 -22.8529
# 98 vertices

vn 0.0000 0.9848 0.1736
vn -0.0000 0.6171 0.7869
vn 0.4722 0.6511 0.5943
vn 0.6678 0.7331 0.1293
vn 0.4722 0.8150 -0.3358
vn -0.0000 0.8490 -0.5284
vn -0.4722 0.8150 -0.3358
vn -0.6678 0.7331 0.1293
vn -0.4722 0.6511 0.5943
vn 0.6735 0.1828 0.7162
vn 0.0000 0.1344 0.9909
vn 0.9525 0.2998 0.0529
vn 0.6735 0.4168 -0.6105
vn -0.0000 0.4652 -0.8852
vn -0.6735 0.4168 -0.6105
vn -0.9525 0.2998 0.0529
vn -0.6735 0.1828 0.7162
vn 0.0000 -0.3628 0.9319
vn 0.6935 -0.3129 0.6490
vn 0.9807 -0.1925 -0.0339
vn 0.6935 -0.0721 -0.7169
vn -0.0000 -0.0222 -0.9998
vn -0.6935 -0.0721 -0.7169
vn -0.9807 -0.1925 -0.0339
vn -0.6935 -0.3129 0.6490
vn -0.0000 -0.9848 -0.1736
vn 0.4664 -0.8212 0.3288
vn -0.0000 -0.8547 0.5191
vn 0.6596 -0.7402 -0.1305
vn 0.4664 -0.6592 -0.5898
vn -0.0000 -0.6257 -0.7801
vn -0.4664 -0.6592 -0.5898
vn -0.6596 -0.7402 -0.1305
vn -0.4664 -0.8212 0.3288
vn -1.0000 -0.0000 0.0000
vn 0.0000 -0.1736 0.9848
vn 0.0000 0.3405 0.9403
vn -0.8669 0.4910 0.0866
vn 1.0000 0.0000 -0.0000
vn 0.8669 0.4910 0.0866
vn -0.0000 0.1736 -0.9848
vn -0.0000 0.6415 -0.7671
vn 0.0082 0.4588 0.8885
vn -0.6095 0.7909 0.0538
vn 0.6100 0.7902 0.0586
vn -0.0009 0.9363 -0.3513
vn 0.0036 -0.7763 0.6304
vn 0.0036 -0.9864 0.1640
vn -0.9907 0.1322 -0.0320
vn -0.9950 0.0651 -0.0751
vn 0.9954 0.0616 -0.0730
vn 0.9911 0.1290 -0.0327
vn -0.0007 0.7348 -0.6783
vn -0.0004 0.9763 -0.2165
vn 0.0039 -0.8996 0.4366
vn 0.8283 -0.0738 0.5553
vn -0.0017 0.7410 0.6715
vn -0.8275 -0.0685 0.5572
vn -0.3133 0.9023 -0.2960
vn -0.4720 0.8349 -0.2832
vn -0.3361 0.9409 0.0415
vn -0.5183 0.8541 -0.0438
vn -0.2858 0.8793 0.3809
vn 0.0668 0.9799 -0.1877
vn -0.1551 0.9530 -0.2602
vn -0.0717 0.9969 0.0334
vn -0.0410 0.9483 0.3148
vn 0.1157 0.9927 0.0349
vn 0.2938 0.9076 0.2998
vn 0.5387 0.8276 0.1577
vn 0.3152 0.9489 -0.0167
vn 0.5061 0.8540 -0.1208
vn 0.2679 0.8999 -0.3441
vn -0.2505 0.9620 0.1085
vn 0.0219 0.9570 0.2892
vn -0.0169 0.9999 -0.0037
vn 0.0770 0.9492 -0.3052
vn -0.1896 0.9670 -0.1699
vn -0.3659 0.7342 0.5719
vn -0.2162 0.5308 0.8195
vn -0.0155 0.7549 0.6557
vn 0.0412 0.5392 0.8411
vn 0.3539 0.7244 0.5916
vn -0.1786 0.9835 -0.0295
vn -0.3723 0.8809 0.2922
vn 0.0082 0.9729 0.2312
vn 0.3445 0.9118 0.2237
vn 0.1416 0.9839 -0.1089
vn 0.3602 0.8836 -0.2991
vn 0.0450 0.7979 -0.6011
vn -0.0245 0.9332 -0.3585
vn -0.2563 0.7375 -0.6248
vn -0.4020 0.8480 -0.3453
vn 0.1856 0.9406 0.2843
vn 0.3375 0.9404 -0.0425
vn -0.0452 0.9969 0.0649
vn -0.3881 0.9214 -0.0213
vn -0.1726 0.9209 0.3494
# 98 vertex normals

vt 0.4670 0.9142 0.0000
vt 0.4672 0.6816 0.0000
vt 0.2997 0.6816 0.0000
vt 0.1323 0.6816 0.0000
vt 0.6347 0.6816 0.0000
vt 0.8022 0.6816 0.0000
vt 0.2466 0.5098 0.0000
vt 0.4670 0.5098 0.0000
vt 0.0262 0.5098 0.0000
vt 0.6875 0.5098 0.0000
vt 0.9079 0.5098 0.0000
vt 0.4670 0.3444 0.0000
vt 0.2403 0.3444 0.0000
vt 0.0135 0.3444 0.0000
vt 0.6938 0.3444 0.0000
vt 0.9206 0.3444 0.0000
vt 0.4670 0.0078 0.0000
vt 0.2843 0.2120 0.0000
vt 0.4670 0.2120 0.0000
vt 0.1016 0.2120 0.0000
vt 0.6498 0.2120 0.0000
vt 0.8325 0.2120 0.0000
vt 0.9928 0.0073 1.0000
vt 0.8969 0.0073 1.0000
vt 0.8969 0.0832 1.0000
vt 0.9928 0.0832 1.0000
vt 0.8009 0.0073 1.0000
vt 0.8009 0.0832 1.0000
vt 0.8969 0.0921 1.0000
vt 0.8969 0.1250 1.0000
vt 0.9928 0.1250 1.0000
vt 0.9928 0.0921 1.0000
vt 0.8009 0.0921 1.0000
vt 0.8009 0.1250 1.0000
vt 0.1440 0.9218 1.0000
vt 0.2329 0.9218 1.0000
vt 0.2329 0.8520 1.0000
vt 0.1440 0.8520 1.0000
vt 0.1440 0.9916 1.0000
vt 0.2329 0.9916 1.0000
vt 0.0085 0.1401 0.2500
vt 0.0085 0.0082 0.2500
vt 0.1405 0.0082 0.2500
vt 0.1405 0.1401 0.2500
vt 0.0134 0.8520 1.0000
vt 0.0134 0.9218 1.0000
vt 0.0134 0.9916 1.0000
vt 0.7824 0.9663 0.0000
vt 0.6499 0.8996 0.0000
vt 0.7824 0.8680 0.0000
vt 0.6499 0.8365 0.0000
vt 0.7824 0.7697 0.0000
vt 0.9882 0.9146 0.0000
vt 0.8833 0.9902 0.0000
vt 0.8833 0.8680 0.0000
vt 0.8833 0.7459 0.0000
vt 0.9882 0.8214 0.0000
vt 0.3218 0.9218 1.0000
vt 0.3218 0.8520 1.0000
vt 0.3218 0.9916 1.0000
# 60 texture coords

g stage1
usemtl Material__99
s 1
f 1/1/1 2/2/2 3/3/3 
f 1/1/1 3/3/3 4/4/4 
f 1/1/1 4/4/4 5/3/5 
f 1/1/1 5/3/5 6/2/6 
f 1/1/1 6/2/6 7/5/7 
f 1/1/1 7/5/7 8/6/8 
f 1/1/1 8/6/8 9/5/9 
f 1/1/1 9/5/9 2/2/2 
f 10/7/10 3/3/3 2/2/2 
f 2/2/2 11/8/11 10/7/10 
f 12/9/12 4/4/4 3/3/3 
f 3/3/3 10/7/10 12/9/12 
f 13/7/13 5/3/5 4/4/4 
f 4/4/4 12/9/12 13/7/13 
f 14/8/14 6/2/6 5/3/5 
f 5/3/5 13/7/13 14/8/14 
f 15/10/15 7/5/7 6/2/6 
f 6/2/6 14/8/14 15/10/15 
f 16/11/16 8/6/8 7/5/7 
f 7/5/7 15/10/15 16/11/16 
f 17/10/17 9/5/9 8/6/8 
f 8/6/8 16/11/16 17/10/17 
f 11/8/11 2/2/2 9/5/9 
f 9/5/9 17/10/17 11/8/11 
f 18/12/18 19/13/19 10/7/10 
f 10/7/10 11/8/11 18/12/18 
f 19/13/19 20/14/20 12/9/12 
f 12/9/12 10/7/10 19/13/19 
f 20/14/20 21/13/21 13/7/13 
f 13/7/13 12/9/12 20/14/20 
f 21/13/21 22/12/22 14/8/14 
f 14/8/14 13/7/13 21/13/21 
f 22/12/22 23/15/23 15/10/15 
f 15/10/15 14/8/14 22/12/22 
f 23/15/23 24/16/24 16/11/16 
f 16/11/16 15/10/15 23/15/23 
f 24/16/24 25/15/25 17/10/17 
f 17/10/17 16/11/16 24/16/24 
f 25/15/25 18/12/18 11/8/11 
f 11/8/11 17/10/17 25/15/25 
f 26/17/26 27/18/27 28/19/28 
f 26/17/26 29/20/29 27/18/27 
f 26/17/26 30/18/30 29/20/29 
f 26/17/26 31/19/31 30/18/30 
f 26/17/26 32/21/32 31/19/31 
f 26/17/26 33/22/33 32/21/32 
f 26/17/26 34/21/34 33/22/33 
f 26/17/26 28/19/28 34/21/34 
f 28/19/28 27/18/27 19/13/19 
f 19/13/19 18/12/18 28/19/28 
f 27/18/27 29/20/29 20/14/20 
f 20/14/20 19/13/19 27/18/27 
f 29/20/29 30/18/30 21/13/21 
f 21/13/21 20/14/20 29/20/29 
f 30/18/30 31/19/31 22/12/22 
f 22/12/22 21/13/21 30/18/30 
f 31/19/31 32/21/32 23/15/23 
f 23/15/23 22/12/22 31/19/31 
f 32/21/32 33/22/33 24/16/24 
f 24/16/24 23/15/23 32/21/32 
f 33/22/33 34/21/34 25/15/25 
f 25/15/25 24/16/24 33/22/33 
f 34/21/34 28/19/28 18/12/18 
f 18/12/18 25/15/25 34/21/34 
f 35/23/35 36/24/36 37/25/37 
f 37/25/37 38/26/38 35/23/35 
f 36/24/36 39/27/39 40/28/40 
f 40/28/40 37/25/37 36/24/36 
f 39/27/39 41/24/41 42/25/42 
f 42/25/42 40/28/40 39/27/39 
f 41/24/41 35/23/35 38/26/38 
f 38/26/38 42/25/42 41/24/41 
f 37/29/37 43/30/43 44/31/44 
f 44/31/44 38/32/38 37/29/37 
f 40/33/40 45/34/45 43/30/43 
f 43/30/43 37/29/37 40/33/40 
f 42/29/42 46/30/46 45/34/45 
f 45/34/45 40/33/40 42/29/42 
f 38/32/38 44/31/44 46/30/46 
f 46/30/46 42/29/42 38/32/38 
f 47/35/47 48/36/48 49/37/49 
f 49/37/49 50/38/50 47/35/47 
f 51/39/51 52/40/52 48/36/48 
f 48/36/48 47/35/47 51/39/51 
f 53/35/53 54/36/54 52/40/52 
f 52/40/52 51/39/51 53/35/53 
f 50/38/50 49/37/49 54/36/54 
f 54/36/54 53/35/53 50/38/50 
f 55/41/55 56/42/56 57/43/57 
f 57/43/57 58/44/58 55/41/55 
f 47/35/47 50/38/50 44/45/44 
f 44/45/44 43/46/43 47/35/47 
f 51/39/51 47/35/47 43/46/43 
f 43/46/43 45/47/45 51/39/51 
f 53/35/53 51/39/51 45/47/45 
f 45/47/45 46/46/46 53/35/53 
f 50/38/50 53/35/53 46/46/46 
f 46/46/46 44/45/44 50/38/50 
f 59/48/59 60/49/60 61/50/61 
f 61/50/61 62/51/62 63/52/63 
f 64/53/64 65/54/65 66/55/66 
f 66/55/66 67/56/67 68/57/68 
f 64/53/64 66/55/66 68/57/68 
f 60/49/60 62/51/62 61/50/61 
f 59/48/59 61/50/61 66/55/66 
f 66/55/66 65/54/65 59/48/59 
f 66/55/66 61/50/61 63/52/63 
f 63/52/63 67/56/67 66/55/66 
f 69/48/69 70/49/70 71/50/71 
f 71/50/71 72/51/72 73/52/73 
f 74/53/74 75/54/75 76/55/76 
f 76/55/76 77/56/77 78/57/78 
f 74/53/74 76/55/76 78/57/78 
f 70/49/70 72/51/72 71/50/71 
f 69/48/69 71/50/71 76/55/76 
f 76/55/76 75/54/75 69/48/69 
f 76/55/76 71/50/71 73/52/73 
f 73/52/73 77/56/77 76/55/76 
f 79/48/79 80/49/80 81/50/81 
f 81/50/81 82/51/82 83/52/83 
f 84/53/84 85/54/85 86/55/86 
f 86/55/86 87/56/87 88/57/88 
f 84/53/84 86/55/86 88/57/88 
f 80/49/80 82/51/82 81/50/81 
f 79/48/79 81/50/81 86/55/86 
f 86/55/86 85/54/85 79/48/79 
f 86/55/86 81/50/81 83/52/83 
f 83/52/83 87/56/87 86/55/86 
f 89/48/89 90/49/90 91/50/91 
f 91/50/91 92/51/92 93/52/93 
f 94/53/94 95/54/95 96/55/96 
f 96/55/96 97/56/97 98/57/98 
f 94/53/94 96/55/96 98/57/98 
f 90/49/90 92/51/92 91/50/91 
f 89/48/89 91/50/91 96/55/96 
f 96/55/96 95/54/95 89/48/89 
f 96/55/96 91/50/91 93/52/93 
f 93/52/93 97/56/97 96/55/96 
f 55/58/55 58/59/58 49/37/49 
f 49/37/49 48/36/48 55/58/55 
f 56/60/56 55/58/55 48/36/48 
f 48/36/48 52/40/52 56/60/56 
f 57/58/57 56/60/56 52/40/52 
f 52/40/52 54/36/54 57/58/57 
f 58/59/58 57/58/57 54/36/54 
f 54/36/54 49/37/49 58/59/58 
# 146 faces

#
# object stage0
#

v  50.0000 72.4415 -20.0159
v  50.0000 62.9048 -3.7310
v  62.5112 63.8047 -8.8346
v  67.6936 65.9772 -21.1558
v  62.5112 68.1498 -33.4769
v  50.0000 69.0497 -38.5805
v  37.4888 68.1498 -33.4769
v  32.3064 65.9772 -21.1558
v  37.4888 63.8047 -8.8346
v  67.0685 53.2514 -6.0679
v  50.0000 52.0237 0.8948
v  74.1385 56.2153 -22.8771
v  67.0685 59.1792 -39.6863
v  50.0000 60.4069 -46.6489
v  32.9315 59.1792 -39.6863
v  25.8615 56.2153 -22.8771
v  32.9315 53.2514 -6.0679
v  50.0000 38.5947 -0.4071
v  67.8109 39.8758 -7.6725
v  75.1884 42.9686 -25.2128
v  67.8109 46.0614 -42.7531
v  50.0000 47.3425 -50.0185
v  32.1891 46.0614 -42.7531
v  24.8117 42.9686 -25.2128
v  32.1891 39.8758 -7.6725
v  50.0000 29.1035 -27.6576
v  64.0977 31.0001 -13.0080
v  50.0000 29.9861 -7.2572
v  69.9372 33.4482 -26.8915
v  64.0977 35.8962 -40.7751
v  50.0000 36.9102 -46.5258
v  35.9023 35.8962 -40.7750
v  30.0628 33.4482 -26.8915
v  35.9023 31.0001 -13.0080
v  46.7783 70.8939 -20.2888
v  50.0000 70.3345 -17.1161
v  50.0000 73.3899 -16.5773
v  46.7783 73.9493 -19.7501
v  53.2217 70.8939 -20.2888
v  53.2217 73.9493 -19.7501
v  50.0000 71.4534 -23.4616
v  50.0000 74.5087 -22.9228
v  50.0000 74.0234 -17.8848
v  48.1760 74.3401 -19.6812
v  51.8240 74.3401 -19.6812
v  50.0000 74.6569 -21.4775
v  50.0000 80.4898 -12.8222
v  50.0000 84.4759 -6.2489
v  47.9331 86.4724 -6.7838
v  47.8230 82.0292 -14.3616
v  52.1770 82.0292 -14.3616
v  52.0669 86.4724 -6.7838
v  50.0000 83.5685 -15.9009
v  50.0000 88.4689 -7.3188
v  50.0000 82.7316 3.8115
v  52.3810 85.0764 4.2250
v  50.0000 87.4212 4.6384
v  47.6190 85.0764 4.2250
v  38.3990 70.1401 -23.9708
v  34.3718 69.0163 -21.3053
v  38.0152 72.1612 -18.1050
v  33.2877 69.2873 -18.2078
v  38.3990 70.6295 -14.3959
v  48.7544 71.7882 -22.0774
v  42.3366 71.0901 -24.7309
v  42.7392 72.9476 -18.1666
v  44.5314 71.5237 -13.6435
v  48.7544 72.2299 -17.6964
v  63.2545 71.2421 -14.6190
v  68.7159 68.8664 -16.8790
v  63.5259 72.6530 -19.0251
v  69.4438 68.8263 -21.2860
v  63.2512 70.0584 -25.5762
v  51.6743 71.8631 -17.3613
v  57.6634 72.0731 -14.4012
v  57.2608 73.5209 -19.1622
v  56.6690 71.1952 -26.5441
v  51.6743 71.7859 -22.8021
v  44.5207 67.6152 -7.6391
v  47.9957 63.9618 -3.4217
v  50.3708 69.6606 -6.4862
v  51.5546 63.2216 -2.4163
v  55.0522 68.2472 -7.5277
v  47.2333 71.7747 -18.2452
v  44.3863 70.0645 -12.5779
v  50.7853 72.6043 -12.0819
v  55.9440 70.9134 -13.1335
v  52.7667 71.6343 -18.2700
v  55.4793 71.4548 -33.8157
v  51.5546 69.4630 -39.7665
v  49.4489 74.1217 -33.7398
v  48.4454 69.3260 -38.9895
v  44.5207 71.8053 -33.3559
v  52.7667 72.5326 -21.8882
v  56.0223 72.4178 -27.8773
v  48.9503 74.9741 -27.4747
v  42.9039 72.4178 -27.8773
v  47.2333 72.5326 -21.8882
# 98 vertices

vn 0.0000 0.9848 0.1736
vn 0.0000 0.6171 0.7869
vn 0.4722 0.6511 0.5943
vn 0.6678 0.7331 0.1293
vn 0.4722 0.8150 -0.3358
vn -0.0000 0.8490 -0.5284
vn -0.4722 0.8150 -0.3358
vn -0.6678 0.7331 0.1293
vn -0.4722 0.6511 0.5943
vn 0.6735 0.1828 0.7162
vn 0.0000 0.1344 0.9909
vn 0.9525 0.2998 0.0529
vn 0.6735 0.4168 -0.6105
vn -0.0000 0.4652 -0.8852
vn -0.6735 0.4168 -0.6105
vn -0.9525 0.2998 0.0529
vn -0.6735 0.1828 0.7162
vn 0.0000 -0.3628 0.9319
vn 0.6935 -0.3129 0.6490
vn 0.9807 -0.1925 -0.0339
vn 0.6935 -0.0721 -0.7169
vn -0.0000 -0.0222 -0.9998
vn -0.6935 -0.0721 -0.7169
vn -0.9807 -0.1925 -0.0339
vn -0.6935 -0.3129 0.6490
vn -0.0000 -0.9848 -0.1736
vn 0.4664 -0.8212 0.3288
vn -0.0000 -0.8547 0.5191
vn 0.6596 -0.7402 -0.1305
vn 0.4664 -0.6592 -0.5898
vn -0.0000 -0.6257 -0.7801
vn -0.4664 -0.6592 -0.5898
vn -0.6596 -0.7402 -0.1305
vn -0.4664 -0.8212 0.3288
vn -1.0000 0.0000 0.0000
vn 0.0000 -0.1736 0.9848
vn 0.0000 0.3405 0.9403
vn -0.8669 0.4910 0.0866
vn 1.0000 0.0000 -0.0000
vn 0.8669 0.4910 0.0866
vn -0.0000 0.1736 -0.9848
vn -0.0000 0.6415 -0.7671
vn 0.0048 0.4791 0.8778
vn -0.6082 0.7915 0.0599
vn 0.6086 0.7910 0.0630
vn -0.0006 0.9354 -0.3537
vn 0.0029 -0.7487 0.6629
vn 0.0037 -0.9846 0.1750
vn -0.9888 0.1462 -0.0311
vn -0.9953 0.0629 -0.0736
vn 0.9956 0.0600 -0.0716
vn 0.9893 0.1423 -0.0317
vn -0.0009 0.7211 -0.6928
vn -0.0011 0.9762 -0.2170
vn 0.0031 -0.9025 0.4307
vn 0.8256 -0.0836 0.5581
vn -0.0018 0.7298 0.6836
vn -0.8250 -0.0789 0.5596
vn -0.3133 0.9023 -0.2960
vn -0.4720 0.8349 -0.2832
vn -0.3361 0.9409 0.0415
vn -0.5183 0.8541 -0.0438
vn -0.2858 0.8793 0.3809
vn 0.0668 0.9799 -0.1877
vn -0.1551 0.9530 -0.2602
vn -0.0717 0.9969 0.0334
vn -0.0410 0.9483 0.3148
vn 0.1157 0.9927 0.0349
vn 0.2938 0.9076 0.2998
vn 0.5387 0.8276 0.1577
vn 0.3152 0.9489 -0.0167
vn 0.5061 0.8540 -0.1208
vn 0.2679 0.8999 -0.3441
vn -0.2505 0.9620 0.1085
vn 0.0219 0.9570 0.2892
vn -0.0169 0.9999 -0.0037
vn 0.0770 0.9492 -0.3052
vn -0.1896 0.9670 -0.1699
vn -0.3659 0.7342 0.5719
vn -0.2162 0.5308 0.8195
vn -0.0155 0.7549 0.6557
vn 0.0412 0.5392 0.8411
vn 0.3539 0.7244 0.5916
vn -0.1786 0.9835 -0.0295
vn -0.3723 0.8809 0.2922
vn 0.0082 0.9729 0.2312
vn 0.3445 0.9118 0.2237
vn 0.1416 0.9839 -0.1089
vn 0.3602 0.8836 -0.2991
vn 0.0450 0.7979 -0.6011
vn -0.0245 0.9332 -0.3585
vn -0.2563 0.7375 -0.6248
vn -0.4020 0.8480 -0.3453
vn 0.1856 0.9406 0.2843
vn 0.3375 0.9404 -0.0425
vn -0.0452 0.9969 0.0649
vn -0.3881 0.9214 -0.0213
vn -0.1726 0.9209 0.3494
# 98 vertex normals

vt 0.4670 0.9142 0.0000
vt 0.4672 0.6816 0.0000
vt 0.2997 0.6816 0.0000
vt 0.1323 0.6816 0.0000
vt 0.6347 0.6816 0.0000
vt 0.8022 0.6816 0.0000
vt 0.2466 0.5098 0.0000
vt 0.4670 0.5098 0.0000
vt 0.0262 0.5098 0.0000
vt 0.6875 0.5098 0.0000
vt 0.9079 0.5098 0.0000
vt 0.4670 0.3444 0.0000
vt 0.2403 0.3444 0.0000
vt 0.0135 0.3444 0.0000
vt 0.6938 0.3444 0.0000
vt 0.9206 0.3444 0.0000
vt 0.4670 0.0078 0.0000
vt 0.2843 0.2120 0.0000
vt 0.4670 0.2120 0.0000
vt 0.1016 0.2120 0.0000
vt 0.6498 0.2120 0.0000
vt 0.8325 0.2120 0.0000
vt 0.9928 0.0073 1.0000
vt 0.8969 0.0073 1.0000
vt 0.8969 0.0832 1.0000
vt 0.9928 0.0832 1.0000
vt 0.8009 0.0073 1.0000
vt 0.8009 0.0832 1.0000
vt 0.8969 0.0921 1.0000
vt 0.8969 0.1250 1.0000
vt 0.9928 0.1250 1.0000
vt 0.9928 0.0921 1.0000
vt 0.8009 0.0921 1.0000
vt 0.8009 0.1250 1.0000
vt 0.1440 0.9218 1.0000
vt 0.2329 0.9218 1.0000
vt 0.2329 0.8520 1.0000
vt 0.1440 0.8520 1.0000
vt 0.1440 0.9916 1.0000
vt 0.2329 0.9916 1.0000
vt 0.0085 0.1401 0.2500
vt 0.0085 0.0082 0.2500
vt 0.1405 0.0082 0.2500
vt 0.1405 0.1401 0.2500
vt 0.0134 0.8520 1.0000
vt 0.0134 0.9218 1.0000
vt 0.0134 0.9916 1.0000
vt 0.7824 0.9663 0.0000
vt 0.6499 0.8996 0.0000
vt 0.7824 0.8680 0.0000
vt 0.6499 0.8365 0.0000
vt 0.7824 0.7697 0.0000
vt 0.9882 0.9146 0.0000
vt 0.8833 0.9902 0.0000
vt 0.8833 0.8680 0.0000
vt 0.8833 0.7459 0.0000
vt 0.9882 0.8214 0.0000
vt 0.3218 0.9218 1.0000
vt 0.3218 0.8520 1.0000
vt 0.3218 0.9916 1.0000
# 60 texture coords

g stage0
usemtl Material__99
s 1
f 99/61/99 100/62/100 101/63/101 
f 99/61/99 101/63/101 102/64/102 
f 99/61/99 102/64/102 103/63/103 
f 99/61/99 103/63/103 104/62/104 
f 99/61/99 104/62/104 105/65/105 
f 99/61/99 105/65/105 106/66/106 
f 99/61/99 106/66/106 107/65/107 
f 99/61/99 107/65/107 100/62/100 
f 108/67/108 101/63/101 100/62/100 
f 100/62/100 109/68/109 108/67/108 
f 110/69/110 102/64/102 101/63/101 
f 101/63/101 108/67/108 110/69/110 
f 111/67/111 103/63/103 102/64/102 
f 102/64/102 110/69/110 111/67/111 
f 112/68/112 104/62/104 103/63/103 
f 103/63/103 111/67/111 112/68/112 
f 113/70/113 105/65/105 104/62/104 
f 104/62/104 112/68/112 113/70/113 
f 114/71/114 106/66/106 105/65/105 
f 105/65/105 113/70/113 114/71/114 
f 115/70/115 107/65/107 106/66/106 
f 106/66/106 114/71/114 115/70/115 
f 109/68/109 100/62/100 107/65/107 
f 107/65/107 115/70/115 109/68/109 
f 116/72/116 117/73/117 108/67/108 
f 108/67/108 109/68/109 116/72/116 
f 117/73/117 118/74/118 110/69/110 
f 110/69/110 108/67/108 117/73/117 
f 118/74/118 119/73/119 111/67/111 
f 111/67/111 110/69/110 118/74/118 
f 119/73/119 120/72/120 112/68/112 
f 112/68/112 111/67/111 119/73/119 
f 120/72/120 121/75/121 113/70/113 
f 113/70/113 112/68/112 120/72/120 
f 121/75/121 122/76/122 114/71/114 
f 114/71/114 113/70/113 121/75/121 
f 122/76/122 123/75/123 115/70/115 
f 115/70/115 114/71/114 122/76/122 
f 123/75/123 116/72/116 109/68/109 
f 109/68/109 115/70/115 123/75/123 
f 124/77/124 125/78/125 126/79/126 
f 124/77/124 127/80/127 125/78/125 
f 124/77/124 128/78/128 127/80/127 
f 124/77/124 129/79/129 128/78/128 
f 124/77/124 130/81/130 129/79/129 
f 124/77/124 131/82/131 130/81/130 
f 124/77/124 132/81/132 131/82/131 
f 124/77/124 126/79/126 132/81/132 
f 126/79/126 125/78/125 117/73/117 
f 117/73/117 116/72/116 126/79/126 
f 125/78/125 127/80/127 118/74/118 
f 118/74/118 117/73/117 125/78/125 
f 127/80/127 128/78/128 119/73/119 
f 119/73/119 118/74/118 127/80/127 
f 128/78/128 129/79/129 120/72/120 
f 120/72/120 119/73/119 128/78/128 
f 129/79/129 130/81/130 121/75/121 
f 121/75/121 120/72/120 129/79/129 
f 130/81/130 131/82/131 122/76/122 
f 122/76/122 121/75/121 130/81/130 
f 131/82/131 132/81/132 123/75/123 
f 123/75/123 122/76/122 131/82/131 
f 132/81/132 126/79/126 116/72/116 
f 116/72/116 123/75/123 132/81/132 
f 133/83/133 134/84/134 135/85/135 
f 135/85/135 136/86/136 133/83/133 
f 134/84/134 137/87/137 138/88/138 
f 138/88/138 135/85/135 134/84/134 
f 137/87/137 139/84/139 140/85/140 
f 140/85/140 138/88/138 137/87/137 
f 139/84/139 133/83/133 136/86/136 
f 136/86/136 140/85/140 139/84/139 
f 135/89/135 141/90/141 142/91/142 
f 142/91/142 136/92/136 135/89/135 
f 138/93/138 143/94/143 141/90/141 
f 141/90/141 135/89/135 138/93/138 
f 140/89/140 144/90/144 143/94/143 
f 143/94/143 138/93/138 140/89/140 
f 136/92/136 142/91/142 144/90/144 
f 144/90/144 140/89/140 136/92/136 
f 145/95/145 146/96/146 147/97/147 
f 147/97/147 148/98/148 145/95/145 
f 149/99/149 150/100/150 146/96/146 
f 146/96/146 145/95/145 149/99/149 
f 151/95/151 152/96/152 150/100/150 
f 150/100/150 149/99/149 151/95/151 
f 148/98/148 147/97/147 152/96/152 
f 152/96/152 151/95/151 148/98/148 
f 153/101/153 154/102/154 155/103/155 
f 155/103/155 156/104/156 153/101/153 
f 145/95/145 148/98/148 142/105/142 
f 142/105/142 141/106/141 145/95/145 
f 149/99/149 145/95/145 141/106/141 
f 141/106/141 143/107/143 149/99/149 
f 151/95/151 149/99/149 143/107/143 
f 143/107/143 144/106/144 151/95/151 
f 148/98/148 151/95/151 144/106/144 
f 144/106/144 142/105/142 148/98/148 
f 157/108/157 158/109/158 159/110/159 
f 159/110/159 160/111/160 161/112/161 
f 162/113/162 163/114/163 164/115/164 
f 164/115/164 165/116/165 166/117/166 
f 162/113/162 164/115/164 166/117/166 
f 158/109/158 160/111/160 159/110/159 
f 157/108/157 159/110/159 164/115/164 
f 164/115/164 163/114/163 157/108/157 
f 164/115/164 159/110/159 161/112/161 
f 161/112/161 165/116/165 164/115/164 
f 167/108/167 168/109/168 169/110/169 
f 169/110/169 170/111/170 171/112/171 
f 172/113/172 173/114/173 174/115/174 
f 174/115/174 175/116/175 176/117/176 
f 172/113/172 174/115/174 176/117/176 
f 168/109/168 170/111/170 169/110/169 
f 167/108/167 169/110/169 174/115/174 
f 174/115/174 173/114/173 167/108/167 
f 174/115/174 169/110/169 171/112/171 
f 171/112/171 175/116/175 174/115/174 
f 177/108/177 178/109/178 179/110/179 
f 179/110/179 180/111/180 181/112/181 
f 182/113/182 183/114/183 184/115/184 
f 184/115/184 185/116/185 186/117/186 
f 182/113/182 184/115/184 186/117/186 
f 178/109/178 180/111/180 179/110/179 
f 177/108/177 179/110/179 184/115/184 
f 184/115/184 183/114/183 177/108/177 
f 184/115/184 179/110/179 181/112/181 
f 181/112/181 185/116/185 184/115/184 
f 187/108/187 188/109/188 189/110/189 
f 189/110/189 190/111/190 191/112/191 
f 192/113/192 193/114/193 194/115/194 
f 194/115/194 195/116/195 196/117/196 
f 192/113/192 194/115/194 196/117/196 
f 188/109/188 190/111/190 189/110/189 
f 187/108/187 189/110/189 194/115/194 
f 194/115/194 193/114/193 187/108/187 
f 194/115/194 189/110/189 191/112/191 
f 191/112/191 195/116/195 194/115/194 
f 153/118/153 156/119/156 147/97/147 
f 147/97/147 146/96/146 153/118/153 
f 154/120/154 153/118/153 146/96/146 
f 146/96/146 150/100/150 154/120/154 
f 155/118/155 154/120/154 150/100/150 
f 150/100/150 152/96/152 155/118/155 
f 156/119/156 155/118/155 152/96/152 
f 152/96/152 147/97/147 156/119/156 
# 146 faces

