# 3ds Max Wavefront OBJ Exporter v0.97b - (c)2007 guruware
# File Created: 29.05.2020 12:11:40

mtllib ball_hinge.mtl

#
# object head_u
#

v  50.0000 50.0000 -30.7073
v  40.3537 59.6464 -36.3580
v  36.3580 50.0000 -36.3580
v  50.0000 63.6420 -36.3580
v  59.6464 59.6463 -36.3580
v  63.6420 50.0000 -36.3580
v  36.3580 63.6420 -50.0000
v  30.7073 50.0000 -50.0000
v  50.0000 69.2927 -50.0000
v  63.6420 63.6420 -50.0000
v  69.2927 50.0000 -50.0000
v  40.3537 59.6464 -63.6420
v  36.3580 50.0000 -63.6420
v  50.0000 63.6420 -63.6420
v  59.6464 59.6464 -63.6420
v  63.6420 50.0000 -63.6420
v  50.0000 50.0000 -69.2927
v  40.3537 40.3536 -36.3580
v  50.0000 36.3580 -36.3580
v  59.6464 40.3536 -36.3580
v  36.3580 36.3580 -50.0000
v  50.0000 30.7073 -50.0000
v  63.6420 36.3580 -50.0000
v  40.3536 40.3536 -63.6420
v  50.0000 36.3580 -63.6420
v  59.6464 40.3536 -63.6420
v  55.2776 40.8589 -9.5884
v  44.7224 40.8589 -9.5884
v  44.7224 40.8589 -36.1300
v  55.2776 40.8589 -36.1300
v  60.5552 50.0000 -9.5884
v  60.5552 50.0000 -36.1300
v  55.2776 59.1411 -9.5884
v  55.2776 59.1411 -36.1300
v  44.7224 59.1411 -9.5884
v  44.7224 59.1411 -36.1300
v  39.4448 50.0000 -9.5884
v  39.4448 50.0000 -36.1300
v  89.9505 89.9505 -0.0000
v  10.0495 89.9504 0.0000
v  10.0496 10.0495 0.0000
v  89.9505 10.0496 -0.0000
v  89.9505 89.9505 -10.9191
v  89.9505 10.0496 -10.9191
v  10.0496 10.0495 -10.9190
v  10.0495 89.9504 -10.9190
# 46 vertices

vn 0.0000 -0.0000 1.0000
vn -0.5294 0.5294 0.6630
vn -0.7486 0.0000 0.6630
vn 0.0000 0.7486 0.6630
vn 0.5294 0.5294 0.6630
vn 0.7486 -0.0000 0.6630
vn -0.7071 0.7071 0.0000
vn -1.0000 0.0000 0.0000
vn 0.0000 1.0000 0.0000
vn 0.7071 0.7071 -0.0000
vn 1.0000 -0.0000 -0.0000
vn -0.5294 0.5294 -0.6630
vn -0.7486 0.0000 -0.6630
vn -0.0000 0.7486 -0.6630
vn 0.5294 0.5294 -0.6630
vn 0.7486 -0.0000 -0.6630
vn -0.0000 0.0000 -1.0000
vn -0.5294 -0.5294 0.6630
vn 0.0000 -0.7486 0.6630
vn 0.5294 -0.5294 0.6630
vn -0.7071 -0.7071 0.0000
vn -0.0000 -1.0000 -0.0000
vn 0.7071 -0.7071 -0.0000
vn -0.5294 -0.5294 -0.6630
vn -0.0000 -0.7486 -0.6630
vn 0.5294 -0.5294 -0.6630
vn 0.5000 -0.8660 0.0000
vn -0.5000 -0.8660 0.0000
vn 1.0000 0.0000 0.0000
vn 1.0000 0.0000 -0.0000
vn 0.5000 0.8660 -0.0000
vn -0.5000 0.8660 -0.0000
vn -1.0000 -0.0000 0.0000
vn 0.5774 0.5774 0.5773
vn -0.5774 0.5774 0.5774
vn -0.5773 -0.5774 0.5774
vn 0.5774 -0.5774 0.5774
vn 0.5773 0.5774 -0.5774
vn 0.5774 -0.5774 -0.5774
vn -0.5774 -0.5774 -0.5773
vn -0.5774 0.5773 -0.5774
# 41 vertex normals

vt 0.4978 0.7574 0.9995
vt 0.3614 0.6109 0.8829
vt 0.3048 0.7574 0.8829
vt 0.4978 0.5503 0.8829
vt 0.6343 0.6109 0.8829
vt 0.6908 0.7574 0.8829
vt 0.8364 0.4865 0.6325
vt 0.8364 0.6384 0.0005
vt 0.9838 0.5471 0.0005
vt 0.9838 0.4396 0.4474
vt 0.8364 0.3266 0.8942
vt 0.9838 0.3266 0.6325
vt 0.8364 0.1667 0.6325
vt 0.9838 0.2135 0.4474
vt 0.8364 0.0148 0.0005
vt 0.9838 0.1061 0.0005
vt 0.6890 0.4396 0.4474
vt 0.6387 0.5471 0.0005
vt 0.6890 0.3266 0.6325
vt 0.6890 0.2135 0.4474
vt 0.6387 0.1061 0.0005
vt 0.5664 0.3266 0.0005
vt 0.1021 0.7628 1.0000
vt 0.1878 0.7628 1.0000
vt 0.1878 0.5603 1.0000
vt 0.1021 0.5603 1.0000
vt 0.0164 0.7628 1.0000
vt 0.0164 0.5603 1.0000
vt 0.2735 0.7628 1.0000
vt 0.2735 0.5603 1.0000
vt 0.0160 0.1713 0.9995
vt 0.3986 0.1713 0.9995
vt 0.3986 0.5359 0.9995
vt 0.0160 0.5359 0.9995
vt 0.7402 0.6656 0.0005
vt 0.7402 0.9108 0.0005
vt 0.9855 0.9108 0.0005
vt 0.9855 0.6656 0.0005
vt 0.4940 0.1664 0.9995
vt 0.5409 0.1664 0.9995
vt 0.5409 0.5163 0.5000
vt 0.4940 0.5163 0.5000
vt 0.4243 0.5163 0.5000
vt 0.4713 0.5163 0.5000
vt 0.4713 0.1664 0.0005
vt 0.4243 0.1664 0.0005
vt 0.4940 0.5163 0.0005
vt 0.5409 0.5163 0.0005
vt 0.5409 0.1664 0.5000
vt 0.4940 0.1664 0.5000
vt 0.4243 0.1664 0.5000
vt 0.4713 0.1664 0.5000
vt 0.4713 0.5163 0.9995
vt 0.4243 0.5163 0.9995
# 54 texture coords

g head_u
usemtl Material__1
s 1
f 1/1/1 2/2/2 3/3/3 
f 1/1/1 4/4/4 2/2/2 
f 1/1/1 5/5/5 4/4/4 
f 1/1/1 6/6/6 5/5/5 
f 7/7/7 8/8/8 3/9/3 
f 3/9/3 2/10/2 7/7/7 
f 9/11/9 7/7/7 2/10/2 
f 2/10/2 4/12/4 9/11/9 
f 10/13/10 9/11/9 4/12/4 
f 4/12/4 5/14/5 10/13/10 
f 11/15/11 10/13/10 5/14/5 
f 5/14/5 6/16/6 11/15/11 
f 12/17/12 13/18/13 8/8/8 
f 8/8/8 7/7/7 12/17/12 
f 14/19/14 12/17/12 7/7/7 
f 7/7/7 9/11/9 14/19/14 
f 15/20/15 14/19/14 9/11/9 
f 9/11/9 10/13/10 15/20/15 
f 16/21/16 15/20/15 10/13/10 
f 10/13/10 11/15/11 16/21/16 
f 17/22/17 13/18/13 12/17/12 
f 17/22/17 12/17/12 14/19/14 
f 17/22/17 14/19/14 15/20/15 
f 17/22/17 15/20/15 16/21/16 
f 1/1/1 3/3/3 18/2/18 
f 1/1/1 18/2/18 19/4/19 
f 1/1/1 19/4/19 20/5/20 
f 1/1/1 20/5/20 6/6/6 
f 21/7/21 18/10/18 3/9/3 
f 3/9/3 8/8/8 21/7/21 
f 22/11/22 19/12/19 18/10/18 
f 18/10/18 21/7/21 22/11/22 
f 23/13/23 20/14/20 19/12/19 
f 19/12/19 22/11/22 23/13/23 
f 11/15/11 6/16/6 20/14/20 
f 20/14/20 23/13/23 11/15/11 
f 24/17/24 21/7/21 8/8/8 
f 8/8/8 13/18/13 24/17/24 
f 25/19/25 22/11/22 21/7/21 
f 21/7/21 24/17/24 25/19/25 
f 26/20/26 23/13/23 22/11/22 
f 22/11/22 25/19/25 26/20/26 
f 16/21/16 11/15/11 23/13/23 
f 23/13/23 26/20/26 16/21/16 
f 17/22/17 24/17/24 13/18/13 
f 17/22/17 25/19/25 24/17/24 
f 17/22/17 26/20/26 25/19/25 
f 17/22/17 16/21/16 26/20/26 
f 27/23/27 28/24/28 29/25/28 
f 29/25/28 30/26/27 27/23/27 
f 31/27/29 27/23/27 30/26/27 
f 30/26/27 32/28/30 31/27/29 
f 33/23/31 31/27/29 32/28/30 
f 32/28/30 34/26/31 33/23/31 
f 35/24/32 33/23/31 34/26/31 
f 34/26/31 36/25/32 35/24/32 
f 37/29/33 35/24/32 36/25/32 
f 36/25/32 38/30/33 37/29/33 
f 28/24/28 37/29/33 38/30/33 
f 38/30/33 29/25/28 28/24/28 
f 39/31/34 40/32/35 41/33/36 
f 41/33/36 42/34/37 39/31/34 
f 43/35/38 44/36/39 45/37/40 
f 45/37/40 46/38/41 43/35/38 
f 39/39/34 43/40/38 46/41/41 
f 46/41/41 40/42/35 39/39/34 
f 40/43/35 46/44/41 45/45/40 
f 45/45/40 41/46/36 40/43/35 
f 41/47/36 45/48/40 44/49/39 
f 44/49/39 42/50/37 41/47/36 
f 42/51/37 44/52/39 43/53/38 
f 43/53/38 39/54/34 42/51/37 
# 72 faces

#
# object ohead_u
#

v  56.5031 38.7364 -70.4304
v  43.4969 38.7364 -70.4304
v  43.4969 38.7364 -91.8143
v  56.5031 38.7364 -91.8143
v  63.0061 50.0000 -70.4304
v  63.0061 50.0000 -91.8143
v  56.5031 61.2637 -70.4304
v  56.5031 61.2636 -91.8143
v  43.4969 61.2637 -70.4304
v  43.4969 61.2636 -91.8144
v  36.9939 50.0000 -70.4304
v  36.9939 50.0000 -91.8143
v  89.9505 89.9505 -90.0217
v  10.0495 89.9504 -90.0216
v  10.0496 10.0495 -90.0216
v  89.9505 10.0496 -90.0217
v  89.9504 89.9505 -100.0217
v  89.9505 10.0496 -100.0217
v  10.0496 10.0495 -100.0216
v  10.0495 89.9505 -100.0216
v  50.0000 50.0000 -70.7189
v  37.5309 62.4692 -55.3825
v  32.3660 50.0000 -55.3825
v  50.0000 67.6340 -55.3825
v  62.4692 62.4692 -55.3826
v  67.6341 50.0000 -55.3826
v  34.7510 65.2490 -56.3555
v  28.4347 50.0000 -56.3555
v  50.0000 71.5653 -56.3555
v  65.2490 65.2490 -56.3555
v  71.5653 50.0000 -56.3555
v  38.4871 61.5129 -70.8456
v  33.7183 50.0000 -70.8456
v  50.0000 66.2817 -70.8456
v  61.5129 61.5129 -70.8456
v  66.2817 50.0000 -70.8456
v  50.0000 50.0000 -74.8826
v  37.5309 37.5308 -55.3825
v  50.0000 32.3660 -55.3826
v  62.4692 37.5308 -55.3826
v  34.7510 34.7510 -56.3555
v  50.0000 28.4347 -56.3555
v  65.2490 34.7510 -56.3555
v  38.4871 38.4871 -70.8456
v  50.0000 33.7183 -70.8456
v  61.5129 38.4871 -70.8456
# 46 vertices

vn 0.5000 -0.8660 0.0000
vn -0.5000 -0.8660 0.0000
vn 1.0000 0.0000 0.0000
vn 0.5000 0.8660 -0.0000
vn -0.5000 0.8660 -0.0000
vn -1.0000 0.0000 -0.0000
vn -1.0000 -0.0000 -0.0000
vn 0.5774 0.5774 0.5774
vn -0.5774 0.5774 0.5774
vn -0.5773 -0.5774 0.5774
vn 0.5774 -0.5774 0.5774
vn 0.5773 0.5774 -0.5774
vn 0.5774 -0.5774 -0.5774
vn -0.5774 -0.5774 -0.5773
vn -0.5774 0.5774 -0.5773
vn 0.0000 -0.0000 1.0000
vn 0.0855 -0.0855 0.9927
vn 0.1208 -0.0000 0.9927
vn 0.0000 -0.1208 0.9927
vn -0.0855 -0.0855 0.9927
vn -0.1208 -0.0000 0.9927
vn -0.6456 0.6456 0.4079
vn -0.9130 0.0000 0.4079
vn 0.0000 0.9130 0.4079
vn 0.6456 0.6456 0.4079
vn 0.9130 -0.0000 0.4079
vn -0.5117 0.5117 -0.6901
vn -0.7237 0.0000 -0.6901
vn -0.0000 0.7237 -0.6901
vn 0.5117 0.5117 -0.6901
vn 0.7237 -0.0000 -0.6901
vn -0.0000 0.0000 -1.0000
vn 0.0855 0.0855 0.9927
vn 0.0000 0.1208 0.9927
vn -0.0855 0.0855 0.9927
vn -0.6456 -0.6456 0.4079
vn 0.0000 -0.9130 0.4079
vn 0.6456 -0.6456 0.4079
vn -0.5117 -0.5117 -0.6901
vn -0.0000 -0.7237 -0.6901
vn 0.5117 -0.5117 -0.6901
# 41 vertex normals

vt 0.1373 0.9886 1.0000
vt 0.2626 0.9886 1.0000
vt 0.2626 0.7862 1.0000
vt 0.1373 0.7862 1.0000
vt 0.0121 0.9886 1.0000
vt 0.0121 0.7862 1.0000
vt 0.3878 0.9886 1.0000
vt 0.3878 0.7862 1.0000
vt 0.0160 0.1713 0.9995
vt 0.3986 0.1713 0.9995
vt 0.3986 0.5359 0.9995
vt 0.0160 0.5359 0.9995
vt 0.7402 0.6656 0.0005
vt 0.7402 0.9108 0.0005
vt 0.9855 0.9108 0.0005
vt 0.9855 0.6656 0.0005
vt 0.4940 0.1664 0.9995
vt 0.5409 0.1664 0.9995
vt 0.5409 0.5163 0.5000
vt 0.4940 0.5163 0.5000
vt 0.4243 0.5163 0.5000
vt 0.4713 0.5163 0.5000
vt 0.4713 0.1664 0.0005
vt 0.4243 0.1664 0.0005
vt 0.4940 0.5163 0.0005
vt 0.5409 0.5163 0.0005
vt 0.5409 0.1664 0.5000
vt 0.4940 0.1664 0.5000
vt 0.4243 0.1664 0.5000
vt 0.4713 0.1664 0.5000
vt 0.4713 0.5163 0.9995
vt 0.4243 0.5163 0.9995
vt 0.7079 0.8283 0.2005
vt 0.6777 0.8564 0.4743
vt 0.7079 0.8680 0.4743
vt 0.6652 0.8283 0.4743
vt 0.6777 0.8001 0.4743
vt 0.7079 0.7885 0.4743
vt 0.5544 0.9356 0.7069
vt 0.4128 0.9356 0.0005
vt 0.4128 0.9874 0.0005
vt 0.5544 0.9874 0.5781
vt 0.7015 0.9356 0.9995
vt 0.7015 0.9874 0.8174
vt 0.8486 0.9356 0.7069
vt 0.8486 0.9874 0.5781
vt 0.9901 0.9356 0.0005
vt 0.9901 0.9874 0.0005
vt 0.4704 0.1473 0.5338
vt 0.5853 0.1473 0.0005
vt 0.6659 0.0146 0.0005
vt 0.5137 0.0146 0.7069
vt 0.3370 0.1473 0.7547
vt 0.3370 0.0146 0.9995
vt 0.2036 0.1473 0.5338
vt 0.1603 0.0146 0.7069
vt 0.0886 0.1473 0.0005
vt 0.0081 0.0146 0.0005
vt 0.5361 0.9137 0.0005
vt 0.4166 0.9137 0.1979
vt 0.4516 0.8230 0.1979
vt 0.5361 0.7854 0.1979
vt 0.6206 0.8230 0.1979
vt 0.6556 0.9137 0.1979
# 64 texture coords

g ohead_u
usemtl Material__1
s 1
f 47/55/42 48/56/43 49/57/43 
f 49/57/43 50/58/42 47/55/42 
f 51/59/44 47/55/42 50/58/42 
f 50/58/42 52/60/44 51/59/44 
f 53/55/45 51/59/44 52/60/44 
f 52/60/44 54/58/45 53/55/45 
f 55/56/46 53/55/45 54/58/45 
f 54/58/45 56/57/46 55/56/46 
f 57/61/47 55/56/46 56/57/46 
f 56/57/46 58/62/48 57/61/47 
f 48/56/43 57/61/47 58/62/48 
f 58/62/48 49/57/43 48/56/43 
f 59/63/49 60/64/50 61/65/51 
f 61/65/51 62/66/52 59/63/49 
f 63/67/53 64/68/54 65/69/55 
f 65/69/55 66/70/56 63/67/53 
f 59/71/49 63/72/53 66/73/56 
f 66/73/56 60/74/50 59/71/49 
f 60/75/50 66/76/56 65/77/55 
f 65/77/55 61/78/51 60/75/50 
f 61/79/51 65/80/55 64/81/54 
f 64/81/54 62/82/52 61/79/51 
f 62/83/52 64/84/54 63/85/53 
f 63/85/53 59/86/49 62/83/52 
f 67/87/57 68/88/58 69/89/59 
f 67/87/57 70/90/60 68/88/58 
f 67/87/57 71/91/61 70/90/60 
f 67/87/57 72/92/62 71/91/61 
f 73/93/63 74/94/64 69/95/59 
f 69/95/59 68/96/58 73/93/63 
f 75/97/65 73/93/63 68/96/58 
f 68/96/58 70/98/60 75/97/65 
f 76/99/66 75/97/65 70/98/60 
f 70/98/60 71/100/61 76/99/66 
f 77/101/67 76/99/66 71/100/61 
f 71/100/61 72/102/62 77/101/67 
f 78/103/68 79/104/69 74/105/64 
f 74/105/64 73/106/63 78/103/68 
f 80/107/70 78/103/68 73/106/63 
f 73/106/63 75/108/65 80/107/70 
f 81/109/71 80/107/70 75/108/65 
f 75/108/65 76/110/66 81/109/71 
f 82/111/72 81/109/71 76/110/66 
f 76/110/66 77/112/67 82/111/72 
f 83/113/73 79/114/69 78/115/68 
f 83/113/73 78/115/68 80/116/70 
f 83/113/73 80/116/70 81/117/71 
f 83/113/73 81/117/71 82/118/72 
f 67/87/57 69/89/59 84/88/74 
f 67/87/57 84/88/74 85/90/75 
f 67/87/57 85/90/75 86/91/76 
f 67/87/57 86/91/76 72/92/62 
f 87/93/77 84/96/74 69/95/59 
f 69/95/59 74/94/64 87/93/77 
f 88/97/78 85/98/75 84/96/74 
f 84/96/74 87/93/77 88/97/78 
f 89/99/79 86/100/76 85/98/75 
f 85/98/75 88/97/78 89/99/79 
f 77/101/67 72/102/62 86/100/76 
f 86/100/76 89/99/79 77/101/67 
f 90/103/80 87/106/77 74/105/64 
f 74/105/64 79/104/69 90/103/80 
f 91/107/81 88/108/78 87/106/77 
f 87/106/77 90/103/80 91/107/81 
f 92/109/82 89/110/79 88/108/78 
f 88/108/78 91/107/81 92/109/82 
f 82/111/72 77/112/67 89/110/79 
f 89/110/79 92/109/82 82/111/72 
f 83/113/73 90/115/80 79/114/69 
f 83/113/73 91/116/81 90/115/80 
f 83/113/73 92/117/82 91/116/81 
f 83/113/73 82/118/72 92/117/82 
# 72 faces

