# 3ds Max Wavefront OBJ Exporter v0.97b - (c)2007 guruware
# File Created: 16.04.2021 18:48:14

mtllib Ê÷Ö¦\branchthin.mtl

#
# object base1
#

v  35.0000 35.0000 -35.0000
v  35.0000 35.0000 -65.0000
v  35.0000 65.0000 -65.0000
v  35.0000 65.0000 -35.0000
v  0.0000 35.0000 -35.0000
v  -0.0000 65.0000 -35.0000
v  -0.0000 65.0000 -65.0000
v  0.0000 35.0000 -65.0000
# 8 vertices

vn 1.0000 0.0000 -0.0000
vn -1.0000 -0.0000 -0.0000
vn 0.0000 0.0000 1.0000
vn -0.0000 1.0000 -0.0000
vn 0.0000 0.0000 -1.0000
vn 0.0000 -1.0000 -0.0000
# 6 vertex normals

vt 1.0000 0.0000 0.0000
vt 1.0000 1.0000 0.0000
vt 0.0000 1.0000 0.0000
vt 0.0000 0.0000 0.0000
# 4 texture coords

g base1
usemtl 09___Default
s 2
f 1/1/1 2/2/1 3/3/1 
f 3/3/1 4/4/1 1/1/1 
s 4
f 5/4/2 6/1/2 7/2/2 
f 7/2/2 8/3/2 5/4/2 
s 8
f 1/4/3 4/1/3 6/2/3 
f 6/2/3 5/3/3 1/4/3 
s 16
f 4/4/4 3/1/4 7/2/4 
f 7/2/4 6/3/4 4/4/4 
s 32
f 3/4/5 2/1/5 8/2/5 
f 8/2/5 7/3/5 3/4/5 
s 64
f 2/4/6 1/1/6 5/2/6 
f 5/2/6 8/3/6 2/4/6 
# 12 faces

#
# object base3
#

v  65.0000 35.0000 -35.0000
v  65.0000 35.0000 -65.0000
v  65.0000 65.0000 -65.0000
v  65.0000 65.0000 -35.0000
v  100.0000 35.0000 -35.0000
v  100.0000 65.0000 -35.0000
v  100.0000 65.0000 -65.0000
v  100.0000 35.0000 -65.0000
# 8 vertices

vn -1.0000 -0.0000 -0.0000
vn 1.0000 0.0000 0.0000
vn -0.0000 0.0000 1.0000
vn 0.0000 1.0000 -0.0000
vn 0.0000 -0.0000 -1.0000
vn -0.0000 -1.0000 0.0000
# 6 vertex normals

vt 1.0000 0.0000 0.0000
vt 1.0000 1.0000 0.0000
vt 0.0000 1.0000 0.0000
vt 0.0000 0.0000 0.0000
# 4 texture coords

g base3
usemtl 09___Default
s 2
f 11/7/7 10/6/7 9/5/7 
f 9/5/7 12/8/7 11/7/7 
s 4
f 15/6/8 14/5/8 13/8/8 
f 13/8/8 16/7/8 15/6/8 
s 8
f 14/6/9 12/5/9 9/8/9 
f 9/8/9 13/7/9 14/6/9 
s 16
f 15/6/10 11/5/10 12/8/10 
f 12/8/10 14/7/10 15/6/10 
s 32
f 16/6/11 10/5/11 11/8/11 
f 11/8/11 15/7/11 16/6/11 
s 64
f 13/6/12 9/5/12 10/8/12 
f 10/8/12 16/7/12 13/6/12 
# 12 faces

#
# object base5
#

v  35.0000 35.0000 -35.0000
v  65.0000 35.0000 -35.0000
v  65.0000 65.0000 -35.0000
v  35.0000 65.0000 -35.0000
v  35.0000 35.0000 0.0000
v  35.0000 65.0000 0.0000
v  65.0000 65.0000 -0.0000
v  65.0000 35.0000 -0.0000
# 8 vertices

vn -0.0000 -0.0000 -1.0000
vn 0.0000 0.0000 1.0000
vn -1.0000 -0.0000 0.0000
vn -0.0000 1.0000 -0.0000
vn 1.0000 0.0000 -0.0000
vn 0.0000 -1.0000 -0.0000
# 6 vertex normals

vt 1.0000 0.0000 0.0000
vt 1.0000 1.0000 0.0000
vt 0.0000 1.0000 0.0000
vt 0.0000 0.0000 0.0000
# 4 texture coords

g base5
usemtl 09___Default
s 2
f 19/11/13 18/10/13 17/9/13 
f 17/9/13 20/12/13 19/11/13 
s 4
f 23/10/14 22/9/14 21/12/14 
f 21/12/14 24/11/14 23/10/14 
s 8
f 22/10/15 20/9/15 17/12/15 
f 17/12/15 21/11/15 22/10/15 
s 16
f 23/10/16 19/9/16 20/12/16 
f 20/12/16 22/11/16 23/10/16 
s 32
f 24/10/17 18/9/17 19/12/17 
f 19/12/17 23/11/17 24/10/17 
s 64
f 21/10/18 17/9/18 18/12/18 
f 18/12/18 24/11/18 21/10/18 
# 12 faces

#
# object base6
#

v  35.0000 35.0000 -65.0000
v  65.0000 35.0000 -65.0000
v  65.0000 65.0000 -65.0000
v  35.0000 65.0000 -65.0000
v  35.0000 35.0000 -100.0000
v  35.0000 65.0000 -100.0000
v  65.0000 65.0000 -100.0000
v  65.0000 35.0000 -100.0000
# 8 vertices

vn -0.0000 -0.0000 1.0000
vn 0.0000 0.0000 -1.0000
vn -1.0000 -0.0000 -0.0000
vn -0.0000 1.0000 -0.0000
vn 1.0000 0.0000 0.0000
vn 0.0000 -1.0000 -0.0000
# 6 vertex normals

vt 1.0000 0.0000 0.0000
vt 1.0000 1.0000 0.0000
vt 0.0000 1.0000 0.0000
vt 0.0000 0.0000 0.0000
# 4 texture coords

g base6
usemtl 09___Default
s 2
f 25/13/19 26/14/19 27/15/19 
f 27/15/19 28/16/19 25/13/19 
s 4
f 29/16/20 30/13/20 31/14/20 
f 31/14/20 32/15/20 29/16/20 
s 8
f 25/16/21 28/13/21 30/14/21 
f 30/14/21 29/15/21 25/16/21 
s 16
f 28/16/22 27/13/22 31/14/22 
f 31/14/22 30/15/22 28/16/22 
s 32
f 27/16/23 26/13/23 32/14/23 
f 32/14/23 31/15/23 27/16/23 
s 64
f 26/16/24 25/13/24 29/14/24 
f 29/14/24 32/15/24 26/16/24 
# 12 faces

#
# object base2
#

v  65.0000 65.0000 -35.0000
v  65.0000 65.0000 -65.0000
v  35.0000 65.0000 -65.0000
v  35.0000 65.0000 -35.0000
v  65.0000 100.0000 -35.0000
v  35.0000 100.0000 -35.0000
v  35.0000 100.0000 -65.0000
v  65.0000 100.0000 -65.0000
# 8 vertices

vn -0.0000 -1.0000 -0.0000
vn 0.0000 1.0000 0.0000
vn -0.0000 0.0000 1.0000
vn -1.0000 0.0000 -0.0000
vn 0.0000 0.0000 -1.0000
vn 1.0000 -0.0000 0.0000
# 6 vertex normals

vt 1.0000 0.0000 0.0000
vt 1.0000 1.0000 0.0000
vt 0.0000 1.0000 0.0000
vt 0.0000 0.0000 0.0000
# 4 texture coords

g base2
usemtl 09___Default
s 2
f 35/19/25 34/18/25 33/17/25 
f 33/17/25 36/20/25 35/19/25 
s 4
f 39/18/26 38/17/26 37/20/26 
f 37/20/26 40/19/26 39/18/26 
s 8
f 38/18/27 36/17/27 33/20/27 
f 33/20/27 37/19/27 38/18/27 
s 16
f 39/18/28 35/17/28 36/20/28 
f 36/20/28 38/19/28 39/18/28 
s 32
f 40/18/29 34/17/29 35/20/29 
f 35/20/29 39/19/29 40/18/29 
s 64
f 37/18/30 33/17/30 34/20/30 
f 34/20/30 40/19/30 37/18/30 
# 12 faces

#
# object base4
#

v  65.0000 35.0000 -35.0000
v  65.0000 35.0000 -65.0000
v  35.0000 35.0000 -65.0000
v  35.0000 35.0000 -35.0000
v  65.0000 0.0000 -35.0000
v  35.0000 0.0000 -35.0000
v  35.0000 0.0000 -65.0000
v  65.0000 0.0000 -65.0000
# 8 vertices

vn -0.0000 1.0000 -0.0000
vn 0.0000 -1.0000 -0.0000
vn 0.0000 0.0000 1.0000
vn -1.0000 0.0000 -0.0000
vn 0.0000 0.0000 -1.0000
vn 1.0000 -0.0000 -0.0000
# 6 vertex normals

vt 1.0000 0.0000 0.0000
vt 1.0000 1.0000 0.0000
vt 0.0000 1.0000 0.0000
vt 0.0000 0.0000 0.0000
# 4 texture coords

g base4
usemtl 09___Default
s 2
f 41/21/31 42/22/31 43/23/31 
f 43/23/31 44/24/31 41/21/31 
s 4
f 45/24/32 46/21/32 47/22/32 
f 47/22/32 48/23/32 45/24/32 
s 8
f 41/24/33 44/21/33 46/22/33 
f 46/22/33 45/23/33 41/24/33 
s 16
f 44/24/34 43/21/34 47/22/34 
f 47/22/34 46/23/34 44/24/34 
s 32
f 43/24/35 42/21/35 48/22/35 
f 48/22/35 47/23/35 43/24/35 
s 64
f 42/24/36 41/21/36 45/22/36 
f 45/22/36 48/23/36 42/24/36 
# 12 faces

#
# object base7
#

v  35.0000 35.0000 -35.0000
v  35.0000 35.0000 -65.0000
v  65.0000 35.0000 -65.0000
v  65.0000 35.0000 -35.0000
v  35.0000 65.0000 -35.0000
v  65.0000 65.0000 -35.0000
v  65.0000 65.0000 -65.0000
v  35.0000 65.0000 -65.0000
# 8 vertices

vn 0.0000 -1.0000 -0.0000
vn 0.0000 1.0000 -0.0000
vn 0.0000 0.0000 1.0000
vn 1.0000 0.0000 -0.0000
vn 0.0000 0.0000 -1.0000
vn -1.0000 0.0000 -0.0000
# 6 vertex normals

vt 1.0000 0.0000 0.0000
vt 1.0000 1.0000 0.0000
vt 0.0000 1.0000 0.0000
vt 0.0000 0.0000 0.0000
# 4 texture coords

g base7
usemtl 09___Default
s 2
f 49/25/37 50/26/37 51/27/37 
f 51/27/37 52/28/37 49/25/37 
s 4
f 53/28/38 54/25/38 55/26/38 
f 55/26/38 56/27/38 53/28/38 
s 8
f 49/28/39 52/25/39 54/26/39 
f 54/26/39 53/27/39 49/28/39 
s 16
f 52/28/40 51/25/40 55/26/40 
f 55/26/40 54/27/40 52/28/40 
s 32
f 51/28/41 50/25/41 56/26/41 
f 56/26/41 55/27/41 51/28/41 
s 64
f 50/28/42 49/25/42 53/26/42 
f 53/26/42 56/27/42 50/28/42 
# 12 faces

#
# object base8
#

v  35.0000 65.0000 -35.0000
v  35.0000 65.0000 -65.0000
v  35.0000 35.0000 -65.0000
v  35.0000 35.0000 -35.0000
v  65.0000 65.0000 -35.0000
v  65.0000 35.0000 -35.0000
v  65.0000 35.0000 -65.0000
v  65.0000 65.0000 -65.0000
# 8 vertices

vn -1.0000 0.0000 -0.0000
vn 1.0000 -0.0000 -0.0000
vn 0.0000 0.0000 1.0000
vn -0.0000 -1.0000 -0.0000
vn 0.0000 0.0000 -1.0000
vn 0.0000 1.0000 -0.0000
# 6 vertex normals

vt 1.0000 0.0000 0.0000
vt 1.0000 1.0000 0.0000
vt 0.0000 1.0000 0.0000
vt 0.0000 0.0000 0.0000
# 4 texture coords

g base8
usemtl 09___Default
s 2
f 57/29/43 58/30/43 59/31/43 
f 59/31/43 60/32/43 57/29/43 
s 4
f 61/32/44 62/29/44 63/30/44 
f 63/30/44 64/31/44 61/32/44 
s 8
f 57/32/45 60/29/45 62/30/45 
f 62/30/45 61/31/45 57/32/45 
s 16
f 60/32/46 59/29/46 63/30/46 
f 63/30/46 62/31/46 60/32/46 
s 32
f 59/32/47 58/29/47 64/30/47 
f 64/30/47 63/31/47 59/32/47 
s 64
f 58/32/48 57/29/48 61/30/48 
f 61/30/48 64/31/48 58/32/48 
# 12 faces

