# Max2Obj Version 4.0 Mar 10th, 2001
#
# object base to come ...
#
v  0.000000 0.000004 -100.000000
v  100.000000 0.000004 -100.000000
v  0.000000 95.469910 -99.999985
v  100.000000 95.469910 -99.999985
v  0.000000 0.000000 -0.000000
v  100.000000 0.000000 -0.000000
v  0.000000 95.469902 -0.000000
v  100.000000 95.469902 -0.000000
v  26.308222 31.566650 -2.866199
v  73.691780 31.566650 -2.866192
v  26.308222 66.763252 -2.866199
v  73.691780 66.763252 -2.866192
v  26.308222 31.566650 15.272522
v  73.691780 31.566650 15.272522
v  26.308222 66.763252 15.272522
v  73.691780 66.763252 15.272522
v  37.004539 39.888901 15.272522
v  62.995461 39.888901 15.272522
v  62.995461 58.441002 15.272522
v  37.004539 58.441002 15.272522
v  37.004539 39.888901 3.801170
v  62.995461 39.888901 3.801170
v  62.995461 58.441002 3.801170
v  37.004539 58.441002 3.801170
v  15.251560 93.822403 -84.748444
v  0.858280 93.822411 -49.999996
v  15.251560 93.822411 -15.251549
v  50.000000 93.822411 -0.858292
v  50.000000 100.000000 -99.141708
v  15.251560 100.000000 -84.748428
v  0.858280 100.000000 -49.999992
v  15.251560 100.000000 -15.251541
v  50.000000 100.000000 -0.858280
v  19.680758 100.000000 -80.384933
v  7.094906 100.000000 -49.999992
v  19.680767 100.000000 -19.615074
v  9.791431 98.669220 -49.999996
v  21.586861 98.669220 -78.476692
v  21.586861 98.669220 -21.523310
v  23.013510 98.669220 -77.049652
v  23.013510 98.669228 -22.950350
v  11.809181 98.669220 -49.999996
v  50.000000 99.853867 -89.507645
v  40.195938 99.853867 -62.836891
v  14.910278 99.853867 -61.140480
v  34.408920 99.853867 -47.042999
v  24.454250 99.853859 -20.255030
v  50.000000 99.853867 -63.016941
v  50.000000 99.853867 -79.943138
v  43.461788 99.853867 -62.899292
v  37.141979 99.853867 -45.064552
v  30.554510 99.853859 -27.773529
v  47.036674 99.853867 -38.262829
v  50.000000 99.853867 -60.192631
v  42.563263 99.853867 -60.173042
v  39.270172 99.853867 -60.163872
v  22.789499 99.853867 -59.287399
v  35.513351 99.853867 -50.135384
v  38.246029 99.853867 -48.393715
v  50.000000 93.822403 -99.141724
v  84.748444 93.822403 -84.748444
v  99.141724 93.822411 -49.999996
v  84.748444 93.822411 -15.251549
v  84.748444 100.000000 -84.748428
v  99.141724 100.000000 -49.999992
v  84.748444 100.000000 -15.251541
v  50.000000 100.000000 -92.970779
v  80.319244 100.000000 -80.384933
v  92.905090 100.000000 -49.999992
v  80.319229 100.000000 -19.615074
v  50.000000 100.000000 -7.029224
v  50.000000 98.669220 -50.000000
v  50.000000 98.669220 -90.272125
v  90.208572 98.669220 -49.999996
v  50.000000 98.669220 -9.727879
v  78.413139 98.669220 -78.476692
v  78.413139 98.669220 -21.523310
v  76.986488 98.669220 -77.049652
v  50.000000 98.669220 -88.253990
v  50.000000 98.669228 -11.746010
v  76.986488 98.669228 -22.950350
v  88.190819 98.669220 -49.999996
v  59.804062 99.853867 -62.836891
v  85.089722 99.853867 -61.140480
v  65.591080 99.853867 -47.042999
v  75.545746 99.853859 -20.255030
v  50.000000 99.853867 -36.008251
v  56.538212 99.853867 -62.899292
v  62.858021 99.853867 -45.064552
v  69.445488 99.853859 -27.773529
v  52.963326 99.853867 -38.262829
v  50.000000 99.853867 -40.673416
v  57.436737 99.853867 -60.173042
v  60.729828 99.853867 -60.163872
v  77.210503 99.853867 -59.287399
v  64.486649 99.853867 -50.135384
v  61.753971 99.853867 -48.393715
# 97 vertices

vt  0.010129 0.475734 0.000000
vt  0.010129 0.009467 0.000000
vt  0.498520 0.009467 0.000000
vt  0.498520 0.475734 0.000000
vt  0.498520 0.475734 0.000000
vt  0.010129 0.475734 0.000000
vt  0.010129 0.009467 0.000000
vt  0.498520 0.009467 0.000000
vt  0.344959 0.498232 0.000000
vt  0.654862 0.498232 0.000000
vt  0.654862 0.808135 0.000000
vt  0.344959 0.808135 0.000000
vt  0.991376 0.009467 0.000000
vt  0.991376 0.475734 0.000000
vt  0.010998 0.499514 0.000000
vt  0.320901 0.499514 0.000000
vt  0.320901 0.809416 0.000000
vt  0.010998 0.809416 0.000000
vt  0.991376 0.009467 0.000000
vt  0.991376 0.475734 0.000000
vt  0.866928 0.525904 0.000000
vt  0.838596 0.525904 0.000000
vt  0.838596 0.497157 0.000000
vt  0.866928 0.497157 0.000000
vt  0.989313 0.495687 0.000000
vt  0.989313 0.680095 0.000000
vt  0.923842 0.680095 0.000000
vt  0.923842 0.495687 0.000000
vt  0.989313 0.829724 0.000000
vt  0.989313 0.679843 0.000000
vt  0.923842 0.679843 0.000000
vt  0.923842 0.829724 0.000000
vt  0.989313 0.986135 0.000000
vt  0.923842 0.986135 0.000000
vt  0.989313 0.807010 0.000000
vt  0.923842 0.807010 0.000000
vt  0.868467 0.817186 0.000000
vt  0.868467 0.687878 0.000000
vt  0.829037 0.687878 0.000000
vt  0.829037 0.817186 0.000000
vt  0.868467 0.687878 0.000000
vt  0.868467 0.560165 0.000000
vt  0.829037 0.560165 0.000000
vt  0.829037 0.687878 0.000000
vt  0.868467 0.817186 0.000000
vt  0.829037 0.817186 0.000000
vt  0.868467 0.560165 0.000000
vt  0.829037 0.560165 0.000000
vt  0.762659 0.864716 0.000000
vt  0.762659 0.990944 0.000000
vt  0.823577 0.990944 0.000000
vt  0.823577 0.864716 0.000000
vt  0.842069 0.864347 0.000000
vt  0.675192 0.879775 0.000000
vt  0.736110 0.879775 0.000000
vt  0.902988 0.864347 0.000000
vt  0.842069 0.990574 0.000000
vt  0.902988 0.990574 0.000000
vt  0.675192 0.978296 0.000000
vt  0.736110 0.978296 0.000000
vt  0.502985 0.009467 0.000000
vt  0.502985 0.475734 0.000000
vt  0.502985 0.475734 0.000000
vt  0.502985 0.009467 0.000000
vt  0.989313 0.807010 0.000000
vt  0.923842 0.807010 0.000000
vt  0.989313 0.652098 0.000000
vt  0.923842 0.652098 0.000000
vt  0.675192 0.978296 0.000000
vt  0.736110 0.978296 0.000000
vt  0.675192 0.879775 0.000000
vt  0.736110 0.879775 0.000000
vt  0.157606 0.859270 0.000000
vt  0.013565 0.859270 0.000000
vt  0.013565 0.828868 0.000000
vt  0.157606 0.828868 0.000000
vt  0.311724 0.859270 0.000000
vt  0.311724 0.828868 0.000000
vt  0.482558 0.859270 0.000000
vt  0.482558 0.828868 0.000000
vt  0.634505 0.859270 0.000000
vt  0.634505 0.828868 0.000000
vt  0.157606 0.909349 0.000000
vt  0.013565 0.909349 0.000000
vt  0.311724 0.909349 0.000000
vt  0.482558 0.909349 0.000000
vt  0.634505 0.909349 0.000000
vt  0.013565 0.949740 0.000000
vt  0.013565 0.927574 0.000000
vt  0.161612 0.927574 0.000000
vt  0.161612 0.949740 0.000000
vt  0.313976 0.949740 0.000000
vt  0.313976 0.927574 0.000000
vt  0.482774 0.927574 0.000000
vt  0.482774 0.949740 0.000000
vt  0.634505 0.949740 0.000000
vt  0.634505 0.927574 0.000000
vt  0.161244 0.989178 0.000000
vt  0.013565 0.989178 0.000000
vt  0.013565 0.969746 0.000000
vt  0.161244 0.969746 0.000000
vt  0.313608 0.969746 0.000000
vt  0.313608 0.989178 0.000000
vt  0.482406 0.989178 0.000000
vt  0.482406 0.969746 0.000000
vt  0.634505 0.989178 0.000000
vt  0.634505 0.969746 0.000000
vt  0.886525 0.513759 0.000000
vt  0.905012 0.513759 0.000000
vt  0.905012 0.597521 0.000000
vt  0.886525 0.597521 0.000000
vt  0.886467 0.721960 0.000000
vt  0.886467 0.669120 0.000000
vt  0.905029 0.669120 0.000000
vt  0.905029 0.721960 0.000000
vt  0.905012 0.784340 0.000000
vt  0.886525 0.811874 0.000000
vt  0.886525 0.725809 0.000000
vt  0.905012 0.725809 0.000000
vt  0.904423 0.614267 0.000000
vt  0.886832 0.614267 0.000000
vt  0.887197 0.592612 0.000000
vt  0.904128 0.592612 0.000000
vt  0.904673 0.736695 0.000000
vt  0.904673 0.777080 0.000000
vt  0.886467 0.777080 0.000000
vt  0.886467 0.736695 0.000000
vt  0.886467 0.607984 0.000000
vt  0.905029 0.607984 0.000000
vt  0.905012 0.680969 0.000000
vt  0.905012 0.716991 0.000000
vt  0.886525 0.716991 0.000000
vt  0.886525 0.680969 0.000000
vt  0.698165 0.541435 0.000000
vt  0.685883 0.578697 0.000000
vt  0.722104 0.601523 0.000000
vt  0.722104 0.541435 0.000000
vt  0.905012 0.670459 0.000000
vt  0.886525 0.670459 0.000000
vt  0.760710 0.656277 0.000000
vt  0.677277 0.740489 0.000000
vt  0.677277 0.621940 0.000000
vt  0.795819 0.739943 0.000000
vt  0.761483 0.823930 0.000000
vt  0.677277 0.859038 0.000000
vt  0.787794 0.549174 0.000000
vt  0.787794 0.492602 0.000000
vt  0.806581 0.500199 0.000000
vt  0.905012 0.502520 0.000000
vt  0.749453 0.561246 0.000000
vt  0.773132 0.505523 0.000000
vt  0.735921 0.505523 0.000000
vt  0.775623 0.568354 0.000000
vt  0.788194 0.615271 0.000000
vt  0.755007 0.615161 0.000000
vt  0.157606 0.859270 0.000000
vt  0.013565 0.859270 0.000000
vt  0.013565 0.828868 0.000000
vt  0.157606 0.828868 0.000000
vt  0.311724 0.859270 0.000000
vt  0.311724 0.828868 0.000000
vt  0.482558 0.859270 0.000000
vt  0.482558 0.828868 0.000000
vt  0.634505 0.859270 0.000000
vt  0.634505 0.828868 0.000000
vt  0.157606 0.909349 0.000000
vt  0.013565 0.909349 0.000000
vt  0.311724 0.909349 0.000000
vt  0.482558 0.909349 0.000000
vt  0.634505 0.909349 0.000000
vt  0.013565 0.949740 0.000000
vt  0.013565 0.927574 0.000000
vt  0.161612 0.927574 0.000000
vt  0.161612 0.949740 0.000000
vt  0.313976 0.949740 0.000000
vt  0.313976 0.927574 0.000000
vt  0.482774 0.927574 0.000000
vt  0.482774 0.949740 0.000000
vt  0.634505 0.949740 0.000000
vt  0.634505 0.927574 0.000000
vt  0.161244 0.989178 0.000000
vt  0.013565 0.989178 0.000000
vt  0.013565 0.969746 0.000000
vt  0.161244 0.969746 0.000000
vt  0.313608 0.969746 0.000000
vt  0.313608 0.989178 0.000000
vt  0.482406 0.989178 0.000000
vt  0.482406 0.969746 0.000000
vt  0.634505 0.989178 0.000000
vt  0.634505 0.969746 0.000000
vt  0.886525 0.513759 0.000000
vt  0.905012 0.513759 0.000000
vt  0.905012 0.597521 0.000000
vt  0.886525 0.597521 0.000000
vt  0.886467 0.721960 0.000000
vt  0.886467 0.669120 0.000000
vt  0.905029 0.669120 0.000000
vt  0.905029 0.721960 0.000000
vt  0.905012 0.784340 0.000000
vt  0.886525 0.811874 0.000000
vt  0.886525 0.725809 0.000000
vt  0.905012 0.725809 0.000000
vt  0.904423 0.614267 0.000000
vt  0.886832 0.614267 0.000000
vt  0.887197 0.592612 0.000000
vt  0.904128 0.592612 0.000000
vt  0.904673 0.736695 0.000000
vt  0.904673 0.777080 0.000000
vt  0.886467 0.777080 0.000000
vt  0.886467 0.736695 0.000000
vt  0.886467 0.607984 0.000000
vt  0.905029 0.607984 0.000000
vt  0.905012 0.680969 0.000000
vt  0.905012 0.716991 0.000000
vt  0.886525 0.716991 0.000000
vt  0.886525 0.680969 0.000000
vt  0.698165 0.541435 0.000000
vt  0.685883 0.578697 0.000000
vt  0.722104 0.601523 0.000000
vt  0.722104 0.541435 0.000000
vt  0.905012 0.670459 0.000000
vt  0.886525 0.670459 0.000000
vt  0.760710 0.656277 0.000000
vt  0.677277 0.740489 0.000000
vt  0.677277 0.621940 0.000000
vt  0.795819 0.739943 0.000000
vt  0.761483 0.823930 0.000000
vt  0.677277 0.859038 0.000000
vt  0.787794 0.549174 0.000000
vt  0.787794 0.492602 0.000000
vt  0.806581 0.500199 0.000000
vt  0.905012 0.502520 0.000000
vt  0.749453 0.561246 0.000000
vt  0.773132 0.505523 0.000000
vt  0.735921 0.505523 0.000000
vt  0.775623 0.568354 0.000000
vt  0.788194 0.615271 0.000000
vt  0.755007 0.615161 0.000000
# 238 texture vertices

vn  -0.577350 -0.577350 -0.577350
vn  0.577350 -0.577350 -0.577350
vn  -0.577350 0.577350 -0.577350
vn  0.577350 0.577350 -0.577350
vn  -0.577350 -0.577350 0.577350
vn  0.577350 -0.577350 0.577350
vn  -0.577350 0.577350 0.577350
vn  0.577350 0.577350 0.577350
vn  -0.707107 -0.707107 -0.000000
vn  0.707107 -0.707107 -0.000000
vn  -0.707107 0.707107 -0.000000
vn  0.707107 0.707107 -0.000000
vn  -0.577350 -0.577350 0.577350
vn  0.577350 -0.577350 0.577350
vn  -0.577350 0.577350 0.577350
vn  0.577350 0.577350 0.577350
vn  0.301511 0.301511 0.904534
vn  -0.301511 0.301511 0.904534
vn  -0.301511 -0.301511 0.904534
vn  0.301511 -0.301511 0.904534
vn  0.577350 0.577350 0.577350
vn  -0.577350 0.577350 0.577350
vn  -0.577350 -0.577350 0.577350
vn  0.577350 -0.577350 0.577350
vn  -0.707107 0.000001 -0.707107
vn  -1.000000 -0.000000 -0.000000
vn  -0.707107 -0.000001 0.707107
vn  0.000000 -0.000002 1.000000
vn  0.000000 0.630263 -0.776382
vn  -0.548985 0.630263 -0.548985
vn  -0.776382 0.630263 0.000000
vn  -0.548985 0.630262 0.548985
vn  0.000000 0.630262 0.776383
vn  0.121776 0.985066 0.121719
vn  0.172155 0.985070 -0.000000
vn  0.121777 0.985066 -0.121719
vn  0.279513 0.960142 0.000000
vn  0.197711 0.960172 0.197433
vn  0.197711 0.960172 -0.197432
vn  0.000000 1.000000 -0.000000
vn  -0.000002 1.000000 0.000002
vn  -0.000000 1.000000 -0.000000
vn  0.000000 1.000000 -0.000000
vn  0.000000 1.000000 -0.000000
vn  0.000000 1.000000 -0.000000
vn  -0.000000 1.000000 0.000000
vn  -0.000000 1.000000 0.000000
vn  0.000000 1.000000 -0.000000
vn  0.000000 1.000000 -0.000000
vn  0.000000 1.000000 -0.000000
vn  -0.000000 1.000000 0.000000
vn  0.000000 1.000000 0.000000
vn  -0.000000 1.000000 0.000000
vn  0.000000 1.000000 -0.000000
vn  0.000000 1.000000 -0.000000
vn  0.000000 1.000000 -0.000000
vn  0.000000 1.000000 -0.000000
vn  0.000000 1.000000 -0.000000
vn  0.000000 1.000000 -0.000000
vn  0.000000 0.000002 -1.000000
vn  0.707107 0.000001 -0.707107
vn  1.000000 -0.000000 -0.000000
vn  0.707107 -0.000001 0.707107
vn  0.548985 0.630263 -0.548985
vn  0.776382 0.630262 0.000000
vn  0.548985 0.630262 0.548985
vn  0.000000 0.985109 0.171928
vn  -0.121776 0.985066 0.121719
vn  -0.172155 0.985070 -0.000000
vn  -0.121777 0.985066 -0.121719
vn  0.000000 0.985110 -0.171928
vn  -0.000000 1.000000 -0.000000
vn  -0.000000 0.960166 0.279429
vn  -0.279513 0.960142 0.000000
vn  0.000000 0.960167 -0.279428
vn  -0.197711 0.960172 0.197433
vn  -0.197711 0.960172 -0.197432
vn  0.000000 1.000000 -0.000000
vn  0.000000 1.000000 -0.000000
vn  0.000000 1.000000 0.000002
vn  0.000002 1.000000 0.000002
vn  0.000000 1.000000 -0.000000
vn  0.000000 1.000000 -0.000000
vn  0.000000 1.000000 -0.000000
vn  0.000000 1.000000 0.000000
vn  0.000000 1.000000 0.000000
vn  0.000000 1.000000 0.000000
vn  0.000000 1.000000 -0.000000
vn  0.000000 1.000000 0.000000
vn  -0.000000 1.000000 0.000000
vn  0.000000 1.000000 0.000000
vn  0.000000 1.000000 -0.000000
vn  0.000000 1.000000 -0.000000
vn  0.000000 1.000000 -0.000000
vn  0.000000 1.000000 -0.000000
vn  0.000000 1.000000 -0.000000
vn  0.000000 1.000000 -0.000000
# 97 vertex normals

g base
s 1
f 1/3/1 3/4/3 4/1/4
f 4/1/4 2/2/2 1/3/1
f 5/7/5 6/8/6 8/5/8
f 8/5/8 7/6/7 5/7/5
f 1/11/1 2/12/2 6/9/6
f 6/9/6 5/10/5 1/11/1
f 2/13/2 4/14/4 8/63/8
f 8/63/8 6/64/6 2/13/2
f 4/17/4 3/18/3 7/15/7
f 7/15/7 8/16/8 4/17/4
f 3/62/3 1/61/1 5/19/5
f 5/19/5 7/20/7 3/62/3
f 21/23/21 22/24/22 23/21/23
f 23/21/23 24/22/24 21/23/21
f 9/68/9 10/28/10 14/25/14
f 14/25/14 13/67/13 9/68/9
f 10/31/10 12/66/12 16/65/16
f 16/65/16 14/30/14 10/31/10
f 12/32/12 11/34/11 15/33/15
f 15/33/15 16/29/16 12/32/12
f 11/36/11 9/27/9 13/26/13
f 13/26/13 15/35/15 11/36/11
f 13/39/13 14/40/14 18/37/18
f 18/37/18 17/38/17 13/39/13
f 14/43/14 16/44/16 19/41/19
f 19/41/19 18/42/18 14/43/14
f 16/44/16 15/46/15 20/45/20
f 20/45/20 19/41/19 16/44/16
f 15/48/15 13/39/13 17/38/17
f 17/38/17 20/47/20 15/48/15
f 17/51/17 18/52/18 22/49/22
f 22/49/22 21/50/21 17/51/17
f 18/55/18 19/70/19 23/69/23
f 23/69/23 22/54/22 18/55/18
f 19/56/19 20/58/20 24/57/24
f 24/57/24 23/53/23 19/56/19
f 20/60/20 17/72/17 21/71/21
f 21/71/21 24/59/24 20/60/20
f 60/75/60 25/76/25 30/73/30
f 30/73/30 29/74/29 60/75/60
f 25/76/25 26/78/26 31/77/31
f 31/77/31 30/73/30 25/76/25
f 26/78/26 27/80/27 32/79/32
f 32/79/32 31/77/31 26/78/26
f 27/80/27 28/82/28 33/81/33
f 33/81/33 32/79/32 27/80/27
f 29/74/29 30/73/30 34/83/34
f 34/83/34 67/84/67 29/74/29
f 30/73/30 31/77/31 35/85/35
f 35/85/35 34/83/34 30/73/30
f 31/77/31 32/79/32 36/86/36
f 36/86/36 35/85/35 31/77/31
f 32/79/32 33/81/33 71/87/71
f 71/87/71 36/86/36 32/79/32
f 34/90/34 38/91/38 73/88/73
f 73/88/73 67/89/67 34/90/34
f 34/90/34 35/93/35 37/92/37
f 37/92/37 38/91/38 34/90/34
f 36/94/36 39/95/39 37/92/37
f 37/92/37 35/93/35 36/94/36
f 36/94/36 71/97/71 75/96/75
f 75/96/75 39/95/39 36/94/36
f 73/100/73 38/101/38 40/98/40
f 40/98/40 79/99/79 73/100/73
f 37/102/37 42/103/42 40/98/40
f 40/98/40 38/101/38 37/102/37
f 37/102/37 39/105/39 41/104/41
f 41/104/41 42/103/42 37/102/37
f 39/105/39 75/107/75 80/106/80
f 80/106/80 41/104/41 39/105/39
f 52/110/52 47/111/47 87/108/87
f 87/108/87 53/109/53 52/110/52
f 57/114/57 56/115/56 44/112/44
f 44/112/44 45/113/45 57/114/57
f 44/118/44 50/119/50 49/116/49
f 49/116/49 43/117/43 44/118/44
f 50/122/50 55/123/55 54/120/54
f 54/120/54 48/121/48 50/122/50
f 92/126/92 59/127/59 51/124/51
f 51/124/51 53/125/53 92/126/92
f 58/129/58 57/114/57 45/113/45
f 45/113/45 46/128/46 58/129/58
f 56/132/56 58/133/58 59/130/59
f 59/130/59 55/131/55 56/132/56
f 92/136/92 54/137/54 55/134/55
f 55/134/55 59/135/59 92/136/92
f 47/111/47 52/110/52 51/138/51
f 51/138/51 46/139/46 47/111/47
f 40/140/40 72/141/72 79/142/79
f 42/143/42 72/141/72 40/140/40
f 41/144/41 72/141/72 42/143/42
f 80/145/80 72/141/72 41/144/41
f 44/118/44 56/132/56 55/131/55
f 49/146/49 50/147/50 48/148/48
f 92/149/92 53/109/53 87/108/87
f 52/150/52 53/151/53 51/152/51
f 51/138/51 59/130/59 46/139/46
f 57/153/57 58/154/58 56/155/56
f 44/118/44 55/131/55 50/119/50
f 46/139/46 59/130/59 58/133/58
f 60/158/60 29/157/29 64/156/64
f 64/156/64 61/159/61 60/158/60
f 61/159/61 64/156/64 65/160/65
f 65/160/65 62/161/62 61/159/61
f 62/161/62 65/160/65 66/162/66
f 66/162/66 63/163/63 62/161/62
f 63/163/63 66/162/66 33/164/33
f 33/164/33 28/165/28 63/163/63
f 29/157/29 67/167/67 68/166/68
f 68/166/68 64/156/64 29/157/29
f 64/156/64 68/166/68 69/168/69
f 69/168/69 65/160/65 64/156/64
f 65/160/65 69/168/69 70/169/70
f 70/169/70 66/162/66 65/160/65
f 66/162/66 70/169/70 71/170/71
f 71/170/71 33/164/33 66/162/66
f 68/173/68 67/172/67 73/171/73
f 73/171/73 76/174/76 68/173/68
f 68/173/68 76/174/76 74/175/74
f 74/175/74 69/176/69 68/173/68
f 70/177/70 69/176/69 74/175/74
f 74/175/74 77/178/77 70/177/70
f 70/177/70 77/178/77 75/179/75
f 75/179/75 71/180/71 70/177/70
f 73/183/73 79/182/79 78/181/78
f 78/181/78 76/184/76 73/183/73
f 74/185/74 76/184/76 78/181/78
f 78/181/78 82/186/82 74/185/74
f 74/185/74 82/186/82 81/187/81
f 81/187/81 77/188/77 74/185/74
f 77/188/77 81/187/81 80/189/80
f 80/189/80 75/190/75 77/188/77
f 90/193/90 91/192/91 87/191/87
f 87/191/87 86/194/86 90/193/90
f 95/197/95 84/196/84 83/195/83
f 83/195/83 94/198/94 95/197/95
f 83/201/83 43/200/43 49/199/49
f 49/199/49 88/202/88 83/201/83
f 88/205/88 48/204/48 54/203/54
f 54/203/54 93/206/93 88/205/88
f 92/209/92 91/208/91 89/207/89
f 89/207/89 97/210/97 92/209/92
f 96/212/96 85/211/85 84/196/84
f 84/196/84 95/197/95 96/212/96
f 94/215/94 93/214/93 97/213/97
f 97/213/97 96/216/96 94/215/94
f 92/219/92 97/218/97 93/217/93
f 93/217/93 54/220/54 92/219/92
f 86/194/86 85/222/85 89/221/89
f 89/221/89 90/193/90 86/194/86
f 78/223/78 79/225/79 72/224/72
f 82/226/82 78/223/78 72/224/72
f 81/227/81 82/226/82 72/224/72
f 80/228/80 81/227/81 72/224/72
f 83/201/83 93/214/93 94/215/94
f 49/229/49 48/231/48 88/230/88
f 92/232/92 87/191/87 91/192/91
f 90/233/90 89/235/89 91/234/91
f 89/221/89 85/222/85 97/213/97
f 95/236/95 94/238/94 96/237/96
f 83/201/83 88/202/88 93/214/93
f 85/222/85 96/216/96 97/213/97
# 162 faces

g
