# Max2Obj Version 4.0 Mar 10th, 2001
#
# object pressed to come ...
#
v  19.886734 29.344473 5.691666
v  80.113266 29.344471 5.691665
v  22.318512 69.229034 -1.960936
v  80.113266 70.655518 -0.495850
v  80.113266 29.344473 -0.495850
v  19.886734 70.655533 -0.495849
v  77.681496 30.770960 -1.960938
v  22.318504 30.770964 -1.960936
v  77.681488 69.229034 -1.960938
v  19.886734 29.344473 -0.495849
v  19.886734 70.655533 5.691667
v  80.113266 70.655525 5.691666
v  31.069656 37.425671 15.309734
v  68.930344 37.425667 15.309731
v  71.435791 60.068890 -4.173758
v  28.564209 60.068893 15.309734
v  71.435791 60.068890 15.309731
v  28.564209 39.931114 15.309734
v  71.435791 39.931110 15.309731
v  68.930344 62.574333 -4.173758
v  71.435791 39.931110 -4.173758
v  31.069656 62.574333 15.309734
v  68.930344 62.574333 15.309731
v  69.430786 60.561989 -5.349907
v  69.430779 39.438011 -5.349907
v  30.569214 39.438015 -5.349903
v  68.930344 37.425667 -4.173758
v  28.564209 39.931114 -4.173756
v  28.564209 60.068893 -4.173756
v  31.069656 62.574333 -4.173756
v  31.069656 37.425671 -4.173756
v  44.636551 51.821323 -5.349905
v  55.363441 51.821323 -5.349905
v  55.363441 48.178680 -5.349905
v  44.636551 48.178680 -5.349905
v  44.636551 51.821323 -4.869159
v  55.363441 51.821323 -4.869159
v  55.363441 48.178680 -4.869159
v  44.636551 48.178680 -4.869159
v  30.569221 60.561989 -5.349903
v  69.430786 60.561989 -5.349907
v  69.430779 39.438011 -5.349907
v  30.569214 39.438015 -5.349903
v  44.636551 51.821323 -5.349905
v  55.363441 51.821323 -5.349905
v  55.363441 48.178680 -5.349905
v  44.636551 48.178680 -5.349905
v  30.569221 60.561989 -5.349903
v  71.435791 60.068890 -4.173758
v  28.564209 60.068893 15.309734
v  71.435791 60.068890 15.309731
v  28.564209 60.068893 -4.173756
v  69.430786 60.561989 -5.349907
v  30.569221 60.561989 -5.349903
v  31.069656 37.425671 15.309734
v  68.930344 37.425667 15.309731
v  68.930344 37.425667 -4.173758
v  31.069656 37.425671 -4.173756
v  43.858555 52.304726 -5.349905
v  56.116821 52.289429 -5.349905
v  56.146454 47.690605 -5.349905
v  43.828938 47.735748 -5.349905
# 62 vertices

vt  0.067455 0.068393 0.000500
vt  0.067455 0.473138 0.000500
vt  0.678881 0.473138 0.000500
vt  0.678881 0.068393 0.000500
vt  0.539875 0.555004 0.999500
vt  0.573803 0.555004 0.999500
vt  0.573803 0.827290 0.999500
vt  0.539875 0.827290 0.999500
vt  0.019047 0.523043 0.047221
vt  0.019047 0.018487 0.047221
vt  0.727289 0.018487 0.047221
vt  0.727289 0.523043 0.047221
vt  0.008305 0.987039 0.999500
vt  0.008305 0.864622 0.999501
vt  0.982808 0.864622 0.999500
vt  0.982808 0.987039 0.999500
vt  0.008305 0.864622 0.000500
vt  0.008305 0.987039 0.000500
vt  0.982808 0.987039 0.000499
vt  0.982808 0.864622 0.000500
vt  0.008277 0.986944 0.000500
vt  0.982585 0.986944 0.000500
vt  0.982585 0.864804 0.000500
vt  0.008277 0.864804 0.000500
vt  0.008277 0.986944 0.999500
vt  0.008277 0.864804 0.999500
vt  0.982585 0.864804 0.999500
vt  0.982585 0.986944 0.999500
vt  0.752896 0.361717 1.059131
vt  0.983817 0.301453 1.103722
vt  0.752896 0.082948 1.103722
vt  0.752896 0.301453 1.103722
vt  0.983817 0.361959 1.059131
vt  0.983817 0.082948 1.103722
vt  0.983817 0.851162 1.059131
vt  0.983817 0.361717 1.059131
vt  0.752896 0.851162 1.059131
vt  0.752896 0.361959 1.059131
vt  0.983817 0.561300 1.059131
vt  0.752896 0.561300 1.059131
vt  0.177042 0.171894 0.999501
vt  0.563458 0.171894 0.999498
vt  0.563458 0.359561 0.999497
vt  0.177042 0.359561 0.999499
vt  0.583395 0.176275 0.000501
vt  0.558482 0.377438 0.000500
vt  0.157105 0.355180 0.000504
vt  0.558482 0.154016 0.000502
vt  0.583395 0.355180 0.000500
vt  0.157105 0.176275 0.000505
vt  0.182018 0.154016 0.000505
vt  0.182018 0.377438 0.000503
vt  0.316919 0.249547 0.999499
vt  0.423581 0.249547 0.999498
vt  0.423581 0.281908 0.999498
vt  0.316919 0.281908 0.999499
vt  0.730903 0.666162 0.999500
vt  0.663471 0.666162 0.999498
vt  0.598735 0.666210 0.999498
vt  0.663456 0.640639 0.999499
vt  0.724064 0.616307 0.000501
vt  0.600713 0.616307 0.000499
vt  0.600713 0.556690 0.000499
vt  0.724064 0.556690 0.000500
vt  0.642161 0.666210 0.999500
vt  0.642161 0.666210 0.999498
vt  0.730891 0.640639 0.999498
vt  0.598735 0.666210 0.999499
vt  0.983817 0.013930 1.059131
vt  0.752896 0.013930 1.059131
vt  0.752896 0.361931 1.059131
vt  0.983817 0.082922 1.103722
vt  0.983817 0.361931 1.059131
vt  0.752896 0.082922 1.103722
vt  0.752896 0.301464 1.103722
vt  0.983817 0.014304 1.059131
vt  0.983817 0.301464 1.103722
vt  0.752896 0.014304 1.059131
vt  0.730876 0.640639 0.000501
vt  0.663471 0.640639 0.000499
vt  0.730890 0.666162 0.000499
vt  0.663486 0.666162 0.000500
vt  0.642161 0.637966 0.000501
vt  0.642161 0.637966 0.000499
vt  0.598735 0.637966 0.000499
vt  0.598735 0.637966 0.000500
vt  0.309183 0.245252 0.999499
vt  0.431072 0.245388 0.999498
vt  0.431392 0.286244 0.999498
vt  0.305376 0.288316 0.999499
# 90 texture vertices

vn  -1.570796 -1.468418 0.000000
vn  1.570796 -1.570796 -0.000000
vn  -1.050897 0.000000 -3.315095
vn  1.570798 1.570796 -0.000001
vn  1.570797 -0.102378 0.000000
vn  -1.570796 1.468418 0.000000
vn  1.050900 0.000000 -3.315093
vn  -0.036671 0.000000 -1.631663
vn  0.036671 0.000000 -1.631664
vn  -1.570796 -1.570796 0.000000
vn  -1.570796 1.570796 0.000000
vn  1.570795 0.102378 0.000000
vn  -0.707106 -0.707107 0.000000
vn  -0.000000 -1.000000 -0.000000
vn  0.849448 -0.000000 -0.527672
vn  -0.707106 0.707107 0.000000
vn  1.000000 0.000000 0.000000
vn  -2.681516 -1.110722 0.000000
vn  1.697999 -0.127203 -0.000000
vn  1.110720 2.681518 0.000000
vn  2.681516 -1.110722 -0.000000
vn  -0.382683 0.923880 0.000000
vn  0.127203 1.698000 0.000000
vn  -0.000000 -0.000000 -1.000000
vn  -0.000000 0.000000 -1.000000
vn  -0.689020 -0.030622 -1.226982
vn  -0.000000 -1.000000 -0.000000
vn  -1.697999 -0.127203 0.000000
vn  -1.494103 1.494106 -0.492832
vn  -1.110720 2.712140 -0.052393
vn  -1.492581 -2.391926 -2.029617
vn  0.707107 -0.707107 0.000000
vn  -0.707107 -0.707107 0.000000
vn  -0.707107 0.707107 0.000000
vn  0.707107 0.707107 0.000000
vn  0.577350 -0.577350 -0.577350
vn  -0.577350 -0.577350 -0.577350
vn  -0.577350 0.577350 -0.577350
vn  0.577350 0.577350 -0.577350
vn  -0.000000 0.000000 -1.000000
vn  0.878590 1.564496 -2.302959
vn  0.689019 -0.685907 -2.348150
vn  -0.000000 -0.000000 -1.000000
vn  0.000000 0.000000 -1.000000
vn  0.000000 0.000000 -1.000000
vn  0.000000 0.000000 -1.000000
vn  0.000000 0.000000 -1.000000
vn  -0.505974 0.000000 -0.862549
vn  0.688624 0.688625 -0.227142
vn  -1.000000 0.000000 0.000000
vn  0.707106 0.707107 0.000000
vn  -0.849448 0.000000 -0.527673
vn  0.505976 -0.000000 -0.862547
vn  -0.878586 1.564494 -2.302965
vn  -0.000000 -1.000000 -0.000000
vn  0.707106 -0.707107 -0.000000
vn  0.429647 -0.688529 -0.584236
vn  -0.000000 -1.000000 0.000000
vn  -0.000000 0.000000 -1.000000
vn  -0.000000 -0.000000 -1.000000
vn  -0.000000 0.000000 -1.000000
vn  -0.000000 -0.000000 -1.000000
# 62 vertex normals

g pressed
s 1
f 1/21/1 11/22/11 6/23/6
f 6/23/6 10/24/10 1/21/1
f 2/25/2 5/26/5 4/27/4
f 4/27/4 12/28/12 2/25/2
f 1/13/1 10/14/10 5/15/5
f 5/15/5 2/16/2 1/13/1
f 8/1/8 3/2/3 9/3/9
f 9/3/9 7/4/7 8/1/8
f 6/17/6 11/18/11 12/19/12
f 12/19/12 4/20/4 6/17/6
f 11/5/11 1/6/1 2/7/2
f 2/7/2 12/8/12 11/5/11
f 6/9/6 3/2/3 8/1/8
f 8/1/8 10/10/10 6/9/6
f 5/11/5 7/4/7 9/3/9
f 9/3/9 4/12/4 5/11/5
f 10/10/10 8/1/8 7/4/7
f 7/4/7 5/11/5 10/10/10
f 3/2/3 6/9/6 4/12/4
f 4/12/4 9/3/9 3/2/3
f 18/32/18 50/31/50 52/34/52
f 52/34/52 28/30/28 18/32/18
f 19/75/19 21/77/21 15/72/15
f 15/72/15 17/74/17 19/75/19
f 55/29/55 58/36/58 27/39/27
f 27/39/27 14/40/14 55/29/55
f 30/35/30 22/37/22 23/38/23
f 23/38/23 20/33/20 30/35/30
f 49/72/49 20/76/20 23/78/23
f 23/78/23 51/74/51 49/72/49
f 30/69/30 29/34/29 16/31/16
f 16/31/16 22/70/22 30/69/30
f 13/29/13 18/32/18 28/30/28
f 28/30/28 31/36/31 13/29/13
f 57/73/57 21/77/21 19/75/19
f 19/75/19 56/71/56 57/73/57
f 48/41/48 26/44/26 28/47/28
f 28/47/28 52/50/52 48/41/48
f 42/43/42 53/42/53 15/45/15
f 15/45/15 21/49/21 42/43/42
f 26/44/26 42/43/42 57/46/57
f 57/46/57 31/52/31 26/44/26
f 30/51/30 20/48/20 41/42/41
f 41/42/41 54/41/54 30/51/30
f 49/45/49 41/42/41 20/48/20
f 57/46/57 42/43/42 21/49/21
f 54/41/54 29/50/29 30/51/30
f 28/47/28 26/44/26 31/52/31
f 45/54/45 44/53/44 59/87/59
f 59/87/59 60/88/60 45/54/45
f 46/55/46 45/54/45 60/88/60
f 60/88/60 61/89/61 46/55/46
f 47/56/47 46/55/46 61/89/61
f 61/89/61 62/90/62 47/56/47
f 59/87/59 44/53/44 47/56/47
f 47/56/47 62/90/62 59/87/59
f 39/64/39 36/61/36 37/62/37
f 37/62/37 38/63/38 39/64/39
f 32/57/32 33/58/33 37/80/37
f 37/80/37 36/79/36 32/57/32
f 33/66/33 34/59/34 38/85/38
f 38/85/38 37/84/37 33/66/33
f 34/67/34 35/60/35 39/82/39
f 39/82/39 38/81/38 34/67/34
f 35/68/35 32/65/32 36/83/36
f 36/83/36 39/86/39 35/68/35
f 40/41/40 24/42/24 60/88/60
f 60/88/60 59/87/59 40/41/40
f 24/42/24 25/43/25 61/89/61
f 61/89/61 60/88/60 24/42/24
f 61/89/61 25/43/25 43/44/43
f 43/44/43 62/90/62 61/89/61
f 62/90/62 43/44/43 40/41/40
f 40/41/40 59/87/59 62/90/62
# 74 faces

g
# object normal to come ...
#
v  19.886734 29.344473 5.691666
v  80.113266 29.344471 5.691665
v  22.318508 69.229034 -1.960936
v  80.113266 70.655518 -0.495850
v  80.113266 29.344473 -0.495850
v  19.886734 70.655533 -0.495849
v  77.681496 30.770960 -1.960938
v  22.318504 30.770964 -1.960936
v  77.681488 69.229034 -1.960938
v  19.886734 29.344473 -0.495849
v  19.886734 70.655533 5.691667
v  80.113266 70.655525 5.691666
v  31.069654 37.425671 4.560918
v  68.930344 37.425667 4.560916
v  71.435791 60.068890 -14.922573
v  28.564211 60.068893 4.560918
v  71.435791 60.068890 4.560916
v  28.564211 39.931114 4.560918
v  71.435791 39.931110 4.560916
v  68.930344 62.574333 -14.922573
v  71.435791 39.931110 -14.922573
v  31.069654 62.574333 4.560918
v  68.930344 62.574333 4.560916
v  69.430786 60.561989 -16.098722
v  69.430779 39.438011 -16.098722
v  68.930344 37.425667 -14.922573
v  28.564211 39.931114 -14.922571
v  28.564211 60.068893 -14.922571
v  31.069654 62.574333 -14.922571
v  31.069654 37.425671 -14.922571
v  44.636551 51.821323 -16.098721
v  55.363445 48.178680 -16.098721
v  55.363445 51.821323 -16.098721
v  44.636551 48.178680 -16.098721
v  44.636551 51.821323 -11.151264
v  55.363445 51.821323 -11.151264
v  55.363445 48.178680 -11.151264
v  44.636551 48.178680 -11.151264
v  30.569220 60.561989 -16.098719
v  30.569216 39.438015 -16.098719
v  69.430786 60.561989 -16.098722
v  69.430779 39.438011 -16.098722
v  30.569220 60.561989 -16.098719
v  30.569216 39.438015 -16.098719
v  44.636551 51.821323 -16.098721
v  55.363445 48.178680 -16.098721
v  55.363445 51.821323 -16.098721
v  44.636551 48.178680 -16.098721
v  44.636551 51.821323 -11.151264
v  55.363445 51.821323 -11.151264
v  55.363445 48.178680 -11.151264
v  44.636551 48.178680 -11.151264
v  71.435791 60.068890 -14.922573
v  28.564211 60.068893 4.560918
v  71.435791 60.068890 4.560916
v  28.564211 60.068893 -14.922571
v  69.430786 60.561989 -16.098722
v  30.569220 60.561989 -16.098719
v  31.069654 37.425671 4.560918
v  68.930344 37.425667 4.560916
v  68.930344 37.425667 -14.922573
v  31.069654 37.425671 -14.922571
v  56.034321 52.238167 -16.098721
v  44.094177 52.158325 -16.098721
v  44.073917 47.829094 -16.098721
v  55.929218 47.803665 -16.098721
# 66 vertices

vt  0.067455 0.068393 0.000500
vt  0.067455 0.473138 0.000500
vt  0.678881 0.473138 0.000500
vt  0.678881 0.068393 0.000500
vt  0.539875 0.555004 0.999500
vt  0.573803 0.555004 0.999500
vt  0.573803 0.827290 0.999500
vt  0.539875 0.827290 0.999500
vt  0.019047 0.523043 0.047221
vt  0.019047 0.018487 0.047221
vt  0.727289 0.018487 0.047221
vt  0.727289 0.523043 0.047221
vt  0.008305 0.987039 0.999500
vt  0.008305 0.864622 0.999501
vt  0.982808 0.864622 0.999500
vt  0.982808 0.987039 0.999500
vt  0.008305 0.864622 0.000500
vt  0.008305 0.987039 0.000500
vt  0.982808 0.987039 0.000499
vt  0.982808 0.864622 0.000500
vt  0.008277 0.986944 0.000500
vt  0.982585 0.986944 0.000500
vt  0.982585 0.864804 0.000500
vt  0.008277 0.864804 0.000500
vt  0.008277 0.986944 0.999500
vt  0.008277 0.864804 0.999500
vt  0.982585 0.864804 0.999500
vt  0.982585 0.986944 0.999500
vt  0.752896 0.361717 1.059131
vt  0.983817 0.301453 1.103722
vt  0.752896 0.082948 1.103722
vt  0.752896 0.301453 1.103722
vt  0.983817 0.361959 1.059131
vt  0.983817 0.082948 1.103722
vt  0.983817 0.851162 1.059131
vt  0.983817 0.361717 1.059131
vt  0.752896 0.851162 1.059131
vt  0.752896 0.361959 1.059131
vt  0.983817 0.561300 1.059131
vt  0.752896 0.561300 1.059131
vt  0.049408 0.571904 0.999501
vt  0.491469 0.571904 0.999498
vt  0.491469 0.799476 0.999497
vt  0.049408 0.799476 0.999499
vt  0.514276 0.577216 0.000501
vt  0.485776 0.821155 0.000500
vt  0.026601 0.794164 0.000504
vt  0.485776 0.550224 0.000502
vt  0.514276 0.794164 0.000500
vt  0.026601 0.577216 0.000505
vt  0.055101 0.550224 0.000505
vt  0.055101 0.821155 0.000503
vt  0.209428 0.666068 0.999499
vt  0.331449 0.666068 0.999498
vt  0.331449 0.705311 0.999498
vt  0.209428 0.705311 0.999499
vt  0.730230 0.833800 0.999500
vt  0.660347 0.833800 0.999498
vt  0.597661 0.833800 0.999498
vt  0.730236 0.833800 0.999499
vt  0.718429 0.757953 0.000501
vt  0.607439 0.757953 0.000499
vt  0.607439 0.711107 0.000499
vt  0.718429 0.711107 0.000500
vt  0.644720 0.833800 0.999500
vt  0.644678 0.833800 0.999498
vt  0.660345 0.833800 0.999498
vt  0.597873 0.833800 0.999499
vt  0.983817 0.013930 1.059131
vt  0.752896 0.013930 1.059131
vt  0.752896 0.361931 1.059131
vt  0.983817 0.082922 1.103722
vt  0.983817 0.361931 1.059131
vt  0.752896 0.082922 1.103722
vt  0.752896 0.301464 1.103722
vt  0.983817 0.014304 1.059131
vt  0.983817 0.301464 1.103722
vt  0.752896 0.014304 1.059131
vt  0.730177 0.810933 0.000501
vt  0.644673 0.810933 0.000499
vt  0.597827 0.810933 0.000499
vt  0.730177 0.810933 0.000500
vt  0.644673 0.810933 0.000501
vt  0.597827 0.810933 0.000500
vt  0.660346 0.810933 0.000499
vt  0.660346 0.810933 0.000499
vt  0.337868 0.662291 0.999498
vt  0.203258 0.662438 0.999499
vt  0.203028 0.709077 0.999499
vt  0.338316 0.709352 0.999498
# 90 texture vertices

vn  -1.570796 -1.468418 0.000000
vn  1.570796 -1.570796 -0.000001
vn  -1.050899 0.000000 -3.315095
vn  1.570798 1.570796 -0.000001
vn  1.570797 -0.102378 -0.000000
vn  -1.570796 1.468418 0.000000
vn  1.050900 0.000000 -3.315093
vn  -0.036671 0.000000 -1.631663
vn  0.036671 0.000000 -1.631664
vn  -1.570796 -1.570796 0.000000
vn  -1.570796 1.570796 0.000000
vn  1.570795 0.102378 -0.000000
vn  -0.707107 -0.707107 0.000000
vn  -0.000000 -1.000000 -0.000000
vn  0.849448 -0.000000 -0.527672
vn  -0.707107 0.707107 0.000000
vn  1.000000 0.000000 0.000000
vn  -2.681517 -1.110721 0.000000
vn  1.697999 -0.127203 -0.000000
vn  1.110721 2.681517 0.000000
vn  2.681517 -1.110721 -0.000000
vn  -0.382683 0.923880 0.000000
vn  0.127203 1.697999 0.000000
vn  -0.000000 -0.000000 -1.000000
vn  -0.000000 0.000000 -1.000000
vn  -0.000000 -1.000000 -0.000000
vn  -1.697999 -0.127203 0.000000
vn  -1.494105 1.494106 -0.492832
vn  -1.110720 2.712139 -0.052393
vn  -1.492582 -2.391925 -2.029616
vn  0.707107 -0.707107 0.000000
vn  -0.707107 0.707107 0.000000
vn  -0.707107 -0.707107 0.000000
vn  0.707107 0.707107 0.000000
vn  0.000000 0.000000 -1.000000
vn  0.000000 0.000000 -1.000000
vn  0.000000 0.000000 -1.000000
vn  0.000000 0.000000 -1.000000
vn  -0.000000 0.000000 -1.000000
vn  -0.689020 -0.030622 -1.226982
vn  0.878589 1.564495 -2.302958
vn  0.689020 -0.685907 -2.348148
vn  -0.505975 0.000000 -0.862548
vn  -0.000000 -0.000000 -1.000000
vn  0.000000 0.000000 -1.000000
vn  0.000000 0.000000 -1.000000
vn  0.000000 0.000000 -1.000000
vn  0.000000 0.000000 -1.000000
vn  0.707107 -0.707107 0.000000
vn  -0.707107 -0.707107 0.000000
vn  -0.707107 0.707107 0.000000
vn  0.707107 0.707107 0.000000
vn  0.688624 0.688624 -0.227143
vn  -1.000000 0.000000 0.000000
vn  0.707107 0.707107 0.000000
vn  -0.849448 0.000000 -0.527673
vn  0.505976 -0.000000 -0.862547
vn  -0.878587 1.564493 -2.302964
vn  -0.000000 -1.000000 -0.000000
vn  0.707107 -0.707107 -0.000000
vn  0.429647 -0.688529 -0.584236
vn  -0.000000 -1.000000 0.000000
vn  -0.000000 -0.000000 -1.000000
vn  -0.000000 0.000000 -1.000000
vn  -0.000000 -0.000000 -1.000000
vn  -0.000000 0.000000 -1.000000
# 66 vertex normals

g normal
s 1
f 63/111/63 73/112/73 68/113/68
f 68/113/68 72/114/72 63/111/63
f 64/115/64 67/116/67 66/117/66
f 66/117/66 74/118/74 64/115/64
f 63/103/63 72/104/72 67/105/67
f 67/105/67 64/106/64 63/103/63
f 70/91/70 65/92/65 71/93/71
f 71/93/71 69/94/69 70/91/70
f 68/107/68 73/108/73 74/109/74
f 74/109/74 66/110/66 68/107/68
f 73/95/73 63/96/63 64/97/64
f 64/97/64 74/98/74 73/95/73
f 68/99/68 65/92/65 70/91/70
f 70/91/70 72/100/72 68/99/68
f 67/101/67 69/94/69 71/93/71
f 71/93/71 66/102/66 67/101/67
f 72/100/72 70/91/70 69/94/69
f 69/94/69 67/101/67 72/100/72
f 65/92/65 68/99/68 66/102/66
f 66/102/66 71/93/71 65/92/65
f 80/122/80 116/121/116 118/124/118
f 118/124/118 89/120/89 80/122/80
f 81/165/81 83/167/83 77/162/77
f 77/162/77 79/164/79 81/165/81
f 121/119/121 124/126/124 88/129/88
f 88/129/88 76/130/76 121/119/121
f 91/125/91 84/127/84 85/128/85
f 85/128/85 82/123/82 91/125/91
f 115/162/115 82/166/82 85/168/85
f 85/168/85 117/164/117 115/162/115
f 91/159/91 90/124/90 78/121/78
f 78/121/78 84/160/84 91/159/91
f 75/119/75 80/122/80 89/120/89
f 89/120/89 92/126/92 75/119/75
f 123/163/123 83/167/83 81/165/81
f 81/165/81 122/161/122 123/163/123
f 105/131/105 102/134/102 89/137/89
f 89/137/89 118/140/118 105/131/105
f 104/133/104 119/132/119 77/135/77
f 77/135/77 83/139/83 104/133/104
f 102/134/102 104/133/104 123/136/123
f 123/136/123 92/142/92 102/134/102
f 91/141/91 82/138/82 103/132/103
f 103/132/103 120/131/120 91/141/91
f 115/135/115 103/132/103 82/138/82
f 123/136/123 104/133/104 83/139/83
f 120/131/120 90/140/90 91/141/91
f 89/137/89 102/134/102 92/142/92
f 86/132/86 125/177/125 126/178/126
f 126/178/126 101/131/101 86/132/86
f 87/133/87 128/180/128 125/177/125
f 125/177/125 86/132/86 87/133/87
f 106/134/106 127/179/127 128/180/128
f 128/180/128 87/133/87 106/134/106
f 101/131/101 126/178/126 127/179/127
f 127/179/127 106/134/106 101/131/101
f 100/154/100 97/151/97 98/152/98
f 98/152/98 99/153/99 100/154/100
f 93/147/93 95/148/95 112/176/112
f 112/176/112 111/169/111 93/147/93
f 95/156/95 94/149/94 113/171/113
f 113/171/113 112/170/112 95/156/95
f 94/157/94 96/150/96 114/172/114
f 114/172/114 113/175/113 94/157/94
f 96/158/96 93/155/93 111/173/111
f 111/173/111 114/174/114 96/158/96
f 109/144/109 107/143/107 126/178/126
f 126/178/126 125/177/125 109/144/109
f 107/143/107 110/146/110 127/179/127
f 127/179/127 126/178/126 107/143/107
f 110/146/110 108/145/108 128/180/128
f 128/180/128 127/179/127 110/146/110
f 108/145/108 109/144/109 125/177/125
f 125/177/125 128/180/128 108/145/108
# 74 faces

g
