# 3ds Max Wavefront OBJ Exporter v0.97b - (c)2007 guruware
# File Created: 18.01.2021 14:42:20

mtllib chili.mtl

#
# object base
#

v  58.4073 90.1614 -47.8286
v  60.2340 89.2740 -50.0325
v  58.4224 90.2276 -52.2386
v  56.5963 91.1322 -50.0347
v  61.4348 67.9026 -50.0170
v  58.3999 68.9743 -57.9361
v  56.7228 71.0279 -55.5866
v  58.8476 70.4200 -50.0221
v  51.1624 71.2990 -61.2194
v  51.5807 72.5463 -57.8938
v  43.8298 73.4980 -57.9437
v  46.4399 74.2044 -55.5922
v  40.7855 74.4588 -50.0278
v  44.3040 74.9096 -50.0300
v  43.8007 73.4061 -42.1084
v  46.4178 74.1280 -44.4655
v  51.1238 71.1792 -38.8249
v  51.5510 72.4442 -42.1582
v  58.3743 68.8967 -42.1007
v  56.7029 70.9598 -44.4598
v  55.0954 37.9566 -49.9914
v  52.3493 37.6680 -56.8244
v  54.5291 53.1275 -58.0984
v  57.7033 52.9381 -50.0087
v  45.6775 37.1993 -59.6491
v  46.8544 53.7991 -61.4502
v  38.9833 36.9248 -56.8120
v  39.1840 54.7304 -58.1012
v  36.1962 36.9003 -49.9738
v  36.0032 55.2006 -50.0126
v  38.9530 37.0410 -43.1392
v  39.1654 54.7602 -41.9220
v  45.6329 37.3680 -40.3128
v  46.8284 53.8495 -38.5693
v  52.3165 37.7904 -43.1515
v  54.5109 53.1688 -41.9191
v  64.0815 -0.2442 -49.8956
v  63.2044 3.4682 -52.6408
v  65.3744 4.3258 -49.9305
v  59.8971 2.3042 -52.6219
v  57.6661 1.6110 -49.8865
v  59.8469 2.4275 -47.1755
v  63.1536 3.5925 -47.1944
v  56.7729 25.0474 -49.9721
v  54.5660 24.5498 -55.4128
v  49.1726 23.5814 -57.6551
v  43.7401 22.7843 -55.3866
v  41.4655 22.5459 -49.9350
v  43.6925 22.9319 -44.4926
v  49.1033 23.7933 -42.2487
v  54.5157 24.7019 -44.5188
v  55.0001 73.0609 -50.0299
v  52.6320 73.8299 -52.0986
v  50.2571 74.5941 -50.0325
v  52.6238 73.8005 -47.9637
v  58.3664 65.9653 -58.8462
v  61.7597 64.6189 -50.0128
v  49.9465 68.3279 -62.5085
v  42.1610 71.0135 -58.8544
v  38.7618 72.0539 -50.0245
v  42.1303 70.9231 -41.1908
v  50.3117 68.5628 -37.5282
v  58.3399 65.8929 -41.1824
v  57.1263 82.7647 -50.0316
v  55.7999 83.2660 -51.3108
v  54.4679 83.7559 -50.0331
v  55.7936 83.2411 -48.7539
# 67 vertices

vn 0.4548 0.8904 0.0149
vn 0.4514 0.8922 0.0149
vn 0.4549 0.8904 0.0149
vn 0.4582 0.8887 0.0149
vn 0.9213 0.3890 0.0028
vn 0.7119 0.4721 -0.5199
vn 0.5216 0.8142 -0.2551
vn 0.6480 0.7616 0.0055
vn 0.2067 0.6312 -0.7475
vn 0.2848 0.9003 -0.3293
vn -0.3170 0.7921 -0.5216
vn 0.0465 0.9700 -0.2386
vn -0.5245 0.8514 0.0037
vn -0.0574 0.9983 0.0064
vn -0.3166 0.7918 0.5223
vn 0.0473 0.9676 0.2479
vn 0.2059 0.6511 0.7305
vn 0.2833 0.8982 0.3361
vn 0.7090 0.4729 0.5231
vn 0.5185 0.8134 0.2637
vn 0.9997 -0.0263 0.0027
vn 0.6934 -0.0598 -0.7180
vn 0.6859 -0.1964 -0.7007
vn 0.9681 -0.2507 -0.0018
vn -0.0340 -0.1271 -0.9913
vn -0.0273 -0.0836 -0.9961
vn -0.7160 -0.1686 -0.6774
vn -0.7260 0.0285 -0.6872
vn -0.9842 -0.1769 -0.0024
vn -0.9971 0.0761 -0.0020
vn -0.7171 -0.1645 0.6772
vn -0.7271 0.0333 0.6858
vn -0.0303 -0.1238 0.9918
vn -0.0279 -0.0800 0.9964
vn 0.6931 -0.0608 0.7183
vn 0.6831 -0.1997 0.7025
vn 0.5046 -0.8633 0.0108
vn 0.5061 -0.1647 -0.8466
vn 0.9974 0.0705 -0.0134
vn -0.2041 -0.5793 -0.7892
vn -0.6002 -0.7998 -0.0085
vn -0.1818 -0.5681 0.8026
vn 0.4970 -0.1737 0.8502
vn 0.9689 0.2474 -0.0075
vn 0.6822 0.1060 -0.7234
vn -0.0032 -0.1787 -0.9839
vn -0.6305 -0.4122 -0.6577
vn -0.8759 -0.4824 -0.0043
vn -0.6287 -0.3989 0.6676
vn 0.0027 -0.1746 0.9846
vn 0.6757 0.1172 0.7278
vn 0.7610 0.6487 0.0064
vn 0.2496 0.7701 -0.5871
vn -0.2063 0.9785 0.0070
vn 0.2476 0.7664 0.5927
vn 0.7187 -0.0393 -0.6942
vn 0.9920 -0.1263 -0.0017
vn 0.0153 0.1426 -0.9897
vn -0.6402 0.3427 -0.6876
vn -0.9112 0.4120 0.0007
vn -0.6399 0.3415 0.6884
vn 0.0465 0.1682 0.9847
vn 0.7194 -0.0351 0.6937
vn 0.8907 -0.4545 -0.0082
vn 0.9463 -0.3234 -0.0001
vn -0.0098 0.0040 -0.9999
vn -0.1015 -0.0937 -0.9904
vn -0.9440 0.3298 -0.0063
vn -0.9646 0.2635 -0.0138
vn -0.0072 -0.0076 0.9999
vn -0.0854 -0.0831 0.9929
# 71 vertex normals

vt 0.0214 0.9865 0.0000
vt 0.0214 0.9526 0.0000
vt 0.0214 0.9046 0.0000
vt 0.0214 0.9429 0.0000
vt 0.9369 0.4031 0.0000
vt 0.9369 0.1655 0.0000
vt 0.9828 0.2318 0.0000
vt 0.9828 0.3987 0.0000
vt 0.9369 0.0671 0.0000
vt 0.9828 0.1626 0.0000
vt 0.9369 0.1653 0.0000
vt 0.9828 0.2316 0.0000
vt 0.9369 0.4027 0.0000
vt 0.9828 0.3984 0.0000
vt 0.9369 0.6403 0.0000
vt 0.9828 0.5653 0.0000
vt 0.9369 0.7387 0.0000
vt 0.9828 0.6345 0.0000
vt 0.9369 0.6405 0.0000
vt 0.9828 0.5655 0.0000
vt 0.5428 0.3995 0.0000
vt 0.5428 0.2076 0.0000
vt 0.7832 0.1564 0.0000
vt 0.7832 0.3991 0.0000
vt 0.5428 0.1282 0.0000
vt 0.7832 0.0559 0.0000
vt 0.5428 0.2079 0.0000
vt 0.5428 0.4000 0.0000
vt 0.7832 0.3990 0.0000
vt 0.5428 0.5920 0.0000
vt 0.7832 0.6416 0.0000
vt 0.5428 0.6714 0.0000
vt 0.7832 0.7422 0.0000
vt 0.5428 0.5917 0.0000
vt 0.7832 0.6417 0.0000
vt 0.0159 0.4022 0.0000
vt 0.0608 0.3249 0.0000
vt 0.0608 0.4012 0.0000
vt 0.0608 0.3258 0.0000
vt 0.0608 0.4025 0.0000
vt 0.0608 0.4788 0.0000
vt 0.0608 0.4779 0.0000
vt 0.3522 0.4001 0.0000
vt 0.3522 0.2472 0.0000
vt 0.3522 0.1843 0.0000
vt 0.3522 0.2480 0.0000
vt 0.3522 0.4011 0.0000
vt 0.3522 0.5540 0.0000
vt 0.3522 0.6170 0.0000
vt 0.3522 0.5533 0.0000
vt 0.2264 0.7840 0.0000
vt 0.3139 0.9111 0.0000
vt 0.1866 0.8255 0.0000
vt 0.1899 0.9111 0.0000
vt 0.0597 0.9111 0.0000
vt 0.1435 0.7840 0.0000
vt 0.0597 0.6567 0.0000
vt 0.1866 0.7424 0.0000
vt 0.1899 0.6567 0.0000
vt 0.3139 0.6567 0.0000
vt 0.8876 0.1361 0.0000
vt 0.8876 0.4011 0.0000
vt 0.8876 0.0263 0.0000
vt 0.8876 0.1359 0.0000
vt 0.8876 0.4007 0.0000
vt 0.8876 0.6657 0.0000
vt 0.8876 0.7567 0.0000
vt 0.8876 0.6659 0.0000
vt 0.8045 0.8646 0.0000
vt 0.7263 0.8672 0.0000
vt 0.7249 0.8207 0.0000
vt 0.8051 0.8250 0.0000
vt 0.7235 0.8639 0.0000
vt 0.8049 0.8653 0.0000
vt 0.7251 0.9082 0.0000
vt 0.8050 0.9059 0.0000
vt 0.4470 0.8655 0.0000
vt 0.4470 0.7972 0.0000
vt 0.4470 0.8654 0.0000
vt 0.4470 0.9336 0.0000
vt 0.3139 0.7838 0.0000
vt 0.0597 0.7840 0.0000
# 82 texture coords

g base
usemtl Material__259
s 2
f 1/1/1 2/2/2 3/3/3 
f 1/1/1 3/3/3 4/4/4 
s 1
f 5/5/5 6/6/6 7/7/7 
f 7/7/7 8/8/8 5/5/5 
f 6/6/6 9/9/9 10/10/10 
f 10/10/10 7/7/7 6/6/6 
f 9/9/9 11/11/11 12/12/12 
f 12/12/12 10/10/10 9/9/9 
f 12/12/12 11/11/11 13/13/13 
f 13/13/13 14/14/14 12/12/12 
f 13/13/13 15/15/15 16/16/16 
f 16/16/16 14/14/14 13/13/13 
f 16/16/16 15/15/15 17/17/17 
f 17/17/17 18/18/18 16/16/16 
f 18/18/18 17/17/17 19/19/19 
f 19/19/19 20/20/20 18/18/18 
f 20/20/20 19/19/19 5/5/5 
f 5/5/5 8/8/8 20/20/20 
f 21/21/21 22/22/22 23/23/23 
f 23/23/23 24/24/24 21/21/21 
f 22/22/22 25/25/25 26/26/26 
f 26/26/26 23/23/23 22/22/22 
f 25/25/25 27/27/27 28/23/28 
f 28/23/28 26/26/26 25/25/25 
f 27/27/27 29/28/29 30/29/30 
f 30/29/30 28/23/28 27/27/27 
f 29/28/29 31/30/31 32/31/32 
f 32/31/32 30/29/30 29/28/29 
f 31/30/31 33/32/33 34/33/34 
f 34/33/34 32/31/32 31/30/31 
f 33/32/33 35/34/35 36/35/36 
f 36/35/36 34/33/34 33/32/33 
f 35/34/35 21/21/21 24/24/24 
f 24/24/24 36/35/36 35/34/35 
f 37/36/37 38/37/38 39/38/39 
f 37/36/37 40/39/40 38/37/38 
f 37/36/37 41/40/41 40/39/40 
f 37/36/37 42/41/42 41/40/41 
f 37/36/37 43/42/43 42/41/42 
f 37/36/37 39/38/39 43/42/43 
f 44/43/44 45/44/45 22/22/22 
f 22/22/22 21/21/21 44/43/44 
f 45/44/45 46/45/46 25/25/25 
f 25/25/25 22/22/22 45/44/45 
f 46/45/46 47/46/47 27/27/27 
f 27/27/27 25/25/25 46/45/46 
f 47/46/47 48/47/48 29/28/29 
f 29/28/29 27/27/27 47/46/47 
f 48/47/48 49/48/49 31/30/31 
f 31/30/31 29/28/29 48/47/48 
f 49/48/49 50/49/50 33/32/33 
f 33/32/33 31/30/31 49/48/49 
f 50/49/50 51/50/51 35/34/35 
f 35/34/35 33/32/33 50/49/50 
f 51/50/51 44/43/44 21/21/21 
f 21/21/21 35/34/35 51/50/51 
f 44/43/44 39/38/39 38/37/38 
f 38/37/38 45/44/45 44/43/44 
f 40/39/40 46/45/46 38/37/38 
f 48/47/48 47/46/47 40/39/40 
f 40/39/40 41/40/41 48/47/48 
f 49/48/49 48/47/48 41/40/41 
f 41/40/41 42/41/42 49/48/49 
f 43/42/43 50/49/50 42/41/42 
f 51/50/51 43/42/43 39/38/39 
f 39/38/39 44/43/44 51/50/51 
f 52/51/52 7/52/7 53/53/53 
f 53/53/53 7/52/7 10/54/10 
f 53/53/53 10/54/10 12/55/12 
f 53/53/53 12/55/12 54/56/54 
f 54/56/54 16/57/16 55/58/55 
f 55/58/55 16/57/16 18/59/18 
f 55/58/55 18/59/18 20/60/20 
f 55/58/55 20/60/20 52/51/52 
f 24/24/24 23/23/23 56/61/56 
f 56/61/56 57/62/57 24/24/24 
f 23/23/23 26/26/26 58/63/58 
f 58/63/58 56/61/56 23/23/23 
f 26/26/26 28/23/28 59/64/59 
f 59/64/59 58/63/58 26/26/26 
f 28/23/28 30/29/30 60/65/60 
f 60/65/60 59/64/59 28/23/28 
f 60/65/60 30/29/30 32/31/32 
f 32/31/32 61/66/61 60/65/60 
f 61/66/61 32/31/32 34/33/34 
f 34/33/34 62/67/62 61/66/61 
f 62/67/62 34/33/34 36/35/36 
f 36/35/36 63/68/63 62/67/62 
f 36/35/36 24/24/24 57/62/57 
f 57/62/57 63/68/63 36/35/36 
f 2/69/64 64/70/65 65/71/66 
f 65/71/66 3/72/67 2/69/64 
f 65/71/66 66/73/68 4/74/69 
f 4/74/69 3/72/67 65/71/66 
f 66/73/68 67/75/70 1/76/71 
f 1/76/71 4/74/69 66/73/68 
f 67/75/70 64/70/65 2/69/64 
f 2/69/64 1/76/71 67/75/70 
f 57/62/57 56/61/56 6/6/6 
f 6/6/6 5/5/5 57/62/57 
f 56/61/56 58/63/58 9/9/9 
f 9/9/9 6/6/6 56/61/56 
f 58/63/58 59/64/59 11/11/11 
f 11/11/11 9/9/9 58/63/58 
f 59/64/59 60/65/60 13/13/13 
f 13/13/13 11/11/11 59/64/59 
f 60/65/60 61/66/61 15/15/15 
f 15/15/15 13/13/13 60/65/60 
f 15/15/15 61/66/61 62/67/62 
f 62/67/62 17/17/17 15/15/15 
f 17/17/17 62/67/62 63/68/63 
f 63/68/63 19/19/19 17/17/17 
f 19/19/19 63/68/63 57/62/57 
f 57/62/57 5/5/5 19/19/19 
f 52/77/52 53/78/53 65/71/66 
f 65/71/66 64/70/65 52/77/52 
f 53/78/53 54/79/54 66/73/68 
f 66/73/68 65/71/66 53/78/53 
f 66/73/68 54/79/54 55/80/55 
f 55/80/55 67/75/70 66/73/68 
f 67/75/70 55/80/55 52/77/52 
f 52/77/52 64/70/65 67/75/70 
f 52/51/52 8/81/8 7/52/7 
f 20/60/20 8/81/8 52/51/52 
f 12/55/12 14/82/14 54/56/54 
f 54/56/54 14/82/14 16/57/16 
f 50/49/50 49/48/49 42/41/42 
f 43/42/43 51/50/51 50/49/50 
f 46/45/46 45/44/45 38/37/38 
f 40/39/40 47/46/47 46/45/46 
# 130 faces

