# 3ds Max Wavefront OBJ Exporter v0.97b - (c)2007 guruware
# File Created: 14.01.2021 11:10:15

mtllib ??\china_cabinet.mtl

#
# object base0
#

v  50.0000 100.0000 -0.0000
v  50.0000 100.0000 -50.0000
v  -0.0000 100.0000 -50.0000
v  -0.0000 100.0000 -0.0000
v  -0.0000 -0.0000 -50.0000
v  0.0000 -0.0000 -0.0000
v  -0.0000 83.2197 -0.0000
v  -0.0000 83.2197 -50.0000
v  50.0000 0.0000 -0.0000
v  50.0000 83.2197 -0.0000
v  50.0000 0.0000 -50.0000
v  50.0000 100.0000 -100.0000
v  0.0000 100.0000 -100.0000
v  0.0000 83.2197 -100.0000
v  0.0000 -0.0000 -100.0000
v  50.0000 83.2197 -100.0000
v  50.0000 0.0000 -100.0000
v  100.0000 100.0000 0.0000
v  100.0000 100.0000 -50.0000
v  100.0001 0.0000 -50.0000
v  100.0000 83.2197 -50.0000
v  100.0000 83.2197 0.0000
v  100.0000 0.0000 0.0000
v  100.0000 100.0000 -100.0000
v  100.0001 0.0000 -100.0000
v  100.0000 83.2197 -100.0000
# 26 vertices

vn -0.0000 0.7071 0.7071
vn -0.0000 1.0000 -0.0000
vn -0.7071 0.7071 -0.0000
vn -0.5774 0.5774 0.5774
vn -0.7071 -0.7071 -0.0000
vn -0.5774 -0.5774 0.5774
vn -0.7071 -0.0000 0.7071
vn -1.0000 -0.0000 -0.0000
vn 0.0000 -0.7071 0.7071
vn -0.0000 -0.0000 1.0000
vn 0.0000 -1.0000 0.0000
vn -0.0000 0.7071 -0.7071
vn -0.5774 0.5774 -0.5774
vn -0.7071 -0.0000 -0.7071
vn -0.5773 -0.5774 -0.5774
vn 0.0000 0.0000 -1.0000
vn 0.0000 -0.7071 -0.7071
vn 0.5773 0.5774 0.5774
vn 0.7071 0.7071 0.0000
vn 0.7071 -0.7071 0.0000
vn 1.0000 0.0000 0.0000
vn 0.7071 0.0000 0.7071
vn 0.5774 -0.5774 0.5774
vn 0.5774 0.5774 -0.5774
vn 0.5774 -0.5774 -0.5774
vn 0.7071 0.0000 -0.7071
# 26 vertex normals

vt 0.3923 0.6784 0.0000
vt 0.3923 0.9872 0.0000
vt 0.0159 0.9872 0.0000
vt 0.0159 0.6784 0.0000
vt 0.0161 0.0163 0.0000
vt 0.4131 0.0163 0.0000
vt 0.4131 0.4195 0.0000
vt 0.0161 0.4195 0.0000
vt 0.3905 0.6605 0.0000
vt 0.0159 0.6605 0.0000
vt 0.0159 0.5533 0.0000
vt 0.3905 0.5533 0.0000
vt 0.4374 0.0148 0.0000
vt 0.9824 0.0114 0.0000
vt 0.9877 0.9815 0.0000
vt 0.4426 0.9849 0.0000
vt 0.0146 0.5422 0.0000
vt 0.0146 0.4315 0.0000
vt 0.3904 0.4315 0.0000
vt 0.3904 0.5422 0.0000
vt 0.4321 0.6464 0.0000
vt 0.3976 0.6464 0.0000
vt 0.3976 0.4367 0.0000
vt 0.4321 0.4367 0.0000
# 24 texture coords

g base0
usemtl Material__54
s 1
f 1/1/1 2/2/2 3/3/3 
f 3/3/3 4/4/4 1/1/1 
f 5/5/5 6/6/6 7/7/7 
f 7/7/7 8/8/8 5/5/5 
f 4/9/4 3/10/3 8/11/8 
f 8/11/8 7/12/7 4/9/4 
f 6/13/6 9/14/9 10/15/10 
f 10/15/10 7/16/7 6/13/6 
f 4/17/4 7/18/7 10/19/10 
f 10/19/10 1/20/1 4/17/4 
f 11/21/11 9/22/9 6/23/6 
f 6/23/6 5/24/5 11/21/11 
f 12/1/12 13/4/13 3/3/3 
f 3/3/3 2/2/2 12/1/12 
f 5/5/5 8/8/8 14/7/14 
f 14/7/14 15/6/15 5/5/5 
f 13/9/13 14/12/14 8/11/8 
f 8/11/8 3/10/3 13/9/13 
f 15/13/15 14/16/14 16/15/16 
f 16/15/16 17/14/17 15/13/15 
f 13/17/13 12/20/12 16/19/16 
f 16/19/16 14/18/14 13/17/13 
f 11/21/11 5/24/5 15/23/15 
f 15/23/15 17/22/17 11/21/11 
f 1/1/1 18/4/18 19/3/19 
f 19/3/19 2/2/2 1/1/1 
f 20/5/20 21/8/21 22/7/22 
f 22/7/22 23/6/23 20/5/20 
f 18/9/18 22/12/22 21/11/21 
f 21/11/21 19/10/19 18/9/18 
f 23/13/23 22/16/22 10/15/10 
f 10/15/10 9/14/9 23/13/23 
f 18/17/18 1/20/1 10/19/10 
f 10/19/10 22/18/22 18/17/18 
f 11/21/11 20/24/20 23/23/23 
f 23/23/23 9/22/9 11/21/11 
f 12/1/12 2/2/2 19/3/19 
f 19/3/19 24/4/24 12/1/12 
f 20/5/20 25/6/25 26/7/26 
f 26/7/26 21/8/21 20/5/20 
f 24/9/24 19/10/19 21/11/21 
f 21/11/21 26/12/26 24/9/24 
f 25/13/25 17/14/17 16/15/16 
f 16/15/16 26/16/26 25/13/25 
f 24/17/24 26/18/26 16/19/16 
f 16/19/16 12/20/12 24/17/24 
f 11/21/11 17/22/17 25/23/25 
f 25/23/25 20/24/20 11/21/11 
# 48 faces

#
# object base2
#

v  50.0000 100.0000 -0.0000
v  50.0000 100.0000 -50.0000
v  -0.0000 100.0000 -50.0000
v  -0.0000 100.0000 -0.0000
v  0.0000 -0.0000 -0.0000
v  50.0000 0.0000 -0.0000
v  50.0000 83.2197 -0.0000
v  -0.0000 83.2197 -0.0000
v  50.0000 0.0000 -50.0000
v  -0.0000 -0.0000 -50.0000
v  50.0000 100.0000 -100.0000
v  0.0000 100.0000 -100.0000
v  0.0000 -0.0000 -100.0000
v  0.0000 83.2197 -100.0000
v  50.0000 83.2197 -100.0000
v  50.0000 0.0000 -100.0000
v  100.0000 100.0000 0.0000
v  100.0000 100.0000 -50.0000
v  100.0000 0.0000 0.0000
v  100.0000 83.2197 0.0000
v  100.0001 0.0000 -50.0000
v  100.0000 100.0000 -100.0000
v  100.0001 0.0000 -100.0000
v  100.0000 83.2197 -100.0000
# 24 vertices

vn -0.0000 0.7071 0.7071
vn -0.0000 1.0000 -0.0000
vn 0.0000 1.0000 -0.0000
vn 0.0000 0.7071 0.7071
vn 0.0000 -0.7071 0.7071
vn -0.0000 -0.0000 1.0000
vn 0.0000 0.0000 1.0000
vn 0.0000 -1.0000 0.0000
vn -0.0000 0.7071 -0.7071
vn 0.0000 0.7071 -0.7071
vn 0.0000 -0.7071 -0.7071
vn 0.0000 0.0000 -1.0000
vn -0.0000 -0.7071 0.7071
# 13 vertex normals

vt 0.3923 0.6784 0.0000
vt 0.3923 0.9872 0.0000
vt 0.1423 0.9872 0.0000
vt 0.1423 0.6784 0.0000
vt 0.4374 0.0148 0.0000
vt 0.9824 0.0114 0.0000
vt 0.9877 0.9815 0.0000
vt 0.4426 0.9849 0.0000
vt 0.0146 0.5422 0.0000
vt 0.0146 0.4315 0.0000
vt 0.3904 0.4315 0.0000
vt 0.3904 0.5422 0.0000
vt 0.4321 0.6464 0.0000
vt 0.3976 0.6464 0.0000
vt 0.3976 0.4367 0.0000
vt 0.4321 0.4367 0.0000
# 16 texture coords

g base2
usemtl Material__54
s 1
f 27/25/27 28/26/28 29/27/29 
f 29/27/29 30/28/30 27/25/27 
f 31/29/31 32/30/31 33/31/32 
f 33/31/32 34/32/33 31/29/31 
f 30/33/30 34/34/33 33/35/32 
f 33/35/32 27/36/27 30/33/30 
f 35/37/34 32/38/31 31/39/31 
f 31/39/31 36/40/34 35/37/34 
f 37/25/35 38/28/36 29/27/29 
f 29/27/29 28/26/28 37/25/35 
f 39/29/37 40/32/38 41/31/38 
f 41/31/38 42/30/37 39/29/37 
f 38/33/36 37/36/35 41/35/38 
f 41/35/38 40/34/38 38/33/36 
f 35/37/34 36/40/34 39/39/37 
f 39/39/37 42/38/37 35/37/34 
f 27/25/27 43/28/27 44/27/28 
f 44/27/28 28/26/28 27/25/27 
f 45/29/39 46/32/32 33/31/32 
f 33/31/32 32/30/31 45/29/39 
f 43/33/27 27/36/27 33/35/32 
f 33/35/32 46/34/32 43/33/27 
f 35/37/34 47/40/34 45/39/39 
f 45/39/39 32/38/31 35/37/34 
f 37/25/35 28/26/28 44/27/28 
f 44/27/28 48/28/35 37/25/35 
f 49/29/37 42/30/37 41/31/38 
f 41/31/38 50/32/38 49/29/37 
f 48/33/35 50/34/38 41/35/38 
f 41/35/38 37/36/35 48/33/35 
f 35/37/34 42/38/37 49/39/37 
f 49/39/37 47/40/34 35/37/34 
# 32 faces

#
# object base1
#

v  50.0000 100.0000 -0.0000
v  50.0000 100.0000 -50.0000
v  -0.0000 100.0000 -50.0000
v  -0.0000 100.0000 -0.0000
v  0.0000 -0.0000 -0.0000
v  50.0000 0.0000 -0.0000
v  50.0000 83.2197 -0.0000
v  -0.0000 83.2197 -0.0000
v  50.0000 0.0000 -50.0000
v  -0.0000 -0.0000 -50.0000
v  50.0000 100.0000 -100.0000
v  0.0000 100.0000 -100.0000
v  0.0000 -0.0000 -100.0000
v  0.0000 83.2197 -100.0000
v  50.0000 83.2197 -100.0000
v  50.0000 0.0000 -100.0000
v  100.0000 100.0000 0.0000
v  100.0000 100.0000 -50.0000
v  100.0001 0.0000 -50.0000
v  100.0000 83.2197 -50.0000
v  100.0000 83.2197 0.0000
v  100.0000 0.0000 0.0000
v  100.0000 100.0000 -100.0000
v  100.0001 0.0000 -100.0000
v  100.0000 83.2197 -100.0000
# 25 vertices

vn -0.0000 0.7071 0.7071
vn -0.0000 1.0000 -0.0000
vn 0.0000 1.0000 -0.0000
vn 0.0000 0.7071 0.7071
vn 0.0000 -0.7071 0.7071
vn -0.0000 -0.0000 1.0000
vn 0.0000 0.0000 1.0000
vn 0.0000 -1.0000 0.0000
vn -0.0000 0.7071 -0.7071
vn 0.0000 0.7071 -0.7071
vn 0.0000 -0.7071 -0.7071
vn 0.0000 0.0000 -1.0000
vn 0.5773 0.5774 0.5774
vn 0.7071 0.7071 0.0000
vn 0.7071 -0.7071 0.0000
vn 1.0000 0.0000 0.0000
vn 0.7071 0.0000 0.7071
vn 0.5774 -0.5774 0.5774
vn 0.5774 0.5774 -0.5774
vn 0.5774 -0.5774 -0.5774
vn 0.7071 0.0000 -0.7071
# 21 vertex normals

vt 0.3923 0.6784 0.0000
vt 0.3923 0.9872 0.0000
vt 0.1423 0.9872 0.0000
vt 0.1423 0.6784 0.0000
vt 0.4374 0.0148 0.0000
vt 0.9824 0.0114 0.0000
vt 0.9877 0.9815 0.0000
vt 0.4426 0.9849 0.0000
vt 0.0146 0.5422 0.0000
vt 0.0146 0.4315 0.0000
vt 0.3904 0.4315 0.0000
vt 0.3904 0.5422 0.0000
vt 0.4321 0.6464 0.0000
vt 0.3976 0.6464 0.0000
vt 0.3976 0.4367 0.0000
vt 0.4321 0.4367 0.0000
vt 0.0159 0.6784 0.0000
vt 0.0159 0.9872 0.0000
vt 0.0161 0.0163 0.0000
vt 0.0161 0.4195 0.0000
vt 0.4131 0.4195 0.0000
vt 0.4131 0.0163 0.0000
vt 0.3905 0.6605 0.0000
vt 0.3905 0.5533 0.0000
vt 0.0159 0.5533 0.0000
vt 0.0159 0.6605 0.0000
# 26 texture coords

g base1
usemtl Material__54
s 1
f 51/41/40 52/42/41 53/43/42 
f 53/43/42 54/44/43 51/41/40 
f 55/45/44 56/46/44 57/47/45 
f 57/47/45 58/48/46 55/45/44 
f 54/49/43 58/50/46 57/51/45 
f 57/51/45 51/52/40 54/49/43 
f 59/53/47 56/54/44 55/55/44 
f 55/55/44 60/56/47 59/53/47 
f 61/41/48 62/44/49 53/43/42 
f 53/43/42 52/42/41 61/41/48 
f 63/45/50 64/48/51 65/47/51 
f 65/47/51 66/46/50 63/45/50 
f 62/49/49 61/52/48 65/51/51 
f 65/51/51 64/50/51 62/49/49 
f 59/53/47 60/56/47 63/55/50 
f 63/55/50 66/54/50 59/53/47 
f 51/41/40 67/57/52 68/58/53 
f 68/58/53 52/42/41 51/41/40 
f 69/59/54 70/60/55 71/61/56 
f 71/61/56 72/62/57 69/59/54 
f 67/63/52 71/64/56 70/65/55 
f 70/65/55 68/66/53 67/63/52 
f 72/45/57 71/48/56 57/47/45 
f 57/47/45 56/46/44 72/45/57 
f 67/49/52 51/52/40 57/51/45 
f 57/51/45 71/50/56 67/49/52 
f 59/53/47 69/56/54 72/55/57 
f 72/55/57 56/54/44 59/53/47 
f 61/41/48 52/42/41 68/58/53 
f 68/58/53 73/57/58 61/41/48 
f 69/59/54 74/62/59 75/61/60 
f 75/61/60 70/60/55 69/59/54 
f 73/63/58 68/66/53 70/65/55 
f 70/65/55 75/64/60 73/63/58 
f 74/45/59 66/46/50 65/47/51 
f 65/47/51 75/48/60 74/45/59 
f 73/49/58 75/50/60 65/51/51 
f 65/51/51 61/52/48 73/49/58 
f 59/53/47 66/54/50 74/55/59 
f 74/55/59 69/56/54 59/53/47 
# 40 faces

