# 3ds Max Wavefront OBJ Exporter v0.97b - (c)2007 guruware
# File Created: 22.01.2021 10:36:46

mtllib ??\china_stairs.mtl

#
# object base
#

v  100.0000 0.0000 -0.0000
v  100.0000 0.0000 -50.0000
v  100.0000 50.0000 -50.0000
v  100.0000 50.0000 -0.0000
v  0.0000 50.0000 0.0000
v  0.0000 0.0000 0.0000
v  0.0000 0.0000 -50.0000
v  0.0000 50.0000 -50.0000
v  100.0000 50.0000 -100.0000
v  100.0000 100.0000 -100.0000
v  100.0000 100.0000 -50.0000
v  0.0000 100.0000 -50.0000
v  -0.0000 50.0000 -100.0000
v  -0.0000 100.0000 -100.0000
# 14 vertices

vn 0.5774 -0.5774 0.5774
vn 0.5773 -0.5773 -0.5775
vn 0.5771 0.5775 -0.5775
vn 0.5773 0.5775 0.5773
vn 0.0000 0.0000 1.0000
vn -0.5775 0.5773 0.5773
vn -0.5774 -0.5774 0.5774
vn 0.0000 -0.7072 0.7070
vn 0.0000 -1.0000 -0.0000
vn -0.5775 -0.5771 0.5775
vn -0.5773 -0.5773 -0.5775
vn 0.0000 1.0000 -0.0000
vn -0.5775 0.5775 -0.5771
vn -0.5773 0.5775 0.5773
vn -0.0000 0.0000 -1.0000
vn -0.5776 -0.5772 -0.5772
vn -0.5771 0.5775 -0.5775
vn -0.5776 0.5772 -0.5772
vn -0.5775 -0.5771 -0.5775
vn -0.5775 -0.5773 0.5773
vn -0.5775 0.5775 0.5771
vn 0.5771 -0.5775 0.5775
vn 0.5771 -0.5775 -0.5775
vn 0.5771 0.5775 0.5775
vn -0.5776 0.5772 0.5772
vn -0.5771 -0.5775 0.5775
vn 0.0000 -0.7071 0.7071
vn -0.5771 -0.5775 -0.5775
vn -0.5771 0.5775 0.5775
vn -0.5774 -0.5774 -0.5774
vn -0.5774 0.5774 -0.5774
vn -0.5776 -0.5772 0.5772
# 32 vertex normals

vt 0.7821 0.0133 0.0000
vt 0.9818 0.0133 0.0000
vt 0.9818 0.6752 0.0000
vt 0.7821 0.6752 0.0000
vt 0.7573 0.9727 0.0000
vt 0.3956 0.9727 0.0000
vt 0.3956 0.0144 0.0000
vt 0.7573 0.0144 0.0000
vt 0.8004 0.9640 0.0000
vt 0.8004 0.6942 0.0000
vt 0.9715 0.6942 0.0000
vt 0.9715 0.9640 0.0000
vt 0.3797 0.0144 0.0000
vt 0.3797 0.9727 0.0000
vt 0.0180 0.9727 0.0000
vt 0.0180 0.0144 0.0000
# 16 texture coords

g base
usemtl Material__30
s 1
f 1/1/1 2/2/2 3/3/3 
f 3/3/3 4/4/4 1/1/1 
s 4
f 5/5/5 6/6/6 1/7/7 
f 1/7/7 4/8/8 5/5/5 
s 2
f 1/9/1 6/10/9 7/11/10 
f 7/11/10 2/12/11 1/9/1 
f 3/13/3 8/14/12 5/15/13 
f 5/15/13 4/16/14 3/13/3 
s 4
f 2/6/2 7/7/15 8/8/16 
f 8/8/16 3/5/17 2/6/2 
s 1
f 8/3/18 7/2/19 6/1/20 
f 6/1/20 5/4/21 8/3/18 
f 3/1/22 9/2/23 10/3/3 
f 10/3/3 11/4/24 3/1/22 
s 4
f 12/5/5 8/6/25 3/7/26 
f 3/7/26 11/8/27 12/5/5 
s 2
f 3/9/22 8/10/9 13/11/10 
f 13/11/10 9/12/28 3/9/22 
f 10/13/3 14/14/12 12/15/13 
f 12/15/13 11/16/29 10/13/3 
s 4
f 9/6/23 13/7/15 14/8/30 
f 14/8/30 10/5/17 9/6/23 
s 1
f 14/3/31 13/2/19 8/1/32 
f 8/1/32 12/4/21 14/3/31 
# 24 faces

