# 3ds Max Wavefront OBJ Exporter v0.97b - (c)2007 guruware
# File Created: 10.07.2021 17:45:19

#
# object base_1
#

v  100.0571 -0.0000 -100.0972
v  100.0571 -0.0000 -0.0972
v  0.0571 -0.0000 -0.0972
v  0.0571 -0.0000 -100.0972
v  99.9983 382.9374 -100.0087
v  -0.0017 382.9373 -100.0087
v  -0.0017 382.9374 -0.0087
v  99.9983 382.9374 -0.0087
# 8 vertices

vn 0.0000 -1.0000 -0.0000
vn -0.0000 1.0000 -0.0000
vn 0.0000 1.0000 -0.0000
vn 0.0000 -0.0002 1.0000
vn 1.0000 0.0002 -0.0000
vn -0.0000 0.0002 -1.0000
vn 0.0000 0.0002 -1.0000
vn -1.0000 -0.0002 0.0000
vn -1.0000 -0.0002 -0.0000
# 9 vertex normals

vt 0.0000 1.0000 0.0000
vt 0.0000 0.0000 0.0000
vt 1.0000 0.0000 0.0000
vt 1.0000 1.0000 0.0000
# 4 texture coords

g base_1
s 2
f 1/1/1 2/2/1 3/3/1 
f 3/3/1 4/4/1 1/1/1 
s 4
f 5/4/2 6/1/2 7/2/2 
f 7/2/2 8/3/3 5/4/2 
s 8
f 8/4/4 7/1/4 3/2/4 
f 3/2/4 2/3/4 8/4/4 
s 16
f 5/4/5 8/1/5 2/2/5 
f 2/2/5 1/3/5 5/4/5 
s 32
f 6/4/6 5/1/6 1/2/6 
f 1/2/6 4/3/7 6/4/6 
s 64
f 7/4/8 6/1/8 4/2/8 
f 4/2/8 3/3/9 7/4/8 
# 12 faces

