# 3ds Max Wavefront OBJ Exporter v0.97b - (c)2007 guruware
# File Created: 18.01.2021 19:29:42

mtllib coffee.mtl

#
# object base
#

v  100.0000 0.0000 -50.0000
v  100.0000 100.0000 -50.0000
v  0.0000 100.0000 -50.0000
v  0.0000 0.0000 -50.0000
# 4 vertices

vn 0.0000 0.0000 1.0000
# 1 vertex normals

vt 0.0064 0.0061 1.4142
vt 0.9944 0.0061 1.4142
vt 0.9944 0.9938 1.4142
vt 0.0064 0.9938 1.4142
# 4 texture coords

g base
usemtl Material__255
s 1
f 1/1/1 2/2/1 3/3/1 
f 3/3/1 4/4/1 1/1/1 
# 2 faces

