# Max2Obj Version 4.0 Mar 10th, 2001
#
# object base to come ...
#
v  27.391100 46.867100 -50.000004
v  34.013103 46.867100 -65.986900
v  50.000004 46.867100 -72.608902
v  65.986900 46.867100 -65.986900
v  72.608902 46.867100 -49.999992
v  65.986900 46.867100 -34.013096
v  49.999989 46.867100 -27.391100
v  34.013096 46.867100 -34.013103
v  16.837502 71.081596 -50.000008
v  26.550604 71.081596 -73.449402
v  50.000004 71.081596 -83.162498
v  73.449402 71.081596 -73.449394
v  83.162498 71.081596 -49.999992
v  73.449394 71.081596 -26.550596
v  49.999985 71.081596 -16.837502
v  26.550596 71.081596 -26.550604
v  19.138599 95.235802 -50.000008
v  28.177704 95.235802 -71.822304
v  50.000000 95.235802 -80.861404
v  49.999981 95.235802 -19.138599
v  28.177696 95.235802 -28.177704
v  27.662399 15.331779 -50.000004
v  34.205002 15.331779 -65.795006
v  50.000004 15.331779 -72.337601
v  65.795006 15.331779 -65.794998
v  72.337601 15.331779 -49.999992
v  65.794998 15.331779 -34.204998
v  49.999992 15.331779 -27.662399
v  34.204895 15.331779 -34.205002
v  45.697449 24.768900 -54.302551
v  50.000000 24.768900 -56.084721
v  54.302551 24.768900 -54.302551
v  56.084721 24.768900 -49.999996
v  54.302551 24.768900 -45.697449
v  49.999996 24.768900 -43.915279
v  45.697449 24.768900 -45.697449
v  43.915279 24.768900 -50.000000
v  50.000000 31.352900 -53.555801
v  52.514332 31.352900 -52.514328
v  47.485661 31.352900 -47.485672
v  46.444191 31.352900 -50.000000
v  26.382700 95.235802 -50.000004
v  33.300003 95.235802 -66.700005
v  50.000000 95.235802 -73.617302
v  66.700005 95.235802 -66.699997
v  73.617302 95.235802 -49.999992
v  66.699997 95.235802 -33.299995
v  49.999985 95.235802 -26.382700
v  33.299995 95.235802 -33.300003
v  26.306299 58.588501 -50.000004
v  33.246002 58.588501 -66.753998
v  50.000000 58.588501 -73.693703
v  66.753998 58.588501 -66.753998
v  73.693703 58.588501 -49.999992
v  66.753998 58.588501 -33.245998
v  49.999985 58.588501 -26.306299
v  33.245998 58.588501 -33.246002
v  49.999996 39.279999 -50.000000
v  47.485661 31.352900 -52.514332
v  53.555801 31.352900 -50.000000
v  52.514328 31.352900 -47.485668
v  49.999996 31.352900 -46.444199
v  71.822304 95.235802 -71.822296
v  80.861404 95.235802 -49.999992
v  71.822296 95.235802 -28.177696
v  27.992723 0.096744 -27.992725
v  72.007278 0.096744 -27.992723
v  27.992725 0.096744 -72.007278
v  72.007278 0.096744 -72.007278
v  25.650599 15.352379 -25.650602
v  74.349396 15.352379 -25.650597
v  25.650602 15.352379 -74.349403
v  74.349403 15.352379 -74.349396
v  68.701096 52.529400 -43.377659
v  70.155296 48.534100 -43.377659
v  77.323296 84.272903 -43.377647
v  77.323296 88.529900 -43.377647
v  68.701103 52.529400 -56.622337
v  70.155304 48.534100 -56.622337
v  77.323303 84.272903 -56.622337
v  77.323303 88.529900 -56.622337
v  81.102097 52.698898 -43.377655
v  89.140305 62.637501 -43.377655
v  93.199501 75.231796 -43.377644
v  94.453796 88.529900 -43.377644
v  89.472801 84.272903 -43.377647
v  88.947701 75.231796 -43.377647
v  86.001495 64.762199 -43.377655
v  79.101097 56.152302 -43.377666
v  79.101105 56.152302 -56.622345
v  86.001495 64.762199 -56.622345
v  88.947701 75.231796 -56.622337
v  89.472801 84.272903 -56.622337
v  94.453796 88.529900 -56.622334
v  93.199501 75.231796 -56.622334
v  89.140305 62.637501 -56.622345
v  81.102104 52.698898 -56.622345
v  31.298899 52.529400 -43.377663
v  29.844698 48.534100 -43.377663
v  22.676699 84.272903 -43.377651
v  22.676699 88.529900 -43.377651
v  31.298903 52.529400 -56.622341
v  29.844702 48.534100 -56.622341
v  22.676702 84.272903 -56.622345
v  22.676702 88.529900 -56.622345
v  18.897898 52.698898 -43.377663
v  10.859699 62.637501 -43.377663
v  6.800499 75.231796 -43.377655
v  5.546200 88.529900 -43.377655
v  10.527199 84.272903 -43.377655
v  11.052299 75.231796 -43.377655
v  13.998501 64.762199 -43.377663
v  20.898897 56.152302 -43.377674
v  20.898901 56.152302 -56.622353
v  13.998501 64.762199 -56.622353
v  11.052299 75.231796 -56.622345
v  10.527199 84.272903 -56.622345
v  5.546200 88.529900 -56.622345
v  6.800499 75.231796 -56.622345
v  10.859699 62.637501 -56.622353
v  18.897902 52.698898 -56.622353
# 121 vertices

vt  0.205049 0.586923 0.000000
vt  0.068000 0.791037 0.000000
vt  0.278170 0.791037 0.000000
vt  0.341131 0.586923 0.000000
vt  0.465271 0.791037 0.000000
vt  0.465271 0.586923 0.000000
vt  0.645984 0.791037 0.000000
vt  0.588595 0.586923 0.000000
vt  0.859255 0.791037 0.000000
vt  0.729123 0.586923 0.000000
vt  0.727496 0.586923 0.000000
vt  0.859629 0.791037 0.000000
vt  0.645984 0.791037 0.000000
vt  0.588595 0.586923 0.000000
vt  0.465271 0.791037 0.000000
vt  0.465271 0.586923 0.000000
vt  0.278170 0.791037 0.000000
vt  0.341131 0.586923 0.000000
vt  0.067849 0.791037 0.000000
vt  0.205049 0.586923 0.000000
vt  0.022118 0.979870 0.000000
vt  0.240567 0.979870 0.000000
vt  0.465271 0.979870 0.000000
vt  0.669916 0.979870 0.000000
vt  0.899478 0.979870 0.000000
vt  0.899478 0.979870 0.000000
vt  0.669916 0.979870 0.000000
vt  0.465271 0.979870 0.000000
vt  0.240567 0.979870 0.000000
vt  0.022763 0.979870 0.000000
vt  0.690006 0.282110 0.000000
vt  0.569521 0.303328 0.000000
vt  0.636592 0.437585 0.000000
vt  0.672125 0.437202 0.000000
vt  0.798103 0.322694 0.000000
vt  0.707077 0.452693 0.000000
vt  0.874789 0.414510 0.000000
vt  0.732060 0.481076 0.000000
vt  0.891168 0.542355 0.000000
vt  0.742246 0.514661 0.000000
vt  0.874789 0.414510 0.000000
vt  0.891168 0.542355 0.000000
vt  0.742246 0.514661 0.000000
vt  0.732060 0.481076 0.000000
vt  0.798103 0.322694 0.000000
vt  0.707077 0.452693 0.000000
vt  0.690006 0.282110 0.000000
vt  0.672125 0.437202 0.000000
vt  0.569521 0.303328 0.000000
vt  0.636592 0.437585 0.000000
vt  0.642790 0.481227 0.000000
vt  0.656355 0.490726 0.000000
vt  0.672520 0.502045 0.000000
vt  0.686789 0.512036 0.000000
vt  0.701451 0.522303 0.000000
vt  0.701451 0.522303 0.000000
vt  0.686789 0.512036 0.000000
vt  0.672520 0.502045 0.000000
vt  0.656355 0.490726 0.000000
vt  0.642790 0.481227 0.000000
vt  0.444427 0.435961 0.000000
vt  0.415892 0.435961 0.000000
vt  0.465271 0.435961 0.000000
vt  0.492276 0.435961 0.000000
vt  0.522735 0.435961 0.000000
vt  0.492276 0.435961 0.000000
vt  0.522735 0.435961 0.000000
vt  0.465271 0.435961 0.000000
vt  0.444427 0.435961 0.000000
vt  0.415892 0.435961 0.000000
vt  0.731127 0.017237 0.000000
vt  0.545491 0.017237 0.000000
vt  0.545491 0.117087 0.000000
vt  0.731127 0.117087 0.000000
vt  0.373244 0.017237 0.000000
vt  0.373244 0.117087 0.000000
vt  0.198442 0.017237 0.000000
vt  0.198442 0.117087 0.000000
vt  0.017785 0.017237 0.000000
vt  0.017785 0.117087 0.000000
vt  0.017785 0.017237 0.000000
vt  0.198442 0.017237 0.000000
vt  0.198442 0.117087 0.000000
vt  0.017785 0.117087 0.000000
vt  0.373244 0.017237 0.000000
vt  0.373244 0.117087 0.000000
vt  0.545491 0.017237 0.000000
vt  0.545491 0.117087 0.000000
vt  0.731127 0.017237 0.000000
vt  0.731127 0.117087 0.000000
vt  0.296369 0.431320 0.000000
vt  0.226286 0.431320 0.000000
vt  0.226286 0.289917 0.000000
vt  0.296369 0.289917 0.000000
vt  0.158044 0.431320 0.000000
vt  0.158044 0.289917 0.000000
vt  0.090907 0.431320 0.000000
vt  0.090907 0.289917 0.000000
vt  0.022256 0.431320 0.000000
vt  0.022256 0.289917 0.000000
vt  0.022256 0.431320 0.000000
vt  0.090907 0.431320 0.000000
vt  0.090907 0.289917 0.000000
vt  0.022256 0.289917 0.000000
vt  0.158044 0.431320 0.000000
vt  0.158044 0.289917 0.000000
vt  0.226286 0.431320 0.000000
vt  0.226286 0.289917 0.000000
vt  0.296369 0.431320 0.000000
vt  0.296369 0.289917 0.000000
vt  0.158044 0.571571 0.000000
vt  0.158044 0.571571 0.000000
vt  0.739977 0.156260 0.000000
vt  0.739977 0.237458 0.000000
vt  0.658779 0.237458 0.000000
vt  0.658779 0.156260 0.000000
vt  0.772117 0.223524 0.000000
vt  0.772117 0.018094 0.000000
vt  0.977548 0.018094 0.000000
vt  0.977548 0.223524 0.000000
vt  0.987287 0.710669 0.000000
vt  0.987287 0.980830 0.000000
vt  0.920172 0.980830 0.000000
vt  0.920172 0.710669 0.000000
vt  0.987287 0.467253 0.000000
vt  0.920172 0.467253 0.000000
vt  0.987287 0.710669 0.000000
vt  0.987287 0.980830 0.000000
vt  0.920172 0.980830 0.000000
vt  0.920172 0.710669 0.000000
vt  0.987287 0.467253 0.000000
vt  0.920172 0.467253 0.000000
vt  0.453478 0.393788 0.000000
vt  0.453478 0.292509 0.000000
vt  0.416770 0.292509 0.000000
vt  0.416770 0.393788 0.000000
vt  0.453478 0.292509 0.000000
vt  0.453478 0.393788 0.000000
vt  0.416770 0.393788 0.000000
vt  0.416770 0.292509 0.000000
vt  0.421213 0.143942 0.000000
vt  0.421213 0.254103 0.000000
vt  0.311155 0.254103 0.000000
vt  0.311155 0.143942 0.000000
vt  0.919731 0.326048 0.000000
vt  0.986776 0.326048 0.000000
vt  0.986776 0.363349 0.000000
vt  0.919731 0.363349 0.000000
vt  0.380723 0.393788 0.000000
vt  0.380723 0.292509 0.000000
vt  0.329292 0.292509 0.000000
vt  0.329292 0.393788 0.000000
vt  0.489657 0.292509 0.000000
vt  0.489657 0.393788 0.000000
vt  0.523227 0.393788 0.000000
vt  0.523227 0.292509 0.000000
vt  0.380723 0.292509 0.000000
vt  0.380723 0.393788 0.000000
vt  0.329292 0.393788 0.000000
vt  0.329292 0.292509 0.000000
vt  0.489657 0.393788 0.000000
vt  0.489657 0.292509 0.000000
vt  0.523227 0.292509 0.000000
vt  0.523227 0.393788 0.000000
vt  0.202824 0.143942 0.000000
vt  0.202824 0.254103 0.000000
vt  0.019176 0.254103 0.000000
vt  0.019176 0.143942 0.000000
vt  0.527529 0.254103 0.000000
vt  0.527529 0.143942 0.000000
vt  0.624945 0.143942 0.000000
vt  0.624945 0.254103 0.000000
vt  0.919731 0.401191 0.000000
vt  0.986776 0.401191 0.000000
vt  0.986776 0.438961 0.000000
vt  0.919731 0.438961 0.000000
vt  0.986776 0.294988 0.000000
vt  0.919731 0.294988 0.000000
vt  0.919731 0.253321 0.000000
vt  0.986776 0.253321 0.000000
vt  0.453478 0.393788 0.000000
vt  0.453478 0.292509 0.000000
vt  0.416770 0.292509 0.000000
vt  0.416770 0.393788 0.000000
vt  0.453478 0.292509 0.000000
vt  0.453478 0.393788 0.000000
vt  0.416770 0.393788 0.000000
vt  0.416770 0.292509 0.000000
vt  0.421213 0.143942 0.000000
vt  0.421213 0.254103 0.000000
vt  0.311155 0.254103 0.000000
vt  0.311155 0.143942 0.000000
vt  0.919731 0.326048 0.000000
vt  0.986776 0.326048 0.000000
vt  0.986776 0.363349 0.000000
vt  0.919731 0.363349 0.000000
vt  0.380723 0.393788 0.000000
vt  0.380723 0.292509 0.000000
vt  0.329292 0.292509 0.000000
vt  0.329292 0.393788 0.000000
vt  0.489657 0.292509 0.000000
vt  0.489657 0.393788 0.000000
vt  0.523227 0.393788 0.000000
vt  0.523227 0.292509 0.000000
vt  0.380723 0.292509 0.000000
vt  0.380723 0.393788 0.000000
vt  0.329292 0.393788 0.000000
vt  0.329292 0.292509 0.000000
vt  0.489657 0.393788 0.000000
vt  0.489657 0.292509 0.000000
vt  0.523227 0.292509 0.000000
vt  0.523227 0.393788 0.000000
vt  0.202824 0.143942 0.000000
vt  0.202824 0.254103 0.000000
vt  0.019176 0.254103 0.000000
vt  0.019176 0.143942 0.000000
vt  0.527529 0.254103 0.000000
vt  0.527529 0.143942 0.000000
vt  0.624945 0.143942 0.000000
vt  0.624945 0.254103 0.000000
vt  0.919731 0.401191 0.000000
vt  0.986776 0.401191 0.000000
vt  0.986776 0.438961 0.000000
vt  0.919731 0.438961 0.000000
vt  0.986776 0.294988 0.000000
vt  0.919731 0.294988 0.000000
vt  0.919731 0.253321 0.000000
vt  0.986776 0.253321 0.000000
# 228 texture vertices

vn  -0.815955 -0.578116 -0.000000
vn  -0.576967 -0.578115 -0.576967
vn  0.000000 -0.578116 -0.815955
vn  0.576967 -0.578115 -0.576967
vn  0.815955 -0.578116 0.000000
vn  0.576967 -0.578115 0.576967
vn  -0.000000 -0.578116 0.815955
vn  -0.576967 -0.578115 0.576967
vn  -0.988891 -0.148641 -0.000000
vn  -0.699251 -0.148641 -0.699252
vn  0.000000 -0.148641 -0.988891
vn  0.699252 -0.148641 -0.699251
vn  0.988891 -0.148641 0.000000
vn  0.699251 -0.148641 0.699252
vn  -0.000000 -0.148641 0.988891
vn  -0.699252 -0.148641 0.699251
vn  -0.746333 0.665573 0.000000
vn  -0.527737 0.665573 -0.527737
vn  -0.000000 0.665573 -0.746333
vn  -0.000000 0.665573 0.746333
vn  -0.527737 0.665573 0.527737
vn  -0.502134 0.864790 -0.000001
vn  -0.355064 0.864789 -0.355064
vn  0.000000 0.864790 -0.502134
vn  0.355064 0.864789 -0.355064
vn  0.502134 0.864790 0.000000
vn  0.355064 0.864789 0.355064
vn  0.000000 0.864790 0.502134
vn  -0.355064 0.864789 0.355062
vn  -0.510520 0.691910 -0.510519
vn  0.000001 0.691910 -0.721983
vn  0.510519 0.691910 -0.510520
vn  0.721983 0.691910 0.000001
vn  0.510520 0.691910 0.510519
vn  -0.000001 0.691911 0.721983
vn  -0.510519 0.691911 0.510520
vn  -0.721984 0.691910 -0.000001
vn  0.000000 -0.301864 -0.953351
vn  0.674121 -0.301864 -0.674121
vn  -0.674121 -0.301865 0.674121
vn  -0.953351 -0.301865 -0.000000
vn  0.595166 0.803603 -0.000000
vn  0.420844 0.803605 0.420844
vn  0.000000 0.803603 0.595166
vn  -0.420844 0.803605 0.420844
vn  -0.595166 0.803603 0.000000
vn  -0.420844 0.803605 -0.420844
vn  0.000000 0.803603 -0.595166
vn  0.420844 0.803605 -0.420844
vn  0.919900 0.392153 -0.000000
vn  0.650467 0.392153 0.650468
vn  0.000000 0.392153 0.919900
vn  -0.650468 0.392153 0.650467
vn  -0.919900 0.392153 -0.000000
vn  -0.650467 0.392153 -0.650468
vn  0.000000 0.392153 -0.919900
vn  0.650468 0.392153 -0.650467
vn  0.000000 1.000000 -0.000000
vn  -0.674120 -0.301864 -0.674121
vn  0.953351 -0.301864 -0.000000
vn  0.674121 -0.301864 0.674121
vn  0.000000 -0.301864 0.953351
vn  0.527737 0.665573 -0.527737
vn  0.746333 0.665573 -0.000000
vn  0.527737 0.665573 0.527737
vn  -0.533492 -0.656332 0.533492
vn  0.533492 -0.656332 0.533492
vn  -0.533492 -0.656332 -0.533492
vn  0.533492 -0.656332 -0.533492
vn  -0.613225 0.497907 0.613225
vn  0.613225 0.497907 0.613225
vn  -0.613224 0.497907 -0.613225
vn  0.613225 0.497907 -0.613225
vn  -0.233643 0.670703 0.703966
vn  0.252602 -0.663943 0.703826
vn  -0.000000 -0.707107 0.707107
vn  -0.000000 0.707107 0.707107
vn  -0.233644 0.670703 -0.703966
vn  0.252602 -0.663944 -0.703826
vn  0.000000 -0.707107 -0.707107
vn  0.000000 0.707107 -0.707107
vn  0.444491 -0.613315 0.652896
vn  0.654411 -0.354059 0.668123
vn  0.715021 -0.147116 0.683448
vn  0.606337 0.551837 0.572566
vn  -0.299551 -0.282658 0.911249
vn  -0.671679 0.112646 0.732228
vn  -0.583305 0.299953 0.754840
vn  -0.364779 0.516192 0.774908
vn  -0.364778 0.516190 -0.774909
vn  -0.583304 0.299954 -0.754841
vn  -0.671679 0.112647 -0.732228
vn  -0.299551 -0.282658 -0.911249
vn  0.606337 0.551837 -0.572565
vn  0.715022 -0.147115 -0.683448
vn  0.654411 -0.354059 -0.668123
vn  0.444491 -0.613316 -0.652895
vn  0.233643 0.670703 0.703966
vn  -0.252603 -0.663943 0.703826
vn  -0.000000 -0.707107 0.707107
vn  -0.000000 0.707107 0.707107
vn  0.233644 0.670703 -0.703965
vn  -0.252602 -0.663944 -0.703826
vn  0.000000 -0.707107 -0.707107
vn  0.000000 0.707107 -0.707107
vn  -0.444491 -0.613315 0.652896
vn  -0.654411 -0.354059 0.668123
vn  -0.715021 -0.147116 0.683448
vn  -0.606337 0.551837 0.572565
vn  0.299551 -0.282658 0.911249
vn  0.671679 0.112646 0.732228
vn  0.583305 0.299953 0.754840
vn  0.364779 0.516192 0.774908
vn  0.364779 0.516190 -0.774909
vn  0.583304 0.299954 -0.754841
vn  0.671679 0.112647 -0.732228
vn  0.299551 -0.282658 -0.911249
vn  -0.606337 0.551837 -0.572566
vn  -0.715021 -0.147115 -0.683448
vn  -0.654411 -0.354059 -0.668123
vn  -0.444491 -0.613316 -0.652895
# 121 vertex normals

g base
s 1
f 10/3/10 2/4/2 1/1/1
f 1/1/1 9/2/9 10/3/10
f 11/5/11 3/6/3 2/4/2
f 2/4/2 10/3/10 11/5/11
f 12/7/12 4/8/4 3/6/3
f 3/6/3 11/5/11 12/7/12
f 13/9/13 5/10/5 4/8/4
f 4/8/4 12/7/12 13/9/13
f 14/13/14 6/14/6 5/11/5
f 5/11/5 13/12/13 14/13/14
f 15/15/15 7/16/7 6/14/6
f 6/14/6 14/13/14 15/15/15
f 16/17/16 8/18/8 7/16/7
f 7/16/7 15/15/15 16/17/16
f 9/19/9 1/20/1 8/18/8
f 8/18/8 16/17/16 9/19/9
f 18/22/18 10/3/10 9/2/9
f 9/2/9 17/21/17 18/22/18
f 19/23/19 11/5/11 10/3/10
f 10/3/10 18/22/18 19/23/19
f 63/24/63 12/7/12 11/5/11
f 11/5/11 19/23/19 63/24/63
f 64/25/64 13/9/13 12/7/12
f 12/7/12 63/24/63 64/25/64
f 65/27/65 14/13/14 13/12/13
f 13/12/13 64/26/64 65/27/65
f 20/28/20 15/15/15 14/13/14
f 14/13/14 65/27/65 20/28/20
f 21/29/21 16/17/16 15/15/15
f 15/15/15 20/28/20 21/29/21
f 17/30/17 9/19/9 16/17/16
f 16/17/16 21/29/21 17/30/17
f 23/31/23 22/32/22 37/33/37
f 37/33/37 30/34/30 23/31/23
f 24/35/24 23/31/23 30/34/30
f 30/34/30 31/36/31 24/35/24
f 25/37/25 24/35/24 31/36/31
f 31/36/31 32/38/32 25/37/25
f 26/39/26 25/37/25 32/38/32
f 32/38/32 33/40/33 26/39/26
f 27/41/27 26/42/26 33/43/33
f 33/43/33 34/44/34 27/41/27
f 28/45/28 27/41/27 34/44/34
f 34/44/34 35/46/35 28/45/28
f 29/47/29 28/45/28 35/46/35
f 35/46/35 36/48/36 29/47/29
f 22/49/22 29/47/29 36/48/36
f 36/48/36 37/50/37 22/49/22
f 30/34/30 37/33/37 41/51/41
f 41/51/41 59/52/59 30/34/30
f 31/36/31 30/34/30 59/52/59
f 59/52/59 38/53/38 31/36/31
f 32/38/32 31/36/31 38/53/38
f 38/53/38 39/54/39 32/38/32
f 33/40/33 32/38/32 39/54/39
f 39/54/39 60/55/60 33/40/33
f 34/44/34 33/43/33 60/56/60
f 60/56/60 61/57/61 34/44/34
f 35/46/35 34/44/34 61/57/61
f 61/57/61 62/58/62 35/46/35
f 36/48/36 35/46/35 62/58/62
f 62/58/62 40/59/40 36/48/36
f 37/50/37 36/48/36 40/59/40
f 40/59/40 41/60/41 37/50/37
f 1/1/1 2/4/2 59/61/59
f 59/61/59 41/62/41 1/1/1
f 2/4/2 3/6/3 38/63/38
f 38/63/38 59/61/59 2/4/2
f 3/6/3 4/8/4 39/64/39
f 39/64/39 38/63/38 3/6/3
f 4/8/4 5/10/5 60/65/60
f 60/65/60 39/64/39 4/8/4
f 5/11/5 6/14/6 61/66/61
f 61/66/61 60/67/60 5/11/5
f 6/14/6 7/16/7 62/68/62
f 62/68/62 61/66/61 6/14/6
f 7/16/7 8/18/8 40/69/40
f 40/69/40 62/68/62 7/16/7
f 8/18/8 1/20/1 41/70/41
f 41/70/41 40/69/40 8/18/8
f 18/73/18 17/74/17 42/71/42
f 42/71/42 43/72/43 18/73/18
f 19/76/19 18/73/18 43/72/43
f 43/72/43 44/75/44 19/76/19
f 63/78/63 19/76/19 44/75/44
f 44/75/44 45/77/45 63/78/63
f 64/80/64 63/78/63 45/77/45
f 45/77/45 46/79/46 64/80/64
f 65/83/65 64/84/64 46/81/46
f 46/81/46 47/82/47 65/83/65
f 20/86/20 65/83/65 47/82/47
f 47/82/47 48/85/48 20/86/20
f 21/88/21 20/86/20 48/85/48
f 48/85/48 49/87/49 21/88/21
f 17/90/17 21/88/21 49/87/49
f 49/87/49 42/89/42 17/90/17
f 43/93/43 42/94/42 50/91/50
f 50/91/50 51/92/51 43/93/43
f 44/96/44 43/93/43 51/92/51
f 51/92/51 52/95/52 44/96/44
f 45/98/45 44/96/44 52/95/52
f 52/95/52 53/97/53 45/98/45
f 46/100/46 45/98/45 53/97/53
f 53/97/53 54/99/54 46/100/46
f 47/103/47 46/104/46 54/101/54
f 54/101/54 55/102/55 47/103/47
f 48/106/48 47/103/47 55/102/55
f 55/102/55 56/105/56 48/106/48
f 49/108/49 48/106/48 56/105/56
f 56/105/56 57/107/57 49/108/49
f 42/110/42 49/108/49 57/107/57
f 57/107/57 50/109/50 42/110/42
f 51/92/51 50/91/50 58/111/58
f 52/95/52 51/92/51 58/111/58
f 53/97/53 52/95/52 58/111/58
f 54/99/54 53/97/53 58/111/58
f 55/102/55 54/101/54 58/112/58
f 56/105/56 55/102/55 58/112/58
f 57/107/57 56/105/56 58/112/58
f 50/109/50 57/107/57 58/112/58
f 66/115/66 68/116/68 69/113/69
f 69/113/69 67/114/67 66/115/66
f 70/119/70 71/120/71 73/117/73
f 73/117/73 72/118/72 70/119/70
f 66/123/66 67/124/67 71/121/71
f 71/121/71 70/122/70 66/123/66
f 67/124/67 69/126/69 73/125/73
f 73/125/73 71/121/71 67/124/67
f 69/129/69 68/130/68 72/127/72
f 72/127/72 73/128/73 69/129/69
f 68/130/68 66/132/66 70/131/70
f 70/131/70 72/127/72 68/130/68
f 84/135/84 87/136/87 88/133/88
f 88/133/88 83/134/83 84/135/84
f 92/139/92 95/140/95 96/137/96
f 96/137/96 91/138/91 92/139/92
f 95/143/95 84/144/84 83/141/83
f 83/141/83 96/142/96 95/143/95
f 91/147/91 88/148/88 87/145/87
f 87/145/87 92/146/92 91/147/91
f 77/151/77 76/152/76 86/149/86
f 86/149/86 85/150/85 77/151/77
f 86/149/86 87/136/87 84/135/84
f 84/135/84 85/150/85 86/149/86
f 74/155/74 75/156/75 82/153/82
f 82/153/82 89/154/89 74/155/74
f 89/154/89 82/153/82 83/134/83
f 83/134/83 88/133/88 89/154/89
f 80/159/80 81/160/81 94/157/94
f 94/157/94 93/158/93 80/159/80
f 95/140/95 92/139/92 93/158/93
f 93/158/93 94/157/94 95/140/95
f 79/163/79 78/164/78 90/161/90
f 90/161/90 97/162/97 79/163/79
f 97/162/97 90/161/90 91/138/91
f 91/138/91 96/137/96 97/162/97
f 81/167/81 77/168/77 85/165/85
f 85/165/85 94/166/94 81/167/81
f 94/166/94 85/165/85 84/144/84
f 84/144/84 95/143/95 94/166/94
f 75/171/75 79/172/79 97/169/97
f 97/169/97 82/170/82 75/171/75
f 82/170/82 97/169/97 96/142/96
f 96/142/96 83/141/83 82/170/82
f 78/175/78 74/176/74 89/173/89
f 89/173/89 90/174/90 78/175/78
f 90/174/90 89/173/89 88/148/88
f 88/148/88 91/147/91 90/174/90
f 76/179/76 80/180/80 93/177/93
f 93/177/93 86/178/86 76/179/76
f 86/178/86 93/177/93 92/146/92
f 92/146/92 87/145/87 86/178/86
f 108/183/108 107/182/107 112/181/112
f 112/181/112 111/184/111 108/183/108
f 116/187/116 115/186/115 120/185/120
f 120/185/120 119/188/119 116/187/116
f 119/191/119 120/190/120 107/189/107
f 107/189/107 108/192/108 119/191/119
f 115/195/115 116/194/116 111/193/111
f 111/193/111 112/196/112 115/195/115
f 101/199/101 109/198/109 110/197/110
f 110/197/110 100/200/100 101/199/101
f 110/197/110 109/198/109 108/183/108
f 108/183/108 111/184/111 110/197/110
f 98/203/98 113/202/113 106/201/106
f 106/201/106 99/204/99 98/203/98
f 113/202/113 112/181/112 107/182/107
f 107/182/107 106/201/106 113/202/113
f 104/207/104 117/206/117 118/205/118
f 118/205/118 105/208/105 104/207/104
f 119/188/119 118/205/118 117/206/117
f 117/206/117 116/187/116 119/188/119
f 103/211/103 121/210/121 114/209/114
f 114/209/114 102/212/102 103/211/103
f 121/210/121 120/185/120 115/186/115
f 115/186/115 114/209/114 121/210/121
f 105/215/105 118/214/118 109/213/109
f 109/213/109 101/216/101 105/215/105
f 118/214/118 119/191/119 108/192/108
f 108/192/108 109/213/109 118/214/118
f 99/219/99 106/218/106 121/217/121
f 121/217/121 103/220/103 99/219/99
f 106/218/106 107/189/107 120/190/120
f 120/190/120 121/217/121 106/218/106
f 102/223/102 114/222/114 113/221/113
f 113/221/113 98/224/98 102/223/102
f 114/222/114 115/195/115 112/196/112
f 112/196/112 113/221/113 114/222/114
f 100/227/100 110/226/110 117/225/117
f 117/225/117 104/228/104 100/227/100
f 110/226/110 111/193/111 116/194/116
f 116/194/116 117/225/117 110/226/110
# 212 faces

g
