# Max2Obj Version 4.0 Mar 10th, 2001
#
# object base to come ...
#
v  44.900833 92.161186 -69.150208
v  44.900826 92.161186 -30.849794
v  44.900822 73.010979 -22.917524
v  44.900826 45.928501 -50.000008
v  44.900829 53.860779 -69.150208
v  35.099529 73.010979 -77.082481
v  35.099525 92.161186 -69.150208
v  35.099522 100.093460 -50.000004
v  35.099518 92.161179 -30.849798
v  35.099518 73.010979 -22.917528
v  35.099518 53.860771 -30.849804
v  35.099522 45.928501 -50.000008
v  35.099525 53.860775 -69.150215
v  44.900833 73.010979 -77.082481
v  44.900829 100.093460 -50.000000
v  44.900822 53.860771 -30.849800
v  42.087498 -1.274101 -44.644478
v  42.087502 -1.274101 -55.355530
v  42.087502 52.663582 -45.400665
v  42.087502 52.663582 -54.599342
v  36.411404 -1.274101 -44.644478
v  36.411407 -1.274101 -55.355530
v  36.411407 52.663582 -45.400665
v  36.411407 52.663582 -54.599342
v  41.246822 25.694736 -53.681744
v  41.246822 25.694736 -46.318260
v  37.252083 25.694736 -46.318264
v  37.252083 25.694736 -53.681747
v  35.099522 73.010979 -50.000008
v  44.900829 73.010979 -50.000004
v  41.799477 36.444176 -27.360237
v  41.799477 23.860241 -28.461193
v  41.799477 22.552158 -29.775898
v  41.799484 43.475266 -77.513466
v  41.799488 16.452038 -83.139389
v  41.816399 36.846741 -25.865402
v  41.816414 36.277412 -109.633545
v  41.812180 14.877148 -83.571945
v  41.812176 54.289406 -78.640465
v  41.812168 39.350323 -27.627857
v  41.816399 23.204227 -27.058966
v  41.816414 38.311081 -109.455620
v  41.812176 25.280602 -77.645676
v  41.812176 43.586197 -76.044144
v  41.812180 54.860687 -80.073837
v  41.812180 15.190842 -82.061150
v  41.812168 21.044724 -29.229389
v  41.799477 37.960686 -28.427826
v  41.799492 36.914551 -108.118179
v  41.799492 37.420479 -108.073914
v  41.799488 53.234604 -79.921326
v  41.799484 25.644993 -79.073410
v  41.799484 26.723412 -77.519440
v  41.799484 42.129608 -76.171577
v  50.575478 36.444180 -27.360235
v  50.575478 23.860249 -28.461187
v  50.575493 36.914555 -108.118179
v  50.575489 53.234604 -79.921333
v  50.575489 25.644993 -79.073410
v  50.575489 26.723419 -77.519440
v  50.575481 36.846741 -25.865400
v  50.575497 36.277412 -109.633537
v  50.575489 14.877148 -83.571945
v  50.575489 54.289410 -78.640465
v  50.575478 39.350323 -27.627855
v  50.575481 23.204227 -27.058964
v  50.575497 38.311081 -109.455612
v  50.575489 25.280602 -77.645668
v  50.575489 43.586197 -76.044136
v  50.575489 54.860691 -80.073837
v  50.575489 15.190842 -82.061150
v  50.575478 21.044724 -29.229387
v  50.575478 22.552158 -29.775896
v  50.575478 37.960690 -28.427824
v  50.575493 37.420483 -108.073914
v  50.575489 43.475266 -77.513466
v  50.575489 16.452038 -83.139389
v  50.575489 42.129612 -76.171570
v  44.900833 92.161186 -69.150208
v  44.900826 92.161186 -30.849794
v  44.900822 73.010979 -22.917524
v  44.900826 45.928501 -50.000008
v  44.900829 53.860779 -69.150208
v  35.099529 73.010979 -77.082481
v  35.099525 92.161186 -69.150208
v  35.099522 100.093460 -50.000004
v  35.099518 92.161179 -30.849798
v  35.099518 73.010979 -22.917528
v  35.099518 53.860771 -30.849804
v  35.099522 45.928501 -50.000008
v  35.099525 53.860775 -69.150215
v  44.900833 73.010979 -77.082481
v  44.900829 100.093460 -50.000000
v  44.900822 53.860771 -30.849800
# 94 vertices

vt  0.600287 0.605390 1.000000
vt  0.600287 0.803272 1.000000
vt  0.600287 0.970513 1.000000
vt  0.600287 0.803272 1.000000
vt  0.600287 0.605390 1.000000
vt  0.600287 0.407508 1.000000
vt  0.600287 0.222918 1.000000
vt  0.600287 0.407508 1.000000
vt  0.662006 0.605390 1.000000
vt  0.662006 0.803272 1.000000
vt  0.662006 0.970513 1.000000
vt  0.662006 0.803272 1.000000
vt  0.662006 0.605390 1.000000
vt  0.662006 0.407508 1.000000
vt  0.662006 0.222918 1.000000
vt  0.662006 0.407508 1.000000
vt  0.600287 0.970513 1.000000
vt  0.662006 0.970513 1.000000
vt  0.600287 0.222918 1.000000
vt  0.662006 0.222918 1.000000
vt  0.815035 0.028773 0.999501
vt  0.979998 0.028773 0.999501
vt  0.979998 0.500000 0.851540
vt  0.815035 0.500000 0.851540
vt  0.815035 0.028773 0.000499
vt  0.815035 0.500000 0.148460
vt  0.979998 0.500000 0.148460
vt  0.979998 0.028773 0.000499
vt  0.979998 0.971227 0.999501
vt  0.815035 0.971227 0.999501
vt  0.815035 0.971227 0.000499
vt  0.979998 0.971227 0.000499
vt  0.780586 0.031221 0.000500
vt  0.709489 0.031221 0.000500
vt  0.709489 0.502448 0.156610
vt  0.780586 0.502448 0.156610
vt  0.780586 0.973675 0.928971
vt  0.709489 0.973675 0.928971
vt  0.709489 0.502448 0.843389
vt  0.780586 0.502448 0.843389
vt  0.709489 0.973675 0.071027
vt  0.780586 0.973675 0.071027
vt  0.709489 0.031221 0.999501
vt  0.780586 0.031221 0.999500
vt  0.604922 0.060431 0.419566
vt  0.604922 0.018241 -0.201501
vt  0.647111 0.018241 0.463958
vt  0.647111 0.060431 1.085026
vt  0.553312 0.969131 0.500000
vt  0.180995 0.596814 0.500000
vt  0.553312 0.224497 0.500000
vt  0.290044 0.860082 0.500000
vt  0.290044 0.333546 0.500000
vt  0.290044 0.860082 0.500000
vt  0.290044 0.333546 0.500000
vt  0.553312 0.969131 0.500000
vt  0.180995 0.596814 0.500000
vt  0.553312 0.224497 0.500000
vt  0.553312 0.596814 0.500000
vt  0.553312 0.596814 0.500000
vt  0.135516 0.205883 0.329569
vt  0.135516 0.973810 0.525406
vt  0.026398 0.500495 0.728685
vt  0.135516 0.698682 0.999500
vt  0.026398 0.698682 0.000500
vt  0.135516 0.653868 0.011555
vt  0.026398 0.653868 0.988445
vt  0.135516 0.251128 0.271315
vt  0.135516 0.205883 0.670431
vt  0.135516 0.973810 0.474594
vt  0.026398 0.251128 0.728686
vt  0.026398 0.205883 0.329569
vt  0.026398 0.973810 0.525406
vt  0.026398 0.973810 0.474594
vt  0.135516 0.500495 0.271315
vt  0.135516 0.500495 0.728685
vt  0.026398 0.500495 0.271315
vt  0.135516 0.698682 0.000500
vt  0.026398 0.698682 0.999500
vt  0.135516 0.653868 0.988445
vt  0.026398 0.653868 0.011555
vt  0.135516 0.251128 0.728686
vt  0.026398 0.205883 0.670431
vt  0.026398 0.251128 0.271315
vt  0.029942 0.027722 0.000500
vt  0.177650 0.846599 0.999500
vt  0.029942 0.156014 0.000500
vt  0.219155 0.846599 0.999500
vt  0.124632 0.027722 0.000500
vt  0.177650 0.968883 0.999500
vt  0.219155 0.968883 0.999500
vt  0.124632 0.156014 0.000500
vt  0.659841 0.103463 0.500000
vt  0.659841 0.181425 0.500000
vt  0.652345 0.190175 0.500000
vt  0.652345 0.094713 0.500000
vt  0.174588 0.144011 0.500000
vt  0.174588 0.140877 0.500000
vt  0.341461 0.028503 0.500000
vt  0.361831 0.087211 0.500000
vt  0.361831 0.197677 0.500000
vt  0.341461 0.256385 0.500000
vt  0.370947 0.190211 0.500000
vt  0.370947 0.094763 0.500000
vt  0.202524 0.232466 0.500000
vt  0.224658 0.345374 0.500000
vt  0.278240 0.293026 0.500000
vt  0.166581 0.290246 0.500000
vt  0.195940 0.236179 0.500000
vt  0.241048 0.232466 0.500000
vt  0.218915 0.345374 0.500000
vt  0.247632 0.283626 0.500000
vt  0.195940 0.283626 0.500000
vt  0.165332 0.293026 0.500000
vt  0.276991 0.290246 0.500000
vt  0.247632 0.236179 0.500000
vt  0.204018 0.235201 0.500000
vt  0.239554 0.235201 0.500000
vt  0.243542 0.237450 0.500000
vt  0.200030 0.237450 0.500000
vt  0.222500 0.342639 0.500000
vt  0.221072 0.342639 0.500000
vt  0.169851 0.292473 0.500000
vt  0.196611 0.286361 0.500000
vt  0.246961 0.286361 0.500000
vt  0.273721 0.292473 0.500000
vt  0.243558 0.283626 0.500000
vt  0.200053 0.283626 0.500000
vt  0.659841 0.103463 0.500000
vt  0.659841 0.181425 0.500000
vt  0.652345 0.190175 0.500000
vt  0.652345 0.094713 0.500000
vt  0.174588 0.144011 0.500000
vt  0.174588 0.140877 0.500000
vt  0.341461 0.028503 0.500000
vt  0.361831 0.087211 0.500000
vt  0.361831 0.197677 0.500000
vt  0.341461 0.256385 0.500000
vt  0.370947 0.190211 0.500000
vt  0.370947 0.094763 0.500000
vt  0.202524 0.232466 0.500000
vt  0.224658 0.345374 0.500000
vt  0.278240 0.293026 0.500000
vt  0.166581 0.290246 0.500000
vt  0.195940 0.236179 0.500000
vt  0.241048 0.232466 0.500000
vt  0.218915 0.345374 0.500000
vt  0.247632 0.283626 0.500000
vt  0.195940 0.283626 0.500000
vt  0.165332 0.293026 0.500000
vt  0.276991 0.290246 0.500000
vt  0.247632 0.236179 0.500000
vt  0.204018 0.235201 0.500000
vt  0.239554 0.235201 0.500000
vt  0.243542 0.237450 0.500000
vt  0.200030 0.237450 0.500000
vt  0.222500 0.342639 0.500000
vt  0.221072 0.342639 0.500000
vt  0.169851 0.292473 0.500000
vt  0.196611 0.286361 0.500000
vt  0.246961 0.286361 0.500000
vt  0.273721 0.292473 0.500000
vt  0.243558 0.283626 0.500000
vt  0.200053 0.283626 0.500000
vt  0.289842 0.912812 0.500000
vt  0.180793 0.653311 0.500000
vt  0.289842 0.390043 0.500000
vt  0.180793 0.653311 0.500000
vt  0.289842 0.912812 0.500000
vt  0.289842 0.390043 0.500000
vt  0.553110 0.971014 0.500000
vt  0.553110 0.280994 0.500000
vt  0.553110 0.971014 0.500000
vt  0.553110 0.280994 0.500000
vt  0.553110 0.653311 0.500000
vt  0.553110 0.653311 0.500000
# 176 texture vertices

vn  1.000000 -0.000000 0.000000
vn  1.000000 -0.000000 0.000000
vn  -0.000000 -0.000000 1.000000
vn  1.000000 -0.000000 0.000000
vn  0.000000 -0.707107 -0.707107
vn  0.000000 0.000000 -1.000000
vn  -1.000000 0.000000 -0.000000
vn  -1.000000 0.000000 -0.000000
vn  -1.000000 0.000000 -0.000000
vn  -1.000000 0.000000 -0.000000
vn  -1.000000 0.000000 -0.000000
vn  -1.000000 0.000000 -0.000000
vn  -1.000000 0.000000 -0.000000
vn  1.000000 -0.000000 0.000000
vn  0.000000 1.000000 -0.000000
vn  0.000000 -0.707107 0.707107
vn  1.508110 0.047011 0.000000
vn  1.508110 0.047011 0.000000
vn  -0.000000 -0.052355 1.538762
vn  1.536056 -0.047882 0.000000
vn  -1.508110 0.047011 -0.000000
vn  -1.508110 0.047011 -0.000000
vn  -0.000000 -0.052355 1.538762
vn  -1.536056 -0.047882 -0.000000
vn  1.631958 0.050872 0.000000
vn  1.631958 0.050872 0.000000
vn  -1.631958 0.050872 -0.000000
vn  -1.631958 0.050872 -0.000000
vn  -1.000000 0.000000 -0.000000
vn  1.000000 -0.000000 0.000000
vn  -1.000000 -0.000000 -0.000000
vn  -1.000000 0.000000 -0.000000
vn  -1.000000 0.000000 -0.000000
vn  -1.000000 0.000000 -0.000000
vn  -1.000000 0.000000 -0.000000
vn  -0.000000 0.260192 0.965557
vn  0.000004 -1.077157 -2.561736
vn  0.000000 -0.971012 -0.239031
vn  -0.000000 0.655434 0.755253
vn  -0.000000 1.758305 0.411752
vn  -0.000000 -0.423906 0.905706
vn  0.000002 1.485680 -2.107666
vn  -0.000000 -0.860009 0.510279
vn  -0.000000 0.758334 0.651866
vn  -0.000001 0.997767 -0.066784
vn  -0.000000 -0.776625 0.629963
vn  -0.000000 -2.677358 0.970038
vn  -1.000000 -0.000000 -0.000000
vn  -1.000000 0.000000 -0.000000
vn  -1.000000 0.000000 -0.000000
vn  -1.000000 0.000000 -0.000000
vn  -1.000000 0.000000 -0.000000
vn  -1.000000 0.000000 -0.000000
vn  -1.000000 0.000000 -0.000000
vn  1.000000 0.000000 0.000000
vn  1.000000 0.000000 0.000000
vn  1.000000 -0.000000 0.000000
vn  1.000000 -0.000000 0.000000
vn  1.000000 0.000000 0.000000
vn  1.000000 0.000000 0.000000
vn  -0.000000 0.260037 0.965599
vn  0.000002 -1.194010 -1.224946
vn  0.000000 -0.971007 -0.239050
vn  -0.000001 0.655433 0.755253
vn  -0.000000 2.469034 1.421348
vn  -0.000000 -0.423761 0.905774
vn  0.000002 1.505525 -2.335711
vn  -0.000000 -0.860009 0.510279
vn  -0.000000 0.758334 0.651866
vn  -0.000001 0.997766 -0.066803
vn  -0.000000 -0.776625 0.629963
vn  -0.000000 -1.803199 0.100277
vn  1.000000 0.000000 0.000000
vn  1.000000 0.000000 0.000000
vn  1.000000 -0.000000 0.000000
vn  1.000000 0.000000 0.000000
vn  1.000000 -0.000000 0.000000
vn  1.000000 0.000000 0.000000
vn  0.000000 0.707107 -0.707107
vn  -0.000000 0.707107 0.707107
vn  1.000000 -0.000000 0.000000
vn  0.000000 -1.000000 -0.000000
vn  1.000000 -0.000000 0.000000
vn  -1.000000 0.000000 -0.000000
vn  0.000000 0.707107 -0.707107
vn  -0.000000 1.000000 0.000000
vn  -0.000000 0.707107 0.707107
vn  -0.000000 -0.000000 1.000000
vn  0.000000 -0.707107 0.707107
vn  0.000000 -1.000000 -0.000000
vn  0.000000 -0.707107 -0.707107
vn  0.000000 0.000000 -1.000000
vn  1.000000 -0.000000 0.000000
vn  1.000000 -0.000000 0.000000
# 94 vertex normals

g base
s 1
f 6/1/6 85/2/85 79/10/79
f 79/10/79 92/9/92 6/1/6
f 85/2/85 86/17/86 15/18/15
f 15/18/15 79/10/79 85/2/85
f 86/3/86 87/4/87 80/12/80
f 80/12/80 15/11/15 86/3/86
f 87/4/87 88/5/88 3/13/3
f 3/13/3 80/12/80 87/4/87
f 88/5/88 89/6/89 16/14/16
f 16/14/16 3/13/3 88/5/88
f 89/6/89 90/7/90 82/15/82
f 82/15/82 16/14/16 89/6/89
f 90/19/90 91/8/91 5/16/5
f 5/16/5 82/20/82 90/19/90
f 91/8/91 6/1/6 92/9/92
f 92/9/92 5/16/5 91/8/91
f 10/50/10 9/52/9 29/59/29
f 14/168/14 1/169/1 30/176/30
s 2
f 18/22/18 25/23/25 26/24/26
f 26/24/26 17/21/17 18/22/18
s 4
f 27/26/27 28/27/28 22/28/22
f 22/28/22 21/25/21 27/26/27
s 8
f 17/45/17 21/46/21 22/47/22
f 22/47/22 18/48/18 17/45/17
s 16
f 22/34/22 28/35/28 25/36/25
f 25/36/25 18/33/18 22/34/22
s 64
f 23/38/23 27/39/27 26/40/26
f 26/40/26 19/37/19 23/38/23
s 2
f 20/29/20 19/30/19 26/24/26
f 26/24/26 25/23/25 20/29/20
s 4
f 23/31/23 24/32/24 28/27/28
f 28/27/28 27/26/27 23/31/23
s 16
f 24/41/24 20/42/20 25/36/25
f 25/36/25 28/35/28 24/41/24
s 64
f 21/43/21 17/44/17 26/40/26
f 26/40/26 27/39/27 21/43/21
s 1
f 93/56/93 2/54/2 30/60/30
f 8/171/8 7/165/7 29/175/29
f 13/167/13 12/172/12 29/175/29
f 29/59/29 11/53/11 10/50/10
f 9/52/9 8/49/8 29/59/29
f 29/175/29 84/166/84 13/167/13
f 7/165/7 84/166/84 29/175/29
f 29/59/29 12/51/12 11/53/11
f 94/55/94 4/58/4 30/60/30
f 30/176/30 4/174/4 83/170/83
f 1/169/1 93/173/93 30/176/30
f 30/60/30 2/54/2 81/57/81
f 81/57/81 94/55/94 30/60/30
f 30/176/30 83/170/83 14/168/14
f 47/84/47 43/77/43 68/75/68
f 68/75/68 72/68/72 47/84/47
f 42/73/42 45/79/45 70/64/70
f 70/64/70 67/62/67 42/73/42
f 46/81/46 71/66/71 68/75/68
f 68/75/68 43/77/43 46/81/46
f 40/71/40 65/82/65 69/76/69
f 69/76/69 44/63/44 40/71/40
f 44/63/44 69/76/69 64/80/64
f 64/80/64 39/67/39 44/63/44
f 37/74/37 62/70/62 63/78/63
f 63/78/63 38/65/38 37/74/37
f 45/79/45 39/67/39 64/80/64
f 64/80/64 70/64/70 45/79/45
f 46/81/46 38/65/38 63/78/63
f 63/78/63 71/66/71 46/81/46
f 61/69/61 65/82/65 40/71/40
f 40/71/40 36/83/36 61/69/61
f 41/72/41 47/84/47 72/68/72
f 72/68/72 66/61/66 41/72/41
f 61/87/61 36/92/36 41/89/41
f 41/89/41 66/85/66 61/87/61
f 62/88/62 37/91/37 42/90/42
f 42/90/42 67/86/67 62/88/62
f 54/104/54 53/103/53 33/95/33
f 33/95/33 32/94/32 31/93/31
f 54/104/54 33/95/33 31/93/31
f 48/96/48 54/104/54 31/93/31
f 51/99/51 50/98/50 49/97/49
f 51/99/51 49/97/49 35/102/35
f 34/100/34 51/99/51 35/102/35
f 52/101/52 34/100/34 35/102/35
s 0
f 53/103/53 54/104/54 34/100/34
f 34/100/34 52/101/52 53/103/53
f 36/105/36 31/117/31 32/118/32
f 32/118/32 41/110/41 36/105/36
f 41/110/41 32/118/32 33/119/33
f 33/119/33 47/116/47 41/110/41
f 47/116/47 33/119/33 53/127/53
f 53/127/53 43/112/43 47/116/47
f 44/113/44 54/128/54 48/120/48
f 48/120/48 40/109/40 44/113/44
f 40/109/40 48/120/48 31/117/31
f 31/117/31 36/105/36 40/109/40
f 37/106/37 49/121/49 50/122/50
f 50/122/50 42/111/42 37/106/37
f 42/111/42 50/122/50 51/123/51
f 51/123/51 45/114/45 42/111/42
f 45/114/45 51/123/51 39/108/39
f 39/108/39 51/123/51 34/124/34
f 34/124/34 44/113/44 39/108/39
f 44/113/44 34/124/34 54/128/54
f 43/112/43 52/125/52 35/126/35
f 35/126/35 46/115/46 43/112/43
f 46/115/46 35/126/35 38/107/38
f 38/107/38 35/126/35 49/121/49
f 49/121/49 37/106/37 38/107/38
f 53/127/53 52/125/52 43/112/43
s 1
f 55/129/55 56/130/56 73/131/73
f 73/131/73 60/139/60 78/140/78
f 55/129/55 73/131/73 78/140/78
f 74/132/74 55/129/55 78/140/78
f 57/133/57 75/134/75 58/135/58
f 77/138/77 57/133/57 58/135/58
f 77/138/77 58/135/58 76/136/76
f 59/137/59 77/138/77 76/136/76
s 0
f 60/139/60 59/137/59 76/136/76
f 76/136/76 78/140/78 60/139/60
f 61/141/61 66/146/66 56/154/56
f 56/154/56 55/153/55 61/141/61
f 66/146/66 72/152/72 73/155/73
f 73/155/73 56/154/56 66/146/66
f 72/152/72 68/148/68 60/163/60
f 60/163/60 73/155/73 72/152/72
f 69/149/69 65/145/65 74/156/74
f 74/156/74 78/164/78 69/149/69
f 65/145/65 61/141/61 55/153/55
f 55/153/55 74/156/74 65/145/65
f 62/142/62 67/147/67 75/158/75
f 75/158/75 57/157/57 62/142/62
f 67/147/67 70/150/70 58/159/58
f 58/159/58 75/158/75 67/147/67
f 70/150/70 64/144/64 58/159/58
f 64/144/64 69/149/69 76/160/76
f 76/160/76 58/159/58 64/144/64
f 69/149/69 78/164/78 76/160/76
f 68/148/68 71/151/71 77/162/77
f 77/162/77 59/161/59 68/148/68
f 71/151/71 63/143/63 77/162/77
f 63/143/63 62/142/62 57/157/57
f 57/157/57 77/162/77 63/143/63
f 60/163/60 68/148/68 59/161/59
# 142 faces

g
