# 3ds Max Wavefront OBJ Exporter v0.97b - (c)2007 guruware
# 创建的文件:20.06.2019 11:50:49

mtllib DriverSeat.mtl

#
# object base
#

v  89.5902 99.8591 -83.0071
v  89.5902 8.2923 -76.8677
v  66.6407 8.3004 -83.2843
v  66.6366 99.4464 -90.3798
v  80.5045 99.8591 -78.0881
v  66.6333 99.4933 -82.9981
v  66.6407 14.5675 -76.8659
v  80.5057 14.5612 -75.4313
v  89.5977 8.2923 -12.9203
v  80.5041 8.2923 -12.9203
v  80.5042 8.2923 -63.5147
v  80.5060 99.8591 -67.2487
v  89.5977 99.8591 -67.2487
v  9.3755 8.2923 -75.4240
v  9.3734 42.7232 -53.8392
v  9.3734 99.8591 -67.2487
v  9.3755 99.8591 -81.5635
v  89.5977 37.9714 -27.9075
v  89.5977 33.6083 -19.2101
v  89.5977 14.5585 -13.6889
v  66.6407 14.5673 -71.9509
v  66.6409 14.5673 -13.6735
v  80.5057 14.5612 -13.6735
v  20.5009 99.8591 -67.2487
v  20.5023 99.8591 -78.1046
v  20.5009 42.7232 -53.8392
v  20.5156 14.5612 -75.4479
v  80.5057 33.6083 -19.2101
v  80.5057 37.9714 -27.9075
v  9.3734 8.2923 -12.9203
v  20.4384 8.2923 -12.9203
v  20.5170 14.5612 -13.6735
v  9.3734 14.5637 -13.6895
v  0.0000 0.0000 -85.6878
v  0.0000 0.0000 -100.0000
v  99.9985 0.0000 -100.0000
v  99.9985 0.0000 -85.6878
v  -0.0001 26.0640 -85.6878
v  99.9984 26.0640 -85.6878
v  99.9984 26.0640 -100.0000
v  -0.0001 26.0640 -100.0000
v  99.9985 0.0000 0.0007
v  99.9985 0.0000 -13.1543
v  99.9985 10.8359 -13.1129
v  99.9985 10.8576 -0.0007
v  0.0000 0.0000 -13.1543
v  -0.0000 10.8142 -81.6997
v  0.0000 10.8359 -13.1129
v  0.0000 10.8576 -0.0007
v  99.9985 10.8142 -81.6997
v  0.0000 0.0000 0.0007
v  92.7621 30.0261 -8.2489
v  91.1774 27.3149 -10.9328
v  91.1774 8.2808 -10.9328
v  92.7621 8.2808 -8.2489
v  97.5159 27.3149 -10.9328
v  95.9312 30.0261 -8.2489
v  95.7706 8.2808 -8.5432
v  97.2688 8.2808 -10.9328
v  95.9312 25.7678 -13.6167
v  95.9312 8.2808 -13.6167
v  92.7621 25.7678 -13.6167
v  92.7621 8.2808 -13.6167
v  91.1774 29.0954 -90.2871
v  91.1774 29.3802 -12.9154
v  92.7621 32.1078 -9.6969
v  92.7621 31.9434 -90.2870
v  95.9312 32.1078 -9.6969
v  95.9312 31.9434 -90.2870
v  97.5159 29.3802 -12.9154
v  97.5159 29.0954 -90.2871
v  95.9312 26.6527 -14.7648
v  95.9312 26.4393 -90.2856
v  92.7621 26.6527 -14.7648
v  92.7621 26.4393 -90.2856
v  91.1774 28.9973 -94.6213
v  92.7621 31.9174 -94.6171
v  95.9312 31.9174 -94.6171
v  97.5159 28.9973 -94.6213
v  95.9312 26.4110 -94.6363
v  92.7621 26.4110 -94.6363
v  80.5057 42.7232 -53.8392
v  89.5977 42.7232 -53.8392
v  80.5057 37.9714 -48.4921
v  89.5977 37.9714 -48.4921
v  9.3734 37.9714 -48.4921
v  20.5009 37.9714 -48.4921
v  9.3734 37.9714 -27.9075
v  20.5009 37.9714 -27.9075
v  9.3734 33.6083 -19.2101
v  20.5009 33.6083 -19.2101
v  66.6409 8.2923 -12.9203
v  20.4294 8.2923 -63.5147
v  34.1409 8.2923 -63.5147
v  34.1421 8.2923 -12.9203
v  34.1406 8.3004 -83.2843
v  34.1394 99.4464 -90.3798
v  34.1437 99.4933 -82.9981
v  34.1421 14.5675 -76.8670
v  34.1423 14.5673 -71.9630
v  34.1436 14.5673 -13.6735
v  66.6406 8.2923 -63.5147
v  3.2677 30.0261 -8.2480
v  1.6831 27.3149 -10.9319
v  1.6831 8.2808 -10.9319
v  3.2677 8.2808 -8.2480
v  6.4370 30.0261 -8.2480
v  6.4370 8.2808 -8.2480
v  8.0216 27.3149 -10.9319
v  8.0216 8.2808 -10.9319
v  6.4370 25.7678 -13.6158
v  6.4370 8.2808 -13.6158
v  3.2677 25.7678 -13.6158
v  3.2677 8.2808 -13.6158
v  1.6831 29.0954 -90.2863
v  1.6831 29.3802 -12.9146
v  3.2677 32.1078 -9.6960
v  3.2677 31.9434 -90.2862
v  6.4370 32.1078 -9.6960
v  6.4370 31.9434 -90.2862
v  8.0216 29.3802 -12.9146
v  8.0216 29.0954 -90.2863
v  6.4370 26.6527 -14.7640
v  6.4370 26.4393 -90.2847
v  3.2677 26.6527 -14.7640
v  3.2677 26.4393 -90.2847
v  1.6831 28.9973 -94.6205
v  3.2677 31.9174 -94.6162
v  6.4370 31.9174 -94.6162
v  8.0216 28.9973 -94.6205
v  6.4370 26.4110 -94.6355
v  3.2677 26.4110 -94.6355
v  1.4875 56.2423 -95.1641
v  5.0735 52.7631 -97.2032
v  5.0735 4.4522 -97.2032
v  1.4875 4.4522 -95.1641
v  1.4875 56.2423 -91.0860
v  1.4875 4.4522 -91.0860
v  5.0735 52.7631 -89.0470
v  5.0735 4.4522 -89.0470
v  8.2350 50.7775 -91.0860
v  8.2350 4.4522 -91.0860
v  8.2350 50.7775 -95.1641
v  8.2350 4.4522 -95.1641
v  92.6359 55.0480 -97.2032
v  8.1962 55.4135 -97.2032
v  4.4152 58.9137 -95.1641
v  95.3300 58.7029 -95.1641
v  4.4152 58.9137 -91.0860
v  95.3300 58.7029 -91.0860
v  8.1962 55.4135 -89.0470
v  92.6359 55.0480 -89.0470
v  10.3746 51.9132 -91.0860
v  89.4920 51.6393 -91.0860
v  10.3746 51.9132 -95.1641
v  89.4920 51.6393 -95.1641
v  94.8743 53.5586 -97.2032
v  97.8595 56.4607 -95.1641
v  97.8595 56.4607 -91.0860
v  94.8743 53.5586 -89.0470
v  90.5919 50.3872 -91.0860
v  90.5919 50.3872 -95.1641
v  94.8025 4.5279 -97.2032
v  97.8712 4.5279 -95.1641
v  97.8712 4.5279 -91.0860
v  94.8025 4.5279 -89.0470
v  90.6173 4.5279 -91.0860
v  90.6173 4.5279 -95.1641
# 168 vertices

vn 0.6406 0.5722 -0.5122
vn 0.6295 -0.6523 -0.4222
vn 0.0925 -0.7454 -0.6601
vn 0.1331 0.3965 -0.9083
vn 0.5062 0.5886 0.6303
vn -0.0859 0.7664 0.6366
vn 0.0859 0.7664 0.6366
vn 0.1040 -0.6620 0.7423
vn 0.1020 0.6472 -0.7555
vn -0.1020 0.6472 -0.7555
vn -0.5646 0.8253 -0.0128
vn 0.5774 -0.5774 0.5774
vn -0.5774 -0.5774 0.5774
vn -0.5774 -0.5774 -0.5774
vn 0.5774 -0.5774 -0.5774
vn -0.4863 0.6417 -0.5931
vn -0.4857 0.6420 0.5932
vn 0.5774 0.5774 0.5774
vn 0.5774 0.5774 -0.5774
vn -0.5774 0.5774 0.5774
vn -0.5774 0.5774 -0.5774
vn 0.3017 0.3529 -0.8857
vn 0.3017 0.3525 0.8859
vn -0.2967 0.3922 0.8707
vn -0.2968 0.3916 -0.8709
vn 0.5269 0.6157 0.5859
vn 0.5265 0.6159 -0.5860
vn -0.0003 -0.6634 0.7483
vn -0.7071 -0.7071 -0.0000
vn 0.7071 -0.7071 -0.0000
vn -0.5920 0.6379 0.4926
vn 0.5920 0.6379 0.4926
vn 0.8733 0.3856 0.2976
vn 0.8275 0.4979 -0.2596
vn -0.8733 0.3856 0.2976
vn -0.3619 0.5340 -0.7641
vn 0.3618 0.5338 -0.7643
vn -0.7063 0.7079 -0.0013
vn -0.8274 0.4980 -0.2596
vn -0.3618 0.5338 -0.7643
vn 0.0002 0.7914 0.6112
vn -0.4988 0.2741 0.8222
vn -0.9947 -0.0048 0.1024
vn -1.0000 0.0000 -0.0000
vn -0.4953 0.0000 0.8687
vn 1.0000 0.0000 -0.0000
vn 0.9947 -0.0048 0.1024
vn 0.4988 0.2741 0.8222
vn 0.4953 0.0000 0.8687
vn 0.5986 -0.3463 -0.7224
vn 0.4953 0.0000 -0.8687
vn -0.5986 -0.3463 -0.7224
vn -0.4953 0.0000 -0.8687
vn -0.9955 0.0951 0.0035
vn -0.9938 0.1106 -0.0105
vn -0.4962 0.7630 0.4143
vn -0.4892 0.7942 -0.3605
vn 0.4962 0.7630 0.4143
vn 0.4892 0.7942 -0.3605
vn 0.9938 0.1106 -0.0105
vn 0.9955 0.0951 0.0035
vn 0.5769 -0.7800 -0.2425
vn 0.6157 -0.7108 0.3401
vn -0.5768 -0.7801 -0.2425
vn -0.6157 -0.7107 0.3402
vn -0.9868 0.0267 -0.1599
vn -0.4783 0.3358 -0.8115
vn 0.4783 0.3358 -0.8115
vn 0.9868 0.0267 -0.1599
vn 0.5885 -0.2255 0.7764
vn -0.5885 -0.2255 0.7764
vn -0.0000 0.0001 1.0000
vn 0.0476 -0.0069 0.9988
vn 0.0005 1.0000 0.0000
vn -0.7818 0.3192 0.5356
vn 0.7819 0.3191 0.5355
vn 0.7538 0.1502 0.6397
vn -0.7537 0.1502 0.6399
vn -0.4245 0.4635 0.7778
vn 0.4475 0.4578 0.7682
vn 0.0000 0.2285 0.9735
vn -0.7965 0.5652 0.2149
vn 0.7965 0.5652 0.2148
vn -0.7965 0.5652 0.2148
vn 0.7963 0.5655 0.2149
vn -0.5693 0.8000 0.1894
vn 0.5548 0.8096 0.1917
vn -0.6587 0.7321 0.1733
vn 0.6585 0.7323 0.1733
vn 0.0000 0.8938 0.4484
vn -0.6273 0.4982 0.5986
vn 0.6266 0.4987 0.5988
vn -0.3096 0.1140 0.9440
vn 0.5752 0.0985 0.8120
vn 0.0009 0.1205 0.9927
vn -0.8847 0.1299 0.4477
vn 0.3218 0.5500 0.7706
vn 0.0000 0.5292 0.8485
vn 0.0000 -0.6636 0.7481
vn 0.0000 -0.6635 0.7481
vn 0.0000 -1.0000 -0.0000
vn -0.0000 -0.6636 0.7481
vn 0.0001 -1.0000 -0.0003
vn -0.6780 -0.7351 -0.0000
vn -0.6637 -0.3767 -0.6462
vn 1.0000 -0.0001 -0.0002
vn 1.0000 -0.0000 -0.0003
vn 0.5697 0.8218 0.0000
vn -1.0000 0.0000 0.0000
vn 0.7080 -0.7062 -0.0000
vn 0.7747 0.6323 -0.0002
vn 0.7062 0.7080 -0.0002
vn -0.7080 -0.7062 0.0000
vn -0.7747 0.6323 -0.0002
vn -0.7062 0.7080 -0.0002
vn -1.0000 -0.0000 0.0000
vn -0.1628 -0.0740 -0.9839
vn -0.6295 -0.6523 -0.4222
vn -0.6406 0.5722 -0.5122
vn -0.5062 0.5886 0.6303
vn 0.0054 0.8586 -0.5127
vn 0.0137 0.9997 -0.0184
vn -0.0000 0.7344 0.6788
vn 0.0994 0.4937 0.8639
vn 0.0000 -0.0776 -0.9970
vn -0.0000 0.0720 0.9974
vn 0.2259 0.0502 0.9729
vn -0.4955 -0.5028 0.7083
vn -0.0000 1.0000 0.0000
vn 0.0000 1.0000 -0.0000
vn -0.0002 1.0000 0.0000
vn -0.0002 0.7481 0.6636
vn -0.0005 1.0000 0.0000
vn -0.0002 -1.0000 -0.0003
vn 0.0000 -1.0000 -0.0004
vn -0.5066 0.2808 0.8152
vn -0.9939 -0.0152 0.1096
vn -0.4958 0.0000 0.8684
vn 0.5066 0.2808 0.8152
vn 0.4958 0.0000 0.8685
vn 0.9939 -0.0152 0.1096
vn 0.6039 -0.3279 -0.7265
vn 0.4958 0.0000 -0.8685
vn -0.6039 -0.3279 -0.7265
vn -0.4958 0.0000 -0.8684
vn -0.9999 -0.0111 0.0002
vn -0.9953 0.0968 -0.0006
vn -0.4924 0.7680 0.4095
vn -0.5056 0.8628 -0.0047
vn 0.4924 0.7680 0.4095
vn 0.5056 0.8628 -0.0047
vn 0.9953 0.0968 -0.0006
vn 0.9999 -0.0111 0.0002
vn 0.5738 -0.7778 -0.2564
vn 0.4939 -0.8695 0.0053
vn -0.5738 -0.7778 -0.2564
vn -0.4939 -0.8695 0.0053
vn -0.9996 -0.0290 0.0005
vn -0.5102 0.8600 -0.0075
vn 0.5102 0.8600 -0.0075
vn 0.9996 -0.0290 0.0005
vn 0.4896 -0.8719 0.0081
vn -0.4896 -0.8719 0.0081
vn -0.7883 0.3640 -0.4960
vn -0.1042 -0.0063 -0.9945
vn 0.0279 0.0000 -0.9996
vn -0.8644 0.0000 -0.5028
vn -0.7883 0.3640 0.4960
vn -0.8644 0.0000 0.5029
vn -0.1042 -0.0063 0.9945
vn 0.0279 0.0000 0.9996
vn 0.6946 -0.3779 0.6122
vn 0.8781 0.0000 0.4785
vn 0.6946 -0.3779 -0.6122
vn 0.8781 0.0000 -0.4785
vn -0.0028 0.1069 -0.9943
vn 0.0071 0.0828 -0.9965
vn -0.3259 0.8027 -0.4995
vn 0.3140 0.8169 -0.4839
vn -0.3259 0.8027 0.4995
vn 0.3140 0.8169 0.4839
vn 0.0071 0.0828 0.9965
vn -0.0028 0.1069 0.9943
vn 0.2023 -0.8108 0.5493
vn -0.2799 -0.7432 0.6077
vn 0.2023 -0.8108 -0.5493
vn -0.2799 -0.7433 -0.6076
vn 0.1770 0.0393 -0.9834
vn 0.7933 0.3800 -0.4756
vn 0.7933 0.3800 0.4756
vn 0.1770 0.0393 0.9834
vn -0.7336 -0.2738 0.6220
vn -0.7336 -0.2738 -0.6220
vn 0.0715 -0.0001 -0.9974
vn 0.8829 -0.0001 -0.4696
vn 0.8829 -0.0001 0.4697
vn 0.0715 -0.0001 0.9974
vn -0.8467 -0.0002 0.5321
vn -0.8467 -0.0002 -0.5321
# 199 vertex normals

vt 0.4683 0.4342 0.0000
vt 0.6886 0.4349 0.0000
vt 0.6883 0.4808 0.0000
vt 0.4683 0.4808 0.0000
vt 0.3983 0.4359 0.0000
vt 0.3983 0.4808 0.0000
vt 0.2517 0.4810 0.0000
vt 0.2517 0.4358 0.0000
vt 0.7971 0.2340 0.0000
vt 0.7971 0.2239 0.0000
vt 0.8631 0.2254 0.0000
vt 0.8748 0.2330 0.0000
vt 0.7442 0.7003 0.0000
vt 0.9933 0.7003 0.0000
vt 0.9933 0.6021 0.0000
vt 0.7442 0.6021 0.0000
vt 0.0044 0.1729 0.0000
vt 0.1172 0.2649 0.0000
vt 0.2876 0.2649 0.0000
vt 0.2876 0.1729 0.0000
vt 0.0963 0.3643 0.0000
vt 0.0766 0.3980 0.0000
vt 0.0044 0.4189 0.0000
vt 0.2239 0.4810 0.0000
vt 0.0487 0.4810 0.0000
vt 0.0487 0.4438 0.0000
vt 0.2239 0.4438 0.0000
vt 0.8936 0.3238 0.0000
vt 0.8936 0.1194 0.0000
vt 0.9776 0.0082 0.0000
vt 0.9776 0.3238 0.0000
vt 0.0716 0.0084 0.0000
vt 0.1664 0.0084 0.0000
vt 0.1664 0.1253 0.0000
vt 0.0716 0.1253 0.0000
vt 0.7257 0.0745 0.0000
vt 0.7678 0.0958 0.0000
vt 0.6992 0.0082 0.0000
vt -0.0011 0.1253 0.0000
vt -0.0011 0.0084 0.0000
vt 0.3201 0.3921 0.0000
vt 0.3201 0.4101 0.0000
vt 0.2272 0.4101 0.0000
vt 0.2272 0.3921 0.0000
vt 0.0060 0.9884 0.0000
vt 0.6861 0.9884 0.0000
vt 0.6861 0.8135 0.0000
vt 0.0060 0.8135 0.0000
vt 0.9904 0.4924 0.0000
vt 0.6982 0.4924 0.0000
vt 0.6982 0.4230 0.0000
vt 0.9904 0.4230 0.0000
vt 0.7164 0.2456 0.0000
vt 0.7871 0.2454 0.0000
vt 0.7867 0.1393 0.0000
vt 0.7161 0.1394 0.0000
vt 0.3191 0.1403 0.0000
vt 0.3847 0.1377 0.0000
vt 0.3846 0.2002 0.0000
vt 0.3295 0.2118 0.0000
vt 0.2272 0.3033 0.0000
vt 0.3201 0.3033 0.0000
vt 0.6976 0.1835 0.0000
vt 0.3846 0.2006 0.0000
vt 0.3847 0.1378 0.0000
vt 0.9904 0.9141 0.0000
vt 0.9904 0.9949 0.0000
vt 0.6985 0.9949 0.0000
vt 0.6985 0.9141 0.0000
vt 0.7204 0.3135 0.0000
vt 0.7204 0.2890 0.0000
vt 0.8042 0.2890 0.0000
vt 0.8042 0.3135 0.0000
vt 0.7204 0.3626 0.0000
vt 0.7204 0.3368 0.0000
vt 0.8042 0.3368 0.0000
vt 0.8042 0.3626 0.0000
vt 0.7204 0.3858 0.0000
vt 0.8042 0.3858 0.0000
vt 0.7204 0.4061 0.0000
vt 0.8042 0.4061 0.0000
vt 0.7204 0.2671 0.0000
vt 0.8042 0.2671 0.0000
vt 0.4915 0.2890 0.0000
vt 0.6841 0.2890 0.0000
vt 0.6841 0.3135 0.0000
vt 0.4915 0.3135 0.0000
vt 0.6841 0.3366 0.0000
vt 0.4915 0.3368 0.0000
vt 0.6841 0.3626 0.0000
vt 0.4915 0.3626 0.0000
vt 0.6841 0.3858 0.0000
vt 0.4915 0.3858 0.0000
vt 0.6841 0.4061 0.0000
vt 0.4915 0.4061 0.0000
vt 0.4915 0.2671 0.0000
vt 0.6841 0.2671 0.0000
vt 0.4612 0.2890 0.0000
vt 0.4612 0.3135 0.0000
vt 0.4612 0.3368 0.0000
vt 0.4612 0.3626 0.0000
vt 0.4612 0.3858 0.0000
vt 0.4612 0.4061 0.0000
vt 0.4612 0.2671 0.0000
vt 0.9904 0.7104 0.0000
vt 0.9904 0.8052 0.0000
vt 0.6985 0.8052 0.0000
vt 0.6985 0.7104 0.0000
vt 0.4152 0.1253 0.0000
vt 0.4152 0.0084 0.0000
vt 0.6787 0.0084 0.0000
vt 0.6787 0.1253 0.0000
vt 0.3653 0.1253 0.0000
vt 0.3653 0.0084 0.0000
vt 0.2315 0.1253 0.0000
vt 0.2315 0.0084 0.0000
vt -0.0014 0.4810 0.0000
vt -0.0014 0.4438 0.0000
vt 0.7971 0.1389 0.0000
vt 0.8631 0.1378 0.0000
vt 0.8631 0.1494 0.0000
vt 0.7971 0.1502 0.0000
vt 0.9863 0.1532 0.0000
vt 0.8730 0.1292 0.0000
vt 0.7971 0.1292 0.0000
vt 0.0963 0.2830 0.0000
vt 0.8675 0.0963 0.0000
vt 0.2272 0.2858 0.0000
vt 0.3201 0.2858 0.0000
vt 0.6985 0.8214 0.0000
vt 0.9904 0.8214 0.0000
vt 0.6883 0.7309 0.0000
vt 0.6885 0.7863 0.0000
vt 0.4686 0.7863 0.0000
vt 0.4683 0.7309 0.0000
vt 0.3983 0.7863 0.0000
vt 0.3983 0.7309 0.0000
vt 0.2517 0.7306 0.0000
vt 0.2517 0.7863 0.0000
vt 0.2239 0.7306 0.0000
vt 0.0487 0.7306 0.0000
vt 0.2239 0.7703 0.0000
vt 0.0487 0.7703 0.0000
vt -0.0014 0.7703 0.0000
vt -0.0014 0.7306 0.0000
vt 0.9863 0.2108 0.0000
vt 0.8631 0.2135 0.0000
vt 0.7971 0.2136 0.0000
vt 0.7204 0.4069 0.0000
vt 0.8042 0.4069 0.0000
vt 0.7204 0.2675 0.0000
vt 0.8042 0.2675 0.0000
vt 0.6841 0.4069 0.0000
vt 0.4915 0.4069 0.0000
vt 0.4915 0.2675 0.0000
vt 0.6841 0.2675 0.0000
vt 0.4612 0.4069 0.0000
vt 0.4612 0.2675 0.0000
vt 0.4612 0.3317 0.0000
vt 0.4612 0.3594 0.0000
vt 0.3488 0.3594 0.0000
vt 0.3488 0.3317 0.0000
vt 0.4612 0.3068 0.0000
vt 0.3488 0.3068 0.0000
vt 0.4612 0.2804 0.0000
vt 0.3488 0.2804 0.0000
vt 0.4612 0.2577 0.0000
vt 0.3488 0.2577 0.0000
vt 0.4612 0.3843 0.0000
vt 0.4612 0.4065 0.0000
vt 0.3488 0.4065 0.0000
vt 0.3488 0.3843 0.0000
vt 0.7263 0.3594 0.0000
vt 0.4972 0.3594 0.0000
vt 0.4972 0.3317 0.0000
vt 0.7263 0.3315 0.0000
vt 0.4972 0.3068 0.0000
vt 0.7263 0.3068 0.0000
vt 0.4972 0.2804 0.0000
vt 0.7263 0.2804 0.0000
vt 0.4972 0.2577 0.0000
vt 0.7263 0.2577 0.0000
vt 0.7263 0.4065 0.0000
vt 0.4972 0.4065 0.0000
vt 0.4972 0.3843 0.0000
vt 0.7263 0.3843 0.0000
vt 0.7694 0.3594 0.0000
vt 0.7694 0.3317 0.0000
vt 0.7694 0.3068 0.0000
vt 0.7694 0.2804 0.0000
vt 0.7694 0.2577 0.0000
vt 0.7694 0.4065 0.0000
vt 0.7694 0.3843 0.0000
vt 0.8691 0.3594 0.0000
vt 0.8691 0.3317 0.0000
vt 0.8691 0.3068 0.0000
vt 0.8691 0.2804 0.0000
vt 0.8691 0.2577 0.0000
vt 0.8691 0.4065 0.0000
vt 0.8691 0.3843 0.0000
# 200 texture coords

o base
g base
usemtl 07___Default
s 1
f 1/1/1 2/2/2 3/3/3 
f 3/3/3 4/4/4 1/1/1 
f 5/5/5 6/6/6 7/7/7 
f 7/7/7 8/8/8 5/5/5 
f 4/4/9 6/6/10 5/5/11 
f 5/5/11 1/1/1 4/4/9 
f 9/9/12 10/10/13 11/11/14 
f 11/11/14 2/12/15 9/9/12 
f 5/13/16 12/14/17 13/15/18 
f 13/15/18 1/16/19 5/13/16 
f 14/17/14 15/18/13 16/19/20 
f 16/19/20 17/20/21 14/17/14 
f 18/21/15 19/22/19 20/23/18 
f 20/23/18 9/23/12 18/21/15 
f 21/24/22 22/25/23 23/26/24 
f 23/26/24 8/27/25 21/24/22 
f 17/16/21 16/15/20 24/14/26 
f 24/14/26 25/13/27 17/16/21 
f 24/28/26 26/29/23 27/30/22 
f 27/30/22 25/31/27 24/28/26 
f 20/32/12 19/33/18 28/34/17 
f 28/34/17 23/35/24 20/32/12 
f 28/36/17 29/37/16 23/38/25 
f 30/39/20 31/40/28 32/32/23 
f 32/32/23 33/35/26 30/39/20 
f 34/41/29 35/42/14 36/43/15 
f 36/43/15 37/44/30 34/41/29 
f 38/45/31 39/46/32 40/47/19 
f 40/47/19 41/48/21 38/45/31 
f 41/49/21 40/50/19 36/51/15 
f 36/51/15 35/52/14 41/49/21 
f 38/53/31 41/54/21 35/55/14 
f 35/55/14 34/56/29 38/53/31 
f 42/57/30 43/58/30 44/59/33 
f 44/59/33 45/60/34 42/57/30 
f 43/61/30 46/62/29 34/41/29 
f 34/41/29 37/44/30 43/61/30 
f 34/56/29 47/63/35 38/53/31 
f 40/54/19 39/53/32 37/56/30 
f 37/56/30 36/55/15 40/54/19 
f 44/45/36 48/46/37 49/47/34 
f 49/47/34 45/48/38 44/45/36 
f 37/56/30 39/53/32 50/63/33 
f 48/64/39 46/65/35 51/57/29 
f 51/57/29 49/60/40 48/64/39 
f 50/66/41 39/67/33 38/68/32 
f 38/68/32 47/69/31 50/66/41 
f 52/70/42 53/71/43 54/72/44 
f 54/72/44 55/73/45 52/70/42 
f 56/74/46 57/75/47 58/76/48 
f 58/76/48 59/77/49 56/74/46 
f 60/78/50 56/74/47 59/77/46 
f 59/77/46 61/79/51 60/78/50 
f 62/80/52 60/78/50 61/79/51 
f 61/79/51 63/81/53 62/80/52 
f 53/71/43 62/82/52 63/83/53 
f 63/83/53 54/72/44 53/71/43 
f 64/84/54 65/85/55 66/86/56 
f 66/86/56 67/87/57 64/84/54 
f 67/87/57 66/86/56 68/88/58 
f 68/88/58 69/89/59 67/87/57 
f 69/89/59 68/88/58 70/90/60 
f 70/90/60 71/91/61 69/89/59 
f 71/91/61 70/90/60 72/92/62 
f 72/92/62 73/93/63 71/91/61 
f 73/93/63 72/92/62 74/94/64 
f 74/94/64 75/95/65 73/93/63 
f 75/96/65 74/97/64 65/85/55 
f 65/85/55 64/84/54 75/96/65 
f 76/98/66 64/84/54 67/87/57 
f 67/87/57 77/99/67 76/98/66 
f 77/99/67 67/87/57 69/89/59 
f 69/89/59 78/100/68 77/99/67 
f 78/100/68 69/89/59 71/91/61 
f 71/91/61 79/101/69 78/100/68 
f 79/101/69 71/91/61 73/93/63 
f 73/93/63 80/102/70 79/101/69 
f 80/102/70 73/93/63 75/95/65 
f 75/95/65 81/103/71 80/102/70 
f 81/104/71 75/96/65 64/84/54 
f 64/84/54 76/98/66 81/104/71 
f 65/85/55 53/71/43 52/70/42 
f 52/70/42 66/86/56 65/85/55 
f 66/86/56 52/70/42 57/75/48 
f 57/75/48 68/88/58 66/86/56 
f 68/88/58 57/75/48 56/74/47 
f 56/74/47 70/90/60 68/88/58 
f 70/90/60 56/74/47 60/78/50 
f 60/78/50 72/92/62 70/90/60 
f 72/92/62 60/78/50 62/80/52 
f 62/80/52 74/94/64 72/92/62 
f 74/97/64 62/82/52 53/71/43 
f 53/71/43 65/85/55 74/97/64 
s off
f 42/105/72 45/106/72 49/107/72 
f 49/107/72 51/108/72 42/105/72 
s 1
f 52/70/73 55/73/73 58/76/73 
f 58/76/73 57/75/73 52/70/73 
s off
f 7/7/74 21/24/74 8/27/74 
s 1
f 82/109/75 83/110/76 13/111/77 
f 13/111/77 12/112/78 82/109/75 
f 15/109/79 26/110/80 24/111/81 
f 24/111/81 16/112/81 15/109/79 
f 84/113/82 85/114/83 83/110/76 
f 83/110/76 82/109/75 84/113/82 
f 86/113/84 87/114/85 26/110/80 
f 26/110/80 15/109/79 86/113/84 
f 29/115/86 18/116/87 85/114/83 
f 85/114/83 84/113/82 29/115/86 
f 88/115/88 89/116/89 87/114/85 
f 87/114/85 86/113/84 88/115/88 
f 28/34/90 19/33/90 18/116/87 
f 18/116/87 29/115/86 28/34/90 
f 90/34/91 91/33/92 89/116/89 
f 89/116/89 88/115/88 90/34/91 
f 23/35/93 10/39/23 9/40/94 
f 9/40/94 20/32/95 23/35/93 
f 90/34/91 33/35/96 32/32/97 
f 32/32/97 91/33/92 90/34/91 
f 23/26/93 22/25/98 92/117/99 
f 92/117/99 10/118/100 23/26/93 
f 31/119/28 93/120/101 94/121/101 
f 94/121/101 95/122/102 31/119/28 
s off
f 96/123/103 94/121/103 93/120/103 
f 93/120/103 14/124/103 96/123/103 
s 1
f 30/125/104 14/124/105 93/120/101 
f 93/120/101 31/119/28 30/125/104 
f 14/17/105 86/126/84 15/18/79 
f 2/17/106 1/20/107 13/19/77 
f 13/19/77 83/18/76 2/17/106 
f 2/17/106 83/18/76 85/126/83 
f 30/23/104 88/21/88 86/126/84 
f 86/126/84 14/17/105 30/23/104 
f 9/23/94 2/17/106 85/126/83 
f 85/126/83 18/21/87 9/23/94 
f 88/21/88 30/23/104 33/23/96 
f 33/23/96 90/22/91 88/21/88 
f 26/29/80 87/127/85 27/30/108 
f 87/127/85 89/37/89 32/38/97 
f 32/38/97 27/30/108 87/127/85 
f 89/37/89 91/36/92 32/38/97 
f 84/127/82 82/29/75 8/30/109 
f 12/28/78 5/31/11 8/30/109 
f 8/30/109 82/29/75 12/28/78 
f 84/127/82 8/30/109 23/38/93 
f 23/38/93 29/37/86 84/127/82 
f 43/58/110 37/56/46 50/63/111 
f 50/63/111 44/59/112 43/58/110 
f 42/128/101 51/129/101 46/62/113 
f 46/62/113 43/61/110 42/128/101 
f 50/66/111 47/69/114 48/130/115 
f 48/130/115 44/131/112 50/66/111 
f 47/63/114 34/56/116 46/65/113 
f 46/65/113 48/64/115 47/63/114 
f 96/132/117 14/133/105 17/134/118 
f 17/134/118 97/135/119 96/132/117 
f 25/136/119 98/137/120 97/135/121 
f 97/135/121 17/134/122 25/136/119 
f 6/6/123 4/4/4 97/135/121 
f 97/135/121 98/137/124 6/6/123 
f 97/135/121 4/4/4 3/3/125 
f 3/3/125 96/132/117 97/135/121 
f 98/137/124 99/138/126 7/7/126 
f 7/7/126 6/6/123 98/137/124 
f 25/136/127 27/139/120 99/138/128 
f 99/138/128 98/137/124 25/136/127 
s off
f 99/138/129 100/140/129 21/24/129 
f 21/24/129 7/7/129 99/138/129 
s 1
f 21/24/130 100/140/131 101/141/132 
f 101/141/132 22/25/98 21/24/130 
s off
f 99/138/133 27/142/133 100/140/133 
s 1
f 27/142/108 32/143/97 101/141/132 
f 101/141/132 100/140/131 27/142/108 
f 101/141/132 32/143/97 31/144/28 
f 31/144/28 95/145/102 101/141/132 
f 101/141/132 95/145/102 92/117/99 
f 92/117/99 22/25/98 101/141/132 
s off
f 3/146/134 2/12/134 11/11/134 
f 11/11/134 102/147/134 3/146/134 
s 1
f 11/11/101 10/10/100 92/148/99 
f 92/148/99 102/147/101 11/11/101 
s off
f 3/146/135 102/147/135 94/121/135 
f 94/121/135 96/123/135 3/146/135 
s 1
f 102/147/101 92/148/99 95/122/102 
f 95/122/102 94/121/101 102/147/101 
f 103/75/136 104/70/137 105/73/44 
f 105/73/44 106/76/138 103/75/136 
f 107/74/139 103/75/136 106/76/138 
f 106/76/138 108/77/140 107/74/139 
f 109/78/141 107/74/139 108/77/140 
f 108/77/140 110/79/46 109/78/141 
f 111/149/142 109/78/141 110/79/46 
f 110/79/46 112/150/143 111/149/142 
f 113/71/144 111/151/142 112/152/143 
f 112/152/143 114/72/145 113/71/144 
f 104/70/137 113/71/144 114/72/145 
f 114/72/145 105/73/44 104/70/137 
f 115/87/146 116/86/147 117/88/148 
f 117/88/148 118/89/149 115/87/146 
f 118/89/149 117/88/148 119/90/150 
f 119/90/150 120/91/151 118/89/149 
f 120/91/151 119/90/150 121/92/152 
f 121/92/152 122/93/153 120/91/151 
f 122/93/153 121/92/152 123/153/154 
f 123/153/154 124/154/155 122/93/153 
f 124/155/155 123/156/154 125/85/156 
f 125/85/156 126/84/157 124/155/155 
f 126/84/157 125/85/156 116/86/147 
f 116/86/147 115/87/146 126/84/157 
f 127/99/158 115/87/146 118/89/149 
f 118/89/149 128/100/159 127/99/158 
f 128/100/159 118/89/149 120/91/151 
f 120/91/151 129/101/160 128/100/159 
f 129/101/160 120/91/151 122/93/153 
f 122/93/153 130/102/161 129/101/160 
f 130/102/161 122/93/153 124/154/155 
f 124/154/155 131/157/162 130/102/161 
f 131/158/162 124/155/155 126/84/157 
f 126/84/157 132/98/163 131/158/162 
f 132/98/163 126/84/157 115/87/146 
f 115/87/146 127/99/158 132/98/163 
f 116/86/147 104/70/137 103/75/136 
f 103/75/136 117/88/148 116/86/147 
f 117/88/148 103/75/136 107/74/139 
f 107/74/139 119/90/150 117/88/148 
f 119/90/150 107/74/139 109/78/141 
f 109/78/141 121/92/152 119/90/150 
f 121/92/152 109/78/141 111/149/142 
f 111/149/142 123/153/154 121/92/152 
f 123/156/154 111/151/142 113/71/144 
f 113/71/144 125/85/156 123/156/154 
f 125/85/156 113/71/144 104/70/137 
f 104/70/137 116/86/147 125/85/156 
f 133/159/164 134/160/165 135/161/166 
f 135/161/166 136/162/167 133/159/164 
f 137/163/168 133/159/164 136/162/167 
f 136/162/167 138/164/169 137/163/168 
f 139/165/170 137/163/168 138/164/169 
f 138/164/169 140/166/171 139/165/170 
f 141/167/172 139/165/170 140/166/171 
f 140/166/171 142/168/173 141/167/172 
f 143/169/174 141/170/172 142/171/173 
f 142/171/173 144/172/175 143/169/174 
f 134/160/165 143/169/174 144/172/175 
f 144/172/175 135/161/166 134/160/165 
f 145/173/176 146/174/177 147/175/178 
f 147/175/178 148/176/179 145/173/176 
f 148/176/179 147/175/178 149/177/180 
f 149/177/180 150/178/181 148/176/179 
f 150/178/181 149/177/180 151/179/182 
f 151/179/182 152/180/183 150/178/181 
f 152/180/183 151/179/182 153/181/184 
f 153/181/184 154/182/185 152/180/183 
f 154/183/185 153/184/184 155/185/186 
f 155/185/186 156/186/187 154/183/185 
f 156/186/187 155/185/186 146/174/177 
f 146/174/177 145/173/176 156/186/187 
f 157/187/188 145/173/176 148/176/179 
f 148/176/179 158/188/189 157/187/188 
f 158/188/189 148/176/179 150/178/181 
f 150/178/181 159/189/190 158/188/189 
f 159/189/190 150/178/181 152/180/183 
f 152/180/183 160/190/191 159/189/190 
f 160/190/191 152/180/183 154/182/185 
f 154/182/185 161/191/192 160/190/191 
f 161/192/192 154/183/185 156/186/187 
f 156/186/187 162/193/193 161/192/192 
f 162/193/193 156/186/187 145/173/176 
f 145/173/176 157/187/188 162/193/193 
f 146/174/177 134/160/165 133/159/164 
f 133/159/164 147/175/178 146/174/177 
f 147/175/178 133/159/164 137/163/168 
f 137/163/168 149/177/180 147/175/178 
f 149/177/180 137/163/168 139/165/170 
f 139/165/170 151/179/182 149/177/180 
f 151/179/182 139/165/170 141/167/172 
f 141/167/172 153/181/184 151/179/182 
f 153/184/184 141/170/172 143/169/174 
f 143/169/174 155/185/186 153/184/184 
f 155/185/186 143/169/174 134/160/165 
f 134/160/165 146/174/177 155/185/186 
f 163/194/194 157/187/188 158/188/189 
f 158/188/189 164/195/195 163/194/194 
f 164/195/195 158/188/189 159/189/190 
f 159/189/190 165/196/196 164/195/195 
f 165/196/196 159/189/190 160/190/191 
f 160/190/191 166/197/197 165/196/196 
f 166/197/197 160/190/191 161/191/192 
f 161/191/192 167/198/198 166/197/197 
f 167/199/198 161/192/192 162/193/193 
f 162/193/193 168/200/199 167/199/198 
f 168/200/199 162/193/193 157/187/188 
f 157/187/188 163/194/194 168/200/199 
# 292 faces

