# 3ds Max Wavefront OBJ Exporter v0.97b - (c)2007 guruware
# File Created: 04.03.2021 10:44:11

mtllib dunhuang_painting2.mtl

#
# object base1
#

v  87.2090 89.1212 -88.4389
v  87.8990 89.7346 -87.5874
v  0.0011 89.7269 -87.5874
v  0.0011 89.1212 -88.4389
v  0.0011 0.0000 -100.0000
v  0.0011 100.0000 -100.0000
v  100.0000 100.0000 -100.0000
v  100.0000 0.0000 -100.0000
v  100.0000 0.0000 -87.5717
v  0.0011 0.0000 -87.5717
v  100.0000 100.0000 -87.5717
v  0.0011 100.0000 -87.5717
v  0.0011 9.8772 -87.5875
v  87.9089 9.9280 -87.5875
v  87.2090 10.8383 -88.4389
v  0.0011 10.8383 -88.4389
v  91.2086 92.5422 -87.5831
v  0.0011 92.6475 -87.5830
v  91.1643 7.2550 -87.5832
v  0.0011 7.1042 -87.5830
# 20 vertices

vn 0.0001 -0.8114 0.5845
vn 0.0000 -0.8149 0.5797
vn -0.0000 -0.8149 0.5796
vn 0.0000 0.0000 -1.0000
vn 0.0000 -1.0000 -0.0000
vn 1.0000 0.0000 -0.0000
vn 0.0000 1.0000 -0.0000
vn -0.0000 0.6633 0.7484
vn -0.0004 0.6830 0.7305
vn -0.0004 0.6828 0.7306
vn 0.0000 0.6631 0.7485
vn -0.0000 -0.0000 1.0000
vn -0.7726 -0.0001 0.6349
vn -0.7768 -0.0000 0.6297
vn -0.7769 -0.0000 0.6296
vn -0.0006 -0.0008 1.0000
vn 0.0000 -0.0015 1.0000
vn -0.0006 0.0008 1.0000
vn -0.0007 0.0008 1.0000
vn -0.0000 0.0016 1.0000
vn -0.0007 -0.0007 1.0000
vn -0.0007 0.0007 1.0000
# 22 vertex normals

vt 0.1068 0.8109 0.0000
vt 0.1068 0.7809 0.0000
vt 0.0107 0.7809 0.0000
vt 0.0107 0.8109 0.0000
vt 0.3184 0.7481 0.0000
vt 0.3184 0.7575 0.0000
vt 0.3276 0.7575 0.0000
vt 0.3276 0.7481 0.0000
vt 0.8153 0.7678 0.0000
vt 0.3869 0.7678 0.0000
vt 0.3869 0.7453 0.0000
vt 0.8153 0.7453 0.0000
vt 0.0094 0.7393 0.0000
vt 0.0094 0.7697 0.0000
vt 0.3635 0.7697 0.0000
vt 0.3635 0.7393 0.0000
vt 0.9702 0.8085 0.0000
vt 0.4198 0.8085 0.0000
vt 0.4198 0.7791 0.0000
vt 0.9702 0.7791 0.0000
vt 0.3938 0.7809 0.0000
vt 0.3301 0.7809 0.0000
vt 0.3301 0.8109 0.0000
vt 0.3938 0.8109 0.0000
vt 0.5903 0.6362 0.0000
vt 0.5903 0.0178 0.0000
vt 0.9841 0.0178 0.0000
vt 0.9841 0.6362 0.0000
vt 0.9342 0.7143 0.0000
vt 0.9491 0.7270 0.0000
vt 0.2028 0.7275 0.0000
vt 0.2028 0.7143 0.0000
vt 0.7795 0.7154 0.0000
vt 0.7950 0.7272 0.0000
vt 0.0512 0.7274 0.0000
vt 0.0682 0.7154 0.0000
vt 0.9323 0.7143 0.0000
vt 0.2028 0.7273 0.0000
vt 0.9473 0.7268 0.0000
vt 0.9309 0.8193 0.0000
vt 1.0013 0.9040 0.0000
vt 0.2028 0.9040 0.0000
vt 0.2028 0.8193 0.0000
vt 0.9300 0.9187 0.0000
vt 0.0455 0.9187 0.0000
vt 0.1198 0.9929 0.0000
vt 0.8636 0.9929 0.0000
# 47 texture coords

g base1
usemtl Material__27
s 4
f 1/1/1 2/2/1 3/3/2 
f 3/3/2 4/4/3 1/1/1 
s 2
f 5/5/4 6/6/4 7/7/4 
f 7/7/4 8/8/4 5/5/4 
s 4
f 5/9/5 8/10/5 9/11/5 
f 9/11/5 10/12/5 5/9/5 
s 1
f 7/13/6 11/14/6 9/15/6 
f 9/15/6 8/16/6 7/13/6 
s 4
f 12/17/7 11/18/7 7/19/7 
f 7/19/7 6/20/7 12/17/7 
f 13/21/8 14/22/9 15/23/10 
f 15/23/10 16/24/11 13/21/8 
s 2
f 4/25/12 16/26/12 15/27/12 
f 15/27/12 1/28/12 4/25/12 
s 1
f 15/23/13 14/22/13 2/2/14 
f 2/2/14 1/1/15 15/23/13 
s 2
f 2/29/16 17/30/16 18/31/17 
f 18/31/17 3/32/17 2/29/16 
f 14/33/18 19/34/19 17/35/16 
f 17/35/16 2/36/16 14/33/18 
f 14/37/18 13/32/20 20/38/20 
f 20/38/20 19/39/19 14/37/18 
f 17/40/16 11/41/21 12/42/17 
f 12/42/17 18/43/17 17/40/16 
f 9/44/22 11/45/21 17/46/16 
f 17/46/16 19/47/19 9/44/22 
f 10/42/20 9/41/22 19/40/19 
f 19/40/19 20/43/20 10/42/20 
# 28 faces

#
# object base
#

v  12.7932 89.1212 -88.4389
v  99.9989 89.1212 -88.4389
v  99.9989 89.7269 -87.5874
v  12.1031 89.7346 -87.5874
v  99.9989 0.0000 -100.0000
v  0.0000 0.0000 -100.0000
v  0.0000 100.0000 -100.0000
v  99.9989 100.0000 -100.0000
v  99.9989 0.0000 -87.5717
v  0.0000 0.0000 -87.5717
v  0.0000 100.0000 -87.5717
v  99.9989 100.0000 -87.5717
v  99.9989 9.8772 -87.5875
v  99.9989 10.8383 -88.4389
v  12.7932 10.8383 -88.4389
v  12.0933 9.9280 -87.5875
v  99.9989 92.6475 -87.5830
v  8.7935 92.5422 -87.5831
v  8.8379 7.2550 -87.5832
v  99.9989 7.1042 -87.5830
# 20 vertices

vn -0.0001 -0.8114 0.5845
vn 0.0000 -0.8149 0.5796
vn -0.0000 -0.8149 0.5797
vn -0.0000 0.0000 -1.0000
vn 0.0000 0.0000 -1.0000
vn 0.0000 -1.0000 -0.0000
vn -1.0000 0.0000 -0.0000
vn 0.0000 1.0000 -0.0000
vn 0.0000 0.6633 0.7484
vn 0.0000 0.6631 0.7485
vn 0.0004 0.6828 0.7306
vn 0.0004 0.6830 0.7305
vn 0.0000 -0.0000 1.0000
vn 0.7726 -0.0001 0.6349
vn 0.7769 -0.0000 0.6296
vn 0.7768 -0.0000 0.6297
vn -0.0000 -0.0015 1.0000
vn 0.0006 -0.0008 1.0000
vn 0.0006 0.0008 1.0000
vn 0.0000 0.0016 1.0000
vn 0.0007 -0.0007 1.0000
vn 0.0007 0.0007 1.0000
# 22 vertex normals

vt 0.1068 0.8109 0.0000
vt 0.0107 0.8109 0.0000
vt 0.0107 0.7809 0.0000
vt 0.1068 0.7809 0.0000
vt 0.3184 0.7481 0.0000
vt 0.3276 0.7481 0.0000
vt 0.3276 0.7575 0.0000
vt 0.3184 0.7575 0.0000
vt 0.8153 0.7678 0.0000
vt 0.8153 0.7453 0.0000
vt 0.3869 0.7453 0.0000
vt 0.3869 0.7678 0.0000
vt 0.0094 0.7393 0.0000
vt 0.3635 0.7393 0.0000
vt 0.3635 0.7697 0.0000
vt 0.0094 0.7697 0.0000
vt 0.9702 0.8085 0.0000
vt 0.9702 0.7791 0.0000
vt 0.4198 0.7791 0.0000
vt 0.4198 0.8085 0.0000
vt 0.3938 0.7809 0.0000
vt 0.3938 0.8109 0.0000
vt 0.3301 0.8109 0.0000
vt 0.3301 0.7809 0.0000
vt 0.5903 0.6362 0.0000
vt 0.0093 0.6362 0.0000
vt 0.0093 0.0178 0.0000
vt 0.5903 0.0178 0.0000
vt 0.2028 0.7275 0.0000
vt 0.9488 0.7270 0.0000
vt 0.9342 0.7143 0.0000
vt 0.2028 0.7143 0.0000
vt 0.0510 0.7274 0.0000
vt 0.7948 0.7272 0.0000
vt 0.7795 0.7154 0.0000
vt 0.0682 0.7154 0.0000
vt 0.9323 0.7143 0.0000
vt 0.9476 0.7268 0.0000
vt 0.2028 0.7273 0.0000
vt 0.2028 0.9040 0.0000
vt 1.0013 0.9040 0.0000
vt 0.9309 0.8193 0.0000
vt 0.2028 0.8193 0.0000
vt 0.0455 0.9187 0.0000
vt 0.9300 0.9187 0.0000
vt 0.8634 0.9929 0.0000
vt 0.1196 0.9929 0.0000
# 47 texture coords

g base
usemtl Material__27
s 4
f 21/48/23 22/49/24 23/50/25 
f 23/50/25 24/51/23 21/48/23 
s 2
f 25/52/26 26/53/27 27/54/26 
f 27/54/26 28/55/26 25/52/26 
s 4
f 25/56/28 29/57/28 30/58/28 
f 30/58/28 26/59/28 25/56/28 
s 1
f 27/60/29 26/61/29 30/62/29 
f 30/62/29 31/63/29 27/60/29 
s 4
f 32/64/30 28/65/30 27/66/30 
f 27/66/30 31/67/30 32/64/30 
f 33/68/31 34/69/32 35/70/33 
f 35/70/33 36/71/34 33/68/31 
s 2
f 22/72/35 21/73/35 35/74/35 
f 35/74/35 34/75/35 22/72/35 
s 1
f 35/70/36 21/48/37 24/51/38 
f 24/51/38 36/71/36 35/70/36 
s 2
f 37/76/39 38/77/40 24/78/40 
f 24/78/40 23/79/39 37/76/39 
f 38/80/40 39/81/41 36/82/41 
f 36/82/41 24/83/40 38/80/40 
f 36/84/41 39/85/41 40/86/42 
f 40/86/42 33/79/42 36/84/41 
f 32/87/39 31/88/43 38/89/40 
f 38/89/40 37/90/39 32/87/39 
f 31/91/43 30/92/44 39/93/41 
f 39/93/41 38/94/40 31/91/43 
f 39/89/41 30/88/44 29/87/42 
f 29/87/42 40/90/42 39/89/41 
# 28 faces

