# 3ds Max Wavefront OBJ Exporter v0.97b - (c)2007 guruware
# File Created: 26.01.2021 20:08:55

mtllib european_desk.mtl

#
# object base2
#

v  91.5198 88.3862 -50.0000
v  91.5198 88.3862 -12.6586
v  91.5198 61.2879 -12.6586
v  91.5198 61.2879 -50.0000
v  73.6088 88.3862 -7.3359
v  55.6979 88.3861 -7.2494
v  55.6979 61.2520 -7.2494
v  73.6088 61.2520 -7.3359
v  37.7869 20.3043 -12.4310
v  55.6979 20.3043 -7.2494
v  37.7869 61.2879 -12.4310
v  73.6088 20.3043 -7.3359
v  91.5198 20.3043 -50.0000
v  91.5198 20.3043 -12.6586
v  37.7869 61.2879 -50.0000
v  37.7869 20.3043 -50.0000
v  37.7869 88.3861 -12.4310
v  18.8603 88.3861 -7.1629
v  18.8603 61.2879 -7.1629
v  0.0000 88.3861 -5.0760
v  0.0000 61.2879 -5.0760
v  0.0000 61.2879 -50.0000
v  91.5198 61.2879 -87.3414
v  91.5198 88.3862 -87.3414
v  73.6088 88.3862 -92.6641
v  73.6088 61.2520 -92.6641
v  55.6979 61.2520 -92.7506
v  55.6979 88.3861 -92.7506
v  37.7869 20.3043 -87.5690
v  37.7869 61.2879 -87.5690
v  55.6979 20.3043 -92.7506
v  73.6088 20.3043 -92.6641
v  91.5198 20.3043 -87.3414
v  37.7869 88.3861 -87.5690
v  18.8603 61.2879 -92.8371
v  18.8603 88.3861 -92.8371
v  0.0000 61.2879 -94.9240
v  0.0000 88.3861 -94.9240
v  0.0000 87.6596 -0.0000
v  87.3084 87.6596 -0.0000
v  87.3084 100.0000 -0.0000
v  0.0000 100.0000 -0.0000
v  96.8271 87.6596 -3.1729
v  96.8271 100.0000 -3.1729
v  100.0000 87.6596 -12.6916
v  100.0000 100.0000 -12.6916
v  87.3084 100.0000 -100.0000
v  0.0000 100.0000 -100.0000
v  87.3084 87.6596 -12.6586
v  0.0000 87.6596 -12.6586
v  100.0000 87.6596 -87.3084
v  100.0000 100.0000 -87.3084
v  96.8271 100.0000 -96.8271
v  96.8271 87.6596 -96.8271
v  87.3084 87.6596 -100.0000
v  87.3084 87.6596 -87.3414
v  0.0000 87.6596 -87.3414
v  0.0000 87.6596 -100.0000
v  82.8369 14.0693 -24.3020
v  86.5902 15.4665 -29.7563
v  84.5378 25.7472 -29.7563
v  80.6630 24.9166 -24.3020
v  76.7640 11.8086 -26.3854
v  74.3935 23.5726 -26.3854
v  76.7640 11.8086 -33.1273
v  74.3935 23.5726 -33.1273
v  82.8369 14.0693 -35.2107
v  80.6630 24.9166 -35.2107
v  87.5943 5.7121 -24.3020
v  90.7057 8.2800 -29.7563
v  82.6699 1.8769 -26.3854
v  82.6699 1.8769 -33.1273
v  87.5943 5.7121 -35.2107
v  91.8212 3.0528 -25.0394
v  93.2459 5.4833 -29.7563
v  89.8281 -0.6088 -26.8411
v  89.8281 -0.6088 -32.6716
v  91.8212 3.0528 -34.4733
v  93.9805 2.2065 -29.7563
v  82.8369 14.0693 -75.6980
v  80.6630 24.9166 -75.6980
v  84.5378 25.7472 -70.2437
v  86.5902 15.4665 -70.2437
v  76.7640 11.8086 -73.6146
v  74.3935 23.5726 -73.6146
v  76.7640 11.8086 -66.8727
v  74.3935 23.5726 -66.8727
v  82.8369 14.0693 -64.7893
v  80.6630 24.9166 -64.7893
v  87.5943 5.7121 -75.6980
v  90.7057 8.2800 -70.2437
v  82.6699 1.8769 -73.6146
v  82.6699 1.8769 -66.8727
v  87.5943 5.7121 -64.7893
v  93.2459 5.4833 -70.2437
v  91.8212 3.0528 -74.9606
v  89.8281 -0.6088 -73.1589
v  89.8281 -0.6088 -67.3284
v  91.8212 3.0528 -65.5267
v  93.9805 2.2065 -70.2437
# 100 vertices

vn 1.0000 0.0000 -0.0000
vn 0.1463 0.0000 0.9892
vn -0.1379 0.0000 0.9904
vn 0.2849 0.0000 0.9586
vn -0.2779 0.0000 0.9606
vn -0.0992 0.0000 0.9951
vn 0.0000 -1.0000 0.0000
vn -1.0000 0.0000 -0.0000
vn -0.0051 0.0000 1.0000
vn 0.1897 0.0000 0.9818
vn -0.0000 -1.0000 -0.0000
vn -0.0000 -1.0000 0.0000
vn 0.1100 0.0000 0.9939
vn 0.0000 -1.0000 -0.0000
vn 0.1463 0.0000 -0.9892
vn -0.1379 0.0000 -0.9904
vn 0.2849 0.0000 -0.9586
vn -0.2779 0.0000 -0.9606
vn -0.0992 0.0000 -0.9951
vn -0.0051 0.0000 -1.0000
vn 0.1897 0.0000 -0.9818
vn 0.1100 0.0000 -0.9939
vn 0.0000 0.0000 1.0000
vn 0.1602 0.0000 0.9871
vn 0.3162 0.0000 0.9487
vn 0.9487 0.0000 0.3162
vn 0.9871 0.0000 0.1602
vn 0.0000 1.0000 -0.0000
vn 0.9871 0.0000 -0.1602
vn 0.1602 0.0000 -0.9871
vn 0.3162 0.0000 -0.9487
vn 0.9487 0.0000 -0.3162
vn 0.0000 0.0000 -1.0000
vn 0.2362 0.0865 0.9679
vn 0.9365 0.3508 0.0002
vn 0.9806 0.1960 -0.0002
vn 0.3074 0.0615 0.9496
vn -0.7727 -0.2974 0.5608
vn -0.7915 -0.1595 0.5900
vn -0.7734 -0.2967 -0.5602
vn -0.7916 -0.1594 -0.5899
vn 0.2362 0.0884 -0.9677
vn 0.3076 0.0614 -0.9495
vn 0.2053 0.0801 0.9754
vn 0.7988 0.6014 -0.0161
vn -0.5322 -0.6568 0.5342
vn -0.5311 -0.6580 -0.5339
vn 0.2218 0.0757 -0.9722
vn 0.5648 -0.0592 0.8231
vn 0.8585 0.5122 -0.0239
vn 0.1490 -0.8712 0.4677
vn 0.1481 -0.8703 -0.4697
vn 0.5640 -0.0338 -0.8251
vn 0.9529 -0.3034 -0.0000
vn 0.2362 0.0865 -0.9679
vn 0.3074 0.0615 -0.9496
vn 0.9806 0.1960 0.0002
vn 0.9365 0.3508 -0.0002
vn -0.7727 -0.2974 -0.5608
vn -0.7915 -0.1595 -0.5900
vn -0.7734 -0.2967 0.5602
vn -0.7916 -0.1594 0.5899
vn 0.2362 0.0884 0.9677
vn 0.3076 0.0614 0.9495
vn 0.2053 0.0801 -0.9754
vn 0.7988 0.6014 0.0161
vn -0.5322 -0.6568 -0.5342
vn -0.5311 -0.6580 0.5339
vn 0.2218 0.0757 0.9722
vn 0.8585 0.5122 0.0239
vn 0.5648 -0.0592 -0.8231
vn 0.1490 -0.8712 -0.4677
vn 0.1481 -0.8703 0.4697
vn 0.5640 -0.0338 0.8251
vn 0.9529 -0.3034 0.0000
# 75 vertex normals

vt 0.0154 0.0137 0.0000
vt 0.0154 0.2927 0.0000
vt 0.2497 0.2927 0.0000
vt 0.2497 0.0137 0.0000
vt 0.0154 0.4267 0.0000
vt 0.0154 0.5605 0.0000
vt 0.2497 0.5605 0.0000
vt 0.2497 0.4267 0.0000
vt 0.5472 0.6941 0.0000
vt 0.5472 0.5605 0.0000
vt 0.2497 0.6941 0.0000
vt 0.5832 0.0910 0.0000
vt 0.7972 0.0125 0.0000
vt 0.5832 0.0125 0.0000
vt 0.5472 0.4267 0.0000
vt 0.5832 0.2437 0.0000
vt 0.5832 0.3956 0.0000
vt 0.7972 0.3956 0.0000
vt 0.7972 0.2437 0.0000
vt 0.5472 0.2927 0.0000
vt 0.0154 0.6941 0.0000
vt 0.0154 0.8342 0.0000
vt 0.2497 0.8342 0.0000
vt 0.5832 0.4765 0.0000
vt 0.0154 0.9885 0.0000
vt 0.2497 0.9885 0.0000
vt 0.5832 0.1652 0.0000
vt 0.5472 0.0137 0.0000
vt 0.7972 0.5527 0.0000
vt 0.5832 0.5527 0.0000
vt 0.9920 0.0105 0.0000
vt 0.9920 0.2482 0.0000
vt 0.9240 0.2482 0.0000
vt 0.9240 0.0105 0.0000
vt 0.9920 0.2848 0.0000
vt 0.9240 0.2848 0.0000
vt 0.9920 0.3170 0.0000
vt 0.9240 0.3170 0.0000
vt 0.9940 0.6221 0.0000
vt 0.5643 0.6221 0.0000
vt 0.5643 0.9934 0.0000
vt 0.9940 0.9934 0.0000
vt 0.8366 0.2480 0.0000
vt 0.8161 0.2733 0.0000
vt 0.9057 0.2733 0.0000
vt 0.9057 0.2387 0.0000
vt 0.9057 0.5540 0.0000
vt 0.8161 0.5540 0.0000
vt 0.9920 0.5559 0.0000
vt 0.9240 0.5559 0.0000
vt 0.8156 0.2733 0.0000
vt 0.8156 0.5540 0.0000
vt 0.8220 0.2230 0.0000
vt 0.9091 0.2230 0.0000
vt 0.9091 0.0128 0.0000
vt 0.8220 0.0128 0.0000
vt 0.6188 0.5681 0.0000
vt 0.5779 0.5816 0.0000
vt 0.9803 0.5816 0.0000
vt 0.9394 0.5681 0.0000
vt 0.4464 0.9441 0.0000
vt 0.4464 0.8854 0.0000
vt 0.5471 0.8846 0.0000
vt 0.5471 0.9411 0.0000
vt 0.4464 0.9889 0.0000
vt 0.5471 0.9889 0.0000
vt 0.4464 0.7688 0.0000
vt 0.4464 0.7153 0.0000
vt 0.5471 0.7153 0.0000
vt 0.5471 0.7678 0.0000
vt 0.4464 0.8262 0.0000
vt 0.5471 0.8271 0.0000
vt 0.3710 0.9299 0.0000
vt 0.3856 0.8830 0.0000
vt 0.3242 0.9889 0.0000
vt 0.3579 0.7918 0.0000
vt 0.3242 0.7153 0.0000
vt 0.3800 0.8361 0.0000
vt 0.3476 0.9002 0.0000
vt 0.3549 0.8768 0.0000
vt 0.3242 0.9297 0.0000
vt 0.3411 0.8311 0.0000
vt 0.3242 0.7929 0.0000
vt 0.3521 0.8533 0.0000
vt 0.3242 0.8705 0.0000
# 85 texture coords

g base2
usemtl Material__64
s 1
f 1/1/1 2/2/1 3/3/1 
f 3/3/1 4/4/1 1/1/1 
s 4
f 5/5/2 6/6/3 7/7/3 
f 7/7/3 8/8/2 5/5/2 
f 5/5/2 8/8/2 3/3/4 
f 3/3/4 2/2/4 5/5/2 
f 9/9/5 10/10/3 7/7/3 
f 7/7/3 11/11/6 9/9/5 
s 2
f 12/12/7 13/13/7 14/14/7 
s 4
f 12/15/2 8/8/2 7/7/3 
f 7/7/3 10/10/3 12/15/2 
s 1
f 9/16/8 11/17/8 15/18/8 
f 15/18/8 16/19/8 9/16/8 
s 4
f 14/20/4 3/3/4 8/8/2 
f 8/8/2 12/15/2 14/20/4 
f 11/11/6 7/7/3 6/6/3 
f 6/6/3 17/21/9 11/11/6 
f 11/11/6 17/21/9 18/22/10 
f 18/22/10 19/23/10 11/11/6 
s 2
f 11/17/11 19/24/12 15/18/12 
s 4
f 18/22/10 20/25/13 21/26/13 
f 21/26/13 19/23/10 18/22/10 
s 2
f 13/13/7 12/12/7 10/27/7 
f 10/27/7 16/19/7 13/13/7 
f 16/19/7 10/27/7 9/16/14 
s 1
f 14/20/1 13/28/1 4/4/1 
f 4/4/1 3/3/1 14/20/1 
s 2
f 22/29/12 19/24/12 21/30/14 
s 1
f 1/1/1 4/4/1 23/3/1 
f 23/3/1 24/2/1 1/1/1 
s 4
f 25/5/15 26/8/15 27/7/16 
f 27/7/16 28/6/16 25/5/15 
f 25/5/15 24/2/17 23/3/17 
f 23/3/17 26/8/15 25/5/15 
f 29/9/18 30/11/19 27/7/16 
f 27/7/16 31/10/16 29/9/18 
f 32/15/15 31/10/16 27/7/16 
f 27/7/16 26/8/15 32/15/15 
s 1
f 29/16/8 16/19/8 15/18/8 
f 15/18/8 30/17/8 29/16/8 
s 4
f 33/20/17 32/15/15 26/8/15 
f 26/8/15 23/3/17 33/20/17 
f 30/11/19 34/21/20 28/6/16 
f 28/6/16 27/7/16 30/11/19 
f 30/11/19 35/23/21 36/22/21 
f 36/22/21 34/21/20 30/11/19 
s 2
f 30/17/11 15/18/12 35/24/11 
s 4
f 35/23/21 37/26/22 38/25/22 
f 38/25/22 36/22/21 35/23/21 
s 2
f 31/27/14 32/12/14 13/13/7 
f 13/13/7 16/19/7 31/27/14 
s 1
f 33/20/1 23/3/1 4/4/1 
f 4/4/1 13/28/1 33/20/1 
s 4
f 39/31/23 40/32/24 41/33/24 
f 41/33/24 42/34/23 39/31/23 
f 41/33/24 40/32/24 43/35/25 
f 43/35/25 44/36/25 41/33/24 
s 1
f 44/36/26 43/35/26 45/37/27 
f 45/37/27 46/38/27 44/36/26 
s 2
f 41/39/28 47/40/28 48/41/28 
f 48/41/28 42/42/28 41/39/28 
f 43/43/7 40/44/7 49/45/7 
f 49/45/7 45/46/7 43/43/7 
f 50/47/7 49/45/7 40/44/7 
f 40/44/7 39/48/7 50/47/7 
s 1
f 45/49/27 51/37/29 52/38/29 
f 52/38/29 46/50/27 45/49/27 
s 4
f 47/33/30 53/36/31 54/35/31 
f 54/35/31 55/32/30 47/33/30 
s 1
f 53/36/32 52/38/29 51/37/29 
f 51/37/29 54/35/32 53/36/32 
s 2
f 54/43/14 51/46/14 56/45/14 
f 56/45/14 55/51/14 54/43/14 
f 55/51/14 56/45/14 57/47/14 
f 57/47/14 58/52/14 55/51/14 
f 45/53/7 49/54/7 56/55/14 
f 56/55/14 51/56/14 45/53/7 
s 4
f 55/32/30 58/31/33 48/34/33 
f 48/34/33 47/33/30 55/32/30 
s 2
f 52/57/28 53/58/28 47/40/28 
f 41/39/28 44/59/28 46/60/28 
f 46/60/28 52/57/28 47/40/28 
f 47/40/28 41/39/28 46/60/28 
s 1
f 59/61/34 60/62/35 61/63/36 
f 61/63/36 62/64/37 59/61/34 
f 63/65/38 59/61/34 62/64/37 
f 62/64/37 64/66/39 63/65/38 
f 65/67/40 63/68/38 64/69/39 
f 64/69/39 66/70/41 65/67/40 
f 67/71/42 65/67/40 66/70/41 
f 66/70/41 68/72/43 67/71/42 
f 60/62/35 67/71/42 68/72/43 
f 68/72/43 61/63/36 60/62/35 
f 69/73/44 70/74/45 60/62/35 
f 60/62/35 59/61/34 69/73/44 
f 71/75/46 69/73/44 59/61/34 
f 59/61/34 63/65/38 71/75/46 
f 72/76/47 71/77/46 63/68/38 
f 63/68/38 65/67/40 72/76/47 
f 73/78/48 72/76/47 65/67/40 
f 65/67/40 67/71/42 73/78/48 
f 70/74/45 73/78/48 67/71/42 
f 67/71/42 60/62/35 70/74/45 
f 70/74/45 69/73/44 74/79/49 
f 74/79/49 75/80/50 70/74/45 
f 71/75/46 76/81/51 74/79/49 
f 74/79/49 69/73/44 71/75/46 
f 72/76/47 77/82/52 76/83/51 
f 76/83/51 71/77/46 72/76/47 
f 73/78/48 78/84/53 77/82/52 
f 77/82/52 72/76/47 73/78/48 
f 73/78/48 70/74/45 75/80/50 
f 75/80/50 78/84/53 73/78/48 
f 75/80/50 74/79/49 79/85/54 
f 74/79/49 76/81/51 79/85/54 
f 76/83/51 77/82/52 79/85/54 
f 77/82/52 78/84/53 79/85/54 
f 78/84/53 75/80/50 79/85/54 
f 80/61/55 81/64/56 82/63/57 
f 82/63/57 83/62/58 80/61/55 
f 84/65/59 85/66/60 81/64/56 
f 81/64/56 80/61/55 84/65/59 
f 86/67/61 87/70/62 85/69/60 
f 85/69/60 84/68/59 86/67/61 
f 88/71/63 89/72/64 87/70/62 
f 87/70/62 86/67/61 88/71/63 
f 83/62/58 82/63/57 89/72/64 
f 89/72/64 88/71/63 83/62/58 
f 90/73/65 80/61/55 83/62/58 
f 83/62/58 91/74/66 90/73/65 
f 92/75/67 84/65/59 80/61/55 
f 80/61/55 90/73/65 92/75/67 
f 93/76/68 86/67/61 84/68/59 
f 84/68/59 92/77/67 93/76/68 
f 94/78/69 88/71/63 86/67/61 
f 86/67/61 93/76/68 94/78/69 
f 91/74/66 83/62/58 88/71/63 
f 88/71/63 94/78/69 91/74/66 
f 91/74/66 95/80/70 96/79/71 
f 96/79/71 90/73/65 91/74/66 
f 92/75/67 90/73/65 96/79/71 
f 96/79/71 97/81/72 92/75/67 
f 93/76/68 92/77/67 97/83/72 
f 97/83/72 98/82/73 93/76/68 
f 94/78/69 93/76/68 98/82/73 
f 98/82/73 99/84/74 94/78/69 
f 94/78/69 99/84/74 95/80/70 
f 95/80/70 91/74/66 94/78/69 
f 95/80/70 100/85/75 96/79/71 
f 96/79/71 100/85/75 97/81/72 
f 97/83/72 100/85/75 98/82/73 
f 98/82/73 100/85/75 99/84/74 
f 99/84/74 100/85/75 95/80/70 
s 2
f 32/12/14 33/14/14 13/13/7 
f 16/19/7 29/16/11 31/27/14 
f 19/24/12 22/29/12 15/18/12 
f 15/18/12 22/29/12 35/24/11 
f 22/29/12 37/30/14 35/24/11 
# 158 faces

#
# object base1
#

v  8.4802 88.3862 -50.0000
v  8.4802 61.2879 -50.0000
v  8.4802 61.2879 -12.6586
v  8.4802 88.3862 -12.6586
v  26.3912 88.3862 -7.3359
v  26.3912 61.2520 -7.3359
v  44.3021 61.2520 -7.2494
v  44.3021 88.3861 -7.2494
v  62.2131 20.3043 -12.4310
v  62.2131 61.2879 -12.4310
v  44.3021 20.3043 -7.2494
v  26.3912 20.3043 -7.3359
v  62.2131 20.3043 -50.0000
v  62.2131 61.2879 -50.0000
v  8.4802 20.3043 -12.6586
v  62.2131 88.3861 -12.4310
v  81.1397 61.2879 -7.1629
v  81.1397 88.3861 -7.1629
v  100.0000 61.2879 -5.0760
v  100.0000 88.3861 -5.0760
v  8.4802 20.3043 -50.0000
v  8.4802 88.3862 -87.3414
v  8.4802 61.2879 -87.3414
v  26.3912 88.3862 -92.6641
v  44.3021 88.3861 -92.7506
v  44.3021 61.2520 -92.7506
v  26.3912 61.2520 -92.6641
v  62.2131 20.3043 -87.5690
v  44.3021 20.3043 -92.7506
v  62.2131 61.2879 -87.5690
v  26.3912 20.3043 -92.6641
v  8.4802 20.3043 -87.3414
v  62.2131 88.3861 -87.5690
v  81.1397 88.3861 -92.8371
v  81.1397 61.2879 -92.8371
v  100.0000 88.3861 -94.9240
v  100.0000 61.2879 -94.9240
v  100.0000 61.2879 -50.0000
v  100.0000 87.6596 -0.0000
v  100.0000 100.0000 -0.0000
v  12.6916 100.0000 -0.0000
v  12.6916 87.6596 -0.0000
v  3.1729 100.0000 -3.1729
v  3.1729 87.6596 -3.1729
v  0.0000 100.0000 -12.6916
v  0.0000 87.6596 -12.6916
v  12.6916 87.6596 -12.6586
v  100.0000 87.6596 -12.6586
v  0.0000 100.0000 -87.3084
v  0.0000 87.6596 -87.3084
v  12.6916 100.0000 -100.0000
v  12.6916 87.6596 -100.0000
v  3.1729 87.6596 -96.8271
v  3.1729 100.0000 -96.8271
v  12.6916 87.6596 -87.3414
v  100.0000 87.6596 -100.0000
v  100.0000 87.6596 -87.3414
v  100.0000 100.0000 -100.0000
v  17.1631 14.0693 -24.3020
v  19.3370 24.9166 -24.3020
v  15.4622 25.7472 -29.7563
v  13.4098 15.4665 -29.7563
v  23.2360 11.8086 -26.3854
v  25.6065 23.5726 -26.3854
v  23.2360 11.8086 -33.1273
v  25.6065 23.5726 -33.1273
v  17.1631 14.0693 -35.2107
v  19.3370 24.9166 -35.2107
v  12.4057 5.7121 -24.3020
v  9.2943 8.2800 -29.7563
v  17.3301 1.8769 -26.3854
v  17.3301 1.8769 -33.1273
v  12.4057 5.7121 -35.2107
v  6.7541 5.4833 -29.7563
v  8.1788 3.0528 -25.0394
v  10.1719 -0.6088 -26.8411
v  10.1719 -0.6088 -32.6716
v  8.1788 3.0528 -34.4733
v  6.0195 2.2065 -29.7563
v  17.1631 14.0693 -75.6980
v  13.4098 15.4665 -70.2437
v  15.4622 25.7472 -70.2437
v  19.3370 24.9166 -75.6980
v  23.2360 11.8086 -73.6146
v  25.6065 23.5726 -73.6146
v  23.2360 11.8086 -66.8727
v  25.6065 23.5726 -66.8727
v  17.1631 14.0693 -64.7893
v  19.3370 24.9166 -64.7893
v  12.4057 5.7121 -75.6980
v  9.2943 8.2800 -70.2437
v  17.3301 1.8769 -73.6146
v  17.3301 1.8769 -66.8727
v  12.4057 5.7121 -64.7893
v  8.1788 3.0528 -74.9606
v  6.7541 5.4833 -70.2437
v  10.1719 -0.6088 -73.1589
v  10.1719 -0.6088 -67.3284
v  8.1788 3.0528 -65.5267
v  6.0195 2.2065 -70.2437
# 100 vertices

vn -1.0000 0.0000 -0.0000
vn -0.1463 0.0000 0.9892
vn 0.1379 0.0000 0.9904
vn -0.2849 0.0000 0.9586
vn 0.2779 0.0000 0.9606
vn 0.0992 0.0000 0.9951
vn 1.0000 0.0000 -0.0000
vn 0.0051 0.0000 1.0000
vn -0.1897 0.0000 0.9818
vn 0.0000 -1.0000 -0.0000
vn 0.0000 -1.0000 0.0000
vn -0.1100 0.0000 0.9939
vn -0.0000 -1.0000 0.0000
vn -0.0000 -1.0000 -0.0000
vn -0.1463 0.0000 -0.9892
vn 0.1379 0.0000 -0.9904
vn -0.2849 0.0000 -0.9586
vn 0.2779 0.0000 -0.9606
vn 0.0992 0.0000 -0.9951
vn 0.0051 0.0000 -1.0000
vn -0.1897 0.0000 -0.9818
vn -0.1100 0.0000 -0.9939
vn 0.0000 0.0000 1.0000
vn -0.1602 0.0000 0.9871
vn -0.3162 0.0000 0.9487
vn -0.9487 0.0000 0.3162
vn -0.9871 0.0000 0.1602
vn -0.9871 0.0000 -0.1602
vn -0.1602 0.0000 -0.9871
vn -0.3162 0.0000 -0.9487
vn -0.9487 0.0000 -0.3162
vn 0.0000 1.0000 -0.0000
vn 0.0000 0.0000 -1.0000
vn -0.2362 0.0865 0.9679
vn -0.3074 0.0615 0.9496
vn -0.9806 0.1960 -0.0002
vn -0.9365 0.3508 0.0002
vn 0.7727 -0.2974 0.5608
vn 0.7915 -0.1595 0.5900
vn 0.7734 -0.2967 -0.5602
vn 0.7916 -0.1594 -0.5899
vn -0.2362 0.0884 -0.9677
vn -0.3076 0.0614 -0.9495
vn -0.2053 0.0801 0.9754
vn -0.7988 0.6014 -0.0161
vn 0.5322 -0.6568 0.5342
vn 0.5311 -0.6580 -0.5339
vn -0.2218 0.0757 -0.9722
vn -0.8585 0.5122 -0.0239
vn -0.5648 -0.0592 0.8231
vn -0.1490 -0.8712 0.4677
vn -0.1481 -0.8703 -0.4697
vn -0.5640 -0.0338 -0.8251
vn -0.9529 -0.3034 -0.0000
vn -0.2362 0.0865 -0.9679
vn -0.9365 0.3508 -0.0002
vn -0.9806 0.1960 0.0002
vn -0.3074 0.0615 -0.9496
vn 0.7727 -0.2974 -0.5608
vn 0.7915 -0.1595 -0.5900
vn 0.7734 -0.2967 0.5602
vn 0.7916 -0.1594 0.5899
vn -0.2362 0.0884 0.9677
vn -0.3076 0.0614 0.9495
vn -0.2053 0.0801 -0.9754
vn -0.7988 0.6014 0.0161
vn 0.5322 -0.6568 -0.5342
vn 0.5311 -0.6580 0.5339
vn -0.2218 0.0757 0.9722
vn -0.5648 -0.0592 -0.8231
vn -0.8585 0.5122 0.0239
vn -0.1490 -0.8712 -0.4677
vn -0.1481 -0.8703 0.4697
vn -0.5640 -0.0338 0.8251
vn -0.9529 -0.3034 0.0000
# 75 vertex normals

vt 0.0154 0.0137 0.0000
vt 0.2497 0.0137 0.0000
vt 0.2497 0.2927 0.0000
vt 0.0154 0.2927 0.0000
vt 0.0154 0.4267 0.0000
vt 0.2497 0.4267 0.0000
vt 0.2497 0.5605 0.0000
vt 0.0154 0.5605 0.0000
vt 0.5472 0.6941 0.0000
vt 0.2497 0.6941 0.0000
vt 0.5472 0.5605 0.0000
vt 0.5472 0.4267 0.0000
vt 0.5832 0.2437 0.0000
vt 0.7972 0.2437 0.0000
vt 0.7972 0.3956 0.0000
vt 0.5832 0.3956 0.0000
vt 0.5472 0.2927 0.0000
vt 0.0154 0.6941 0.0000
vt 0.2497 0.8342 0.0000
vt 0.0154 0.8342 0.0000
vt 0.5832 0.4765 0.0000
vt 0.2497 0.9885 0.0000
vt 0.0154 0.9885 0.0000
vt 0.5832 0.1652 0.0000
vt 0.5832 0.0910 0.0000
vt 0.7972 0.0125 0.0000
vt 0.5472 0.0137 0.0000
vt 0.5832 0.0125 0.0000
vt 0.7972 0.5527 0.0000
vt 0.5832 0.5527 0.0000
vt 0.9920 0.0105 0.0000
vt 0.9240 0.0105 0.0000
vt 0.9240 0.2482 0.0000
vt 0.9920 0.2482 0.0000
vt 0.9240 0.2848 0.0000
vt 0.9920 0.2848 0.0000
vt 0.9240 0.3170 0.0000
vt 0.9920 0.3170 0.0000
vt 0.8366 0.2480 0.0000
vt 0.9057 0.2387 0.0000
vt 0.9057 0.2733 0.0000
vt 0.8161 0.2733 0.0000
vt 0.9057 0.5540 0.0000
vt 0.8161 0.5540 0.0000
vt 0.9920 0.5559 0.0000
vt 0.9240 0.5559 0.0000
vt 0.8156 0.2733 0.0000
vt 0.8156 0.5540 0.0000
vt 0.8220 0.2230 0.0000
vt 0.8220 0.0128 0.0000
vt 0.9091 0.0128 0.0000
vt 0.9091 0.2230 0.0000
vt 0.9940 0.6221 0.0000
vt 0.9394 0.5681 0.0000
vt 0.9803 0.5816 0.0000
vt 0.5643 0.6221 0.0000
vt 0.6188 0.5681 0.0000
vt 0.5779 0.5816 0.0000
vt 0.9940 0.9934 0.0000
vt 0.5643 0.9934 0.0000
vt 0.4464 0.9441 0.0000
vt 0.5471 0.9411 0.0000
vt 0.5471 0.8846 0.0000
vt 0.4464 0.8854 0.0000
vt 0.4464 0.9889 0.0000
vt 0.5471 0.9889 0.0000
vt 0.4464 0.7688 0.0000
vt 0.5471 0.7678 0.0000
vt 0.5471 0.7153 0.0000
vt 0.4464 0.7153 0.0000
vt 0.4464 0.8262 0.0000
vt 0.5471 0.8271 0.0000
vt 0.3710 0.9299 0.0000
vt 0.3856 0.8830 0.0000
vt 0.3242 0.9889 0.0000
vt 0.3579 0.7918 0.0000
vt 0.3242 0.7153 0.0000
vt 0.3800 0.8361 0.0000
vt 0.3549 0.8768 0.0000
vt 0.3476 0.9002 0.0000
vt 0.3242 0.9297 0.0000
vt 0.3242 0.7929 0.0000
vt 0.3411 0.8311 0.0000
vt 0.3521 0.8533 0.0000
vt 0.3242 0.8705 0.0000
# 85 texture coords

g base1
usemtl Material__64
s 1
f 101/86/76 102/87/76 103/88/76 
f 103/88/76 104/89/76 101/86/76 
s 4
f 105/90/77 106/91/77 107/92/78 
f 107/92/78 108/93/78 105/90/77 
f 105/90/77 104/89/79 103/88/79 
f 103/88/79 106/91/77 105/90/77 
f 109/94/80 110/95/81 107/92/78 
f 107/92/78 111/96/78 109/94/80 
f 112/97/77 111/96/78 107/92/78 
f 107/92/78 106/91/77 112/97/77 
s 1
f 109/98/82 113/99/82 114/100/82 
f 114/100/82 110/101/82 109/98/82 
s 4
f 115/102/79 112/97/77 106/91/77 
f 106/91/77 103/88/79 115/102/79 
f 110/95/81 116/103/83 108/93/78 
f 108/93/78 107/92/78 110/95/81 
f 110/95/81 117/104/84 118/105/84 
f 118/105/84 116/103/83 110/95/81 
s 2
f 110/101/85 114/100/86 117/106/86 
s 4
f 119/107/87 120/108/87 118/105/84 
f 118/105/84 117/104/84 119/107/87 
s 2
f 113/99/88 111/109/89 112/110/88 
f 112/110/88 121/111/88 113/99/88 
s 1
f 115/102/76 103/88/76 102/87/76 
f 102/87/76 121/112/76 115/102/76 
f 101/86/76 122/89/76 123/88/76 
f 123/88/76 102/87/76 101/86/76 
s 4
f 124/90/90 125/93/91 126/92/91 
f 126/92/91 127/91/90 124/90/90 
f 124/90/90 127/91/90 123/88/92 
f 123/88/92 122/89/92 124/90/90 
f 128/94/93 129/96/91 126/92/91 
f 126/92/91 130/95/94 128/94/93 
s 2
f 131/110/88 121/111/88 132/113/89 
s 4
f 131/97/90 127/91/90 126/92/91 
f 126/92/91 129/96/91 131/97/90 
s 1
f 128/98/82 130/101/82 114/100/82 
f 114/100/82 113/99/82 128/98/82 
s 4
f 132/102/92 123/88/92 127/91/90 
f 127/91/90 131/97/90 132/102/92 
f 130/95/94 126/92/91 125/93/91 
f 125/93/91 133/103/95 130/95/94 
f 130/95/94 133/103/95 134/105/96 
f 134/105/96 135/104/96 130/95/94 
s 2
f 130/101/85 135/106/85 114/100/86 
s 4
f 135/104/96 134/105/96 136/108/97 
f 136/108/97 137/107/97 135/104/96 
s 2
f 131/110/88 129/109/88 113/99/88 
f 113/99/88 121/111/88 131/110/88 
f 113/99/88 129/109/88 128/98/85 
s 1
f 132/102/76 121/112/76 102/87/76 
f 102/87/76 123/88/76 132/102/76 
s 2
f 138/114/86 135/106/85 137/115/85 
s 4
f 139/116/98 140/117/98 141/118/99 
f 141/118/99 142/119/99 139/116/98 
f 141/118/99 143/120/100 144/121/100 
f 144/121/100 142/119/99 141/118/99 
s 1
f 143/120/101 145/122/102 146/123/102 
f 146/123/102 144/121/101 143/120/101 
s 2
f 144/124/88 146/125/88 147/126/88 
f 147/126/88 142/127/88 144/124/88 
f 148/128/86 139/129/86 142/127/88 
f 142/127/88 147/126/88 148/128/86 
s 1
f 146/130/102 145/131/102 149/122/103 
f 149/122/103 150/123/103 146/130/102 
s 4
f 151/118/104 152/119/104 153/121/105 
f 153/121/105 154/120/105 151/118/104 
s 1
f 154/120/106 153/121/106 150/123/103 
f 150/123/103 149/122/103 154/120/106 
s 2
f 153/124/89 152/132/89 155/126/89 
f 155/126/89 150/125/89 153/124/89 
f 152/132/89 156/133/85 157/128/85 
f 157/128/85 155/126/89 152/132/89 
f 146/134/88 150/135/89 155/136/89 
f 155/136/89 147/137/88 146/134/88 
f 141/138/107 145/139/107 143/140/107 
s 4
f 152/119/104 151/118/104 158/117/108 
f 158/117/108 156/116/108 152/119/104 
s 2
f 151/141/107 149/142/107 145/139/107 
f 145/139/107 141/138/107 151/141/107 
f 151/141/107 154/143/107 149/142/107 
f 140/144/107 158/145/107 151/141/107 
f 151/141/107 141/138/107 140/144/107 
s 1
f 159/146/109 160/147/110 161/148/111 
f 161/148/111 162/149/112 159/146/109 
f 163/150/113 164/151/114 160/147/110 
f 160/147/110 159/146/109 163/150/113 
f 165/152/115 166/153/116 164/154/114 
f 164/154/114 163/155/113 165/152/115 
f 167/156/117 168/157/118 166/153/116 
f 166/153/116 165/152/115 167/156/117 
f 162/149/112 161/148/111 168/157/118 
f 168/157/118 167/156/117 162/149/112 
f 169/158/119 159/146/109 162/149/112 
f 162/149/112 170/159/120 169/158/119 
f 171/160/121 163/150/113 159/146/109 
f 159/146/109 169/158/119 171/160/121 
f 172/161/122 165/152/115 163/155/113 
f 163/155/113 171/162/121 172/161/122 
f 173/163/123 167/156/117 165/152/115 
f 165/152/115 172/161/122 173/163/123 
f 170/159/120 162/149/112 167/156/117 
f 167/156/117 173/163/123 170/159/120 
f 170/159/120 174/164/124 175/165/125 
f 175/165/125 169/158/119 170/159/120 
f 171/160/121 169/158/119 175/165/125 
f 175/165/125 176/166/126 171/160/121 
f 172/161/122 171/162/121 176/167/126 
f 176/167/126 177/168/127 172/161/122 
f 173/163/123 172/161/122 177/168/127 
f 177/168/127 178/169/128 173/163/123 
f 173/163/123 178/169/128 174/164/124 
f 174/164/124 170/159/120 173/163/123 
f 174/164/124 179/170/129 175/165/125 
f 175/165/125 179/170/129 176/166/126 
f 176/167/126 179/170/129 177/168/127 
f 177/168/127 179/170/129 178/169/128 
f 178/169/128 179/170/129 174/164/124 
f 180/146/130 181/149/131 182/148/132 
f 182/148/132 183/147/133 180/146/130 
f 184/150/134 180/146/130 183/147/133 
f 183/147/133 185/151/135 184/150/134 
f 186/152/136 184/155/134 185/154/135 
f 185/154/135 187/153/137 186/152/136 
f 188/156/138 186/152/136 187/153/137 
f 187/153/137 189/157/139 188/156/138 
f 181/149/131 188/156/138 189/157/139 
f 189/157/139 182/148/132 181/149/131 
f 190/158/140 191/159/141 181/149/131 
f 181/149/131 180/146/130 190/158/140 
f 192/160/142 190/158/140 180/146/130 
f 180/146/130 184/150/134 192/160/142 
f 193/161/143 192/162/142 184/155/134 
f 184/155/134 186/152/136 193/161/143 
f 194/163/144 193/161/143 186/152/136 
f 186/152/136 188/156/138 194/163/144 
f 191/159/141 194/163/144 188/156/138 
f 188/156/138 181/149/131 191/159/141 
f 191/159/141 190/158/140 195/165/145 
f 195/165/145 196/164/146 191/159/141 
f 192/160/142 197/166/147 195/165/145 
f 195/165/145 190/158/140 192/160/142 
f 193/161/143 198/168/148 197/167/147 
f 197/167/147 192/162/142 193/161/143 
f 194/163/144 199/169/149 198/168/148 
f 198/168/148 193/161/143 194/163/144 
f 194/163/144 191/159/141 196/164/146 
f 196/164/146 199/169/149 194/163/144 
f 196/164/146 195/165/145 200/170/150 
f 195/165/145 197/166/147 200/170/150 
f 197/167/147 198/168/148 200/170/150 
f 198/168/148 199/169/149 200/170/150 
f 199/169/149 196/164/146 200/170/150 
s 2
f 112/110/88 115/113/88 121/111/88 
f 113/99/88 109/98/85 111/109/89 
f 114/100/86 138/114/86 117/106/86 
f 138/114/86 119/115/85 117/106/86 
f 135/106/85 138/114/86 114/100/86 
# 158 faces

