# Max2Obj Version 4.0 Mar 10th, 2001
#
# object bar to come ...
#
v  50.000008 70.637428 -49.677505
v  52.080467 72.783203 -49.677505
v  50.000008 74.928978 -49.677505
v  47.938992 72.783203 -49.677505
v  50.000008 15.902565 -49.677505
v  52.080467 18.048340 -49.677505
v  50.000008 20.194115 -49.677505
v  47.938992 18.048340 -49.677505
v  52.070217 18.048336 0.057323
v  47.950771 72.783203 0.058243
v  49.989880 74.689247 0.058239
v  52.070171 72.783203 0.058243
v  49.989880 70.877159 0.058239
v  47.950771 18.048336 0.058243
v  49.989880 19.954380 0.058239
v  49.989880 16.142292 0.058239
v  50.000015 68.818604 -49.265114
v  52.080467 70.652855 -48.151619
v  50.000015 72.487099 -47.038116
v  47.938995 70.652855 -48.151619
v  47.949329 44.743271 0.058239
v  49.989883 42.966206 0.058239
v  52.070190 44.743271 0.058239
v  49.989883 46.520321 0.058243
v  50.000004 16.999451 -47.038124
v  52.080467 18.833700 -48.151619
v  50.000008 20.667948 -49.265121
v  47.938992 18.833700 -48.151619
v  47.949329 44.743271 0.058239
v  49.989880 42.966179 0.058239
v  52.070190 44.743271 0.058239
v  49.989880 46.520336 0.058243
# 32 vertices

vt  0.784381 0.068158 1.000000
vt  0.882582 0.068158 1.000000
vt  0.980238 0.068158 1.000000
vt  0.882038 0.068158 1.000000
vt  0.881493 0.068158 1.000000
vt  0.667940 0.245891 -0.250000
vt  0.602508 0.180459 -0.250000
vt  0.537076 0.245891 -0.250000
vt  0.602508 0.311323 -0.250000
vt  0.783837 0.068158 1.000000
vt  0.979694 0.068158 1.000000
vt  0.783837 0.068158 1.000000
vt  0.881493 0.068158 1.000000
vt  0.882582 0.068158 1.000000
vt  0.980238 0.068158 1.000000
vt  0.979694 0.068158 1.000000
vt  0.882038 0.068158 1.000000
vt  0.784381 0.068158 1.000000
vt  0.667940 0.245891 -0.250000
vt  0.602508 0.180459 -0.250000
vt  0.537076 0.245891 -0.250000
vt  0.602508 0.311323 -0.250000
vt  0.881493 0.364812 1.000000
vt  0.882582 0.364812 1.000000
vt  0.783837 0.364812 1.000000
vt  0.784381 0.364812 1.000000
vt  0.980238 0.364812 1.000000
vt  0.979694 0.364812 1.000000
vt  0.882038 0.364812 1.000000
vt  0.881493 0.364812 1.000000
vt  0.882582 0.364812 1.000000
vt  0.783837 0.364812 1.000000
vt  0.784381 0.364812 1.000000
vt  0.980238 0.364812 1.000000
vt  0.979694 0.364812 1.000000
vt  0.882038 0.364812 1.000000
vt  0.667940 0.245891 -0.250000
vt  0.602508 0.180459 -0.250000
vt  0.537076 0.245891 -0.250000
vt  0.602508 0.311323 -0.250000
vt  0.667940 0.245891 -0.250000
vt  0.602508 0.180459 -0.250000
vt  0.537076 0.245891 -0.250000
vt  0.602508 0.311323 -0.250000
vt  0.784381 0.661466 1.000000
vt  0.882582 0.661466 1.000000
vt  0.980238 0.661466 1.000000
vt  0.882038 0.661466 1.000000
vt  0.881493 0.661466 1.000000
vt  0.602508 0.311323 0.250000
vt  0.537076 0.245891 0.250000
vt  0.602508 0.180459 0.250000
vt  0.667940 0.245891 0.250000
vt  0.783837 0.661466 1.000000
vt  0.979694 0.661466 1.000000
vt  0.881493 0.364812 1.000000
vt  0.882582 0.364812 1.000000
vt  0.783837 0.364812 1.000000
vt  0.784381 0.364812 1.000000
vt  0.980238 0.364812 1.000000
vt  0.979694 0.364812 1.000000
vt  0.882038 0.364812 1.000000
vt  0.667940 0.245891 -0.250000
vt  0.602508 0.311323 -0.250000
vt  0.537076 0.245891 -0.250000
vt  0.602508 0.180459 -0.250000
vt  0.784381 0.068158 1.000000
vt  0.882582 0.068158 1.000000
vt  0.980238 0.068158 1.000000
vt  0.882038 0.068158 1.000000
vt  0.881493 0.068158 1.000000
vt  0.667940 0.245891 -0.250000
vt  0.602508 0.180459 -0.250000
vt  0.537076 0.245891 -0.250000
vt  0.602508 0.311323 -0.250000
vt  0.783837 0.068158 1.000000
vt  0.979694 0.068158 1.000000
vt  0.881493 0.364812 1.000000
vt  0.882582 0.364812 1.000000
vt  0.783837 0.364812 1.000000
vt  0.784381 0.364812 1.000000
vt  0.980238 0.364812 1.000000
vt  0.979694 0.364812 1.000000
vt  0.882038 0.364812 1.000000
vt  0.667940 0.245891 -0.250000
vt  0.602508 0.311323 -0.250000
vt  0.537076 0.245891 -0.250000
vt  0.602508 0.180459 -0.250000
# 88 texture vertices

vn  -0.002810 -2.178899 -0.764009
vn  2.252958 -0.002398 -1.596159
vn  -0.007219 2.179127 -0.764509
vn  -2.263407 0.002171 -1.605976
vn  -0.002810 -2.178899 -0.764010
vn  2.252958 -0.002398 -1.596160
vn  -0.007220 2.179128 -0.764510
vn  -2.263407 0.002171 -1.605976
vn  2.126194 -0.002406 1.489213
vn  -2.147872 0.002203 1.508742
vn  -0.014099 2.308297 0.825359
vn  2.125123 -0.002404 1.489236
vn  -0.009119 -2.308098 0.824860
vn  -2.147872 0.002203 1.508742
vn  -0.014331 2.308067 0.825358
vn  -0.009352 -2.307869 0.824859
vn  1.094420 -0.145141 -1.805725
vn  0.028147 0.798218 -1.386870
vn  0.028461 0.829976 -1.293939
vn  -0.029024 0.869363 -1.359267
vn  -1.922534 -0.441961 1.212483
vn  -0.003371 -1.770162 -0.084835
vn  1.893135 -0.447698 1.185442
vn  -0.027229 2.643742 2.294533
vn  0.000118 -2.357433 0.408594
vn  2.248881 -0.783920 -1.381466
vn  -0.009366 1.478290 -1.654471
vn  -2.258942 -0.779879 -1.394601
vn  -1.916208 0.449385 1.203213
vn  -0.005421 -2.643848 2.294012
vn  1.899662 0.440145 1.194924
vn  -0.011063 1.770404 -0.084554
# 32 vertex normals

g bar
s 1
f 2/5/2 12/23/12 13/25/13
f 13/25/13 1/10/1 2/5/2
f 3/3/3 11/27/11 12/24/12
f 12/24/12 2/2/2 3/3/3
f 4/4/4 10/29/10 11/28/11
f 11/28/11 3/11/3 4/4/4
f 1/1/1 13/26/13 10/29/10
f 10/29/10 4/4/4 1/1/1
f 3/7/3 2/8/2 1/9/1
f 1/9/1 4/6/4 3/7/3
f 6/13/6 9/30/9 16/32/16
f 16/32/16 5/12/5 6/13/6
f 7/15/7 15/34/15 9/31/9
f 9/31/9 6/14/6 7/15/7
f 8/17/8 14/36/14 15/35/15
f 15/35/15 7/16/7 8/17/8
f 5/18/5 16/33/16 14/36/14
f 14/36/14 8/17/8 5/18/5
f 7/20/7 6/21/6 5/22/5
f 5/22/5 8/19/8 7/20/7
f 11/38/11 10/37/10 13/40/13
f 13/40/13 12/39/12 11/38/11
f 15/42/15 14/41/14 16/44/16
f 16/44/16 9/43/9 15/42/15
f 18/51/18 17/50/17 20/53/20
f 20/53/20 19/52/19 18/51/18
f 18/49/18 23/56/23 22/58/22
f 22/58/22 17/54/17 18/49/18
f 19/47/19 24/60/24 23/57/23
f 23/57/23 18/46/18 19/47/19
f 20/48/20 21/62/21 24/61/24
f 24/61/24 19/55/19 20/48/20
f 17/45/17 22/59/22 21/62/21
f 21/62/21 20/48/20 17/45/17
f 24/66/24 21/63/21 22/64/22
f 22/64/22 23/65/23 24/66/24
f 26/71/26 31/78/31 30/80/30
f 30/80/30 25/76/25 26/71/26
f 27/69/27 32/82/32 31/79/31
f 31/79/31 26/68/26 27/69/27
f 28/70/28 29/84/29 32/83/32
f 32/83/32 27/77/27 28/70/28
f 25/67/25 30/81/30 29/84/29
f 29/84/29 28/70/28 25/67/25
f 27/73/27 26/74/26 25/75/25
f 25/75/25 28/72/28 27/73/27
f 32/88/32 29/85/29 30/86/30
f 30/86/30 31/87/31 32/88/32
# 48 faces

g
# object pillow to come ...
#
v  50.000000 0.000000 -45.515541
v  54.484463 0.000000 -50.000000
v  59.927242 4.464153 -50.000000
v  50.000000 4.464153 -40.072754
v  50.000000 0.000000 -54.484459
v  50.000000 4.464153 -59.927246
v  45.515537 0.000000 -50.000000
v  40.072758 4.464153 -50.000000
v  50.000000 100.896873 -44.806267
v  55.193733 100.896873 -50.000000
v  50.000000 100.896873 -55.193733
v  44.806267 100.896873 -50.000000
v  55.193733 13.741356 -50.000000
v  53.765415 53.569080 -50.000000
v  50.000000 53.569080 -46.234581
v  50.000000 13.741356 -44.806267
v  50.000000 13.741356 -55.193733
v  50.000000 53.569080 -53.765419
v  44.806267 13.741356 -50.000000
v  46.234585 53.569080 -50.000000
v  57.560486 9.102753 -50.000000
v  50.000000 9.102753 -42.439514
v  50.000000 9.102753 -57.560486
v  42.439514 9.102753 -50.000000
v  55.193733 93.396797 -50.000000
v  57.354458 97.146843 -50.000000
v  50.000000 97.146843 -42.645546
v  50.000000 93.396797 -44.806267
v  50.000000 93.396797 -55.193733
v  50.000000 97.146843 -57.354454
v  44.806267 93.396797 -50.000000
v  42.645542 97.146843 -50.000000
v  50.000000 0.000000 -45.515541
v  54.484463 0.000000 -50.000000
v  50.000000 0.000000 -54.484459
v  45.515537 0.000000 -50.000000
v  50.000000 100.896873 -44.806267
v  55.193733 100.896873 -50.000000
v  50.000000 100.896873 -55.193733
v  44.806267 100.896873 -50.000000
# 40 vertices

vt  0.013762 -0.000208 1.000000
vt  0.208478 -0.000208 1.000000
vt  0.208478 0.097536 1.000000
vt  0.013762 0.097536 1.000000
vt  0.402934 -0.000208 1.000000
vt  0.402934 0.097536 1.000000
vt  0.402404 -0.000208 1.000000
vt  0.207970 -0.000208 1.000000
vt  0.207970 0.097536 1.000000
vt  0.402404 0.097536 1.000000
vt  0.013798 -0.000208 1.000000
vt  0.013798 0.097536 1.000000
vt  0.208478 0.268776 1.000000
vt  0.208478 0.539104 1.000000
vt  0.013762 0.539104 1.000000
vt  0.013762 0.268776 1.000000
vt  0.402934 0.268776 1.000000
vt  0.402934 0.539104 1.000000
vt  0.207970 0.268776 1.000000
vt  0.207970 0.539104 1.000000
vt  0.402404 0.539104 1.000000
vt  0.402404 0.268776 1.000000
vt  0.013798 0.268776 1.000000
vt  0.013798 0.539104 1.000000
vt  0.208478 0.175432 1.000000
vt  0.013762 0.175432 1.000000
vt  0.402934 0.175432 1.000000
vt  0.207970 0.175432 1.000000
vt  0.402404 0.175432 1.000000
vt  0.013798 0.175432 1.000000
vt  0.208478 0.800936 1.000000
vt  0.208478 0.890705 1.000000
vt  0.013762 0.890705 1.000000
vt  0.013762 0.800936 1.000000
vt  0.402934 0.800936 1.000000
vt  0.402934 0.890705 1.000000
vt  0.207970 0.800936 1.000000
vt  0.207970 0.890705 1.000000
vt  0.402404 0.890705 1.000000
vt  0.402404 0.800936 1.000000
vt  0.013798 0.800936 1.000000
vt  0.013798 0.890705 1.000000
vt  0.208478 0.982654 1.000000
vt  0.013762 0.982654 1.000000
vt  0.402934 0.982654 1.000000
vt  0.207970 0.982654 1.000000
vt  0.402404 0.982654 1.000000
vt  0.013798 0.982654 1.000000
vt  0.643427 0.970001 -0.250000
vt  0.463841 0.790414 -0.250000
vt  0.643427 0.610828 -0.250000
vt  0.823014 0.790414 -0.250000
vt  0.643427 0.970001 0.250000
vt  0.463841 0.790414 0.250000
vt  0.643427 0.610828 0.250000
vt  0.823014 0.790414 0.250000
# 56 texture vertices

vn  -0.000000 -0.773193 0.634170
vn  0.634171 -0.773193 -0.000000
vn  0.986456 -0.164023 0.000000
vn  -0.000000 -0.164023 0.986456
vn  0.000000 -0.773193 -0.634170
vn  0.000000 -0.164023 -0.986456
vn  -0.634171 -0.773193 0.000000
vn  -0.986456 -0.164023 -0.000000
vn  -0.000000 0.499244 0.866461
vn  0.866461 0.499245 0.000000
vn  0.000000 0.499244 -0.866461
vn  -0.866461 0.499245 -0.000000
vn  0.960387 0.278671 0.000000
vn  1.000000 -0.000000 0.000000
vn  -0.000000 -0.000000 1.000000
vn  -0.000000 0.278671 0.960387
vn  0.000000 0.278671 -0.960387
vn  0.000000 -0.000000 -1.000000
vn  -0.960387 0.278671 -0.000000
vn  -1.000000 -0.000000 -0.000000
vn  0.890752 0.454489 0.000000
vn  -0.000000 0.454489 0.890752
vn  0.000000 0.454489 -0.890752
vn  -0.890752 0.454489 -0.000000
vn  0.950814 -0.309762 0.000000
vn  1.000000 0.000001 0.000000
vn  -0.000000 0.000001 1.000000
vn  -0.000000 -0.309762 0.950814
vn  0.000000 -0.309762 -0.950814
vn  0.000000 0.000001 -1.000000
vn  -0.950814 -0.309762 -0.000000
vn  -1.000000 0.000001 -0.000000
vn  0.000000 -1.000000 0.000000
vn  0.000000 -1.000000 0.000000
vn  0.000000 -1.000000 0.000000
vn  0.000000 -1.000000 0.000000
vn  0.000000 1.000000 0.000000
vn  0.000000 1.000000 0.000000
vn  0.000000 1.000000 0.000000
vn  0.000000 1.000000 0.000000
# 40 vertex normals

g pillow
s 1
f 34/90/34 35/91/35 36/92/36
f 36/92/36 33/89/33 34/90/34
f 37/93/37 38/94/38 35/91/35
f 35/91/35 34/90/34 37/93/37
f 39/96/39 40/97/40 38/98/38
f 38/98/38 37/95/37 39/96/39
f 33/99/33 36/100/36 40/97/40
f 40/97/40 39/96/39 33/99/33
f 46/102/46 47/103/47 48/104/48
f 48/104/48 45/101/45 46/102/46
f 50/106/50 46/102/46 45/101/45
f 45/101/45 49/105/49 50/106/50
f 52/108/52 50/109/50 49/110/49
f 49/110/49 51/107/51 52/108/52
f 47/112/47 52/108/52 51/107/51
f 51/107/51 48/111/48 47/112/47
f 53/113/53 54/114/54 36/92/36
f 36/92/36 35/91/35 53/113/53
f 55/115/55 53/113/53 35/91/35
f 35/91/35 38/94/38 55/115/55
f 56/116/56 55/117/55 38/98/38
f 38/98/38 40/97/40 56/116/56
f 54/118/54 56/116/56 40/97/40
f 40/97/40 36/100/36 54/118/54
f 58/120/58 59/121/59 60/122/60
f 60/122/60 57/119/57 58/120/58
f 62/124/62 58/120/58 57/119/57
f 57/119/57 61/123/61 62/124/62
f 64/126/64 62/127/62 61/128/61
f 61/128/61 63/125/63 64/126/64
f 59/130/59 64/126/64 63/125/63
f 63/125/63 60/129/60 59/130/59
f 42/131/42 41/132/41 59/121/59
f 59/121/59 58/120/58 42/131/42
f 43/133/43 42/131/42 58/120/58
f 58/120/58 62/124/62 43/133/43
f 44/134/44 43/135/43 62/127/62
f 62/127/62 64/126/64 44/134/44
f 41/136/41 44/134/44 64/126/64
f 64/126/64 59/130/59 41/136/41
f 45/101/45 48/104/48 54/114/54
f 54/114/54 53/113/53 45/101/45
f 49/105/49 45/101/45 53/113/53
f 53/113/53 55/115/55 49/105/49
f 51/107/51 49/110/49 55/117/55
f 55/117/55 56/116/56 51/107/51
f 48/111/48 51/107/51 56/116/56
f 56/116/56 54/118/54 48/111/48
f 57/119/57 60/122/60 47/103/47
f 47/103/47 46/102/46 57/119/57
f 61/123/61 57/119/57 46/102/46
f 46/102/46 50/106/50 61/123/61
f 63/125/63 61/128/61 50/109/50
f 50/109/50 52/108/52 63/125/63
f 60/129/60 63/125/63 52/108/52
f 52/108/52 47/112/47 60/129/60
f 67/139/67 66/138/66 65/137/65
f 65/137/65 68/140/68 67/139/67
f 70/142/70 71/143/71 72/144/72
f 72/144/72 69/141/69 70/142/70
# 60 faces

g
