# Max2Obj Version 4.0 Mar 10th, 2001
#
# object pillow to come ...
#
v  49.999992 100.277565 -43.365555
v  43.365547 100.277565 -50.000000
v  49.999992 100.277565 -56.634445
v  56.634438 100.277565 -49.999996
v  50.000008 -0.461216 -43.446526
v  43.446533 -0.461216 -50.000000
v  50.000008 -0.461216 -56.553474
v  56.553482 -0.461216 -49.999996
v  40.284515 96.262329 -50.000004
v  49.999996 96.262329 -40.284519
v  50.000000 96.262329 -59.715481
v  59.715477 96.262329 -49.999996
v  50.000004 3.082172 -40.284519
v  40.284527 3.082169 -50.000004
v  50.000008 3.082165 -59.715481
v  59.715485 3.082165 -49.999996
# 16 vertices

vt  0.841189 0.789807 -0.250000
vt  0.647977 0.596595 -0.250000
vt  0.454764 0.789807 -0.250000
vt  0.647977 0.983020 -0.250000
vt  0.647977 0.983020 0.250000
vt  0.454764 0.789807 0.250000
vt  0.647977 0.596595 0.250000
vt  0.841189 0.789807 0.250000
vt  0.421848 0.015565 0.500000
vt  0.217231 0.015565 0.158905
vt  0.217231 0.073896 0.000500
vt  0.422387 0.073896 0.500000
vt  0.012361 0.015565 0.500000
vt  0.012338 0.073896 0.500000
vt  0.217231 0.015565 0.841096
vt  0.217231 0.073896 0.999501
vt  0.217232 0.927203 0.000499
vt  0.422387 0.927203 0.500000
vt  0.012338 0.927203 0.500000
vt  0.217232 0.927203 0.999500
vt  0.217232 0.988201 0.163067
vt  0.421834 0.988201 0.500000
vt  0.012362 0.988201 0.500000
vt  0.217232 0.988201 0.836932
# 24 texture vertices

vn  -0.000002 2.708108 2.505694
vn  -2.505695 3.493502 -0.000001
vn  -0.000001 2.708108 -2.505694
vn  2.505694 3.493509 0.000001
vn  -1.232490 -2.670630 1.232489
vn  -0.208871 -1.757186 0.208871
vn  -0.208871 -1.757186 -0.208871
vn  0.208870 -1.757186 -0.208870
vn  -0.958729 0.284322 -0.000000
vn  -0.000000 0.284323 0.958729
vn  0.000000 0.284323 -0.958729
vn  0.958729 0.284323 0.000000
vn  -0.000000 -0.311849 0.950132
vn  -0.950131 -0.311850 -0.000000
vn  0.000000 -0.311850 -0.950131
vn  0.950132 -0.311849 0.000000
# 16 vertex normals

g pillow
s 1
f 2/10/2 9/11/9 10/12/10
f 10/12/10 1/9/1 2/10/2
f 3/13/3 11/14/11 9/11/9
f 9/11/9 2/10/2 3/13/3
f 4/15/4 12/16/12 11/14/11
f 11/14/11 3/13/3 4/15/4
f 1/9/1 10/12/10 12/16/12
f 12/16/12 4/15/4 1/9/1
f 3/2/3 2/3/2 1/4/1
f 1/4/1 4/1/4 3/2/3
f 6/6/6 7/7/7 8/8/8
f 8/8/8 5/5/5 6/6/6
f 14/17/14 13/18/13 10/12/10
f 10/12/10 9/11/9 14/17/14
f 15/19/15 14/17/14 9/11/9
f 9/11/9 11/14/11 15/19/15
f 16/20/16 15/19/15 11/14/11
f 11/14/11 12/16/12 16/20/16
f 13/18/13 16/20/16 12/16/12
f 12/16/12 10/12/10 13/18/13
f 6/21/6 5/22/5 13/18/13
f 13/18/13 14/17/14 6/21/6
f 7/23/7 6/21/6 14/17/14
f 14/17/14 15/19/15 7/23/7
f 8/24/8 7/23/7 15/19/15
f 15/19/15 16/20/16 8/24/8
f 5/22/5 8/24/8 16/20/16
f 16/20/16 13/18/13 5/22/5
# 28 faces

g
# object bar to come ...
#
v  47.425629 57.209351 0.000000
v  49.999996 59.783718 0.000000
v  52.574364 57.209351 0.000000
v  49.999996 54.634983 0.000000
v  47.425632 57.209343 -44.771736
v  50.000000 59.783710 -44.771736
v  52.574368 57.209343 -44.771736
v  50.000000 54.634975 -44.771736
v  47.425632 39.246315 0.000000
v  49.999996 41.820683 0.000000
v  52.574364 39.246315 0.000000
v  49.999996 36.671951 0.000000
v  47.425632 39.246307 -44.771736
v  50.000000 41.820675 -44.771736
v  52.574368 39.246307 -44.771736
v  50.000000 36.671944 -44.771736
v  48.869179 70.121338 -11.488686
v  49.999996 70.121338 -14.063053
v  51.130817 70.121338 -11.488686
v  49.999996 70.121338 -8.914322
v  48.869179 38.956364 -11.488686
v  49.999996 38.956364 -14.063053
v  51.130817 38.956364 -11.488686
v  49.999996 38.956360 -8.914318
v  48.869179 70.121338 -27.389954
v  50.000000 70.121338 -29.964319
v  51.130817 70.121338 -27.389954
v  49.999996 70.121338 -24.815586
v  48.869179 38.956364 -27.389950
v  50.000000 38.956364 -29.964317
v  51.130817 38.956364 -27.389950
v  49.999996 38.956364 -24.815584
# 32 vertices

vt  0.866988 0.090925 1.000000
vt  0.776347 0.019290 1.000000
vt  0.866448 0.019290 1.000000
vt  0.956550 0.019290 1.000000
vt  0.866988 0.676539 1.000000
vt  0.776347 0.678349 1.000000
vt  0.866448 0.678349 1.000000
vt  0.956550 0.678349 1.000000
vt  0.776887 0.090925 1.000000
vt  0.776887 0.676539 1.000000
vt  0.957090 0.090925 1.000000
vt  0.957090 0.676539 1.000000
vt  0.866988 0.090925 1.000000
vt  0.776347 0.019290 1.000000
vt  0.866448 0.019290 1.000000
vt  0.956550 0.019290 1.000000
vt  0.866988 0.676539 1.000000
vt  0.776347 0.678349 1.000000
vt  0.866448 0.678349 1.000000
vt  0.956550 0.678349 1.000000
vt  0.776887 0.090925 1.000000
vt  0.776887 0.676539 1.000000
vt  0.957090 0.090925 1.000000
vt  0.957090 0.676539 1.000000
vt  0.866988 0.019290 1.000000
vt  0.776347 0.019290 1.000000
vt  0.866448 0.019290 1.000000
vt  0.956550 0.019290 1.000000
vt  0.866988 0.678349 1.000000
vt  0.776347 0.678349 1.000000
vt  0.866448 0.678349 1.000000
vt  0.956550 0.678349 1.000000
vt  0.776887 0.019290 1.000000
vt  0.776887 0.678349 1.000000
vt  0.957090 0.019290 1.000000
vt  0.957090 0.678349 1.000000
vt  0.866988 0.019290 1.000000
vt  0.776347 0.019290 1.000000
vt  0.866448 0.019290 1.000000
vt  0.956550 0.019290 1.000000
vt  0.866988 0.678349 1.000000
vt  0.776347 0.678349 1.000000
vt  0.866448 0.678349 1.000000
vt  0.956550 0.678349 1.000000
vt  0.776887 0.019290 1.000000
vt  0.776887 0.678349 1.000000
vt  0.957090 0.019290 1.000000
vt  0.957090 0.678349 1.000000
vt  0.667418 0.245173 -0.250000
vt  0.602379 0.180133 -0.250000
vt  0.537339 0.245173 -0.250000
vt  0.602379 0.310212 -0.250000
vt  0.667418 0.245173 -0.250000
vt  0.602379 0.180133 -0.250000
vt  0.537339 0.245173 -0.250000
vt  0.602379 0.310212 -0.250000
vt  0.672738 0.248355 -0.250000
vt  0.601305 0.176922 -0.250000
vt  0.529872 0.248355 -0.250000
vt  0.601305 0.319789 -0.250000
vt  0.672738 0.248355 -0.250000
vt  0.601305 0.176922 -0.250000
vt  0.529872 0.248355 -0.250000
vt  0.601305 0.319789 -0.250000
# 64 texture vertices

vn  -2.221441 -0.000000 0.785398
vn  -0.000001 2.221441 1.570796
vn  2.221441 0.000001 0.785398
vn  0.000000 -2.221441 1.570797
vn  -1.000000 0.000000 -0.000000
vn  -0.000000 1.000000 -0.000000
vn  1.000000 -0.000000 0.000000
vn  -0.000000 -1.000000 0.000000
vn  -2.221441 -0.000000 0.785398
vn  -0.000001 2.221441 1.570796
vn  2.221441 0.000001 0.785398
vn  -0.000001 -2.221442 1.570797
vn  -1.000000 -0.000000 -0.000000
vn  0.000000 1.000000 -0.000000
vn  1.000000 -0.000000 0.000000
vn  -0.000000 -1.000000 0.000000
vn  -2.876330 1.156909 0.000000
vn  0.000000 0.827775 -1.263459
vn  2.876330 1.156909 0.000001
vn  -0.000000 0.827776 1.263461
vn  -1.000000 0.000000 0.000000
vn  0.000000 -0.000000 -1.000000
vn  1.000000 -0.000000 0.000000
vn  -0.000000 0.000000 1.000000
vn  -2.876330 1.156909 -0.000001
vn  -0.000000 0.827775 -1.263460
vn  2.876330 1.156909 -0.000000
vn  -0.000000 0.827775 1.263459
vn  -1.000000 -0.000000 0.000000
vn  -0.000000 -0.000000 -1.000000
vn  1.000000 0.000000 0.000000
vn  -0.000000 0.000000 1.000000
# 32 vertex normals

g bar
s 1
f 17/25/17 18/33/18 22/34/22
f 22/34/22 21/29/21 17/25/17
f 18/26/18 19/27/19 23/31/23
f 23/31/23 22/30/22 18/26/18
f 19/27/19 20/28/20 24/32/24
f 24/32/24 23/31/23 19/27/19
f 20/35/20 17/25/17 21/29/21
f 21/29/21 24/36/24 20/35/20
f 19/82/19 18/83/18 17/84/17
f 17/84/17 20/81/20 19/82/19
f 25/37/25 26/45/26 30/46/30
f 30/46/30 29/41/29 25/37/25
f 26/38/26 27/39/27 31/43/31
f 31/43/31 30/42/30 26/38/26
f 27/39/27 28/40/28 32/44/32
f 32/44/32 31/43/31 27/39/27
f 28/47/28 25/37/25 29/41/29
f 29/41/29 32/48/32 28/47/28
f 27/86/27 26/87/26 25/88/25
f 25/88/25 28/85/28 27/86/27
f 33/49/33 34/57/34 38/58/38
f 38/58/38 37/53/37 33/49/33
f 34/50/34 35/51/35 39/55/39
f 39/55/39 38/54/38 34/50/34
f 35/51/35 36/52/36 40/56/40
f 40/56/40 39/55/39 35/51/35
f 36/59/36 33/49/33 37/53/37
f 37/53/37 40/60/40 36/59/36
f 35/74/35 34/75/34 33/76/33
f 33/76/33 36/73/36 35/74/35
f 41/61/41 42/69/42 46/70/46
f 46/70/46 45/65/45 41/61/41
f 42/62/42 43/63/43 47/67/47
f 47/67/47 46/66/46 42/62/42
f 43/63/43 44/64/44 48/68/48
f 48/68/48 47/67/47 43/63/43
f 44/71/44 41/61/41 45/65/45
f 45/65/45 48/72/48 44/71/44
f 43/78/43 42/79/42 41/80/41
f 41/80/41 44/77/44 43/78/43
# 40 faces

g
