# Max2Obj Version 4.0 Mar 10th, 2001
#
# object side to come ...
#
v  -0.000004 0.000004 0.000002
v  0.000000 143.961090 -5.980827
v  100.000000 0.000000 -0.000002
v  100.000000 143.961090 -5.980831
v  -0.000004 0.000004 0.000002
v  0.000000 143.961090 -5.830144
v  100.000000 0.000000 -0.000002
v  100.000000 143.961090 -5.830151
# 8 vertices

vt  0.030638 0.021878 0.299993
vt  0.030638 0.965370 0.999500
vt  0.968461 0.021878 0.299993
vt  0.968461 0.965370 0.999501
vt  0.030638 0.021878 0.299993
vt  0.030638 0.965370 0.999500
vt  0.968461 0.021878 0.299993
vt  0.968461 0.965370 0.999501
# 8 texture vertices

vn  0.000000 0.041509 0.999138
vn  0.000000 0.041509 0.999138
vn  0.000000 0.041509 0.999138
vn  0.000000 0.041509 0.999138
vn  -0.000000 -0.040465 -0.999181
vn  -0.000000 -0.040465 -0.999181
vn  -0.000000 -0.040465 -0.999181
vn  -0.000000 -0.040465 -0.999181
# 8 vertex normals

g side
s 64
f 2/2/2 1/1/1 3/3/3
f 3/3/3 4/4/4 2/2/2
f 6/6/6 8/8/8 7/7/7
f 7/7/7 5/5/5 6/6/6
# 4 faces

g
# object center to come ...
#
v  40.851528 -0.224480 -96.883568
v  25.834408 143.736603 -96.883568
v  40.851528 -0.224487 -6.433189
v  25.834408 143.736603 -6.433189
v  40.787975 -0.224480 -96.883568
v  25.770847 143.736603 -96.883568
v  40.787975 -0.224487 -6.433189
v  25.770847 143.736603 -6.433189
v  4.774811 -0.224480 -41.114494
v  4.774811 143.736603 -26.097374
v  95.225189 -0.224487 -41.114498
v  95.225189 143.736603 -26.097378
v  4.774811 -0.224480 -41.050941
v  4.774811 143.736603 -26.033813
v  95.225189 -0.224487 -41.050945
v  95.225189 143.736603 -26.033817
v  4.774811 -0.224480 -58.790836
v  4.774811 143.736603 -73.807953
v  95.225189 -0.224487 -58.790836
v  95.225182 143.736603 -73.807953
v  4.774811 -0.224480 -58.854389
v  4.774811 143.736603 -73.871513
v  95.225189 -0.224487 -58.854389
v  95.225182 143.736603 -73.871513
v  58.874500 -0.224480 -96.883568
v  73.891617 143.736603 -96.883568
v  58.874500 -0.224487 -6.433189
v  73.891617 143.736603 -6.433189
v  58.938053 -0.224480 -96.883568
v  73.955185 143.736603 -96.883568
v  58.938053 -0.224487 -6.433189
v  73.955185 143.736603 -6.433189
v  13.954845 0.000008 -13.834248
v  13.918034 143.961090 -13.871067
v  84.665527 0.000000 -84.544930
v  84.628716 143.961090 -84.581749
v  13.954845 0.000008 -13.834248
v  14.024582 143.961090 -13.764519
v  84.665527 0.000000 -84.544930
v  84.735260 143.961090 -84.475204
v  85.208817 0.000008 -14.254730
v  85.172005 143.961090 -14.217918
v  14.498138 0.000000 -84.965408
v  14.461319 143.961090 -84.928589
v  85.208817 0.000008 -14.254730
v  85.278549 143.961090 -14.324467
v  14.498138 0.000000 -84.965408
v  14.567867 143.961090 -85.035141
# 48 vertices

vt  0.030638 0.021878 0.299993
vt  0.030638 0.965370 0.999500
vt  0.968461 0.021878 0.299993
vt  0.968461 0.965370 0.999501
vt  0.030638 0.021878 0.299993
vt  0.030638 0.965370 0.999500
vt  0.968461 0.021878 0.299993
vt  0.968461 0.965370 0.999501
vt  0.030638 0.021878 0.299993
vt  0.030638 0.965370 0.999500
vt  0.968461 0.021878 0.299993
vt  0.968461 0.965370 0.999501
vt  0.030638 0.021878 0.299993
vt  0.030638 0.965370 0.999500
vt  0.968461 0.021878 0.299993
vt  0.968461 0.965370 0.999501
vt  0.030638 0.021878 0.299993
vt  0.030638 0.965370 0.999500
vt  0.968461 0.021878 0.299993
vt  0.968461 0.965370 0.999501
vt  0.030638 0.021878 0.299993
vt  0.030638 0.965370 0.999500
vt  0.968461 0.021878 0.299993
vt  0.968461 0.965370 0.999501
vt  0.030638 0.021878 0.299993
vt  0.030638 0.965370 0.999500
vt  0.968461 0.021878 0.299993
vt  0.968461 0.965370 0.999501
vt  0.030638 0.021878 0.299993
vt  0.030638 0.965370 0.999500
vt  0.968461 0.021878 0.299993
vt  0.968461 0.965370 0.999501
vt  0.030638 0.021878 0.299993
vt  0.030638 0.965370 0.999500
vt  0.968461 0.021878 0.299993
vt  0.968461 0.965370 0.999501
vt  0.030638 0.021878 0.299993
vt  0.030638 0.965370 0.999500
vt  0.968461 0.021878 0.299993
vt  0.968461 0.965370 0.999501
vt  0.030638 0.021878 0.299993
vt  0.030638 0.965370 0.999500
vt  0.968461 0.021878 0.299993
vt  0.968461 0.965370 0.999501
vt  0.030638 0.021878 0.299993
vt  0.030638 0.965370 0.999500
vt  0.968461 0.021878 0.299993
vt  0.968461 0.965370 0.999501
# 48 texture vertices

vn  0.994603 0.103751 0.000000
vn  0.994603 0.103751 0.000000
vn  0.994603 0.103751 0.000000
vn  0.994603 0.103751 0.000000
vn  -0.994603 -0.103751 -0.000000
vn  -0.994603 -0.103751 -0.000000
vn  -0.994603 -0.103751 -0.000000
vn  -0.994603 -0.103751 0.000000
vn  -0.000000 0.103751 -0.994603
vn  -0.000000 0.103751 -0.994603
vn  -0.000000 0.103751 -0.994603
vn  -0.000000 0.103751 -0.994603
vn  0.000000 -0.103751 0.994603
vn  0.000000 -0.103751 0.994603
vn  0.000000 -0.103751 0.994603
vn  0.000000 -0.103751 0.994603
vn  0.000000 0.103751 0.994603
vn  0.000000 0.103751 0.994603
vn  0.000000 0.103751 0.994603
vn  0.000000 0.103751 0.994603
vn  -0.000000 -0.103751 -0.994603
vn  -0.000000 -0.103751 -0.994603
vn  -0.000000 -0.103751 -0.994603
vn  0.000000 -0.103751 -0.994603
vn  -0.994603 0.103751 0.000000
vn  -0.994603 0.103751 0.000000
vn  -0.994603 0.103751 0.000000
vn  -0.994603 0.103751 0.000000
vn  0.994603 -0.103751 -0.000000
vn  0.994603 -0.103751 -0.000000
vn  0.994603 -0.103751 -0.000000
vn  0.994603 -0.103751 0.000000
vn  0.707107 0.000362 0.707107
vn  0.707107 0.000362 0.707107
vn  0.707107 0.000362 0.707107
vn  0.707107 0.000362 0.707107
vn  -0.707107 0.000685 -0.707107
vn  -0.707107 0.000685 -0.707107
vn  -0.707107 0.000685 -0.707107
vn  -0.707107 0.000685 -0.707107
vn  0.707107 0.000362 -0.707107
vn  0.707107 0.000362 -0.707107
vn  0.707107 0.000362 -0.707107
vn  0.707107 0.000362 -0.707107
vn  -0.707107 0.000685 0.707107
vn  -0.707107 0.000685 0.707107
vn  -0.707107 0.000685 0.707107
vn  -0.707107 0.000685 0.707107
# 48 vertex normals

g center
s 64
f 10/10/10 12/12/12 11/11/11
f 11/11/11 9/9/9 10/10/10
f 14/14/14 13/13/13 15/15/15
f 15/15/15 16/16/16 14/14/14
f 18/18/18 20/20/20 19/19/19
f 19/19/19 17/17/17 18/18/18
f 22/22/22 21/21/21 23/23/23
f 23/23/23 24/24/24 22/22/22
f 26/26/26 25/25/25 27/27/27
f 27/27/27 28/28/28 26/26/26
f 30/30/30 32/32/32 31/31/31
f 31/31/31 29/29/29 30/30/30
f 34/34/34 33/33/33 35/35/35
f 35/35/35 36/36/36 34/34/34
f 38/38/38 40/40/40 39/39/39
f 39/39/39 37/37/37 38/38/38
f 42/42/42 41/41/41 43/43/43
f 43/43/43 44/44/44 42/42/42
f 46/46/46 48/48/48 47/47/47
f 47/47/47 45/45/45 46/46/46
f 50/50/50 49/49/49 51/51/51
f 51/51/51 52/52/52 50/50/50
f 54/54/54 56/56/56 55/55/55
f 55/55/55 53/53/53 54/54/54
# 24 faces

g
# object top to come ...
#
v  -0.000019 94.855545 -0.054295
v  -0.000011 99.919601 -99.945694
v  99.999985 94.855545 -0.054287
v  99.999992 99.919601 -99.945694
v  -0.000019 95.079391 -0.054295
v  -0.000011 100.118011 -99.945694
v  99.999985 95.079391 -0.054287
v  99.999992 100.118011 -99.945694
v  -0.000027 94.855545 -99.945686
v  -0.000011 99.919601 -0.054279
v  99.999977 94.855545 -99.945702
v  99.999992 99.919601 -0.054295
v  -0.000027 95.079391 -99.945686
v  -0.000011 100.118011 -0.054279
v  99.999977 95.079391 -99.945702
v  99.999992 100.118011 -0.054295
# 16 vertices

vt  0.030638 0.965370 0.999500
vt  0.030638 0.021878 0.000500
vt  0.968461 0.965370 0.999501
vt  0.968461 0.021878 0.000500
vt  0.030638 0.965370 0.999500
vt  0.030638 0.021878 0.000500
vt  0.968461 0.965370 0.999501
vt  0.968461 0.021878 0.000500
vt  0.030638 0.965370 0.999500
vt  0.030638 0.021878 0.000500
vt  0.968461 0.965370 0.999501
vt  0.968461 0.021878 0.000500
vt  0.030638 0.965370 0.999500
vt  0.030638 0.021878 0.000500
vt  0.968461 0.965370 0.999501
vt  0.968461 0.021878 0.000500
# 16 texture vertices

vn  0.000000 -0.998717 -0.050631
vn  0.000000 -0.998717 -0.050631
vn  0.000000 -0.998717 -0.050631
vn  0.000000 -0.998717 -0.050631
vn  -0.000000 0.998730 0.050377
vn  -0.000000 0.998730 0.050377
vn  -0.000000 0.998730 0.050377
vn  0.000000 0.998730 0.050377
vn  -0.000000 0.998717 -0.050631
vn  -0.000000 0.998717 -0.050631
vn  -0.000000 0.998717 -0.050631
vn  -0.000000 0.998717 -0.050631
vn  0.000000 -0.998730 0.050377
vn  0.000000 -0.998730 0.050377
vn  0.000000 -0.998730 0.050377
vn  0.000000 -0.998730 0.050377
# 16 vertex normals

g top
s 32
f 58/58/58 60/60/60 59/59/59
f 59/59/59 57/57/57 58/58/58
f 62/62/62 61/61/61 63/63/63
f 63/63/63 64/64/64 62/62/62
f 66/66/66 68/68/68 67/67/67
f 67/67/67 65/65/65 66/66/66
f 70/70/70 69/69/69 71/71/71
f 71/71/71 72/72/72 70/70/70
# 8 faces

g
