# Max2Obj Version 4.0 Mar 10th, 2001
#
# object base to come ...
#
v  80.052406 0.272364 -50.000000
v  71.250244 0.272364 -71.250244
v  82.326195 12.867459 -82.326195
v  95.716141 12.867459 -50.000000
v  50.000000 0.272364 -80.052406
v  50.000000 12.867459 -95.716141
v  28.749754 0.272364 -71.250244
v  17.673805 12.867459 -82.326195
v  19.947594 0.272364 -50.000000
v  4.283856 12.867459 -50.000000
v  28.749754 0.272364 -28.749754
v  17.673805 12.867459 -17.673805
v  50.000000 0.272364 -19.947594
v  50.000000 12.867459 -4.283856
v  71.250244 0.272364 -28.749754
v  82.326195 12.867459 -17.673805
v  84.783875 30.757349 -84.783875
v  99.191750 30.757349 -50.000000
v  50.000000 30.757349 -99.191750
v  15.216124 30.757349 -84.783875
v  0.808248 30.757349 -50.000000
v  15.216124 30.757349 -15.216124
v  50.000000 30.757349 -0.808248
v  84.783875 30.757349 -15.216124
v  77.760307 43.097740 -77.760307
v  71.078140 46.615349 -71.078140
v  79.808968 46.615349 -50.000000
v  89.259102 43.097740 -50.000000
v  50.000000 43.097740 -89.258972
v  50.000000 46.615349 -79.808968
v  22.239695 43.097740 -77.760307
v  28.921864 46.615349 -71.078140
v  10.740899 43.097740 -50.000000
v  20.191031 46.615349 -50.000000
v  22.239695 43.097740 -22.239695
v  28.921864 46.615349 -28.921864
v  50.000000 43.097740 -10.740899
v  50.000000 46.615349 -20.191031
v  77.760307 43.097740 -22.239695
v  71.078140 46.615349 -28.921864
v  68.054955 39.975697 -31.945044
v  75.533516 39.975697 -50.000000
v  68.054955 39.975697 -68.054955
v  50.000000 39.975697 -75.533516
v  50.000000 39.975697 -24.466486
v  71.250244 53.695393 -71.250244
v  80.052406 53.695393 -50.000000
v  50.000000 53.695393 -80.052406
v  28.749754 53.695393 -71.250244
v  19.947594 53.695393 -50.000000
v  28.749754 53.695393 -28.749754
v  50.000000 53.695393 -19.947594
v  71.250244 53.695393 -28.749754
v  67.382271 53.695393 -67.382271
v  74.582176 53.695393 -50.000000
v  50.000000 53.695393 -74.582176
v  32.617729 53.695393 -67.382271
v  25.417826 53.695393 -50.000000
v  32.617729 53.695393 -32.617729
v  50.000000 53.695393 -25.417826
v  67.382271 53.695393 -32.617729
v  31.945044 39.975697 -68.054955
v  24.466486 39.975697 -50.000000
v  31.945044 39.975697 -31.945044
# 64 vertices

vt  0.978540 0.636015 0.305500
vt  0.978540 0.434085 0.216000
vt  0.941162 0.434085 0.328600
vt  0.941162 0.636015 0.464700
vt  0.978540 0.267913 0.000000
vt  0.941162 0.267913 0.000000
vt  0.978540 0.434085 -0.216000
vt  0.941162 0.434085 -0.328600
vt  0.978540 0.636015 -0.305500
vt  0.941162 0.636015 -0.464700
vt  0.978540 0.837789 -0.216000
vt  0.941162 0.837789 -0.328600
vt  0.978540 0.988170 0.000000
vt  0.941162 0.988170 0.000000
vt  0.978540 0.837789 0.216000
vt  0.941162 0.837789 0.328600
vt  0.831636 0.434085 0.353500
vt  0.831636 0.636015 0.500000
vt  0.831636 0.267913 0.000000
vt  0.831636 0.434085 -0.353500
vt  0.831636 0.636015 -0.500000
vt  0.831636 0.837789 -0.353500
vt  0.831636 0.988170 0.000000
vt  0.831636 0.837789 0.353500
vt  0.765191 0.434085 0.282200
vt  0.722826 0.434085 0.214200
vt  0.722826 0.636015 0.303000
vt  0.765191 0.636015 0.399000
vt  0.765191 0.267913 0.000000
vt  0.722826 0.267913 0.000000
vt  0.765191 0.434085 -0.282200
vt  0.722826 0.434085 -0.214200
vt  0.765191 0.636015 -0.399000
vt  0.722826 0.636015 -0.303000
vt  0.765191 0.837789 -0.282200
vt  0.722826 0.837789 -0.214200
vt  0.765191 0.988170 0.000000
vt  0.722826 0.988170 0.000000
vt  0.765191 0.837789 0.282200
vt  0.722826 0.837789 0.214200
vt  0.363133 0.125117 0.000000
vt  0.469788 0.084387 0.000000
vt  0.576614 0.125117 0.000000
vt  0.609246 0.221931 0.000000
vt  0.323975 0.221931 0.000000
vt  0.668482 0.434085 0.216000
vt  0.668482 0.636015 0.305500
vt  0.668482 0.267913 0.000100
vt  0.668482 0.434085 -0.216000
vt  0.668482 0.636015 -0.305500
vt  0.668482 0.837789 -0.216000
vt  0.668482 0.988170 0.000000
vt  0.668482 0.837789 0.216000
vt  0.606190 0.434085 0.176700
vt  0.606190 0.636015 0.249900
vt  0.606190 0.267913 0.000100
vt  0.606190 0.434085 -0.176700
vt  0.606190 0.636015 -0.249900
vt  0.606190 0.837789 -0.176700
vt  0.606190 0.988170 0.000000
vt  0.606190 0.837789 0.176700
vt  0.534800 0.434085 0.183500
vt  0.534800 0.636015 0.259500
vt  0.534800 0.267913 0.000000
vt  0.534800 0.434085 -0.183500
vt  0.534800 0.636015 -0.259500
vt  0.534800 0.837789 -0.183500
vt  0.534800 0.988170 0.000100
vt  0.534800 0.837789 0.183500
vt  0.895927 0.506792 0.500000
vt  0.911328 0.469612 0.500000
vt  0.948508 0.454211 0.500000
vt  0.985689 0.469612 0.500000
vt  1.001090 0.506792 0.500000
vt  0.985689 0.543973 0.500000
vt  0.948508 0.559373 0.500000
vt  0.911328 0.543973 0.500000
# 77 texture vertices

vn  0.802457 -0.997966 0.000000
vn  0.567422 -0.997966 -0.567423
vn  0.793162 -0.617786 -0.793162
vn  1.121702 -0.617784 -0.000000
vn  0.000000 -0.997966 -0.802457
vn  -0.000000 -0.617784 -1.121702
vn  -0.567422 -0.997966 -0.567422
vn  -0.793162 -0.617786 -0.793162
vn  -0.802457 -0.997966 -0.000000
vn  -1.121702 -0.617784 0.000000
vn  -0.567422 -0.997966 0.567423
vn  -0.793162 -0.617786 0.793162
vn  -0.000000 -0.997966 0.802457
vn  0.000000 -0.617784 1.121702
vn  0.567422 -0.997966 0.567422
vn  0.793162 -0.617786 0.793162
vn  0.883411 0.281147 -0.883410
vn  1.249332 0.281145 -0.000001
vn  -0.000001 0.281148 -1.249331
vn  -0.883410 0.281146 -0.883412
vn  -1.249332 0.281145 0.000001
vn  -0.883412 0.281146 0.883410
vn  0.000001 0.281145 1.249332
vn  0.883410 0.281146 0.883412
vn  0.565844 0.999757 -0.565844
vn  0.700357 0.811711 -0.700356
vn  0.990453 0.811711 -0.000001
vn  0.800227 0.999754 -0.000002
vn  -0.000000 0.999756 -0.800225
vn  -0.000000 0.811708 -0.990456
vn  -0.565843 0.999757 -0.565845
vn  -0.700355 0.811711 -0.700357
vn  -0.800228 0.999754 0.000002
vn  -0.990453 0.811711 0.000001
vn  -0.565845 0.999757 0.565843
vn  -0.700357 0.811711 0.700355
vn  0.000002 0.999754 0.800228
vn  0.000001 0.811711 0.990453
vn  0.565843 0.999757 0.565845
vn  0.700355 0.811711 0.700357
vn  -0.721600 0.773601 -0.721601
vn  -1.020497 0.773601 0.000000
vn  -0.721601 0.773601 0.721600
vn  0.000000 0.773601 1.020497
vn  -0.000000 0.773601 -1.020497
vn  0.712372 0.790523 -0.712371
vn  1.007447 0.790521 -0.000001
vn  -0.000001 0.790521 -1.007447
vn  -0.712371 0.790523 -0.712372
vn  -1.007447 0.790521 0.000001
vn  -0.712372 0.790523 0.712371
vn  0.000001 0.790521 1.007447
vn  0.712371 0.790523 0.712372
vn  -0.561831 1.004274 0.561830
vn  -0.794552 1.004271 0.000000
vn  0.000000 1.004271 0.794552
vn  0.561830 1.004274 0.561831
vn  0.794552 1.004271 -0.000000
vn  0.561831 1.004274 -0.561830
vn  -0.000000 1.004271 -0.794552
vn  -0.561830 1.004274 -0.561831
vn  0.721600 0.773601 0.721601
vn  1.020497 0.773601 -0.000000
vn  0.721601 0.773601 -0.721600
# 64 vertex normals

g base
s 2
f 3/3/3 4/4/4 1/1/1
f 1/1/1 2/2/2 3/3/3
f 6/6/6 3/3/3 2/2/2
f 2/2/2 5/5/5 6/6/6
f 8/8/8 6/6/6 5/5/5
f 5/5/5 7/7/7 8/8/8
f 10/10/10 8/8/8 7/7/7
f 7/7/7 9/9/9 10/10/10
f 12/12/12 10/10/10 9/9/9
f 9/9/9 11/11/11 12/12/12
f 14/14/14 12/12/12 11/11/11
f 11/11/11 13/13/13 14/14/14
f 16/16/16 14/14/14 13/13/13
f 13/13/13 15/15/15 16/16/16
f 4/4/4 16/16/16 15/15/15
f 15/15/15 1/1/1 4/4/4
f 18/18/18 4/4/4 3/3/3
f 3/3/3 17/17/17 18/18/18
f 17/17/17 3/3/3 6/6/6
f 6/6/6 19/19/19 17/17/17
f 19/19/19 6/6/6 8/8/8
f 8/8/8 20/20/20 19/19/19
f 20/20/20 8/8/8 10/10/10
f 10/10/10 21/21/21 20/20/20
f 21/21/21 10/10/10 12/12/12
f 12/12/12 22/22/22 21/21/21
f 22/22/22 12/12/12 14/14/14
f 14/14/14 23/23/23 22/22/22
f 23/23/23 14/14/14 16/16/16
f 16/16/16 24/24/24 23/23/23
f 24/24/24 16/16/16 4/4/4
f 4/4/4 18/18/18 24/24/24
f 27/27/27 28/28/28 25/25/25
f 25/25/25 26/26/26 27/27/27
f 26/26/26 25/25/25 29/29/29
f 29/29/29 30/30/30 26/26/26
f 30/30/30 29/29/29 31/31/31
f 31/31/31 32/32/32 30/30/30
f 32/32/32 31/31/31 33/33/33
f 33/33/33 34/34/34 32/32/32
f 34/34/34 33/33/33 35/35/35
f 35/35/35 36/36/36 34/34/34
f 36/36/36 35/35/35 37/37/37
f 37/37/37 38/38/38 36/36/36
f 38/38/38 37/37/37 39/39/39
f 39/39/39 40/40/40 38/38/38
f 40/40/40 39/39/39 28/28/28
f 28/28/28 27/27/27 40/40/40
f 43/43/43 44/44/44 41/41/41
f 41/41/41 42/42/42 43/43/43
f 41/41/41 44/44/44 45/45/45
f 27/27/27 26/26/26 46/46/46
f 46/46/46 47/47/47 27/27/27
f 26/26/26 30/30/30 48/48/48
f 48/48/48 46/46/46 26/26/26
f 30/30/30 32/32/32 49/49/49
f 49/49/49 48/48/48 30/30/30
f 32/32/32 34/34/34 50/50/50
f 50/50/50 49/49/49 32/32/32
f 34/34/34 36/36/36 51/51/51
f 51/51/51 50/50/50 34/34/34
f 36/36/36 38/38/38 52/52/52
f 52/52/52 51/51/51 36/36/36
f 38/38/38 40/40/40 53/53/53
f 53/53/53 52/52/52 38/38/38
f 40/40/40 27/27/27 47/47/47
f 47/47/47 53/53/53 40/40/40
f 18/18/18 17/17/17 25/25/25
f 25/25/25 28/28/28 18/18/18
f 17/17/17 19/19/19 29/29/29
f 29/29/29 25/25/25 17/17/17
f 19/19/19 20/20/20 31/31/31
f 31/31/31 29/29/29 19/19/19
f 20/20/20 21/21/21 33/33/33
f 33/33/33 31/31/31 20/20/20
f 21/21/21 22/22/22 35/35/35
f 35/35/35 33/33/33 21/21/21
f 22/22/22 23/23/23 37/37/37
f 37/37/37 35/35/35 22/22/22
f 23/23/23 24/24/24 39/39/39
f 39/39/39 37/37/37 23/23/23
f 24/24/24 18/18/18 28/28/28
f 28/28/28 39/39/39 24/24/24
f 54/54/54 55/55/55 47/47/47
f 47/47/47 46/46/46 54/54/54
f 56/56/56 54/54/54 46/46/46
f 46/46/46 48/48/48 56/56/56
f 57/57/57 56/56/56 48/48/48
f 48/48/48 49/49/49 57/57/57
f 58/58/58 57/57/57 49/49/49
f 49/49/49 50/50/50 58/58/58
f 59/59/59 58/58/58 50/50/50
f 50/50/50 51/51/51 59/59/59
f 60/60/60 59/59/59 51/51/51
f 51/51/51 52/52/52 60/60/60
f 61/61/61 60/60/60 52/52/52
f 52/52/52 53/53/53 61/61/61
f 55/55/55 61/61/61 53/53/53
f 53/53/53 47/47/47 55/55/55
f 43/62/43 42/63/42 55/55/55
f 55/55/55 54/54/54 43/62/43
f 44/64/44 43/62/43 54/54/54
f 54/54/54 56/56/56 44/64/44
f 62/65/62 44/64/44 56/56/56
f 56/56/56 57/57/57 62/65/62
f 63/66/63 62/65/62 57/57/57
f 57/57/57 58/58/58 63/66/63
f 64/67/64 63/66/63 58/58/58
f 58/58/58 59/59/59 64/67/64
f 45/68/45 64/67/64 59/59/59
f 59/59/59 60/60/60 45/68/45
f 41/69/41 45/68/45 60/60/60
f 60/60/60 61/61/61 41/69/41
f 42/63/42 41/69/41 61/61/61
f 61/61/61 55/55/55 42/63/42
f 62/43/62 63/42/63 45/45/45
f 45/45/45 44/44/44 62/43/62
f 45/45/45 63/42/63 64/41/64
s 0
f 15/77/15 13/76/13 11/75/11
f 11/75/11 9/74/9 7/73/7
f 7/73/7 5/72/5 2/71/2
f 11/75/11 7/73/7 2/71/2
f 15/77/15 11/75/11 2/71/2
f 1/70/1 15/77/15 2/71/2
# 124 faces

g
