# Max2Obj Version 4.0 Mar 10th, 2001
#
# object base to come ...
#
v  77.452438 -0.296795 -50.000000
v  69.411736 -0.296795 -69.411736
v  76.301277 20.310827 -76.301277
v  87.195694 20.310827 -50.000000
v  50.000000 -0.296795 -77.452438
v  50.000000 20.310827 -87.195694
v  30.588266 -0.296795 -69.411736
v  23.698721 20.310827 -76.301277
v  22.547560 -0.296795 -50.000000
v  12.804306 20.310827 -50.000000
v  30.588266 -0.296795 -30.588266
v  23.698721 20.310827 -23.698721
v  50.000000 -0.296795 -22.547560
v  50.000000 20.310827 -12.804306
v  69.411736 -0.296795 -30.588266
v  76.301277 20.310827 -23.698721
v  76.301277 78.145561 -76.301277
v  87.195694 77.738678 -50.000000
v  50.000000 78.145561 -87.195694
v  23.698721 78.145561 -76.301277
v  12.804306 78.145561 -50.000000
v  23.698721 78.145561 -23.698721
v  50.000000 78.145561 -12.804306
v  76.301277 77.738678 -23.698721
v  68.648651 93.277191 -68.648651
v  76.373299 92.870300 -50.000000
v  50.000000 93.277191 -76.373299
v  31.351351 93.277191 -68.648651
v  23.626703 93.277191 -50.000000
v  31.351351 93.277191 -31.351351
v  50.000000 93.277191 -23.626703
v  68.648651 92.870300 -31.351351
v  64.399277 83.444489 -35.600719
v  70.363579 83.444489 -50.000000
v  29.636419 83.452744 -50.000000
v  35.600719 83.444489 -35.600719
v  50.000000 83.444489 -29.636419
v  68.574104 99.944946 -68.574104
v  76.267563 99.944946 -50.000000
v  50.000000 99.944946 -76.267563
v  31.425894 99.944946 -68.574104
v  23.732437 99.944946 -50.000000
v  31.425894 99.944946 -31.425894
v  50.000000 99.944946 -23.732437
v  68.574104 99.944946 -31.425894
v  64.956398 99.944946 -64.956398
v  71.151665 99.944946 -50.000000
v  50.000000 99.944946 -71.151665
v  35.043602 99.944946 -64.956398
v  28.848333 99.944946 -50.000000
v  35.043602 99.944946 -35.043602
v  50.000000 99.944946 -28.848333
v  64.956398 99.944946 -35.043602
v  64.399277 83.452744 -64.399277
v  50.000000 83.452744 -70.363579
v  35.600719 83.452744 -64.399277
# 56 vertices

vt  0.834394 0.026871 0.737300
vt  0.631428 0.026871 0.737300
vt  0.631428 0.154505 0.999000
vt  0.834394 0.154505 0.999000
vt  0.427290 0.026871 0.737300
vt  0.427290 0.154505 0.999000
vt  0.223348 0.026871 0.737300
vt  0.223348 0.154505 0.999000
vt  0.025287 0.026871 0.737300
vt  0.025287 0.154505 0.999000
vt  0.427485 0.026871 0.737300
vt  0.427485 0.154505 0.999000
vt  0.631428 0.544599 0.999000
vt  0.834394 0.544599 0.999000
vt  0.427290 0.544599 0.999000
vt  0.223348 0.544599 0.999000
vt  0.025287 0.544599 0.999000
vt  0.427485 0.544599 0.999000
vt  0.631428 0.654864 0.708300
vt  0.834394 0.654864 0.708300
vt  0.427290 0.654864 0.708300
vt  0.223348 0.654864 0.708300
vt  0.025287 0.654864 0.708300
vt  0.427485 0.654864 0.708300
vt  0.963485 0.334640 0.000000
vt  0.876528 0.374829 0.000000
vt  0.876528 0.099725 0.000000
vt  0.963485 0.140058 0.000000
vt  0.999406 0.237349 0.000000
vt  0.631428 0.762282 0.705500
vt  0.807267 0.762282 0.705500
vt  0.427290 0.762282 0.705500
vt  0.223348 0.762282 0.705500
vt  0.025287 0.762282 0.705500
vt  0.427485 0.762282 0.705500
vt  0.631428 0.907898 0.568100
vt  0.783652 0.907898 0.568100
vt  0.427290 0.907898 0.568100
vt  0.223348 0.907898 0.568100
vt  0.025287 0.907898 0.568100
vt  0.427485 0.907898 0.568100
vt  0.631428 0.997858 0.546900
vt  0.783652 0.997858 0.546900
vt  0.427290 0.997858 0.546900
vt  0.223348 0.997858 0.546900
vt  0.025287 0.997858 0.546900
vt  0.427485 0.997858 0.546900
vt  0.996165 0.862914 0.500000
vt  0.963403 0.783819 0.500000
vt  0.884308 0.751057 0.500000
vt  0.962862 0.783819 0.500000
vt  0.996868 0.862914 0.500000
vt  0.962862 0.942008 0.500000
vt  0.884308 0.974771 0.500000
vt  0.963403 0.942008 0.500000
# 55 texture vertices

vn  0.617209 -0.786799 0.000000
vn  0.436431 -0.786801 -0.436432
vn  0.691579 -0.208416 -0.691579
vn  0.978040 -0.208416 0.000000
vn  0.000000 -0.786799 -0.617209
vn  0.000000 -0.208416 -0.978040
vn  -0.436432 -0.786801 -0.436431
vn  -0.691579 -0.208416 -0.691579
vn  -0.617209 -0.786799 -0.000000
vn  -0.978040 -0.208416 -0.000000
vn  -0.436431 -0.786801 0.436432
vn  -0.691579 -0.208416 0.691579
vn  -0.000000 -0.786799 0.617209
vn  -0.000000 -0.208416 0.978040
vn  0.436432 -0.786801 0.436431
vn  0.691579 -0.208416 0.691579
vn  0.678723 0.287285 -0.675871
vn  0.958646 0.284595 0.001654
vn  0.000000 0.285763 -0.958300
vn  -0.677621 0.285764 -0.677620
vn  -0.958300 0.285763 -0.000000
vn  -0.677620 0.285764 0.677621
vn  0.001676 0.286926 0.957951
vn  0.679340 0.284240 0.676539
vn  0.668800 0.335066 -0.663655
vn  0.941158 0.337955 0.002944
vn  0.000003 0.336983 -0.941511
vn  -0.665756 0.336965 -0.665751
vn  -0.941511 0.336983 -0.000003
vn  -0.665751 0.336965 0.665756
vn  0.002883 0.335572 0.942010
vn  0.668015 0.338435 0.662735
vn  -0.538477 0.648152 -0.538463
vn  -0.761456 0.648216 0.000130
vn  0.761622 0.648022 0.000134
vn  0.538518 0.648255 -0.538297
vn  0.000002 0.648094 -0.761560
vn  0.545633 0.636161 -0.545512
vn  0.771800 0.635865 0.000004
vn  0.000004 0.636206 -0.771519
vn  -0.545560 0.636188 -0.545554
vn  -0.771519 0.636206 -0.000004
vn  -0.545554 0.636188 0.545560
vn  -0.000004 0.636206 0.771519
vn  0.545804 0.635874 0.545676
vn  -0.407518 0.817225 0.407520
vn  -0.576319 0.817225 0.000002
vn  -0.000002 0.817230 0.576312
vn  0.407520 0.817225 0.407518
vn  0.576315 0.817228 0.000005
vn  0.407525 0.817218 -0.407527
vn  0.000002 0.817223 -0.576321
vn  -0.407527 0.817218 -0.407525
vn  -0.538455 0.647995 0.538673
vn  -0.000002 0.648103 0.761553
vn  0.538503 0.648099 0.538500
# 56 vertex normals

g base
s 1
f 3/3/3 4/4/4 1/1/1
f 1/1/1 2/2/2 3/3/3
f 6/6/6 3/3/3 2/2/2
f 2/2/2 5/5/5 6/6/6
f 8/8/8 6/6/6 5/5/5
f 5/5/5 7/7/7 8/8/8
f 10/10/10 8/8/8 7/7/7
f 7/7/7 9/9/9 10/10/10
f 12/8/12 10/10/10 9/9/9
f 9/9/9 11/7/11 12/8/12
f 14/12/14 12/8/12 11/7/11
f 11/7/11 13/11/13 14/12/14
f 16/3/16 14/12/14 13/11/13
f 13/11/13 15/2/15 16/3/16
f 4/4/4 16/3/16 15/2/15
f 15/2/15 1/1/1 4/4/4
f 17/13/17 18/14/18 4/4/4
f 4/4/4 3/3/3 17/13/17
f 19/15/19 17/13/17 3/3/3
f 3/3/3 6/6/6 19/15/19
f 20/16/20 19/15/19 6/6/6
f 6/6/6 8/8/8 20/16/20
f 21/17/21 20/16/20 8/8/8
f 8/8/8 10/10/10 21/17/21
f 22/16/22 21/17/21 10/10/10
f 10/10/10 12/8/12 22/16/22
f 23/18/23 22/16/22 12/8/12
f 12/8/12 14/12/14 23/18/23
f 24/13/24 23/18/23 14/12/14
f 14/12/14 16/3/16 24/13/24
f 18/14/18 24/13/24 16/3/16
f 16/3/16 4/4/4 18/14/18
f 26/20/26 18/14/18 17/13/17
f 17/13/17 25/19/25 26/20/26
f 25/19/25 17/13/17 19/15/19
f 19/15/19 27/21/27 25/19/25
f 27/21/27 19/15/19 20/16/20
f 20/16/20 28/22/28 27/21/27
f 28/22/28 20/16/20 21/17/21
f 21/17/21 29/23/29 28/22/28
f 29/23/29 21/17/21 22/16/22
f 22/16/22 30/22/30 29/23/29
f 30/22/30 22/16/22 23/18/23
f 23/18/23 31/24/31 30/22/30
f 31/24/31 23/18/23 24/13/24
f 24/13/24 32/19/32 31/24/31
f 32/19/32 24/13/24 18/14/18
f 18/14/18 26/20/26 32/19/32
f 35/27/35 36/28/36 33/25/33
f 33/25/33 34/26/34 35/27/35
f 33/25/33 36/28/36 37/29/37
f 26/20/26 25/19/25 38/30/38
f 38/30/38 39/31/39 26/20/26
f 25/19/25 27/21/27 40/32/40
f 40/32/40 38/30/38 25/19/25
f 27/21/27 28/22/28 41/33/41
f 41/33/41 40/32/40 27/21/27
f 28/22/28 29/23/29 42/34/42
f 42/34/42 41/33/41 28/22/28
f 29/23/29 30/22/30 43/33/43
f 43/33/43 42/34/42 29/23/29
f 30/22/30 31/24/31 44/35/44
f 44/35/44 43/33/43 30/22/30
f 31/24/31 32/19/32 45/30/45
f 45/30/45 44/35/44 31/24/31
f 32/19/32 26/20/26 39/31/39
f 39/31/39 45/30/45 32/19/32
f 46/36/46 47/37/47 39/31/39
f 39/31/39 38/30/38 46/36/46
f 48/38/48 46/36/46 38/30/38
f 38/30/38 40/32/40 48/38/48
f 49/39/49 48/38/48 40/32/40
f 40/32/40 41/33/41 49/39/49
f 50/40/50 49/39/49 41/33/41
f 41/33/41 42/34/42 50/40/50
f 51/39/51 50/40/50 42/34/42
f 42/34/42 43/33/43 51/39/51
f 52/41/52 51/39/51 43/33/43
f 43/33/43 44/35/44 52/41/52
f 53/36/53 52/41/52 44/35/44
f 44/35/44 45/30/45 53/36/53
f 47/37/47 53/36/53 45/30/45
f 45/30/45 39/31/39 47/37/47
f 54/42/54 34/43/34 47/37/47
f 47/37/47 46/36/46 54/42/54
f 55/44/55 54/42/54 46/36/46
f 46/36/46 48/38/48 55/44/55
f 56/45/56 55/44/55 48/38/48
f 48/38/48 49/39/49 56/45/56
f 35/46/35 56/45/56 49/39/49
f 49/39/49 50/40/50 35/46/35
f 36/45/36 35/46/35 50/40/50
f 50/40/50 51/39/51 36/45/36
f 37/47/37 36/45/36 51/39/51
f 51/39/51 52/41/52 37/47/37
f 33/42/33 37/47/37 52/41/52
f 52/41/52 53/36/53 33/42/33
f 34/43/34 33/42/33 53/36/53
f 53/36/53 47/37/47 34/43/34
f 54/25/54 55/29/55 35/27/35
f 35/27/35 34/26/34 54/25/54
f 35/27/35 55/29/55 56/28/56
f 13/54/13 5/50/5 2/49/2
f 15/55/15 13/54/13 2/49/2
f 1/48/1 15/55/15 2/49/2
f 9/52/9 7/51/7 5/50/5
f 11/53/11 9/52/9 5/50/5
f 13/54/13 11/53/11 5/50/5
# 108 faces

g
