# Max2Obj Version 4.0 Mar 10th, 2001
#
# object base to come ...
#
v  50.000000 46.870800 -50.000000
v  34.131104 42.488998 -50.000000
v  42.065506 42.488998 -36.025902
v  26.991394 48.191898 -50.000000
v  38.495697 48.191898 -29.842800
v  20.059296 50.000000 -50.000000
v  35.029602 50.000000 -23.839401
v  18.174606 46.384201 -50.000000
v  34.087296 46.384201 -22.207100
v  23.840897 43.578701 -50.000000
v  36.920502 43.578701 -27.114401
v  19.173798 13.501700 -50.000000
v  34.586899 13.501700 -23.072500
v  23.470795 4.611900 -50.000000
v  36.735397 4.611900 -26.793800
v  30.594101 -0.054600 -50.000000
v  40.296997 -0.054600 -32.962799
v  57.934402 42.488998 -36.025902
v  61.504196 48.191898 -29.842800
v  64.970299 50.000000 -23.839401
v  65.912697 46.384201 -22.207100
v  63.079498 43.578701 -27.114401
v  65.413101 13.501700 -23.072500
v  63.264603 4.611900 -26.793800
v  59.702896 -0.054600 -32.962799
v  65.868896 42.488998 -50.000000
v  73.008499 48.191898 -50.000000
v  79.940697 50.000000 -50.000000
v  81.825401 46.384201 -50.000000
v  76.158997 43.578701 -50.000000
v  80.826202 13.501700 -50.000000
v  76.529198 4.611900 -50.000000
v  69.405899 -0.054600 -50.000000
v  42.065506 42.488998 -63.974201
v  38.495697 48.191898 -70.157303
v  35.029602 50.000000 -76.160706
v  34.087296 46.384201 -77.792900
v  36.920502 43.578701 -72.885696
v  34.586899 13.501700 -76.927597
v  36.735397 4.611900 -73.206200
v  40.296997 -0.054600 -67.037300
v  57.934402 42.488998 -63.974201
v  61.504196 48.191898 -70.157303
v  64.970299 50.000000 -76.160706
v  65.912697 46.384201 -77.792900
v  63.079498 43.578701 -72.885696
v  65.413101 13.501700 -76.927597
v  63.264603 4.611900 -73.206200
v  59.702896 -0.054600 -67.037300
# 49 vertices

vt  0.379700 0.999500 0.000000
vt  0.321200 0.965600 0.000000
vt  0.354200 0.965600 0.000000
vt  0.286600 0.941200 0.000000
vt  0.342100 0.941200 0.000000
vt  0.257000 0.920000 0.000000
vt  0.334700 0.920000 0.000000
vt  0.243900 0.902300 0.000000
vt  0.333700 0.902300 0.000000
vt  0.249300 0.875900 0.000000
vt  0.334600 0.875900 0.000000
vt  0.239700 0.753000 0.000000
vt  0.334000 0.753000 0.000000
vt  0.254900 0.713100 0.000000
vt  0.337900 0.713100 0.000000
vt  0.273900 0.682800 0.000000
vt  0.341700 0.682800 0.000000
vt  0.405200 0.965600 0.000000
vt  0.417300 0.941200 0.000000
vt  0.424700 0.920000 0.000000
vt  0.425700 0.902300 0.000000
vt  0.424800 0.875900 0.000000
vt  0.425400 0.753000 0.000000
vt  0.421500 0.713100 0.000000
vt  0.417700 0.682800 0.000000
vt  0.438100 0.965600 0.000000
vt  0.472700 0.941200 0.000000
vt  0.502300 0.920000 0.000000
vt  0.515500 0.902300 0.000000
vt  0.510100 0.875900 0.000000
vt  0.519800 0.753000 0.000000
vt  0.504600 0.713100 0.000000
vt  0.485600 0.682800 0.000000
vt  0.234800 0.489400 0.000000
vt  0.267300 0.489400 0.000000
vt  0.283500 0.456800 0.000000
vt  0.234800 0.424100 0.000000
vt  0.267300 0.424100 0.000000
vt  0.218600 0.456800 0.000000
# 39 texture vertices

vn  0.000000 1.000000 0.000001
vn  0.333689 0.942683 -0.000001
vn  0.170213 0.941573 -0.290635
vn  0.390443 0.920627 -0.000000
vn  0.195722 0.921104 -0.336542
vn  -0.548192 0.836353 -0.000000
vn  -0.275852 0.835541 0.475160
vn  -0.965934 -0.258788 0.000000
vn  -0.484343 -0.258486 0.835821
vn  -0.828971 -0.559292 0.000001
vn  -0.415796 -0.560664 0.716079
vn  -0.990799 -0.135338 0.000001
vn  -0.496940 -0.135315 0.857170
vn  -0.784629 -0.619965 0.000000
vn  -0.393808 -0.619790 0.678804
vn  -0.367049 -0.930202 0.000001
vn  -0.185136 -0.929749 0.318262
vn  -0.169610 0.941644 -0.290754
vn  -0.195553 0.921056 -0.336772
vn  0.275780 0.835580 0.475134
vn  0.484350 -0.258553 0.835796
vn  0.415919 -0.560508 0.716130
vn  0.496941 -0.135476 0.857144
vn  0.394025 -0.619816 0.678655
vn  0.185519 -0.929698 0.318191
vn  -0.333296 0.942822 -0.000001
vn  -0.390672 0.920530 -0.000001
vn  0.548083 0.836424 0.000001
vn  0.965895 -0.258933 0.000000
vn  0.829178 -0.558984 0.000001
vn  0.990756 -0.135658 0.000001
vn  0.784589 -0.620017 0.000000
vn  0.367313 -0.930098 0.000000
vn  0.170214 0.941572 0.290635
vn  0.195722 0.921104 0.336542
vn  -0.275854 0.835535 -0.475169
vn  -0.484345 -0.258492 -0.835818
vn  -0.415796 -0.560661 -0.716081
vn  -0.496940 -0.135319 -0.857170
vn  -0.393809 -0.619792 -0.678802
vn  -0.185136 -0.929748 -0.318266
vn  -0.169611 0.941644 0.290754
vn  -0.195553 0.921056 0.336771
vn  0.275781 0.835574 -0.475143
vn  0.484351 -0.258559 -0.835793
vn  0.415920 -0.560505 -0.716132
vn  0.496940 -0.135479 -0.857144
vn  0.394026 -0.619818 -0.678653
vn  0.185520 -0.929696 -0.318194
# 49 vertex normals

g base
s 1
f 1/1/1 2/2/2 3/3/3
f 5/5/5 3/3/3 2/2/2
f 2/2/2 4/4/4 5/5/5
f 7/7/7 5/5/5 4/4/4
f 4/4/4 6/6/6 7/7/7
f 9/9/9 7/7/7 6/6/6
f 6/6/6 8/8/8 9/9/9
f 11/11/11 9/9/9 8/8/8
f 8/8/8 10/10/10 11/11/11
f 13/13/13 11/11/11 10/10/10
f 10/10/10 12/12/12 13/13/13
f 15/15/15 13/13/13 12/12/12
f 12/12/12 14/14/14 15/15/15
f 17/17/17 15/15/15 14/14/14
f 14/14/14 16/16/16 17/17/17
f 1/1/1 3/3/3 18/18/18
f 19/19/19 18/18/18 3/3/3
f 3/3/3 5/5/5 19/19/19
f 20/20/20 19/19/19 5/5/5
f 5/5/5 7/7/7 20/20/20
f 21/21/21 20/20/20 7/7/7
f 7/7/7 9/9/9 21/21/21
f 22/22/22 21/21/21 9/9/9
f 9/9/9 11/11/11 22/22/22
f 23/23/23 22/22/22 11/11/11
f 11/11/11 13/13/13 23/23/23
f 24/24/24 23/23/23 13/13/13
f 13/13/13 15/15/15 24/24/24
f 25/25/25 24/24/24 15/15/15
f 15/15/15 17/17/17 25/25/25
f 1/1/1 18/18/18 26/26/26
f 27/27/27 26/26/26 18/18/18
f 18/18/18 19/19/19 27/27/27
f 28/28/28 27/27/27 19/19/19
f 19/19/19 20/20/20 28/28/28
f 29/29/29 28/28/28 20/20/20
f 20/20/20 21/21/21 29/29/29
f 30/30/30 29/29/29 21/21/21
f 21/21/21 22/22/22 30/30/30
f 31/31/31 30/30/30 22/22/22
f 22/22/22 23/23/23 31/31/31
f 32/32/32 31/31/31 23/23/23
f 23/23/23 24/24/24 32/32/32
f 33/33/33 32/32/32 24/24/24
f 24/24/24 25/25/25 33/33/33
f 1/1/1 34/3/34 2/2/2
f 35/5/35 4/4/4 2/2/2
f 2/2/2 34/3/34 35/5/35
f 36/7/36 6/6/6 4/4/4
f 4/4/4 35/5/35 36/7/36
f 37/9/37 8/8/8 6/6/6
f 6/6/6 36/7/36 37/9/37
f 38/11/38 10/10/10 8/8/8
f 8/8/8 37/9/37 38/11/38
f 39/13/39 12/12/12 10/10/10
f 10/10/10 38/11/38 39/13/39
f 40/15/40 14/14/14 12/12/12
f 12/12/12 39/13/39 40/15/40
f 41/17/41 16/16/16 14/14/14
f 14/14/14 40/15/40 41/17/41
f 1/1/1 42/18/42 34/3/34
f 43/19/43 35/5/35 34/3/34
f 34/3/34 42/18/42 43/19/43
f 44/20/44 36/7/36 35/5/35
f 35/5/35 43/19/43 44/20/44
f 45/21/45 37/9/37 36/7/36
f 36/7/36 44/20/44 45/21/45
f 46/22/46 38/11/38 37/9/37
f 37/9/37 45/21/45 46/22/46
f 47/23/47 39/13/39 38/11/38
f 38/11/38 46/22/46 47/23/47
f 48/24/48 40/15/40 39/13/39
f 39/13/39 47/23/47 48/24/48
f 49/25/49 41/17/41 40/15/40
f 40/15/40 48/24/48 49/25/49
f 1/1/1 26/26/26 42/18/42
f 27/27/27 43/19/43 42/18/42
f 42/18/42 26/26/26 27/27/27
f 28/28/28 44/20/44 43/19/43
f 43/19/43 27/27/27 28/28/28
f 29/29/29 45/21/45 44/20/44
f 44/20/44 28/28/28 29/29/29
f 30/30/30 46/22/46 45/21/45
f 45/21/45 29/29/29 30/30/30
f 31/31/31 47/23/47 46/22/46
f 46/22/46 30/30/30 31/31/31
f 32/32/32 48/24/48 47/23/47
f 47/23/47 31/31/31 32/32/32
f 33/33/33 49/25/49 48/24/48
f 48/24/48 32/32/32 33/33/33
f 33/36/33 17/37/17 41/34/41
f 41/34/41 49/35/49 33/36/33
f 33/36/33 25/38/25 17/37/17
f 16/39/16 41/34/41 17/37/17
# 94 faces

g
