# Max2Obj Version 4.0 Mar 10th, 2001
#
# object base to come ...
#
v  50.000000 91.393303 -49.999950
v  38.404396 85.595497 -49.999950
v  44.202202 85.595497 -39.957848
v  31.385902 95.360199 -49.999950
v  40.693001 95.360199 -33.879749
v  24.367500 100.000000 -49.999950
v  37.183800 100.000000 -27.801649
v  21.621201 98.716904 -49.999950
v  35.810600 98.716904 -25.423250
v  29.249901 94.139603 -49.999950
v  39.624901 94.139702 -32.029850
v  33.521896 81.323402 -49.999950
v  41.761002 81.323502 -35.729549
v  30.165298 64.845398 -49.999950
v  40.082695 64.845398 -32.822647
v  14.907997 22.735001 -50.000050
v  32.454002 22.735001 -19.609449
v  19.180099 9.308502 -50.000050
v  34.590096 9.308502 -23.309151
v  31.080795 0.000000 -50.000050
v  40.540398 0.000000 -33.615448
v  55.797798 85.595497 -39.957848
v  59.307098 95.360199 -33.879749
v  62.816200 100.000000 -27.801649
v  64.189400 98.716904 -25.423250
v  60.375099 94.139702 -32.029850
v  58.238998 81.323502 -35.729549
v  59.917297 64.845398 -32.822647
v  67.545998 22.735001 -19.609449
v  65.410004 9.308502 -23.309151
v  59.459599 0.000000 -33.615448
v  61.595699 85.595497 -49.999950
v  68.614098 95.360199 -49.999950
v  75.632500 100.000000 -49.999950
v  78.378799 98.716904 -49.999950
v  70.750198 94.139603 -49.999950
v  66.478104 81.323402 -49.999950
v  69.834702 64.845398 -49.999950
v  85.091995 22.735001 -50.000050
v  80.820000 9.308502 -50.000050
v  68.919197 0.000000 -50.000050
v  44.202202 85.595497 -60.042152
v  40.693001 95.360199 -66.120255
v  37.183800 100.000000 -72.198349
v  35.810600 98.716904 -74.576752
v  39.624901 94.139603 -67.970154
v  41.761002 81.323402 -64.270447
v  40.082695 64.845398 -67.177353
v  32.454002 22.735001 -80.390549
v  34.590096 9.308601 -76.690849
v  40.540398 0.000000 -66.384552
v  55.797798 85.595497 -60.042152
v  59.307098 95.360199 -66.120255
v  62.816200 100.000000 -72.198349
v  64.189400 98.716904 -74.576752
v  60.375099 94.139603 -67.970154
v  58.238998 81.323402 -64.270447
v  59.917297 64.845398 -67.177353
v  67.545998 22.735001 -80.390549
v  65.410004 9.308601 -76.690849
v  59.459599 0.000000 -66.384552
# 61 vertices

vt  0.004000 0.395500 0.000000
vt  0.059900 0.287100 0.000000
vt  0.059900 0.351500 0.000000
vt  0.127900 0.197700 0.000000
vt  0.127900 0.320000 0.000000
vt  0.178300 0.117500 0.000000
vt  0.178300 0.302600 0.000000
vt  0.203000 0.117500 0.000000
vt  0.203000 0.302600 0.000000
vt  0.266400 0.147700 0.000000
vt  0.266400 0.311200 0.000000
vt  0.362000 0.185500 0.000000
vt  0.362000 0.321800 0.000000
vt  0.479200 0.158500 0.000000
vt  0.479200 0.313900 0.000000
vt  0.792400 0.024400 0.000000
vt  0.792400 0.275500 0.000000
vt  0.899900 0.054800 0.000000
vt  0.899900 0.282800 0.000000
vt  0.996600 0.132500 0.000000
vt  0.996600 0.298600 0.000000
vt  0.059900 0.439600 0.000000
vt  0.127900 0.471000 0.000000
vt  0.178300 0.488400 0.000000
vt  0.203000 0.488400 0.000000
vt  0.266400 0.479800 0.000000
vt  0.362000 0.469200 0.000000
vt  0.479200 0.477100 0.000000
vt  0.792400 0.515500 0.000000
vt  0.899900 0.508300 0.000000
vt  0.996600 0.492500 0.000000
vt  0.059900 0.504000 0.000000
vt  0.127900 0.593300 0.000000
vt  0.178300 0.673500 0.000000
vt  0.203000 0.673500 0.000000
vt  0.266400 0.643400 0.000000
vt  0.362000 0.605500 0.000000
vt  0.479200 0.632500 0.000000
vt  0.792400 0.766700 0.000000
vt  0.899900 0.736200 0.000000
vt  0.996600 0.658600 0.000000
vt  0.234100 0.387800 0.000000
vt  0.272100 0.387800 0.000000
vt  0.291100 0.349800 0.000000
vt  0.234100 0.311800 0.000000
vt  0.272100 0.311800 0.000000
vt  0.215100 0.349800 0.000000
# 47 texture vertices

vn  -0.000001 1.000000 0.000002
vn  0.417257 0.908789 -0.000001
vn  0.208630 0.908787 -0.361358
vn  0.659918 0.751338 -0.000001
vn  0.329959 0.751335 -0.571509
vn  -0.088399 0.996085 0.000000
vn  -0.044195 0.996086 0.076552
vn  -0.999145 0.041344 0.000002
vn  -0.499572 0.041344 0.865285
vn  -0.727123 -0.686507 0.000003
vn  -0.363560 -0.686512 0.629703
vn  -0.997820 -0.065997 0.000002
vn  -0.498908 -0.066001 0.864138
vn  -0.960825 0.277155 0.000001
vn  -0.480411 0.277155 0.832100
vn  -0.999838 0.018011 -0.000001
vn  -0.499920 0.018011 0.865885
vn  -0.847832 -0.530265 -0.000001
vn  -0.423915 -0.530265 0.734245
vn  -0.415109 -0.909772 -0.000001
vn  -0.207556 -0.909771 0.359495
vn  -0.208627 0.908788 -0.361357
vn  -0.329962 0.751335 -0.571508
vn  0.044195 0.996086 0.076550
vn  0.499572 0.041345 0.865285
vn  0.363558 -0.686512 0.629705
vn  0.498907 -0.066002 0.864139
vn  0.480411 0.277154 0.832100
vn  0.499919 0.018013 0.865885
vn  0.423917 -0.530264 0.734244
vn  0.207555 -0.909772 0.359495
vn  -0.417262 0.908786 -0.000001
vn  -0.659919 0.751336 -0.000001
vn  0.088399 0.996085 0.000000
vn  0.999145 0.041346 0.000001
vn  0.727123 -0.686507 0.000001
vn  0.997819 -0.066002 0.000002
vn  0.960825 0.277155 0.000002
vn  0.999838 0.018014 -0.000001
vn  0.847832 -0.530264 -0.000001
vn  0.415107 -0.909772 -0.000001
vn  0.208632 0.908786 0.361359
vn  0.329960 0.751336 0.571508
vn  -0.044195 0.996086 -0.076552
vn  -0.499573 0.041348 -0.865285
vn  -0.363563 -0.686507 -0.629706
vn  -0.498909 -0.066000 -0.864138
vn  -0.480412 0.277155 -0.832099
vn  -0.499919 0.018011 -0.865885
vn  -0.423915 -0.530264 -0.734246
vn  -0.207556 -0.909770 -0.359498
vn  -0.208629 0.908787 0.361358
vn  -0.329963 0.751335 0.571507
vn  0.044196 0.996086 -0.076551
vn  0.499573 0.041348 -0.865284
vn  0.363562 -0.686507 -0.629707
vn  0.498908 -0.066001 -0.864138
vn  0.480412 0.277155 -0.832099
vn  0.499918 0.018013 -0.865885
vn  0.423916 -0.530263 -0.734245
vn  0.207555 -0.909770 -0.359498
# 61 vertex normals

g base
s 1
f 1/1/1 2/2/2 3/3/3
f 5/5/5 3/3/3 2/2/2
f 2/2/2 4/4/4 5/5/5
f 7/7/7 5/5/5 4/4/4
f 4/4/4 6/6/6 7/7/7
f 9/9/9 7/7/7 6/6/6
f 6/6/6 8/8/8 9/9/9
f 11/11/11 9/9/9 8/8/8
f 8/8/8 10/10/10 11/11/11
f 13/13/13 11/11/11 10/10/10
f 10/10/10 12/12/12 13/13/13
f 15/15/15 13/13/13 12/12/12
f 12/12/12 14/14/14 15/15/15
f 17/17/17 15/15/15 14/14/14
f 14/14/14 16/16/16 17/17/17
f 19/19/19 17/17/17 16/16/16
f 16/16/16 18/18/18 19/19/19
f 21/21/21 19/19/19 18/18/18
f 18/18/18 20/20/20 21/21/21
f 1/1/1 3/3/3 22/22/22
f 23/23/23 22/22/22 3/3/3
f 3/3/3 5/5/5 23/23/23
f 24/24/24 23/23/23 5/5/5
f 5/5/5 7/7/7 24/24/24
f 25/25/25 24/24/24 7/7/7
f 7/7/7 9/9/9 25/25/25
f 26/26/26 25/25/25 9/9/9
f 9/9/9 11/11/11 26/26/26
f 27/27/27 26/26/26 11/11/11
f 11/11/11 13/13/13 27/27/27
f 28/28/28 27/27/27 13/13/13
f 13/13/13 15/15/15 28/28/28
f 29/29/29 28/28/28 15/15/15
f 15/15/15 17/17/17 29/29/29
f 30/30/30 29/29/29 17/17/17
f 17/17/17 19/19/19 30/30/30
f 31/31/31 30/30/30 19/19/19
f 19/19/19 21/21/21 31/31/31
f 1/1/1 22/22/22 32/32/32
f 33/33/33 32/32/32 22/22/22
f 22/22/22 23/23/23 33/33/33
f 34/34/34 33/33/33 23/23/23
f 23/23/23 24/24/24 34/34/34
f 35/35/35 34/34/34 24/24/24
f 24/24/24 25/25/25 35/35/35
f 36/36/36 35/35/35 25/25/25
f 25/25/25 26/26/26 36/36/36
f 37/37/37 36/36/36 26/26/26
f 26/26/26 27/27/27 37/37/37
f 38/38/38 37/37/37 27/27/27
f 27/27/27 28/28/28 38/38/38
f 39/39/39 38/38/38 28/28/28
f 28/28/28 29/29/29 39/39/39
f 40/40/40 39/39/39 29/29/29
f 29/29/29 30/30/30 40/40/40
f 41/41/41 40/40/40 30/30/30
f 30/30/30 31/31/31 41/41/41
f 1/1/1 42/3/42 2/2/2
f 43/5/43 4/4/4 2/2/2
f 2/2/2 42/3/42 43/5/43
f 44/7/44 6/6/6 4/4/4
f 4/4/4 43/5/43 44/7/44
f 45/9/45 8/8/8 6/6/6
f 6/6/6 44/7/44 45/9/45
f 46/11/46 10/10/10 8/8/8
f 8/8/8 45/9/45 46/11/46
f 47/13/47 12/12/12 10/10/10
f 10/10/10 46/11/46 47/13/47
f 48/15/48 14/14/14 12/12/12
f 12/12/12 47/13/47 48/15/48
f 49/17/49 16/16/16 14/14/14
f 14/14/14 48/15/48 49/17/49
f 50/19/50 18/18/18 16/16/16
f 16/16/16 49/17/49 50/19/50
f 51/21/51 20/20/20 18/18/18
f 18/18/18 50/19/50 51/21/51
f 1/1/1 52/22/52 42/3/42
f 53/23/53 43/5/43 42/3/42
f 42/3/42 52/22/52 53/23/53
f 54/24/54 44/7/44 43/5/43
f 43/5/43 53/23/53 54/24/54
f 55/25/55 45/9/45 44/7/44
f 44/7/44 54/24/54 55/25/55
f 56/26/56 46/11/46 45/9/45
f 45/9/45 55/25/55 56/26/56
f 57/27/57 47/13/47 46/11/46
f 46/11/46 56/26/56 57/27/57
f 58/28/58 48/15/48 47/13/47
f 47/13/47 57/27/57 58/28/58
f 59/29/59 49/17/49 48/15/48
f 48/15/48 58/28/58 59/29/59
f 60/30/60 50/19/50 49/17/49
f 49/17/49 59/29/59 60/30/60
f 61/31/61 51/21/51 50/19/50
f 50/19/50 60/30/60 61/31/61
f 1/1/1 32/32/32 52/22/52
f 33/33/33 53/23/53 52/22/52
f 52/22/52 32/32/32 33/33/33
f 34/34/34 54/24/54 53/23/53
f 53/23/53 33/33/33 34/34/34
f 35/35/35 55/25/55 54/24/54
f 54/24/54 34/34/34 35/35/35
f 36/36/36 56/26/56 55/25/55
f 55/25/55 35/35/35 36/36/36
f 37/37/37 57/27/57 56/26/56
f 56/26/56 36/36/36 37/37/37
f 38/38/38 58/28/58 57/27/57
f 57/27/57 37/37/37 38/38/38
f 39/39/39 59/29/59 58/28/58
f 58/28/58 38/38/38 39/39/39
f 40/40/40 60/30/60 59/29/59
f 59/29/59 39/39/39 40/40/40
f 41/41/41 61/31/61 60/30/60
f 60/30/60 40/40/40 41/41/41
f 41/44/41 21/45/21 51/42/51
f 51/42/51 61/43/61 41/44/41
f 41/44/41 31/46/31 21/45/21
f 20/47/20 51/42/51 21/45/21
# 118 faces

g
