# 3ds Max Wavefront OBJ Exporter v0.97b - (c)2007 guruware
# File Created: 20.01.2021 17:00:09

#
# object lower
#

v  0.0000 0.0000 0.0000
v  0.0000 100.0017 0.0000
v  0.0000 100.0017 -7.1842
v  0.0000 0.0000 -7.1842
v  50.0000 0.0000 -7.1842
v  50.0000 0.0000 0.0000
v  50.0000 100.0017 0.0000
v  100.0000 0.0000 0.0000
v  100.0000 0.0000 -7.1842
v  100.0000 100.0017 -7.1842
v  100.0000 100.0017 0.0000
v  0.0000 -0.0000 -14.3698
v  0.0000 100.0017 -14.3698
v  50.0000 -0.0000 -14.3698
v  50.0000 100.0017 -14.3698
v  100.0000 -0.0000 -14.3698
v  100.0000 100.0017 -14.3698
v  16.8340 100.0754 7.6825
v  16.1185 97.4051 7.6825
v  16.1185 97.4051 3.9301
v  16.8340 100.0754 3.9301
v  14.1637 95.4502 7.6825
v  14.1637 95.4502 3.9301
v  11.4933 94.7347 7.6825
v  11.4933 94.7347 3.9301
v  8.8230 95.4502 7.6825
v  8.8230 95.4502 3.9301
v  6.8682 97.4051 7.6825
v  6.8682 97.4051 3.9301
v  6.1527 100.0754 7.6825
v  6.1527 100.0754 3.9301
v  6.8682 102.7457 7.6825
v  6.8682 102.7457 3.9301
v  8.8230 104.7006 7.6825
v  8.8230 104.7006 3.9301
v  11.4933 105.4161 7.6825
v  11.4933 105.4161 3.9301
v  14.1637 104.7006 7.6825
v  14.1637 104.7006 3.9301
v  16.1185 102.7458 7.6825
v  16.1185 102.7458 3.9301
v  14.8752 98.1229 3.9300
v  15.3984 100.0754 3.9300
v  13.4459 96.6936 3.9300
v  11.4933 96.1704 3.9300
v  9.5408 96.6936 3.9300
v  8.1115 98.1229 3.9300
v  7.5883 100.0754 3.9300
v  8.1115 102.0279 3.9300
v  9.5408 103.4572 3.9300
v  11.4933 103.9804 3.9300
v  13.4459 103.4572 3.9300
v  14.8752 102.0279 3.9300
v  11.4933 100.0754 7.6825
v  14.8752 98.1229 -0.7137
v  15.3984 100.0754 -0.7137
v  13.4459 96.6936 -0.7137
v  11.4933 96.1704 -0.7137
v  9.5408 96.6936 -0.7137
v  8.1115 98.1229 -0.7137
v  7.5883 100.0754 -0.7137
v  8.1115 102.0279 -0.7137
v  9.5408 103.4572 -0.7137
v  11.4933 103.9804 -0.7137
v  13.4459 103.4572 -0.7137
v  14.8752 102.0279 -0.7137
v  -1.6388 83.8232 -1.8769
v  -1.6388 99.9973 -1.8769
v  -1.6388 99.9973 -7.1842
v  -1.6388 83.8232 -7.1842
v  8.0242 83.8232 -7.1842
v  8.0242 83.8232 -1.8769
v  8.0242 99.9973 -1.8769
v  -1.6388 99.9973 -12.4916
v  -1.6388 83.8232 -12.4916
v  8.0242 83.8232 -12.4916
v  8.0242 99.9973 -12.4916
# 77 vertices

vn -1.0000 0.0000 -0.0000
vn 0.0000 -1.0000 -0.0000
vn 0.0000 -1.0000 0.0000
vn 0.0000 0.0000 1.0000
vn -0.0000 -0.0000 1.0000
vn -0.0000 0.0000 1.0000
vn 1.0000 0.0000 -0.0000
vn 0.0000 -0.0000 1.0000
vn 0.0000 0.0000 -1.0000
vn 0.7572 0.0000 0.6532
vn 0.6557 -0.3786 0.6532
vn 0.8660 -0.5000 -0.0000
vn 0.3786 -0.6557 0.6532
vn 0.5000 -0.8660 -0.0000
vn -0.0000 -0.7572 0.6532
vn -0.3786 -0.6557 0.6532
vn -0.5000 -0.8660 -0.0000
vn -0.6557 -0.3786 0.6532
vn -0.8660 -0.5000 -0.0000
vn -0.7572 0.0000 0.6532
vn -1.0000 -0.0000 -0.0000
vn -0.6557 0.3786 0.6532
vn -0.8660 0.5000 -0.0000
vn -0.3786 0.6557 0.6532
vn -0.5000 0.8660 -0.0000
vn -0.0000 0.7572 0.6532
vn -0.0000 1.0000 -0.0000
vn 0.3786 0.6557 0.6532
vn 0.5000 0.8660 -0.0000
vn 0.6557 0.3786 0.6532
vn 0.8660 0.5000 -0.0000
vn 0.0000 -0.0000 -1.0000
vn -0.0000 -0.0000 -1.0000
vn -0.0000 0.0000 -1.0000
vn 1.0000 -0.0000 -0.0000
# 35 vertex normals

vt 0.6397 0.0098 0.0000
vt 0.6397 0.4926 0.0000
vt 0.5042 0.4926 0.0000
vt 0.5042 0.0098 0.0000
vt 0.6750 0.0161 0.0000
vt 0.6750 0.0763 0.0000
vt 0.9846 0.0763 0.0000
vt 0.9846 0.0161 0.0000
vt 0.0194 0.4952 0.0000
vt 0.0202 0.0133 0.0000
vt 0.4715 0.0133 0.0000
vt 0.4760 0.4940 0.0000
vt 0.9066 0.5456 0.0000
vt 0.9350 0.5456 0.0000
vt 0.9350 0.6430 0.0000
vt 0.9066 0.6430 0.0000
vt 0.9635 0.5456 0.0000
vt 0.9635 0.6430 0.0000
vt 0.9919 0.5456 0.0000
vt 0.9919 0.6430 0.0000
vt 0.6508 0.5456 0.0000
vt 0.6792 0.5456 0.0000
vt 0.6792 0.6430 0.0000
vt 0.6508 0.6430 0.0000
vt 0.7077 0.5456 0.0000
vt 0.7077 0.6430 0.0000
vt 0.7361 0.5456 0.0000
vt 0.7361 0.6430 0.0000
vt 0.7645 0.5456 0.0000
vt 0.7645 0.6430 0.0000
vt 0.7929 0.5456 0.0000
vt 0.7929 0.6430 0.0000
vt 0.8214 0.5456 0.0000
vt 0.8214 0.6430 0.0000
vt 0.8498 0.5456 0.0000
vt 0.8498 0.6430 0.0000
vt 0.8782 0.5456 0.0000
vt 0.8782 0.6430 0.0000
vt 0.7108 0.5329 0.0000
vt 0.7108 0.4960 0.0000
vt 0.7389 0.4960 0.0000
vt 0.7389 0.5329 0.0000
vt 0.6824 0.5329 0.0000
vt 0.6824 0.4960 0.0000
vt 0.6533 0.5329 0.0000
vt 0.6533 0.4960 0.0000
vt 0.9627 0.5329 0.0000
vt 0.9627 0.4960 0.0000
vt 0.9915 0.4960 0.0000
vt 0.9915 0.5329 0.0000
vt 0.9348 0.5329 0.0000
vt 0.9348 0.4960 0.0000
vt 0.9071 0.5329 0.0000
vt 0.9071 0.4960 0.0000
vt 0.8792 0.5329 0.0000
vt 0.8792 0.4960 0.0000
vt 0.8513 0.5329 0.0000
vt 0.8513 0.4960 0.0000
vt 0.8232 0.5329 0.0000
vt 0.8232 0.4960 0.0000
vt 0.7949 0.5329 0.0000
vt 0.7949 0.4960 0.0000
vt 0.7670 0.5329 0.0000
vt 0.7670 0.4960 0.0000
vt 0.9655 0.9073 0.0000
vt 0.8211 0.8234 0.0000
vt 0.9879 0.8234 0.0000
vt 0.7108 0.4488 0.0000
vt 0.7389 0.4488 0.0000
vt 0.6824 0.4488 0.0000
vt 0.6533 0.4488 0.0000
vt 0.9627 0.4488 0.0000
vt 0.9915 0.4488 0.0000
vt 0.9348 0.4488 0.0000
vt 0.9071 0.4488 0.0000
vt 0.8792 0.4488 0.0000
vt 0.8513 0.4488 0.0000
vt 0.8232 0.4488 0.0000
vt 0.7949 0.4488 0.0000
vt 0.7670 0.4488 0.0000
vt 0.6543 0.8234 0.0000
vt 0.6766 0.7396 0.0000
vt 0.7377 0.9687 0.0000
vt 0.6766 0.9073 0.0000
vt 0.8211 0.9912 0.0000
vt 0.9045 0.6782 0.0000
vt 0.9655 0.7396 0.0000
vt 0.8211 0.6557 0.0000
vt 0.9045 0.9687 0.0000
vt 0.7377 0.6782 0.0000
vt 0.6755 0.2766 0.0000
vt 0.7844 0.2766 0.0000
vt 0.7844 0.4379 0.0000
vt 0.6755 0.4379 0.0000
vt 0.6688 0.1597 0.0000
vt 0.6688 0.1952 0.0000
vt 0.9835 0.1952 0.0000
vt 0.9835 0.1597 0.0000
vt 0.9840 0.3499 0.0000
vt 0.9085 0.3503 0.0000
vt 0.9086 0.2700 0.0000
vt 0.9832 0.2700 0.0000
# 102 texture coords

g lower
s 2
f 1/1/1 2/2/1 3/3/1 
f 3/3/1 4/4/1 1/1/1 
s 4
f 1/5/2 4/6/3 5/7/3 
f 5/7/3 6/8/2 1/5/2 
s 1
f 2/9/4 1/10/4 6/11/5 
f 6/11/5 7/12/6 2/9/4 
s 2
f 8/1/7 9/4/7 10/3/7 
f 10/3/7 11/2/7 8/1/7 
s 4
f 8/5/2 6/8/2 5/7/3 
f 5/7/3 9/6/3 8/5/2 
s 1
f 11/9/5 7/12/6 6/11/5 
f 6/11/5 8/10/8 11/9/5 
s 2
f 12/1/1 4/4/1 3/3/1 
f 3/3/1 13/2/1 12/1/1 
s 4
f 12/5/3 14/8/3 5/7/3 
f 5/7/3 4/6/3 12/5/3 
s 1
f 13/9/9 15/12/9 14/11/9 
f 14/11/9 12/10/9 13/9/9 
s 2
f 16/1/7 17/2/7 10/3/7 
f 10/3/7 9/4/7 16/1/7 
s 4
f 16/5/3 9/6/3 5/7/3 
f 5/7/3 14/8/3 16/5/3 
s 1
f 17/9/9 16/10/9 14/11/9 
f 14/11/9 15/12/9 17/9/9 
f 18/13/10 19/14/11 20/15/12 
f 20/15/12 21/16/7 18/13/10 
f 19/14/11 22/17/13 23/18/14 
f 23/18/14 20/15/12 19/14/11 
f 22/17/13 24/19/15 25/20/2 
f 25/20/2 23/18/14 22/17/13 
f 24/21/15 26/22/16 27/23/17 
f 27/23/17 25/24/2 24/21/15 
f 26/22/16 28/25/18 29/26/19 
f 29/26/19 27/23/17 26/22/16 
f 28/25/18 30/27/20 31/28/21 
f 31/28/21 29/26/19 28/25/18 
f 30/27/20 32/29/22 33/30/23 
f 33/30/23 31/28/21 30/27/20 
f 32/29/22 34/31/24 35/32/25 
f 35/32/25 33/30/23 32/29/22 
f 34/31/24 36/33/26 37/34/27 
f 37/34/27 35/32/25 34/31/24 
f 36/33/26 38/35/28 39/36/29 
f 39/36/29 37/34/27 36/33/26 
f 38/35/28 40/37/30 41/38/31 
f 41/38/31 39/36/29 38/35/28 
f 40/37/30 18/13/10 21/16/7 
f 21/16/7 41/38/31 40/37/30 
s 2
f 20/39/32 42/40/32 43/41/9 
f 43/41/9 21/42/9 20/39/32 
f 23/43/32 44/44/32 42/40/32 
f 42/40/32 20/39/32 23/43/32 
f 25/45/33 45/46/33 44/44/32 
f 44/44/32 23/43/32 25/45/33 
f 27/47/33 46/48/33 45/49/33 
f 45/49/33 25/50/33 27/47/33 
f 29/51/33 47/52/33 46/48/33 
f 46/48/33 27/47/33 29/51/33 
f 31/53/34 48/54/34 47/52/33 
f 47/52/33 29/51/33 31/53/34 
f 33/55/34 49/56/34 48/54/34 
f 48/54/34 31/53/34 33/55/34 
f 35/57/34 50/58/34 49/56/34 
f 49/56/34 33/55/34 35/57/34 
f 37/59/34 51/60/34 50/58/34 
f 50/58/34 35/57/34 37/59/34 
f 39/61/9 52/62/9 51/60/34 
f 51/60/34 37/59/34 39/61/9 
f 41/63/9 53/64/9 52/62/9 
f 52/62/9 39/61/9 41/63/9 
f 21/42/9 43/41/9 53/64/9 
f 53/64/9 41/63/9 21/42/9 
s 1
f 40/65/30 54/66/5 18/67/10 
f 55/68/12 56/69/35 43/41/35 
f 43/41/35 42/40/12 55/68/12 
f 57/70/14 55/68/12 42/40/12 
f 42/40/12 44/44/14 57/70/14 
f 58/71/2 57/70/14 44/44/14 
f 44/44/14 45/46/2 58/71/2 
f 59/72/17 58/73/2 45/49/2 
f 45/49/2 46/48/17 59/72/17 
f 60/74/19 59/72/17 46/48/17 
f 46/48/17 47/52/19 60/74/19 
f 61/75/21 60/74/19 47/52/19 
f 47/52/19 48/54/21 61/75/21 
f 62/76/23 61/75/21 48/54/21 
f 48/54/21 49/56/23 62/76/23 
f 63/77/25 62/76/23 49/56/23 
f 49/56/23 50/58/25 63/77/25 
f 64/78/27 63/77/25 50/58/25 
f 50/58/25 51/60/27 64/78/27 
f 65/79/29 64/78/27 51/60/27 
f 51/60/27 52/62/29 65/79/29 
f 66/80/31 65/79/29 52/62/29 
f 52/62/29 53/64/31 66/80/31 
f 56/69/35 66/80/31 53/64/31 
f 53/64/31 43/41/35 56/69/35 
f 30/81/20 28/82/18 54/66/5 
f 34/83/24 32/84/22 54/66/5 
f 54/66/5 36/85/26 34/83/24 
f 22/86/13 19/87/11 54/66/5 
f 54/66/5 24/88/15 22/86/13 
f 32/84/22 30/81/20 54/66/5 
f 38/89/28 36/85/26 54/66/5 
f 54/66/5 40/65/30 38/89/28 
f 26/90/16 24/88/15 54/66/5 
f 54/66/5 28/82/18 26/90/16 
f 19/87/11 18/67/10 54/66/5 
f 67/91/1 68/92/1 69/93/1 
f 69/93/1 70/94/1 67/91/1 
s 4
f 67/95/2 70/96/2 71/97/2 
f 71/97/2 72/98/2 67/95/2 
s 2
f 73/99/4 68/100/4 67/101/4 
f 67/101/4 72/102/4 73/99/4 
s 1
f 69/93/1 74/92/1 75/91/1 
f 75/91/1 70/94/1 69/93/1 
s 4
f 75/95/2 76/98/2 71/97/2 
f 71/97/2 70/96/2 75/95/2 
s 2
f 75/101/9 74/100/9 77/99/9 
f 77/99/9 76/102/9 75/101/9 
# 120 faces

#
# object upper
#

v  0.0000 100.0000 0.0000
v  0.0000 100.0000 -7.1842
v  0.0000 0.0017 -7.1842
v  0.0000 0.0017 0.0000
v  50.0000 100.0000 0.0000
v  50.0000 100.0000 -7.1842
v  50.0000 0.0017 0.0000
v  100.0000 100.0000 0.0000
v  100.0000 0.0017 0.0000
v  100.0000 0.0017 -7.1842
v  100.0000 100.0000 -7.1842
v  0.0000 100.0000 -14.3698
v  0.0000 0.0017 -14.3698
v  50.0000 100.0000 -14.3698
v  50.0000 0.0017 -14.3698
v  100.0000 100.0000 -14.3698
v  100.0000 0.0017 -14.3698
v  8.0242 17.6563 -7.1842
v  -1.6388 17.6563 -7.1842
v  -1.6388 17.6563 -1.8769
v  8.0242 17.6563 -1.8769
v  8.0242 17.6563 -12.4916
v  -1.6388 17.6563 -12.4916
v  -1.6388 -0.0027 -7.1842
v  -1.6388 -0.0027 -1.8769
v  8.0242 -0.0027 -1.8769
v  -1.6388 -0.0027 -12.4916
v  8.0242 -0.0027 -12.4916
# 28 vertices

vn -1.0000 0.0000 -0.0000
vn 0.0000 1.0000 -0.0000
vn 0.0000 -0.0000 1.0000
vn -0.0000 -0.0000 1.0000
vn -0.0000 0.0000 1.0000
vn 1.0000 0.0000 -0.0000
vn 0.0000 0.0000 -1.0000
vn 0.0000 0.0000 1.0000
# 8 vertex normals

vt 0.6397 0.9753 0.0000
vt 0.5042 0.9753 0.0000
vt 0.5042 0.4926 0.0000
vt 0.6397 0.4926 0.0000
vt 0.6693 0.1495 0.0000
vt 0.6693 0.0934 0.0000
vt 0.9820 0.0934 0.0000
vt 0.9820 0.1495 0.0000
vt 0.0185 0.9772 0.0000
vt 0.0194 0.4952 0.0000
vt 0.4760 0.4940 0.0000
vt 0.4805 0.9748 0.0000
vt 0.9811 0.2642 0.0000
vt 0.6688 0.2642 0.0000
vt 0.6688 0.2125 0.0000
vt 0.9811 0.2125 0.0000
vt 0.8934 0.2766 0.0000
vt 0.8934 0.4379 0.0000
vt 0.7844 0.4379 0.0000
vt 0.7844 0.2766 0.0000
vt 0.9848 0.4297 0.0000
vt 0.9085 0.4305 0.0000
vt 0.9085 0.3503 0.0000
vt 0.9840 0.3499 0.0000
# 24 texture coords

g upper
s 2
f 78/103/36 79/104/36 80/105/36 
f 80/105/36 81/106/36 78/103/36 
s 4
f 79/107/37 78/108/37 82/109/37 
f 82/109/37 83/110/37 79/107/37 
s 1
f 78/111/38 81/112/38 84/113/39 
f 84/113/39 82/114/40 78/111/38 
s 2
f 85/103/41 86/106/41 87/105/41 
f 87/105/41 88/104/41 85/103/41 
s 4
f 88/107/37 83/110/37 82/109/37 
f 82/109/37 85/108/37 88/107/37 
s 1
f 85/111/40 82/114/40 84/113/39 
f 84/113/39 86/112/40 85/111/40 
s 2
f 89/103/36 90/106/36 80/105/36 
f 80/105/36 79/104/36 89/103/36 
s 4
f 79/107/37 83/110/37 91/109/37 
f 91/109/37 89/108/37 79/107/37 
s 1
f 89/111/42 91/114/42 92/113/42 
f 92/113/42 90/112/42 89/111/42 
s 2
f 93/103/41 88/104/41 87/105/41 
f 87/105/41 94/106/41 93/103/41 
s 4
f 88/107/37 93/108/37 91/109/37 
f 91/109/37 83/110/37 88/107/37 
s 1
f 93/111/42 94/112/42 92/113/42 
f 92/113/42 91/114/42 93/111/42 
s 4
f 95/115/37 96/116/37 97/117/37 
f 97/117/37 98/118/37 95/115/37 
f 95/115/37 99/118/37 100/117/37 
f 100/117/37 96/116/37 95/115/37 
s 1
f 97/119/36 96/120/36 101/121/36 
f 101/121/36 102/122/36 97/119/36 
s 2
f 98/123/43 97/124/43 102/125/43 
f 102/125/43 103/126/43 98/123/43 
s 1
f 96/120/36 100/119/36 104/122/36 
f 104/122/36 101/121/36 96/120/36 
s 2
f 100/124/42 99/123/42 105/126/42 
f 105/126/42 104/125/42 100/124/42 
# 36 faces

