# 3ds Max Wavefront OBJ Exporter v0.97b - (c)2007 guruware
# File Created: 20.01.2021 15:21:22

#
# object base
#

v  94.7990 83.7928 -5.2011
v  50.0001 83.7928 -5.2011
v  50.0001 83.7928 -50.0000
v  94.7990 83.7928 -50.0000
v  100.0001 91.4805 -0.0000
v  100.0001 91.4805 -50.0000
v  100.0001 100.0000 -50.0000
v  100.0001 100.0000 -0.0000
v  50.0001 91.4805 -0.0000
v  80.4315 10.2266 -19.5686
v  80.4315 10.2266 -50.0000
v  50.0001 10.2266 -50.0000
v  50.0001 10.2266 -19.5686
v  80.4315 0.2760 -19.5686
v  80.4315 0.2760 -50.0000
v  50.0001 0.2760 -19.5686
v  50.0001 0.2760 -50.0000
v  50.0001 100.0000 -50.0000
v  50.0001 100.0000 -0.0000
v  50.0001 83.7928 -94.7988
v  94.7990 83.7928 -94.7988
v  100.0001 91.4805 -100.0000
v  100.0001 100.0000 -100.0000
v  50.0001 91.4805 -100.0000
v  80.4315 10.2266 -80.4314
v  50.0001 10.2266 -80.4314
v  80.4315 0.2760 -80.4314
v  50.0001 0.2760 -80.4314
v  50.0001 100.0000 -100.0000
v  5.2013 83.7928 -5.2011
v  5.2013 83.7928 -50.0000
v  0.0001 100.0000 -50.0000
v  0.0001 91.4805 -50.0000
v  0.0001 91.4805 -0.0000
v  0.0001 100.0000 -0.0000
v  19.5687 10.2266 -50.0000
v  19.5687 10.2266 -19.5686
v  19.5687 0.2760 -50.0000
v  19.5687 0.2760 -19.5686
v  5.2013 83.7928 -94.7988
v  0.0001 91.4805 -100.0000
v  0.0001 100.0000 -100.0000
v  19.5687 10.2266 -80.4314
v  19.5687 0.2760 -80.4314
v  50.0001 84.0290 -39.2246
v  50.0001 9.6280 -39.2246
v  59.3318 9.6280 -44.6123
v  59.3318 84.0290 -44.6123
v  59.3318 9.6280 -55.3877
v  59.3318 84.0290 -55.3877
v  50.0001 9.6280 -60.7753
v  50.0001 84.0290 -60.7753
v  40.6684 9.6280 -44.6123
v  40.6684 84.0290 -44.6123
v  40.6684 9.6280 -55.3877
v  40.6684 84.0290 -55.3877
# 56 vertices

vn 0.0000 -1.0000 -0.0000
vn 1.0000 0.0000 -0.0000
vn 0.0000 -0.5604 0.8283
vn 0.0000 1.0000 -0.0000
vn -0.0000 1.0000 -0.0000
vn 0.0000 0.0000 1.0000
vn 0.8283 -0.5604 -0.0000
vn 0.0000 -0.5604 -0.8282
vn 0.0000 0.0000 -1.0000
vn -1.0000 0.0000 -0.0000
vn -0.8282 -0.5604 -0.0000
vn 0.8660 0.0000 0.5000
vn 0.8660 0.0000 -0.5000
vn -0.8660 0.0000 0.5000
vn -0.8660 0.0000 -0.5000
# 15 vertex normals

vt 0.0020 0.3282 0.0000
vt 0.0020 0.0120 0.0000
vt 0.3227 0.0120 0.0000
vt 0.3227 0.3282 0.0000
vt 0.0020 0.4087 0.0000
vt 0.3227 0.4087 0.0000
vt 0.3227 0.5640 0.0000
vt 0.0020 0.5640 0.0000
vt 0.8488 0.3539 0.0000
vt 0.9202 0.3539 0.0000
vt 0.9202 0.9867 0.0000
vt 0.8488 0.9867 0.0000
vt 0.3422 0.4224 0.0000
vt 0.5355 0.4224 0.0000
vt 0.5355 0.9867 0.0000
vt 0.3422 0.9867 0.0000
vt 0.3422 0.3352 0.0000
vt 0.5355 0.3352 0.0000
vt 0.3422 0.0120 0.0000
vt 0.5355 0.0120 0.0000
vt 0.0020 0.5718 0.0000
vt 0.3227 0.5718 0.0000
vt 0.3227 0.9867 0.0000
vt 0.0020 0.9867 0.0000
vt 0.9887 0.3539 0.0000
vt 0.9887 0.9867 0.0000
vt 0.9896 0.3389 0.0000
vt 0.9896 0.0120 0.0000
vt 0.8503 0.0120 0.0000
vt 0.8503 0.3389 0.0000
vt 0.9212 0.3539 0.0000
vt 0.9212 0.9867 0.0000
vt 0.9897 0.9867 0.0000
vt 0.9897 0.3539 0.0000
vt 0.5536 0.9867 1.0000
vt 0.5536 0.0120 1.0000
vt 0.6478 0.0120 1.0000
vt 0.6478 0.9867 1.0000
vt 0.7420 0.0120 1.0000
vt 0.7420 0.9867 1.0000
vt 0.8361 0.0120 1.0000
vt 0.8361 0.9867 1.0000
# 42 texture coords

g base
s 1
f 1/1/1 2/2/1 3/3/1 
f 3/3/1 4/4/1 1/1/1 
s 8
f 5/5/2 6/6/2 7/7/2 
f 7/7/2 8/8/2 5/5/2 
s 2
f 1/9/3 5/10/3 9/11/3 
f 9/11/3 2/12/3 1/9/3 
s 1
f 10/13/4 11/14/4 12/15/5 
f 12/15/5 13/16/5 10/13/4 
s 2
f 14/17/2 15/18/2 11/14/2 
f 11/14/2 10/13/2 14/17/2 
s 1
f 14/17/1 16/19/1 17/20/1 
f 17/20/1 15/18/1 14/17/1 
s 2
f 8/21/4 7/22/4 18/23/4 
f 18/23/4 19/24/4 8/21/4 
s 1
f 9/11/6 5/10/6 8/25/6 
f 8/25/6 19/26/6 9/11/6 
s 4
f 16/27/6 14/28/6 10/29/6 
f 10/29/6 13/30/6 16/27/6 
f 1/1/7 4/4/7 6/6/7 
f 6/6/7 5/5/7 1/1/7 
s 1
f 3/3/1 20/2/1 21/1/1 
f 21/1/1 4/4/1 3/3/1 
s 8
f 7/7/2 6/6/2 22/5/2 
f 22/5/2 23/8/2 7/7/2 
s 2
f 21/12/8 20/9/8 24/31/8 
f 24/31/8 22/32/8 21/12/8 
s 1
f 12/15/5 11/14/4 25/13/4 
f 25/13/4 26/16/5 12/15/5 
s 2
f 11/14/2 15/18/2 27/17/2 
f 27/17/2 25/13/2 11/14/2 
s 1
f 17/20/1 28/19/1 27/17/1 
f 27/17/1 15/18/1 17/20/1 
s 2
f 18/23/4 7/22/4 23/21/4 
f 23/21/4 29/24/4 18/23/4 
s 1
f 23/33/9 22/32/9 24/31/9 
f 24/31/9 29/34/9 23/33/9 
s 4
f 25/29/9 27/28/9 28/27/9 
f 28/27/9 26/30/9 25/29/9 
f 21/1/7 22/5/7 6/6/7 
f 6/6/7 4/4/7 21/1/7 
s 1
f 3/3/1 2/2/1 30/1/1 
f 30/1/1 31/4/1 3/3/1 
s 8
f 32/7/10 33/6/10 34/5/10 
f 34/5/10 35/8/10 32/7/10 
s 2
f 30/12/3 2/9/3 9/31/3 
f 9/31/3 34/32/3 30/12/3 
s 1
f 12/15/5 36/14/5 37/13/5 
f 37/13/5 13/16/5 12/15/5 
s 2
f 36/14/10 38/18/10 39/17/10 
f 39/17/10 37/13/10 36/14/10 
s 1
f 17/20/1 16/19/1 39/17/1 
f 39/17/1 38/18/1 17/20/1 
s 2
f 18/23/4 32/22/4 35/21/4 
f 35/21/4 19/24/4 18/23/4 
s 1
f 35/33/6 34/32/6 9/31/6 
f 9/31/6 19/34/6 35/33/6 
s 4
f 37/29/6 39/28/6 16/27/6 
f 16/27/6 13/30/6 37/29/6 
f 30/1/11 34/5/11 33/6/11 
f 33/6/11 31/4/11 30/1/11 
s 1
f 40/1/1 20/2/1 3/3/1 
f 3/3/1 31/4/1 40/1/1 
s 8
f 41/5/10 33/6/10 32/7/10 
f 32/7/10 42/8/10 41/5/10 
s 2
f 40/9/8 41/31/8 24/32/8 
f 24/32/8 20/12/8 40/9/8 
s 1
f 43/13/5 36/14/5 12/15/5 
f 12/15/5 26/16/5 43/13/5 
s 2
f 44/17/10 38/18/10 36/14/10 
f 36/14/10 43/13/10 44/17/10 
s 1
f 44/17/1 28/19/1 17/20/1 
f 17/20/1 38/18/1 44/17/1 
s 2
f 42/21/4 32/22/4 18/23/4 
f 18/23/4 29/24/4 42/21/4 
s 1
f 24/32/9 41/31/9 42/34/9 
f 42/34/9 29/33/9 24/32/9 
s 4
f 28/27/9 44/28/9 43/29/9 
f 43/29/9 26/30/9 28/27/9 
f 40/1/11 31/4/11 33/6/11 
f 33/6/11 41/5/11 40/1/11 
s 1
f 45/35/6 46/36/6 47/37/12 
f 47/37/12 48/38/12 45/35/6 
f 48/38/12 47/37/12 49/39/13 
f 49/39/13 50/40/13 48/38/12 
f 50/40/13 49/39/13 51/41/9 
f 51/41/9 52/42/9 50/40/13 
f 53/37/14 46/36/6 45/35/6 
f 45/35/6 54/38/14 53/37/14 
f 55/39/15 53/37/14 54/38/14 
f 54/38/14 56/40/15 55/39/15 
f 51/41/9 55/39/15 56/40/15 
f 56/40/15 52/42/9 51/41/9 
# 92 faces

