# 3ds Max Wavefront OBJ Exporter v0.97b - (c)2007 guruware
# File Created: 22.01.2021 18:13:37

mtllib furniture_half_cabinet.mtl

#
# object base0
#

v  100.0000 0.0000 -50.0000
v  100.0000 0.0000 0.0000
v  50.0001 0.0000 0.0000
v  50.0001 0.0000 -50.0000
v  100.0000 50.0000 -0.0000
v  50.0001 50.0000 -0.0000
v  100.0000 50.0000 -4.7379
v  50.0001 0.0000 -100.0000
v  100.0000 0.0000 -100.0000
v  50.0001 50.0000 -100.0000
v  100.0000 50.0000 -100.0000
v  100.0000 50.0000 -95.2621
v  100.0000 50.0000 -50.0000
v  50.0001 50.0000 -4.7379
v  50.0001 50.0000 -50.0000
v  50.0001 50.0000 -95.2621
v  0.0001 0.0000 -50.0000
v  0.0001 0.0000 0.0000
v  0.0001 50.0000 -0.0000
v  0.0001 50.0000 -4.7379
v  0.0001 50.0000 -50.0000
v  0.0001 0.0000 -100.0000
v  0.0001 50.0000 -100.0000
v  0.0001 50.0000 -95.2621
# 24 vertices

vn 0.0000 -1.0000 -0.0000
vn 0.0000 0.0000 1.0000
vn 1.0000 -0.0000 0.0000
vn 1.0000 0.0000 0.0000
vn 0.0000 0.0000 -1.0000
vn 1.0000 -0.0000 -0.0000
vn 0.0000 1.0000 -0.0000
vn -0.0000 1.0000 -0.0000
vn -0.0000 1.0000 0.0000
vn 0.0000 1.0000 0.0000
vn -1.0000 -0.0000 0.0000
vn -1.0000 -0.0000 -0.0000
vn -1.0000 0.0000 -0.0000
vn -1.0000 0.0000 0.0000
vn 1.0000 0.0000 -0.0000
# 15 vertex normals

vt 0.3497 0.9778 0.0000
vt 0.3497 0.7136 0.0000
vt 0.0302 0.7136 0.0000
vt 0.0302 0.9778 0.0000
vt 0.9778 0.0207 0.0000
vt 0.5032 0.0207 0.0000
vt 0.5032 0.6264 0.0000
vt 0.9783 0.6264 0.0000
vt 0.4582 0.6264 0.0000
vt 0.0280 0.6264 0.0000
vt 0.0285 0.0207 0.0000
vt 0.9751 0.7151 0.0000
vt 0.3810 0.7151 0.0000
vt 0.3810 0.9793 0.0000
vt 0.9751 0.9793 0.0000
vt 0.5032 0.6961 0.0000
vt 0.9788 0.6961 0.0000
# 17 texture coords

g base0
usemtl Material__199
s 4
f 1/1/1 2/2/1 3/3/1 
f 3/3/1 4/4/1 1/1/1 
s 2
f 3/5/2 2/6/2 5/7/2 
f 5/7/2 6/8/2 3/5/2 
s 1
f 7/9/3 5/7/4 2/6/3 
s 4
f 1/1/1 4/4/1 8/3/1 
f 8/3/1 9/2/1 1/1/1 
s 2
f 8/5/5 10/8/5 11/7/5 
f 11/7/5 9/6/5 8/5/5 
s 1
f 9/6/6 12/9/6 13/10/6 
f 13/10/6 1/11/6 9/6/6 
s 4
f 14/12/7 7/13/8 13/14/9 
f 13/14/9 15/15/7 14/12/7 
f 7/16/8 14/17/7 6/8/7 
f 6/8/7 5/7/7 7/16/8 
f 16/12/10 15/15/7 13/14/9 
f 13/14/9 12/13/9 16/12/10 
f 12/16/9 11/7/10 10/8/10 
f 10/8/10 16/17/10 12/16/9 
f 17/1/1 4/4/1 3/3/1 
f 3/3/1 18/2/1 17/1/1 
s 2
f 3/5/2 6/8/2 19/7/2 
f 19/7/2 18/6/2 3/5/2 
s 1
f 18/6/11 20/9/11 21/10/12 
f 21/10/12 17/11/12 18/6/11 
s 4
f 17/1/1 22/2/1 8/3/1 
f 8/3/1 4/4/1 17/1/1 
s 2
f 8/5/5 22/6/5 23/7/5 
f 23/7/5 10/8/5 8/5/5 
s 1
f 24/9/12 23/7/13 22/6/12 
s 4
f 14/12/7 15/15/7 21/14/10 
f 21/14/10 20/13/7 14/12/7 
f 20/16/7 19/7/7 6/8/7 
f 6/8/7 14/17/7 20/16/7 
f 16/12/10 24/13/10 21/14/10 
f 21/14/10 15/15/7 16/12/10 
f 24/16/10 16/17/10 10/8/10 
f 10/8/10 23/7/10 24/16/10 
s 1
f 18/6/11 19/7/14 20/9/11 
f 22/6/12 17/11/12 21/10/12 
f 21/10/12 24/9/12 22/6/12 
f 9/6/6 11/7/15 12/9/6 
f 2/6/3 1/11/6 13/10/6 
f 13/10/6 7/9/3 2/6/3 
# 44 faces

#
# object base2
#

v  0.0000 0.0000 -50.0000
v  0.0000 0.0000 -100.0000
v  49.9999 0.0000 -100.0000
v  49.9999 0.0000 -50.0000
v  0.0000 50.0000 -100.0000
v  49.9999 50.0000 -100.0000
v  -0.0000 50.0000 -95.2621
v  50.0000 0.0000 0.0000
v  0.0000 0.0000 0.0000
v  50.0000 50.0000 0.0000
v  0.0000 50.0000 0.0000
v  0.0000 50.0000 -4.7379
v  -0.0000 50.0000 -50.0000
v  49.9999 50.0000 -95.2621
v  49.9999 50.0000 -50.0000
v  50.0000 50.0000 -4.7379
v  99.9999 0.0000 -50.0000
v  99.9999 0.0000 -100.0000
v  99.9999 50.0000 -100.0000
v  99.9999 0.0000 -0.0000
v  99.9999 50.0000 -0.0000
v  99.9999 50.0000 -50.0000
v  99.9999 50.0000 -95.2621
v  99.9999 50.0000 -4.7379
# 24 vertices

vn 0.0000 -1.0000 -0.0000
vn -0.0000 0.0000 -1.0000
vn -1.0000 -0.0000 -0.0000
vn -1.0000 0.0000 -0.0000
vn 0.0000 0.0000 1.0000
vn -1.0000 -0.0000 0.0000
vn -0.0000 1.0000 0.0000
vn 0.0000 1.0000 0.0000
vn 0.0000 1.0000 -0.0000
vn -0.0000 1.0000 -0.0000
vn -1.0000 0.0000 0.0000
# 11 vertex normals

vt 0.3497 0.9778 0.0000
vt 0.3497 0.7136 0.0000
vt 0.0302 0.7136 0.0000
vt 0.0302 0.9778 0.0000
vt 0.9778 0.0207 0.0000
vt 0.5032 0.0207 0.0000
vt 0.5032 0.6264 0.0000
vt 0.9783 0.6264 0.0000
vt 0.4582 0.6264 0.0000
vt 0.0280 0.6264 0.0000
vt 0.0285 0.0207 0.0000
vt 0.9751 0.7151 0.0000
vt 0.4538 0.7151 0.0000
vt 0.4538 0.9793 0.0000
vt 0.9751 0.9793 0.0000
vt 0.5032 0.6961 0.0000
vt 0.9788 0.6961 0.0000
# 17 texture coords

g base2
usemtl Material__199
s 4
f 25/18/16 26/19/16 27/20/16 
f 27/20/16 28/21/16 25/18/16 
s 2
f 27/22/17 26/23/17 29/24/17 
f 29/24/17 30/25/17 27/22/17 
s 1
f 31/26/18 29/24/19 26/23/18 
s 4
f 25/18/16 28/21/16 32/20/16 
f 32/20/16 33/19/16 25/18/16 
s 2
f 32/22/20 34/25/20 35/24/20 
f 35/24/20 33/23/20 32/22/20 
s 1
f 33/23/21 36/26/21 37/27/21 
f 37/27/21 25/28/21 33/23/21 
s 4
f 38/29/22 31/30/23 37/31/24 
f 37/31/24 39/32/23 38/29/22 
f 31/33/23 38/34/22 30/25/22 
f 30/25/22 29/24/23 31/33/23 
f 40/29/25 39/32/23 37/31/24 
f 37/31/24 36/30/24 40/29/25 
f 36/33/24 35/24/25 34/25/25 
f 34/25/25 40/34/25 36/33/24 
f 41/18/16 28/21/16 27/20/16 
f 27/20/16 42/19/16 41/18/16 
s 2
f 27/22/17 30/25/17 43/24/17 
f 43/24/17 42/23/17 27/22/17 
s 4
f 41/18/16 44/19/16 32/20/16 
f 32/20/16 28/21/16 41/18/16 
s 2
f 32/22/20 44/23/20 45/24/20 
f 45/24/20 34/25/20 32/22/20 
s 4
f 38/29/22 39/32/23 46/31/22 
f 46/31/22 47/30/22 38/29/22 
f 47/33/22 43/24/24 30/25/22 
f 30/25/22 38/34/22 47/33/22 
f 40/29/25 48/30/25 46/31/22 
f 46/31/22 39/32/23 40/29/25 
f 48/33/25 40/34/25 34/25/25 
f 34/25/25 45/24/25 48/33/25 
s 1
f 33/23/21 35/24/26 36/26/21 
f 26/23/18 25/28/21 37/27/21 
f 37/27/21 31/26/18 26/23/18 
# 38 faces

#
# object base3
#

v  100.0000 0.0000 -50.0000
v  100.0000 0.0000 0.0000
v  50.0001 0.0000 0.0000
v  50.0001 0.0000 -50.0000
v  100.0000 50.0000 -0.0000
v  50.0001 50.0000 -0.0000
v  50.0001 0.0000 -100.0000
v  100.0000 0.0000 -100.0000
v  50.0001 50.0000 -100.0000
v  100.0000 50.0000 -100.0000
v  50.0001 50.0000 -4.7379
v  100.0000 50.0000 -4.7379
v  100.0000 50.0000 -50.0000
v  50.0001 50.0000 -50.0000
v  50.0001 50.0000 -95.2621
v  100.0000 50.0000 -95.2621
v  0.0001 0.0000 -50.0000
v  0.0001 0.0000 0.0000
v  0.0001 50.0000 -0.0000
v  0.0001 0.0000 -100.0000
v  0.0001 50.0000 -100.0000
v  0.0001 50.0000 -50.0000
v  0.0001 50.0000 -4.7379
v  0.0001 50.0000 -95.2621
# 24 vertices

vn 0.0000 -1.0000 -0.0000
vn 0.0000 0.0000 1.0000
vn 0.0000 0.0000 -1.0000
vn 0.0000 1.0000 -0.0000
vn -0.0000 1.0000 -0.0000
vn -0.0000 1.0000 0.0000
vn 0.0000 1.0000 0.0000
# 7 vertex normals

vt 0.3497 0.9778 0.0000
vt 0.3497 0.7136 0.0000
vt 0.0302 0.7136 0.0000
vt 0.0302 0.9778 0.0000
vt 0.9778 0.0207 0.0000
vt 0.5032 0.0207 0.0000
vt 0.5032 0.6264 0.0000
vt 0.9783 0.6264 0.0000
vt 0.9751 0.7151 0.0000
vt 0.4510 0.7151 0.0000
vt 0.4510 0.9793 0.0000
vt 0.9751 0.9793 0.0000
vt 0.5032 0.6961 0.0000
vt 0.9788 0.6961 0.0000
# 14 texture coords

g base3
usemtl Material__199
s 4
f 49/35/27 50/36/27 51/37/27 
f 51/37/27 52/38/27 49/35/27 
s 2
f 51/39/28 50/40/28 53/41/28 
f 53/41/28 54/42/28 51/39/28 
s 4
f 49/35/27 52/38/27 55/37/27 
f 55/37/27 56/36/27 49/35/27 
s 2
f 55/39/29 57/42/29 58/41/29 
f 58/41/29 56/40/29 55/39/29 
s 4
f 59/43/30 60/44/31 61/45/32 
f 61/45/32 62/46/30 59/43/30 
f 60/47/31 59/48/30 54/42/30 
f 54/42/30 53/41/30 60/47/31 
f 63/43/33 62/46/30 61/45/32 
f 61/45/32 64/44/32 63/43/33 
f 64/47/32 58/41/33 57/42/33 
f 57/42/33 63/48/33 64/47/32 
f 65/35/27 52/38/27 51/37/27 
f 51/37/27 66/36/27 65/35/27 
s 2
f 51/39/28 54/42/28 67/41/28 
f 67/41/28 66/40/28 51/39/28 
s 4
f 65/35/27 68/36/27 55/37/27 
f 55/37/27 52/38/27 65/35/27 
s 2
f 55/39/29 68/40/29 69/41/29 
f 69/41/29 57/42/29 55/39/29 
s 4
f 59/43/30 62/46/30 70/45/33 
f 70/45/33 71/44/30 59/43/30 
f 71/47/30 67/41/30 54/42/30 
f 54/42/30 59/48/30 71/47/30 
f 63/43/33 72/44/33 70/45/33 
f 70/45/33 62/46/30 63/43/33 
f 72/47/33 63/48/33 57/42/33 
f 57/42/33 69/41/33 72/47/33 
# 32 faces

