# 3ds Max Wavefront OBJ Exporter v0.97b - (c)2007 guruware
# File Created: 20.01.2021 15:38:51

#
# object base1
#

v  100.0000 86.9502 -0.0001
v  0.0002 86.9531 0.0002
v  0.0002 86.9531 -100.0000
v  100.0000 86.9502 -100.0000
v  7.4855 96.1818 -91.6204
v  7.4855 96.1818 -8.3800
v  100.0000 96.1818 -8.3800
v  100.0000 96.1818 -91.6204
v  0.0000 100.0000 -0.0001
v  100.0000 100.0000 -0.0001
v  0.0000 100.0000 -100.0000
v  6.1996 100.0000 -6.4595
v  100.0000 100.0000 -6.4595
v  6.1996 100.0000 -93.5408
v  100.0000 100.0000 -100.0000
v  100.0000 100.0000 -93.5408
v  59.5450 -0.0000 -5.3460
v  49.5620 -0.0000 -5.3460
v  49.5620 0.0000 -16.2819
v  59.5450 0.0000 -16.2819
v  49.5620 88.2235 -5.3460
v  59.5450 88.2235 -5.3460
v  59.5450 88.2235 -16.2819
v  49.5620 88.2235 -16.2819
v  59.5488 -0.0000 -83.3718
v  49.5636 -0.0000 -83.3718
v  49.5636 0.0000 -94.3077
v  59.5488 0.0000 -94.3077
v  49.5636 88.2235 -83.3718
v  59.5488 88.2235 -83.3718
v  59.5488 88.2235 -94.3077
v  49.5636 88.2235 -94.3077
v  16.3457 -0.0000 -5.3460
v  6.3597 -0.0000 -5.3460
v  6.3597 0.0000 -16.2819
v  16.3457 0.0000 -16.2819
v  6.3597 88.2235 -5.3460
v  16.3457 88.2235 -5.3460
v  16.3457 88.2235 -16.2819
v  6.3597 88.2235 -16.2819
v  16.3458 -0.0000 -83.3718
v  6.3636 -0.0000 -83.3718
v  6.3636 0.0000 -94.3077
v  16.3458 0.0000 -94.3077
v  6.3636 88.2235 -83.3718
v  16.3458 88.2235 -83.3718
v  16.3458 88.2235 -94.3077
v  6.3636 88.2235 -94.3077
v  32.7713 15.2673 -6.7568
v  8.0583 15.2673 -6.7568
v  8.0583 15.2673 -92.7480
v  32.7713 15.2673 -92.7480
v  8.0583 86.5016 -6.7568
v  32.7713 86.5016 -6.7568
v  8.0583 86.5016 -92.7480
v  32.7713 86.5016 -92.7480
v  57.4843 15.2673 -92.7480
v  57.4843 15.2673 -6.7568
v  57.4843 86.5016 -6.7568
v  57.4843 86.5016 -92.7480
# 60 vertices

vn -0.0000 -1.0000 -0.0000
vn 0.0000 1.0000 0.0000
vn 0.0000 0.0000 1.0000
vn -1.0000 -0.0000 0.0000
vn -0.0000 1.0000 0.0000
vn 0.0000 1.0000 -0.0000
vn -0.0000 1.0000 -0.0000
vn 0.0000 0.4494 -0.8934
vn 0.9477 0.3192 0.0000
vn 0.0000 -0.0000 -1.0000
vn -0.0000 -0.0000 -1.0000
vn 0.0000 0.4493 0.8934
vn 0.0000 -1.0000 -0.0000
vn 1.0000 0.0000 -0.0000
vn -1.0000 0.0000 -0.0000
vn 0.0000 -0.0000 1.0000
vn 0.0000 0.0000 -1.0000
vn 0.0000 -1.0000 0.0000
# 18 vertex normals

vt 0.7093 0.0120 0.0000
vt 0.7093 0.4880 0.0000
vt 0.9894 0.4881 0.0000
vt 0.9894 0.0120 0.0000
vt 0.1463 0.0608 0.0000
vt 0.6448 0.0608 0.0000
vt 0.6448 0.6603 0.0000
vt 0.1463 0.6603 0.0000
vt 0.0833 0.2407 0.0000
vt 0.0136 0.2407 0.0000
vt 0.0136 0.0149 0.0000
vt 0.0833 0.0149 0.0000
vt 0.0833 0.4637 0.0000
vt 0.0136 0.4637 0.0000
vt 0.0136 0.2472 0.0000
vt 0.0833 0.2472 0.0000
vt 0.6563 0.0531 0.0000
vt 0.6907 0.0146 0.0000
vt 0.6907 0.6603 0.0000
vt 0.6563 0.6603 0.0000
vt 0.1348 0.0531 0.0000
vt 0.1004 0.0146 0.0000
vt 0.0833 0.4726 0.0000
vt 0.0833 0.6605 0.0000
vt 0.0136 0.6605 0.0000
vt 0.0136 0.4726 0.0000
vt 0.1348 0.6603 0.0000
vt 0.1004 0.6603 0.0000
vt 0.9460 0.9279 0.0000
vt 0.9881 0.9279 0.0000
vt 0.9881 0.9936 0.0000
vt 0.9460 0.9936 0.0000
vt 0.7051 0.8137 0.0000
vt 0.9907 0.8137 0.0000
vt 0.9907 0.8648 0.0000
vt 0.7051 0.8648 0.0000
vt 0.9907 0.9160 0.0000
vt 0.7051 0.9160 0.0000
vt 0.7051 0.7114 0.0000
vt 0.9907 0.7114 0.0000
vt 0.9907 0.7625 0.0000
vt 0.7051 0.7625 0.0000
vt 0.0118 0.9934 0.0000
vt 0.0118 0.9272 0.0000
vt 0.9375 0.9272 0.0000
vt 0.9375 0.9934 0.0000
vt 0.5747 0.9140 0.0000
vt 0.5747 0.6766 0.0000
vt 0.6920 0.6766 0.0000
vt 0.6920 0.9140 0.0000
vt 0.1342 0.9140 0.0000
vt 0.1342 0.6766 0.0000
vt 0.0118 0.9140 0.0000
vt 0.0118 0.6766 0.0000
# 54 texture coords

g base1
s 2
f 1/1/1 2/2/1 3/3/1 
f 3/3/1 4/4/1 1/1/1 
f 5/5/2 6/6/2 7/7/2 
f 7/7/2 8/8/2 5/5/2 
s 1
f 9/9/3 2/10/3 1/11/3 
f 1/11/3 10/12/3 9/9/3 
s 4
f 11/13/4 3/14/4 2/15/4 
f 2/15/4 9/16/4 11/13/4 
s 2
f 12/17/2 9/18/5 10/19/6 
f 10/19/6 13/20/6 12/17/2 
f 14/21/7 11/22/7 9/18/5 
f 9/18/5 12/17/2 14/21/7 
s 1
f 6/6/8 12/17/8 13/20/8 
f 13/20/8 7/7/8 6/6/8 
s 4
f 5/5/9 14/21/9 12/17/9 
f 12/17/9 6/6/9 5/5/9 
s 1
f 11/23/10 15/24/11 4/25/10 
f 4/25/10 3/26/10 11/23/10 
s 2
f 14/21/7 16/27/6 15/28/6 
f 15/28/6 11/22/7 14/21/7 
s 1
f 5/5/12 8/8/12 16/27/12 
f 16/27/12 14/21/12 5/5/12 
s 4
f 17/29/13 18/30/13 19/31/13 
f 19/31/13 20/32/13 17/29/13 
s 2
f 21/33/3 18/34/3 17/35/3 
f 17/35/3 22/36/3 21/33/3 
s 1
f 22/36/14 17/35/14 20/37/14 
f 20/37/14 23/38/14 22/36/14 
s 2
f 23/39/10 20/40/10 19/41/10 
f 19/41/10 24/42/10 23/39/10 
s 1
f 24/42/15 19/41/15 18/34/15 
f 18/34/15 21/33/15 24/42/15 
s 4
f 25/29/13 26/30/13 27/31/13 
f 27/31/13 28/32/13 25/29/13 
s 2
f 29/33/16 26/34/16 25/35/16 
f 25/35/16 30/36/16 29/33/16 
s 1
f 30/36/14 25/35/14 28/37/14 
f 28/37/14 31/38/14 30/36/14 
s 2
f 31/39/17 28/40/17 27/41/17 
f 27/41/17 32/42/17 31/39/17 
s 1
f 32/42/15 27/41/15 26/34/15 
f 26/34/15 29/33/15 32/42/15 
s 4
f 33/29/13 34/30/13 35/31/13 
f 35/31/13 36/32/13 33/29/13 
s 2
f 37/33/3 34/34/3 33/35/3 
f 33/35/3 38/36/3 37/33/3 
s 1
f 38/36/14 33/35/14 36/37/14 
f 36/37/14 39/38/14 38/36/14 
s 2
f 39/39/11 36/40/10 35/41/11 
f 35/41/11 40/42/11 39/39/11 
s 1
f 40/42/15 35/41/15 34/34/15 
f 34/34/15 37/33/15 40/42/15 
s 4
f 41/29/13 42/30/13 43/31/13 
f 43/31/13 44/32/13 41/29/13 
s 2
f 45/33/16 42/34/16 41/35/16 
f 41/35/16 46/36/16 45/33/16 
s 1
f 46/36/14 41/35/14 44/37/14 
f 44/37/14 47/38/14 46/36/14 
s 2
f 47/39/17 44/40/17 43/41/17 
f 43/41/17 48/42/17 47/39/17 
s 1
f 48/42/15 43/41/15 42/34/15 
f 42/34/15 45/33/15 48/42/15 
s 4
f 49/43/18 50/44/18 51/45/18 
f 51/45/18 52/46/18 49/43/18 
s 2
f 53/47/3 50/48/3 49/49/3 
f 49/49/3 54/50/3 53/47/3 
s 1
f 55/51/15 51/52/15 50/48/15 
f 50/48/15 53/47/15 55/51/15 
s 2
f 56/53/17 52/54/17 51/52/17 
f 51/52/17 55/51/17 56/53/17 
s 4
f 57/45/18 58/44/18 49/43/18 
f 49/43/18 52/46/18 57/45/18 
s 2
f 49/49/3 58/48/3 59/47/3 
f 59/47/3 54/50/3 49/49/3 
s 1
f 58/48/14 57/52/14 60/51/14 
f 60/51/14 59/47/14 58/48/14 
s 2
f 57/52/17 52/54/17 56/53/17 
f 56/53/17 60/51/17 57/52/17 
# 78 faces

#
# object base2
#

v  100.0000 86.9502 -100.0000
v  100.0000 86.9502 0.0000
v  0.0000 86.9502 0.0000
v  0.0000 86.9502 -100.0000
v  0.0000 96.1818 -8.3799
v  92.5144 96.1818 -8.3799
v  92.5144 96.1818 -91.6203
v  0.0000 96.1818 -91.6203
v  100.0000 100.0000 -0.0000
v  0.0000 100.0000 -0.0000
v  100.0000 100.0000 -100.0000
v  0.0000 100.0000 -6.4594
v  93.8003 100.0000 -6.4593
v  93.8003 100.0000 -93.5406
v  0.0000 100.0000 -100.0000
v  0.0000 100.0000 -93.5406
v  92.2528 -0.0000 -5.3459
v  82.2680 -0.0000 -5.3459
v  82.2680 0.0000 -16.2818
v  92.2528 0.0000 -16.2818
v  82.2680 88.2235 -5.3459
v  92.2528 88.2235 -5.3459
v  92.2528 88.2235 -16.2818
v  82.2680 88.2235 -16.2818
v  90.4314 44.9197 -89.4476
v  90.4314 86.9610 -89.4476
v  90.4314 86.9610 -10.2224
v  90.4314 44.9197 -10.2224
v  84.2318 88.3461 -9.5473
v  84.2318 88.3461 -90.1234
v  84.2318 43.5345 -90.1234
v  84.2318 43.5344 -9.5472
v  92.2548 -0.0000 -83.3717
v  82.2715 -0.0000 -83.3717
v  82.2715 0.0000 -94.3075
v  92.2548 0.0000 -94.3075
v  82.2715 88.2235 -83.3716
v  92.2548 88.2235 -83.3716
v  92.2548 88.2235 -94.3075
v  82.2715 88.2235 -94.3075
# 40 vertices

vn 0.0000 -1.0000 -0.0000
vn -0.0000 1.0000 0.0000
vn 0.0000 1.0000 0.0000
vn -0.0000 0.0000 1.0000
vn 1.0000 0.0000 -0.0000
vn 0.0000 1.0000 -0.0000
vn 0.0000 0.4494 -0.8934
vn -0.9477 0.3192 0.0000
vn 0.0000 -0.0000 -1.0000
vn -0.0000 1.0000 -0.0000
vn 0.0000 0.4493 0.8934
vn 0.0000 0.0000 1.0000
vn -1.0000 0.0000 -0.0000
vn 0.2180 -0.9759 -0.0000
vn 0.2181 -0.9759 -0.0000
vn 0.0000 -0.0000 1.0000
vn 0.0000 0.0000 -1.0000
# 17 vertex normals

vt 0.9894 0.4881 0.0000
vt 0.7093 0.4880 0.0000
vt 0.7093 0.0120 0.0000
vt 0.9894 0.0120 0.0000
vt 0.6448 0.6603 0.0000
vt 0.6448 0.0608 0.0000
vt 0.1463 0.0608 0.0000
vt 0.1463 0.6603 0.0000
vt 0.0136 0.2393 0.0000
vt 0.0833 0.2393 0.0000
vt 0.0833 0.0149 0.0000
vt 0.0136 0.0149 0.0000
vt 0.0833 0.2472 0.0000
vt 0.0136 0.2472 0.0000
vt 0.0136 0.4637 0.0000
vt 0.0833 0.4637 0.0000
vt 0.6563 0.6603 0.0000
vt 0.6907 0.6603 0.0000
vt 0.6907 0.0146 0.0000
vt 0.6563 0.0531 0.0000
vt 0.1348 0.0531 0.0000
vt 0.1004 0.0146 0.0000
vt 0.0833 0.6605 0.0000
vt 0.0833 0.4724 0.0000
vt 0.0136 0.4724 0.0000
vt 0.0136 0.6605 0.0000
vt 0.1004 0.6603 0.0000
vt 0.1348 0.6603 0.0000
vt 0.9460 0.9279 0.0000
vt 0.9881 0.9279 0.0000
vt 0.9881 0.9936 0.0000
vt 0.9460 0.9936 0.0000
vt 0.7051 0.8137 0.0000
vt 0.9907 0.8137 0.0000
vt 0.9907 0.8648 0.0000
vt 0.7051 0.8648 0.0000
vt 0.9907 0.9160 0.0000
vt 0.7051 0.9160 0.0000
vt 0.7051 0.7114 0.0000
vt 0.9907 0.7114 0.0000
vt 0.9907 0.7625 0.0000
vt 0.7051 0.7625 0.0000
vt 0.9915 0.6100 0.0000
vt 0.9915 0.6921 0.0000
vt 0.7053 0.6921 0.0000
vt 0.7053 0.6100 0.0000
vt 0.7053 0.5080 0.0000
vt 0.9915 0.5080 0.0000
vt 0.9915 0.5955 0.0000
vt 0.7053 0.5955 0.0000
# 50 texture coords

g base2
s 2
f 61/55/19 62/56/19 63/57/19 
f 63/57/19 64/58/19 61/55/19 
f 65/59/20 66/60/20 67/61/20 
f 67/61/20 68/62/21 65/59/20 
s 1
f 62/63/22 69/64/22 70/65/22 
f 70/65/22 63/66/22 62/63/22 
s 4
f 69/67/23 62/68/23 61/69/23 
f 61/69/23 71/70/23 69/67/23 
s 2
f 72/71/24 70/72/24 69/73/21 
f 69/73/21 73/74/20 72/71/24 
f 74/75/24 73/74/20 69/73/21 
f 69/73/21 71/76/24 74/75/24 
s 1
f 66/60/25 65/59/25 72/71/25 
f 72/71/25 73/74/25 66/60/25 
s 4
f 74/75/26 67/61/26 66/60/26 
f 66/60/26 73/74/26 74/75/26 
s 1
f 75/77/27 71/78/27 61/79/27 
f 61/79/27 64/80/27 75/77/27 
s 2
f 74/75/24 71/76/24 75/81/28 
f 75/81/28 76/82/24 74/75/24 
s 1
f 67/61/29 74/75/29 76/82/29 
f 76/82/29 68/62/29 67/61/29 
s 4
f 77/83/19 78/84/19 79/85/19 
f 79/85/19 80/86/19 77/83/19 
s 2
f 81/87/30 78/88/30 77/89/30 
f 77/89/30 82/90/30 81/87/30 
s 1
f 82/90/23 77/89/23 80/91/23 
f 80/91/23 83/92/23 82/90/23 
s 2
f 83/93/27 80/94/27 79/95/27 
f 79/95/27 84/96/27 83/93/27 
s 1
f 84/96/31 79/95/31 78/88/31 
f 78/88/31 81/87/31 84/96/31 
f 85/97/23 86/98/23 87/99/23 
f 87/99/23 88/100/23 85/97/23 
f 89/101/31 90/102/31 91/103/31 
f 91/103/31 92/104/31 89/101/31 
s 2
f 91/103/32 85/97/32 88/100/33 
f 88/100/33 92/104/33 91/103/32 
s 4
f 93/83/19 94/84/19 95/85/19 
f 95/85/19 96/86/19 93/83/19 
s 2
f 97/87/34 94/88/34 93/89/34 
f 93/89/34 98/90/34 97/87/34 
s 1
f 98/90/23 93/89/23 96/91/23 
f 96/91/23 99/92/23 98/90/23 
s 2
f 99/93/35 96/94/35 95/95/35 
f 95/95/35 100/96/35 99/93/35 
s 1
f 100/96/31 95/95/31 94/88/31 
f 94/88/31 97/87/31 100/96/31 
# 48 faces

