# Max2Obj Version 4.0 Mar 10th, 2001
#
# object base to come ...
#
v  69.923500 55.249420 -50.000000
v  64.113899 55.249420 -64.025803
v  64.113899 55.249420 -35.974197
v  63.718201 50.534698 -63.630196
v  69.364098 50.534698 -50.000000
v  63.718201 50.534698 -36.369797
v  65.357903 56.147526 -50.000000
v  60.885399 56.147526 -60.797398
v  60.885399 56.147526 -39.202595
v  62.314640 49.088001 -50.000000
v  58.723148 49.088001 -58.670486
v  58.723148 49.088001 -41.329510
v  64.113899 49.743000 -64.025803
v  68.835403 -0.275515 -27.196800
v  74.808899 44.199501 -30.333900
v  74.808899 1.730160 -69.666100
v  74.808899 44.199501 -69.666100
v  72.803200 -0.275515 -31.164600
v  69.666100 44.199501 -25.191099
v  68.835403 -0.275513 -72.803200
v  69.666100 44.199501 -74.808899
v  69.666100 1.730160 -25.191099
v  72.803200 -0.275513 -68.835403
v  74.808899 1.730160 -30.333900
v  69.666100 1.730160 -74.808899
v  70.140602 49.258598 -65.966599
v  65.965698 49.258301 -29.860300
v  64.113899 49.743000 -35.974201
v  70.140503 49.258598 -34.035702
v  69.301102 49.742401 -34.441898
v  69.301201 49.742401 -65.560402
v  65.568298 49.742298 -30.704300
v  65.568398 49.742401 -69.298103
v  65.965698 49.258301 -70.141998
v  68.835403 -1.245870 -31.164600
v  68.835403 -1.245870 -68.835403
v  69.327866 49.754200 -50.000000
v  49.999989 44.199501 -25.191101
v  49.999989 -0.275514 -27.196802
v  49.999989 -0.275512 -72.803200
v  49.999989 49.258305 -29.860302
v  49.999989 -1.245870 -31.164602
v  30.076500 55.249420 -50.000000
v  35.886101 55.249420 -64.025803
v  49.999992 55.249420 -69.835503
v  49.999992 55.249424 -30.164499
v  35.886101 55.249420 -35.974197
v  36.281799 50.534698 -63.630196
v  30.635902 50.534698 -50.000000
v  49.999992 50.534698 -69.276001
v  49.999992 50.534702 -30.724001
v  36.281799 50.534698 -36.369797
v  34.642097 56.147526 -50.000000
v  49.999992 56.147526 -34.730198
v  49.999992 56.147526 -65.269798
v  39.114601 56.147526 -60.797398
v  39.114601 56.147526 -39.202595
v  37.649349 49.088001 -50.000000
v  49.981987 49.088001 -37.738106
v  49.981987 49.088001 -62.261894
v  41.240845 49.088001 -58.670486
v  41.240845 49.088001 -41.329510
v  49.999992 49.754204 -30.717764
v  35.886101 49.743000 -35.974201
v  35.886101 49.743000 -64.025803
v  31.164597 -0.275515 -27.196800
v  25.191101 44.199501 -30.333900
v  25.191101 1.730160 -69.666100
v  25.191101 44.199501 -69.666100
v  27.196800 -0.275515 -31.164600
v  30.333900 44.199501 -25.191099
v  31.164597 -0.275513 -72.803200
v  30.333900 44.199501 -74.808899
v  30.333900 1.730160 -25.191099
v  27.196800 -0.275513 -68.835403
v  25.191101 1.730160 -30.333900
v  30.333900 1.730160 -74.808899
v  29.859398 49.258598 -65.966599
v  34.034302 49.258301 -29.860300
v  29.859497 49.258598 -34.035702
v  30.698898 49.742401 -34.441898
v  30.698799 49.742401 -65.560402
v  34.431702 49.742298 -30.704300
v  34.431602 49.742401 -69.298103
v  34.034302 49.258301 -70.141998
v  31.164597 -1.245870 -31.164600
v  31.164597 -1.245870 -68.835403
v  30.667566 49.754200 -50.000000
v  49.999992 49.754200 -69.348656
v  49.999989 1.730163 -25.191101
v  49.999989 1.730161 -74.808899
v  49.999989 44.199501 -74.808899
v  49.999989 49.258301 -70.141998
v  49.999989 -1.245868 -68.835403
v  62.314640 49.088001 -50.000000
v  58.683430 49.088001 -58.766541
v  58.683430 49.088001 -41.233452
v  66.081558 59.186420 -50.000000
v  61.396473 59.186420 -61.310913
v  61.396473 59.186420 -38.689083
v  37.355740 49.088001 -50.000000
v  40.986954 49.088001 -58.766541
v  49.835182 49.088001 -62.397751
v  49.835182 49.088001 -37.602242
v  40.986954 49.088001 -41.233452
v  33.918449 59.186420 -50.000000
v  38.603531 59.186420 -61.310913
v  49.999992 59.186420 -65.996094
v  49.999992 59.186420 -34.003895
v  38.603531 59.186420 -38.689083
v  49.999992 61.480614 -50.000000
# 111 vertices

vt  0.252365 0.898319 0.000000
vt  0.252365 0.878329 0.000000
vt  0.382900 0.878329 0.000000
vt  0.382900 0.898319 0.000000
vt  0.498320 0.878329 0.000000
vt  0.498320 0.898319 0.000000
vt  0.007892 0.898319 0.000000
vt  0.007892 0.878329 0.000000
vt  0.123399 0.878329 0.000000
vt  0.123399 0.898319 0.000000
vt  0.259181 0.581135 0.000000
vt  0.120250 0.581135 0.000000
vt  0.120250 0.525686 0.000000
vt  0.259181 0.525686 0.000000
vt  0.382900 0.974341 0.000000
vt  0.252365 0.974341 0.000000
vt  0.498320 0.974341 0.000000
vt  0.123399 0.974341 0.000000
vt  0.007892 0.974341 0.000000
vt  0.527948 0.581135 0.000000
vt  0.404006 0.581135 0.000000
vt  0.404006 0.525686 0.000000
vt  0.527948 0.525686 0.000000
vt  0.011666 0.581135 0.000000
vt  0.011666 0.525686 0.000000
vt  0.259181 0.645238 0.000000
vt  0.120250 0.645238 0.000000
vt  0.527948 0.645238 0.000000
vt  0.404006 0.645238 0.000000
vt  0.011666 0.645238 0.000000
vt  0.234557 0.043191 0.000000
vt  0.234557 0.419656 0.000000
vt  0.016237 0.419656 0.000000
vt  0.016237 0.043191 0.000000
vt  0.984537 0.419656 0.000000
vt  0.776873 0.419656 0.000000
vt  0.776873 0.043191 0.000000
vt  0.984537 0.043191 0.000000
vt  0.691139 0.419656 0.000000
vt  0.324735 0.419656 0.000000
vt  0.324735 0.043191 0.000000
vt  0.691139 0.043191 0.000000
vt  0.016237 0.015238 0.000000
vt  0.234557 0.015238 0.000000
vt  0.324735 0.015238 0.000000
vt  0.691139 0.015238 0.000000
vt  0.776873 0.015238 0.000000
vt  0.324735 0.497908 0.000000
vt  0.234557 0.497908 0.000000
vt  0.776873 0.497908 0.000000
vt  0.691139 0.497908 0.000000
vt  0.016237 0.497908 0.000000
vt  0.541212 0.805079 0.000000
vt  0.541212 0.971937 0.000000
vt  0.549184 0.971613 0.000000
vt  0.549184 0.810189 0.000000
vt  0.976479 0.810569 0.000000
vt  0.984414 0.805079 0.000000
vt  0.931044 0.763516 0.000000
vt  0.926535 0.772223 0.000000
vt  0.599175 0.772223 0.000000
vt  0.594702 0.763516 0.000000
vt  0.598170 0.696181 0.000000
vt  0.560864 0.696181 0.000000
vt  0.560864 0.525658 0.000000
vt  0.598170 0.525658 0.000000
vt  0.938211 0.732540 0.000000
vt  0.598170 0.732540 0.000000
vt  0.938211 0.696181 0.000000
vt  0.938211 0.525658 0.000000
vt  0.984537 0.015238 0.000000
vt  0.984537 0.497908 0.000000
vt  0.975180 0.525658 0.000000
vt  0.975180 0.696181 0.000000
vt  0.912575 0.829000 0.000000
vt  0.613063 0.828666 0.000000
vt  0.976479 0.971583 0.000000
vt  0.762878 0.772223 0.000000
vt  0.984414 0.971937 0.000000
vt  0.252365 0.898319 0.000000
vt  0.252365 0.878329 0.000000
vt  0.382900 0.878329 0.000000
vt  0.382900 0.898319 0.000000
vt  0.498320 0.878329 0.000000
vt  0.498320 0.898319 0.000000
vt  0.007892 0.898319 0.000000
vt  0.007892 0.878329 0.000000
vt  0.123399 0.878329 0.000000
vt  0.123399 0.898319 0.000000
vt  0.259181 0.581135 0.000000
vt  0.120250 0.581135 0.000000
vt  0.120250 0.525686 0.000000
vt  0.259181 0.525686 0.000000
vt  0.382900 0.974341 0.000000
vt  0.252365 0.974341 0.000000
vt  0.498320 0.974341 0.000000
vt  0.123399 0.974341 0.000000
vt  0.007892 0.974341 0.000000
vt  0.527948 0.581135 0.000000
vt  0.404006 0.581135 0.000000
vt  0.404006 0.525686 0.000000
vt  0.527948 0.525686 0.000000
vt  0.011666 0.581135 0.000000
vt  0.011666 0.525686 0.000000
vt  0.259181 0.645238 0.000000
vt  0.120250 0.645238 0.000000
vt  0.527948 0.645238 0.000000
vt  0.404006 0.645238 0.000000
vt  0.011666 0.645238 0.000000
vt  0.234557 0.043191 0.000000
vt  0.234557 0.419656 0.000000
vt  0.016237 0.419656 0.000000
vt  0.016237 0.043191 0.000000
vt  0.984537 0.419656 0.000000
vt  0.776873 0.419656 0.000000
vt  0.776873 0.043191 0.000000
vt  0.984537 0.043191 0.000000
vt  0.691139 0.419656 0.000000
vt  0.324735 0.419656 0.000000
vt  0.324735 0.043191 0.000000
vt  0.691139 0.043191 0.000000
vt  0.016237 0.015238 0.000000
vt  0.234557 0.015238 0.000000
vt  0.324735 0.015238 0.000000
vt  0.691139 0.015238 0.000000
vt  0.776873 0.015238 0.000000
vt  0.324735 0.497908 0.000000
vt  0.234557 0.497908 0.000000
vt  0.776873 0.497908 0.000000
vt  0.691139 0.497908 0.000000
vt  0.016237 0.497908 0.000000
vt  0.541212 0.805079 0.000000
vt  0.541212 0.971937 0.000000
vt  0.549184 0.971613 0.000000
vt  0.549184 0.810189 0.000000
vt  0.976479 0.810569 0.000000
vt  0.984414 0.805079 0.000000
vt  0.931044 0.763516 0.000000
vt  0.926535 0.772223 0.000000
vt  0.599175 0.772223 0.000000
vt  0.594702 0.763516 0.000000
vt  0.598170 0.696181 0.000000
vt  0.560864 0.696181 0.000000
vt  0.560864 0.525658 0.000000
vt  0.598170 0.525658 0.000000
vt  0.938211 0.732540 0.000000
vt  0.598170 0.732540 0.000000
vt  0.938211 0.696181 0.000000
vt  0.938211 0.525658 0.000000
vt  0.984537 0.015238 0.000000
vt  0.984537 0.497908 0.000000
vt  0.975180 0.525658 0.000000
vt  0.975180 0.696181 0.000000
vt  0.912575 0.829000 0.000000
vt  0.613063 0.828666 0.000000
vt  0.976479 0.971583 0.000000
vt  0.762878 0.772223 0.000000
vt  0.984414 0.971937 0.000000
vt  0.362048 0.839439 0.000000
vt  0.240073 0.839439 0.000000
vt  0.240073 0.675830 0.000000
vt  0.362048 0.675830 0.000000
vt  0.479878 0.839439 0.000000
vt  0.479878 0.675830 0.000000
vt  0.120488 0.839439 0.000000
vt  0.013915 0.839439 0.000000
vt  0.013915 0.675830 0.000000
vt  0.120488 0.675830 0.000000
vt  0.891653 0.851694 0.000000
vt  0.765655 0.799504 0.000000
vt  0.765655 0.977693 0.000000
vt  0.639655 0.851694 0.000000
vt  0.587465 0.977693 0.000000
vt  0.943843 0.977693 0.000000
vt  0.362048 0.839439 0.000000
vt  0.240073 0.839439 0.000000
vt  0.240073 0.675830 0.000000
vt  0.362048 0.675830 0.000000
vt  0.479878 0.839439 0.000000
vt  0.479878 0.675830 0.000000
vt  0.120488 0.839439 0.000000
vt  0.013915 0.839439 0.000000
vt  0.013915 0.675830 0.000000
vt  0.120488 0.675830 0.000000
vt  0.891653 0.851694 0.000000
vt  0.765655 0.799504 0.000000
vt  0.765655 0.977693 0.000000
vt  0.639655 0.851694 0.000000
vt  0.587465 0.977693 0.000000
vt  0.943843 0.977693 0.000000
# 190 texture vertices

vn  0.853765 0.520659 0.000003
vn  0.603118 0.520510 -0.604416
vn  0.603110 0.520502 0.604430
vn  0.675338 0.265219 -0.688170
vn  0.997030 -0.076522 0.008655
vn  0.688002 0.264125 0.675937
vn  -0.326270 0.945276 0.000000
vn  -0.230659 0.945300 0.230663
vn  -0.230659 0.945300 -0.230662
vn  -0.918307 0.395869 0.000000
vn  -0.648048 0.394723 0.651327
vn  -0.648048 0.394724 -0.651327
vn  0.248291 0.934560 -0.254850
vn  0.193410 -0.852572 0.485504
vn  0.849388 0.379869 0.366387
vn  0.858736 -0.368851 -0.355698
vn  0.849408 0.379831 -0.366380
vn  0.485504 -0.852572 0.193410
vn  0.366374 0.379884 0.849387
vn  0.193410 -0.852572 -0.485504
vn  0.366395 0.379815 -0.849409
vn  0.355698 -0.368851 0.858736
vn  0.485504 -0.852572 -0.193410
vn  0.858736 -0.368851 0.355698
vn  0.355698 -0.368851 -0.858736
vn  0.555324 0.806832 -0.201588
vn  0.201013 0.807001 0.555287
vn  0.254448 0.934921 0.247344
vn  0.555359 0.806824 0.201524
vn  0.271320 0.956497 0.107229
vn  0.271320 0.956485 -0.107340
vn  0.107776 0.956491 0.271126
vn  0.108578 0.956551 -0.270593
vn  0.201433 0.806765 -0.555477
vn  0.117789 -0.986028 0.117789
vn  0.117789 -0.986028 -0.117789
vn  0.812346 0.583100 0.009416
vn  0.000000 0.364117 0.931353
vn  0.000000 -0.871462 0.490463
vn  0.000000 -0.871462 -0.490463
vn  -0.000000 0.780781 0.624805
vn  0.000000 -0.992818 0.119638
vn  -0.853765 0.520659 0.000003
vn  -0.603118 0.520510 -0.604416
vn  -0.000000 0.520978 -0.853570
vn  -0.000000 0.520965 0.853578
vn  -0.603111 0.520502 0.604430
vn  -0.675338 0.265219 -0.688169
vn  -0.997245 -0.073684 0.008608
vn  -0.000000 -0.012984 -0.999916
vn  -0.000000 -0.044066 0.999029
vn  -0.687939 0.264171 0.675983
vn  0.327985 0.944683 0.000000
vn  -0.000237 0.944312 -0.329053
vn  -0.000237 0.944312 0.329052
vn  0.231277 0.944881 0.231758
vn  0.231277 0.944881 -0.231757
vn  0.920004 0.391908 0.000000
vn  0.000608 0.391979 -0.919974
vn  0.000608 0.391979 0.919974
vn  0.649508 0.391928 0.651561
vn  0.649508 0.391928 -0.651561
vn  -0.000000 0.608140 0.793830
vn  -0.254445 0.934906 0.247403
vn  -0.248290 0.934560 -0.254852
vn  -0.193410 -0.852572 0.485504
vn  -0.849388 0.379869 0.366387
vn  -0.858736 -0.368851 -0.355698
vn  -0.849408 0.379831 -0.366380
vn  -0.485504 -0.852572 0.193410
vn  -0.366374 0.379884 0.849387
vn  -0.193410 -0.852572 -0.485504
vn  -0.366395 0.379815 -0.849409
vn  -0.355698 -0.368851 0.858736
vn  -0.485504 -0.852572 -0.193410
vn  -0.858736 -0.368851 0.355698
vn  -0.355698 -0.368851 -0.858736
vn  -0.555331 0.806820 -0.201614
vn  -0.201013 0.807001 0.555287
vn  -0.555366 0.806812 0.201550
vn  -0.271277 0.956505 0.107276
vn  -0.271277 0.956492 -0.107387
vn  -0.107776 0.956491 0.271126
vn  -0.108578 0.956551 -0.270593
vn  -0.201433 0.806765 -0.555477
vn  -0.117789 -0.986028 0.117789
vn  -0.117789 -0.986028 -0.117789
vn  -0.811402 0.584414 0.009300
vn  -0.000000 0.636311 -0.771433
vn  0.000000 -0.382686 0.923878
vn  0.000000 -0.382687 -0.923878
vn  0.000000 0.364003 -0.931398
vn  0.000000 0.769868 -0.638204
vn  0.000000 -0.992818 -0.119638
vn  0.936937 -0.349498 0.000001
vn  0.660421 -0.345572 -0.666651
vn  0.660333 -0.345415 0.666820
vn  0.897053 0.441924 0.000000
vn  0.634425 0.443411 -0.633160
vn  0.634374 0.443359 0.633248
vn  -0.946663 -0.322225 0.000001
vn  -0.669308 -0.326321 -0.667489
vn  -0.003976 -0.335595 -0.941998
vn  -0.003980 -0.335287 0.942108
vn  -0.669219 -0.326168 0.667653
vn  -0.891139 0.453731 0.000000
vn  -0.628821 0.451751 -0.632855
vn  0.002624 0.448116 -0.893972
vn  0.002626 0.448011 0.894024
vn  -0.628769 0.451697 0.632945
vn  -0.000000 1.000000 -0.000000
# 111 vertex normals

g base
s 1
f 13/3/13 4/4/4 5/1/5
f 5/1/5 37/2/37 13/3/13
f 89/5/89 50/6/50 4/4/4
f 4/4/4 13/3/13 89/5/89
f 28/9/28 6/10/6 51/7/51
f 51/7/51 63/8/63 28/9/28
f 37/2/37 5/1/5 6/10/6
f 6/10/6 28/9/28 37/2/37
f 3/13/3 1/14/1 7/11/7
f 7/11/7 9/12/9 3/13/3
f 2/15/2 1/16/1 5/1/5
f 5/1/5 4/4/4 2/15/2
f 45/17/45 2/15/2 4/4/4
f 4/4/4 50/6/50 45/17/45
f 3/18/3 46/19/46 51/7/51
f 51/7/51 6/10/6 3/18/3
f 1/16/1 3/18/3 6/10/6
f 6/10/6 5/1/5 1/16/1
f 2/22/2 45/23/45 55/20/55
f 55/20/55 8/21/8 2/22/2
f 2/22/2 8/21/8 7/11/7
f 7/11/7 1/14/1 2/22/2
f 3/13/3 9/12/9 54/24/54
f 54/24/54 46/25/46 3/13/3
f 9/12/9 7/11/7 10/26/10
f 10/26/10 12/27/12 9/12/9
f 8/21/8 55/20/55 60/28/60
f 60/28/60 11/29/11 8/21/8
f 7/11/7 8/21/8 11/29/11
f 11/29/11 10/26/10 7/11/7
f 54/24/54 9/12/9 12/27/12
f 12/27/12 59/30/59 54/24/54
f 38/33/38 90/34/90 22/31/22
f 22/31/22 19/32/19 38/33/38
f 25/37/25 91/38/91 92/35/92
f 92/35/92 21/36/21 25/37/25
f 24/41/24 16/42/16 17/39/17
f 17/39/17 15/40/15 24/41/24
f 22/31/22 24/41/24 15/40/15
f 15/40/15 19/32/19 22/31/22
f 21/36/21 17/39/17 16/42/16
f 16/42/16 25/37/25 21/36/21
f 14/44/14 22/31/22 90/34/90
f 90/34/90 39/43/39 14/44/14
f 23/46/23 16/42/16 24/41/24
f 24/41/24 18/45/18 23/46/23
f 22/31/22 14/44/14 18/45/18
f 18/45/18 24/41/24 22/31/22
f 16/42/16 23/46/23 20/47/20
f 20/47/20 25/37/25 16/42/16
f 19/32/19 15/40/15 29/48/29
f 29/48/29 27/49/27 19/32/19
f 17/39/17 21/36/21 34/50/34
f 34/50/34 26/51/26 17/39/17
f 27/49/27 41/52/41 38/33/38
f 38/33/38 19/32/19 27/49/27
f 17/39/17 26/51/26 29/48/29
f 29/48/29 15/40/15 17/39/17
f 89/55/89 33/56/33 34/53/34
f 34/53/34 93/54/93 89/55/89
f 29/59/29 30/60/30 32/57/32
f 32/57/32 27/58/27 29/59/29
f 34/53/34 33/56/33 31/61/31
f 31/61/31 26/62/26 34/53/34
f 39/65/39 42/66/42 35/63/35
f 35/63/35 14/64/14 39/65/39
f 35/63/35 36/69/36 23/67/23
f 23/67/23 18/68/18 35/63/35
f 35/63/35 42/66/42 94/70/94
f 94/70/94 36/69/36 35/63/35
f 91/38/91 25/37/25 20/47/20
f 20/47/20 40/71/40 91/38/91
f 34/50/34 21/36/21 92/35/92
f 92/35/92 93/72/93 34/50/34
f 20/74/20 36/69/36 94/70/94
f 94/70/94 40/73/40 20/74/20
f 18/68/18 14/64/14 35/63/35
f 32/57/32 30/60/30 28/75/28
f 31/61/31 33/56/33 13/76/13
f 63/77/63 32/57/32 28/75/28
f 28/75/28 30/60/30 37/78/37
f 37/78/37 31/61/31 13/76/13
f 13/76/13 33/56/33 89/55/89
f 29/59/29 26/62/26 37/78/37
f 27/58/27 32/57/32 63/77/63
f 26/62/26 31/61/31 37/78/37
f 29/59/29 37/78/37 30/60/30
f 36/69/36 20/74/20 23/67/23
f 41/79/41 27/58/27 63/77/63
f 65/82/65 88/81/88 49/80/49
f 49/80/49 48/83/48 65/82/65
f 89/84/89 65/82/65 48/83/48
f 48/83/48 50/85/50 89/84/89
f 64/88/64 63/87/63 51/86/51
f 51/86/51 52/89/52 64/88/64
f 88/81/88 64/88/64 52/89/52
f 52/89/52 49/80/49 88/81/88
f 47/92/47 57/91/57 53/90/53
f 53/90/53 43/93/43 47/92/47
f 44/94/44 48/83/48 49/80/49
f 49/80/49 43/95/43 44/94/44
f 45/96/45 50/85/50 48/83/48
f 48/83/48 44/94/44 45/96/45
f 47/97/47 52/89/52 51/86/51
f 51/86/51 46/98/46 47/97/47
f 43/95/43 49/80/49 52/89/52
f 52/89/52 47/97/47 43/95/43
f 44/101/44 56/100/56 55/99/55
f 55/99/55 45/102/45 44/101/44
f 44/101/44 43/93/43 53/90/53
f 53/90/53 56/100/56 44/101/44
f 47/92/47 46/104/46 54/103/54
f 54/103/54 57/91/57 47/92/47
f 57/91/57 62/106/62 58/105/58
f 58/105/58 53/90/53 57/91/57
f 56/100/56 61/108/61 60/107/60
f 60/107/60 55/99/55 56/100/56
f 53/90/53 58/105/58 61/108/61
f 61/108/61 56/100/56 53/90/53
f 54/103/54 59/109/59 62/106/62
f 62/106/62 57/91/57 54/103/54
f 38/112/38 71/111/71 74/110/74
f 74/110/74 90/113/90 38/112/38
f 77/116/77 73/115/73 92/114/92
f 92/114/92 91/117/91 77/116/77
f 76/120/76 67/119/67 69/118/69
f 69/118/69 68/121/68 76/120/76
f 74/110/74 71/111/71 67/119/67
f 67/119/67 76/120/76 74/110/74
f 73/115/73 77/116/77 68/121/68
f 68/121/68 69/118/69 73/115/73
f 66/123/66 39/122/39 90/113/90
f 90/113/90 74/110/74 66/123/66
f 75/125/75 70/124/70 76/120/76
f 76/120/76 68/121/68 75/125/75
f 74/110/74 76/120/76 70/124/70
f 70/124/70 66/123/66 74/110/74
f 68/121/68 77/116/77 72/126/72
f 72/126/72 75/125/75 68/121/68
f 71/111/71 79/128/79 80/127/80
f 80/127/80 67/119/67 71/111/71
f 69/118/69 78/130/78 85/129/85
f 85/129/85 73/115/73 69/118/69
f 79/128/79 71/111/71 38/112/38
f 38/112/38 41/131/41 79/128/79
f 69/118/69 67/119/67 80/127/80
f 80/127/80 78/130/78 69/118/69
f 89/134/89 93/133/93 85/132/85
f 85/132/85 84/135/84 89/134/89
f 80/138/80 79/137/79 83/136/83
f 83/136/83 81/139/81 80/138/80
f 85/132/85 78/141/78 82/140/82
f 82/140/82 84/135/84 85/132/85
f 39/144/39 66/143/66 86/142/86
f 86/142/86 42/145/42 39/144/39
f 86/142/86 70/147/70 75/146/75
f 75/146/75 87/148/87 86/142/86
f 86/142/86 87/148/87 94/149/94
f 94/149/94 42/145/42 86/142/86
f 91/117/91 40/150/40 72/126/72
f 72/126/72 77/116/77 91/117/91
f 85/129/85 93/151/93 92/114/92
f 92/114/92 73/115/73 85/129/85
f 72/153/72 40/152/40 94/149/94
f 94/149/94 87/148/87 72/153/72
f 70/147/70 86/142/86 66/143/66
f 83/136/83 64/154/64 81/139/81
f 82/140/82 65/155/65 84/135/84
f 63/156/63 64/154/64 83/136/83
f 64/154/64 88/157/88 81/139/81
f 88/157/88 65/155/65 82/140/82
f 65/155/65 89/134/89 84/135/84
f 80/138/80 88/157/88 78/141/78
f 79/137/79 63/156/63 83/136/83
f 78/141/78 88/157/88 82/140/82
f 80/138/80 81/139/81 88/157/88
f 87/148/87 75/146/75 72/153/72
f 41/158/41 63/156/63 79/137/79
f 95/161/95 96/162/96 99/159/99
f 99/159/99 98/160/98 95/161/95
f 96/162/96 103/164/103 108/163/108
f 108/163/108 99/159/99 96/162/96
f 104/167/104 97/168/97 100/165/100
f 100/165/100 109/166/109 104/167/104
f 97/168/97 95/161/95 98/160/98
f 98/160/98 100/165/100 97/168/97
f 100/169/100 98/170/98 111/171/111
f 111/171/111 99/172/99 108/173/108
f 111/171/111 98/170/98 99/172/99
f 111/171/111 109/174/109 100/169/100
f 101/177/101 106/176/106 107/175/107
f 107/175/107 102/178/102 101/177/101
f 102/178/102 107/175/107 108/179/108
f 108/179/108 103/180/103 102/178/102
f 104/183/104 109/182/109 110/181/110
f 110/181/110 105/184/105 104/183/104
f 105/184/105 110/181/110 106/176/106
f 106/176/106 101/177/101 105/184/105
f 110/185/110 111/187/111 106/186/106
f 111/187/111 108/189/108 107/188/107
f 111/187/111 107/188/107 106/186/106
f 111/187/111 110/185/110 109/190/109
# 202 faces

g
