# Max2Obj Version 4.0 Mar 10th, 2001
#
# object base to come ...
#
v  100.019180 0.000011 -100.000000
v  100.019150 0.000015 0.000000
v  99.980835 99.999985 -100.000000
v  99.980820 99.999985 0.000000
v  0.019192 0.000008 -100.000000
v  0.019176 0.000011 -0.000031
v  -0.019161 99.999985 -100.000000
v  -0.019180 99.999985 0.000000
# 8 vertices

vt  0.020975 0.984067 1.412801
vt  0.020975 0.020230 1.412801
vt  0.984556 0.020230 1.412800
vt  0.984556 0.984067 1.412801
vt  0.020975 0.984067 1.412801
vt  0.020975 0.020230 1.412800
vt  0.984556 0.020230 1.412801
vt  0.984556 0.984067 1.412801
vt  0.984556 0.984067 1.412801
vt  0.020975 0.984067 1.412800
vt  0.020975 0.020230 1.412801
vt  0.984556 0.020230 1.412801
vt  0.020975 0.020230 0.999500
vt  0.984556 0.020230 0.999500
vt  0.984556 0.984067 0.999500
vt  0.020975 0.984067 0.999501
vt  0.984556 0.020230 0.000499
vt  0.020975 0.020230 0.000500
vt  0.020975 0.984067 0.000500
vt  0.984556 0.984067 0.000500
vt  0.020975 0.020230 1.412801
vt  0.020975 0.984067 1.412800
vt  0.984556 0.984067 1.412801
vt  0.984556 0.020230 1.412801
# 24 texture vertices

vn  0.577471 -0.577250 -0.577330
vn  0.577471 -0.577250 0.577330
vn  0.577230 0.577451 -0.577370
vn  0.577229 0.577451 0.577370
vn  -0.577229 -0.577451 -0.577370
vn  -0.577230 -0.577451 0.577370
vn  -0.577471 0.577250 -0.577330
vn  -0.577471 0.577250 0.577330
# 8 vertex normals

g base
s 1
f 1/7/1 3/8/3 4/5/4
f 4/5/4 2/6/2 1/7/1
f 5/11/5 6/12/6 8/9/8
f 8/9/8 7/10/7 5/11/5
f 1/15/1 2/16/2 6/13/6
f 6/13/6 5/14/5 1/15/1
f 2/3/2 4/4/4 8/1/8
f 8/1/8 6/2/6 2/3/2
f 4/19/4 3/20/3 7/17/7
f 7/17/7 8/18/8 4/19/4
f 3/23/3 1/24/1 5/21/5
f 5/21/5 7/22/7 3/23/3
# 12 faces

g
