# Max2Obj Version 4.0 Mar 10th, 2001
#
# object up to come ...
#
v  45.393646 50.000000 -50.000000
v  50.000000 50.000000 -45.393646
v  54.606354 50.000000 -50.000000
v  50.000000 50.000000 -54.606354
v  45.393646 100.000000 -50.000000
v  50.000000 100.000000 -45.393646
v  54.606354 100.000000 -50.000000
v  50.000000 100.000000 -54.606354
# 8 vertices

vt  0.500327 0.000000 1.000000
vt  0.008727 0.000000 1.000000
vt  0.500327 0.000000 1.000000
vt  0.008727 0.000000 1.000000
vt  0.500327 1.000000 1.000000
vt  0.008727 1.000000 1.000000
vt  0.500327 1.000000 1.000000
vt  0.008727 1.000000 1.000000
vt  0.008727 0.000000 1.000000
vt  0.008727 1.000000 1.000000
vt  0.008727 0.000000 1.000000
vt  0.008727 1.000000 1.000000
vt  0.012347 0.584104 0.999500
vt  0.012347 0.062864 0.999500
vt  0.490666 0.062864 0.999500
vt  0.490666 0.584104 0.999500
vt  0.012347 0.584104 0.000500
vt  0.490666 0.584104 0.000500
vt  0.490666 0.062864 0.000500
vt  0.012347 0.062864 0.000500
# 20 texture vertices

vn  -2.221442 -1.570796 -0.000000
vn  -0.000001 -0.785398 2.221442
vn  2.221442 -1.570796 0.000000
vn  0.000001 -0.785398 -2.221441
vn  -2.221442 0.785398 -0.000001
vn  -0.000001 1.570796 2.221442
vn  2.221442 0.785398 0.000001
vn  0.000001 1.570796 -2.221442
# 8 vertex normals

g up
s 1
f 1/1/1 2/9/2 6/10/6
f 6/10/6 5/5/5 1/1/1
f 2/2/2 3/3/3 7/7/7
f 7/7/7 6/6/6 2/2/2
f 3/3/3 4/4/4 8/8/8
f 8/8/8 7/7/7 3/3/3
f 4/11/4 1/1/1 5/5/5
f 5/5/5 8/12/8 4/11/4
f 8/13/8 5/14/5 7/16/7
f 4/17/4 3/18/3 2/19/2
f 2/19/2 1/20/1 4/17/4
f 5/14/5 6/15/6 7/16/7
# 12 faces

g
# object center to come ...
#
v  62.729534 37.270470 -62.729530
v  62.729530 37.270470 -37.270466
v  62.729534 62.729534 -62.729530
v  62.729530 62.729534 -37.270466
v  37.270470 37.270466 -62.729534
v  37.270466 37.270466 -37.270470
v  37.270470 62.729530 -62.729534
v  37.270466 62.729530 -37.270470
# 8 vertices

vt  0.006010 0.996179 1.412801
vt  0.006010 0.005068 1.412801
vt  0.995178 0.005068 1.412801
vt  0.995178 0.996179 1.412800
vt  0.995178 0.996179 1.412801
vt  0.006010 0.996179 1.412801
vt  0.006010 0.005068 1.412801
vt  0.995178 0.005068 1.412800
vt  0.006010 0.996179 1.412801
vt  0.006010 0.005068 1.412801
vt  0.006010 0.005068 0.999500
vt  0.995178 0.005068 0.999501
vt  0.995178 0.996179 0.999500
vt  0.006010 0.996179 0.999500
vt  0.995178 0.005068 0.000500
vt  0.006010 0.005068 0.000500
vt  0.006010 0.996179 0.000499
vt  0.995178 0.996179 0.000500
vt  0.006010 0.996179 1.412801
vt  0.006010 0.005068 1.412801
vt  0.995178 0.005068 1.412801
vt  0.995178 0.996179 1.412800
vt  0.995178 0.996179 1.412801
vt  0.995178 0.005068 1.412800
# 24 texture vertices

vn  1.570796 -0.785398 0.000000
vn  1.570796 -1.570796 0.000000
vn  1.570796 1.570796 0.000000
vn  1.570796 0.000000 1.570797
vn  -1.570796 -1.570796 -0.000000
vn  -1.570796 -0.785398 -0.000000
vn  -1.570796 0.785398 -0.000000
vn  -1.570796 -0.000000 0.785398
# 8 vertex normals

g center
s 1
f 9/39/9 11/40/11 12/41/12
f 12/41/12 10/42/10 9/39/9
f 13/25/13 14/29/14 16/30/16
f 16/30/16 15/28/15 13/25/13
f 9/31/9 10/32/10 14/33/14
f 14/33/14 13/34/13 9/31/9
f 10/24/10 12/23/12 16/27/16
f 16/27/16 14/26/14 10/24/10
f 12/35/12 11/36/11 15/37/15
f 15/37/15 16/38/16 12/35/12
f 11/22/11 9/21/9 13/43/13
f 13/43/13 15/44/15 11/22/11
# 12 faces

g
# object side1 to come ...
#
v  45.393646 50.000000 -50.000000
v  50.000000 45.393646 -50.000000
v  54.606354 50.000000 -50.000000
v  50.000000 54.606354 -50.000000
v  45.393646 50.000000 0.000000
v  50.000000 45.393642 0.000000
v  54.606354 49.999996 0.000000
v  50.000000 54.606354 0.000000
# 8 vertices

vt  0.500327 0.000000 1.000000
vt  0.008727 0.000000 1.000000
vt  0.500327 0.000000 1.000000
vt  0.008727 0.000000 1.000000
vt  0.500327 1.000000 1.000000
vt  0.008727 1.000000 1.000000
vt  0.500327 1.000000 1.000000
vt  0.008727 1.000000 1.000000
vt  0.008727 0.000000 1.000000
vt  0.008727 1.000000 1.000000
vt  0.008727 0.000000 1.000000
vt  0.008727 1.000000 1.000000
vt  0.012347 0.584104 0.999500
vt  0.012347 0.062864 0.999500
vt  0.490666 0.062864 0.999500
vt  0.490666 0.584104 0.999500
vt  0.012347 0.584104 0.000500
vt  0.490666 0.584104 0.000500
vt  0.490666 0.062864 0.000500
vt  0.012347 0.062864 0.000500
# 20 texture vertices

vn  -2.221442 0.000001 -1.570796
vn  -0.000001 -2.221441 -0.785398
vn  2.221441 -0.000001 -1.570796
vn  0.000001 2.221441 -0.785398
vn  -2.221442 0.000000 1.570796
vn  -0.000000 -2.221441 0.785398
vn  2.221441 -0.000000 1.570796
vn  0.000000 2.221442 0.785398
# 8 vertex normals

g side1
s 1
f 17/45/17 18/53/18 22/54/22
f 22/54/22 21/49/21 17/45/17
f 18/46/18 19/47/19 23/51/23
f 23/51/23 22/50/22 18/46/18
f 19/47/19 20/48/20 24/52/24
f 24/52/24 23/51/23 19/47/19
f 20/55/20 17/45/17 21/49/21
f 21/49/21 24/56/24 20/55/20
f 24/57/24 22/59/22 23/60/23
f 20/61/20 18/63/18 17/64/17
f 24/57/24 21/58/21 22/59/22
f 20/61/20 19/62/19 18/63/18
# 12 faces

g
# object down to come ...
#
v  45.427425 50.000000 -50.000000
v  50.000000 50.000000 -54.572575
v  54.572575 50.000000 -50.000000
v  50.000000 50.000000 -45.427425
v  45.427425 0.000000 -50.000008
v  50.000000 0.000000 -54.572582
v  54.572575 0.000000 -50.000008
v  50.000000 0.000000 -45.427433
# 8 vertices

vt  0.500327 0.000000 1.000000
vt  0.008727 0.000000 1.000000
vt  0.500327 0.000000 1.000000
vt  0.008727 0.000000 1.000000
vt  0.500327 1.000000 1.000000
vt  0.008727 1.000000 1.000000
vt  0.500327 1.000000 1.000000
vt  0.008727 1.000000 1.000000
vt  0.008727 0.000000 1.000000
vt  0.008727 1.000000 1.000000
vt  0.008727 0.000000 1.000000
vt  0.008727 1.000000 1.000000
vt  0.012347 0.584104 0.999500
vt  0.012347 0.062864 0.999500
vt  0.490666 0.062864 0.999500
vt  0.490666 0.584104 0.999500
vt  0.012347 0.584104 0.000500
vt  0.490666 0.584104 0.000500
vt  0.490666 0.062864 0.000500
vt  0.012347 0.062864 0.000500
# 20 texture vertices

vn  -2.221442 0.785398 0.000001
vn  -0.000001 1.570797 -2.221441
vn  2.221441 0.785398 -0.000000
vn  0.000001 1.570796 2.221442
vn  -2.221442 -0.785398 0.000000
vn  -0.000001 -1.570796 -2.221441
vn  2.221442 -0.785398 -0.000001
vn  0.000001 -1.570797 2.221442
# 8 vertex normals

g down
s 1
f 25/65/25 26/73/26 30/74/30
f 30/74/30 29/69/29 25/65/25
f 26/66/26 27/67/27 31/71/31
f 31/71/31 30/70/30 26/66/26
f 27/67/27 28/68/28 32/72/32
f 32/72/32 31/71/31 27/67/27
f 28/75/28 25/65/25 29/69/29
f 29/69/29 32/76/32 28/75/28
f 32/77/32 29/78/29 31/80/31
f 27/82/27 26/83/26 25/84/25
f 29/78/29 30/79/30 31/80/31
f 25/84/25 28/81/28 27/82/27
# 12 faces

g
# object side0 to come ...
#
v  45.427425 50.000000 -50.000000
v  50.000000 46.766701 -46.766701
v  54.572575 50.000000 -50.000000
v  50.000000 53.233299 -53.233299
v  45.393646 100.204582 0.204582
v  50.000000 96.947388 3.461761
v  54.606354 100.204575 0.204582
v  50.000000 103.461761 -3.052601
# 8 vertices

vt  0.500327 0.000000 1.000000
vt  0.008727 0.000000 1.000000
vt  0.500327 0.000000 1.000000
vt  0.008727 0.000000 1.000000
vt  0.500327 1.000000 1.000000
vt  0.008727 1.000000 1.000000
vt  0.500327 1.000000 1.000000
vt  0.008727 1.000000 1.000000
vt  0.008727 0.000000 1.000000
vt  0.008727 1.000000 1.000000
vt  0.008727 0.000000 1.000000
vt  0.008727 1.000000 1.000000
vt  0.012347 0.584104 0.999500
vt  0.012347 0.062864 0.999500
vt  0.490666 0.062864 0.999500
vt  0.490666 0.584104 0.999500
vt  0.012347 0.584104 0.000500
vt  0.490666 0.584104 0.000500
vt  0.490666 0.062864 0.000500
vt  0.012347 0.062864 0.000500
# 20 texture vertices

vn  -2.221917 -1.111468 -1.111469
vn  -0.000001 -2.127241 1.015025
vn  2.221917 -1.111468 -1.111468
vn  0.000001 1.015025 -2.127241
vn  -2.220963 1.109973 1.109974
vn  -0.000001 -1.015848 2.125075
vn  2.220966 1.109972 1.109975
vn  0.000001 2.125072 -1.015846
# 8 vertex normals

g side0
s 1
f 33/85/33 34/93/34 38/94/38
f 38/94/38 37/89/37 33/85/33
f 34/86/34 35/87/35 39/91/39
f 39/91/39 38/90/38 34/86/34
f 35/87/35 36/88/36 40/92/40
f 40/92/40 39/91/39 35/87/35
f 36/95/36 33/85/33 37/89/37
f 37/89/37 40/96/40 36/95/36
f 40/97/40 37/98/37 38/99/38
f 36/101/36 35/102/35 34/103/34
f 38/99/38 39/100/39 40/97/40
f 34/103/34 33/104/33 36/101/36
# 12 faces

g
# object side2 to come ...
#
v  45.393646 50.000000 -50.000000
v  49.999996 53.257183 -46.742817
v  54.606354 50.000000 -50.000000
v  50.000000 46.742817 -53.257183
v  45.393642 -0.204582 0.204571
v  49.999996 3.052608 3.461754
v  54.606350 -0.204578 0.204571
v  49.999996 -3.461765 -3.052612
# 8 vertices

vt  0.500327 0.000000 1.000000
vt  0.008727 0.000000 1.000000
vt  0.500327 0.000000 1.000000
vt  0.008727 0.000000 1.000000
vt  0.500327 1.000000 1.000000
vt  0.008727 1.000000 1.000000
vt  0.500327 1.000000 1.000000
vt  0.008727 1.000000 1.000000
vt  0.008727 0.000000 1.000000
vt  0.008727 1.000000 1.000000
vt  0.008727 0.000000 1.000000
vt  0.008727 1.000000 1.000000
vt  0.012347 0.584104 0.999500
vt  0.012347 0.062864 0.999500
vt  0.490666 0.062864 0.999500
vt  0.490666 0.584104 0.999500
vt  0.012347 0.584104 0.000500
vt  0.490666 0.584104 0.000500
vt  0.490666 0.062864 0.000500
vt  0.012347 0.062864 0.000500
# 20 texture vertices

vn  -2.221442 1.110721 -1.110721
vn  -0.000001 2.126157 1.015436
vn  2.221441 1.110721 -1.110720
vn  0.000001 -1.015436 -2.126157
vn  -2.221440 -1.110721 1.110720
vn  -0.000001 1.015437 2.126158
vn  2.221442 -1.110720 1.110721
vn  0.000001 -2.126156 -1.015436
# 8 vertex normals

g side2
s 1
f 41/105/41 45/109/45 46/114/46
f 46/114/46 42/113/42 41/105/41
f 42/106/42 46/110/46 47/111/47
f 47/111/47 43/107/43 42/106/42
f 43/107/43 47/111/47 48/112/48
f 48/112/48 44/108/44 43/107/43
f 44/115/44 48/116/48 45/109/45
f 45/109/45 41/105/41 44/115/44
f 48/117/48 46/119/46 45/118/45
f 44/121/44 42/123/42 43/122/43
f 48/117/48 47/120/47 46/119/46
f 44/121/44 41/124/41 42/123/42
# 12 faces

g
