# 3ds Max Wavefront OBJ Exporter v0.97b - (c)2007 guruware
# File Created: 25.06.2021 10:34:42

mtllib hearth3.mtl

#
# object base
#

v  99.9992 83.4668 -100.0000
v  50.0000 83.4668 -100.0000
v  50.0000 90.9057 -100.0000
v  99.9980 90.9057 -100.0000
v  99.9992 83.4668 -0.4435
v  50.0000 83.4668 -0.4435
v  50.0000 76.0280 -7.4278
v  100.0004 76.0280 -7.4278
v  100.0028 0.0000 -100.0000
v  50.0000 0.0000 -100.0000
v  50.0000 76.0280 -100.0000
v  100.0004 76.0280 -100.0000
v  50.0000 90.9057 -7.4278
v  99.9980 90.9057 -7.4278
v  100.0004 0.0000 -7.4278
v  50.0000 0.0000 -7.4278
v  0.0009 83.4668 -100.0000
v  0.0021 90.9057 -100.0000
v  0.0009 83.4668 -0.4435
v  -0.0003 76.0280 -7.4278
v  -0.0027 0.0000 -100.0000
v  -0.0003 76.0280 -100.0000
v  0.0021 90.9057 -7.4278
v  -0.0003 0.0000 -7.4278
v  61.1851 43.4854 -2.9828
v  77.8425 43.4854 -2.9828
v  77.8425 47.5276 -2.9828
v  61.1851 47.5276 -2.9828
v  61.1851 43.4854 -7.6940
v  61.1851 47.5276 -7.6940
v  77.8425 47.5276 -7.6940
v  77.8425 43.4854 -7.6940
v  63.1424 47.5276 -4.2548
v  63.1424 47.5276 -7.6940
v  75.8853 43.4854 -4.2548
v  75.8853 43.4854 -7.6940
v  75.8853 47.5276 -4.2548
v  63.1424 43.4854 -4.2548
v  75.8853 47.5276 -7.6940
v  63.1424 43.4854 -7.6940
v  38.8149 43.4854 -2.9828
v  38.8149 47.5276 -2.9828
v  22.1575 47.5276 -2.9828
v  22.1575 43.4854 -2.9828
v  38.8149 43.4854 -7.6940
v  38.8149 47.5276 -7.6940
v  22.1575 47.5276 -7.6940
v  22.1575 43.4854 -7.6940
v  36.8576 47.5276 -7.6940
v  36.8576 47.5276 -4.2548
v  24.1147 43.4854 -7.6940
v  24.1147 43.4854 -4.2548
v  24.1147 47.5276 -4.2548
v  36.8576 43.4854 -4.2548
v  24.1147 47.5276 -7.6940
v  36.8576 43.4854 -7.6940
v  61.1851 16.5569 -2.9828
v  77.8425 16.5569 -2.9828
v  77.8425 20.5991 -2.9828
v  61.1851 20.5991 -2.9828
v  61.1851 16.5569 -7.6940
v  61.1851 20.5991 -7.6940
v  77.8425 20.5991 -7.6940
v  77.8425 16.5569 -7.6940
v  63.1424 20.5991 -4.2548
v  63.1424 20.5991 -7.6940
v  75.8853 16.5569 -4.2548
v  75.8853 16.5569 -7.6940
v  75.8853 20.5991 -4.2548
v  63.1424 16.5569 -4.2548
v  75.8853 20.5991 -7.6940
v  63.1424 16.5569 -7.6940
v  38.8149 16.5569 -2.9828
v  38.8149 20.5991 -2.9828
v  22.1575 20.5991 -2.9828
v  22.1575 16.5569 -2.9828
v  38.8149 16.5569 -7.6940
v  38.8149 20.5991 -7.6940
v  22.1575 20.5991 -7.6940
v  22.1575 16.5569 -7.6940
v  36.8576 20.5991 -7.6940
v  36.8576 20.5991 -4.2548
v  24.1147 16.5569 -7.6940
v  24.1147 16.5569 -4.2548
v  24.1147 20.5991 -4.2548
v  36.8576 16.5569 -4.2548
v  24.1147 20.5991 -7.6940
v  36.8576 16.5569 -7.6940
# 88 vertices

vn 0.0000 0.0000 -1.0000
vn -0.0000 0.0000 -1.0000
vn -0.0000 -0.6845 0.7290
vn 0.0000 -0.6845 0.7290
vn 0.0000 -0.0000 -1.0000
vn 1.0000 0.0002 0.0000
vn 1.0000 0.0002 -0.0000
vn 1.0000 0.0001 0.0000
vn -0.0000 1.0000 0.0000
vn 0.0000 1.0000 0.0000
vn -0.0000 1.0000 -0.0000
vn -0.0000 -1.0000 -0.0000
vn 0.0000 -1.0000 -0.0000
vn -0.0000 0.6845 0.7290
vn 0.0000 0.6845 0.7290
vn 1.0000 0.0000 0.0000
vn 0.0000 -0.0000 1.0000
vn 0.0000 0.0000 1.0000
vn -0.0000 -0.0000 1.0000
vn -0.0000 -0.0000 -1.0000
vn -1.0000 0.0002 0.0000
vn -1.0000 0.0001 0.0000
vn -1.0000 0.0002 -0.0000
vn 0.0000 1.0000 -0.0000
vn -1.0000 0.0000 0.0000
vn -1.0000 -0.0000 -0.0000
vn 1.0000 0.0000 -0.0000
vn 0.7071 0.0000 -0.7071
vn -0.7071 0.0000 -0.7071
vn -1.0000 0.0000 -0.0000
vn 1.0000 -0.0000 -0.0000
# 31 vertex normals

vt 0.3867 0.3093 0.0000
vt 0.5473 0.3093 0.0000
vt 0.5473 0.3332 0.0000
vt 0.3867 0.3332 0.0000
vt 0.9885 0.9249 0.0000
vt 0.5371 0.9249 0.0000
vt 0.5371 0.8630 0.0000
vt 0.9885 0.8630 0.0000
vt 0.3867 0.0121 0.0000
vt 0.5473 0.0121 0.0000
vt 0.5473 0.2855 0.0000
vt 0.3867 0.2855 0.0000
vt 0.9902 0.3095 0.0000
vt 0.6943 0.3095 0.0000
vt 0.7085 0.2852 0.0000
vt 0.9902 0.2852 0.0000
vt 0.5208 0.9861 0.0000
vt 0.0178 0.9861 0.0000
vt 0.0178 0.3483 0.0000
vt 0.5208 0.3483 0.0000
vt 0.5638 0.0129 0.0000
vt 0.6893 0.0129 0.0000
vt 0.6893 0.2852 0.0000
vt 0.5638 0.2852 0.0000
vt 0.9885 0.9868 0.0000
vt 0.5371 0.9868 0.0000
vt 0.9902 0.3335 0.0000
vt 0.7085 0.3335 0.0000
vt 0.7085 0.0091 0.0000
vt 0.9902 0.0091 0.0000
vt 0.5371 0.3465 0.0000
vt 0.9885 0.3465 0.0000
vt 0.0759 0.0099 0.0000
vt 0.2987 0.0099 0.0000
vt 0.2987 0.1224 0.0000
vt 0.0759 0.1224 0.0000
vt 0.0056 0.0099 0.0000
vt 0.0056 0.1224 0.0000
vt 0.3690 0.1224 0.0000
vt 0.3690 0.0099 0.0000
vt 0.0261 0.3180 0.0000
vt 0.0261 0.1371 0.0000
vt 0.0622 0.1859 0.0000
vt 0.0622 0.3180 0.0000
vt 0.0809 0.3324 0.0000
vt 0.0809 0.2821 0.0000
vt 0.1045 0.3068 0.0000
vt 0.1045 0.3324 0.0000
vt 0.3334 0.1371 0.0000
vt 0.2973 0.1859 0.0000
vt 0.2817 0.2821 0.0000
vt 0.2581 0.3068 0.0000
vt 0.1176 0.2716 0.0000
vt 0.1176 0.2072 0.0000
vt 0.2536 0.2072 0.0000
vt 0.2536 0.2716 0.0000
vt 0.2946 0.2072 0.0000
vt 0.2946 0.2716 0.0000
vt 0.0767 0.2716 0.0000
vt 0.0767 0.2072 0.0000
vt 0.3334 0.3180 0.0000
vt 0.2973 0.3180 0.0000
vt 0.2817 0.3324 0.0000
vt 0.2581 0.3324 0.0000
# 64 texture coords

g base
usemtl Material__3
s 4
f 1/1/1 2/2/2 3/3/1 
f 3/3/1 4/4/1 1/1/1 
s 2
f 5/5/3 6/6/4 7/7/4 
f 7/7/4 8/8/3 5/5/3 
s 4
f 9/9/5 10/10/5 11/11/5 
f 11/11/5 12/12/1 9/9/5 
s 1
f 1/13/6 5/14/7 8/15/8 
f 8/15/8 12/16/8 1/13/6 
s 2
f 4/17/9 3/18/10 13/19/9 
f 13/19/9 14/20/11 4/17/9 
f 10/21/12 9/22/13 15/23/13 
f 15/23/13 16/24/13 10/21/12 
s 4
f 12/12/1 11/11/5 2/2/2 
f 2/2/2 1/1/1 12/12/1 
f 14/25/14 13/26/15 6/6/15 
f 6/6/15 5/5/14 14/25/14 
s 1
f 4/27/7 14/28/7 5/14/7 
f 5/14/7 1/13/6 4/27/7 
f 15/29/16 9/30/16 12/16/8 
f 12/16/8 8/15/8 15/29/16 
s 4
f 7/7/17 16/31/18 15/32/19 
f 15/32/19 8/8/19 7/7/17 
f 17/1/2 18/4/2 3/3/1 
f 3/3/1 2/2/2 17/1/2 
s 2
f 19/5/4 20/8/4 7/7/4 
f 7/7/4 6/6/4 19/5/4 
s 4
f 11/11/5 10/10/5 21/9/20 
f 21/9/20 22/12/2 11/11/5 
s 1
f 17/13/21 22/16/22 20/15/22 
f 20/15/22 19/14/23 17/13/21 
s 2
f 18/17/10 23/20/24 13/19/9 
f 13/19/9 3/18/10 18/17/10 
f 10/21/12 16/24/13 24/23/12 
f 24/23/12 21/22/13 10/21/12 
s 4
f 22/12/2 17/1/2 2/2/2 
f 2/2/2 11/11/5 22/12/2 
f 23/25/15 19/5/15 6/6/15 
f 6/6/15 13/26/15 23/25/15 
s 1
f 18/27/23 17/13/21 19/14/23 
f 19/14/23 23/28/23 18/27/23 
f 22/16/22 21/30/25 24/29/25 
f 24/29/25 20/15/22 22/16/22 
s 4
f 24/32/17 16/31/18 7/7/17 
f 7/7/17 20/8/17 24/32/17 
f 25/33/18 26/34/18 27/35/18 
f 27/35/18 28/36/18 25/33/18 
s 1
f 29/37/26 25/33/26 28/36/26 
f 28/36/26 30/38/26 29/37/26 
f 31/39/27 27/35/27 26/34/27 
f 26/34/27 32/40/27 31/39/27 
s 2
f 30/41/24 28/42/24 33/43/24 
f 33/43/24 34/44/24 30/41/24 
f 32/45/13 26/46/13 35/47/13 
f 35/47/13 36/48/13 32/45/13 
f 33/43/24 28/42/24 27/49/24 
f 27/49/24 37/50/24 33/43/24 
f 35/47/13 26/46/13 25/51/13 
f 25/51/13 38/52/13 35/47/13 
s 1
f 38/53/28 33/54/28 37/55/29 
f 37/55/29 35/56/29 38/53/28 
f 39/57/30 36/58/30 35/56/29 
f 35/56/29 37/55/29 39/57/30 
f 40/59/27 34/60/27 33/54/28 
f 33/54/28 38/53/28 40/59/27 
s 2
f 31/61/24 39/62/24 37/50/24 
f 37/50/24 27/49/24 31/61/24 
f 29/63/13 40/64/13 38/52/13 
f 38/52/13 25/51/13 29/63/13 
s 4
f 41/33/18 42/36/18 43/35/18 
f 43/35/18 44/34/18 41/33/18 
s 1
f 45/37/31 46/38/31 42/36/31 
f 42/36/31 41/33/31 45/37/31 
f 47/39/30 48/40/30 44/34/30 
f 44/34/30 43/35/30 47/39/30 
s 2
f 46/41/24 49/44/24 50/43/24 
f 50/43/24 42/42/24 46/41/24 
f 48/45/13 51/48/13 52/47/13 
f 52/47/13 44/46/13 48/45/13 
f 50/43/24 53/50/24 43/49/24 
f 43/49/24 42/42/24 50/43/24 
f 52/47/13 54/52/13 41/51/13 
f 41/51/13 44/46/13 52/47/13 
s 1
f 54/53/29 52/56/28 53/55/28 
f 53/55/28 50/54/29 54/53/29 
f 55/57/27 53/55/28 52/56/28 
f 52/56/28 51/58/27 55/57/27 
f 56/59/30 54/53/29 50/54/29 
f 50/54/29 49/60/30 56/59/30 
s 2
f 47/61/24 43/49/24 53/50/24 
f 53/50/24 55/62/24 47/61/24 
f 45/63/13 41/51/13 54/52/13 
f 54/52/13 56/64/13 45/63/13 
s 4
f 57/33/18 58/34/18 59/35/18 
f 59/35/18 60/36/18 57/33/18 
s 1
f 61/37/26 57/33/26 60/36/26 
f 60/36/26 62/38/26 61/37/26 
f 63/39/27 59/35/27 58/34/27 
f 58/34/27 64/40/27 63/39/27 
s 2
f 62/41/24 60/42/24 65/43/24 
f 65/43/24 66/44/24 62/41/24 
f 64/45/13 58/46/13 67/47/13 
f 67/47/13 68/48/13 64/45/13 
f 65/43/24 60/42/24 59/49/24 
f 59/49/24 69/50/24 65/43/24 
f 67/47/13 58/46/13 57/51/13 
f 57/51/13 70/52/13 67/47/13 
s 1
f 70/53/28 65/54/28 69/55/29 
f 69/55/29 67/56/29 70/53/28 
f 71/57/30 68/58/30 67/56/29 
f 67/56/29 69/55/29 71/57/30 
f 72/59/27 66/60/27 65/54/28 
f 65/54/28 70/53/28 72/59/27 
s 2
f 63/61/24 71/62/24 69/50/24 
f 69/50/24 59/49/24 63/61/24 
f 61/63/13 72/64/13 70/52/13 
f 70/52/13 57/51/13 61/63/13 
s 4
f 73/33/18 74/36/18 75/35/18 
f 75/35/18 76/34/18 73/33/18 
s 1
f 77/37/31 78/38/31 74/36/31 
f 74/36/31 73/33/31 77/37/31 
f 79/39/30 80/40/30 76/34/30 
f 76/34/30 75/35/30 79/39/30 
s 2
f 78/41/24 81/44/24 82/43/24 
f 82/43/24 74/42/24 78/41/24 
f 80/45/13 83/48/13 84/47/13 
f 84/47/13 76/46/13 80/45/13 
f 82/43/24 85/50/24 75/49/24 
f 75/49/24 74/42/24 82/43/24 
f 84/47/13 86/52/13 73/51/13 
f 73/51/13 76/46/13 84/47/13 
s 1
f 86/53/29 84/56/28 85/55/28 
f 85/55/28 82/54/29 86/53/29 
f 87/57/27 85/55/28 84/56/28 
f 84/56/28 83/58/27 87/57/27 
f 88/59/30 86/53/29 82/54/29 
f 82/54/29 81/60/30 88/59/30 
s 2
f 79/61/24 75/49/24 85/50/24 
f 85/50/24 87/62/24 79/61/24 
f 77/63/13 73/51/13 86/52/13 
f 86/52/13 88/64/13 77/63/13 
# 140 faces

#
# object pan
#

v  78.3243 95.3420 -64.5045
v  70.8492 90.9287 -64.5045
v  68.0560 90.9287 -74.9291
v  74.5296 95.3420 -78.6667
v  60.4246 90.9287 -82.5604
v  64.1622 95.3420 -89.0341
v  50.0000 90.9287 -85.3537
v  50.0000 95.3420 -92.8288
v  50.0000 95.3420 -36.1801
v  50.0000 90.9287 -43.6552
v  60.4246 90.9287 -46.4485
v  64.1622 95.3420 -39.9749
v  68.0560 90.9287 -54.0798
v  74.5296 95.3420 -50.3423
v  81.1368 102.0937 -64.5045
v  76.9652 102.0937 -80.0729
v  65.5684 102.0937 -91.4697
v  50.0000 102.0937 -95.6412
v  50.0000 102.0937 -33.3677
v  65.5684 102.0937 -37.5392
v  76.9652 102.0937 -48.9361
v  50.0000 90.9287 -64.5045
v  50.0000 93.5919 -64.5045
v  50.0000 97.6919 -37.9665
v  63.2690 97.6919 -41.5219
v  75.2226 102.0937 -49.9422
v  64.5623 102.0937 -39.2818
v  79.1246 102.0937 -64.5045
v  64.5623 102.0937 -89.7271
v  50.0000 102.0937 -93.6290
v  76.5379 97.6919 -64.5045
v  72.9825 97.6919 -77.7734
v  75.2226 102.0937 -79.0668
v  50.0000 102.0937 -35.3799
v  72.9825 97.6919 -51.2355
v  50.0000 97.6919 -91.0424
v  63.2690 97.6919 -87.4870
v  50.0000 94.9536 -64.5045
v  66.9005 98.9785 -78.3805
v  73.0560 98.9785 -67.9589
v  61.8518 98.9785 -85.0324
v  50.0000 98.9785 -88.2081
v  61.7441 98.9785 -46.5435
v  50.0000 98.9785 -40.8008
v  68.6624 98.9785 -52.6526
v  52.5972 104.3032 -66.7450
v  21.6757 95.3420 -64.5045
v  25.4704 95.3420 -78.6667
v  31.9440 90.9287 -74.9291
v  29.1508 90.9287 -64.5045
v  35.8378 95.3420 -89.0341
v  39.5754 90.9287 -82.5604
v  35.8378 95.3420 -39.9749
v  39.5754 90.9287 -46.4485
v  25.4704 95.3420 -50.3423
v  31.9440 90.9287 -54.0798
v  18.8632 102.0937 -64.5045
v  23.0348 102.0937 -80.0729
v  34.4316 102.0937 -91.4697
v  34.4316 102.0937 -37.5392
v  23.0348 102.0937 -48.9361
v  36.7310 97.6919 -41.5219
v  35.4377 102.0937 -39.2818
v  24.7774 102.0937 -49.9422
v  20.8754 102.0937 -64.5045
v  35.4377 102.0937 -89.7271
v  27.0175 97.6919 -77.7734
v  23.4621 97.6919 -64.5045
v  24.7774 102.0937 -79.0668
v  27.0175 97.6919 -51.2355
v  36.7310 97.6919 -87.4870
v  26.2964 98.9785 -64.5045
v  28.1268 98.9785 -76.3563
v  39.0590 98.9785 -83.7217
v  38.1482 98.9785 -43.9765
v  28.7885 98.9785 -57.1117
v  45.2361 100.6397 2.6838
v  54.7639 100.6397 2.6838
v  53.6026 101.5975 -8.4565
v  46.3974 101.5975 -8.4565
v  45.2361 95.3964 2.6838
v  46.3974 97.6369 -8.4565
v  53.6026 97.6369 -8.4565
v  54.7639 95.3964 2.6838
v  45.1842 101.5975 -35.5991
v  45.1842 95.3964 -37.9566
v  45.7174 95.3964 -30.4254
v  45.7174 101.5975 -30.4254
v  54.2826 101.5975 -30.4254
v  54.8158 101.5975 -35.5991
v  54.8158 95.3964 -37.9566
v  54.2826 95.3964 -30.4254
v  46.3974 97.6369 -20.2254
v  46.3974 101.5975 -20.2254
v  53.6026 101.5975 -20.2254
v  53.6026 97.6369 -20.2254
# 96 vertices

vn 0.7753 -0.6316 0.0000
vn 0.5084 -0.8611 0.0000
vn 0.4403 -0.8611 -0.2542
vn 0.6714 -0.6316 -0.3876
vn 0.2542 -0.8611 -0.4403
vn 0.3876 -0.6316 -0.6714
vn 0.0000 -0.8611 -0.5084
vn 0.0000 -0.6316 -0.7753
vn -0.0000 -0.6316 0.7753
vn 0.0000 -0.8611 0.5084
vn 0.2542 -0.8611 0.4403
vn 0.3876 -0.6316 0.6714
vn 0.4403 -0.8611 0.2542
vn 0.6714 -0.6316 0.3876
vn 0.9231 -0.3845 0.0000
vn 0.7994 -0.3845 -0.4616
vn 0.4616 -0.3845 -0.7994
vn 0.0000 -0.3845 -0.9231
vn -0.0000 -0.3845 0.9231
vn 0.4616 -0.3845 0.7994
vn 0.7994 -0.3845 0.4616
vn 0.0000 -1.0000 -0.0000
vn 0.0000 1.0000 -0.0000
vn 0.0000 0.9883 -0.1527
vn -0.0763 0.9883 -0.1322
vn -0.1527 0.9883 0.0000
vn -0.1322 0.9883 0.0763
vn -0.4311 0.5066 -0.7467
vn -0.7467 0.5066 -0.4311
vn -0.8622 0.5066 -0.0000
vn -0.8622 0.5066 0.0000
vn -0.4311 0.5066 0.7467
vn 0.0000 0.5066 0.8622
vn -0.0000 0.5066 0.8622
vn -0.7467 0.5066 0.4311
vn 0.0000 0.5066 -0.8622
vn -0.1322 0.9883 -0.0763
vn 0.0000 0.9883 0.1527
vn -0.0763 0.9883 0.1322
vn 0.0044 -1.0000 0.0025
vn 0.1506 -0.9833 -0.1018
vn 0.1687 -0.9854 -0.0222
vn 0.0920 -0.9858 -0.1402
vn -0.0090 -0.9858 -0.1674
vn 0.1023 -0.9829 0.1534
vn 0.0135 -0.9858 0.1674
vn 0.1514 -0.9838 0.0957
vn 0.0323 0.9993 -0.0190
vn 0.0129 0.9792 0.2023
vn 0.1288 0.9717 0.1978
vn 0.2033 0.9698 0.1347
vn 0.2502 0.9678 -0.0288
vn 0.1369 0.9675 -0.2124
vn -0.0173 0.9709 -0.2388
vn 0.2307 0.9604 -0.1559
vn -0.7753 -0.6316 0.0000
vn -0.6714 -0.6316 -0.3876
vn -0.4403 -0.8611 -0.2542
vn -0.5084 -0.8611 0.0000
vn -0.3876 -0.6316 -0.6714
vn -0.2542 -0.8611 -0.4403
vn -0.3876 -0.6316 0.6714
vn -0.2542 -0.8611 0.4403
vn -0.6714 -0.6316 0.3876
vn -0.4403 -0.8611 0.2542
vn -0.9231 -0.3845 0.0000
vn -0.7994 -0.3845 -0.4616
vn -0.4616 -0.3845 -0.7994
vn -0.4616 -0.3845 0.7994
vn -0.7994 -0.3845 0.4616
vn 0.0763 0.9883 -0.1322
vn 0.1322 0.9883 0.0763
vn 0.1527 0.9883 0.0000
vn 0.4311 0.5066 -0.7467
vn 0.7467 0.5066 -0.4311
vn 0.8622 0.5066 -0.0000
vn 0.4311 0.5066 0.7467
vn 0.7467 0.5066 0.4311
vn 0.1322 0.9883 -0.0763
vn 0.0763 0.9883 0.1322
vn -0.1674 -0.9858 0.0127
vn -0.1361 -0.9871 -0.0840
vn -0.0847 -0.9838 -0.1578
vn -0.0938 -0.9858 0.1391
vn -0.1592 -0.9841 0.0791
vn -0.1095 0.9810 0.1600
vn -0.1820 0.9790 0.0913
vn -0.1970 0.9803 0.0170
vn -0.1161 0.9704 -0.2118
vn -0.1733 0.9796 -0.1016
vn -0.0000 0.9963 0.0857
vn 0.0000 0.9963 0.0857
vn -0.0000 0.9990 0.0442
vn -0.0000 -0.9804 -0.1972
vn -0.0000 -0.9948 -0.1022
vn 0.0000 -0.9804 -0.1972
vn 0.0000 0.0000 1.0000
vn 0.9946 0.0000 -0.1037
vn 0.9985 0.0000 -0.0550
vn 0.9987 0.0000 -0.0505
vn -0.9963 -0.0147 0.0850
vn -0.9971 -0.0268 0.0706
vn -0.9970 -0.0080 0.0763
vn -0.9964 0.0000 0.0845
vn 0.0000 -0.9947 0.1032
vn 0.9970 -0.0080 0.0763
vn 0.9971 -0.0268 0.0706
vn 0.9963 -0.0147 0.0850
vn 0.9964 -0.0000 0.0845
vn -0.9994 0.0000 0.0354
vn -0.9994 0.0000 0.0333
vn 0.0000 -0.9939 0.1101
vn 0.9994 -0.0000 0.0354
vn 0.9994 -0.0000 0.0333
vn -0.9985 -0.0000 -0.0550
vn -0.9987 -0.0000 -0.0505
vn -0.9946 0.0000 -0.1037
vn -0.9946 -0.0000 -0.1037
# 118 vertex normals

vt 0.5034 0.1033 0.0000
vt 0.5034 0.0125 0.0000
vt 0.6763 0.0125 0.0000
vt 0.6763 0.1033 0.0000
vt 0.8378 0.0125 0.0000
vt 0.8378 0.1033 0.0000
vt 0.9939 0.0125 0.0000
vt 0.9939 0.1033 0.0000
vt 0.0137 0.1033 0.0000
vt 0.0137 0.0125 0.0000
vt 0.1620 0.0125 0.0000
vt 0.1620 0.1033 0.0000
vt 0.3261 0.0125 0.0000
vt 0.3261 0.1033 0.0000
vt 0.5034 0.1878 0.0000
vt 0.6763 0.1878 0.0000
vt 0.8378 0.1878 0.0000
vt 0.9939 0.1878 0.0000
vt 0.0137 0.1878 0.0000
vt 0.1620 0.1878 0.0000
vt 0.3261 0.1878 0.0000
vt 0.9841 0.6810 0.0000
vt 0.9147 0.7193 0.0000
vt 0.9049 0.6795 0.0000
vt 0.0147 0.6303 0.0000
vt 0.0147 0.5185 0.0000
vt 0.0709 0.5341 0.0000
vt 0.8378 0.3677 0.0000
vt 0.6763 0.3677 0.0000
vt 0.6763 0.3198 0.0000
vt 0.8378 0.3198 0.0000
vt 0.5034 0.3677 0.0000
vt 0.5034 0.3198 0.0000
vt 0.1620 0.3198 0.0000
vt 0.1620 0.3677 0.0000
vt 0.0137 0.3677 0.0000
vt 0.0137 0.3198 0.0000
vt 0.1256 0.6303 0.0000
vt 0.1110 0.6857 0.0000
vt 0.3261 0.3198 0.0000
vt 0.3261 0.3677 0.0000
vt 0.9841 0.7603 0.0000
vt 0.9432 0.7489 0.0000
vt 0.9162 0.6400 0.0000
vt 0.9458 0.6116 0.0000
vt 0.9841 0.6017 0.0000
vt 0.9939 0.3677 0.0000
vt 0.9939 0.3198 0.0000
vt 0.8378 0.3045 0.0000
vt 0.6763 0.3045 0.0000
vt 0.6763 0.2047 0.0000
vt 0.8378 0.2047 0.0000
vt 0.5034 0.3045 0.0000
vt 0.5034 0.2047 0.0000
vt 0.1620 0.3045 0.0000
vt 0.0137 0.3045 0.0000
vt 0.0137 0.2047 0.0000
vt 0.1620 0.2047 0.0000
vt 0.3261 0.2047 0.0000
vt 0.3261 0.3045 0.0000
vt 0.9939 0.3045 0.0000
vt 0.9939 0.2047 0.0000
vt 0.1110 0.5750 0.0000
vt 0.0147 0.7422 0.0000
vt 0.0709 0.7265 0.0000
vt 0.1812 0.5289 0.0000
vt 0.2089 0.5772 0.0000
vt 0.1812 0.5845 0.0000
vt 0.2294 0.5571 0.0000
vt 0.2373 0.5289 0.0000
vt 0.1330 0.5571 0.0000
vt 0.1250 0.5289 0.0000
vt 0.1535 0.5772 0.0000
vt 0.4929 0.9848 0.0000
vt 0.0168 0.9848 0.0000
vt 0.0866 0.7452 0.0000
vt 0.2600 0.5784 0.0000
vt 0.4929 0.5176 0.0000
vt 0.8991 0.7452 0.0000
vt 0.9690 0.9848 0.0000
vt 0.7257 0.5784 0.0000
vt 0.7677 0.5697 0.0000
vt 0.7677 0.3853 0.0000
vt 0.9896 0.3853 0.0000
vt 0.9896 0.5697 0.0000
vt 0.0177 0.4207 0.0000
vt 0.1102 0.4207 0.0000
vt 0.1102 0.3859 0.0000
vt 0.0177 0.3859 0.0000
vt 0.7447 0.5331 0.0000
vt 0.6964 0.5331 0.0000
vt 0.6964 0.5094 0.0000
vt 0.7447 0.5094 0.0000
vt 0.0177 0.4943 0.0000
vt 0.0177 0.4337 0.0000
vt 0.1102 0.4337 0.0000
vt 0.1102 0.4943 0.0000
vt 0.3878 0.4943 0.0000
vt 0.3878 0.4337 0.0000
vt 0.3232 0.4337 0.0000
vt 0.3232 0.4943 0.0000
vt 0.6750 0.3865 0.0000
vt 0.7526 0.3865 0.0000
vt 0.7526 0.4898 0.0000
vt 0.6750 0.4898 0.0000
vt 0.3232 0.4207 0.0000
vt 0.3878 0.4207 0.0000
vt 0.3878 0.3859 0.0000
vt 0.3232 0.3859 0.0000
vt 0.3183 0.4943 0.0000
vt 0.3183 0.4337 0.0000
vt 0.2297 0.4337 0.0000
vt 0.2297 0.4943 0.0000
vt 0.5559 0.3865 0.0000
vt 0.6682 0.3865 0.0000
vt 0.6682 0.4898 0.0000
vt 0.5559 0.4898 0.0000
vt 0.2297 0.4207 0.0000
vt 0.3183 0.4207 0.0000
vt 0.3183 0.3859 0.0000
vt 0.2297 0.3859 0.0000
vt 0.4078 0.3865 0.0000
vt 0.4078 0.4898 0.0000
# 123 texture coords

g pan
usemtl Material__150
s 1
f 89/65/32 90/66/33 91/67/34 
f 91/67/34 92/68/35 89/65/32 
f 92/68/35 91/67/34 93/69/36 
f 93/69/36 94/70/37 92/68/35 
f 94/70/37 93/69/36 95/71/38 
f 95/71/38 96/72/39 94/70/37 
f 97/73/40 98/74/41 99/75/42 
f 99/75/42 100/76/43 97/73/40 
f 100/76/43 99/75/42 101/77/44 
f 101/77/44 102/78/45 100/76/43 
f 102/78/45 101/77/44 90/66/33 
f 90/66/33 89/65/32 102/78/45 
f 103/79/46 89/65/32 92/68/35 
f 92/68/35 104/80/47 103/79/46 
f 104/80/47 92/68/35 94/70/37 
f 94/70/37 105/81/48 104/80/47 
f 105/81/48 94/70/37 96/72/39 
f 96/72/39 106/82/49 105/81/48 
f 107/83/50 97/73/40 100/76/43 
f 100/76/43 108/84/51 107/83/50 
f 108/84/51 100/76/43 102/78/45 
f 102/78/45 109/85/52 108/84/51 
f 109/85/52 102/78/45 89/65/32 
f 89/65/32 103/79/46 109/85/52 
s 2
f 110/86/53 91/87/53 90/88/53 
f 111/89/54 112/90/55 113/91/56 
f 108/92/54 109/93/54 114/94/54 
f 114/94/54 115/95/54 108/92/54 
f 109/93/54 103/96/54 116/97/54 
f 116/97/54 114/94/54 109/93/54 
f 117/98/54 105/99/54 106/100/54 
f 106/100/54 118/101/54 117/98/54 
f 111/89/54 119/102/57 120/103/58 
f 121/104/54 104/105/54 105/99/54 
f 105/99/54 117/98/54 121/104/54 
f 95/106/53 93/107/53 110/86/53 
f 90/88/53 101/108/53 110/86/53 
f 101/108/53 99/109/53 110/86/53 
f 99/109/53 98/110/53 110/86/53 
f 93/107/53 91/87/53 110/86/53 
f 107/111/54 108/92/54 115/95/54 
f 115/95/54 122/112/54 107/111/54 
s 1
f 115/113/59 114/114/60 123/115/60 
f 123/115/60 113/116/59 115/113/59 
f 114/114/60 116/117/61 119/118/62 
f 119/118/62 123/115/60 114/114/60 
f 117/119/63 118/120/64 124/121/65 
f 124/121/65 125/122/63 117/119/63 
s 2
f 103/96/54 104/105/54 121/104/54 
f 121/104/54 116/97/54 103/96/54 
s 1
f 120/123/66 121/124/66 117/119/63 
f 117/119/63 125/122/63 120/123/66 
f 122/125/67 115/113/59 113/116/59 
f 113/116/59 112/126/67 122/125/67 
f 116/117/61 121/124/66 120/123/66 
f 120/123/66 119/118/62 116/117/61 
s 2
f 123/127/68 111/89/54 113/91/56 
f 119/102/57 111/89/54 123/127/68 
f 124/128/69 111/89/54 125/129/70 
f 125/129/70 111/89/54 120/103/58 
s 1
f 126/130/71 127/131/72 128/132/73 
f 126/130/71 129/133/74 127/131/72 
f 126/130/71 130/134/75 129/133/74 
f 126/130/71 131/135/76 132/136/77 
f 126/130/71 133/137/78 131/135/76 
f 126/130/71 128/132/73 133/137/78 
f 134/138/79 132/139/80 131/140/81 
f 131/140/81 133/141/82 134/138/79 
f 133/141/82 128/142/83 134/138/79 
f 129/143/84 130/144/85 134/138/79 
f 134/138/79 128/142/83 127/145/86 
f 127/145/86 129/143/84 134/138/79 
f 135/65/87 136/68/88 137/67/89 
f 137/67/89 138/66/90 135/65/87 
f 136/68/88 139/70/91 140/69/92 
f 140/69/92 137/67/89 136/68/88 
f 139/70/91 96/72/39 95/71/38 
f 95/71/38 140/69/92 139/70/91 
f 97/73/40 141/76/93 142/75/94 
f 142/75/94 98/74/41 97/73/40 
f 141/76/93 143/78/95 144/77/96 
f 144/77/96 142/75/94 141/76/93 
f 143/78/95 135/65/87 138/66/90 
f 138/66/90 144/77/96 143/78/95 
f 145/79/97 146/80/98 136/68/88 
f 136/68/88 135/65/87 145/79/97 
f 146/80/98 147/81/99 139/70/91 
f 139/70/91 136/68/88 146/80/98 
f 147/81/99 106/82/49 96/72/39 
f 96/72/39 139/70/91 147/81/99 
f 107/83/50 148/84/100 141/76/93 
f 141/76/93 97/73/40 107/83/50 
f 148/84/100 149/85/101 143/78/95 
f 143/78/95 141/76/93 148/84/100 
f 149/85/101 145/79/97 135/65/87 
f 135/65/87 143/78/95 149/85/101 
s 2
f 110/86/53 138/88/53 137/87/53 
f 111/89/54 150/91/102 112/90/55 
f 148/92/54 151/95/54 152/94/54 
f 152/94/54 149/93/54 148/92/54 
f 149/93/54 152/94/54 153/97/54 
f 153/97/54 145/96/54 149/93/54 
f 154/98/54 118/101/54 106/100/54 
f 106/100/54 147/99/54 154/98/54 
f 111/89/54 155/103/103 156/102/104 
f 157/104/54 154/98/54 147/99/54 
f 147/99/54 146/105/54 157/104/54 
f 95/106/53 110/86/53 140/107/53 
f 138/88/53 110/86/53 144/108/53 
f 144/108/53 110/86/53 142/109/53 
f 142/109/53 110/86/53 98/110/53 
f 140/107/53 110/86/53 137/87/53 
f 107/111/54 122/112/54 151/95/54 
f 151/95/54 148/92/54 107/111/54 
s 1
f 151/113/105 150/116/105 158/115/106 
f 158/115/106 152/114/106 151/113/105 
f 152/114/106 158/115/106 156/118/107 
f 156/118/107 153/117/107 152/114/106 
f 154/119/108 159/122/108 124/121/65 
f 124/121/65 118/120/64 154/119/108 
s 2
f 145/96/54 153/97/54 157/104/54 
f 157/104/54 146/105/54 145/96/54 
s 1
f 155/123/109 159/122/108 154/119/108 
f 154/119/108 157/124/109 155/123/109 
f 122/125/67 112/126/67 150/116/105 
f 150/116/105 151/113/105 122/125/67 
f 153/117/107 156/118/107 155/123/109 
f 155/123/109 157/124/109 153/117/107 
s 2
f 158/127/110 150/91/102 111/89/54 
f 156/102/104 158/127/110 111/89/54 
f 124/128/69 159/129/111 111/89/54 
f 159/129/111 155/103/103 111/89/54 
s 1
f 126/130/71 160/132/112 161/131/113 
f 126/130/71 161/131/113 162/133/114 
f 126/130/71 162/133/114 130/134/75 
f 126/130/71 132/136/77 163/135/115 
f 126/130/71 163/135/115 164/137/116 
f 126/130/71 164/137/116 160/132/112 
f 134/138/79 163/140/117 132/139/80 
f 163/140/117 134/138/79 164/141/118 
f 164/141/118 134/138/79 160/142/119 
f 162/143/120 134/138/79 130/144/85 
f 134/138/79 161/145/121 160/142/119 
f 161/145/121 134/138/79 162/143/120 
f 165/146/122 166/147/123 167/148/124 
f 167/148/124 168/149/124 165/146/122 
f 169/150/125 170/151/126 171/152/126 
f 171/152/126 172/153/127 169/150/125 
s 4
f 166/154/128 165/155/128 169/156/128 
f 169/156/128 172/157/128 166/154/128 
s 2
f 166/158/129 172/159/129 171/160/130 
f 171/160/130 167/161/131 166/158/129 
f 173/162/132 174/163/133 175/164/134 
f 175/164/134 176/165/135 173/162/132 
s 1
f 177/166/54 178/167/54 173/168/54 
f 173/168/54 176/169/54 177/166/54 
f 175/170/136 174/171/53 179/172/53 
f 179/172/53 180/173/136 175/170/136 
s 2
f 180/164/137 179/163/138 178/162/139 
f 178/162/139 177/165/140 180/164/137 
f 176/174/135 175/175/134 181/176/141 
f 181/176/141 182/177/142 176/174/135 
s 1
f 183/178/54 177/179/54 176/180/54 
f 176/180/54 182/181/54 183/178/54 
f 181/182/143 175/183/136 180/184/136 
f 180/184/136 184/185/143 181/182/143 
s 2
f 184/176/144 180/175/137 177/174/140 
f 177/174/140 183/177/145 184/176/144 
f 181/176/141 170/160/146 168/161/147 
f 168/161/147 182/177/142 181/176/141 
s 1
f 167/186/124 183/178/54 182/181/54 
f 182/181/54 168/187/124 167/186/124 
f 170/151/126 181/182/143 184/185/143 
f 184/185/143 171/152/126 170/151/126 
s 2
f 171/160/130 184/176/144 183/177/145 
f 183/177/145 167/161/131 171/160/130 
f 170/160/146 169/159/148 165/158/149 
f 165/158/149 168/161/147 170/160/146 
# 178 faces

