# 3ds Max Wavefront OBJ Exporter v0.97b - (c)2007 guruware
# File Created: 11.01.2021 18:48:28

#
# object base
#

v  100.9402 0.0023 -100.0936
v  100.9403 0.0023 0.0000
v  0.0000 0.0023 -0.0000
v  0.0000 0.0023 -100.0936
v  100.9402 12.9032 -100.0936
v  0.0000 12.9032 -100.0936
v  0.0000 12.9032 -0.0000
v  100.9403 12.9032 0.0000
v  95.2907 24.6861 -95.9354
v  5.6496 24.6861 -95.9354
v  5.6496 24.6861 -4.1581
v  95.2907 24.6861 -4.1581
v  95.2907 12.7860 -95.9354
v  5.6496 12.7860 -95.9354
v  5.6496 12.7860 -4.1581
v  95.2907 12.7860 -4.1581
v  84.6328 23.5455 -85.3003
v  16.3075 23.5455 -85.3003
v  16.3075 42.4999 -85.3003
v  84.6328 42.4999 -85.3003
v  16.3075 23.5455 -14.7932
v  16.3075 42.4999 -14.7932
v  84.6328 23.5455 -14.7932
v  84.6328 42.4999 -14.7932
v  86.5587 42.5625 -88.4842
v  86.5587 42.5624 -11.6093
v  14.3816 42.5624 -11.6093
v  14.3815 42.5625 -88.4842
v  85.6273 62.3499 -87.4921
v  15.3130 62.3499 -87.4921
v  15.3130 62.3499 -12.6014
v  85.6273 62.3499 -12.6014
v  12.6358 49.9673 -90.3436
v  88.3045 49.9673 -90.3436
v  12.6358 49.9673 -9.7499
v  88.3045 49.9673 -9.7500
v  79.9240 60.3360 -80.0514
v  21.0162 60.3360 -80.0514
v  25.6972 106.9655 -73.6666
v  75.2431 106.9655 -73.6666
v  21.0162 60.3360 -19.4587
v  25.6972 106.9655 -24.8146
v  31.9366 60.3360 -19.4587
v  36.9771 88.8045 -23.0250
v  79.9241 60.3360 -19.4587
v  75.2431 106.9655 -24.8146
v  69.0037 60.3360 -19.4587
v  63.9632 88.8045 -23.0250
v  91.8129 102.5831 -13.3679
v  50.4701 102.5831 -13.3679
v  50.4701 102.5831 -86.7257
v  91.8129 102.5831 -86.7257
v  50.4701 161.3616 -86.7257
v  50.4701 161.3615 -13.3679
v  91.8129 161.3615 -13.3679
v  91.8129 161.3616 -86.7257
v  86.2463 136.6460 -13.3679
v  86.2463 106.5177 -13.3679
v  50.4701 136.6460 -13.3679
v  85.0551 135.6088 -16.1431
v  85.0551 107.5548 -16.1431
v  50.4701 135.6088 -16.1431
v  50.4701 107.5548 -16.1431
v  50.4701 106.5177 -13.3679
v  114.2080 83.4272 -34.6886
v  50.4701 83.4272 -34.6886
v  50.4701 83.4272 -65.4050
v  114.2080 83.4272 -65.4050
v  91.9468 165.1265 -65.4050
v  91.9468 165.1265 -34.6886
v  114.2080 165.1265 -34.6886
v  114.2080 165.1265 -65.4050
v  91.9992 108.4085 -65.4050
v  91.9992 108.4085 -34.6886
v  50.4701 108.4513 -34.6886
v  50.4701 108.4513 -65.4050
v  73.9387 138.9461 -14.5033
v  61.9661 138.9461 -14.5033
v  63.4272 132.2994 -14.5033
v  72.4776 132.2994 -14.5033
v  67.9524 130.1548 -14.5033
v  54.6096 156.7685 -17.9027
v  58.6720 143.5257 -17.9027
v  59.5956 144.8422 -10.3475
v  55.5332 156.0831 -10.3475
v  85.5041 143.5257 -17.9027
v  84.7589 144.8422 -10.3475
v  72.1772 140.6219 -10.3475
v  72.1772 139.3054 -17.9026
v  89.5664 156.7685 -17.9027
v  88.8212 156.0831 -10.3475
v  60.2962 153.2382 -12.2841
v  62.4502 147.1650 -12.2841
v  81.9043 147.1650 -12.2841
v  84.0583 153.2383 -12.2841
v  62.2062 146.9341 -10.3475
v  59.8384 153.5116 -10.3475
v  82.1482 146.9341 -10.3475
v  72.1772 143.9880 -10.3475
v  84.5160 153.5116 -10.3475
v  72.1772 144.2839 -12.2841
v  86.1044 173.2000 -31.5383
v  65.4905 173.2000 -31.5383
v  65.4905 173.2000 -19.9090
v  86.1044 173.2000 -19.9090
v  89.0475 159.9138 -32.9799
v  62.5474 159.9138 -32.9799
v  62.5474 159.9138 -18.4674
v  89.0475 159.9138 -18.4674
v  9.1274 102.5831 -13.3679
v  9.1274 102.5831 -86.7257
v  9.1274 161.3616 -86.7257
v  9.1274 161.3615 -13.3679
v  14.6940 106.5177 -13.3679
v  14.6940 136.6460 -13.3679
v  15.8852 107.5548 -16.1431
v  15.8852 135.6088 -16.1431
v  -13.2677 83.4272 -34.6886
v  -13.2677 83.4272 -65.4049
v  8.9934 165.1265 -65.4049
v  -13.2677 165.1265 -65.4049
v  -13.2677 165.1265 -34.6886
v  8.9935 165.1265 -34.6886
v  8.9411 108.4085 -65.4050
v  8.9411 108.4085 -34.6886
v  27.0016 138.9462 -14.5033
v  28.4627 132.2995 -14.5033
v  37.5131 132.2995 -14.5033
v  38.9741 138.9462 -14.5033
v  32.9879 130.1548 -14.5033
v  46.1523 156.7685 -17.9027
v  45.4070 156.0831 -10.3475
v  41.3447 144.8422 -10.3475
v  42.0899 143.5257 -17.9027
v  15.2578 143.5257 -17.9027
v  28.7631 139.3054 -17.9027
v  28.7631 140.6219 -10.3475
v  16.1814 144.8422 -10.3475
v  12.1191 156.0831 -10.3475
v  11.1955 156.7685 -17.9026
v  40.6441 153.2382 -12.2841
v  16.8820 153.2383 -12.2841
v  19.0360 147.1650 -12.2841
v  38.4901 147.1650 -12.2841
v  41.1019 153.5116 -10.3475
v  38.7341 146.9341 -10.3475
v  28.7631 143.9880 -10.3475
v  18.7921 146.9341 -10.3475
v  16.4243 153.5116 -10.3475
v  28.7631 144.2839 -12.2841
v  14.8359 173.2000 -31.5383
v  14.8359 173.2000 -19.9090
v  35.4498 173.2000 -19.9090
v  35.4498 173.2000 -31.5383
v  11.8927 159.9138 -32.9799
v  38.3929 159.9138 -32.9799
v  38.3929 159.9138 -18.4674
v  11.8928 159.9138 -18.4674
v  56.4564 146.7298 -12.1535
v  44.4839 146.7298 -12.1535
v  45.9450 142.7970 -12.1535
v  54.9953 142.7970 -12.1535
v  50.4701 141.2003 -12.1535
v  43.9047 146.9889 -13.8738
v  45.5071 142.6756 -13.8738
v  55.4331 142.6756 -13.8738
v  57.0356 146.9889 -13.8738
v  50.4701 140.9245 -13.8738
# 168 vertices

vn 0.0000 -1.0000 -0.0000
vn -0.0000 1.0000 0.0000
vn 0.0000 0.0000 -1.0000
vn -1.0000 0.0000 0.0000
vn -0.0000 0.0000 1.0000
vn 1.0000 0.0000 -0.0000
vn 0.0000 1.0000 -0.0000
vn -0.0000 0.0000 -1.0000
vn 0.0000 0.0000 1.0000
vn -0.0000 -1.0000 -0.0000
vn 0.0000 1.0000 0.0000
vn -0.0000 -0.2435 -0.9699
vn -0.0000 -0.2436 -0.9699
vn -0.9733 -0.2295 0.0000
vn 0.0000 -0.2435 0.9699
vn 0.9733 -0.2295 -0.0000
vn -0.0000 0.2244 -0.9745
vn -0.9774 0.2113 0.0000
vn 0.0000 0.2244 0.9745
vn 0.9774 0.2113 -0.0000
vn -0.0000 0.1357 -0.9908
vn 0.0000 0.1357 -0.9908
vn -0.9950 0.0999 0.0000
vn 0.0032 0.1191 0.9929
vn 0.0128 0.1132 0.9935
vn 0.0084 0.1055 0.9944
vn -0.0000 0.1141 0.9935
vn 0.9950 0.0999 -0.0000
vn -0.0032 0.1191 0.9929
vn 0.0000 0.1141 0.9935
vn -0.0084 0.1055 0.9944
vn -0.0128 0.1132 0.9935
vn -0.0000 -0.0000 -1.0000
vn 0.0000 -0.0000 1.0000
vn -0.9189 0.0000 0.3944
vn 0.0000 -0.9367 0.3501
vn 0.0000 0.9367 0.3501
vn -0.0000 0.9367 0.3501
vn 1.0000 0.0000 0.0000
vn -1.0000 -0.0009 -0.0000
vn -0.9403 -0.3207 0.1143
vn -0.6869 -0.6971 0.2054
vn -0.7018 -0.6884 0.1831
vn -0.9372 -0.3387 0.0838
vn 0.6836 -0.7098 0.1701
vn 0.6968 -0.6919 0.1893
vn -0.0060 -0.9843 0.1767
vn -0.0047 -0.9841 0.1778
vn 0.9538 -0.2926 0.0675
vn 0.9472 -0.3066 0.0937
vn 0.0000 0.9959 0.0903
vn -0.0000 0.9959 0.0903
vn -0.0000 -0.0000 1.0000
vn 0.9292 0.3345 0.1569
vn 0.9283 0.3292 0.1729
vn -0.2809 0.9482 0.1484
vn -0.2804 0.9489 0.1450
vn -0.9269 0.3337 0.1720
vn -0.9308 0.3301 0.1566
vn 0.0000 -0.9902 0.1398
vn 0.2804 0.9489 0.1450
vn 0.2809 0.9482 0.1484
vn -0.0000 0.1079 -0.9942
vn 0.0000 0.1079 -0.9942
vn -0.9763 0.2163 0.0000
vn -0.9763 0.2163 -0.0000
vn 0.0000 0.1079 0.9942
vn 0.9763 0.2163 -0.0000
vn 0.9189 -0.0000 0.3944
vn -0.0000 -1.0000 0.0000
vn -1.0000 -0.0000 -0.0000
vn -1.0000 0.0000 -0.0000
vn 1.0000 -0.0009 -0.0000
vn 0.9424 -0.3215 0.0922
vn 0.9387 -0.3392 0.0618
vn 0.7082 -0.6857 0.1678
vn 0.6872 -0.7012 0.1900
vn -0.6845 -0.7053 0.1842
vn 0.0071 -0.9842 0.1767
vn 0.0074 -0.9840 0.1778
vn -0.6911 -0.6930 0.2052
vn -0.9450 -0.3059 0.1159
vn -0.9522 -0.2921 0.0899
vn -0.9283 0.3292 0.1729
vn -0.9292 0.3345 0.1569
vn 0.9308 0.3301 0.1566
vn 0.9269 0.3337 0.1720
vn -0.0000 -0.9902 0.1398
vn -0.9065 -0.3368 0.2545
vn 0.9065 -0.3368 0.2545
vn -0.0000 0.9888 0.1490
vn 0.0000 0.9888 0.1490
vn -0.3290 -0.9324 0.1495
vn 0.3290 -0.9324 0.1495
# 94 vertex normals

vt 0.3598 0.0102 0.0000
vt 0.3598 0.0336 0.0000
vt 0.3358 0.0336 0.0000
vt 0.3358 0.0102 0.0000
vt 0.2340 0.1946 0.0000
vt 0.3209 0.1946 0.0000
vt 0.3209 0.2816 0.0000
vt 0.2340 0.2816 0.0000
vt 0.4975 0.1688 0.0000
vt 0.7306 0.1688 0.0000
vt 0.7306 0.2151 0.0000
vt 0.4975 0.2151 0.0000
vt 0.7392 0.1688 0.0000
vt 0.9715 0.1688 0.0000
vt 0.9715 0.2151 0.0000
vt 0.7392 0.2151 0.0000
vt 0.1399 0.3117 0.0000
vt 0.2352 0.3117 0.0000
vt 0.2352 0.3992 0.0000
vt 0.1399 0.3992 0.0000
vt 0.4972 0.1144 0.0000
vt 0.7297 0.1144 0.0000
vt 0.7297 0.1508 0.0000
vt 0.4972 0.1508 0.0000
vt 0.7388 0.1144 0.0000
vt 0.9713 0.1144 0.0000
vt 0.9713 0.1508 0.0000
vt 0.7388 0.1508 0.0000
vt 0.4961 0.0167 0.0000
vt 0.7397 0.0167 0.0000
vt 0.7397 0.0913 0.0000
vt 0.4961 0.0913 0.0000
vt 0.7472 0.0167 0.0000
vt 0.9789 0.0167 0.0000
vt 0.9789 0.0913 0.0000
vt 0.7472 0.0913 0.0000
vt 0.3876 0.0107 0.0000
vt 0.3876 0.0338 0.0000
vt 0.3650 0.0338 0.0000
vt 0.3650 0.0107 0.0000
vt 0.0150 0.3115 0.0000
vt 0.1184 0.3115 0.0000
vt 0.1184 0.4224 0.0000
vt 0.0150 0.4224 0.0000
vt 0.2119 0.1083 0.0000
vt 0.2119 0.1328 0.0000
vt 0.0229 0.1328 0.0000
vt 0.0229 0.1083 0.0000
vt 0.2123 0.0228 0.0000
vt 0.2123 0.0469 0.0000
vt 0.0231 0.0469 0.0000
vt 0.0231 0.0228 0.0000
vt 0.2119 0.1765 0.0000
vt 0.0229 0.1765 0.0000
vt 0.2123 0.0897 0.0000
vt 0.0231 0.0897 0.0000
vt 0.2556 0.4243 0.0000
vt 0.4152 0.4243 0.0000
vt 0.4152 0.5352 0.0000
vt 0.2556 0.5352 0.0000
vt 0.2348 0.4199 0.0000
vt 0.2348 0.5488 0.0000
vt 0.1440 0.5488 0.0000
vt 0.1440 0.4199 0.0000
vt 0.4395 0.5506 0.0000
vt 0.4395 0.6289 0.0000
vt 0.3969 0.6894 0.0000
vt 0.3969 0.5506 0.0000
vt 0.5615 0.5506 0.0000
vt 0.6046 0.5506 0.0000
vt 0.6046 0.6894 0.0000
vt 0.5615 0.6289 0.0000
vt 0.2588 0.3021 0.0000
vt 0.4087 0.3021 0.0000
vt 0.3921 0.4023 0.0000
vt 0.2754 0.4023 0.0000
vt 0.1180 0.5470 0.0000
vt 0.0973 0.5470 0.0000
vt 0.0973 0.5071 0.0000
vt 0.1180 0.5071 0.0000
vt 0.6254 0.7312 0.0000
vt 0.6254 0.9795 0.0000
vt 0.7528 0.9795 0.0000
vt 0.7528 0.7312 0.0000
vt 0.5620 0.3144 0.0000
vt 0.5620 0.5276 0.0000
vt 0.4288 0.5276 0.0000
vt 0.4288 0.3144 0.0000
vt 0.5833 0.3152 0.0000
vt 0.7994 0.3152 0.0000
vt 0.7994 0.5277 0.0000
vt 0.5833 0.5277 0.0000
vt 0.9789 0.2460 163.7488
vt 0.9789 0.5411 -163.7488
vt 0.9572 0.4261 -163.7488
vt 0.9572 0.2653 -163.7488
vt 0.8209 0.5411 -163.7488
vt 0.8209 0.4261 163.7488
vt 0.9296 0.3164 0.0000
vt 0.8434 0.3164 0.0000
vt 0.8434 0.3036 0.0000
vt 0.9296 0.3036 0.0000
vt 0.8428 0.3385 0.0000
vt 0.8428 0.3256 0.0000
vt 0.9285 0.3256 0.0000
vt 0.9285 0.3385 0.0000
vt 0.6019 0.7125 0.0000
vt 0.6019 0.9542 0.0000
vt 0.3080 0.9542 0.0000
vt 0.3080 0.7125 0.0000
vt 0.8195 0.2460 -163.7488
vt 0.8195 0.2653 -163.7488
vt 0.8443 0.2793 0.0000
vt 0.9309 0.2793 0.0000
vt 0.9309 0.2922 0.0000
vt 0.8443 0.2922 0.0000
vt 0.0949 0.5503 0.0000
vt 0.0949 0.5013 0.0000
vt 0.1191 0.5013 0.0000
vt 0.1191 0.5503 0.0000
vt 0.9864 0.9783 0.0000
vt 0.8807 0.9783 0.0000
vt 0.8807 0.8953 0.0000
vt 0.9864 0.8953 0.0000
vt 0.8730 0.5661 0.0000
vt 0.7934 0.6549 0.0000
vt 0.7934 0.8690 0.0000
vt 0.8730 0.8690 0.0000
vt 0.8856 0.5661 0.0000
vt 0.9872 0.5661 0.0000
vt 0.9872 0.8709 0.0000
vt 0.8856 0.8709 0.0000
vt 0.6430 0.6549 0.0000
vt 0.6430 0.5661 0.0000
vt 0.8424 0.8959 0.0000
vt 0.7859 0.8959 0.0000
vt 0.7859 0.9780 0.0000
vt 0.8424 0.9780 0.0000
vt 0.4753 0.2718 1.0000
vt 0.3420 0.2718 1.0000
vt 0.3579 0.1823 1.0000
vt 0.4587 0.1819 1.0000
vt 0.4082 0.1457 1.0000
vt 0.8237 0.3933 1.0000
vt 0.8517 0.3933 1.0000
vt 0.8517 0.4123 1.0000
vt 0.8237 0.4123 1.0000
vt 0.9051 0.3933 1.0000
vt 0.9051 0.4123 1.0000
vt 0.8784 0.4123 1.0000
vt 0.8784 0.3933 1.0000
vt 0.9330 0.3933 1.0000
vt 0.9330 0.4123 1.0000
vt 0.0184 0.6795 0.2500
vt 0.0406 0.6037 0.2500
vt 0.2409 0.6037 0.2500
vt 0.2631 0.6795 0.2500
vt 0.8439 0.3948 -0.2500
vt 0.8439 0.3504 1.0000
vt 0.9176 0.3504 0.2500
vt 0.9176 0.3948 1.0000
vt 0.2114 0.2915 1.0000
vt 0.1869 0.2210 1.0000
vt 0.1711 0.2341 0.2500
vt 0.1854 0.2753 0.2500
vt 0.0349 0.2210 1.0000
vt 0.0507 0.2341 0.2500
vt 0.1109 0.2157 0.2500
vt 0.1109 0.1946 1.0000
vt 0.0104 0.2915 1.0000
vt 0.0364 0.2753 0.2500
vt 0.0104 0.2915 0.2500
vt 0.7914 0.2602 0.2500
vt 0.7287 0.2602 0.2500
vt 0.7287 0.2400 0.2500
vt 0.7914 0.2400 0.2500
vt 0.5612 0.2602 0.2500
vt 0.5612 0.2400 0.2500
vt 0.6450 0.2400 0.2500
vt 0.6450 0.2602 0.2500
vt 0.4986 0.2602 0.2500
vt 0.4986 0.2400 0.2500
vt 0.7181 0.2986 198.1808
vt 0.5036 0.2986 198.1808
vt 0.5036 0.2798 -198.1808
vt 0.7181 0.2798 -198.1808
vt 0.1407 0.5677 0.2500
vt 0.2870 0.5694 0.0000
vt 0.3696 0.5694 0.0000
vt 0.3696 0.6185 0.0000
vt 0.2870 0.6185 0.0000
vt 0.2887 0.6322 0.0000
vt 0.3680 0.6322 0.0000
vt 0.3680 0.6808 0.0000
vt 0.2887 0.6808 0.0000
vt 0.0099 0.4815 0.0000
vt 0.0807 0.4815 0.0000
vt 0.0807 0.5513 0.0000
vt 0.0099 0.5513 0.0000
vt 0.0141 0.7125 0.0000
vt 0.0141 0.9542 0.0000
vt 0.4729 0.1252 1.0000
vt 0.3419 0.1252 1.0000
vt 0.3579 0.0731 1.0000
vt 0.4569 0.0731 1.0000
vt 0.4074 0.0519 1.0000
vt 0.2611 0.1364 1.0000
vt 0.2407 0.1364 1.0000
vt 0.2407 0.1285 1.0000
vt 0.2611 0.1285 1.0000
vt 0.3234 0.1364 1.0000
vt 0.3029 0.1364 1.0000
vt 0.3029 0.1285 1.0000
vt 0.3234 0.1285 1.0000
vt 0.2431 0.1571 1.0000
vt 0.3210 0.1571 1.0000
vt 0.3210 0.1717 1.0000
vt 0.2431 0.1717 1.0000
vt 0.2820 0.1364 1.0000
vt 0.2820 0.1285 1.0000
# 220 texture coords

g base
s off
f 1/1/1 2/2/1 3/3/1 
f 3/3/1 4/4/1 1/1/1 
f 5/5/2 6/6/2 7/7/2 
f 7/7/2 8/8/2 5/5/2 
f 1/9/3 4/10/3 6/11/3 
f 6/11/3 5/12/3 1/9/3 
f 4/13/4 3/14/4 7/15/4 
f 7/15/4 6/16/4 4/13/4 
f 3/9/5 2/10/5 8/11/5 
f 8/11/5 7/12/5 3/9/5 
f 2/13/6 1/14/6 5/15/6 
f 5/15/6 8/16/6 2/13/6 
s 4
f 9/17/7 10/18/7 11/19/7 
f 11/19/7 12/20/7 9/17/7 
s 8
f 13/21/8 14/22/8 10/23/8 
f 10/23/8 9/24/8 13/21/8 
s 16
f 14/25/4 15/26/4 11/27/4 
f 11/27/4 10/28/4 14/25/4 
s 32
f 15/21/9 16/22/9 12/23/9 
f 12/23/9 11/24/9 15/21/9 
s 64
f 16/25/6 13/26/6 9/27/6 
f 9/27/6 12/28/6 16/25/6 
s 8
f 17/29/8 18/30/8 19/31/8 
f 19/31/8 20/32/8 17/29/8 
s 16
f 18/33/4 21/34/4 22/35/4 
f 22/35/4 19/36/4 18/33/4 
s 32
f 21/29/9 23/30/9 24/31/9 
f 24/31/9 22/32/9 21/29/9 
s 64
f 23/33/6 17/34/6 20/35/6 
f 20/35/6 24/36/6 23/33/6 
s off
f 25/37/10 26/38/10 27/39/10 
f 27/39/10 28/40/10 25/37/10 
f 29/41/11 30/42/11 31/43/11 
f 31/43/11 32/44/11 29/41/11 
f 28/45/12 33/46/12 34/47/12 
f 34/47/13 25/48/13 28/45/13 
f 27/49/14 35/50/14 33/51/14 
f 33/51/14 28/52/14 27/49/14 
f 26/45/15 36/46/15 35/47/15 
f 35/47/15 27/48/15 26/45/15 
f 25/49/16 34/50/16 36/51/16 
f 36/51/16 26/52/16 25/49/16 
f 30/53/17 29/54/17 34/47/17 
f 34/47/17 33/46/17 30/53/17 
f 31/55/18 30/56/18 33/51/18 
f 33/51/18 35/50/18 31/55/18 
f 32/53/19 31/54/19 35/47/19 
f 35/47/19 36/46/19 32/53/19 
f 29/55/20 32/56/20 36/51/20 
f 36/51/20 34/50/20 29/55/20 
s 8
f 37/57/21 38/58/21 39/59/21 
f 39/59/21 40/60/22 37/57/21 
s 16
f 38/61/23 41/62/23 42/63/23 
f 42/63/23 39/64/23 38/61/23 
s 32
f 43/65/24 44/66/25 42/67/26 
f 42/67/26 41/68/27 43/65/24 
s 64
f 45/61/28 37/62/28 40/63/28 
f 40/63/28 46/64/28 45/61/28 
s 32
f 47/69/29 45/70/30 46/71/31 
f 46/71/31 48/72/32 47/69/29 
f 43/73/24 47/74/29 48/75/32 
f 48/75/32 44/76/25 43/73/24 
f 46/71/31 42/67/26 44/66/25 
f 44/66/25 48/72/32 46/71/31 
s 2
f 49/77/1 50/78/1 51/79/1 
f 51/79/1 52/80/1 49/77/1 
s 4
f 53/81/11 54/82/11 55/83/11 
f 55/83/11 56/84/11 53/81/11 
s 8
f 51/85/33 53/86/8 56/87/33 
f 56/87/33 52/88/33 51/85/33 
s 64
f 49/89/6 52/90/6 56/91/6 
f 56/91/6 55/92/6 49/89/6 
s off
f 49/93/9 55/94/9 57/95/9 
f 57/95/9 58/96/9 49/93/9 
f 54/97/34 59/98/34 57/95/34 
f 57/95/9 55/94/9 54/97/9 
f 58/99/35 57/100/35 60/101/35 
f 60/101/35 61/102/35 58/99/35 
f 59/103/36 62/104/36 60/105/36 
f 60/105/36 57/106/36 59/103/36 
s 32
f 61/107/9 60/108/9 62/109/9 
f 62/109/9 63/110/9 61/107/9 
s off
f 50/111/34 49/93/34 58/96/34 
f 58/96/34 64/112/34 50/111/34 
f 64/113/37 58/114/37 61/115/37 
f 61/115/38 63/116/38 64/113/38 
f 65/117/1 66/118/1 67/119/1 
f 67/119/1 68/120/1 65/117/1 
f 69/121/7 70/122/7 71/123/7 
f 71/123/7 72/124/7 69/121/7 
f 68/125/33 73/126/33 69/127/33 
f 69/127/33 72/128/33 68/125/33 
f 65/129/39 68/130/39 72/131/39 
f 72/131/39 71/132/39 65/129/39 
f 65/125/34 74/126/34 75/133/34 
f 75/133/9 66/134/9 65/125/9 
f 73/135/40 74/136/40 70/137/40 
f 70/137/40 69/138/40 73/135/40 
f 68/125/8 67/134/8 76/133/8 
f 76/133/8 73/126/8 68/125/8 
f 65/125/34 71/128/34 70/127/34 
f 70/127/34 74/126/34 65/125/34 
f 77/139/34 78/140/34 79/141/34 
f 79/141/34 80/142/34 77/139/34 
f 80/142/9 79/141/9 81/143/9 
s 8
f 82/144/41 83/145/42 84/146/43 
f 84/146/43 85/147/44 82/144/41 
f 86/148/45 87/149/46 88/150/47 
f 88/150/47 89/151/48 86/148/45 
f 86/148/45 90/152/49 91/153/50 
f 91/153/50 87/149/46 86/148/45 
s 1
f 92/154/9 93/155/9 94/156/9 
f 94/156/9 95/157/34 92/154/9 
s off
f 82/158/51 85/159/51 91/160/51 
f 91/160/52 90/161/52 82/158/52 
f 85/162/53 84/163/53 96/164/53 
f 96/164/9 97/165/9 85/162/9 
f 87/166/34 98/167/34 99/168/34 
f 99/168/9 88/169/9 87/166/9 
f 87/166/34 91/170/34 100/171/34 
f 100/171/34 98/167/34 87/166/34 
f 91/172/9 85/162/9 97/165/9 
f 97/165/9 100/171/9 91/172/9 
f 97/173/54 96/174/54 93/175/54 
f 93/175/55 92/176/55 97/173/55 
f 98/177/56 94/178/56 101/179/56 
f 101/179/57 99/180/57 98/177/57 
f 98/177/58 100/181/58 95/182/58 
f 95/182/59 94/178/59 98/177/59 
f 100/183/60 97/184/60 92/185/60 
f 92/185/60 95/186/60 100/183/60 
s 8
f 89/151/48 88/150/47 84/146/43 
f 84/146/43 83/145/42 89/151/48 
s 1
f 93/155/9 101/187/9 94/156/9 
s off
f 84/163/5 88/169/5 99/168/5 
f 99/168/53 96/164/53 84/163/53 
f 96/174/61 99/180/61 101/179/61 
f 101/179/62 93/175/62 96/174/62 
s 4
f 102/188/7 103/189/7 104/190/7 
f 104/190/7 105/191/7 102/188/7 
s 8
f 106/192/63 107/193/64 103/194/64 
f 103/194/64 102/195/63 106/192/63 
s 16
f 107/196/65 108/197/65 104/198/65 
f 104/198/65 103/199/66 107/196/65 
s 32
f 108/192/67 109/193/67 105/194/67 
f 105/194/67 104/195/67 108/192/67 
s 64
f 109/196/68 106/197/68 102/198/68 
f 102/198/68 105/199/68 109/196/68 
s 2
f 110/77/1 111/80/1 51/79/1 
f 51/79/1 50/78/1 110/77/1 
s 4
f 53/81/11 112/84/11 113/83/11 
f 113/83/11 54/82/11 53/81/11 
s 8
f 51/85/33 111/88/8 112/87/8 
f 112/87/8 53/86/8 51/85/33 
s 64
f 110/89/4 113/92/4 112/91/4 
f 112/91/4 111/90/4 110/89/4 
s off
f 110/93/5 114/96/5 115/95/5 
f 115/95/34 113/94/34 110/93/34 
f 54/97/34 113/94/34 115/95/34 
f 115/95/34 59/98/34 54/97/34 
f 114/99/69 116/102/69 117/101/69 
f 117/101/69 115/100/69 114/99/69 
f 59/103/36 115/106/36 117/105/36 
f 117/105/36 62/104/36 59/103/36 
s 32
f 116/200/9 63/110/9 62/109/9 
f 62/109/9 117/201/9 116/200/9 
s off
f 50/111/34 64/112/34 114/96/34 
f 114/96/34 110/93/34 50/111/34 
f 64/113/37 63/116/37 116/115/37 
f 116/115/37 114/114/37 64/113/37 
f 118/117/10 119/120/10 67/119/10 
f 67/119/70 66/118/70 118/117/70 
f 120/121/7 121/124/7 122/123/7 
f 122/123/7 123/122/7 120/121/7 
f 119/125/3 121/128/3 120/127/3 
f 120/127/8 124/126/8 119/125/8 
f 118/129/71 122/132/71 121/131/71 
f 121/131/72 119/130/72 118/129/72 
f 118/125/9 66/134/9 75/133/9 
f 75/133/34 125/126/34 118/125/34 
f 124/135/73 120/138/73 123/137/73 
f 123/137/73 125/136/73 124/135/73 
f 119/125/33 124/126/33 76/133/33 
f 76/133/8 67/134/8 119/125/8 
f 118/125/9 125/126/9 123/127/9 
f 123/127/5 122/128/5 118/125/5 
f 126/139/9 127/142/9 128/141/9 
f 128/141/9 129/140/9 126/139/9 
f 127/142/34 130/143/34 128/141/34 
s 8
f 131/144/74 132/147/75 133/146/76 
f 133/146/76 134/145/77 131/144/74 
f 135/148/78 136/151/79 137/150/80 
f 137/150/80 138/149/81 135/148/78 
f 135/148/78 138/149/81 139/153/82 
f 139/153/82 140/152/83 135/148/78 
s 1
f 141/157/34 142/154/9 143/155/9 
f 143/155/9 144/156/34 141/157/34 
s off
f 131/158/51 140/161/51 139/160/51 
f 139/160/51 132/159/51 131/158/51 
f 132/162/9 145/165/9 146/164/9 
f 146/164/9 133/163/9 132/162/9 
f 138/166/9 137/169/9 147/168/9 
f 147/168/34 148/167/34 138/166/34 
f 138/166/53 148/167/53 149/171/53 
f 149/171/34 139/170/34 138/166/34 
f 139/172/34 149/171/34 145/165/34 
f 145/165/34 132/162/34 139/172/34 
f 145/173/84 141/176/84 144/175/84 
f 144/175/85 146/174/85 145/173/85 
f 148/177/61 147/180/61 150/179/61 
f 150/179/62 143/178/62 148/177/62 
f 148/177/86 143/178/86 142/182/86 
f 142/182/87 149/181/87 148/177/87 
f 149/183/88 142/186/88 141/185/88 
f 141/185/60 145/184/60 149/183/60 
s 8
f 136/151/79 134/145/77 133/146/76 
f 133/146/76 137/150/80 136/151/79 
s 1
f 144/156/34 143/155/9 150/187/9 
s off
f 133/163/9 146/164/9 147/168/9 
f 147/168/9 137/169/9 133/163/9 
f 146/174/56 144/175/56 150/179/56 
f 150/179/57 147/180/57 146/174/57 
s 4
f 151/188/7 152/191/7 153/190/7 
f 153/190/7 154/189/7 151/188/7 
s 8
f 155/192/64 151/195/64 154/194/64 
f 154/194/64 156/193/64 155/192/64 
s 16
f 156/196/68 154/199/68 153/198/68 
f 153/198/68 157/197/68 156/196/68 
s 32
f 157/192/67 153/195/67 152/194/67 
f 152/194/67 158/193/67 157/192/67 
s 64
f 158/196/65 152/199/66 151/198/65 
f 151/198/65 155/197/65 158/196/65 
s off
f 159/202/53 160/203/53 161/204/53 
f 161/204/5 162/205/5 159/202/5 
f 162/205/5 161/204/5 163/206/5 
f 161/207/89 160/208/89 164/209/89 
f 164/209/89 165/210/89 161/207/89 
f 159/211/90 162/212/90 166/213/90 
f 166/213/90 167/214/90 159/211/90 
f 160/215/91 159/216/91 167/217/91 
f 167/217/92 164/218/92 160/215/92 
f 163/219/93 161/207/93 165/210/93 
f 165/210/93 168/220/93 163/219/93 
f 162/212/94 163/219/94 168/220/94 
f 168/220/94 166/213/94 162/212/94 
# 245 faces

