# Max2Obj Version 4.0 Mar 10th, 2001
#
# object base to come ...
#
v  34.931149 17.987366 -34.166153
v  34.968472 23.940725 -34.292324
v  28.613716 23.713095 -49.363750
v  28.561909 17.758959 -49.272499
v  50.118217 18.075649 -27.987862
v  50.120567 24.029016 -28.128342
v  65.226089 17.971624 -34.356682
v  65.193512 23.925371 -34.482288
v  71.405090 17.736702 -49.541428
v  71.358597 23.690830 -49.632439
v  65.035843 17.507915 -64.647774
v  65.003845 23.462812 -64.703865
v  49.848785 17.420012 -70.826065
v  49.851753 23.374908 -70.868233
v  34.740921 17.524036 -64.457626
v  34.778416 23.478554 -64.513908
v  -5.228802 56.512047 -49.653233
v  5.863342 37.838169 -49.437283
v  18.984358 38.308792 -18.318073
v  11.192684 57.101280 -10.706491
v  50.269276 38.490360 -5.590534
v  50.347118 57.328529 5.222473
v  81.392288 38.276157 -18.709921
v  89.298416 57.060593 -11.196980
v  94.120880 37.792110 -49.991356
v  105.228806 56.454472 -50.346767
v  80.999863 37.321487 -81.110184
v  88.807297 55.865234 -89.293129
v  49.714569 37.139919 -93.838112
v  49.652878 55.637993 -105.222473
v  18.591938 37.353733 -80.718338
v  10.701580 55.905926 -88.803017
v  33.961136 86.728363 -66.095543
v  27.389473 86.978256 -49.945637
v  72.954376 86.954460 -50.232029
v  66.180130 86.711472 -66.297668
v  50.028667 86.617813 -72.868607
v  32.366409 88.594711 -32.080097
v  24.831488 88.324471 -49.950207
v  2.913425 78.958557 -50.047939
v  16.916946 79.461037 -16.836311
v  50.331860 88.699120 -24.771282
v  50.305515 79.654884 -3.252705
v  68.204254 88.575912 -32.305000
v  83.520935 79.426483 -17.254601
v  75.513779 88.297981 -50.268513
v  97.105988 78.909805 -50.639290
v  67.979248 88.027740 -68.138611
v  83.102081 78.407318 -83.850922
v  50.013409 87.923332 -75.447433
v  49.713505 78.213470 -97.434151
v  32.141022 88.046173 -67.913719
v  16.498089 78.441864 -83.432640
v  34.163357 87.221245 -33.880005
v  50.315193 87.314903 -27.309063
v  66.382721 87.204742 -34.082127
v  33.802334 92.980759 -33.599472
v  26.873981 92.732391 -50.030666
v  50.320999 93.076714 -26.879240
v  66.754074 92.963478 -33.806396
v  73.475037 92.707825 -50.323124
v  66.547058 92.459473 -66.754303
v  50.028015 92.363495 -73.474548
v  33.594933 92.476349 -66.547394
v  32.590740 93.217216 -32.376324
v  25.150084 92.950432 -50.022911
v  50.331913 93.320084 -25.158720
v  67.980774 93.198792 -32.598167
v  75.199097 92.924316 -50.337402
v  67.758438 92.657150 -67.984375
v  50.017269 92.554291 -75.201591
v  32.368404 92.675575 -67.762146
v  51.913418 116.246033 -50.702652
v  51.850525 116.259079 -49.256599
v  50.416161 116.080978 -49.172134
v  50.479053 116.067932 -50.618187
v  51.557121 76.703339 -49.686672
v  51.694542 76.701813 -50.964603
v  50.291054 76.547112 -49.529667
v  50.428101 76.545967 -50.807991
v  38.057941 19.085217 -61.735130
v  37.698425 4.341732 -62.070087
v  50.307346 4.255745 -67.375687
v  50.311642 19.000769 -66.900589
v  33.046261 19.275616 -49.418861
v  32.541706 4.537888 -49.418755
v  38.212524 19.461021 -37.166676
v  37.858238 4.711010 -36.832600
v  50.529961 19.532423 -32.155350
v  50.533978 4.792004 -31.684488
v  62.784046 19.448355 -37.320801
v  62.148991 4.699493 -37.014454
v  67.795715 19.257576 -49.637074
v  68.299622 4.527142 -49.641418
v  62.629467 19.072163 -61.889641
v  62.983086 4.326759 -62.227573
v  46.918243 -50.619671 -53.085285
v  49.008785 -16.288418 -51.914566
v  50.373547 -17.530533 -52.513268
v  47.482220 -52.370472 -53.836903
v  47.441742 -50.441936 -52.088097
v  48.743656 -15.091469 -50.263573
v  48.667358 -51.972790 -51.438206
v  49.717625 -14.667637 -48.523556
v  50.018627 -54.259472 -51.500935
v  51.388760 -15.216461 -47.720036
v  50.481739 -55.866337 -52.226654
v  52.689434 -16.434380 -48.323215
v  50.137238 -56.156918 -53.241653
v  53.034389 -17.628456 -49.972977
v  48.791359 -54.673664 -53.904137
v  52.036228 -18.093784 -51.707630
v  47.993000 19.631844 -51.892338
v  50.349922 19.202677 -52.895741
v  47.028793 20.603403 -49.501472
v  48.021687 21.548092 -47.123306
v  50.390453 21.912380 -46.150822
v  52.746994 21.482836 -47.154232
v  53.711597 20.511274 -49.545471
v  52.718704 19.566586 -51.923634
# 120 vertices

vt  0.770700 0.326300 0.000000
vt  0.770300 0.270300 0.000000
vt  0.623300 0.270300 0.160600
vt  0.621900 0.326300 0.154300
vt  0.505300 0.270300 0.227100
vt  0.505300 0.326300 0.218200
vt  0.387500 0.270300 0.160600
vt  0.389000 0.326300 0.154300
vt  0.228200 0.270300 0.000000
vt  0.227500 0.326300 0.000000
vt  0.387500 0.270300 -0.160600
vt  0.389000 0.326300 -0.154300
vt  0.505300 0.270300 -0.227100
vt  0.505300 0.326300 -0.218200
vt  0.623300 0.270300 -0.160600
vt  0.621900 0.326300 -0.154300
vt  0.721100 0.432900 0.281100
vt  0.781100 0.563800 0.317300
vt  0.983800 0.563800 0.000000
vt  0.901000 0.432900 0.000000
vt  0.505300 0.432900 0.397600
vt  0.505300 0.563800 0.448800
vt  0.293300 0.432900 0.281100
vt  0.233500 0.563800 0.317300
vt  0.102800 0.432900 0.000000
vt  0.019500 0.563800 0.000000
vt  0.293300 0.432900 -0.281100
vt  0.233500 0.563800 -0.317300
vt  0.505300 0.432900 -0.397600
vt  0.505300 0.563800 -0.448800
vt  0.721100 0.432900 -0.281100
vt  0.781100 0.563800 -0.317300
vt  0.563800 0.236200 0.250000
vt  0.618100 0.123200 0.250000
vt  0.894600 0.123200 0.250000
vt  0.955600 0.236200 0.250000
vt  0.756100 0.070400 0.250000
vt  0.969400 0.734400 0.000100
vt  0.777700 0.734400 0.353500
vt  0.665700 0.878100 0.213700
vt  0.785100 0.878100 0.000100
vt  0.505300 0.734400 0.500000
vt  0.505300 0.878100 0.302300
vt  0.236700 0.734400 0.353500
vt  0.348700 0.878100 0.213700
vt  0.034400 0.734400 0.000000
vt  0.233700 0.878100 0.000100
vt  0.236700 0.734400 -0.353500
vt  0.348700 0.878100 -0.213700
vt  0.505300 0.734400 -0.500000
vt  0.505300 0.878100 -0.302300
vt  0.777700 0.734400 -0.353500
vt  0.665700 0.878100 -0.213700
vt  0.781600 0.980500 0.000000
vt  0.781600 0.929000 0.000000
vt  0.665700 0.929000 0.209700
vt  0.665700 0.980500 0.208400
vt  0.505300 0.929000 0.296600
vt  0.505300 0.980500 0.294700
vt  0.348700 0.929000 0.209700
vt  0.348700 0.980500 0.208400
vt  0.237000 0.929000 0.000000
vt  0.237000 0.980500 0.000000
vt  0.348700 0.929000 -0.209700
vt  0.348700 0.980500 -0.208400
vt  0.505300 0.929000 -0.296600
vt  0.505300 0.980500 -0.294700
vt  0.665700 0.929000 -0.209700
vt  0.665700 0.980500 -0.208400
vt  0.665700 0.912200 0.211100
vt  0.785100 0.912200 0.000000
vt  0.505300 0.912200 0.298500
vt  0.348700 0.912200 0.211100
vt  0.233700 0.912200 0.000100
vt  0.348700 0.912200 -0.211100
vt  0.505300 0.912200 -0.298500
vt  0.665700 0.912200 -0.211100
vt  0.689600 -0.982300 0.000000
vt  0.689600 -0.964800 0.000000
vt  0.425500 -0.964800 0.000000
vt  0.425500 -0.982300 0.000000
vt  0.689800 -0.965000 0.000000
vt  0.689800 -0.947200 0.000000
vt  0.425700 -0.947200 0.000000
vt  0.425700 -0.965000 0.000000
vt  0.689800 -0.982300 0.000000
vt  0.425700 -0.982300 0.000000
vt  0.689600 -0.947400 0.000000
vt  0.425500 -0.947400 0.000000
vt  -0.241400 0.075700 -0.500000
vt  -0.049100 0.244700 -0.015600
vt  -0.438400 0.244700 0.015600
vt  -0.379200 0.122600 -0.342500
vt  -0.103900 0.126000 -0.364600
vt  0.385200 0.242500 1.000000
vt  0.268300 0.242500 1.000000
vt  0.268300 0.104976 1.000000
vt  0.385200 0.104976 1.000000
vt  0.496395 0.242500 1.000000
vt  0.496395 0.104976 1.000000
vt  0.151300 0.242500 1.000000
vt  0.151300 0.104976 1.000000
vt  0.047362 0.242500 1.000000
vt  0.047362 0.104976 1.000000
vt  -0.241400 0.075700 0.500000
vt  -0.103900 0.126000 0.342500
vt  -0.379200 0.122600 0.364600
vt  0.268300 0.186800 1.000000
vt  0.385200 0.186800 1.000000
vt  0.496395 0.186800 1.000000
vt  0.151300 0.186800 1.000000
vt  0.047362 0.186800 1.000000
# 112 texture vertices

vn  -0.702622 0.019475 0.711297
vn  -0.590990 -0.531931 0.606449
vn  -0.840971 -0.540910 0.013568
vn  -0.999942 0.008793 0.006142
vn  0.006298 0.023586 0.999702
vn  0.005076 -0.528487 0.848926
vn  0.711522 0.018716 0.702415
vn  0.597993 -0.532574 0.598973
vn  0.999950 0.007715 -0.006385
vn  0.840500 -0.541803 0.003014
vn  0.702623 -0.002930 -0.711556
vn  0.590525 -0.550762 -0.589866
vn  -0.006280 -0.007072 -0.999955
vn  -0.005510 -0.554236 -0.832341
vn  -0.711508 -0.002169 -0.702675
vn  -0.598473 -0.550133 -0.582394
vn  -0.996329 -0.085272 0.007570
vn  -0.740457 -0.671938 0.014937
vn  -0.520379 -0.664040 0.536895
vn  -0.700096 -0.074641 0.710137
vn  0.004364 -0.660995 0.750377
vn  0.006227 -0.070547 0.997489
vn  0.526386 -0.664588 0.530321
vn  0.708878 -0.075374 0.701292
vn  0.739886 -0.672709 0.005640
vn  0.996255 -0.086317 -0.004947
vn  0.519808 -0.680604 -0.516313
vn  0.700023 -0.096940 -0.707510
vn  -0.004938 -0.683649 -0.729794
vn  -0.006295 -0.101036 -0.994863
vn  -0.526957 -0.680064 -0.509735
vn  -0.708951 -0.096205 -0.698665
vn  0.532536 0.671394 0.515399
vn  0.748308 0.663185 -0.014861
vn  -0.747726 0.663985 -0.005455
vn  -0.525294 0.671974 0.522031
vn  0.004987 0.675023 0.737780
vn  -0.535317 0.653907 0.534641
vn  -0.761361 0.648318 -0.003608
vn  -0.766958 0.641674 -0.005534
vn  -0.540169 0.648264 0.536630
vn  0.005735 0.655222 0.755415
vn  0.004878 0.650269 0.759689
vn  0.544402 0.651525 0.528339
vn  0.548003 0.646540 0.530734
vn  0.764089 0.644978 -0.013108
vn  0.768844 0.639257 -0.015170
vn  0.536535 0.639406 -0.550717
vn  0.538986 0.632692 -0.556053
vn  -0.003879 0.638061 -0.769976
vn  -0.004762 0.630674 -0.776033
vn  -0.541020 0.641758 -0.543548
vn  -0.544829 0.634388 -0.548373
vn  0.525912 0.655191 -0.542348
vn  -0.004417 0.652133 -0.758092
vn  -0.531971 0.655754 -0.535718
vn  0.439860 0.773098 -0.456993
vn  0.625840 0.779790 -0.015864
vn  -0.003595 0.770578 -0.637336
vn  -0.444780 0.773555 -0.451423
vn  -0.625241 0.780390 -0.008014
vn  -0.439151 0.787170 0.433024
vn  0.004257 0.789678 0.613507
vn  0.445445 0.786628 0.427545
vn  -0.506723 0.700327 0.502767
vn  -0.721268 0.692629 -0.006061
vn  0.004831 0.703274 0.710902
vn  0.513702 0.699816 0.496354
vn  0.721816 0.691920 -0.015125
vn  0.507314 0.684150 -0.523995
vn  -0.004245 0.681224 -0.732063
vn  -0.513119 0.684724 -0.517554
vn  0.738379 -0.001201 -0.674385
vn  0.736248 -0.011501 0.676614
vn  -0.665898 -0.006077 0.746018
vn  -0.691632 0.005773 -0.722227
vn  0.693802 -0.011578 0.720073
vn  0.664115 -0.000631 -0.747630
vn  -0.739784 -0.005499 0.672822
vn  -0.734726 0.005705 -0.678340
vn  -0.712508 0.033129 -0.700882
vn  -0.708778 0.033445 -0.704639
vn  -0.006256 0.032373 -0.999456
vn  -0.006515 0.032354 -0.999455
vn  -0.999375 0.034060 0.009447
vn  -0.999418 0.034041 0.002088
vn  -0.700323 0.033148 0.713056
vn  -0.704055 0.032825 0.709387
vn  0.006276 0.032084 0.999465
vn  0.015016 0.023763 0.999605
vn  0.721916 -0.008892 0.691923
vn  0.704499 0.001195 0.709704
vn  0.999775 0.016131 0.013748
vn  0.999174 0.033994 0.022283
vn  0.703515 0.033318 -0.709899
vn  0.699958 0.032988 -0.713422
vn  -0.917397 0.083400 -0.389137
vn  -0.782550 0.018304 -0.622319
vn  0.040475 0.019894 -0.998982
vn  -0.110777 0.046909 -0.992738
vn  -0.697711 0.001738 0.716377
vn  -0.982489 -0.019867 0.185260
vn  -0.189778 -0.064978 0.979675
vn  -0.681738 -0.051640 0.729772
vn  0.597658 -0.108946 0.794315
vn  -0.027863 -0.061880 0.997695
vn  0.990454 -0.063014 -0.122594
vn  0.749197 -0.067285 0.658921
vn  0.805156 -0.022595 -0.592632
vn  0.991148 -0.044721 -0.124999
vn  0.373036 0.018238 -0.927638
vn  0.687262 -0.008933 -0.726354
vn  -0.768816 -0.028112 -0.638852
vn  -0.009100 -0.012285 -0.999883
vn  -0.990659 -0.054095 0.125176
vn  -0.644699 -0.057167 0.762296
vn  -0.003241 -0.042313 0.999099
vn  0.652167 -0.024059 0.757693
vn  0.995698 -0.013784 0.091631
vn  0.749025 -0.013260 -0.662409
# 120 vertex normals

g base
s 4
f 3/1/3 4/2/4 1/3/1
f 1/3/1 2/4/2 3/1/3
f 2/4/2 1/3/1 5/5/5
f 5/5/5 6/6/6 2/4/2
f 6/6/6 5/5/5 7/7/7
f 7/7/7 8/8/8 6/6/6
f 8/8/8 7/7/7 9/9/9
f 9/9/9 10/10/10 8/8/8
f 10/10/10 9/9/9 11/11/11
f 11/11/11 12/12/12 10/10/10
f 12/12/12 11/11/11 13/13/13
f 13/13/13 14/14/14 12/12/12
f 14/14/14 13/13/13 15/15/15
f 15/15/15 16/16/16 14/14/14
f 16/16/16 15/15/15 4/2/4
f 4/2/4 3/1/3 16/16/16
f 19/17/19 20/18/20 17/19/17
f 17/19/17 18/20/18 19/17/19
f 21/21/21 22/22/22 20/18/20
f 20/18/20 19/17/19 21/21/21
f 23/23/23 24/24/24 22/22/22
f 22/22/22 21/21/21 23/23/23
f 25/25/25 26/26/26 24/24/24
f 24/24/24 23/23/23 25/25/25
f 27/27/27 28/28/28 26/26/26
f 26/26/26 25/25/25 27/27/27
f 29/29/29 30/30/30 28/28/28
f 28/28/28 27/27/27 29/29/29
f 31/31/31 32/32/32 30/30/30
f 30/30/30 29/29/29 31/31/31
f 18/20/18 17/19/17 32/32/32
f 32/32/32 31/31/31 18/20/18
f 35/33/35 36/34/36 33/35/33
f 33/35/33 34/36/34 35/33/35
f 33/35/33 36/34/36 37/37/37
f 3/1/3 2/4/2 19/17/19
f 19/17/19 18/20/18 3/1/3
f 2/4/2 6/6/6 21/21/21
f 21/21/21 19/17/19 2/4/2
f 6/6/6 8/8/8 23/23/23
f 23/23/23 21/21/21 6/6/6
f 8/8/8 10/10/10 25/25/25
f 25/25/25 23/23/23 8/8/8
f 10/10/10 12/12/12 27/27/27
f 27/27/27 25/25/25 10/10/10
f 12/12/12 14/14/14 29/29/29
f 29/29/29 27/27/27 12/12/12
f 14/14/14 16/16/16 31/31/31
f 31/31/31 29/29/29 14/14/14
f 16/16/16 3/1/3 18/20/18
f 18/20/18 31/31/31 16/16/16
f 40/38/40 41/39/41 38/40/38
f 38/40/38 39/41/39 40/38/40
f 41/39/41 43/42/43 42/43/42
f 42/43/42 38/40/38 41/39/41
f 43/42/43 45/44/45 44/45/44
f 44/45/44 42/43/42 43/42/43
f 45/44/45 47/46/47 46/47/46
f 46/47/46 44/45/44 45/44/45
f 47/46/47 49/48/49 48/49/48
f 48/49/48 46/47/46 47/46/47
f 49/48/49 51/50/51 50/51/50
f 50/51/50 48/49/48 49/48/49
f 51/50/51 53/52/53 52/53/52
f 52/53/52 50/51/50 51/50/51
f 53/52/53 40/38/40 39/41/39
f 39/41/39 52/53/52 53/52/53
f 54/35/54 55/37/55 35/33/35
f 35/33/35 34/36/34 54/35/54
f 35/33/35 55/37/55 56/34/56
f 34/54/34 58/55/58 57/56/57
f 57/56/57 54/57/54 34/54/34
f 54/57/54 57/56/57 59/58/59
f 59/58/59 55/59/55 54/57/54
f 55/59/55 59/58/59 60/60/60
f 60/60/60 56/61/56 55/59/55
f 56/61/56 60/60/60 61/62/61
f 61/62/61 35/63/35 56/61/56
f 35/63/35 61/62/61 62/64/62
f 62/64/62 36/65/36 35/63/35
f 36/65/36 62/64/62 63/66/63
f 63/66/63 37/67/37 36/65/36
f 37/67/37 63/66/63 64/68/64
f 64/68/64 33/69/33 37/67/37
f 33/69/33 64/68/64 58/55/58
f 58/55/58 34/54/34 33/69/33
f 41/39/41 40/38/40 17/19/17
f 17/19/17 20/18/20 41/39/41
f 43/42/43 41/39/41 20/18/20
f 20/18/20 22/22/22 43/42/43
f 45/44/45 43/42/43 22/22/22
f 22/22/22 24/24/24 45/44/45
f 47/46/47 45/44/45 24/24/24
f 24/24/24 26/26/26 47/46/47
f 49/48/49 47/46/47 26/26/26
f 26/26/26 28/28/28 49/48/49
f 51/50/51 49/48/49 28/28/28
f 28/28/28 30/30/30 51/50/51
f 53/52/53 51/50/51 30/30/30
f 30/30/30 32/32/32 53/52/53
f 40/38/40 53/52/53 32/32/32
f 32/32/32 17/19/17 40/38/40
f 39/41/39 38/40/38 65/70/65
f 65/70/65 66/71/66 39/41/39
f 38/40/38 42/43/42 67/72/67
f 67/72/67 65/70/65 38/40/38
f 42/43/42 44/45/44 68/73/68
f 68/73/68 67/72/67 42/43/42
f 44/45/44 46/47/46 69/74/69
f 69/74/69 68/73/68 44/45/44
f 46/47/46 48/49/48 70/75/70
f 70/75/70 69/74/69 46/47/46
f 48/49/48 50/51/50 71/76/71
f 71/76/71 70/75/70 48/49/48
f 50/51/50 52/53/52 72/77/72
f 72/77/72 71/76/71 50/51/50
f 52/53/52 39/41/39 66/71/66
f 66/71/66 72/77/72 52/53/52
f 66/71/66 65/70/65 57/56/57
f 57/56/57 58/55/58 66/71/66
f 65/70/65 67/72/67 59/58/59
f 59/58/59 57/56/57 65/70/65
f 67/72/67 68/73/68 60/60/60
f 60/60/60 59/58/59 67/72/67
f 68/73/68 69/74/69 61/62/61
f 61/62/61 60/60/60 68/73/68
f 69/74/69 70/75/70 62/64/62
f 62/64/62 61/62/61 69/74/69
f 70/75/70 71/76/71 63/66/63
f 63/66/63 62/64/62 70/75/70
f 71/76/71 72/77/72 64/68/64
f 64/68/64 63/66/63 71/76/71
f 72/77/72 66/71/66 58/55/58
f 58/55/58 64/68/64 72/77/72
f 77/78/77 78/79/78 73/80/73
f 73/80/73 74/81/74 77/78/77
f 79/82/79 77/83/77 74/84/74
f 74/84/74 75/85/75 79/82/79
f 80/86/80 79/82/79 75/85/75
f 75/85/75 76/87/76 80/86/80
f 78/79/78 80/88/80 76/89/76
f 76/89/76 73/80/73 78/79/78
s 1
f 5/90/5 4/91/4 9/92/9
f 9/92/9 7/93/7 5/90/5
f 1/94/1 4/91/4 5/90/5
s 4
f 81/95/81 84/96/84 83/97/83
f 83/97/83 82/98/82 81/95/81
f 85/99/85 81/95/81 82/98/82
f 82/98/82 86/100/86 85/99/85
f 87/95/87 85/99/85 86/100/86
f 86/100/86 88/98/88 87/95/87
f 89/96/89 87/95/87 88/98/88
f 88/98/88 90/97/90 89/96/89
f 91/101/91 89/96/89 90/97/90
f 90/97/90 92/102/92 91/101/91
f 93/103/93 91/101/91 92/102/92
f 92/102/92 94/104/94 93/103/93
f 95/101/95 93/103/93 94/104/94
f 94/104/94 96/102/96 95/101/95
f 84/96/84 95/101/95 96/102/96
f 96/102/96 83/97/83 84/96/84
s 1
f 13/105/13 9/92/9 4/91/4
f 4/91/4 15/106/15 13/105/13
f 9/92/9 13/105/13 11/107/11
s 4
f 99/108/99 100/97/100 97/98/97
f 97/98/97 98/109/98 99/108/99
f 98/109/98 97/98/97 101/100/101
f 101/100/101 102/110/102 98/109/98
f 102/110/102 101/100/101 103/98/103
f 103/98/103 104/109/104 102/110/102
f 104/109/104 103/98/103 105/97/105
f 105/97/105 106/108/106 104/109/104
f 108/111/108 106/108/106 105/97/105
f 105/97/105 107/102/107 108/111/108
f 110/112/110 108/111/108 107/102/107
f 107/102/107 109/104/109 110/112/110
f 112/111/112 110/112/110 109/104/109
f 109/104/109 111/102/111 112/111/112
f 99/108/99 112/111/112 111/102/111
f 111/102/111 100/97/100 99/108/99
f 114/96/114 99/108/99 98/109/98
f 98/109/98 113/95/113 114/96/114
f 113/95/113 98/109/98 102/110/102
f 102/110/102 115/99/115 113/95/113
f 115/99/115 102/110/102 104/109/104
f 104/109/104 116/95/116 115/99/115
f 116/95/116 104/109/104 106/108/106
f 106/108/106 117/96/117 116/95/116
f 106/108/106 108/111/108 118/101/118
f 118/101/118 117/96/117 106/108/106
f 108/111/108 110/112/110 119/103/119
f 119/103/119 118/101/118 108/111/108
f 110/112/110 112/111/112 120/101/120
f 120/101/120 119/103/119 110/112/110
f 112/111/112 99/108/99 114/96/114
f 114/96/114 120/101/120 112/111/112
s 1
f 76/89/76 75/85/75 74/84/74
f 74/84/74 73/80/73 76/89/76
# 198 faces

g
