# 3ds Max Wavefront OBJ Exporter v0.97b - (c)2007 guruware
# File Created: 27.07.2021 10:30:53

mtllib ????\magical_screen.mtl

#
# object lower1
#

v  100.0000 100.0000 -57.1498
v  100.0000 100.0000 -42.8502
v  100.0000 0.0256 -42.8502
v  100.0000 -0.0256 -57.1498
v  0.0000 0.0006 -42.8502
v  0.0000 -0.0006 -57.1498
v  0.0000 99.9995 -42.8502
v  0.0000 99.9995 -57.1498
v  88.2705 15.9683 -43.2053
v  92.8959 12.6563 -42.6292
v  89.2034 13.1632 -42.6292
v  91.2265 15.9887 -42.6292
v  92.8497 19.3438 -42.6292
v  89.1645 18.7860 -42.6292
v  86.4752 21.3665 -42.6292
v  85.8670 17.6893 -42.6292
v  82.5817 15.9290 -42.6292
v  85.8910 14.2143 -42.6292
v  86.5499 10.5458 -42.6292
v  88.2705 15.9683 -42.0530
v  11.5964 16.1155 -43.2053
v  16.2218 12.8035 -42.6292
v  12.5293 13.3104 -42.6292
v  14.5524 16.1359 -42.6292
v  16.1756 19.4910 -42.6292
v  12.4905 18.9332 -42.6292
v  9.8011 21.5137 -42.6292
v  9.1929 17.8365 -42.6292
v  5.9077 16.0762 -42.6292
v  9.2169 14.3615 -42.6292
v  9.8759 10.6930 -42.6292
v  11.5964 16.1155 -42.0530
v  90.3030 14.4754 -56.7947
v  91.2359 11.6704 -57.3708
v  94.9283 11.1635 -57.3708
v  93.2590 14.4958 -57.3708
v  94.8821 17.8510 -57.3708
v  91.1970 17.2931 -57.3708
v  88.5077 19.8736 -57.3708
v  87.8995 16.1964 -57.3708
v  84.6142 14.4361 -57.3708
v  87.9235 12.7214 -57.3708
v  88.5824 9.0530 -57.3708
v  90.3030 14.4754 -57.9470
v  10.7604 14.4754 -56.7947
v  11.6933 11.6704 -57.3708
v  15.3858 11.1635 -57.3708
v  13.7164 14.4958 -57.3708
v  15.3396 17.8510 -57.3708
v  11.6544 17.2931 -57.3708
v  8.9651 19.8736 -57.3708
v  8.3569 16.1964 -57.3708
v  5.0717 14.4361 -57.3708
v  8.3809 12.7214 -57.3708
v  9.0398 9.0530 -57.3708
v  10.7604 14.4754 -57.9470
# 56 vertices

vn 1.0000 0.0000 -0.0000
vn 0.0002 -1.0000 0.0033
vn 0.0003 -1.0000 0.0036
vn -0.0002 -1.0000 0.0004
vn -0.0003 -1.0000 0.0001
vn -1.0000 0.0000 -0.0000
vn 0.0000 0.0000 -1.0000
vn 0.0000 0.0000 1.0000
vn 0.8131 -0.5822 -0.0000
vn 0.3156 -0.9489 -0.0000
vn 1.0000 0.0069 0.0000
vn 0.8049 0.5934 0.0000
vn 0.3024 0.9532 0.0000
vn -0.3156 0.9489 -0.0000
vn -0.8131 0.5822 -0.0000
vn -1.0000 -0.0069 -0.0000
vn -0.8049 -0.5934 -0.0000
vn -0.3024 -0.9532 0.0000
vn -0.0000 -0.0000 1.0000
vn 0.8131 -0.5822 0.0000
vn -0.3024 -0.9532 -0.0000
vn 0.3156 -0.9489 0.0000
vn 1.0000 0.0069 -0.0000
vn 0.3024 0.9532 -0.0000
vn -0.3156 0.9489 0.0000
vn -0.8131 0.5822 0.0000
vn -1.0000 -0.0069 0.0000
vn -0.8049 -0.5934 0.0000
vn -0.0000 -0.0000 -1.0000
# 29 vertex normals

vt 0.4988 0.8985 0.0000
vt 0.4988 0.9939 0.0000
vt 0.9365 0.9939 0.0000
vt 0.9365 0.8985 0.0000
vt 0.9365 0.0075 0.0000
vt 0.9898 0.0075 0.0000
vt 0.9898 0.8985 0.0000
vt 0.4988 0.0075 0.0000
vt 0.9364 0.0075 0.0000
vt 0.0470 0.9472 0.0000
vt 0.0216 0.9100 0.0000
vt 0.0470 0.9232 0.0000
vt 0.0256 0.9396 0.0000
vt 0.0058 0.9610 0.0000
vt 0.0338 0.9661 0.0000
vt 0.0470 0.9925 0.0000
# 16 texture coords

g lower1
usemtl Material__8
s 1
f 1/1/1 2/2/1 3/3/1 
f 3/3/1 4/4/1 1/1/1 
s 4
f 4/5/2 3/6/3 5/7/4 
f 5/7/4 6/4/5 4/5/2 
s 1
f 6/4/6 5/3/6 7/2/6 
f 7/2/6 8/1/6 6/4/6 
s 2
f 4/4/7 6/5/7 8/8/7 
f 8/8/7 1/1/7 4/4/7 
f 7/8/8 5/9/8 3/4/8 
f 3/4/8 2/1/8 7/8/8 
s 1
f 9/10/7 10/11/9 11/12/10 
f 9/10/7 12/13/11 10/11/9 
f 9/10/7 13/14/12 12/13/11 
f 9/10/7 14/15/13 13/14/12 
f 9/10/7 15/16/14 14/15/13 
f 9/10/7 16/15/15 15/16/14 
f 9/10/7 17/14/16 16/15/15 
f 9/10/7 18/13/17 17/14/16 
f 9/10/7 19/11/18 18/13/17 
f 9/10/7 11/12/10 19/11/18 
f 11/12/10 10/11/9 20/10/19 
f 10/11/9 12/13/11 20/10/19 
f 12/13/11 13/14/12 20/10/19 
f 13/14/12 14/15/13 20/10/19 
f 14/15/13 15/16/14 20/10/19 
f 15/16/14 16/15/15 20/10/19 
f 16/15/15 17/14/16 20/10/19 
f 17/14/16 18/13/17 20/10/19 
f 18/13/17 19/11/18 20/10/19 
f 19/11/18 11/12/10 20/10/19 
f 21/10/7 22/11/20 23/12/10 
f 21/10/7 24/13/11 22/11/20 
f 21/10/7 25/14/12 24/13/11 
f 21/10/7 26/15/13 25/14/12 
f 21/10/7 27/16/14 26/15/13 
f 21/10/7 28/15/15 27/16/14 
f 21/10/7 29/14/16 28/15/15 
f 21/10/7 30/13/17 29/14/16 
f 21/10/7 31/11/21 30/13/17 
f 21/10/7 23/12/10 31/11/21 
f 23/12/10 22/11/20 32/10/19 
f 22/11/20 24/13/11 32/10/19 
f 24/13/11 25/14/12 32/10/19 
f 25/14/12 26/15/13 32/10/19 
f 26/15/13 27/16/14 32/10/19 
f 27/16/14 28/15/15 32/10/19 
f 28/15/15 29/14/16 32/10/19 
f 29/14/16 30/13/17 32/10/19 
f 30/13/17 31/11/21 32/10/19 
f 31/11/21 23/12/10 32/10/19 
f 33/10/8 34/12/22 35/11/9 
f 33/10/8 35/11/9 36/13/23 
f 33/10/8 36/13/23 37/14/12 
f 33/10/8 37/14/12 38/15/24 
f 33/10/8 38/15/24 39/16/25 
f 33/10/8 39/16/25 40/15/26 
f 33/10/8 40/15/26 41/14/27 
f 33/10/8 41/14/27 42/13/28 
f 33/10/8 42/13/28 43/11/18 
f 33/10/8 43/11/18 34/12/22 
f 34/12/22 44/10/29 35/11/9 
f 35/11/9 44/10/29 36/13/23 
f 36/13/23 44/10/29 37/14/12 
f 37/14/12 44/10/29 38/15/24 
f 38/15/24 44/10/29 39/16/25 
f 39/16/25 44/10/29 40/15/26 
f 40/15/26 44/10/29 41/14/27 
f 41/14/27 44/10/29 42/13/28 
f 42/13/28 44/10/29 43/11/18 
f 43/11/18 44/10/29 34/12/22 
f 45/10/8 46/12/22 47/11/9 
f 45/10/8 47/11/9 48/13/23 
f 45/10/8 48/13/23 49/14/12 
f 45/10/8 49/14/12 50/15/24 
f 45/10/8 50/15/24 51/16/25 
f 45/10/8 51/16/25 52/15/26 
f 45/10/8 52/15/26 53/14/27 
f 45/10/8 53/14/27 54/13/28 
f 45/10/8 54/13/28 55/11/21 
f 45/10/8 55/11/21 46/12/22 
f 46/12/22 56/10/29 47/11/9 
f 47/11/9 56/10/29 48/13/23 
f 48/13/23 56/10/29 49/14/12 
f 49/14/12 56/10/29 50/15/24 
f 50/15/24 56/10/29 51/16/25 
f 51/16/25 56/10/29 52/15/26 
f 52/15/26 56/10/29 53/14/27 
f 53/14/27 56/10/29 54/13/28 
f 54/13/28 56/10/29 55/11/21 
f 55/11/21 56/10/29 46/12/22 
# 90 faces

#
# object upper1
#

v  0.0000 100.0006 -57.1498
v  0.0000 99.9994 -42.8502
v  100.0000 99.9743 -42.8502
v  100.0000 100.0257 -57.1498
v  100.0000 0.0000 -42.8502
v  100.0000 0.0000 -57.1498
v  0.0000 0.0000 -57.1498
v  0.0000 0.0000 -42.8502
v  89.3338 86.1044 -43.2053
v  93.9591 82.7925 -42.6292
v  90.2666 83.2994 -42.6292
v  92.2898 86.1248 -42.6292
v  93.9129 89.4800 -42.6292
v  90.2278 88.9221 -42.6292
v  87.5385 91.5026 -42.6292
v  86.9303 87.8254 -42.6292
v  83.6450 86.0651 -42.6292
v  86.9543 84.3504 -42.6292
v  87.6132 80.6820 -42.6292
v  89.3338 86.1044 -42.0530
v  11.4147 85.0686 -43.2053
v  16.0400 81.7567 -42.6292
v  12.3476 82.2636 -42.6292
v  14.3707 85.0891 -42.6292
v  15.9938 88.4442 -42.6292
v  12.3087 87.8863 -42.6292
v  9.6194 90.4668 -42.6292
v  9.0112 86.7896 -42.6292
v  5.7259 85.0294 -42.6292
v  9.0352 83.3146 -42.6292
v  9.6941 79.6462 -42.6292
v  11.4147 85.0686 -42.0530
v  90.3030 85.5489 -56.7947
v  91.2359 82.7438 -57.3708
v  94.9283 82.2369 -57.3708
v  93.2590 85.5693 -57.3708
v  94.8821 88.9244 -57.3708
v  91.1970 88.3665 -57.3708
v  88.5077 90.9470 -57.3708
v  87.8995 87.2699 -57.3708
v  84.6142 85.5096 -57.3708
v  87.9235 83.7948 -57.3708
v  88.5824 80.1264 -57.3708
v  90.3030 85.5489 -57.9470
v  10.7604 85.5489 -56.7947
v  11.6933 82.7438 -57.3708
v  15.3858 82.2369 -57.3708
v  13.7164 85.5693 -57.3708
v  15.3396 88.9244 -57.3708
v  11.6544 88.3665 -57.3708
v  8.9651 90.9470 -57.3708
v  8.3569 87.2699 -57.3708
v  5.0717 85.5096 -57.3708
v  8.3809 83.7948 -57.3708
v  9.0398 80.1264 -57.3708
v  10.7604 85.5489 -57.9470
# 56 vertices

vn 0.0002 1.0000 0.0004
vn 0.0003 1.0000 0.0001
vn -0.0002 1.0000 0.0033
vn -0.0003 1.0000 0.0036
vn 1.0000 0.0000 -0.0000
vn -1.0000 0.0000 -0.0000
vn 0.0000 0.0000 -1.0000
vn 0.0000 0.0000 1.0000
vn 0.8131 -0.5822 0.0000
vn 0.3156 -0.9489 -0.0000
vn 1.0000 0.0069 0.0000
vn 0.8049 0.5934 -0.0000
vn 0.3024 0.9532 0.0000
vn -0.3156 0.9489 -0.0000
vn -0.8131 0.5822 -0.0000
vn -1.0000 -0.0069 -0.0000
vn -0.8049 -0.5934 -0.0000
vn -0.3024 -0.9532 -0.0000
vn -0.0000 -0.0000 1.0000
vn -1.0000 -0.0069 0.0000
vn 0.3156 -0.9489 0.0000
vn 0.8131 -0.5822 -0.0000
vn 1.0000 0.0069 -0.0000
vn 0.8049 0.5934 0.0000
vn 0.3024 0.9532 -0.0000
vn -0.3156 0.9489 0.0000
vn -0.8131 0.5822 0.0000
vn -0.8049 -0.5934 0.0000
vn -0.3024 -0.9532 0.0000
vn -0.0000 -0.0000 -1.0000
# 30 vertex normals

vt 0.0612 0.8985 0.0000
vt 0.0078 0.8985 0.0000
vt 0.0078 0.0075 0.0000
vt 0.0612 0.0075 0.0000
vt 0.0612 0.9939 0.0000
vt 0.4988 0.9939 0.0000
vt 0.4988 0.8985 0.0000
vt 0.4988 0.0075 0.0000
vt 0.0470 0.9472 0.0000
vt 0.0216 0.9100 0.0000
vt 0.0470 0.9232 0.0000
vt 0.0256 0.9396 0.0000
vt 0.0058 0.9610 0.0000
vt 0.0338 0.9661 0.0000
vt 0.0470 0.9925 0.0000
# 15 texture coords

g upper1
usemtl Material__8
s 4
f 57/17/30 58/18/31 59/19/32 
f 59/19/32 60/20/33 57/17/30 
s 1
f 60/17/34 59/21/34 61/22/34 
f 61/22/34 62/23/34 60/17/34 
f 63/23/35 64/22/35 58/21/35 
f 58/21/35 57/17/35 63/23/35 
s 2
f 60/17/36 62/23/36 63/24/36 
f 63/24/36 57/20/36 60/17/36 
f 64/24/37 61/23/37 59/17/37 
f 59/17/37 58/20/37 64/24/37 
s 1
f 65/25/36 66/26/38 67/27/39 
f 65/25/36 68/28/40 66/26/38 
f 65/25/36 69/29/41 68/28/40 
f 65/25/36 70/30/42 69/29/41 
f 65/25/36 71/31/43 70/30/42 
f 65/25/36 72/30/44 71/31/43 
f 65/25/36 73/29/45 72/30/44 
f 65/25/36 74/28/46 73/29/45 
f 65/25/36 75/26/47 74/28/46 
f 65/25/36 67/27/39 75/26/47 
f 67/27/39 66/26/38 76/25/48 
f 66/26/38 68/28/40 76/25/48 
f 68/28/40 69/29/41 76/25/48 
f 69/29/41 70/30/42 76/25/48 
f 70/30/42 71/31/43 76/25/48 
f 71/31/43 72/30/44 76/25/48 
f 72/30/44 73/29/45 76/25/48 
f 73/29/45 74/28/46 76/25/48 
f 74/28/46 75/26/47 76/25/48 
f 75/26/47 67/27/39 76/25/48 
f 77/25/36 78/26/38 79/27/39 
f 77/25/36 80/28/40 78/26/38 
f 77/25/36 81/29/41 80/28/40 
f 77/25/36 82/30/42 81/29/41 
f 77/25/36 83/31/43 82/30/42 
f 77/25/36 84/30/44 83/31/43 
f 77/25/36 85/29/49 84/30/44 
f 77/25/36 86/28/46 85/29/49 
f 77/25/36 87/26/47 86/28/46 
f 77/25/36 79/27/39 87/26/47 
f 79/27/39 78/26/38 88/25/48 
f 78/26/38 80/28/40 88/25/48 
f 80/28/40 81/29/41 88/25/48 
f 81/29/41 82/30/42 88/25/48 
f 82/30/42 83/31/43 88/25/48 
f 83/31/43 84/30/44 88/25/48 
f 84/30/44 85/29/49 88/25/48 
f 85/29/49 86/28/46 88/25/48 
f 86/28/46 87/26/47 88/25/48 
f 87/26/47 79/27/39 88/25/48 
f 89/25/37 90/27/50 91/26/51 
f 89/25/37 91/26/51 92/28/52 
f 89/25/37 92/28/52 93/29/53 
f 89/25/37 93/29/53 94/30/54 
f 89/25/37 94/30/54 95/31/55 
f 89/25/37 95/31/55 96/30/56 
f 89/25/37 96/30/56 97/29/49 
f 89/25/37 97/29/49 98/28/57 
f 89/25/37 98/28/57 99/26/58 
f 89/25/37 99/26/58 90/27/50 
f 90/27/50 100/25/59 91/26/51 
f 91/26/51 100/25/59 92/28/52 
f 92/28/52 100/25/59 93/29/53 
f 93/29/53 100/25/59 94/30/54 
f 94/30/54 100/25/59 95/31/55 
f 95/31/55 100/25/59 96/30/56 
f 96/30/56 100/25/59 97/29/49 
f 97/29/49 100/25/59 98/28/57 
f 98/28/57 100/25/59 99/26/58 
f 99/26/58 100/25/59 90/27/50 
f 101/25/37 102/27/50 103/26/51 
f 101/25/37 103/26/51 104/28/52 
f 101/25/37 104/28/52 105/29/53 
f 101/25/37 105/29/53 106/30/54 
f 101/25/37 106/30/54 107/31/55 
f 101/25/37 107/31/55 108/30/56 
f 101/25/37 108/30/56 109/29/49 
f 101/25/37 109/29/49 110/28/57 
f 101/25/37 110/28/57 111/26/58 
f 101/25/37 111/26/58 102/27/50 
f 102/27/50 112/25/59 103/26/51 
f 103/26/51 112/25/59 104/28/52 
f 104/28/52 112/25/59 105/29/53 
f 105/29/53 112/25/59 106/30/54 
f 106/30/54 112/25/59 107/31/55 
f 107/31/55 112/25/59 108/30/56 
f 108/30/56 112/25/59 109/29/49 
f 109/29/49 112/25/59 110/28/57 
f 110/28/57 112/25/59 111/26/58 
f 111/26/58 112/25/59 102/27/50 
# 90 faces

