# 3ds Max Wavefront OBJ Exporter v0.97b - (c)2007 guruware
# File Created: 27.07.2021 09:48:24

mtllib magical_half_cabinet.mtl

#
# object base0
#

v  100.0000 50.0002 -100.0000
v  100.0000 50.0002 -0.0000
v  100.0000 0.0000 -0.0000
v  100.0000 0.0000 -100.0000
v  0.0001 50.0002 -100.0000
v  0.0000 0.0000 -100.0000
v  0.0000 0.0000 -0.0000
v  0.0001 50.0002 -0.0000
v  49.9358 15.3748 3.2421
v  49.9358 15.7427 2.5583
v  58.5378 11.5077 2.5583
v  58.9539 10.9349 3.2421
v  57.5181 20.8837 3.2421
v  57.1682 20.9973 2.5583
v  63.8542 27.8696 2.5583
v  64.5274 28.0884 3.2421
v  54.6219 29.7972 3.2421
v  54.4057 29.4996 2.5583
v  49.9358 37.9819 2.5583
v  49.9358 38.6899 3.2421
v  45.2497 29.7972 3.2421
v  45.4659 29.4996 2.5583
v  36.0175 27.8696 2.5583
v  35.3442 28.0884 3.2421
v  42.3535 20.8837 3.2421
v  42.7034 20.9973 2.5583
v  41.3338 11.5077 2.5583
v  40.9177 10.9349 3.2421
v  58.5378 11.5077 3.9259
v  49.9358 15.7427 3.9259
v  57.1682 20.9973 3.9259
v  63.8542 27.8696 3.9259
v  54.4057 29.4996 3.9259
v  49.9358 37.9819 3.9259
v  45.4659 29.4996 3.9259
v  36.0175 27.8696 3.9259
v  42.7034 20.9973 3.9259
v  41.3338 11.5077 3.9259
v  49.9358 23.3473 1.6882
v  49.9358 23.3473 4.7960
v  16.6159 39.7832 2.2090
v  16.6159 8.9319 2.2090
v  82.3410 8.9320 2.2090
v  82.3410 39.7833 2.2090
v  84.8248 37.6709 -0.1273
v  84.6202 37.5041 2.2090
v  84.6202 11.2112 2.2090
v  84.8248 11.0444 -0.1273
v  16.3597 39.8984 -0.1273
v  82.5972 39.8985 -0.1273
v  14.1320 11.0444 -0.1273
v  14.3367 11.2111 2.2090
v  14.3367 37.5040 2.2090
v  14.1320 37.6708 -0.1273
v  82.5972 8.8168 -0.1273
v  16.3597 8.8167 -0.1273
v  84.2679 39.3416 -0.1273
v  84.0504 39.2135 2.2090
v  14.6889 39.3415 -0.1273
v  14.9065 39.2134 2.2090
v  14.6889 9.3736 -0.1273
v  14.9065 9.5017 2.2090
v  84.2679 9.3737 -0.1273
v  84.0504 9.5018 2.2090
# 64 vertices

vn 0.5774 0.5774 -0.5774
vn 0.5774 0.5774 0.5774
vn 0.5774 -0.5774 0.5774
vn 0.5774 -0.5774 -0.5774
vn -0.5773 0.5774 -0.5774
vn -0.5774 -0.5774 -0.5774
vn -0.5774 -0.5773 0.5774
vn -0.5773 0.5774 0.5774
vn 0.0000 -1.0000 0.0000
vn -0.0000 -0.4551 -0.8905
vn 0.3260 -0.4487 -0.8321
vn 0.5878 -0.8090 0.0000
vn 0.9510 -0.3090 0.0000
vn 0.4328 -0.1406 -0.8905
vn 0.5275 0.1714 -0.8321
vn 0.9511 0.3090 0.0000
vn 0.5878 0.8090 0.0000
vn 0.2675 0.3681 -0.8905
vn 0.0000 0.5546 -0.8321
vn 0.0000 1.0000 0.0000
vn -0.5878 0.8090 0.0000
vn -0.2675 0.3681 -0.8905
vn -0.5275 0.1714 -0.8321
vn -0.9511 0.3090 0.0000
vn -0.9510 -0.3090 0.0000
vn -0.4328 -0.1406 -0.8905
vn -0.3260 -0.4487 -0.8321
vn -0.5878 -0.8090 0.0000
vn 0.3260 -0.4487 0.8321
vn -0.0000 -0.4550 0.8905
vn 0.4328 -0.1406 0.8905
vn 0.5275 0.1714 0.8321
vn 0.2675 0.3681 0.8905
vn -0.0000 0.5546 0.8321
vn -0.2675 0.3681 0.8905
vn -0.5275 0.1714 0.8321
vn -0.4328 -0.1406 0.8905
vn -0.3260 -0.4487 0.8321
vn 0.0000 -0.0000 -1.0000
vn 0.0000 -0.0000 1.0000
vn -0.1077 0.7095 0.6964
vn -0.1077 -0.7095 0.6964
vn 0.1077 -0.7095 0.6964
vn 0.1077 0.7095 0.6964
vn 0.9814 0.1650 0.0978
vn 0.6979 0.1091 0.7079
vn 0.6979 -0.1091 0.7079
vn 0.9814 -0.1650 0.0977
vn -0.1697 0.9832 0.0671
vn 0.1697 0.9832 0.0671
vn -0.9814 -0.1649 0.0977
vn -0.6979 -0.1091 0.7079
vn -0.6979 0.1091 0.7079
vn -0.9814 0.1650 0.0977
vn 0.1697 -0.9832 0.0671
vn -0.1697 -0.9832 0.0671
vn 0.7084 0.6981 0.1042
vn 0.5284 0.5369 0.6577
vn -0.7084 0.6981 0.1042
vn -0.5284 0.5369 0.6577
vn -0.7084 -0.6981 0.1042
vn -0.5284 -0.5369 0.6577
vn 0.7084 -0.6981 0.1042
vn 0.5284 -0.5369 0.6577
# 64 vertex normals

vt 0.9968 0.2486 0.0000
vt 0.5513 0.2486 0.0000
vt 0.5513 0.4897 0.0000
vt 0.9968 0.4897 0.0000
vt 0.2755 0.5099 0.0000
vt 0.4655 0.5099 0.0000
vt 0.4655 0.9932 0.0000
vt 0.2755 0.9932 0.0000
vt 0.2578 0.5790 0.0000
vt 0.2578 0.5086 0.0000
vt 0.1867 0.5086 0.0000
vt 0.1867 0.5790 0.0000
vt 0.3151 0.4897 0.0000
vt 0.3151 0.2486 0.0000
vt 0.4795 0.5085 0.0000
vt 0.9959 0.5085 0.0000
vt 0.9959 0.9960 0.0000
vt 0.4795 0.9960 0.0000
vt 0.0188 0.5933 0.0000
vt 0.0188 0.6028 0.0000
vt 0.1450 0.5378 0.0000
vt 0.1610 0.5206 0.0000
vt 0.1450 0.6830 0.0000
vt 0.1315 0.6888 0.0000
vt 0.2237 0.8142 0.0000
vt 0.2458 0.8243 0.0000
vt 0.1037 0.8279 0.0000
vt 0.0965 0.8148 0.0000
vt 0.0188 0.9567 0.0000
vt 0.0188 0.9820 0.0000
vt 0.0188 0.6926 0.0000
vt 0.0213 0.4594 0.0000
vt 0.2828 0.4594 0.0000
vt 0.2828 0.0382 0.0000
vt 0.0213 0.0382 0.0000
vt 0.0331 0.0094 0.0000
vt 0.0349 0.0241 0.0000
vt 0.2681 0.0241 0.0000
vt 0.2701 0.0094 0.0000
vt 0.0067 0.4618 0.0000
vt 0.0067 0.0364 0.0000
vt 0.2711 0.4882 0.0000
vt 0.2693 0.4735 0.0000
vt 0.0361 0.4735 0.0000
vt 0.0341 0.4882 0.0000
vt 0.2975 0.0358 0.0000
vt 0.2975 0.4612 0.0000
vt 0.0164 0.0172 0.0000
vt 0.0242 0.0276 0.0000
vt 0.0148 0.4785 0.0000
vt 0.0254 0.4700 0.0000
vt 0.2878 0.4804 0.0000
vt 0.2800 0.4700 0.0000
vt 0.2893 0.0191 0.0000
vt 0.2787 0.0276 0.0000
# 55 texture coords

g base0
usemtl Material__16
s 1
f 1/1/1 2/2/2 3/3/3 
f 3/3/3 4/4/4 1/1/1 
f 5/5/5 1/6/1 4/7/4 
f 4/7/4 6/8/6 5/5/5 
f 4/9/4 3/10/3 7/11/7 
f 7/11/7 6/12/6 4/9/4 
f 7/13/7 3/3/3 2/2/2 
f 2/2/2 8/14/8 7/13/7 
f 7/3/7 8/2/8 5/1/5 
f 5/1/5 6/4/6 7/3/7 
f 2/15/2 1/16/1 5/17/5 
f 5/17/5 8/18/8 2/15/2 
f 9/19/9 10/20/10 11/21/11 
f 11/21/11 12/22/12 9/19/9 
f 13/23/13 12/22/12 11/21/11 
f 11/21/11 14/24/14 13/23/13 
f 13/23/13 14/24/14 15/25/15 
f 15/25/15 16/26/16 13/23/13 
f 17/27/17 16/26/16 15/25/15 
f 15/25/15 18/28/18 17/27/17 
f 17/27/17 18/28/18 19/29/19 
f 19/29/19 20/30/20 17/27/17 
f 21/27/21 20/30/20 19/29/19 
f 19/29/19 22/28/22 21/27/21 
f 21/27/21 22/28/22 23/25/23 
f 23/25/23 24/26/24 21/27/21 
f 25/23/25 24/26/24 23/25/23 
f 23/25/23 26/24/26 25/23/25 
f 25/23/25 26/24/26 27/21/27 
f 27/21/27 28/22/28 25/23/25 
f 9/19/9 28/22/28 27/21/27 
f 27/21/27 10/20/10 9/19/9 
f 29/21/29 30/20/30 9/19/9 
f 9/19/9 12/22/12 29/21/29 
f 29/21/29 12/22/12 13/23/13 
f 13/23/13 31/24/31 29/21/29 
f 32/25/32 31/24/31 13/23/13 
f 13/23/13 16/26/16 32/25/32 
f 32/25/32 16/26/16 17/27/17 
f 17/27/17 33/28/33 32/25/32 
f 34/29/34 33/28/33 17/27/17 
f 17/27/17 20/30/20 34/29/34 
f 34/29/34 20/30/20 21/27/21 
f 21/27/21 35/28/35 34/29/34 
f 36/25/36 35/28/35 21/27/21 
f 21/27/21 24/26/24 36/25/36 
f 36/25/36 24/26/24 25/23/25 
f 25/23/25 37/24/37 36/25/36 
f 38/21/38 37/24/37 25/23/25 
f 25/23/25 28/22/28 38/21/38 
f 38/21/38 28/22/28 9/19/9 
f 9/19/9 30/20/30 38/21/38 
f 11/21/11 10/20/10 39/31/39 
f 14/24/14 11/21/11 39/31/39 
f 15/25/15 14/24/14 39/31/39 
f 18/28/18 15/25/15 39/31/39 
f 19/29/19 18/28/18 39/31/39 
f 22/28/22 19/29/19 39/31/39 
f 23/25/23 22/28/22 39/31/39 
f 26/24/26 23/25/23 39/31/39 
f 27/21/27 26/24/26 39/31/39 
f 10/20/10 27/21/27 39/31/39 
f 30/20/30 29/21/29 40/31/40 
f 29/21/29 31/24/31 40/31/40 
f 31/24/31 32/25/32 40/31/40 
f 32/25/32 33/28/33 40/31/40 
f 33/28/33 34/29/34 40/31/40 
f 34/29/34 35/28/35 40/31/40 
f 35/28/35 36/25/36 40/31/40 
f 36/25/36 37/24/37 40/31/40 
f 37/24/37 38/21/38 40/31/40 
f 38/21/38 30/20/30 40/31/40 
f 41/32/41 42/33/42 43/34/43 
f 43/34/43 44/35/44 41/32/41 
f 45/36/45 46/37/46 47/38/47 
f 47/38/47 48/39/48 45/36/45 
f 49/40/49 41/32/41 44/35/44 
f 44/35/44 50/41/50 49/40/49 
f 51/42/51 52/43/52 53/44/53 
f 53/44/53 54/45/54 51/42/51 
f 55/46/55 43/34/43 42/33/42 
f 42/33/42 56/47/56 55/46/55 
f 46/37/46 45/36/45 57/48/57 
f 57/48/57 58/49/58 46/37/46 
f 41/32/41 49/40/49 59/50/59 
f 59/50/59 60/51/60 41/32/41 
f 52/43/52 51/42/51 61/52/61 
f 61/52/61 62/53/62 52/43/52 
f 43/34/43 55/46/55 63/54/63 
f 63/54/63 64/55/64 43/34/43 
f 58/49/58 57/48/57 50/41/50 
f 50/41/50 44/35/44 58/49/58 
f 60/51/60 59/50/59 54/45/54 
f 54/45/54 53/44/53 60/51/60 
f 62/53/62 61/52/61 56/47/56 
f 56/47/56 42/33/42 62/53/62 
f 64/55/64 63/54/63 48/39/48 
f 48/39/48 47/38/47 64/55/64 
f 41/32/41 60/51/60 62/53/62 
f 62/53/62 42/33/42 41/32/41 
f 60/51/60 53/44/53 52/43/52 
f 52/43/52 62/53/62 60/51/60 
f 64/55/64 47/38/47 46/37/46 
f 46/37/46 58/49/58 64/55/64 
f 43/34/43 64/55/64 58/49/58 
f 58/49/58 44/35/44 43/34/43 
# 106 faces

#
# object base3
#

v  0.0001 50.0002 -100.0000
v  100.0000 50.0002 -100.0000
v  100.0000 0.0000 -100.0000
v  0.0000 0.0000 -100.0000
v  100.0000 0.0000 0.0000
v  0.0000 0.0000 0.0000
v  100.0000 50.0002 -0.0000
v  0.0001 50.0002 -0.0000
v  49.9358 15.3748 3.2421
v  49.9358 15.7427 2.5583
v  58.5378 11.5077 2.5583
v  58.9539 10.9349 3.2421
v  57.5181 20.8837 3.2421
v  57.1682 20.9973 2.5583
v  63.8542 27.8696 2.5583
v  64.5274 28.0884 3.2421
v  54.6219 29.7972 3.2421
v  54.4057 29.4996 2.5583
v  49.9358 37.9819 2.5583
v  49.9358 38.6899 3.2421
v  45.2497 29.7972 3.2421
v  45.4659 29.4996 2.5583
v  36.0175 27.8696 2.5583
v  35.3442 28.0884 3.2421
v  42.3535 20.8837 3.2421
v  42.7034 20.9973 2.5583
v  41.3338 11.5077 2.5583
v  40.9177 10.9349 3.2421
v  58.5378 11.5077 3.9259
v  49.9358 15.7427 3.9259
v  57.1682 20.9973 3.9259
v  63.8542 27.8696 3.9259
v  54.4057 29.4996 3.9259
v  49.9358 37.9819 3.9259
v  45.4659 29.4996 3.9259
v  36.0175 27.8696 3.9259
v  42.7034 20.9973 3.9259
v  41.3338 11.5077 3.9259
v  49.9358 23.3473 1.6882
v  49.9358 23.3473 4.7960
v  16.6159 39.7832 2.2090
v  16.6159 8.9319 2.2090
v  82.3410 8.9320 2.2090
v  82.3410 39.7833 2.2090
v  84.8248 37.6709 -0.1273
v  84.6202 37.5041 2.2090
v  84.6202 11.2112 2.2090
v  84.8248 11.0444 -0.1273
v  16.3597 39.8984 -0.1273
v  82.5972 39.8985 -0.1273
v  14.1320 11.0444 -0.1273
v  14.3367 11.2111 2.2090
v  14.3367 37.5040 2.2090
v  14.1320 37.6708 -0.1273
v  82.5972 8.8168 -0.1273
v  16.3597 8.8167 -0.1273
v  84.2679 39.3416 -0.1273
v  84.0504 39.2135 2.2090
v  14.6889 39.3415 -0.1273
v  14.9065 39.2134 2.2090
v  14.6889 9.3736 -0.1273
v  14.9065 9.5017 2.2090
v  84.2679 9.3737 -0.1273
v  84.0504 9.5018 2.2090
# 64 vertices

vn 0.0000 0.7071 -0.7071
vn 0.0000 -0.7071 -0.7071
vn 0.0000 -0.7071 0.7071
vn 0.0000 0.7071 0.7071
vn 0.0000 -1.0000 0.0000
vn -0.0000 -0.4551 -0.8905
vn 0.3260 -0.4487 -0.8321
vn 0.5878 -0.8090 0.0000
vn 0.9510 -0.3090 0.0000
vn 0.4328 -0.1406 -0.8905
vn 0.5275 0.1714 -0.8321
vn 0.9511 0.3090 0.0000
vn 0.5878 0.8090 0.0000
vn 0.2675 0.3681 -0.8905
vn 0.0000 0.5546 -0.8321
vn 0.0000 1.0000 0.0000
vn -0.5878 0.8090 0.0000
vn -0.2675 0.3681 -0.8905
vn -0.5275 0.1714 -0.8321
vn -0.9511 0.3090 0.0000
vn -0.9510 -0.3090 0.0000
vn -0.4328 -0.1406 -0.8905
vn -0.3260 -0.4487 -0.8321
vn -0.5878 -0.8090 0.0000
vn 0.3260 -0.4487 0.8321
vn -0.0000 -0.4550 0.8905
vn 0.4328 -0.1406 0.8905
vn 0.5275 0.1714 0.8321
vn 0.2675 0.3681 0.8905
vn -0.0000 0.5546 0.8321
vn -0.2675 0.3681 0.8905
vn -0.5275 0.1714 0.8321
vn -0.4328 -0.1406 0.8905
vn -0.3260 -0.4487 0.8321
vn 0.0000 -0.0000 -1.0000
vn 0.0000 -0.0000 1.0000
vn -0.1077 0.7095 0.6964
vn -0.1077 -0.7095 0.6964
vn 0.1077 -0.7095 0.6964
vn 0.1077 0.7095 0.6964
vn 0.9814 0.1650 0.0978
vn 0.6979 0.1091 0.7079
vn 0.6979 -0.1091 0.7079
vn 0.9814 -0.1650 0.0977
vn -0.1697 0.9832 0.0671
vn 0.1697 0.9832 0.0671
vn -0.9814 -0.1649 0.0977
vn -0.6979 -0.1091 0.7079
vn -0.6979 0.1091 0.7079
vn -0.9814 0.1650 0.0977
vn 0.1697 -0.9832 0.0671
vn -0.1697 -0.9832 0.0671
vn 0.7084 0.6981 0.1042
vn 0.5284 0.5369 0.6577
vn -0.7084 0.6981 0.1042
vn -0.5284 0.5369 0.6577
vn -0.7084 -0.6981 0.1042
vn -0.5284 -0.5369 0.6577
vn 0.7084 -0.6981 0.1042
vn 0.5284 -0.5369 0.6577
# 60 vertex normals

vt 0.2755 0.5099 0.0000
vt 0.4655 0.5099 0.0000
vt 0.4655 0.9932 0.0000
vt 0.2755 0.9932 0.0000
vt 0.2578 0.5790 0.0000
vt 0.2578 0.5086 0.0000
vt 0.1867 0.5086 0.0000
vt 0.1867 0.5790 0.0000
vt 0.3151 0.4897 0.0000
vt 0.5513 0.4897 0.0000
vt 0.5513 0.2486 0.0000
vt 0.3151 0.2486 0.0000
vt 0.4795 0.6002 0.0000
vt 0.9959 0.6002 0.0000
vt 0.9959 0.9043 0.0000
vt 0.4795 0.9043 0.0000
vt 0.0188 0.5933 0.0000
vt 0.0188 0.6028 0.0000
vt 0.1450 0.5378 0.0000
vt 0.1610 0.5206 0.0000
vt 0.1450 0.6830 0.0000
vt 0.1315 0.6888 0.0000
vt 0.2237 0.8142 0.0000
vt 0.2458 0.8243 0.0000
vt 0.1037 0.8279 0.0000
vt 0.0965 0.8148 0.0000
vt 0.0188 0.9567 0.0000
vt 0.0188 0.9820 0.0000
vt 0.0188 0.6926 0.0000
vt 0.0213 0.4594 0.0000
vt 0.2828 0.4594 0.0000
vt 0.2828 0.0382 0.0000
vt 0.0213 0.0382 0.0000
vt 0.0331 0.0094 0.0000
vt 0.0349 0.0241 0.0000
vt 0.2681 0.0241 0.0000
vt 0.2701 0.0094 0.0000
vt 0.0067 0.4618 0.0000
vt 0.0067 0.0364 0.0000
vt 0.2711 0.4882 0.0000
vt 0.2693 0.4735 0.0000
vt 0.0361 0.4735 0.0000
vt 0.0341 0.4882 0.0000
vt 0.2975 0.0358 0.0000
vt 0.2975 0.4612 0.0000
vt 0.0164 0.0172 0.0000
vt 0.0242 0.0276 0.0000
vt 0.0148 0.4785 0.0000
vt 0.0254 0.4700 0.0000
vt 0.2878 0.4804 0.0000
vt 0.2800 0.4700 0.0000
vt 0.2893 0.0191 0.0000
vt 0.2787 0.0276 0.0000
# 53 texture coords

g base3
usemtl Material__16
s 1
f 65/56/65 66/57/65 67/58/66 
f 67/58/66 68/59/66 65/56/65 
f 67/60/66 69/61/67 70/62/67 
f 70/62/67 68/63/66 67/60/66 
f 70/64/67 69/65/67 71/66/68 
f 71/66/68 72/67/68 70/64/67 
f 71/68/68 66/69/65 65/70/65 
f 65/70/65 72/71/68 71/68/68 
f 73/72/69 74/73/70 75/74/71 
f 75/74/71 76/75/72 73/72/69 
f 77/76/73 76/75/72 75/74/71 
f 75/74/71 78/77/74 77/76/73 
f 77/76/73 78/77/74 79/78/75 
f 79/78/75 80/79/76 77/76/73 
f 81/80/77 80/79/76 79/78/75 
f 79/78/75 82/81/78 81/80/77 
f 81/80/77 82/81/78 83/82/79 
f 83/82/79 84/83/80 81/80/77 
f 85/80/81 84/83/80 83/82/79 
f 83/82/79 86/81/82 85/80/81 
f 85/80/81 86/81/82 87/78/83 
f 87/78/83 88/79/84 85/80/81 
f 89/76/85 88/79/84 87/78/83 
f 87/78/83 90/77/86 89/76/85 
f 89/76/85 90/77/86 91/74/87 
f 91/74/87 92/75/88 89/76/85 
f 73/72/69 92/75/88 91/74/87 
f 91/74/87 74/73/70 73/72/69 
f 93/74/89 94/73/90 73/72/69 
f 73/72/69 76/75/72 93/74/89 
f 93/74/89 76/75/72 77/76/73 
f 77/76/73 95/77/91 93/74/89 
f 96/78/92 95/77/91 77/76/73 
f 77/76/73 80/79/76 96/78/92 
f 96/78/92 80/79/76 81/80/77 
f 81/80/77 97/81/93 96/78/92 
f 98/82/94 97/81/93 81/80/77 
f 81/80/77 84/83/80 98/82/94 
f 98/82/94 84/83/80 85/80/81 
f 85/80/81 99/81/95 98/82/94 
f 100/78/96 99/81/95 85/80/81 
f 85/80/81 88/79/84 100/78/96 
f 100/78/96 88/79/84 89/76/85 
f 89/76/85 101/77/97 100/78/96 
f 102/74/98 101/77/97 89/76/85 
f 89/76/85 92/75/88 102/74/98 
f 102/74/98 92/75/88 73/72/69 
f 73/72/69 94/73/90 102/74/98 
f 75/74/71 74/73/70 103/84/99 
f 78/77/74 75/74/71 103/84/99 
f 79/78/75 78/77/74 103/84/99 
f 82/81/78 79/78/75 103/84/99 
f 83/82/79 82/81/78 103/84/99 
f 86/81/82 83/82/79 103/84/99 
f 87/78/83 86/81/82 103/84/99 
f 90/77/86 87/78/83 103/84/99 
f 91/74/87 90/77/86 103/84/99 
f 74/73/70 91/74/87 103/84/99 
f 94/73/90 93/74/89 104/84/100 
f 93/74/89 95/77/91 104/84/100 
f 95/77/91 96/78/92 104/84/100 
f 96/78/92 97/81/93 104/84/100 
f 97/81/93 98/82/94 104/84/100 
f 98/82/94 99/81/95 104/84/100 
f 99/81/95 100/78/96 104/84/100 
f 100/78/96 101/77/97 104/84/100 
f 101/77/97 102/74/98 104/84/100 
f 102/74/98 94/73/90 104/84/100 
f 105/85/101 106/86/102 107/87/103 
f 107/87/103 108/88/104 105/85/101 
f 109/89/105 110/90/106 111/91/107 
f 111/91/107 112/92/108 109/89/105 
f 113/93/109 105/85/101 108/88/104 
f 108/88/104 114/94/110 113/93/109 
f 115/95/111 116/96/112 117/97/113 
f 117/97/113 118/98/114 115/95/111 
f 119/99/115 107/87/103 106/86/102 
f 106/86/102 120/100/116 119/99/115 
f 110/90/106 109/89/105 121/101/117 
f 121/101/117 122/102/118 110/90/106 
f 105/85/101 113/93/109 123/103/119 
f 123/103/119 124/104/120 105/85/101 
f 116/96/112 115/95/111 125/105/121 
f 125/105/121 126/106/122 116/96/112 
f 107/87/103 119/99/115 127/107/123 
f 127/107/123 128/108/124 107/87/103 
f 122/102/118 121/101/117 114/94/110 
f 114/94/110 108/88/104 122/102/118 
f 124/104/120 123/103/119 118/98/114 
f 118/98/114 117/97/113 124/104/120 
f 126/106/122 125/105/121 120/100/116 
f 120/100/116 106/86/102 126/106/122 
f 128/108/124 127/107/123 112/92/108 
f 112/92/108 111/91/107 128/108/124 
f 105/85/101 124/104/120 126/106/122 
f 126/106/122 106/86/102 105/85/101 
f 124/104/120 117/97/113 116/96/112 
f 116/96/112 126/106/122 124/104/120 
f 128/108/124 111/91/107 110/90/106 
f 110/90/106 122/102/118 128/108/124 
f 107/87/103 128/108/124 122/102/118 
f 122/102/118 108/88/104 107/87/103 
# 102 faces

#
# object base2
#

v  0.0000 50.0001 -100.0000
v  0.0000 -0.0000 -100.0000
v  0.0000 0.0000 0.0000
v  0.0000 50.0002 -0.0000
v  99.9999 50.0001 -100.0000
v  100.0000 -0.0000 -100.0000
v  100.0000 0.0000 0.0000
v  99.9999 50.0002 -0.0000
v  50.0642 15.3748 3.2421
v  41.0461 10.9349 3.2421
v  41.4622 11.5077 2.5583
v  50.0642 15.7427 2.5583
v  42.4819 20.8837 3.2421
v  42.8318 20.9973 2.5583
v  35.4726 28.0884 3.2421
v  36.1458 27.8696 2.5583
v  45.3781 29.7972 3.2421
v  45.5943 29.4996 2.5583
v  50.0642 38.6899 3.2421
v  50.0642 37.9819 2.5583
v  54.7503 29.7972 3.2421
v  54.5341 29.4996 2.5583
v  64.6558 28.0884 3.2421
v  63.9825 27.8696 2.5583
v  57.6465 20.8837 3.2421
v  57.2966 20.9973 2.5583
v  59.0823 10.9349 3.2421
v  58.6662 11.5077 2.5583
v  41.4622 11.5077 3.9259
v  50.0642 15.7427 3.9259
v  42.8318 20.9973 3.9259
v  36.1458 27.8696 3.9259
v  45.5943 29.4996 3.9259
v  50.0642 37.9819 3.9259
v  54.5341 29.4996 3.9259
v  63.9825 27.8696 3.9259
v  57.2966 20.9973 3.9259
v  58.6662 11.5077 3.9259
v  50.0642 23.3473 1.6882
v  50.0642 23.3473 4.7960
v  83.3841 39.7832 2.2090
v  17.6590 39.7833 2.2090
v  17.6590 8.9320 2.2090
v  83.3841 8.9319 2.2090
v  15.1752 37.6709 -0.1273
v  15.1752 11.0444 -0.1273
v  15.3798 11.2112 2.2090
v  15.3798 37.5041 2.2090
v  83.6403 39.8984 -0.1273
v  17.4028 39.8985 -0.1273
v  85.8680 11.0444 -0.1273
v  85.8680 37.6708 -0.1273
v  85.6633 37.5040 2.2090
v  85.6633 11.2111 2.2090
v  17.4028 8.8168 -0.1273
v  83.6403 8.8167 -0.1273
v  15.9496 39.2135 2.2090
v  15.7321 39.3416 -0.1273
v  85.0935 39.2134 2.2090
v  85.3111 39.3415 -0.1273
v  85.0935 9.5017 2.2090
v  85.3111 9.3736 -0.1273
v  15.9496 9.5018 2.2090
v  15.7321 9.3737 -0.1273
# 64 vertices

vn -0.5774 0.5774 -0.5774
vn -0.5774 -0.5774 -0.5774
vn -0.5774 -0.5774 0.5774
vn -0.5774 0.5774 0.5774
vn 0.0000 0.7071 -0.7071
vn 0.0000 -0.7071 -0.7071
vn 0.0000 -0.7071 0.7071
vn 0.0000 0.7071 0.7071
vn -0.0000 -1.0000 0.0000
vn -0.5878 -0.8090 0.0000
vn -0.3260 -0.4487 -0.8321
vn 0.0000 -0.4551 -0.8905
vn -0.9510 -0.3090 0.0000
vn -0.4328 -0.1406 -0.8905
vn -0.9511 0.3090 0.0000
vn -0.5275 0.1714 -0.8321
vn -0.5878 0.8090 0.0000
vn -0.2675 0.3681 -0.8905
vn 0.0000 1.0000 0.0000
vn 0.0000 0.5546 -0.8321
vn 0.5878 0.8090 0.0000
vn 0.2675 0.3681 -0.8905
vn 0.9511 0.3090 0.0000
vn 0.5275 0.1714 -0.8321
vn 0.9510 -0.3090 0.0000
vn 0.4328 -0.1406 -0.8905
vn 0.5878 -0.8090 0.0000
vn 0.3260 -0.4487 -0.8321
vn -0.3260 -0.4487 0.8321
vn 0.0000 -0.4550 0.8905
vn -0.4328 -0.1406 0.8905
vn -0.5275 0.1714 0.8321
vn -0.2675 0.3681 0.8905
vn -0.0000 0.5546 0.8321
vn 0.2675 0.3681 0.8905
vn 0.5275 0.1714 0.8321
vn 0.4328 -0.1406 0.8905
vn 0.3260 -0.4487 0.8321
vn -0.0000 -0.0000 -1.0000
vn -0.0000 -0.0000 1.0000
vn 0.1077 0.7095 0.6964
vn -0.1077 0.7095 0.6964
vn -0.1077 -0.7095 0.6964
vn 0.1077 -0.7095 0.6964
vn -0.9814 0.1650 0.0978
vn -0.9814 -0.1650 0.0977
vn -0.6979 -0.1091 0.7079
vn -0.6979 0.1091 0.7079
vn 0.1697 0.9832 0.0671
vn -0.1697 0.9832 0.0671
vn 0.9814 -0.1649 0.0977
vn 0.9814 0.1650 0.0977
vn 0.6979 0.1091 0.7079
vn 0.6979 -0.1091 0.7079
vn -0.1697 -0.9832 0.0671
vn 0.1697 -0.9832 0.0671
vn -0.5284 0.5369 0.6577
vn -0.7084 0.6981 0.1042
vn 0.5284 0.5369 0.6577
vn 0.7084 0.6981 0.1042
vn 0.5284 -0.5369 0.6577
vn 0.7084 -0.6981 0.1042
vn -0.5284 -0.5369 0.6577
vn -0.7084 -0.6981 0.1042
# 64 vertex normals

vt 0.9968 0.2486 0.0000
vt 0.9968 0.4897 0.0000
vt 0.5513 0.4897 0.0000
vt 0.5513 0.2486 0.0000
vt 0.2755 0.5099 0.0000
vt 0.2755 0.9932 0.0000
vt 0.4655 0.9932 0.0000
vt 0.4655 0.5099 0.0000
vt 0.2578 0.5790 0.0000
vt 0.1867 0.5790 0.0000
vt 0.1867 0.5086 0.0000
vt 0.2578 0.5086 0.0000
vt 0.3151 0.4897 0.0000
vt 0.3151 0.2486 0.0000
vt 0.4795 0.5085 0.0000
vt 0.4795 0.9043 0.0000
vt 0.9959 0.9043 0.0000
vt 0.9959 0.5085 0.0000
vt 0.0188 0.5933 0.0000
vt 0.1610 0.5206 0.0000
vt 0.1450 0.5378 0.0000
vt 0.0188 0.6028 0.0000
vt 0.1450 0.6830 0.0000
vt 0.1315 0.6888 0.0000
vt 0.2458 0.8243 0.0000
vt 0.2237 0.8142 0.0000
vt 0.1037 0.8279 0.0000
vt 0.0965 0.8148 0.0000
vt 0.0188 0.9820 0.0000
vt 0.0188 0.9567 0.0000
vt 0.0188 0.6926 0.0000
vt 0.0213 0.4594 0.0000
vt 0.0213 0.0382 0.0000
vt 0.2828 0.0382 0.0000
vt 0.2828 0.4594 0.0000
vt 0.0331 0.0094 0.0000
vt 0.2701 0.0094 0.0000
vt 0.2681 0.0241 0.0000
vt 0.0349 0.0241 0.0000
vt 0.0067 0.4618 0.0000
vt 0.0067 0.0364 0.0000
vt 0.2711 0.4882 0.0000
vt 0.0341 0.4882 0.0000
vt 0.0361 0.4735 0.0000
vt 0.2693 0.4735 0.0000
vt 0.2975 0.0358 0.0000
vt 0.2975 0.4612 0.0000
vt 0.0242 0.0276 0.0000
vt 0.0164 0.0172 0.0000
vt 0.0254 0.4700 0.0000
vt 0.0148 0.4785 0.0000
vt 0.2800 0.4700 0.0000
vt 0.2878 0.4804 0.0000
vt 0.2787 0.0276 0.0000
vt 0.2893 0.0191 0.0000
# 55 texture coords

g base2
usemtl Material__16
s 1
f 129/109/125 130/110/126 131/111/127 
f 131/111/127 132/112/128 129/109/125 
f 133/113/129 134/114/130 130/115/126 
f 130/115/126 129/116/125 133/113/129 
f 130/117/126 134/118/130 135/119/131 
f 135/119/131 131/120/127 130/117/126 
f 135/121/131 136/122/132 132/112/128 
f 132/112/128 131/111/127 135/121/131 
f 132/123/128 136/124/132 133/125/129 
f 133/125/129 129/126/125 132/123/128 
f 137/127/133 138/128/134 139/129/135 
f 139/129/135 140/130/136 137/127/133 
f 141/131/137 142/132/138 139/129/135 
f 139/129/135 138/128/134 141/131/137 
f 141/131/137 143/133/139 144/134/140 
f 144/134/140 142/132/138 141/131/137 
f 145/135/141 146/136/142 144/134/140 
f 144/134/140 143/133/139 145/135/141 
f 145/135/141 147/137/143 148/138/144 
f 148/138/144 146/136/142 145/135/141 
f 149/135/145 150/136/146 148/138/144 
f 148/138/144 147/137/143 149/135/145 
f 149/135/145 151/133/147 152/134/148 
f 152/134/148 150/136/146 149/135/145 
f 153/131/149 154/132/150 152/134/148 
f 152/134/148 151/133/147 153/131/149 
f 153/131/149 155/128/151 156/129/152 
f 156/129/152 154/132/150 153/131/149 
f 137/127/133 140/130/136 156/129/152 
f 156/129/152 155/128/151 137/127/133 
f 157/129/153 138/128/134 137/127/133 
f 137/127/133 158/130/154 157/129/153 
f 157/129/153 159/132/155 141/131/137 
f 141/131/137 138/128/134 157/129/153 
f 160/134/156 143/133/139 141/131/137 
f 141/131/137 159/132/155 160/134/156 
f 160/134/156 161/136/157 145/135/141 
f 145/135/141 143/133/139 160/134/156 
f 162/138/158 147/137/143 145/135/141 
f 145/135/141 161/136/157 162/138/158 
f 162/138/158 163/136/159 149/135/145 
f 149/135/145 147/137/143 162/138/158 
f 164/134/160 151/133/147 149/135/145 
f 149/135/145 163/136/159 164/134/160 
f 164/134/160 165/132/161 153/131/149 
f 153/131/149 151/133/147 164/134/160 
f 166/129/162 155/128/151 153/131/149 
f 153/131/149 165/132/161 166/129/162 
f 166/129/162 158/130/154 137/127/133 
f 137/127/133 155/128/151 166/129/162 
f 139/129/135 167/139/163 140/130/136 
f 142/132/138 167/139/163 139/129/135 
f 144/134/140 167/139/163 142/132/138 
f 146/136/142 167/139/163 144/134/140 
f 148/138/144 167/139/163 146/136/142 
f 150/136/146 167/139/163 148/138/144 
f 152/134/148 167/139/163 150/136/146 
f 154/132/150 167/139/163 152/134/148 
f 156/129/152 167/139/163 154/132/150 
f 140/130/136 167/139/163 156/129/152 
f 158/130/154 168/139/164 157/129/153 
f 157/129/153 168/139/164 159/132/155 
f 159/132/155 168/139/164 160/134/156 
f 160/134/156 168/139/164 161/136/157 
f 161/136/157 168/139/164 162/138/158 
f 162/138/158 168/139/164 163/136/159 
f 163/136/159 168/139/164 164/134/160 
f 164/134/160 168/139/164 165/132/161 
f 165/132/161 168/139/164 166/129/162 
f 166/129/162 168/139/164 158/130/154 
f 169/140/165 170/141/166 171/142/167 
f 171/142/167 172/143/168 169/140/165 
f 173/144/169 174/145/170 175/146/171 
f 175/146/171 176/147/172 173/144/169 
f 177/148/173 178/149/174 170/141/166 
f 170/141/166 169/140/165 177/148/173 
f 179/150/175 180/151/176 181/152/177 
f 181/152/177 182/153/178 179/150/175 
f 183/154/179 184/155/180 172/143/168 
f 172/143/168 171/142/167 183/154/179 
f 176/147/172 185/156/181 186/157/182 
f 186/157/182 173/144/169 176/147/172 
f 169/140/165 187/158/183 188/159/184 
f 188/159/184 177/148/173 169/140/165 
f 182/153/178 189/160/185 190/161/186 
f 190/161/186 179/150/175 182/153/178 
f 171/142/167 191/162/187 192/163/188 
f 192/163/188 183/154/179 171/142/167 
f 185/156/181 170/141/166 178/149/174 
f 178/149/174 186/157/182 185/156/181 
f 187/158/183 181/152/177 180/151/176 
f 180/151/176 188/159/184 187/158/183 
f 189/160/185 172/143/168 184/155/180 
f 184/155/180 190/161/186 189/160/185 
f 191/162/187 175/146/171 174/145/170 
f 174/145/170 192/163/188 191/162/187 
f 169/140/165 172/143/168 189/160/185 
f 189/160/185 187/158/183 169/140/165 
f 187/158/183 189/160/185 182/153/178 
f 182/153/178 181/152/177 187/158/183 
f 191/162/187 185/156/181 176/147/172 
f 176/147/172 175/146/171 191/162/187 
f 171/142/167 170/141/166 185/156/181 
f 185/156/181 191/162/187 171/142/167 
# 104 faces

