# 3ds Max Wavefront OBJ Exporter v0.97b - (c)2007 guruware
# 创建的文件:07.05.2019 10:29:17

mtllib MechineWorkShop.mtl

#
# object base
#

v  100.0000 40.4562 -100.0088
v  100.0000 40.4562 -36.5453
v  100.0000 -0.0000 -36.5453
v  100.0000 0.0000 -100.0079
v  -0.0274 0.0000 -36.5453
v  -0.0274 40.4562 -36.5453
v  -0.0274 40.4562 -100.0088
v  -0.0274 0.0000 -100.0088
v  100.0000 40.4562 -1.2893
v  -0.0274 40.4562 -1.2893
v  -0.0274 0.0000 -1.2893
v  100.0000 -0.0000 -1.2893
v  0.0541 100.0185 -100.0004
v  50.0000 100.0161 -99.9912
v  100.0000 100.0185 -100.0004
v  100.0000 100.0161 -36.5335
v  5.6148 40.4562 -1.2893
v  5.6148 40.4562 -36.5453
v  0.0568 100.0161 -36.5335
v  10.3029 90.8306 -36.5453
v  89.6971 90.8306 -36.5453
v  50.0000 100.0161 -36.2217
v  89.6971 49.4184 -36.5453
v  100.0000 100.0161 -99.9912
v  100.0000 100.0161 -36.2217
v  10.3029 49.4184 -36.5453
v  84.5391 53.6298 -42.5029
v  84.5391 83.0460 -42.5029
v  15.4609 83.0460 -42.5029
v  15.4609 53.6298 -42.5029
v  63.9202 40.4562 -36.5453
v  63.9202 40.4562 -1.2893
v  0.0541 100.0161 -99.9912
v  0.0541 100.0161 -36.2217
v  53.6777 45.0504 -14.5999
v  42.8500 45.0504 -14.5999
v  42.8500 45.0504 -7.2781
v  53.6777 45.0504 -7.2781
v  53.6777 39.3080 -14.5999
v  42.8500 39.3080 -14.5999
v  42.8500 39.3080 -7.2781
v  53.6777 39.3080 -7.2781
v  41.5170 45.0504 -14.5999
v  30.6892 45.0504 -14.5999
v  30.6892 45.0504 -7.2781
v  41.5170 45.0504 -7.2781
v  41.5170 39.3080 -14.5999
v  30.6892 39.3080 -14.5999
v  30.6892 39.3080 -7.2781
v  41.5170 39.3080 -7.2781
v  29.3563 45.0504 -14.5999
v  18.5285 45.0504 -14.5999
v  18.5285 45.0504 -7.2781
v  29.3563 45.0504 -7.2781
v  29.3563 39.3080 -14.5999
v  18.5285 39.3080 -14.5999
v  18.5285 39.3080 -7.2781
v  29.3563 39.3080 -7.2781
v  29.3563 45.0504 -23.9863
v  18.5285 45.0504 -23.9863
v  18.5285 45.0504 -16.6646
v  29.3563 45.0504 -16.6646
v  29.3563 39.3080 -23.9863
v  18.5285 39.3080 -23.9863
v  18.5285 39.3080 -16.6646
v  29.3563 39.3080 -16.6646
v  17.1955 45.0504 -23.9863
v  6.3678 45.0504 -23.9863
v  6.3678 45.0504 -16.6646
v  17.1955 45.0504 -16.6646
v  17.1955 39.3080 -23.9863
v  6.3678 39.3080 -23.9863
v  6.3678 39.3080 -16.6646
v  17.1955 39.3080 -16.6646
v  17.1956 45.0504 -33.3728
v  6.3678 45.0504 -33.3728
v  6.3678 45.0504 -26.0511
v  17.1955 45.0504 -26.0511
v  17.1956 39.3080 -33.3728
v  6.3678 39.3080 -33.3728
v  6.3678 39.3080 -26.0511
v  17.1955 39.3080 -26.0511
v  41.5170 45.0504 -23.9863
v  30.6892 45.0504 -23.9863
v  30.6892 45.0504 -16.6646
v  41.5170 45.0504 -16.6646
v  41.5170 39.3080 -23.9863
v  30.6892 39.3080 -23.9863
v  30.6892 39.3080 -16.6646
v  41.5170 39.3080 -16.6646
v  17.1955 45.0504 -14.5999
v  6.3678 45.0504 -14.5999
v  6.3678 45.0504 -7.2781
v  17.1955 45.0504 -7.2781
v  17.1955 39.3080 -14.5999
v  6.3678 39.3080 -14.5999
v  6.3678 39.3080 -7.2781
v  17.1955 39.3080 -7.2781
v  82.9720 37.6597 -8.2300
v  90.9940 37.6597 -11.5527
v  90.9940 46.2073 -11.5527
v  82.9720 46.2073 -8.2300
v  94.3168 37.6597 -19.5747
v  94.3167 46.2073 -19.5747
v  90.9940 37.6597 -27.5966
v  90.9940 46.2073 -27.5966
v  82.9720 37.6597 -30.9194
v  82.9720 46.2073 -30.9194
v  74.9501 37.6597 -27.5966
v  74.9501 46.2073 -27.5966
v  71.6273 37.6597 -19.5747
v  71.6273 46.2073 -19.5747
v  74.9501 37.6597 -11.5527
v  74.9501 46.2073 -11.5527
v  82.9720 46.2073 -19.5747
v  65.8385 45.0504 -14.5999
v  55.0107 45.0504 -14.5999
v  55.0107 45.0504 -7.2781
v  65.8385 45.0504 -7.2781
v  65.8385 39.3080 -14.5999
v  55.0107 39.3080 -14.5999
v  55.0107 39.3080 -7.2781
v  65.8385 39.3080 -7.2781
v  65.8385 45.0504 -23.9863
v  55.0107 45.0504 -23.9863
v  55.0107 45.0504 -16.6646
v  65.8385 45.0504 -16.6646
v  65.8385 39.3080 -23.9863
v  55.0107 39.3080 -23.9863
v  55.0107 39.3080 -16.6646
v  65.8385 39.3080 -16.6646
v  53.6778 45.0504 -23.9863
v  42.8500 45.0504 -23.9863
v  42.8500 45.0504 -16.6646
v  53.6778 45.0504 -16.6646
v  53.6777 39.3080 -23.9863
v  42.8500 39.3080 -23.9863
v  42.8500 39.3080 -16.6646
v  53.6777 39.3080 -16.6646
v  53.6777 45.0504 -33.3728
v  42.8500 45.0504 -33.3728
v  42.8500 45.0504 -26.0511
v  53.6777 45.0504 -26.0511
v  53.6777 39.3080 -33.3728
v  42.8500 39.3080 -33.3728
v  42.8500 39.3080 -26.0511
v  53.6777 39.3080 -26.0511
v  41.5170 45.0504 -33.3728
v  30.6892 45.0504 -33.3728
v  30.6892 45.0504 -26.0511
v  41.5170 45.0504 -26.0511
v  41.5170 39.3080 -33.3728
v  30.6892 39.3080 -33.3728
v  30.6892 39.3080 -26.0511
v  41.5170 39.3080 -26.0511
v  29.3563 45.0504 -33.3728
v  18.5285 45.0504 -33.3728
v  18.5285 45.0504 -26.0511
v  29.3563 45.0504 -26.0511
v  29.3563 39.3080 -33.3728
v  18.5285 39.3080 -33.3728
v  18.5285 39.3080 -26.0511
v  29.3563 39.3080 -26.0511
v  65.8385 45.0504 -33.3728
v  55.0107 45.0504 -33.3728
v  55.0107 45.0504 -26.0511
v  65.8385 45.0504 -26.0511
v  65.8385 39.3080 -33.3728
v  55.0107 39.3080 -33.3728
v  55.0107 39.3080 -26.0511
v  65.8385 39.3080 -26.0511
v  88.5392 15.5065 -0.0000
v  88.5392 21.5989 -0.5080
v  84.3371 19.6873 -0.5080
v  94.7798 21.7471 -3.4639
v  88.5392 24.3320 -3.4639
v  92.7098 19.7306 -0.5080
v  79.7136 15.5065 -3.4639
v  82.2986 9.2659 -3.4639
v  84.3195 11.3383 -0.5080
v  82.4467 15.5065 -0.5080
v  92.7274 11.2951 -0.5080
v  94.6316 15.5065 -0.5080
v  82.2986 21.7471 -3.4639
v  97.3647 15.5065 -3.4639
v  94.7798 9.2659 -3.4639
v  88.5392 9.4140 -0.5080
v  88.5392 6.6809 -3.4639
# 188 vertices

vn 0.7071 0.0001 -0.7071
vn 0.9487 -0.0000 0.3162
vn 0.7071 -0.7071 0.0000
vn 0.5774 -0.5774 -0.5773
vn -0.7071 -0.7071 0.0000
vn -0.9488 0.0004 0.3160
vn -0.7072 0.0005 -0.7070
vn -0.5773 -0.5773 -0.5774
vn 0.7071 0.0000 0.7071
vn -0.7071 0.0000 0.7071
vn -0.5774 -0.5774 0.5774
vn 0.5774 -0.5774 0.5774
vn -0.7068 0.0012 -0.7074
vn 0.0001 0.0004 -1.0000
vn 0.7079 -0.0028 0.7063
vn -0.0000 1.0000 -0.0000
vn -0.0000 1.0000 0.0000
vn -0.7067 -0.0022 0.7075
vn 0.0976 -0.1077 0.9894
vn -0.0954 -0.1115 0.9892
vn -0.0053 -0.0582 0.9983
vn -0.1344 0.1284 0.9826
vn 0.0000 1.0000 -0.0000
vn 0.0000 1.0000 0.0000
vn 0.1345 0.1283 0.9826
vn -0.3242 0.3714 0.8700
vn -0.3407 -0.2395 0.9092
vn 0.3407 -0.2395 0.9092
vn 0.3242 0.3714 0.8700
vn 0.5774 0.5774 -0.5774
vn -0.5774 0.5774 -0.5774
vn -0.5774 0.5774 0.5774
vn 0.5774 0.5774 0.5774
vn 0.7071 0.0000 -0.7071
vn -0.7071 0.0000 -0.7071
vn 0.7071 -0.0000 -0.7071
vn 0.7071 -0.0000 0.7071
vn 0.5774 0.5774 -0.5773
vn 0.5773 0.5774 0.5774
vn -0.0000 0.0000 1.0000
vn 0.5490 0.6303 0.5490
vn -0.0000 0.6303 0.7764
vn 1.0000 0.0000 0.0000
vn 0.7764 0.6303 0.0000
vn 0.5490 0.6303 -0.5490
vn -0.0000 0.0000 -1.0000
vn -0.0000 0.6303 -0.7764
vn -0.5490 0.6303 -0.5490
vn -1.0000 0.0000 -0.0000
vn -0.7764 0.6303 -0.0000
vn -0.5490 0.6303 0.5490
vn 0.5774 0.5773 0.5774
vn -0.0077 0.5074 0.8616
vn -0.3493 0.3482 0.8699
vn 0.5121 0.5117 0.6899
vn -0.0054 0.7294 0.6841
vn 0.3428 0.3469 0.8730
vn -0.7255 0.0004 0.6883
vn -0.5043 -0.5061 0.6997
vn -0.3503 -0.3476 0.8697
vn -0.5102 0.0007 0.8601
vn 0.3488 -0.3500 0.8694
vn 0.5071 -0.0065 0.8618
vn -0.5046 0.5053 0.7001
vn 0.7297 -0.0050 0.6838
vn 0.5063 -0.5055 0.6986
vn -0.0018 -0.5104 0.8599
vn -0.0009 -0.7250 0.6887
# 68 vertex normals

vt 0.0082 0.2114 0.0000
vt 0.3256 0.2114 0.0000
vt 0.3256 0.0119 0.0000
vt 0.0082 0.0119 0.0000
vt 0.1032 0.5516 0.0000
vt 0.1032 0.6590 0.0000
vt 0.0504 0.6590 0.0000
vt 0.0504 0.5516 0.0000
vt 0.9901 0.2112 0.0000
vt 0.5155 0.2112 0.0000
vt 0.5155 0.0123 0.0000
vt 0.9901 0.0124 0.0000
vt 0.5437 0.2276 0.0000
vt 0.5437 0.5517 0.0000
vt 0.3504 0.5517 0.0000
vt 0.3504 0.3896 0.0000
vt 0.3504 0.2276 0.0000
vt 0.0082 0.5051 0.0000
vt 0.3256 0.5051 0.0000
vt 0.3772 0.5630 0.0000
vt 0.3772 0.7091 0.0000
vt 0.3350 0.7091 0.0000
vt 0.3350 0.5630 0.0000
vt 0.6744 0.2276 0.0000
vt 0.6744 0.5517 0.0000
vt 0.5020 0.2114 0.0000
vt 0.5020 0.0119 0.0000
vt 0.1500 0.5516 0.0000
vt 0.1500 0.6590 0.0000
vt 0.0081 0.6999 0.0000
vt 0.0405 0.6707 0.0000
vt 0.2904 0.6706 0.0000
vt 0.1655 0.6998 0.0000
vt 0.3228 0.6997 0.0000
vt 0.2904 0.5406 0.0000
vt 0.3228 0.5124 0.0000
vt 0.6964 0.5444 0.0000
vt 0.9885 0.5444 0.0000
vt 0.9885 0.4919 0.0000
vt 0.6964 0.4919 0.0000
vt 0.0404 0.5407 0.0000
vt 0.0080 0.5125 0.0000
vt 0.7252 0.7199 0.0000
vt 0.7252 0.9895 0.0000
vt 0.0047 0.9895 0.0000
vt 0.0047 0.7199 0.0000
vt 0.7369 0.5575 0.0000
vt 0.9089 0.5575 0.0000
vt 0.9089 0.5838 0.0000
vt 0.7369 0.5838 0.0000
vt 0.8253 0.6342 0.0000
vt 0.9595 0.6342 0.0000
vt 0.9595 0.6692 0.0000
vt 0.8253 0.6692 0.0000
vt 0.7458 0.6039 0.0000
vt 0.8970 0.6039 0.0000
vt 0.8970 0.6222 0.0000
vt 0.7458 0.6222 0.0000
vt 0.8255 0.6339 0.0000
vt 0.9597 0.6339 0.0000
vt 0.9597 0.6689 0.0000
vt 0.8255 0.6689 0.0000
vt 0.9854 0.2316 0.0000
vt 0.9854 0.4786 0.0000
vt 0.7070 0.4786 0.0000
vt 0.7070 0.2316 0.0000
vt 0.4137 0.5630 0.0000
vt 0.4137 0.7091 0.0000
vt 0.6963 0.5444 0.0000
vt 0.6963 0.4919 0.0000
vt 0.9883 0.4919 0.0000
vt 0.9883 0.5444 0.0000
vt 0.6370 0.6164 0.0000
vt 0.5617 0.6164 0.0000
vt 0.5617 0.5720 0.0000
vt 0.6370 0.5720 0.0000
vt 0.5320 0.7038 0.0000
vt 0.4360 0.7038 0.0000
vt 0.4360 0.6425 0.0000
vt 0.5320 0.6425 0.0000
vt 0.6641 0.6378 0.0000
vt 0.7220 0.6378 0.0000
vt 0.7220 0.6990 0.0000
vt 0.6641 0.6990 0.0000
vt 0.1612 0.6564 0.0000
vt 0.1612 0.5613 0.0000
vt 0.2147 0.5613 0.0000
vt 0.2147 0.6564 0.0000
vt 0.7403 0.6421 0.0000
vt 0.8121 0.6421 0.0000
vt 0.8121 0.6748 0.0000
vt 0.7403 0.6748 0.0000
vt 0.9287 0.5621 0.0000
vt 0.9829 0.5621 0.0000
vt 0.9829 0.6180 0.0000
vt 0.9287 0.6180 0.0000
vt 0.7364 0.6841 0.0000
vt 0.7981 0.6841 0.0000
vt 0.7981 0.7377 0.0000
vt 0.7364 0.7377 0.0000
vt 0.8630 0.6841 0.0000
vt 0.8630 0.7377 0.0000
vt 0.9282 0.6841 0.0000
vt 0.9282 0.7377 0.0000
vt 0.9906 0.6841 0.0000
vt 0.9906 0.7377 0.0000
vt 0.9913 0.7377 0.0000
vt 0.9913 0.6841 0.0000
vt 0.9958 0.8694 0.0000
vt 0.9608 0.9540 0.0000
vt 0.8763 0.9890 0.0000
vt 0.8763 0.8694 0.0000
vt 0.8763 0.7499 0.0000
vt 0.9608 0.7849 0.0000
vt 0.8763 0.9891 0.0000
vt 0.5315 0.6225 0.0000
vt 0.4449 0.6225 0.0000
vt 0.4449 0.5682 0.0000
vt 0.5315 0.5682 0.0000
vt 0.5503 0.6422 0.0000
vt 0.6355 0.6422 0.0000
vt 0.6355 0.6991 0.0000
vt 0.5503 0.6991 0.0000
vt 0.2794 0.5579 0.0000
vt 0.2794 0.6525 0.0000
vt 0.2270 0.6525 0.0000
vt 0.2270 0.5579 0.0000
vt 0.8592 0.8707 0.0000
vt 0.8599 0.9774 0.0000
vt 0.7864 0.9435 0.0000
vt 0.7726 0.9573 0.0000
vt 0.8592 0.9931 0.0000
vt 0.7870 0.9443 0.0000
vt 0.7367 0.8707 0.0000
vt 0.7726 0.7841 0.0000
vt 0.7861 0.7981 0.0000
vt 0.7525 0.8707 0.0000
vt 0.7866 0.7974 0.0000
vt 0.8599 0.7640 0.0000
vt 0.8592 0.7482 0.0000
# 140 texture coords

o base
g base
usemtl diannao
s 1
f 1/1/1 2/2/2 3/3/3 
f 3/3/3 4/4/4 1/1/1 
f 5/3/5 6/2/6 7/1/7 
f 7/1/7 8/4/8 5/3/5 
f 3/5/3 5/6/5 8/7/8 
f 8/7/8 4/8/4 3/5/3 
f 9/9/9 10/10/10 11/11/11 
f 11/11/11 12/12/12 9/9/9 
f 1/13/1 7/14/7 13/15/13 
f 1/13/1 13/15/13 14/16/14 
f 15/17/1 1/13/1 14/16/14 
f 15/18/1 16/19/15 2/2/2 
f 2/2/2 1/1/1 15/18/1 
f 17/20/16 18/21/17 6/22/16 
f 6/22/16 10/23/16 17/20/16 
f 4/24/4 8/25/8 7/14/7 
f 7/14/7 1/13/1 4/24/4 
f 9/26/9 12/27/12 3/3/3 
f 3/3/3 2/2/2 9/26/9 
f 11/27/11 10/26/10 6/2/6 
f 6/2/6 5/3/5 11/27/11 
f 12/28/12 11/29/11 5/6/5 
f 5/6/5 3/5/3 12/28/12 
f 19/30/18 20/31/19 21/32/20 
f 22/33/21 19/30/18 21/32/20 
f 16/34/15 22/33/21 21/32/20 
f 21/32/20 23/35/22 2/36/2 
f 2/36/2 16/34/15 21/32/20 
f 13/18/13 7/1/7 6/2/6 
f 6/2/6 19/19/18 13/18/13 
f 24/37/23 14/38/24 22/39/24 
f 22/39/24 25/40/23 24/37/23 
f 23/35/22 26/41/25 6/42/6 
f 6/42/6 2/36/2 23/35/22 
f 19/30/18 6/42/6 26/41/25 
f 26/41/25 20/31/19 19/30/18 
f 27/43/26 28/44/27 29/45/28 
f 29/45/28 30/46/29 27/43/26 
f 26/47/25 23/48/22 27/49/26 
f 27/49/26 30/50/29 26/47/25 
f 23/51/22 21/52/20 28/53/27 
f 28/53/27 27/54/26 23/51/22 
f 21/55/20 20/56/19 29/57/28 
f 29/57/28 28/58/27 21/55/20 
f 20/59/19 26/60/25 30/61/29 
f 30/61/29 29/62/28 20/59/19 
f 9/63/17 2/64/16 31/65/17 
f 31/65/17 32/66/17 9/63/17 
f 32/67/17 31/68/17 18/21/17 
f 18/21/17 17/20/16 32/67/17 
f 33/69/24 34/70/17 22/71/24 
f 22/71/24 14/72/24 33/69/24 
f 35/73/30 36/74/31 37/75/32 
f 37/75/32 38/76/33 35/73/30 
f 39/77/34 40/78/35 36/79/31 
f 36/79/31 35/80/30 39/77/34 
f 40/81/35 41/82/10 37/83/32 
f 37/83/32 36/84/31 40/81/35 
f 41/79/10 42/80/9 38/77/33 
f 38/77/33 37/78/32 41/79/10 
f 42/81/9 39/82/34 35/83/30 
f 35/83/30 38/84/33 42/81/9 
f 43/73/30 44/74/31 45/75/32 
f 45/75/32 46/76/33 43/73/30 
f 47/77/36 48/78/35 44/79/31 
f 44/79/31 43/80/30 47/77/36 
f 48/81/35 49/82/10 45/83/32 
f 45/83/32 44/84/31 48/81/35 
f 49/79/10 50/80/37 46/77/33 
f 46/77/33 45/78/32 49/79/10 
f 50/81/37 47/82/36 43/83/30 
f 43/83/30 46/84/33 50/81/37 
f 51/73/30 52/74/31 53/75/32 
f 53/75/32 54/76/33 51/73/30 
f 55/77/34 56/78/35 52/79/31 
f 52/79/31 51/80/30 55/77/34 
f 56/81/35 57/82/10 53/83/32 
f 53/83/32 52/84/31 56/81/35 
f 57/79/10 58/80/9 54/77/33 
f 54/77/33 53/78/32 57/79/10 
f 58/81/9 55/82/34 51/83/30 
f 51/83/30 54/84/33 58/81/9 
f 59/73/30 60/74/31 61/75/32 
f 61/75/32 62/76/33 59/73/30 
f 63/77/34 64/78/35 60/79/31 
f 60/79/31 59/80/30 63/77/34 
f 64/81/35 65/82/10 61/83/32 
f 61/83/32 60/84/31 64/81/35 
f 65/79/10 66/80/9 62/77/33 
f 62/77/33 61/78/32 65/79/10 
f 66/81/9 63/82/34 59/83/30 
f 59/83/30 62/84/33 66/81/9 
f 67/73/30 68/74/31 69/75/32 
f 69/75/32 70/76/33 67/73/30 
f 71/77/34 72/78/35 68/79/31 
f 68/79/31 67/80/30 71/77/34 
f 72/81/35 73/82/10 69/83/32 
f 69/83/32 68/84/31 72/81/35 
f 73/79/10 74/80/9 70/77/33 
f 70/77/33 69/78/32 73/79/10 
f 74/81/9 71/82/34 67/83/30 
f 67/83/30 70/84/33 74/81/9 
f 75/73/38 76/74/31 77/75/32 
f 77/75/32 78/76/39 75/73/38 
f 79/79/34 80/80/35 76/77/31 
f 76/77/31 75/78/38 79/79/34 
f 80/81/35 81/82/10 77/83/32 
f 77/83/32 76/84/31 80/81/35 
f 81/77/10 82/78/9 78/79/39 
f 78/79/39 77/80/32 81/77/10 
f 82/81/9 79/82/34 75/83/38 
f 75/83/38 78/84/39 82/81/9 
f 83/73/30 84/74/31 85/75/32 
f 85/75/32 86/76/33 83/73/30 
f 87/77/34 88/78/35 84/79/31 
f 84/79/31 83/80/30 87/77/34 
f 88/81/35 89/82/10 85/83/32 
f 85/83/32 84/84/31 88/81/35 
f 89/79/10 90/80/9 86/77/33 
f 86/77/33 85/78/32 89/79/10 
f 90/81/9 87/82/34 83/83/30 
f 83/83/30 86/84/33 90/81/9 
f 91/85/30 92/86/31 93/87/32 
f 93/87/32 94/88/33 91/85/30 
f 95/89/34 96/90/35 92/91/31 
f 92/91/31 91/92/30 95/89/34 
f 96/93/35 97/94/10 93/95/32 
f 93/95/32 92/96/31 96/93/35 
f 97/89/10 98/90/9 94/91/33 
f 94/91/33 93/92/32 97/89/10 
f 98/95/9 95/96/34 91/93/30 
f 91/93/30 94/94/33 98/95/9 
f 99/97/40 100/98/9 101/99/41 
f 101/99/41 102/100/42 99/97/40 
f 100/98/9 103/101/43 104/102/44 
f 104/102/44 101/99/41 100/98/9 
f 103/101/43 105/103/34 106/104/45 
f 106/104/45 104/102/44 103/101/43 
f 105/103/34 107/105/46 108/106/47 
f 108/106/47 106/104/45 105/103/34 
f 107/107/46 109/104/35 110/103/48 
f 110/103/48 108/108/47 107/107/46 
f 109/104/35 111/102/49 112/101/50 
f 112/101/50 110/103/48 109/104/35 
f 111/102/49 113/99/10 114/98/51 
f 114/98/51 112/101/50 111/102/49 
f 113/99/10 99/100/40 102/97/42 
f 102/97/42 114/98/51 113/99/10 
f 104/109/44 106/110/45 108/111/47 
f 108/111/47 115/112/23 104/109/44 
f 102/113/42 101/114/41 104/109/44 
f 104/109/44 115/112/23 102/113/42 
f 108/115/47 110/110/48 112/109/50 
f 112/109/50 115/112/23 108/115/47 
f 112/109/50 114/114/51 102/113/42 
f 102/113/42 115/112/23 112/109/50 
f 116/116/30 117/117/31 118/118/32 
f 118/118/32 119/119/33 116/116/30 
f 120/120/34 121/121/35 117/122/31 
f 117/122/31 116/123/30 120/120/34 
f 121/124/35 122/125/10 118/126/32 
f 118/126/32 117/127/31 121/124/35 
f 122/120/10 123/121/9 119/122/33 
f 119/122/33 118/123/32 122/120/10 
f 123/124/9 120/125/34 116/126/30 
f 116/126/30 119/127/33 123/124/9 
f 124/116/30 125/117/31 126/118/32 
f 126/118/32 127/119/33 124/116/30 
f 128/120/34 129/121/35 125/122/31 
f 125/122/31 124/123/30 128/120/34 
f 129/124/35 130/125/10 126/126/32 
f 126/126/32 125/127/31 129/124/35 
f 130/120/10 131/121/9 127/122/33 
f 127/122/33 126/123/32 130/120/10 
f 131/124/9 128/125/34 124/126/30 
f 124/126/30 127/127/33 131/124/9 
f 132/116/30 133/117/31 134/118/32 
f 134/118/32 135/119/33 132/116/30 
f 136/120/36 137/121/35 133/122/31 
f 133/122/31 132/123/30 136/120/36 
f 137/124/35 138/125/10 134/126/32 
f 134/126/32 133/127/31 137/124/35 
f 138/120/10 139/121/37 135/122/33 
f 135/122/33 134/123/32 138/120/10 
f 139/124/37 136/125/36 132/126/30 
f 132/126/30 135/127/33 139/124/37 
f 140/116/30 141/117/31 142/118/32 
f 142/118/32 143/119/33 140/116/30 
f 144/120/34 145/121/35 141/122/31 
f 141/122/31 140/123/30 144/120/34 
f 145/124/35 146/125/10 142/126/32 
f 142/126/32 141/127/31 145/124/35 
f 146/120/10 147/121/9 143/122/33 
f 143/122/33 142/123/32 146/120/10 
f 147/124/9 144/125/34 140/126/30 
f 140/126/30 143/127/33 147/124/9 
f 148/116/30 149/117/31 150/118/32 
f 150/118/32 151/119/33 148/116/30 
f 152/120/34 153/121/35 149/122/31 
f 149/122/31 148/123/30 152/120/34 
f 153/124/35 154/125/10 150/126/32 
f 150/126/32 149/127/31 153/124/35 
f 154/120/10 155/121/9 151/122/33 
f 151/122/33 150/123/32 154/120/10 
f 155/124/9 152/125/34 148/126/30 
f 148/126/30 151/127/33 155/124/9 
f 156/116/30 157/117/31 158/118/32 
f 158/118/32 159/119/33 156/116/30 
f 160/120/34 161/121/35 157/122/31 
f 157/122/31 156/123/30 160/120/34 
f 161/124/35 162/125/10 158/126/32 
f 158/126/32 157/127/31 161/124/35 
f 162/120/10 163/121/9 159/122/33 
f 159/122/33 158/123/32 162/120/10 
f 163/124/9 160/125/34 156/126/30 
f 156/126/30 159/127/33 163/124/9 
f 164/116/30 165/117/31 166/118/32 
f 166/118/32 167/119/52 164/116/30 
f 168/120/34 169/121/35 165/122/31 
f 165/122/31 164/123/30 168/120/34 
f 169/124/35 170/125/10 166/126/32 
f 166/126/32 165/127/31 169/124/35 
f 170/120/10 171/121/37 167/122/52 
f 167/122/52 166/123/32 170/120/10 
f 171/124/37 168/125/34 164/126/30 
f 164/126/30 167/127/52 171/124/37 
f 172/128/40 173/129/53 174/130/54 
f 175/131/55 176/132/56 173/129/53 
f 173/129/53 177/133/57 175/131/55 
f 178/134/58 179/135/59 180/136/60 
f 180/136/60 181/137/61 178/134/58 
f 172/128/40 182/138/62 183/137/63 
f 176/132/56 184/131/64 174/130/54 
f 174/130/54 173/129/53 176/132/56 
f 173/129/53 172/128/40 177/133/57 
f 172/128/40 181/137/61 180/136/60 
f 185/134/65 183/137/63 182/138/62 
f 182/138/62 186/135/66 185/134/65 
f 178/134/58 181/137/61 174/130/54 
f 174/130/54 184/131/64 178/134/58 
f 174/130/54 181/137/61 172/128/40 
f 172/128/40 183/137/63 177/133/57 
f 175/131/55 177/133/57 183/137/63 
f 183/137/63 185/134/65 175/131/55 
f 172/128/40 187/139/67 182/138/62 
f 182/138/62 187/139/67 188/140/68 
f 188/140/68 186/135/66 182/138/62 
f 188/140/68 187/139/67 180/136/60 
f 180/136/60 179/135/59 188/140/68 
f 180/136/60 187/139/67 172/128/40 
# 250 faces

