# 3ds Max Wavefront OBJ Exporter v0.97b - (c)2007 guruware
# File Created: 22.01.2021 15:49:34

mtllib ?\modern_door.mtl

#
# object lower
#

v  29.8407 79.7294 -0.0498
v  29.8363 86.8357 6.6624
v  25.3870 86.8357 6.6624
v  25.3913 79.7294 -0.0498
v  25.3870 100.0000 9.0979
v  29.8363 100.0000 9.0979
v  29.8363 87.9135 4.3886
v  29.8407 83.2442 -0.0531
v  25.3913 83.2442 -0.0531
v  25.3870 87.9134 4.3885
v  29.8363 100.0000 6.5379
v  25.3870 100.0000 6.5379
v  0.0000 100.0000 -0.0000
v  -0.0000 100.0000 -14.3711
v  -0.0000 0.0000 -14.3711
v  0.0000 0.0000 0.0000
v  100.0000 0.0000 -14.3711
v  100.0000 100.0000 -14.3711
v  100.0000 100.0000 -0.0000
v  100.0000 0.0000 -0.0000
v  30.3293 0.0000 0.0000
v  30.3293 0.0000 -14.3711
v  89.6130 4.4210 -0.0000
v  30.3475 4.4210 0.0000
v  10.3870 4.4210 0.0000
v  10.3870 100.0000 -0.0000
v  89.6130 4.4210 -4.7118
v  30.3475 4.4210 -4.7118
v  10.3870 4.4210 -4.7118
v  10.3870 100.0000 -4.7118
v  24.8459 0.0000 -14.3711
v  24.8459 0.0000 0.0000
v  24.8642 4.4210 0.0000
v  24.8642 4.4210 -4.7118
v  24.8696 100.0000 -4.7118
v  30.3530 100.0000 -4.7118
v  30.3530 100.0000 -0.0000
v  30.3475 4.4210 -14.3711
v  89.6130 4.4210 -14.3711
v  10.3870 100.0000 -14.3711
v  10.3870 4.4210 -14.3711
v  30.3475 4.4210 -9.6593
v  89.6130 4.4210 -9.6593
v  10.3870 100.0000 -9.6593
v  10.3870 4.4210 -9.6593
v  24.8642 4.4210 -14.3711
v  24.8642 4.4210 -9.6593
v  24.8696 100.0000 -9.6593
v  30.3530 100.0000 -14.3711
v  30.3530 100.0000 -9.6593
v  89.6130 100.0000 -4.7118
v  89.6130 100.0000 -0.0000
v  24.8696 100.0000 -0.0000
v  89.6130 100.0000 -9.6593
v  89.6130 100.0000 -14.3711
v  24.8696 100.0000 -14.3711
# 56 vertices

vn 0.0000 -0.6867 0.7270
vn 0.0000 -0.1819 0.9833
vn -0.0000 -0.1819 0.9833
vn 0.0000 0.6892 -0.7245
vn 0.0000 0.1751 -0.9846
vn -1.0000 -0.0002 -0.0002
vn -1.0000 -0.0003 -0.0002
vn -1.0000 -0.0001 -0.0006
vn -1.0000 -0.0000 -0.0007
vn 1.0000 0.0001 0.0007
vn 1.0000 0.0000 0.0010
vn 1.0000 0.0002 0.0002
vn 1.0000 0.0002 0.0001
vn 1.0000 0.0000 -0.0000
vn -1.0000 0.0000 -0.0000
vn -1.0000 0.0000 0.0000
vn -0.7071 -0.7071 0.0000
vn 0.7071 -0.7071 -0.0000
vn 0.0000 -1.0000 -0.0000
vn 0.0000 0.0000 1.0000
vn 0.0000 -0.0000 1.0000
vn -0.0000 0.0000 1.0000
vn 0.0000 1.0000 -0.0000
vn 1.0000 -0.0000 -0.0000
vn 1.0000 -0.0001 -0.0000
vn -0.0000 0.0000 -1.0000
vn -0.0000 -0.0000 -1.0000
vn 0.0000 -0.0000 -1.0000
vn 0.0000 0.0000 -1.0000
vn -1.0000 0.0001 0.0000
vn -1.0000 0.0001 -0.0000
# 31 vertex normals

vt 0.0151 0.0119 0.0000
vt 0.0152 0.1933 0.0000
vt 0.1143 0.1933 0.0000
vt 0.1142 0.0119 0.0000
vt 0.1144 0.4180 0.0000
vt 0.0152 0.4180 0.0000
vt 0.2274 0.6159 0.0000
vt 0.2273 0.7815 0.0000
vt 0.2773 0.7815 0.0000
vt 0.2774 0.6159 0.0000
vt 0.2274 0.4180 0.0000
vt 0.2774 0.4180 0.0000
vt 0.1218 0.1933 0.0000
vt 0.2178 0.1933 0.0000
vt 0.2178 0.0119 0.0000
vt 0.1218 0.0119 0.0000
vt 0.1218 0.4180 0.0000
vt 0.2178 0.4180 0.0000
vt 0.3366 0.5107 0.0000
vt 0.2878 0.5107 0.0000
vt 0.2878 0.0049 0.0000
vt 0.3366 0.0049 0.0000
vt 0.0142 0.7947 0.0000
vt 0.0142 0.8428 0.0000
vt 0.2007 0.8428 0.0000
vt 0.2007 0.7947 0.0000
vt 0.7777 0.0058 0.0000
vt 0.3454 0.0058 0.0000
vt 0.4029 0.0263 0.0000
vt 0.7777 0.0263 0.0000
vt 0.9370 0.0263 0.0000
vt 0.9360 0.5105 0.0000
vt 0.9933 0.5105 0.0000
vt 0.9933 0.0058 0.0000
vt 0.4273 0.0401 0.0000
vt 0.7540 0.0401 0.0000
vt 0.9119 0.0401 0.0000
vt 0.9109 0.5102 0.0000
vt 0.2819 0.7947 0.0000
vt 0.2154 0.7947 0.0000
vt 0.2154 0.8428 0.0000
vt 0.2819 0.8428 0.0000
vt 0.8121 0.0058 0.0000
vt 0.8121 0.0263 0.0000
vt 0.8333 0.0401 0.0000
vt 0.8326 0.5102 0.0000
vt 0.7536 0.5102 0.0000
vt 0.7777 0.5105 0.0000
vt 0.4277 0.5102 0.0000
vt 0.3454 0.5105 0.0000
vt 0.4036 0.5105 0.0000
vt 0.8121 0.5105 0.0000
# 52 texture coords

g lower
usemtl Material__60
s 1
f 1/1/1 2/2/1 3/3/1 
f 3/3/1 4/4/1 1/1/1 
s off
f 5/5/2 3/3/2 2/2/2 
f 2/2/3 6/6/3 5/5/3 
s 1
f 7/7/4 8/8/4 9/9/4 
f 9/9/4 10/10/4 7/7/4 
s off
f 11/11/5 7/7/5 10/10/5 
f 10/10/5 12/12/5 11/11/5 
s 2
f 3/13/6 10/14/7 9/15/8 
f 9/15/8 4/16/9 3/13/6 
f 1/15/10 8/16/11 7/13/12 
f 7/13/12 2/14/13 1/15/10 
f 2/14/13 7/13/12 11/17/14 
f 11/17/14 6/18/14 2/14/13 
f 5/17/15 12/18/15 10/14/7 
f 10/14/7 3/13/6 5/17/15 
s 1
f 13/19/16 14/20/16 15/21/17 
f 15/21/17 16/22/17 13/19/16 
f 17/21/18 18/20/14 19/19/14 
f 19/19/14 20/22/18 17/21/18 
f 17/23/18 20/24/18 21/25/19 
f 21/25/19 22/26/19 17/23/18 
s off
f 21/27/20 20/28/20 23/29/20 
f 23/29/21 24/30/21 21/27/21 
f 25/31/20 26/32/20 13/33/20 
f 13/33/22 16/34/22 25/31/22 
f 24/30/23 23/29/23 27/35/23 
f 27/35/23 28/36/23 24/30/23 
f 29/37/24 30/38/24 26/32/24 
f 26/32/24 25/31/24 29/37/24 
s 1
f 15/39/17 31/40/19 32/41/19 
f 32/41/19 16/42/17 15/39/17 
s off
f 32/43/20 33/44/20 25/31/20 
f 25/31/20 16/34/20 32/43/20 
f 25/31/23 33/44/23 34/45/23 
f 34/45/23 29/37/23 25/31/23 
s 1
f 35/46/20 30/38/20 29/37/20 
f 29/37/20 34/45/20 35/46/20 
f 22/26/19 21/25/19 32/41/19 
f 32/41/19 31/40/19 22/26/19 
s off
f 21/27/20 24/30/20 33/44/20 
f 33/44/20 32/43/20 21/27/20 
f 28/36/25 36/47/25 37/48/25 
f 37/48/25 24/30/25 28/36/25 
f 22/27/26 38/30/26 39/29/26 
f 39/29/27 17/28/27 22/27/27 
f 14/33/28 40/32/28 41/31/28 
f 41/31/28 15/34/28 14/33/28 
f 38/30/23 42/36/23 43/35/23 
f 43/35/23 39/29/23 38/30/23 
f 40/32/14 44/38/14 45/37/14 
f 45/37/14 41/31/14 40/32/14 
f 31/43/29 15/34/29 41/31/29 
f 41/31/29 46/44/29 31/43/29 
f 41/31/23 45/37/23 47/45/23 
f 47/45/23 46/44/23 41/31/23 
s 1
f 45/37/28 44/38/28 48/46/28 
f 48/46/28 47/45/28 45/37/28 
s off
f 22/27/29 31/43/29 46/44/29 
f 46/44/29 38/30/29 22/27/29 
f 49/48/25 50/47/25 42/36/25 
f 42/36/25 38/30/25 49/48/25 
s 1
f 28/36/20 27/35/20 51/49/20 
f 51/49/20 36/47/20 28/36/20 
s off
f 23/29/20 20/28/20 19/50/20 
f 19/50/20 52/51/20 23/29/20 
f 27/35/15 23/29/15 52/51/15 
f 52/51/15 51/49/15 27/35/15 
s 1
f 33/44/20 24/30/20 37/48/20 
f 37/48/20 53/52/20 33/44/20 
s off
f 34/45/30 33/44/30 53/52/30 
f 53/52/30 35/46/30 34/45/30 
s 1
f 43/35/27 42/36/27 50/47/27 
f 50/47/27 54/49/27 43/35/27 
s off
f 18/50/27 17/28/27 39/29/27 
f 39/29/28 55/51/28 18/50/28 
f 39/29/15 43/35/15 54/49/15 
f 54/49/15 55/51/15 39/29/15 
s 1
f 38/30/28 46/44/28 56/52/28 
f 56/52/28 49/48/28 38/30/28 
s off
f 46/44/31 47/45/31 48/46/31 
f 48/46/31 56/52/31 46/44/31 
# 82 faces

#
# object upper
#

v  29.8407 20.2706 -0.0498
v  25.3913 20.2706 -0.0498
v  25.3870 13.1643 6.6624
v  29.8363 13.1643 6.6624
v  25.3870 0.0000 9.0979
v  29.8363 0.0000 9.0979
v  29.8407 16.7558 -0.0531
v  29.8363 12.0865 4.3886
v  25.3870 12.0866 4.3885
v  25.3913 16.7558 -0.0531
v  29.8363 0.0000 6.5379
v  25.3870 0.0000 6.5379
v  30.3583 90.1754 -4.7118
v  30.3530 0.0000 -4.7118
v  89.6130 0.0000 -4.7118
v  89.6130 90.1754 -4.7118
v  24.8351 100.0000 -0.0000
v  0.0000 100.0000 -0.0000
v  10.3870 90.1754 -0.0000
v  24.8750 90.1754 -0.0000
v  89.6130 90.1754 -0.0000
v  89.6130 0.0000 -0.0000
v  100.0000 0.0000 -0.0000
v  100.0000 100.0000 -0.0000
v  10.3870 90.1754 -4.7118
v  24.8750 90.1754 -4.7118
v  24.8351 100.0000 -14.3711
v  -0.0000 100.0000 -14.3711
v  30.3185 100.0000 -0.0000
v  30.3583 90.1754 -0.0000
v  30.3185 100.0000 -14.3711
v  24.8696 0.0000 -0.0000
v  30.3530 0.0000 -0.0000
v  24.8696 0.0000 -4.7118
v  100.0000 100.0000 -14.3711
v  89.6130 0.0000 -9.6593
v  30.3530 0.0000 -9.6593
v  30.3583 90.1754 -9.6593
v  89.6130 90.1754 -9.6593
v  24.8750 90.1754 -14.3711
v  10.3870 90.1754 -14.3711
v  100.0000 0.0000 -14.3711
v  89.6130 0.0000 -14.3711
v  89.6130 90.1754 -14.3711
v  24.8750 90.1754 -9.6593
v  10.3870 90.1754 -9.6593
v  30.3583 90.1754 -14.3711
v  30.3530 0.0000 -14.3711
v  24.8696 0.0000 -14.3711
v  24.8696 0.0000 -9.6593
v  -0.0000 0.0000 -14.3711
v  0.0000 0.0000 -0.0000
v  10.3870 0.0000 -0.0000
v  10.3870 0.0000 -4.7118
v  10.3870 0.0000 -14.3711
v  10.3870 0.0000 -9.6593
# 56 vertices

vn 0.0000 0.6867 0.7270
vn 0.0000 0.1819 0.9833
vn -0.0000 0.1819 0.9833
vn 0.0000 -0.6892 -0.7245
vn 0.0000 -0.1751 -0.9846
vn -1.0000 0.0001 -0.0006
vn -1.0000 0.0003 -0.0002
vn -1.0000 0.0002 -0.0002
vn -1.0000 0.0000 -0.0007
vn 1.0000 -0.0002 0.0002
vn 1.0000 -0.0003 0.0002
vn 1.0000 -0.0001 0.0006
vn 1.0000 -0.0000 0.0007
vn 1.0000 0.0000 -0.0000
vn -1.0000 0.0000 -0.0000
vn 0.0000 0.0000 1.0000
vn -0.0000 0.0000 1.0000
vn 0.0000 -1.0000 -0.0000
vn -0.7071 0.7071 0.0000
vn 0.0000 1.0000 -0.0000
vn 0.0000 -0.0000 1.0000
vn -1.0000 0.0001 0.0000
vn 0.7071 0.7071 -0.0000
vn -0.0000 -0.0000 -1.0000
vn 0.0000 0.0000 -1.0000
vn 0.0000 -0.0000 -1.0000
vn -0.0000 0.0000 -1.0000
vn -1.0000 0.0001 -0.0000
vn -1.0000 0.0000 0.0000
vn 1.0000 -0.0000 -0.0000
vn 1.0000 -0.0001 -0.0000
vn 1.0000 -0.0001 0.0000
# 32 vertex normals

vt 0.0151 0.0119 0.0000
vt 0.1142 0.0119 0.0000
vt 0.1143 0.1933 0.0000
vt 0.0152 0.1933 0.0000
vt 0.1144 0.4180 0.0000
vt 0.0152 0.4180 0.0000
vt 0.2273 0.7815 0.0000
vt 0.2274 0.6159 0.0000
vt 0.2774 0.6159 0.0000
vt 0.2773 0.7815 0.0000
vt 0.2274 0.4180 0.0000
vt 0.2774 0.4180 0.0000
vt 0.2178 0.0119 0.0000
vt 0.2178 0.1933 0.0000
vt 0.1218 0.1933 0.0000
vt 0.1218 0.0119 0.0000
vt 0.1218 0.4180 0.0000
vt 0.2178 0.4180 0.0000
vt 0.7532 0.9334 0.0000
vt 0.7536 0.5102 0.0000
vt 0.4277 0.5102 0.0000
vt 0.4281 0.9334 0.0000
vt 0.8121 0.9931 0.0000
vt 0.9933 0.9931 0.0000
vt 0.9350 0.9462 0.0000
vt 0.8121 0.9462 0.0000
vt 0.4042 0.9462 0.0000
vt 0.4036 0.5105 0.0000
vt 0.3454 0.5105 0.0000
vt 0.3454 0.9931 0.0000
vt 0.9100 0.9334 0.0000
vt 0.8320 0.9334 0.0000
vt 0.2825 0.8613 0.0000
vt 0.2157 0.8613 0.0000
vt 0.2157 0.9895 0.0000
vt 0.2825 0.9895 0.0000
vt 0.7777 0.9931 0.0000
vt 0.7777 0.9462 0.0000
vt 0.2009 0.8613 0.0000
vt 0.2009 0.9895 0.0000
vt 0.8121 0.5105 0.0000
vt 0.7777 0.5105 0.0000
vt 0.8326 0.5102 0.0000
vt 0.0135 0.8613 0.0000
vt 0.0135 0.9895 0.0000
vt 0.3366 0.9952 0.0000
vt 0.2878 0.9952 0.0000
vt 0.2878 0.5107 0.0000
vt 0.3366 0.5107 0.0000
vt 0.9933 0.5105 0.0000
vt 0.9360 0.5105 0.0000
vt 0.9109 0.5102 0.0000
# 52 texture coords

g upper
usemtl Material__60
s 1
f 57/53/32 58/54/32 59/55/32 
f 59/55/32 60/56/32 57/53/32 
s off
f 60/56/33 59/55/33 61/57/33 
f 61/57/34 62/58/34 60/56/34 
s 1
f 63/59/35 64/60/35 65/61/35 
f 65/61/35 66/62/35 63/59/35 
s off
f 64/60/36 67/63/36 68/64/36 
f 68/64/36 65/61/36 64/60/36 
s 2
f 66/65/37 65/66/38 59/67/39 
f 59/67/39 58/68/40 66/65/37 
f 60/66/41 64/67/42 63/68/43 
f 63/68/43 57/65/44 60/66/41 
f 67/69/45 64/67/42 60/66/41 
f 60/66/41 62/70/45 67/69/45 
f 59/67/39 65/66/38 68/70/46 
f 68/70/46 61/69/46 59/67/39 
s 1
f 69/71/47 70/72/47 71/73/47 
f 71/73/47 72/74/47 69/71/47 
s off
f 73/75/47 74/76/47 75/77/47 
f 75/77/47 76/78/47 73/75/47 
f 77/79/47 78/80/47 79/81/47 
f 79/81/48 80/82/48 77/79/48 
f 76/78/49 75/77/49 81/83/49 
f 81/83/49 82/84/49 76/78/49 
f 72/74/46 71/73/46 78/80/46 
f 78/80/46 77/79/46 72/74/46 
s 1
f 74/85/50 73/86/51 83/87/51 
f 83/87/51 84/88/50 74/85/50 
s off
f 85/89/47 86/90/47 77/79/47 
f 77/79/52 80/82/52 85/89/52 
f 77/79/49 86/90/49 69/71/49 
f 69/71/49 72/74/49 77/79/49 
s 1
f 85/91/51 87/92/51 83/87/51 
f 83/87/51 73/86/51 85/91/51 
s off
f 73/75/47 76/78/47 86/90/47 
f 86/90/47 85/89/47 73/75/47 
s 1
f 88/93/47 89/94/47 86/90/47 
f 86/90/47 76/78/47 88/93/47 
s off
f 82/84/53 90/95/53 88/93/53 
f 88/93/53 76/78/53 82/84/53 
s 1
f 85/91/51 80/96/54 91/97/54 
f 91/97/54 87/92/51 85/91/51 
f 92/73/55 93/72/55 94/71/55 
f 94/71/55 95/74/55 92/73/55 
s off
f 83/75/56 96/78/56 97/77/56 
f 97/77/56 84/76/56 83/75/56 
f 98/81/57 99/80/57 100/79/57 
f 100/79/57 91/82/57 98/81/57 
f 96/78/49 101/84/49 102/83/49 
f 102/83/49 97/77/49 96/78/49 
f 99/80/46 92/73/46 95/74/46 
f 95/74/46 100/79/46 99/80/46 
f 87/89/58 91/82/58 100/79/58 
f 100/79/55 103/90/55 87/89/55 
f 100/79/49 95/74/49 94/71/49 
f 94/71/49 103/90/49 100/79/49 
f 83/75/56 87/89/56 103/90/56 
f 103/90/56 96/78/56 83/75/56 
s 1
f 103/90/57 104/94/57 105/93/57 
f 105/93/57 96/78/57 103/90/57 
s off
f 105/93/59 106/95/59 101/84/59 
f 101/84/59 96/78/59 105/93/59 
s 1
f 74/98/50 84/99/50 107/100/60 
f 107/100/60 108/101/60 74/98/50 
f 91/99/54 80/98/54 79/101/45 
f 79/101/45 98/100/45 91/99/54 
s off
f 75/77/47 74/76/47 108/102/47 
f 108/102/47 109/103/47 75/77/47 
f 81/83/61 75/77/61 109/103/61 
f 109/103/61 110/104/61 81/83/61 
s 1
f 82/84/47 81/83/47 110/104/47 
f 110/104/47 90/95/47 82/84/47 
s off
f 69/71/62 86/90/62 89/94/62 
f 89/94/62 70/72/62 69/71/62 
f 107/102/55 84/76/55 97/77/55 
f 97/77/57 111/103/57 107/102/57 
f 97/77/45 102/83/45 112/104/45 
f 112/104/45 111/103/45 97/77/45 
s 1
f 102/83/57 101/84/57 106/95/57 
f 106/95/57 112/104/57 102/83/57 
s off
f 103/90/62 94/71/62 93/72/62 
f 93/72/63 104/94/63 103/90/63 
# 82 faces

