# 3ds Max Wavefront OBJ Exporter v0.97b - (c)2007 guruware
# File Created: 22.01.2021 10:35:45

mtllib ??\modern_stairs.mtl

#
# object base
#

v  99.9998 50.0000 -50.0000
v  99.9998 50.0000 0.0000
v  100.0002 -0.0000 -0.0000
v  100.0002 -0.0000 -50.0000
v  0.0002 -0.0000 -0.0000
v  -0.0002 50.0000 -0.0000
v  -0.0002 50.0000 -50.0000
v  0.0002 -0.0000 -50.0000
v  25.0804 30.0000 -50.0000
v  74.9154 30.0000 -50.0000
v  25.0803 30.0000 -0.0000
v  74.9153 30.0000 -0.0000
v  25.0983 -0.0000 -50.0000
v  25.0983 -0.0000 -0.0000
v  74.9233 -0.0000 -0.0000
v  74.9233 -0.0000 -50.0000
v  99.9998 100.0000 -100.0000
v  99.9998 100.0000 -50.0000
v  100.0002 50.0000 -50.0000
v  100.0002 50.0000 -100.0000
v  0.0002 50.0000 -50.0000
v  -0.0002 100.0000 -50.0000
v  -0.0002 100.0000 -100.0000
v  0.0002 50.0000 -100.0000
v  25.0804 80.0000 -100.0000
v  74.9154 80.0000 -100.0000
v  25.0803 80.0000 -50.0000
v  74.9153 80.0000 -50.0000
v  25.0983 50.0000 -100.0000
v  25.0983 50.0000 -50.0000
v  74.9233 50.0000 -50.0000
v  74.9233 50.0000 -100.0000
# 32 vertices

vn 1.0000 0.0000 0.0000
vn -1.0000 -0.0000 -0.0000
vn -0.0000 1.0000 -0.0000
vn 0.0000 -0.0000 -1.0000
vn -0.0000 -0.0000 1.0000
vn -0.0000 0.0000 1.0000
vn 0.0000 -1.0000 0.0000
vn -0.0000 -1.0000 -0.0000
vn -0.0000 -1.0000 0.0000
vn 1.0000 0.0006 0.0000
vn -1.0000 -0.0003 -0.0000
vn -1.0000 -0.0000 0.0000
vn -0.0000 -0.7071 0.7071
vn -0.0000 -0.7071 -0.7071
vn -0.0000 -0.7072 -0.7070
vn -0.0000 -0.7072 0.7070
vn 0.0000 -0.7071 -0.7071
vn -0.0000 -0.7070 0.7072
vn 0.0000 -0.7070 -0.7072
vn 0.0000 -1.0000 -0.0000
# 20 vertex normals

vt 0.0181 0.9804 1.4128
vt 0.4558 0.9804 0.0000
vt 0.4558 0.4465 0.0000
vt 0.0181 0.4465 1.4128
vt 0.4558 0.4465 1.4128
vt 0.4558 0.9804 1.4128
vt 0.0155 0.4299 0.0005
vt 0.0155 0.0154 0.0000
vt 0.9852 0.0154 0.0000
vt 0.9852 0.4299 0.0005
vt 0.5942 0.7654 1.4128
vt 0.4662 0.9791 1.4128
vt 0.9768 0.9791 1.4128
vt 0.8487 0.7654 1.4128
vt 0.6092 0.7613 0.0000
vt 0.6092 0.5865 0.0000
vt 0.8367 0.5865 0.9995
vt 0.8367 0.7613 0.9995
vt 0.8367 0.5865 0.0000
vt 0.6092 0.5865 0.9995
vt 0.4662 0.4449 1.4128
vt 0.5942 0.4449 1.4128
vt 0.9768 0.4449 1.4128
vt 0.8487 0.4449 1.4128
vt 0.8405 0.5783 0.0000
vt 0.6089 0.5783 0.0000
vt 0.6089 0.4406 0.9995
vt 0.8405 0.4406 0.0005
vt 0.6089 0.4406 0.0000
vt 0.8405 0.5783 1.4128
vt 0.8367 0.5865 1.4128
vt 0.8367 0.7613 1.4128
# 32 texture coords

g base
usemtl Material__46
s 4
f 1/1/1 2/2/1 3/3/1 
f 3/3/1 4/4/1 1/1/1 
f 5/5/2 6/6/2 7/1/2 
f 7/1/2 8/4/2 5/5/2 
s 2
f 7/7/3 6/8/3 2/9/3 
f 2/9/3 1/10/3 7/7/3 
s 1
f 9/11/4 7/12/4 1/13/4 
f 1/13/4 10/14/4 9/11/4 
f 11/11/5 12/14/6 2/13/5 
f 2/13/5 6/12/5 11/11/5 
s 2
f 5/15/7 8/16/8 13/17/9 
f 13/17/9 14/18/7 5/15/7 
f 4/19/7 3/18/8 15/15/7 
f 15/15/7 16/20/7 4/19/7 
s 1
f 6/12/5 5/21/5 14/22/5 
f 14/22/5 11/11/5 6/12/5 
f 3/23/5 2/13/5 12/14/6 
f 12/14/6 15/24/5 3/23/5 
s 4
f 9/25/10 11/26/10 14/27/10 
f 14/27/10 13/28/10 9/25/10 
f 16/28/11 15/29/11 12/26/11 
f 12/26/11 10/30/11 16/28/11 
s 2
f 10/31/7 12/32/7 11/15/7 
f 11/15/7 9/16/7 10/31/7 
s 1
f 1/13/4 4/23/4 16/24/4 
f 16/24/4 10/14/4 1/13/4 
f 9/11/4 13/22/4 8/21/4 
f 8/21/4 7/12/4 9/11/4 
s 4
f 17/1/1 18/2/1 19/3/1 
f 19/3/1 20/4/1 17/1/1 
f 21/5/2 22/6/2 23/1/2 
f 23/1/2 24/4/12 21/5/2 
s 2
f 23/7/3 22/8/3 18/9/3 
f 18/9/3 17/10/3 23/7/3 
s 1
f 25/11/4 23/12/4 17/13/4 
f 17/13/4 26/14/4 25/11/4 
f 27/11/5 28/14/5 18/13/5 
f 18/13/5 22/12/5 27/11/5 
f 21/15/13 24/16/14 29/17/15 
f 29/17/15 30/18/16 21/15/13 
f 20/19/17 19/18/13 31/15/18 
f 31/15/18 32/20/19 20/19/17 
f 22/12/5 21/21/13 30/22/16 
f 30/22/16 27/11/5 22/12/5 
f 19/23/13 18/13/5 28/14/5 
f 28/14/5 31/24/18 19/23/13 
s 4
f 25/25/10 27/26/10 30/27/10 
f 30/27/10 29/28/10 25/25/10 
f 32/28/11 31/29/11 28/26/11 
f 28/26/11 26/30/11 32/28/11 
s 2
f 26/31/20 28/32/20 27/15/20 
f 27/15/20 25/16/20 26/31/20 
s 1
f 17/13/4 20/23/17 32/24/19 
f 32/24/19 26/14/4 17/13/4 
f 25/11/4 29/22/15 24/21/14 
f 24/21/14 23/12/4 25/11/4 
# 56 faces

