# 3ds Max Wavefront OBJ Exporter v0.97b - (c)2007 guruware
# File Created: 06.01.2021 15:09:30

mtllib ????\modern_screen.mtl

#
# object lower
#

v  91.3137 34.0927 -52.6305
v  91.3137 34.0927 -54.5030
v  91.3127 100.0000 -54.5029
v  91.3127 100.0000 -52.6305
v  8.6963 34.0927 -54.5030
v  8.6963 34.0927 -52.6305
v  8.6883 100.0000 -52.6305
v  8.6883 100.0000 -54.5030
# 8 vertices

vn 0.7071 0.0000 0.7071
vn 0.7071 0.0000 -0.7071
vn -0.7071 -0.0001 -0.7071
vn -0.7071 -0.0001 0.7071
# 4 vertex normals

vt 0.1787 0.1530 1.4128
vt 0.1334 0.1530 1.4128
vt 0.1334 0.3394 1.4128
vt 0.1787 0.3394 1.4128
vt 0.0142 0.6243 1.4128
vt 0.4763 0.6243 1.4128
vt 0.4763 0.7714 1.4128
vt 0.0142 0.7714 1.4128
# 8 texture coords

g lower
usemtl Material__45
s 1
f 1/1/1 2/2/2 3/3/2 
f 3/3/2 4/4/1 1/1/1 
f 5/2/3 6/1/4 7/4/4 
f 7/4/4 8/3/3 5/2/3 
f 6/5/4 1/6/1 4/7/1 
f 4/7/1 7/8/4 6/5/4 
f 5/5/3 8/8/3 3/7/2 
f 3/7/2 2/6/2 5/5/3 
# 8 faces

#
# object upper
#

v  8.6805 96.4988 -54.5030
v  91.3117 96.4988 -54.5029
v  91.3127 -0.0000 -54.5029
v  8.6883 -0.0000 -54.5030
v  91.3117 96.4988 -52.6305
v  91.3127 -0.0000 -52.6305
v  8.6883 -0.0000 -52.6305
v  8.6804 96.4988 -52.6305
# 8 vertices

vn -0.7071 -0.0001 -0.7071
vn 0.7071 0.0000 -0.7071
vn 0.7071 0.0000 0.7071
vn -0.7071 -0.0001 0.7071
# 4 vertex normals

vt 0.0142 0.9836 1.4128
vt 0.4763 0.9836 1.4128
vt 0.4763 0.7714 1.4128
vt 0.0142 0.7714 1.4128
vt 0.1787 0.6085 1.4128
vt 0.1787 0.3394 1.4128
vt 0.1334 0.3394 1.4128
vt 0.1334 0.6085 1.4128
# 8 texture coords

g upper
usemtl Material__45
s 1
f 9/9/5 10/10/6 11/11/6 
f 11/11/6 12/12/5 9/9/5 
f 13/13/7 14/14/7 11/15/6 
f 11/15/6 10/16/6 13/13/7 
f 9/16/5 12/15/5 15/14/8 
f 15/14/8 16/13/8 9/16/5 
f 16/9/8 15/12/8 14/11/7 
f 14/11/7 13/10/7 16/9/8 
# 8 faces

#
# object upper1
#

v  50.0024 92.0188 -41.2291
v  50.0024 97.4951 -41.2319
v  50.0024 100.0000 -41.2291
v  0.0000 100.0000 -40.0486
v  0.0000 92.0188 -40.0486
v  99.9998 92.0188 -40.0486
v  99.9998 100.0000 -40.0486
v  31.4736 -0.0000 -43.2495
v  31.4663 96.4988 -43.2495
v  27.6711 96.4988 -43.2495
v  27.6789 -0.0000 -43.2495
v  72.3252 96.4988 -43.2495
v  68.5300 96.4988 -43.2495
v  68.5227 -0.0000 -43.2495
v  72.3174 -0.0000 -43.2495
v  21.3980 96.4988 -47.8519
v  18.3860 96.4988 -47.8519
v  18.3803 -0.0000 -47.8519
v  21.3918 -0.0000 -47.8519
v  81.6161 -0.0000 -47.8519
v  81.6103 96.4988 -47.8519
v  78.5983 96.4988 -47.8519
v  78.6045 -0.0000 -47.8519
v  0.0000 100.0000 -57.2860
v  0.0000 92.0188 -57.2860
v  50.0024 100.0000 -58.4666
v  50.0024 92.0188 -58.4666
v  99.9998 92.0188 -57.2860
v  99.9998 100.0000 -57.2860
v  50.0024 97.4951 -58.4666
v  27.6711 96.4988 -55.0654
v  27.6789 -0.0000 -55.0654
v  31.4736 -0.0000 -55.0654
v  31.4663 96.4988 -55.0654
v  72.3174 -0.0000 -55.0654
v  72.3252 96.4988 -55.0654
v  68.5300 96.4988 -55.0654
v  68.5227 -0.0000 -55.0654
v  21.3918 -0.0000 -55.0220
v  21.3980 96.4988 -55.0220
v  18.3860 96.4988 -55.0220
v  18.3803 -0.0000 -55.0220
v  78.5983 96.4988 -55.0220
v  78.6045 -0.0000 -55.0220
v  81.6161 -0.0000 -55.0220
v  81.6103 96.4988 -55.0220
# 46 vertices

vn -0.0000 0.0000 1.0000
vn -1.0000 0.0000 -0.0000
vn 0.0000 0.7125 0.7017
vn -0.5711 0.5761 0.5847
vn -0.6987 -0.0000 0.7154
vn 0.6987 0.0000 0.7154
vn 0.5711 0.5761 0.5847
vn -0.0000 -0.0000 1.0000
vn 0.0000 -0.0000 1.0000
vn -0.7071 -0.0001 0.7071
vn 0.7071 -0.0001 0.7071
vn 0.7071 -0.0000 0.7071
vn -0.7071 -0.0000 0.7071
vn -0.5835 0.5786 -0.5699
vn -0.7154 0.0000 -0.6987
vn 0.0000 0.7018 -0.7123
vn 0.0000 -1.0000 -0.0000
vn 0.7154 0.0000 -0.6987
vn 0.5835 0.5786 -0.5699
vn 0.0000 0.0000 -1.0000
vn 1.0000 0.0000 -0.0000
vn -0.7071 -0.0001 -0.7071
vn 1.0000 0.0001 0.0000
vn 0.7071 -0.0001 -0.7071
vn -1.0000 0.0001 0.0000
vn 0.7071 -0.0000 -0.7071
vn -0.7071 -0.0000 -0.7071
# 27 vertex normals

vt 0.9922 0.8511 1.4128
vt 0.9922 0.9208 1.4128
vt 0.9922 0.9904 1.4128
vt 0.6388 0.9904 1.4128
vt 0.6388 0.8511 1.4128
vt 0.9556 0.2692 0.6406
vt 0.9553 0.6089 1.4128
vt 0.9913 0.6089 0.0000
vt 0.9913 0.2692 -0.0004
vt 0.9556 0.2692 0.6417
vt 0.9913 0.2692 -0.0006
vt 0.9553 0.6089 0.0000
vt 0.9556 0.2692 0.0000
vt 0.9913 0.2692 0.0000
vt 0.6319 0.9898 1.4128
vt 0.4852 0.9898 1.4128
vt 0.4852 0.8505 1.4128
vt 0.6319 0.8505 1.4128
vt 0.7965 0.6171 0.0005
vt 0.4949 0.6171 0.0005
vt 0.4949 0.8353 0.0005
vt 0.7965 0.8353 0.0005
vt 0.9394 0.6055 1.4128
vt 0.6503 0.6055 1.4128
vt 0.6503 0.4732 0.0002
vt 0.9394 0.4732 0.0002
vt 0.8136 0.8328 1.4128
vt 0.8136 0.7049 1.4128
vt 0.9899 0.7049 1.4128
vt 0.9899 0.8328 1.4128
vt 0.0105 0.6093 1.4128
vt 0.0105 0.3953 0.5757
vt 0.1208 0.3953 0.5757
vt 0.1208 0.6093 1.4128
vt 0.1904 0.4718 1.4128
vt 0.4204 0.4718 0.5757
vt 0.4204 0.6047 0.5757
vt 0.1904 0.6047 1.4128
# 38 texture coords

g upper1
usemtl Material__45
s 1
f 17/17/9 18/18/10 19/19/11 
f 19/19/11 20/20/12 21/21/13 
f 17/17/9 19/19/11 21/21/13 
f 22/21/14 23/20/15 19/19/11 
f 17/17/9 22/21/14 19/19/11 
f 17/17/9 19/19/11 18/18/10 
f 24/22/16 25/23/17 26/24/18 
f 26/24/18 27/25/18 24/22/16 
f 28/24/19 29/23/17 30/26/17 
f 30/26/17 31/27/19 28/24/19 
f 32/24/20 33/28/17 34/29/16 
f 34/29/16 35/30/20 32/24/20 
f 36/29/17 37/28/17 38/24/21 
f 38/24/21 39/30/21 36/29/17 
f 20/31/12 40/32/22 41/33/23 
f 41/33/23 21/34/13 20/31/12 
f 40/35/22 20/36/12 19/37/11 
f 19/37/11 42/38/24 40/35/22 
s off
f 21/39/25 41/40/25 43/41/25 
f 43/41/25 17/42/25 21/39/25 
s 1
f 23/31/15 22/34/14 44/33/26 
f 44/33/26 45/32/27 23/31/15 
f 45/35/27 42/38/24 19/37/11 
f 19/37/11 23/36/15 45/35/27 
s off
f 22/39/25 17/42/25 43/41/25 
f 43/41/25 44/40/25 22/39/25 
s 1
f 41/21/23 40/20/22 42/19/24 
f 43/17/28 41/21/23 42/19/24 
f 43/17/28 42/19/24 46/18/29 
f 43/17/28 46/18/29 42/19/24 
f 42/19/24 45/20/27 44/21/26 
f 43/17/28 42/19/24 44/21/26 
f 47/43/30 48/44/30 27/45/18 
f 27/45/18 26/46/18 47/43/30 
s 2
f 25/47/31 24/48/31 49/49/31 
f 49/49/31 50/50/31 25/47/31 
s 1
f 49/26/28 48/27/30 47/24/30 
f 47/24/30 50/23/28 49/26/28 
f 28/46/19 31/45/19 51/44/32 
f 51/44/32 52/43/32 28/46/19 
s 2
f 53/50/33 54/49/33 30/48/33 
f 30/48/33 29/47/33 53/50/33 
s 1
f 52/24/32 51/25/32 54/22/28 
f 54/22/28 53/23/28 52/24/32 
f 32/43/20 35/44/20 55/45/34 
f 55/45/34 56/46/34 32/43/20 
s 2
f 57/51/33 58/52/33 34/53/33 
f 34/53/33 33/54/33 57/51/33 
s 1
f 56/24/34 55/25/34 58/22/28 
f 58/22/28 57/23/28 56/24/34 
f 59/46/35 60/45/35 39/44/21 
f 39/44/21 38/43/21 59/46/35 
s 2
f 37/54/31 36/53/31 61/52/31 
f 61/52/31 62/51/31 37/54/31 
s 1
f 61/26/28 60/27/35 59/24/35 
f 59/24/35 62/23/28 61/26/28 
# 56 faces

#
# object lower1
#

v  27.6869 34.0927 -55.0654
v  27.6869 34.0927 -43.2495
v  27.6789 100.0000 -43.2495
v  27.6789 100.0000 -55.0654
v  49.9982 37.2815 -43.2495
v  31.4807 37.2815 -43.2495
v  49.9982 34.0927 -43.2495
v  31.4807 37.2815 -55.0654
v  31.4736 100.0000 -55.0654
v  31.4736 100.0000 -43.2495
v  49.9982 37.2815 -55.0654
v  49.9982 34.0927 -55.0654
v  72.3174 100.0000 -43.2495
v  72.3094 34.0927 -43.2495
v  72.3094 34.0927 -55.0654
v  72.3174 100.0000 -55.0654
v  68.5156 37.2815 -43.2495
v  68.5227 100.0000 -55.0654
v  68.5156 37.2815 -55.0654
v  68.5227 100.0000 -43.2495
v  21.3918 100.0000 -47.8519
v  21.3855 34.0927 -47.8519
v  21.3854 34.0927 -55.0220
v  21.3918 100.0000 -55.0220
v  18.3746 37.2815 -47.8519
v  7.6902 37.2815 -47.8519
v  7.6902 34.0927 -47.8519
v  18.3803 100.0000 -55.0220
v  18.3746 37.2815 -55.0220
v  18.3803 100.0000 -47.8519
v  7.6902 37.2815 -55.0220
v  7.6902 34.0927 -55.0220
v  78.6109 34.0927 -55.0220
v  78.6109 34.0927 -47.8519
v  78.6045 100.0000 -47.8519
v  78.6045 100.0000 -55.0220
v  92.3061 37.2815 -47.8519
v  81.6217 37.2815 -47.8519
v  92.3061 34.0927 -47.8519
v  81.6217 37.2815 -55.0220
v  81.6161 100.0000 -55.0220
v  81.6161 100.0000 -47.8519
v  92.3061 37.2815 -55.0220
v  92.3061 34.0927 -55.0220
v  0.0000 -0.0000 -55.9289
v  0.0000 -0.0000 -41.6218
v  0.0000 10.2501 -41.6218
v  0.0000 10.2501 -55.9289
v  0.0000 35.1055 -41.6218
v  50.0019 35.1055 -41.6217
v  50.0019 35.1055 -55.9288
v  0.0000 35.1055 -55.9289
v  6.0685 25.6458 -41.6218
v  50.0019 25.6458 -41.6217
v  6.0776 -0.0000 -55.9289
v  6.0776 0.0000 -41.6218
v  6.0760 4.5328 -41.6218
v  6.0740 10.2501 -41.6218
v  6.0760 4.5328 -55.9289
v  6.0740 10.2501 -55.9289
v  50.0019 25.6458 -55.9289
v  6.0686 25.6458 -55.9289
v  50.0019 10.2501 -41.6218
v  50.0019 10.2501 -55.9288
v  50.0019 4.5328 -55.9288
v  50.0019 4.5328 -41.6218
v  99.9998 10.2501 -41.6217
v  99.9998 0.0000 -41.6217
v  99.9998 -0.0000 -55.9289
v  99.9998 10.2501 -55.9289
v  99.9998 35.1055 -41.6217
v  99.9998 35.1055 -55.9289
v  93.9352 25.6458 -41.6217
v  93.9261 0.0000 -41.6217
v  93.9261 -0.0000 -55.9289
v  93.9298 10.2501 -41.6217
v  93.9277 4.5328 -41.6217
v  93.9277 4.5328 -55.9289
v  93.9297 10.2501 -55.9289
v  93.9352 25.6458 -55.9289
# 80 vertices

vn -0.7071 -0.0001 -0.7071
vn -0.7071 -0.0001 0.7071
vn -0.0000 -0.0000 1.0000
vn 0.0000 -0.0000 1.0000
vn 1.0000 0.0001 0.0000
vn 0.0000 1.0000 -0.0000
vn -0.0000 0.0000 -1.0000
vn 0.0000 0.0000 -1.0000
vn 0.7071 -0.0001 0.7071
vn 0.7071 -0.0001 -0.7071
vn -1.0000 0.0001 0.0000
vn 0.0000 0.0000 1.0000
vn -1.0000 0.0000 -0.0000
vn -0.0000 0.0000 1.0000
vn 0.0000 -0.0000 -1.0000
vn 1.0000 0.0000 -0.0000
vn -0.5774 -0.5774 -0.5774
vn -0.5773 -0.5774 0.5774
vn -0.7071 0.0000 0.7071
vn -0.7071 0.0000 -0.7071
vn -0.0000 1.0000 -0.0000
vn -0.7071 -0.0000 0.7071
vn 0.0000 -0.7072 -0.7070
vn 0.0000 -0.7072 0.7070
vn 0.0000 -1.0000 -0.0000
vn 1.0000 0.0004 0.0000
vn 0.7071 0.0000 0.7071
vn 0.5774 -0.5773 0.5774
vn 0.5774 -0.5774 -0.5774
vn 0.7071 0.0000 -0.7071
vn 0.0000 1.0000 0.0000
vn -1.0000 0.0004 0.0000
# 32 vertex normals

vt 0.8136 0.6162 1.4128
vt 0.9899 0.6162 1.4128
vt 0.9899 0.7049 1.4128
vt 0.8136 0.7049 1.4128
vt 0.8209 0.0614 0.0000
vt 0.9553 0.0614 0.0000
vt 0.9913 0.0076 0.0000
vt 0.8209 0.0076 0.0005
vt 0.0105 0.2481 0.0000
vt 0.1208 0.2481 0.0000
vt 0.1208 0.3953 0.5757
vt 0.0105 0.3953 0.5757
vt 0.0105 0.1559 0.0000
vt 0.1208 0.1559 0.0000
vt 0.9913 0.2692 -0.0006
vt 0.9556 0.2692 0.6417
vt 0.9913 0.2692 -0.0004
vt 0.9556 0.2692 0.6406
vt 0.8209 0.0076 0.0000
vt 0.4204 0.4718 0.5757
vt 0.5786 0.4718 0.0000
vt 0.5786 0.6047 0.0000
vt 0.4204 0.6047 0.5757
vt 0.6302 0.6047 0.0000
vt 0.6302 0.4718 0.0000
vt 0.8209 0.0076 1.4128
vt 0.8074 0.0087 1.4128
vt 0.8072 0.0633 0.0000
vt 0.6201 0.0633 0.0000
vt 0.6203 0.0087 1.4128
vt 0.1875 0.0106 1.4128
vt 0.2947 0.0106 1.4128
vt 0.2947 0.1473 1.4128
vt 0.1875 0.1473 1.4128
vt 0.9395 0.1722 1.4128
vt 0.9395 0.3272 0.0000
vt 0.7087 0.3272 0.0000
vt 0.7087 0.1722 1.4128
vt 0.3026 0.4619 0.0000
vt 0.3806 0.3436 0.0000
vt 0.9323 0.3436 0.0000
vt 0.9323 0.4619 0.0000
vt 0.0164 0.0113 0.9995
vt 0.1795 0.0113 0.9995
vt 0.1795 0.0558 0.9995
vt 0.0164 0.0558 0.9995
vt 0.3026 0.1485 0.0000
vt 0.3026 0.0123 0.0000
vt 0.3806 0.0764 0.0000
vt 0.3806 0.1485 0.0000
vt 0.6884 0.3322 0.0000
vt 0.6884 0.1646 0.0000
vt 0.4714 0.1646 0.0000
vt 0.4714 0.3322 0.0000
vt 0.2947 0.4623 1.4128
vt 0.1875 0.4623 1.4128
vt 0.3954 0.1646 0.0000
vt 0.3954 0.3322 0.0000
vt 0.0128 0.0653 0.0000
vt 0.0128 0.1406 0.0000
vt 0.0324 0.1406 0.0000
vt 0.0324 0.0653 0.0000
vt 0.3982 0.0090 1.4128
vt 0.6107 0.0090 0.9995
vt 0.6107 0.0663 0.0001
vt 0.3982 0.0663 0.0001
vt 0.9323 0.1485 0.0000
vt 0.9322 0.0764 0.0000
vt 0.1798 0.1406 0.0000
vt 0.1798 0.0653 0.0000
vt 0.9913 0.2692 0.0000
vt 0.9556 0.2692 0.0000
vt 0.3806 0.0123 0.0000
# 73 texture coords

g lower1
usemtl Material__45
s 1
f 63/55/36 64/56/37 65/57/37 
f 65/57/37 66/58/36 63/55/36 
f 67/59/38 68/60/39 64/61/37 
f 64/61/37 69/62/38 67/59/38 
s 2
f 68/63/40 70/64/40 71/65/40 
f 71/65/40 72/66/40 68/63/40 
s 4
f 67/67/41 73/68/41 70/64/41 
f 70/64/41 68/63/41 67/67/41 
s 1
f 70/60/42 63/61/36 66/69/36 
f 66/69/36 71/70/43 70/60/42 
f 74/62/42 63/61/36 70/60/42 
f 70/60/42 73/59/42 74/62/42 
f 75/57/44 76/56/44 77/55/45 
f 77/55/45 78/58/45 75/57/44 
f 79/60/38 67/59/38 69/62/38 
f 69/62/38 76/61/44 79/60/38 
s 2
f 80/65/46 81/64/46 79/63/46 
f 79/63/46 82/66/46 80/65/46 
s 4
f 67/67/41 79/63/41 81/64/41 
f 81/64/41 73/68/41 67/67/41 
s 1
f 78/71/45 77/61/45 81/60/43 
f 81/60/43 80/72/43 78/71/45 
f 77/61/45 74/62/42 73/59/42 
f 73/59/42 81/60/43 77/61/45 
f 83/58/44 84/55/44 85/56/45 
f 85/56/45 86/57/45 83/58/44 
f 87/60/38 88/59/47 89/73/47 
f 89/73/47 84/61/44 87/60/38 
s 2
f 90/74/46 91/75/46 87/76/46 
f 87/76/46 92/77/46 90/74/46 
s 4
f 88/78/41 87/76/41 91/75/41 
f 91/75/41 93/79/41 88/78/41 
s 1
f 86/71/45 85/61/45 91/60/43 
f 91/60/43 90/72/43 86/71/45 
f 85/61/45 94/80/43 93/59/43 
f 93/59/43 91/60/43 85/61/45 
s off
f 93/81/48 94/82/48 89/83/48 
f 89/83/48 88/84/48 93/81/48 
s 1
f 95/56/36 96/55/37 97/58/37 
f 97/58/37 98/57/36 95/56/36 
f 99/59/49 100/60/49 96/61/37 
f 96/61/37 101/73/49 99/59/49 
s 2
f 100/76/40 102/75/40 103/74/40 
f 103/74/40 104/77/40 100/76/40 
s 4
f 99/78/41 105/79/41 102/75/41 
f 102/75/41 100/76/41 99/78/41 
s 1
f 102/60/50 95/61/36 98/69/36 
f 98/69/36 103/70/43 102/60/50 
f 106/80/50 95/61/36 102/60/50 
f 102/60/50 105/59/43 106/80/50 
s off
f 105/81/51 99/84/51 101/83/51 
f 101/83/51 106/82/51 105/81/51 
s 1
f 107/85/52 108/86/53 109/87/54 
f 109/87/54 110/88/55 107/85/52 
s off
f 111/89/56 112/90/56 113/91/56 
f 113/91/56 114/92/56 111/89/56 
s 1
f 111/93/57 115/94/38 116/95/38 
f 116/95/38 112/96/49 111/93/57 
f 108/97/53 107/98/52 117/99/58 
f 117/99/58 118/100/59 108/97/53 
f 109/101/54 108/102/53 119/103/47 
f 119/103/47 120/104/47 109/101/54 
f 121/103/43 107/102/52 110/101/55 
f 110/101/55 122/104/43 121/103/43 
s 2
f 123/105/60 116/106/60 115/107/60 
f 115/107/60 124/108/60 123/105/60 
s 1
f 111/109/57 114/110/55 110/88/55 
f 110/88/55 109/87/54 111/109/57 
f 115/94/38 111/93/57 109/101/54 
f 109/101/54 120/104/47 115/94/38 
s off
f 124/108/61 115/107/61 120/111/61 
f 120/111/61 122/112/61 124/108/61 
f 118/113/61 117/114/61 121/115/61 
f 121/115/61 119/116/61 118/113/61 
s 1
f 124/94/43 122/104/43 110/101/55 
f 110/101/55 114/93/55 124/94/43 
f 123/95/43 124/94/43 114/93/55 
f 114/93/55 113/96/43 123/95/43 
s 2
f 122/117/41 120/118/41 125/119/41 
f 125/119/41 126/120/41 122/117/41 
s 4
f 121/103/43 122/104/43 126/121/43 
f 126/121/43 127/122/43 121/103/43 
s 2
f 119/116/60 121/115/60 127/123/60 
f 127/123/60 128/124/60 119/116/60 
s 4
f 120/104/47 119/103/47 128/122/49 
f 128/122/49 125/121/49 120/104/47 
s 1
f 129/87/62 130/86/63 131/85/64 
f 131/85/64 132/88/65 129/87/62 
s off
f 133/89/41 134/92/41 113/91/41 
f 113/91/66 112/90/66 133/89/66 
s 1
f 133/93/62 112/96/49 116/95/38 
f 116/95/38 135/94/47 133/93/62 
f 130/98/63 136/99/59 137/100/58 
f 137/100/58 131/97/64 130/98/63 
f 130/102/63 129/101/62 138/104/47 
f 138/104/47 139/103/47 130/102/63 
f 132/101/65 131/102/64 140/103/43 
f 140/103/43 141/104/43 132/101/65 
s 2
f 123/105/60 142/108/60 135/107/60 
f 135/107/60 116/106/60 123/105/60 
s 1
f 133/109/62 129/87/62 132/88/65 
f 132/88/65 134/110/65 133/109/62 
f 135/94/47 138/104/47 129/101/62 
f 129/101/62 133/93/62 135/94/47 
s off
f 142/108/67 141/112/67 138/111/67 
f 138/111/67 135/107/67 142/108/67 
f 136/113/67 139/116/67 140/115/67 
f 140/115/67 137/114/67 136/113/67 
s 1
f 142/94/42 134/93/65 132/101/65 
f 132/101/65 141/104/43 142/94/42 
f 142/94/42 123/95/43 113/96/43 
f 113/96/43 134/93/65 142/94/42 
s 2
f 141/117/41 126/120/41 125/119/41 
f 125/119/41 138/118/41 141/117/41 
s 4
f 140/103/42 127/122/43 126/121/43 
f 126/121/43 141/104/42 140/103/42 
s 2
f 139/116/60 128/124/60 127/123/60 
f 127/123/60 140/115/60 139/116/60 
s 4
f 138/104/49 125/121/49 128/122/49 
f 128/122/49 139/103/49 138/104/49 
s 1
f 68/60/39 72/72/38 65/71/37 
f 65/71/37 64/61/37 68/60/39 
f 75/69/44 82/70/39 79/60/38 
f 79/60/38 76/61/44 75/69/44 
f 83/125/44 92/126/49 87/60/38 
f 87/60/38 84/61/44 83/125/44 
f 100/60/49 104/126/39 97/125/37 
f 97/125/37 96/61/37 100/60/49 
f 107/102/52 121/103/43 117/127/58 
f 119/103/47 108/102/53 118/127/59 
f 130/102/63 139/103/47 136/127/59 
f 140/103/43 131/102/64 137/127/58 
# 132 faces

