# 3ds Max Wavefront OBJ Exporter v0.97b - (c)2007 guruware
# File Created: 06.01.2021 14:57:00

mtllib ??\modern_tea_table.mtl

#
# object base
#

v  15.0753 67.5124 -13.3425
v  20.0997 67.8020 -13.2019
v  14.4562 73.1095 -12.2394
v  35.7753 0.0000 -50.0000
v  35.8907 0.0000 -50.0000
v  35.8730 0.0000 -45.6697
v  29.1461 -0.0000 -50.0000
v  35.8347 8.4191 -45.5437
v  37.0398 8.3532 -50.0000
v  27.9418 8.2712 -50.0000
v  64.1653 8.4191 -45.5437
v  62.9602 8.3532 -50.0000
v  64.1270 0.0000 -45.6697
v  25.5091 8.4288 -39.4694
v  32.5131 8.5123 -39.4608
v  22.1069 -0.0000 -29.0268
v  30.4243 0.0000 -29.0269
v  31.1594 11.8298 -35.4281
v  24.2771 12.0636 -35.3931
v  15.5600 67.5745 -17.3977
v  20.0997 67.7722 -17.4751
v  15.5600 67.5745 -82.6023
v  20.0997 67.7722 -82.5249
v  79.9003 67.8020 -13.2019
v  85.5438 73.1095 -12.2394
v  79.9003 67.7722 -17.4751
v  84.9247 67.5124 -13.3425
v  64.1093 0.0000 -50.0000
v  64.2247 0.0000 -50.0000
v  70.8539 -0.0000 -50.0000
v  72.0582 8.2712 -50.0000
v  67.4869 8.5123 -39.4608
v  74.4909 8.4288 -39.4694
v  77.8931 -0.0000 -29.0268
v  69.5757 0.0000 -29.0269
v  68.8406 11.8298 -35.4281
v  84.4400 67.5745 -17.3977
v  75.7229 12.0636 -35.3931
v  79.9003 67.7722 -82.5249
v  84.4400 67.5745 -82.6023
v  15.0753 67.5124 -86.6575
v  14.4562 73.1095 -87.7607
v  20.0997 67.8020 -86.7981
v  35.8730 0.0000 -54.3303
v  35.8347 8.4191 -54.4563
v  64.1653 8.4191 -54.4563
v  64.1270 0.0000 -54.3303
v  32.5131 8.5123 -60.5392
v  25.5091 8.4288 -60.5306
v  22.1069 -0.0000 -70.9732
v  30.4243 0.0000 -70.9731
v  31.1594 11.8298 -64.5719
v  24.2771 12.0636 -64.6069
v  79.9003 67.8020 -86.7981
v  84.9247 67.5124 -86.6575
v  85.5438 73.1095 -87.7607
v  74.4909 8.4288 -60.5306
v  67.4869 8.5123 -60.5392
v  77.8931 -0.0000 -70.9732
v  69.5757 0.0000 -70.9732
v  68.8406 11.8298 -64.5719
v  75.7229 12.0636 -64.6069
v  86.4117 73.1095 -8.4195
v  91.7288 78.4436 -2.3476
v  8.2712 78.4436 -2.3476
v  13.5883 73.1095 -8.4195
v  1.5538 83.7142 -1.5539
v  3.8285 78.4436 -3.8285
v  6.2154 83.7142 -0.0000
v  -0.0000 83.7142 -6.2154
v  2.3476 78.4436 -8.2712
v  -0.0000 83.7142 -93.7846
v  2.3476 78.4436 -91.7288
v  9.7117 73.1095 -9.7117
v  8.4195 73.1095 -13.5883
v  93.7846 83.7142 -0.0000
v  20.2265 83.7142 -16.0000
v  17.0566 83.7142 -17.0566
v  16.0000 83.7142 -20.2265
v  98.4462 83.7142 -1.5539
v  96.1715 78.4436 -3.8285
v  100.0000 83.7142 -6.2154
v  97.6524 78.4436 -8.2712
v  90.2883 73.1095 -9.7117
v  91.5805 73.1095 -13.5883
v  82.9434 83.7142 -17.0566
v  79.7735 83.7142 -16.0000
v  84.0000 83.7142 -20.2265
v  16.0000 83.7142 -79.7735
v  8.2712 78.4436 -97.6524
v  91.7288 78.4436 -97.6524
v  86.4117 73.1095 -91.5805
v  13.5883 73.1095 -91.5805
v  1.5538 83.7142 -98.4462
v  6.2154 83.7142 -100.0000
v  3.8285 78.4436 -96.1715
v  9.7117 73.1095 -90.2883
v  8.4195 73.1095 -86.4117
v  93.7846 83.7142 -100.0000
v  17.0566 83.7142 -82.9434
v  20.2265 83.7142 -84.0000
v  100.0000 83.7142 -93.7846
v  84.0000 83.7142 -79.7735
v  98.4462 83.7142 -98.4462
v  96.1715 78.4436 -96.1715
v  97.6524 78.4436 -91.7288
v  90.2883 73.1095 -90.2883
v  91.5805 73.1095 -86.4117
v  79.7735 83.7142 -84.0000
v  82.9434 83.7142 -82.9434
v  20.2265 73.1095 -16.0000
v  17.0566 73.1095 -17.0566
v  16.0000 73.1095 -20.2265
v  82.9434 73.1095 -17.0566
v  79.7735 73.1095 -16.0000
v  84.0000 73.1095 -20.2265
v  16.0000 73.1095 -79.7735
v  17.0566 73.1095 -82.9434
v  20.2265 73.1095 -84.0000
v  84.0000 73.1095 -79.7735
v  79.7735 73.1095 -84.0000
v  82.9434 73.1095 -82.9434
v  20.0997 73.5388 -17.4751
v  79.9003 73.5388 -17.4751
v  20.0997 73.5388 -82.5249
v  79.9003 73.5388 -82.5249
v  84.5494 83.0271 -15.4507
v  84.5494 83.0271 -84.5494
v  15.4506 83.0271 -84.5494
v  15.4506 83.0271 -15.4507
# 130 vertices

vn -0.7397 -0.2271 0.6335
vn 0.2335 -0.4177 0.8781
vn -0.6237 0.4724 0.6228
vn 0.0000 -1.0000 0.0000
vn 0.2854 -0.8549 0.4332
vn -0.5863 -0.8101 0.0000
vn 0.2787 0.8450 0.4564
vn -0.0038 1.0000 -0.0000
vn -0.7090 0.7052 0.0000
vn -0.2787 0.8450 0.4564
vn 0.0038 1.0000 -0.0000
vn -0.2854 -0.8549 0.4332
vn -0.7237 0.5152 -0.4591
vn 0.7121 0.6982 0.0734
vn -0.6635 -0.6333 0.3984
vn 0.5340 -0.6153 0.5799
vn 0.8058 0.4821 -0.3440
vn -0.6466 0.2851 -0.7075
vn -0.8893 -0.3358 -0.3104
vn 0.6584 -0.4358 -0.6137
vn -0.8893 -0.3358 0.3104
vn 0.6584 -0.4358 0.6137
vn -0.2335 -0.4177 0.8781
vn 0.6237 0.4724 0.6228
vn -0.6584 -0.4358 -0.6137
vn 0.7397 -0.2271 0.6335
vn -0.0000 -1.0000 0.0000
vn 0.5863 -0.8101 0.0000
vn 0.7090 0.7052 0.0000
vn -0.7121 0.6982 0.0734
vn 0.7237 0.5152 -0.4591
vn 0.6635 -0.6333 0.3984
vn -0.5340 -0.6153 0.5799
vn -0.8058 0.4821 -0.3440
vn 0.8893 -0.3358 -0.3104
vn 0.6466 0.2851 -0.7075
vn -0.6584 -0.4358 0.6137
vn 0.8893 -0.3358 0.3104
vn -0.7397 -0.2271 -0.6335
vn -0.6237 0.4724 -0.6228
vn 0.2335 -0.4177 -0.8781
vn 0.2854 -0.8549 -0.4332
vn 0.2787 0.8450 -0.4564
vn -0.2787 0.8450 -0.4564
vn -0.2854 -0.8549 -0.4332
vn 0.7121 0.6982 -0.0734
vn -0.7237 0.5152 0.4591
vn -0.6635 -0.6333 -0.3984
vn 0.5340 -0.6153 -0.5799
vn 0.8058 0.4821 0.3440
vn -0.6466 0.2851 0.7075
vn -0.2335 -0.4177 -0.8781
vn 0.7397 -0.2271 -0.6335
vn 0.6237 0.4724 -0.6228
vn 0.7237 0.5152 0.4591
vn -0.7121 0.6982 -0.0734
vn 0.6635 -0.6333 -0.3984
vn -0.5340 -0.6153 -0.5799
vn -0.8058 0.4821 0.3440
vn 0.6466 0.2851 0.7075
vn 0.0392 -0.9319 0.3605
vn 0.1227 -0.6249 0.7710
vn -0.1227 -0.6249 0.7710
vn -0.0392 -0.9319 0.3605
vn -0.6459 0.4070 0.6459
vn -0.5260 -0.6683 0.5260
vn -0.1624 0.4868 0.8583
vn -0.8583 0.4868 0.1624
vn -0.7710 -0.6249 0.1227
vn -0.8583 0.4868 -0.1624
vn -0.7710 -0.6249 -0.1227
vn -0.2500 -0.9354 0.2500
vn -0.3605 -0.9319 0.0392
vn 0.1624 0.4868 0.8583
vn 0.1069 0.7450 -0.6584
vn 0.4018 0.8229 -0.4018
vn 0.6584 0.7450 -0.1069
vn 0.6459 0.4070 0.6459
vn 0.5260 -0.6683 0.5260
vn 0.8583 0.4868 0.1624
vn 0.7710 -0.6249 0.1227
vn 0.2500 -0.9354 0.2500
vn 0.3605 -0.9319 0.0392
vn -0.4018 0.8229 -0.4018
vn -0.1069 0.7450 -0.6584
vn -0.6585 0.7450 -0.1069
vn 0.6584 0.7450 0.1069
vn -0.1227 -0.6249 -0.7710
vn 0.1227 -0.6249 -0.7710
vn 0.0392 -0.9319 -0.3605
vn -0.0392 -0.9319 -0.3605
vn -0.6459 0.4070 -0.6459
vn -0.1624 0.4868 -0.8583
vn -0.5260 -0.6683 -0.5260
vn -0.2500 -0.9354 -0.2500
vn -0.3605 -0.9319 -0.0392
vn 0.1624 0.4868 -0.8583
vn 0.4018 0.8229 0.4018
vn 0.1069 0.7450 0.6585
vn 0.8583 0.4868 -0.1624
vn -0.6585 0.7450 0.1069
vn 0.6459 0.4070 -0.6459
vn 0.5260 -0.6683 -0.5260
vn 0.7710 -0.6249 -0.1227
vn 0.2500 -0.9354 -0.2500
vn 0.3605 -0.9319 -0.0392
vn -0.1069 0.7450 0.6585
vn -0.4018 0.8229 0.4018
vn 0.1069 -0.7450 -0.6584
vn 0.4018 -0.8229 -0.4018
vn 0.6584 -0.7450 -0.1069
vn -0.4018 -0.8229 -0.4018
vn -0.1069 -0.7450 -0.6584
vn -0.6584 -0.7450 -0.1069
vn 0.6584 -0.7450 0.1069
vn 0.4018 -0.8229 0.4018
vn 0.1069 -0.7450 0.6584
vn -0.6584 -0.7450 0.1069
vn -0.1069 -0.7450 0.6584
vn -0.4018 -0.8229 0.4018
vn 0.2742 0.9229 -0.2704
vn -0.2742 0.9229 -0.2704
vn 0.2742 0.9229 0.2704
vn -0.2742 0.9229 0.2704
vn 0.0000 1.0000 -0.0000
# 125 vertex normals

vt 0.7692 0.4905 0.0000
vt 0.8172 0.4905 0.0000
vt 0.7692 0.5529 0.0000
vt 0.8398 0.3064 0.0000
vt 0.8398 0.3062 0.0000
vt 0.8955 0.3282 0.0000
vt 0.8398 0.3565 0.0000
vt 0.9111 0.0597 0.0000
vt 0.9114 0.0193 0.0000
vt 0.9880 0.0203 0.0000
vt 0.8441 0.9152 0.0000
vt 0.8438 0.8557 0.0000
vt 0.9880 0.1051 0.0000
vt 0.9111 0.1051 0.0000
vt 0.8417 0.5741 0.0000
vt 0.9879 0.5741 0.0000
vt 0.8959 0.6251 0.0000
vt 0.8417 0.6251 0.0000
vt 0.8955 0.4694 0.0000
vt 0.8398 0.4694 0.0000
vt 0.8193 0.8558 0.0000
vt 0.7615 0.9152 0.0000
vt 0.7692 0.0913 0.0000
vt 0.8172 0.0913 0.0000
vt 0.9111 0.1446 0.0000
vt 0.9880 0.1446 0.0000
vt 0.9880 0.4727 0.0000
vt 0.9111 0.4727 0.0000
vt 0.8159 0.6367 0.0000
vt 0.8197 0.6367 0.0000
vt 0.8197 0.6179 0.0000
vt 0.8159 0.6178 0.0000
vt 0.8084 0.8349 0.0000
vt 0.8084 0.5737 0.0000
vt 0.7615 0.5739 0.0000
vt 0.9231 0.6453 0.0000
vt 0.9879 0.9345 0.0000
vt 0.9296 0.9345 0.0000
vt 0.9879 0.9913 0.0000
vt 0.8398 0.3321 0.0000
vt 0.9880 0.0597 0.0000
vt 0.4190 0.0180 0.0000
vt 0.4190 0.1435 0.0000
vt 0.3786 0.2518 0.0000
vt 0.3786 0.1435 0.0000
vt 0.4190 0.2518 0.0000
vt 0.3379 0.2518 0.0000
vt 0.3379 0.1435 0.0000
vt 0.3786 0.0180 0.0000
vt 0.3379 0.0180 0.0000
vt 0.1011 0.2779 0.0000
vt 0.3053 0.5031 0.0000
vt 0.2567 0.5167 0.0000
vt 0.0329 0.3000 0.0000
vt 0.0102 0.3660 0.0000
vt 0.2432 0.5633 0.0000
vt 0.2921 0.4884 0.0000
vt 0.2431 0.5038 0.0000
vt 0.2266 0.5494 0.0000
vt 0.8130 0.6367 0.0000
vt 0.8130 0.6179 0.0000
vt 0.8087 0.6178 0.0000
vt 0.8087 0.6367 0.0000
vt 0.7240 0.5360 0.0000
vt 0.7240 0.9749 0.0000
vt 0.2852 0.9749 0.0000
vt 0.2852 0.5360 0.0000
# 67 texture coords

g base
usemtl Material__76
s 1
f 1/1/1 2/2/2 3/3/3 
f 4/4/4 5/5/4 6/6/5 
f 6/6/5 7/7/6 4/4/4 
f 8/8/7 9/9/8 10/10/9 
f 11/8/10 12/9/11 9/9/8 
f 9/9/8 8/8/7 11/8/10 
f 6/11/5 13/11/12 11/12/10 
f 11/12/10 8/12/7 6/11/5 
f 10/10/9 14/13/13 15/14/14 
f 15/14/14 8/8/7 10/10/9 
f 7/15/6 16/16/15 14/17/13 
f 14/17/13 10/18/9 7/15/6 
f 7/7/6 6/6/5 17/19/16 
f 17/19/16 16/20/15 7/7/6 
f 6/11/5 8/12/7 15/21/14 
f 15/21/14 17/22/16 6/11/5 
f 16/23/15 17/24/16 2/2/2 
f 2/2/2 1/1/1 16/23/15 
f 18/25/17 19/26/18 20/27/19 
f 20/27/19 21/28/20 18/25/17 
f 22/29/21 23/30/22 21/31/20 
f 21/31/20 20/32/19 22/29/21 
f 14/13/13 19/26/18 18/25/17 
f 18/25/17 15/14/14 14/13/13 
f 15/21/14 18/33/17 17/22/16 
f 18/33/17 21/34/20 2/35/2 
f 2/35/2 17/22/16 18/33/17 
f 16/16/15 19/36/18 14/17/13 
f 1/37/1 20/38/19 19/36/18 
f 19/36/18 16/16/15 1/37/1 
f 20/38/19 1/37/1 3/39/3 
f 24/2/23 25/3/24 3/3/3 
f 3/3/3 2/2/2 24/2/23 
f 21/30/20 26/31/25 24/32/23 
f 24/32/23 2/29/2 21/30/20 
f 27/1/26 25/3/24 24/2/23 
f 13/6/12 28/5/27 29/4/27 
f 29/4/27 30/40/28 13/6/12 
f 31/41/29 12/9/11 11/8/10 
f 13/6/12 6/6/5 5/5/4 
f 5/5/4 28/5/27 13/6/12 
f 31/41/29 11/8/10 32/14/30 
f 32/14/30 33/13/31 31/41/29 
f 30/15/28 31/18/29 33/17/31 
f 33/17/31 34/16/32 30/15/28 
f 30/40/28 34/20/32 35/19/33 
f 35/19/33 13/6/12 30/40/28 
f 13/11/12 35/22/33 32/21/30 
f 32/21/30 11/12/10 13/11/12 
f 34/23/32 27/1/26 24/2/23 
f 24/2/23 35/24/33 34/23/32 
f 36/25/34 26/28/25 37/27/35 
f 37/27/35 38/26/36 36/25/34 
f 26/31/25 39/30/37 40/29/38 
f 40/29/38 37/32/35 26/31/25 
f 33/13/31 32/14/30 36/25/34 
f 36/25/34 38/26/36 33/13/31 
f 32/21/30 35/22/33 36/33/34 
f 36/33/34 35/22/33 24/35/23 
f 24/35/23 26/34/25 36/33/34 
f 34/16/32 33/17/31 38/36/36 
f 27/37/26 34/16/32 38/36/36 
f 38/36/36 37/38/35 27/37/26 
f 37/38/35 25/39/24 27/37/26 
f 41/1/39 42/3/40 43/2/41 
f 44/6/42 5/5/4 4/4/4 
f 4/4/4 7/40/6 44/6/42 
f 10/41/9 9/9/8 45/8/43 
f 9/9/8 12/9/11 46/8/44 
f 46/8/44 45/8/43 9/9/8 
f 44/11/42 45/12/43 46/12/44 
f 46/12/44 47/11/45 44/11/42 
f 10/41/9 45/8/43 48/14/46 
f 48/14/46 49/13/47 10/41/9 
f 7/15/6 10/18/9 49/17/47 
f 49/17/47 50/16/48 7/15/6 
f 7/40/6 50/20/48 51/19/49 
f 51/19/49 44/6/42 7/40/6 
f 44/11/42 51/22/49 48/21/46 
f 48/21/46 45/12/43 44/11/42 
f 50/23/48 41/1/39 43/2/41 
f 43/2/41 51/24/49 50/23/48 
f 52/25/50 23/28/22 22/27/21 
f 22/27/21 53/26/51 52/25/50 
f 49/13/47 48/14/46 52/25/50 
f 52/25/50 53/26/51 49/13/47 
f 48/21/46 51/22/49 52/33/50 
f 52/33/50 51/22/49 43/35/41 
f 43/35/41 23/34/22 52/33/50 
f 50/16/48 49/17/47 53/36/51 
f 41/37/39 50/16/48 53/36/51 
f 53/36/51 22/38/21 41/37/39 
f 22/38/21 42/39/40 41/37/39 
f 3/39/3 42/39/40 22/38/21 
f 22/38/21 20/38/19 3/39/3 
f 54/32/52 39/31/37 23/30/22 
f 23/30/22 43/29/41 54/32/52 
f 55/1/53 54/2/52 56/3/54 
f 29/4/27 28/5/27 47/6/45 
f 47/6/45 30/7/28 29/4/27 
f 46/8/44 12/9/11 31/10/29 
f 5/5/4 44/6/42 47/6/45 
f 47/6/45 28/5/27 5/5/4 
f 31/10/29 57/13/55 58/14/56 
f 58/14/56 46/8/44 31/10/29 
f 30/15/28 59/16/57 57/17/55 
f 57/17/55 31/18/29 30/15/28 
f 30/7/28 47/6/45 60/19/58 
f 60/19/58 59/20/57 30/7/28 
f 47/11/45 46/12/44 58/21/56 
f 58/21/56 60/22/58 47/11/45 
f 59/23/57 60/24/58 54/2/52 
f 54/2/52 55/1/53 59/23/57 
f 61/25/59 62/26/60 40/27/38 
f 40/27/38 39/28/37 61/25/59 
f 57/13/55 62/26/60 61/25/59 
f 61/25/59 58/14/56 57/13/55 
f 58/21/56 61/33/59 60/22/58 
f 61/33/59 39/34/37 54/35/52 
f 54/35/52 60/22/58 61/33/59 
f 59/16/57 62/36/60 57/17/55 
f 55/37/53 40/38/38 62/36/60 
f 62/36/60 59/16/57 55/37/53 
f 40/38/38 55/37/53 56/39/54 
f 42/3/40 56/3/54 54/2/52 
f 54/2/52 43/2/41 42/3/40 
f 40/38/38 56/39/54 25/39/24 
f 25/39/24 37/38/35 40/38/38 
f 63/42/61 64/43/62 65/43/63 
f 65/43/63 66/42/64 63/42/61 
f 67/44/65 68/45/66 65/43/63 
f 65/43/63 69/46/67 67/44/65 
f 70/47/68 71/48/69 68/45/66 
f 68/45/66 67/44/65 70/47/68 
f 71/48/69 70/47/68 72/47/70 
f 72/47/70 73/48/71 71/48/69 
f 74/49/72 66/42/64 65/43/63 
f 65/43/63 68/45/66 74/49/72 
f 75/50/73 74/49/72 68/45/66 
f 68/45/66 71/48/69 75/50/73 
f 65/43/63 64/43/62 76/46/74 
f 76/46/74 69/46/67 65/43/63 
f 69/51/67 77/52/75 78/53/76 
f 78/53/76 67/54/65 69/51/67 
f 70/55/68 67/54/65 78/53/76 
f 78/53/76 79/56/77 70/55/68 
f 80/44/78 76/46/74 64/43/62 
f 64/43/62 81/45/79 80/44/78 
f 82/47/80 80/44/78 81/45/79 
f 81/45/79 83/48/81 82/47/80 
f 84/49/82 81/45/79 64/43/62 
f 64/43/62 63/42/61 84/49/82 
f 85/50/83 83/48/81 81/45/79 
f 81/45/79 84/49/82 85/50/83 
f 80/54/78 86/53/84 87/52/85 
f 87/52/85 76/51/74 80/54/78 
f 80/54/78 82/55/80 88/56/86 
f 88/56/86 86/53/84 80/54/78 
f 76/51/74 87/52/85 77/52/75 
f 77/52/75 69/51/67 76/51/74 
f 72/55/70 70/55/68 79/56/77 
f 79/56/77 89/56/87 72/55/70 
f 90/43/88 91/43/89 92/42/90 
f 92/42/90 93/42/91 90/43/88 
f 94/44/92 95/46/93 90/43/88 
f 90/43/88 96/45/94 94/44/92 
f 72/47/70 94/44/92 96/45/94 
f 96/45/94 73/48/71 72/47/70 
f 97/49/95 96/45/94 90/43/88 
f 90/43/88 93/42/91 97/49/95 
f 98/50/96 73/48/71 96/45/94 
f 96/45/94 97/49/95 98/50/96 
f 99/46/97 91/43/89 90/43/88 
f 90/43/88 95/46/93 99/46/97 
f 71/48/69 73/48/71 98/50/96 
f 98/50/96 75/50/73 71/48/69 
f 94/54/92 100/53/98 101/52/99 
f 101/52/99 95/51/93 94/54/92 
f 94/54/92 72/55/70 89/56/87 
f 89/56/87 100/53/98 94/54/92 
f 102/55/100 103/56/101 88/56/86 
f 88/56/86 82/55/80 102/55/100 
f 104/44/102 105/45/103 91/43/89 
f 91/43/89 99/46/97 104/44/102 
f 102/47/100 106/48/104 105/45/103 
f 105/45/103 104/44/102 102/47/100 
f 106/48/104 102/47/100 82/47/80 
f 82/47/80 83/48/81 106/48/104 
f 107/49/105 92/42/90 91/43/89 
f 91/43/89 105/45/103 107/49/105 
f 108/50/106 107/49/105 105/45/103 
f 105/45/103 106/48/104 108/50/106 
f 108/50/106 106/48/104 83/48/81 
f 83/48/81 85/50/83 108/50/106 
f 99/51/97 109/52/107 110/53/108 
f 110/53/108 104/54/102 99/51/97 
f 104/54/102 110/53/108 103/56/101 
f 103/56/101 102/55/100 104/54/102 
f 99/51/97 95/51/93 101/52/99 
f 101/52/99 109/52/107 99/51/97 
f 78/53/76 77/52/75 111/57/109 
f 111/57/109 112/58/110 78/53/76 
f 79/56/77 78/53/76 112/58/110 
f 112/58/110 113/59/111 79/56/77 
f 87/52/85 86/53/84 114/58/112 
f 114/58/112 115/57/113 87/52/85 
f 86/53/84 88/56/86 116/59/114 
f 116/59/114 114/58/112 86/53/84 
f 77/52/75 87/52/85 115/57/113 
f 115/57/113 111/52/109 77/52/75 
f 89/56/87 79/56/77 113/56/111 
f 113/56/111 117/59/115 89/56/87 
f 101/52/99 100/53/98 118/58/116 
f 118/58/116 119/57/117 101/52/99 
f 100/53/98 89/56/87 117/59/115 
f 117/59/115 118/58/116 100/53/98 
f 88/56/86 103/56/101 120/59/118 
f 120/59/118 116/56/114 88/56/86 
f 110/53/108 109/52/107 121/57/119 
f 121/57/119 122/58/120 110/53/108 
f 103/56/101 110/53/108 122/58/120 
f 122/58/120 120/59/118 103/56/101 
f 109/52/107 101/52/99 119/52/117 
f 119/52/117 121/57/119 109/52/107 
f 26/31/25 21/30/20 123/60/121 
f 123/60/121 124/61/122 26/31/25 
f 21/31/20 23/30/22 125/60/123 
f 125/60/123 123/61/121 21/31/20 
f 39/30/37 26/31/25 124/61/122 
f 124/61/122 126/60/124 39/30/37 
f 23/30/22 39/31/37 126/61/124 
f 126/61/124 125/60/123 23/30/22 
f 74/49/72 75/50/73 113/50/111 
f 113/50/111 112/49/110 74/49/72 
f 66/42/64 74/49/72 112/49/110 
f 112/49/110 111/42/109 66/42/64 
f 63/42/61 66/42/64 111/42/109 
f 111/42/109 115/42/113 63/42/61 
f 84/49/82 63/42/61 115/42/113 
f 115/42/113 114/49/112 84/49/82 
f 85/50/83 84/49/82 114/49/112 
f 114/49/112 116/50/114 85/50/83 
f 93/42/91 92/42/90 121/42/119 
f 121/42/119 119/42/117 93/42/91 
f 97/49/95 93/42/91 119/42/117 
f 119/42/117 118/49/116 97/49/95 
f 98/50/96 97/49/95 118/49/116 
f 118/49/116 117/50/115 98/50/96 
f 75/50/73 98/50/96 117/50/115 
f 117/50/115 113/50/111 75/50/73 
f 92/42/90 107/49/105 122/49/120 
f 122/49/120 121/42/119 92/42/90 
f 107/49/105 108/50/106 120/50/118 
f 120/50/118 122/49/120 107/49/105 
f 108/50/106 85/50/83 116/50/114 
f 116/50/114 120/50/118 108/50/106 
f 124/61/122 25/62/24 56/63/54 
f 56/63/54 126/60/124 124/61/122 
f 123/60/121 3/63/3 25/62/24 
f 25/62/24 124/61/122 123/60/121 
f 125/60/123 42/63/40 3/62/3 
f 3/62/3 123/61/121 125/60/123 
f 126/61/124 56/62/54 42/63/40 
f 42/63/40 125/60/123 126/61/124 
f 127/64/125 128/65/125 129/66/125 
f 129/66/125 130/67/125 127/64/125 
# 266 faces

