# 3ds Max Wavefront OBJ Exporter v0.97b - (c)2007 guruware
# File Created: 18.01.2021 14:41:30

mtllib orange.mtl

#
# object base
#

v  50.0000 81.9268 -50.6572
v  50.0000 81.9047 -48.1277
v  51.2648 81.9157 -49.3924
v  48.7352 81.9158 -49.3924
v  77.0033 47.2664 -22.6177
v  69.7934 63.0108 -29.6904
v  50.0000 62.9393 -21.4920
v  50.0000 47.1688 -11.4330
v  88.1884 47.5020 -49.6199
v  77.9922 63.1836 -49.4831
v  77.0033 47.7377 -76.6222
v  69.7934 63.3563 -69.2758
v  50.0000 47.8353 -87.8069
v  50.0000 63.4278 -77.4742
v  22.9967 47.7377 -76.6222
v  30.2066 63.3563 -69.2758
v  11.8116 47.5020 -49.6199
v  22.0079 63.1836 -49.4831
v  22.9967 47.2664 -22.6177
v  30.2066 63.0108 -29.6904
v  50.0000 25.0567 -7.6447
v  79.8135 25.1645 -19.9933
v  92.1626 25.4247 -49.8056
v  79.8134 25.6848 -79.6179
v  50.0000 25.7926 -91.9666
v  20.1866 25.6848 -79.6179
v  7.8374 25.4247 -49.8056
v  20.1866 25.1645 -19.9933
v  50.0000 -0.0000 -50.0000
v  72.3034 7.7639 -27.6366
v  50.0000 7.6833 -18.3986
v  81.5417 7.9585 -49.9391
v  72.3033 8.1531 -72.2416
v  50.0000 8.2338 -81.4796
v  27.6967 8.1531 -72.2416
v  18.4583 7.9585 -49.9391
v  27.6967 7.7639 -27.6366
v  50.0000 70.3234 -47.5237
v  51.5085 70.3398 -49.3982
v  50.0000 70.3561 -51.2726
v  48.4915 70.3398 -49.3982
v  92.4968 80.1661 -62.7270
v  101.3087 76.1934 -84.5079
v  84.4602 82.8018 -73.5148
v  77.0181 77.6511 -83.9585
v  50.3642 76.6295 -49.4111
v  68.9613 80.2491 -46.6954
v  61.3186 80.5987 -57.1320
v  53.0784 75.5690 -68.9430
v  81.9059 81.5892 -51.2549
v  72.0156 83.5657 -65.0438
v  62.2571 76.7608 -79.4524
v  93.1180 72.4585 -41.8642
v  112.1670 63.4689 -56.2148
v  91.5743 74.0633 -55.1007
v  89.2121 69.7860 -68.7262
v  50.7739 73.8413 -50.1024
v  66.8279 75.5752 -38.3696
v  65.2415 77.2916 -51.7212
v  63.0861 71.5249 -65.9603
v  78.6311 74.7883 -37.5445
v  76.5338 78.2137 -53.9886
v  74.0270 70.6408 -70.5649
# 63 vertices

vn 0.0000 1.0000 0.0087
vn 0.6616 0.3471 0.6646
vn 0.4536 0.7635 0.4598
vn -0.0000 0.7613 0.6484
vn 0.0000 0.3448 0.9387
vn 0.9357 0.3528 0.0030
vn 0.6406 0.7679 0.0067
vn 0.6616 0.3585 -0.6586
vn 0.4535 0.7715 -0.4463
vn -0.0000 0.3608 -0.9326
vn -0.0000 0.7726 -0.6349
vn -0.6616 0.3585 -0.6586
vn -0.4535 0.7715 -0.4463
vn -0.9357 0.3528 0.0030
vn -0.6406 0.7679 0.0067
vn -0.6616 0.3471 0.6646
vn -0.4536 0.7635 0.4598
vn -0.0000 -0.1773 0.9842
vn 0.6970 -0.1750 0.6954
vn 0.9856 -0.1692 -0.0015
vn 0.6968 -0.1635 -0.6983
vn -0.0000 -0.1611 -0.9869
vn -0.6968 -0.1635 -0.6983
vn -0.9856 -0.1692 -0.0015
vn -0.6970 -0.1750 0.6954
vn -0.0000 -1.0000 -0.0087
vn 0.4585 -0.7652 0.4520
vn -0.0000 -0.7668 0.6419
vn 0.6482 -0.7614 -0.0065
vn 0.4583 -0.7576 -0.4648
vn -0.0000 -0.7560 -0.6545
vn -0.4583 -0.7576 -0.4648
vn -0.6482 -0.7614 -0.0065
vn -0.4585 -0.7652 0.4520
vn -0.0000 0.8545 0.5194
vn 0.6155 0.7880 0.0106
vn -0.0018 0.8588 -0.5124
vn -0.6123 0.7906 0.0084
vn 0.9994 0.0348 0.0037
vn -0.0000 0.0242 0.9997
vn -0.0072 0.0393 -0.9992
vn -0.9998 0.0210 -0.0036
vn 0.2305 0.9725 0.0342
vn 0.2034 0.9449 -0.2563
vn 0.0924 0.9792 -0.1805
vn -0.0907 0.9190 -0.3836
vn -0.3218 0.9463 0.0299
vn -0.1161 0.9862 0.1181
vn -0.2707 0.9625 0.0196
vn -0.3459 0.9257 -0.1529
vn 0.0386 0.9952 0.0899
vn -0.1293 0.9900 -0.0568
vn -0.2582 0.9327 -0.2519
vn 0.3277 0.9393 0.1018
vn 0.4462 0.8827 -0.1475
vn 0.3498 0.9272 -0.1342
vn 0.2546 0.8937 -0.3694
vn -0.2423 0.9638 -0.1113
vn -0.0305 0.9909 0.1310
vn -0.1504 0.9843 -0.0922
vn -0.1333 0.9255 -0.3546
vn 0.1136 0.9791 0.1686
vn 0.0525 0.9913 -0.1209
vn -0.0025 0.9148 -0.4038
# 64 vertex normals

vt 0.0421 0.9462 0.0000
vt 0.0421 0.9459 0.0000
vt 0.0380 0.9462 0.0000
vt 0.0502 0.9462 0.0000
vt 0.7900 0.3999 0.0000
vt 0.7142 0.5390 0.0000
vt 0.5060 0.5390 0.0000
vt 0.5060 0.3990 0.0000
vt 0.9636 0.4019 0.0000
vt 0.8564 0.5390 0.0000
vt 0.7900 0.4040 0.0000
vt 0.5060 0.4048 0.0000
vt 0.2219 0.4040 0.0000
vt 0.2978 0.5390 0.0000
vt 0.0415 0.4019 0.0000
vt 0.1488 0.5390 0.0000
vt 0.2219 0.3999 0.0000
vt 0.5060 0.2128 0.0000
vt 0.8023 0.2137 0.0000
vt 0.9811 0.2158 0.0000
vt 0.8023 0.2180 0.0000
vt 0.5060 0.2189 0.0000
vt 0.2096 0.2180 0.0000
vt 0.0241 0.2158 0.0000
vt 0.2096 0.2137 0.0000
vt 0.5060 0.0139 0.0000
vt 0.7406 0.0804 0.0000
vt 0.5060 0.0797 0.0000
vt 0.8937 0.0821 0.0000
vt 0.7406 0.0838 0.0000
vt 0.5060 0.0845 0.0000
vt 0.2714 0.0838 0.0000
vt 0.1115 0.0821 0.0000
vt 0.2714 0.0804 0.0000
vt 0.2409 0.6884 0.0000
vt 0.3388 0.6002 0.0000
vt 0.2484 0.6977 0.0000
vt 0.3794 0.6981 0.0000
vt 0.3388 0.7960 0.0000
vt 0.2409 0.7070 0.0000
vt 0.1430 0.7960 0.0000
vt 0.2335 0.6977 0.0000
vt 0.1024 0.6981 0.0000
vt 0.1430 0.6002 0.0000
vt 0.0537 0.8261 0.0000
vt 0.0608 0.8654 0.0000
vt 0.0927 0.8654 0.0000
vt 0.0927 0.8261 0.0000
vt 0.1371 0.8261 0.0000
vt 0.1261 0.8654 0.0000
vt 0.1481 0.8654 0.0000
vt 0.5359 0.9166 0.0000
vt 0.3599 0.7900 0.0000
vt 0.5359 0.7900 0.0000
vt 0.5359 0.6651 0.0000
vt 0.9808 0.8019 0.0000
vt 0.8157 0.9546 0.0000
vt 0.8157 0.7900 0.0000
vt 0.8201 0.6296 0.0000
vt 0.6690 0.9593 0.0000
vt 0.6690 0.7900 0.0000
vt 0.6690 0.6259 0.0000
vt 0.2409 0.5596 0.0000
vt 0.2409 0.8366 0.0000
# 64 texture coords

g base
usemtl Material__258
s 2
f 1/1/1 2/2/1 3/3/1 
f 1/1/1 4/4/1 2/2/1 
s 1
f 5/5/2 6/6/3 7/7/4 
f 7/7/4 8/8/5 5/5/2 
f 9/9/6 10/10/7 6/6/3 
f 6/6/3 5/5/2 9/9/6 
f 11/11/8 12/6/9 10/10/7 
f 10/10/7 9/9/6 11/11/8 
f 13/12/10 14/7/11 12/6/9 
f 12/6/9 11/11/8 13/12/10 
f 15/13/12 16/14/13 14/7/11 
f 14/7/11 13/12/10 15/13/12 
f 17/15/14 18/16/15 16/14/13 
f 16/14/13 15/13/12 17/15/14 
f 19/17/16 20/14/17 18/16/15 
f 18/16/15 17/15/14 19/17/16 
f 8/8/5 7/7/4 20/14/17 
f 20/14/17 19/17/16 8/8/5 
f 21/18/18 22/19/19 5/5/2 
f 5/5/2 8/8/5 21/18/18 
f 22/19/19 23/20/20 9/9/6 
f 9/9/6 5/5/2 22/19/19 
f 23/20/20 24/21/21 11/11/8 
f 11/11/8 9/9/6 23/20/20 
f 24/21/21 25/22/22 13/12/10 
f 13/12/10 11/11/8 24/21/21 
f 25/22/22 26/23/23 15/13/12 
f 15/13/12 13/12/10 25/22/22 
f 26/23/23 27/24/24 17/15/14 
f 17/15/14 15/13/12 26/23/23 
f 27/24/24 28/25/25 19/17/16 
f 19/17/16 17/15/14 27/24/24 
f 28/25/25 21/18/18 8/8/5 
f 8/8/5 19/17/16 28/25/25 
f 29/26/26 30/27/27 31/28/28 
f 29/26/26 32/29/29 30/27/27 
f 29/26/26 33/30/30 32/29/29 
f 29/26/26 34/31/31 33/30/30 
f 29/26/26 35/32/32 34/31/31 
f 29/26/26 36/33/33 35/32/32 
f 29/26/26 37/34/34 36/33/33 
f 29/26/26 31/28/28 37/34/34 
f 31/28/28 30/27/27 22/19/19 
f 22/19/19 21/18/18 31/28/28 
f 30/27/27 32/29/29 23/20/20 
f 23/20/20 22/19/19 30/27/27 
f 32/29/29 33/30/30 24/21/21 
f 24/21/21 23/20/20 32/29/29 
f 33/30/30 34/31/31 25/22/22 
f 25/22/22 24/21/21 33/30/30 
f 34/31/31 35/32/32 26/23/23 
f 26/23/23 25/22/22 34/31/31 
f 35/32/32 36/33/33 27/24/24 
f 27/24/24 26/23/23 35/32/32 
f 36/33/33 37/34/34 28/25/25 
f 28/25/25 27/24/24 36/33/33 
f 37/34/34 31/28/28 21/18/18 
f 21/18/18 28/25/25 37/34/34 
f 38/35/35 6/36/3 39/37/36 
f 39/37/36 6/36/3 10/38/7 
f 39/37/36 10/38/7 12/39/9 
f 39/37/36 12/39/9 40/40/37 
f 40/40/37 16/41/13 41/42/38 
f 41/42/38 16/41/13 18/43/15 
f 41/42/38 18/43/15 20/44/17 
f 41/42/38 20/44/17 38/35/35 
f 39/45/36 3/46/39 2/47/40 
f 2/47/40 38/48/35 39/45/36 
f 40/48/37 1/47/41 3/46/39 
f 3/46/39 39/45/36 40/48/37 
f 41/49/38 4/50/42 1/47/41 
f 1/47/41 40/48/37 41/49/38 
f 41/49/38 38/48/35 2/47/40 
f 2/47/40 4/51/42 41/49/38 
f 42/52/43 43/53/44 44/54/45 
f 44/54/45 43/53/44 45/55/46 
f 46/56/47 47/57/48 48/58/49 
f 48/58/49 49/59/50 46/56/47 
f 50/60/51 51/61/52 48/58/49 
f 48/58/49 47/57/48 50/60/51 
f 48/58/49 51/61/52 52/62/53 
f 52/62/53 49/59/50 48/58/49 
f 42/52/43 44/54/45 51/61/52 
f 51/61/52 50/60/51 42/52/43 
f 51/61/52 44/54/45 45/55/46 
f 45/55/46 52/62/53 51/61/52 
f 53/52/54 54/53/55 55/54/56 
f 55/54/56 54/53/55 56/55/57 
f 57/56/58 58/57/59 59/58/60 
f 59/58/60 60/59/61 57/56/58 
f 61/60/62 62/61/63 59/58/60 
f 59/58/60 58/57/59 61/60/62 
f 59/58/60 62/61/63 63/62/64 
f 63/62/64 60/59/61 59/58/60 
f 53/52/54 55/54/56 62/61/63 
f 62/61/63 61/60/62 53/52/54 
f 62/61/63 55/54/56 56/55/57 
f 56/55/57 63/62/64 62/61/63 
f 38/35/35 7/63/4 6/36/3 
f 20/44/17 7/63/4 38/35/35 
f 12/39/9 14/64/11 40/40/37 
f 40/40/37 14/64/11 16/41/13 
# 102 faces

