# 3ds Max Wavefront OBJ Exporter v0.97b - (c)2007 guruware
# File Created: 12.01.2021 16:08:25

mtllib oven3.mtl

#
# object base
#

v  0.0000 90.4261 -19.3979
v  100.0000 90.4261 -19.3979
v  100.0000 90.4261 -100.0000
v  0.0000 90.4261 -100.0000
v  100.0038 5.6036 -19.3979
v  100.0038 5.6036 -100.0000
v  -0.0038 5.6036 -100.0000
v  -0.0038 5.6036 -19.3979
v  65.8900 31.3462 -19.3979
v  65.8900 64.6283 -19.3979
v  17.5104 64.6283 -19.3979
v  17.5071 31.3462 -19.3979
v  65.8900 31.3462 -20.1208
v  17.5071 31.3462 -20.1208
v  17.5104 64.6283 -20.1208
v  65.8900 64.6283 -20.1208
v  12.7755 80.5956 -8.9458
v  12.7755 73.1980 -8.9459
v  71.5888 73.1980 -8.9459
v  71.5843 80.5956 -8.9458
v  75.5362 73.1980 -23.5446
v  75.5317 80.5956 -23.5446
v  73.0775 80.5956 -10.1276
v  73.0820 73.1980 -10.1276
v  8.2932 80.5956 -23.5446
v  8.2932 73.1980 -23.5446
v  11.2436 73.1980 -10.1220
v  11.2436 80.5956 -10.1220
v  67.5232 80.5956 -11.9443
v  16.8366 80.5956 -11.9443
v  16.8370 73.1980 -11.9443
v  67.5274 73.1980 -11.9443
v  15.2481 80.5956 -13.0126
v  12.3543 80.5956 -23.5446
v  69.0644 80.5956 -13.0211
v  71.4706 80.5956 -23.5446
v  69.0686 73.1980 -13.0211
v  71.4748 73.1980 -23.5446
v  15.2485 73.1980 -13.0126
v  12.3547 73.1980 -23.5446
v  99.0620 0.0000 -32.2329
v  99.0620 0.0000 -20.5410
v  84.9858 0.0000 -20.5410
v  84.9858 0.0000 -32.2329
v  99.0620 6.5277 -32.2329
v  99.0620 6.5277 -20.5410
v  84.9858 6.5277 -20.5410
v  84.9858 6.5277 -32.2329
v  15.0181 0.0000 -20.5410
v  0.9419 0.0000 -20.5410
v  0.9419 0.0000 -32.2329
v  15.0181 0.0000 -32.2329
v  0.9419 6.5277 -20.5410
v  0.9419 6.5277 -32.2329
v  15.0181 6.5277 -20.5410
v  15.0181 6.5277 -32.2329
v  99.0620 0.0000 -99.1209
v  99.0620 0.0000 -87.4290
v  84.9858 0.0000 -87.4290
v  84.9858 0.0000 -99.1209
v  99.0620 6.5277 -99.1209
v  99.0620 6.5277 -87.4290
v  84.9858 6.5277 -87.4290
v  84.9858 6.5277 -99.1209
v  15.0181 0.0000 -87.4290
v  0.9419 0.0000 -87.4290
v  0.9419 0.0000 -99.1209
v  15.0181 0.0000 -99.1209
v  0.9419 6.5277 -87.4290
v  0.9419 6.5277 -99.1209
v  15.0181 6.5277 -87.4290
v  15.0181 6.5277 -99.1209
v  12.5550 24.3430 -79.0264
v  72.8433 24.3430 -79.0264
v  72.8433 71.0763 -79.0264
v  12.5573 71.0763 -79.0264
v  72.8433 71.0763 -25.6341
v  72.8433 24.3430 -25.6341
v  12.5573 71.0763 -25.6341
v  12.5550 24.3430 -25.6341
v  66.7529 65.0979 -20.5838
v  17.1292 65.1009 -19.8609
v  17.1262 30.9473 -20.5838
v  66.7505 30.9443 -20.5838
# 84 vertices

vn -0.5773 0.5774 0.5774
vn 0.5773 0.5774 0.5774
vn 0.5773 0.5774 -0.5774
vn -0.5773 0.5774 -0.5774
vn 0.5774 -0.5773 0.5773
vn 0.5774 -0.5773 -0.5773
vn -0.5774 -0.5773 -0.5773
vn -0.5774 -0.5773 0.5773
vn -0.3015 0.3015 0.9045
vn -0.3015 -0.3015 0.9045
vn 0.3015 -0.3015 0.9045
vn 0.3015 0.3015 0.9045
vn -0.7071 0.7071 -0.0000
vn 0.7071 0.7071 -0.0000
vn 0.7071 -0.7071 -0.0000
vn -0.7071 -0.7071 -0.0000
vn -0.2467 0.6414 0.7265
vn -0.2467 -0.6414 0.7265
vn 0.2525 -0.6400 0.7257
vn 0.2523 0.6402 0.7256
vn 0.7369 -0.6624 0.1348
vn 0.7365 0.6629 0.1347
vn 0.6615 0.6359 0.3976
vn 0.6618 -0.6355 0.3976
vn -0.7397 0.6530 0.1626
vn -0.7397 -0.6530 0.1626
vn -0.6502 -0.6375 0.4133
vn -0.6502 0.6375 0.4133
vn -0.1873 0.7813 -0.5954
vn 0.1829 0.7790 -0.5997
vn 0.1829 -0.7790 -0.5997
vn -0.1874 -0.7814 -0.5953
vn 0.4931 0.7944 -0.3546
vn 0.6263 0.7604 -0.1721
vn -0.5002 0.7976 -0.3371
vn -0.6421 0.7525 -0.1468
vn -0.5000 -0.7979 -0.3368
vn -0.6417 -0.7528 -0.1467
vn 0.4931 -0.7944 -0.3546
vn 0.6263 -0.7604 -0.1721
vn 0.5774 -0.5774 -0.5774
vn 0.5774 -0.5774 0.5774
vn -0.5774 -0.5774 0.5774
vn -0.5774 -0.5774 -0.5774
vn 0.7071 0.0000 -0.7071
vn 0.7071 0.0000 0.7071
vn -0.7071 0.0000 0.7071
vn -0.7071 0.0000 -0.7071
vn 0.5774 0.5773 0.5773
vn -0.5774 0.5774 0.5774
vn 0.5773 -0.5774 0.5774
vn -0.6431 -0.6399 -0.4207
vn -0.6395 0.6398 -0.4263
vn 0.6476 -0.6601 -0.3806
vn 0.6388 0.6542 -0.4049
vn -0.3461 0.3437 -0.8730
vn -0.3432 -0.3717 -0.8626
vn 0.4543 0.3337 -0.8260
vn 0.4807 -0.3903 -0.7853
vn 0.0056 -0.0081 1.0000
vn 0.0146 -0.0212 0.9997
vn 0.0090 -0.0130 0.9999
vn 0.0000 0.0000 1.0000
# 63 vertex normals

vt 0.7240 0.7109 0.0000
vt 0.7240 0.9835 0.0000
vt 0.9896 0.9835 0.0000
vt 0.9896 0.7109 0.0000
vt 0.7240 0.4526 0.0000
vt 0.9896 0.4526 0.0000
vt 0.7246 0.2401 0.0000
vt 0.9911 0.2401 0.0000
vt 0.9911 0.4346 0.0000
vt 0.7246 0.4346 0.0000
vt 0.4242 0.0148 0.0000
vt 0.7112 0.0148 0.0000
vt 0.7112 0.1403 0.0000
vt 0.4242 0.1403 0.0000
vt 0.4743 0.5768 0.0000
vt 0.7091 0.3981 0.0000
vt 0.7091 0.9862 0.0000
vt 0.4743 0.8088 0.0000
vt 0.0173 0.9862 0.0000
vt 0.1382 0.8088 0.0000
vt 0.0173 0.3981 0.0000
vt 0.1382 0.5768 0.0000
vt 0.4703 0.5812 0.0000
vt 0.1422 0.5812 0.0000
vt 0.1422 0.8045 0.0000
vt 0.4703 0.8045 0.0000
vt 0.1034 0.2847 0.0000
vt 0.1034 0.3572 0.0000
vt 0.3051 0.3572 0.0000
vt 0.3051 0.2847 0.0000
vt 0.4014 0.3572 0.0000
vt 0.4014 0.2847 0.0000
vt 0.3169 0.2847 0.0000
vt 0.3169 0.3572 0.0000
vt 0.0162 0.2847 0.0000
vt 0.0162 0.3572 0.0000
vt 0.0878 0.3572 0.0000
vt 0.0878 0.2847 0.0000
vt 0.3051 0.2674 0.0000
vt 0.1031 0.2674 1.4128
vt 0.1031 0.3789 1.4128
vt 0.3051 0.3789 0.0000
vt 0.0876 0.2674 0.0000
vt 0.0162 0.2674 0.0000
vt 0.3169 0.2674 0.0000
vt 0.4014 0.2674 0.0000
vt 0.3169 0.3789 0.0000
vt 0.4014 0.3789 0.0000
vt 0.0876 0.3789 0.0000
vt 0.0162 0.3789 0.0000
vt 0.3051 0.2142 0.0000
vt 0.1031 0.2142 1.4128
vt 0.0876 0.2142 0.0000
vt 0.0162 0.2142 0.0000
vt 0.4014 0.2142 0.0000
vt 0.3169 0.2142 0.0000
vt 0.4331 0.6811 0.9995
vt 0.3665 0.6811 0.9995
vt 0.3665 0.6143 0.9995
vt 0.4331 0.6143 0.9995
vt 0.3617 0.7148 0.0000
vt 0.3617 0.7785 0.0000
vt 0.3006 0.7785 0.0000
vt 0.3006 0.7148 0.0000
vt 0.2271 0.7785 0.0000
vt 0.2271 0.7148 0.0000
vt 0.1660 0.7785 0.0000
vt 0.1660 0.7148 0.0000
vt 0.4352 0.7148 0.0000
vt 0.4352 0.7785 0.0000
vt 0.1978 0.0189 0.0000
vt 0.3984 0.0189 0.0000
vt 0.3984 0.1914 0.0000
vt 0.1979 0.1914 0.0000
vt 0.0220 0.1914 0.0000
vt 0.1978 0.1914 0.0000
vt 0.0220 0.0189 0.0000
vt 0.8644 0.1149 0.0000
vt 0.8645 0.2188 0.0000
vt 0.7445 0.2188 0.0000
vt 0.7445 0.1149 0.0000
vt 0.7061 0.3777 0.0000
vt 0.4240 0.3777 0.0000
vt 0.4240 0.1583 0.0000
vt 0.7061 0.1583 0.0000
vt 0.7836 0.0290 0.0000
vt 0.7836 0.0909 0.0000
vt 0.7445 0.0125 0.0000
vt 0.8645 0.0124 0.0000
vt 0.8463 0.0287 0.0000
vt 0.8463 0.0909 0.0000
vt 0.8833 0.2111 0.0000
vt 0.8833 0.0087 1.4128
vt 0.9903 0.0087 1.4128
vt 0.9903 0.2111 0.0000
# 95 texture coords

g base
usemtl Material__2
s 1
f 1/1/1 2/2/2 3/3/3 
f 3/3/3 4/4/4 1/1/1 
f 3/4/3 2/1/2 5/5/5 
f 5/5/5 6/6/6 3/4/3 
f 1/1/1 4/4/4 7/6/7 
f 7/6/7 8/5/8 1/1/1 
f 3/7/3 6/8/6 7/9/7 
f 7/9/7 4/10/4 3/7/3 
f 7/11/7 6/12/6 5/13/5 
f 5/13/5 8/14/8 7/11/7 
f 9/15/9 5/16/5 2/17/2 
f 2/17/2 10/18/10 9/15/9 
f 10/18/10 2/17/2 1/19/1 
f 1/19/1 11/20/11 10/18/10 
f 11/20/11 1/19/1 8/21/8 
f 8/21/8 12/22/12 11/20/11 
f 9/15/9 12/22/12 8/21/8 
f 8/21/8 5/16/5 9/15/9 
f 12/22/12 9/15/9 13/23/13 
f 13/23/13 14/24/14 12/22/12 
f 11/20/11 12/22/12 14/24/14 
f 14/24/14 15/25/15 11/20/11 
f 10/18/10 11/20/11 15/25/15 
f 15/25/15 16/26/16 10/18/10 
f 9/15/9 10/18/10 16/26/16 
f 16/26/16 13/23/13 9/15/9 
f 17/27/17 18/28/18 19/29/19 
f 19/29/19 20/30/20 17/27/17 
f 21/31/21 22/32/22 23/33/23 
f 23/33/23 24/34/24 21/31/21 
f 25/35/25 26/36/26 27/37/27 
f 27/37/27 28/38/28 25/35/25 
f 17/27/17 20/30/20 29/39/29 
f 29/39/29 30/40/30 17/27/17 
f 19/29/19 18/28/18 31/41/31 
f 31/41/31 32/42/32 19/29/19 
f 33/43/33 34/44/34 25/35/25 
f 25/35/25 28/38/28 33/43/33 
f 35/45/35 23/33/23 22/32/22 
f 22/32/22 36/46/36 35/45/35 
f 37/47/37 38/48/38 21/31/21 
f 21/31/21 24/34/24 37/47/37 
f 39/49/39 27/37/27 26/36/26 
f 26/36/26 40/50/40 39/49/39 
f 32/51/32 31/52/31 30/40/30 
f 30/40/30 29/39/29 32/51/32 
f 39/53/39 40/54/40 34/44/34 
f 34/44/34 33/43/33 39/53/39 
f 38/55/38 37/56/37 35/45/35 
f 35/45/35 36/46/36 38/55/38 
f 20/30/20 19/29/19 24/34/24 
f 24/34/24 23/33/23 20/30/20 
f 18/28/18 17/27/17 28/38/28 
f 28/38/28 27/37/27 18/28/18 
f 30/40/30 31/52/31 39/53/39 
f 39/53/39 33/43/33 30/40/30 
f 32/51/32 29/39/29 35/45/35 
f 35/45/35 37/56/37 32/51/32 
f 35/45/35 29/39/29 20/30/20 
f 20/30/20 23/33/23 35/45/35 
f 17/27/17 30/40/30 33/43/33 
f 33/43/33 28/38/28 17/27/17 
f 19/29/19 32/42/32 37/47/37 
f 37/47/37 24/34/24 19/29/19 
f 39/49/39 31/41/31 18/28/18 
f 18/28/18 27/37/27 39/49/39 
f 41/57/41 42/58/42 43/59/43 
f 43/59/43 44/60/44 41/57/41 
f 41/61/41 45/62/45 46/63/46 
f 46/63/46 42/64/42 41/61/41 
f 42/64/42 46/63/46 47/65/47 
f 47/65/47 43/66/43 42/64/42 
f 43/66/43 47/65/47 48/67/48 
f 48/67/48 44/68/44 43/66/43 
f 44/69/44 48/70/48 45/62/45 
f 45/62/45 41/61/41 44/69/44 
f 49/59/42 50/58/43 51/57/44 
f 51/57/44 52/60/41 49/59/42 
f 53/63/47 54/62/48 51/61/44 
f 51/61/44 50/64/43 53/63/47 
f 55/65/46 53/63/47 50/64/43 
f 50/64/43 49/66/42 55/65/46 
f 56/67/45 55/65/46 49/66/42 
f 49/66/42 52/68/41 56/67/45 
f 54/62/48 56/70/45 52/69/41 
f 52/69/41 51/61/44 54/62/48 
f 57/57/41 58/58/42 59/59/43 
f 59/59/43 60/60/44 57/57/41 
f 57/61/41 61/62/45 62/63/46 
f 62/63/46 58/64/42 57/61/41 
f 58/64/42 62/63/46 63/65/47 
f 63/65/47 59/66/43 58/64/42 
f 59/66/43 63/65/47 64/67/48 
f 64/67/48 60/68/44 59/66/43 
f 60/69/44 64/70/48 61/62/45 
f 61/62/45 57/61/41 60/69/44 
f 65/59/42 66/58/43 67/57/44 
f 67/57/44 68/60/41 65/59/42 
f 69/63/47 70/62/48 67/61/44 
f 67/61/44 66/64/43 69/63/47 
f 71/65/46 69/63/47 66/64/43 
f 66/64/43 65/66/42 71/65/46 
f 72/67/45 71/65/46 65/66/42 
f 65/66/42 68/68/41 72/67/45 
f 70/62/48 72/70/45 68/69/41 
f 68/69/41 67/61/44 70/62/48 
f 73/71/49 74/72/50 75/73/43 
f 75/73/43 76/74/51 73/71/49 
f 77/75/52 75/76/43 74/71/50 
f 74/71/50 78/77/53 77/75/52 
f 79/78/54 76/79/51 75/80/43 
f 75/80/43 77/81/52 79/78/54 
f 80/77/55 73/71/49 76/76/51 
f 76/76/51 79/75/54 80/77/55 
f 78/82/53 74/83/50 73/84/49 
f 73/84/49 80/85/55 78/82/53 
f 13/86/56 16/87/57 77/81/52 
f 77/81/52 78/88/53 13/86/56 
f 13/86/56 78/88/53 80/89/55 
f 80/89/55 14/90/58 13/86/56 
f 14/90/58 80/89/55 79/78/54 
f 79/78/54 11/91/59 14/90/58 
f 16/87/57 11/91/59 79/78/54 
f 79/78/54 77/81/52 16/87/57 
f 81/92/60 82/93/61 83/94/62 
f 83/94/62 84/95/63 81/92/60 
# 126 faces

