# 3ds Max Wavefront OBJ Exporter v0.97b - (c)2007 guruware
# File Created: 26.01.2021 17:05:41

mtllib oven1.mtl

#
# object base
#

v  91.5381 72.6535 -19.1848
v  91.5381 72.6535 -99.8499
v  8.4798 72.6535 -99.8499
v  8.4798 72.6535 -19.1848
v  91.5415 -0.0000 -19.1848
v  91.5415 0.0000 -99.8498
v  80.8378 7.3825 -88.2038
v  80.8378 66.2835 -88.2038
v  15.5857 66.2835 -88.2038
v  15.5828 7.3825 -88.2038
v  8.4763 0.0000 -99.8498
v  8.4763 -0.0000 -19.1848
v  80.8378 7.3825 -25.8476
v  80.8378 66.2835 -25.8476
v  15.5857 66.2835 -25.8475
v  15.5828 7.3825 -25.8476
v  59.6856 15.7748 -19.7817
v  59.6856 52.8501 -19.7817
v  24.8579 15.7748 -19.7817
v  24.8607 52.8501 -19.7817
v  59.6856 52.8501 -19.1848
v  59.6856 15.7748 -19.1848
v  24.8607 52.8501 -19.1848
v  24.8579 15.7748 -19.1848
v  62.8698 62.2933 -7.9929
v  62.8698 56.8163 -7.9929
v  43.3969 56.8163 -7.9929
v  43.3969 62.2933 -7.9929
v  69.1020 57.7511 -1.7492
v  69.1020 61.3585 -1.7492
v  43.3969 61.3585 -1.7492
v  43.3969 57.7511 -1.7492
v  68.5779 57.2513 -2.2743
v  43.3969 57.2348 -2.4912
v  71.6935 61.5156 -4.3407
v  71.6935 57.5940 -4.3407
v  71.6935 56.6444 -20.0044
v  71.6935 62.4651 -20.0044
v  62.8698 55.9025 -20.0044
v  70.9515 55.9025 -20.0044
v  71.0079 57.0725 -4.6244
v  62.8698 63.2071 -20.0044
v  71.0079 62.0370 -4.6244
v  70.9515 63.2071 -20.0044
v  68.5779 61.8583 -2.2743
v  43.3969 61.8748 -2.4912
v  24.6252 62.2933 -7.9929
v  24.6252 56.8163 -7.9929
v  18.3929 61.3585 -1.7492
v  18.3929 57.7511 -1.7492
v  18.9171 57.2513 -2.2743
v  15.8015 62.4651 -20.0044
v  15.8015 56.6444 -20.0044
v  15.8015 57.5940 -4.3407
v  15.8015 61.5156 -4.3407
v  24.6252 55.9025 -20.0044
v  16.4870 57.0725 -4.6244
v  16.5434 55.9025 -20.0044
v  24.6252 63.2071 -20.0044
v  16.5434 63.2071 -20.0044
v  16.4870 62.0370 -4.6244
v  18.9171 61.8583 -2.2743
v  24.1682 53.3965 -19.4173
v  24.1657 15.5686 -19.4173
v  60.2900 15.5651 -19.4173
v  60.2925 53.3930 -19.4173
# 66 vertices

vn 0.0000 1.0000 0.0000
vn 1.0000 0.0000 0.0000
vn -0.5774 0.5774 0.5774
vn -0.5774 -0.5774 0.5774
vn 0.5773 -0.5774 0.5774
vn 0.5774 0.5773 0.5773
vn -1.0000 0.0000 0.0000
vn 0.0000 -0.0000 -1.0000
vn 0.0000 -1.0000 -0.0000
vn -0.6229 0.6014 -0.5003
vn -0.6137 -0.6033 -0.5094
vn 0.6167 -0.6286 -0.4738
vn 0.6353 0.6314 -0.4448
vn -0.3803 0.5683 -0.7297
vn -0.3911 -0.4743 -0.7887
vn 0.5074 0.5317 -0.6781
vn 0.5279 -0.4438 -0.7241
vn -0.0000 0.0000 1.0000
vn -0.0000 -0.0000 1.0000
vn -0.3015 -0.3015 0.9045
vn -0.3015 0.3015 0.9045
vn 0.0000 -0.0000 1.0000
vn 0.3015 -0.3015 0.9045
vn 0.0000 0.0000 1.0000
vn 0.3015 0.3015 0.9045
vn -0.7236 0.0000 -0.6902
vn 0.0000 0.0000 -1.0000
vn 0.3546 -0.4078 0.8414
vn 0.3570 0.4113 0.8387
vn 0.0000 0.4631 0.8863
vn 0.0012 -0.4624 0.8867
vn 0.0000 -0.9971 0.0759
vn -0.0000 -0.9971 0.0759
vn 0.8305 0.4203 0.3656
vn 0.8325 -0.4167 0.3651
vn 0.9184 -0.3950 0.0239
vn 0.9172 0.3974 0.0286
vn -1.0000 0.0000 -0.0000
vn -0.0000 0.9971 0.0759
vn 0.0000 0.9971 0.0759
vn 0.1579 0.7857 0.5982
vn 0.0000 0.8192 0.5735
vn 0.7026 -0.7103 0.0434
vn 0.5098 -0.8201 0.2597
vn 0.0022 -0.8200 0.5723
vn 0.1501 -0.7867 0.5988
vn 0.5143 0.8157 0.2649
vn 0.7062 0.7062 0.0511
vn 0.7236 0.0000 -0.6902
vn -0.3570 0.4113 0.8387
vn -0.3555 -0.4074 0.8412
vn -0.9172 0.3974 0.0286
vn -0.9184 -0.3950 0.0239
vn -0.8325 -0.4167 0.3651
vn -0.8305 0.4203 0.3656
vn 1.0000 0.0000 -0.0000
vn -0.1578 0.7856 0.5982
vn -0.7026 -0.7103 0.0434
vn -0.5098 -0.8201 0.2597
vn -0.1532 -0.7886 0.5955
vn -0.5143 0.8157 0.2649
vn -0.7062 0.7062 0.0511
# 62 vertex normals

vt 0.9851 0.5182 0.0000
vt 0.9851 0.7508 0.0000
vt 0.7354 0.7508 0.0000
vt 0.7354 0.5182 0.0000
vt 0.7354 0.5070 0.0000
vt 0.7348 0.2403 0.0000
vt 0.9851 0.2399 0.0000
vt 0.9851 0.5070 0.0000
vt 0.4144 0.5287 0.0000
vt 0.4144 0.6404 0.0000
vt 0.2927 0.6404 0.0000
vt 0.2927 0.5287 0.0000
vt 0.9851 0.9866 0.0000
vt 0.7354 0.9866 0.0000
vt 0.4093 0.7969 0.0000
vt 0.2728 0.7969 0.0000
vt 0.2728 0.6623 0.0000
vt 0.4093 0.6623 0.0000
vt 0.1860 0.5287 0.0000
vt 0.1860 0.6404 0.0000
vt 0.8553 0.2191 0.0000
vt 0.7371 0.2186 0.0000
vt 0.7372 0.1144 0.0000
vt 0.8566 0.1153 0.0000
vt 0.2817 0.3555 0.0000
vt 0.0120 0.3555 0.0000
vt 0.0120 0.0116 0.0000
vt 0.2817 0.0116 0.0000
vt 0.7364 0.0125 0.0000
vt 0.7756 0.0290 0.0000
vt 0.7763 0.0907 0.0000
vt 0.8583 0.0124 0.0000
vt 0.8391 0.0287 0.0000
vt 0.8381 0.0910 0.0000
vt 0.7137 0.3752 0.0000
vt 0.7137 0.9888 0.0000
vt 0.4454 0.8218 0.0000
vt 0.4454 0.5076 0.0000
vt 0.0122 0.9888 0.0000
vt 0.1501 0.8218 0.0000
vt 0.0122 0.3752 0.0000
vt 0.1501 0.5076 0.0000
vt 0.4411 0.5118 0.0000
vt 0.1543 0.5118 0.0000
vt 0.1543 0.8176 0.0000
vt 0.4411 0.8176 0.0000
vt 0.2603 0.7048 0.0000
vt 0.2248 0.7048 0.0000
vt 0.2248 0.6579 0.0000
vt 0.2603 0.6579 0.0000
vt 0.5239 0.0406 0.0000
vt 0.5239 0.1767 0.0000
vt 0.3071 0.1767 0.0000
vt 0.3071 0.0406 0.0000
vt 0.2114 0.7544 0.0000
vt 0.1867 0.7851 0.0000
vt 0.1867 0.6577 0.0000
vt 0.2114 0.6577 0.0000
vt 0.5780 0.1767 0.0000
vt 0.5780 0.0406 0.0000
vt 0.7116 0.0406 0.0000
vt 0.7116 0.1767 0.0000
vt 0.2582 0.7544 0.0000
vt 0.2585 0.7976 0.0000
vt 0.1968 0.7976 0.0000
vt 0.2603 0.7393 0.0000
vt 0.2248 0.7393 0.0000
vt 0.5354 0.3523 0.0000
vt 0.5780 0.2005 0.0000
vt 0.7116 0.2005 0.0000
vt 0.7116 0.3523 0.0000
vt 0.5239 0.2005 0.0000
vt 0.3071 0.3523 0.0000
vt 0.3071 0.2005 0.0000
vt 0.7116 0.0167 0.0000
vt 0.5780 0.0167 0.0000
vt 0.3071 0.0167 0.0000
vt 0.5239 0.0167 0.0000
vt 0.8833 0.0087 1.4128
vt 0.9903 0.0087 1.4128
vt 0.9903 0.2111 0.0000
vt 0.8833 0.2111 0.0000
# 82 texture coords

g base
usemtl Material__2
s 2
f 1/1/1 2/2/1 3/3/1 
f 3/3/1 4/4/1 1/1/1 
s 4
f 1/5/2 5/6/2 6/7/2 
f 6/7/2 2/8/2 1/5/2 
s 1
f 7/9/3 8/10/4 9/11/5 
f 9/11/5 10/12/6 7/9/3 
s 4
f 3/8/7 11/7/7 12/6/7 
f 12/6/7 4/5/7 3/8/7 
s 1
f 6/13/8 11/14/8 3/3/8 
f 3/3/8 2/2/8 6/13/8 
s 2
f 6/15/9 5/16/9 12/17/9 
f 12/17/9 11/18/9 6/15/9 
s 1
f 8/11/4 7/12/3 13/19/10 
f 13/19/10 14/20/11 8/11/4 
f 9/21/5 8/22/4 14/23/11 
f 14/23/11 15/24/12 9/21/5 
f 10/12/6 9/11/5 15/20/12 
f 15/20/12 16/19/13 10/12/6 
f 7/25/3 10/26/6 16/27/13 
f 16/27/13 13/28/10 7/25/3 
f 14/23/11 13/29/10 17/30/14 
f 17/30/14 18/31/15 14/23/11 
f 13/29/10 16/32/13 19/33/16 
f 19/33/16 17/30/14 13/29/10 
f 16/32/13 15/24/12 20/34/17 
f 20/34/17 19/33/16 16/32/13 
f 15/24/12 14/23/11 18/31/15 
f 18/31/15 20/34/17 15/24/12 
f 5/35/18 1/36/19 21/37/20 
f 21/37/20 22/38/21 5/35/18 
f 4/39/22 23/40/23 21/37/20 
f 21/37/20 1/36/19 4/39/22 
f 12/41/24 24/42/25 23/40/23 
f 23/40/23 4/39/22 12/41/24 
f 12/41/24 5/35/18 22/38/21 
f 22/38/21 24/42/25 12/41/24 
f 22/38/21 17/43/14 19/44/16 
f 19/44/16 24/42/25 22/38/21 
f 24/42/25 19/44/16 20/45/17 
f 20/45/17 23/40/23 24/42/25 
f 23/40/23 20/45/17 18/46/15 
f 18/46/15 21/37/20 23/40/23 
f 21/37/20 18/46/15 17/43/14 
f 17/43/14 22/38/21 21/37/20 
f 25/47/26 26/48/26 27/49/27 
f 27/49/27 28/50/27 25/47/26 
f 29/51/28 30/52/29 31/53/30 
f 31/53/30 32/54/31 29/51/28 
s 2
f 26/55/32 33/56/32 34/57/33 
f 34/57/33 27/58/33 26/55/32 
s 1
f 35/59/34 36/60/35 37/61/36 
f 37/61/36 38/62/37 35/59/34 
s 2
f 26/55/32 39/63/32 40/64/33 
f 40/64/33 41/65/32 26/55/32 
s 1
f 26/48/26 25/47/26 42/66/38 
f 42/66/38 39/67/38 26/48/26 
s 2
f 25/68/39 43/69/39 44/70/39 
f 44/70/39 42/71/40 25/68/39 
s 1
f 29/51/28 36/60/35 35/59/34 
f 35/59/34 30/52/29 29/51/28 
s 2
f 25/68/39 45/72/39 43/69/39 
f 25/68/39 28/73/39 46/74/39 
f 46/74/39 45/72/39 25/68/39 
f 26/55/32 41/65/32 33/56/32 
s 1
f 30/52/29 45/72/41 46/74/42 
f 46/74/42 31/53/30 30/52/29 
f 40/75/43 37/61/36 36/60/35 
f 36/60/35 41/76/44 40/75/43 
f 34/77/45 33/78/46 29/51/28 
f 29/51/28 32/54/31 34/77/45 
f 43/69/47 35/59/34 38/62/37 
f 38/62/37 44/70/48 43/69/47 
f 29/51/28 33/78/46 41/76/44 
f 41/76/44 36/60/35 29/51/28 
f 35/59/34 43/69/47 45/72/41 
f 45/72/41 30/52/29 35/59/34 
f 47/47/49 28/50/27 27/49/27 
f 27/49/27 48/48/49 47/47/49 
f 31/53/30 49/52/50 50/51/51 
f 50/51/51 32/54/31 31/53/30 
s 2
f 34/57/33 51/56/32 48/55/32 
f 48/55/32 27/58/33 34/57/33 
s 1
f 52/62/52 53/61/53 54/60/54 
f 54/60/54 55/59/55 52/62/52 
s 2
f 56/63/32 48/55/32 57/65/32 
f 57/65/32 58/64/32 56/63/32 
s 1
f 48/48/49 56/67/56 59/66/56 
f 59/66/56 47/47/49 48/48/49 
s 2
f 47/68/40 59/71/40 60/70/40 
f 60/70/40 61/69/40 47/68/40 
s 1
f 50/51/51 49/52/50 55/59/55 
f 55/59/55 54/60/54 50/51/51 
s 2
f 47/68/40 61/69/40 62/72/40 
f 47/68/40 62/72/40 46/74/39 
f 46/74/39 28/73/39 47/68/40 
f 48/55/32 51/56/32 57/65/32 
s 1
f 49/52/50 31/53/30 46/74/42 
f 46/74/42 62/72/57 49/52/50 
f 54/60/54 53/61/53 58/75/58 
f 58/75/58 57/76/59 54/60/54 
f 51/78/60 34/77/45 32/54/31 
f 32/54/31 50/51/51 51/78/60 
f 52/62/52 55/59/55 61/69/61 
f 61/69/61 60/70/62 52/62/52 
f 50/51/51 54/60/54 57/76/59 
f 57/76/59 51/78/60 50/51/51 
f 55/59/55 49/52/50 62/72/57 
f 62/72/57 61/69/61 55/59/55 
f 63/79/24 64/80/24 65/81/24 
f 65/81/24 66/82/24 63/79/24 
# 110 faces

