# 3ds Max Wavefront OBJ Exporter v0.97b - (c)2007 guruware
# File Created: 18.01.2021 10:09:39

mtllib peach.mtl

#
# object base
#

v  50.0000 82.9973 -50.0000
v  37.2863 72.6190 -50.0000
v  43.1815 71.0612 -36.7228
v  52.4051 71.9130 -30.9949
v  62.2969 73.5367 -37.0111
v  66.8559 74.9000 -50.0000
v  31.3589 65.7469 -30.2477
v  45.5514 52.6693 -16.1599
v  48.1293 53.4906 -13.1536
v  74.4482 57.0058 -23.9456
v  83.8230 58.9899 -50.0000
v  26.6770 12.1960 -26.6770
v  21.6678 28.4715 -21.1009
v  9.1306 28.1884 -50.0000
v  20.6066 10.7788 -50.0000
v  48.5302 11.7658 -17.0163
v  45.8578 29.8887 -9.1306
v  42.0904 29.8887 -12.9110
v  45.4943 13.1944 -20.2028
v  73.3230 12.1960 -26.6770
v  78.0487 33.1011 -21.1009
v  82.9837 10.8733 -50.0000
v  90.6805 35.4632 -50.0000
v  52.0216 5.7431 -50.0000
v  23.9456 52.5651 -23.9456
v  14.1929 55.0217 -50.0000
v  24.3514 65.9994 -50.0000
v  43.1815 71.0612 -63.2772
v  52.4051 71.9130 -69.0051
v  62.2969 73.5367 -62.9889
v  31.3589 65.7469 -69.7523
v  45.5514 52.6693 -83.8401
v  48.1293 53.4906 -86.8464
v  74.4482 57.0058 -76.0544
v  26.6770 12.1960 -73.3230
v  21.6678 28.4715 -78.8991
v  48.5302 11.7658 -82.9837
v  45.4943 13.1944 -79.7972
v  42.0904 29.8887 -87.0890
v  45.8578 29.8887 -90.8694
v  73.3230 12.1960 -73.3230
v  78.0487 33.1011 -78.8991
v  23.9456 52.5651 -76.0544
v  64.0164 -2.5859 -41.1677
v  51.7508 5.0008 -49.9856
v  63.7506 1.1102 -49.9856
v  103.0330 15.5907 -49.9856
v  79.6130 5.3414 -49.9856
v  95.8302 10.0106 -42.4092
v  61.9358 0.7769 -58.8036
v  93.1565 9.0685 -58.6472
v  64.3198 4.1290 -49.9856
v  78.4409 1.6841 -62.6978
v  78.4409 -1.3235 -39.2710
v  80.7094 2.4253 -49.9856
v  44.1481 2.2919 -60.2396
v  50.8576 7.6027 -50.6756
v  42.8255 1.1270 -52.9708
v  8.9329 1.3747 -62.0120
v  29.5908 -0.0464 -56.5310
v  17.6009 -0.8323 -66.3218
v  42.3927 1.2134 -45.4354
v  16.3877 -1.1218 -52.5671
v  41.5502 3.3440 -53.2595
v  28.7563 -2.8355 -45.7919
v  33.2445 -0.7764 -64.8669
v  29.5719 -2.6559 -56.5970
v  55.5614 0.0000 -50.0092
v  49.2914 0.0000 -53.6292
v  49.8864 6.8559 -52.5985
v  54.3714 6.8559 -50.0092
v  49.2914 0.0000 -46.3892
v  49.8864 6.8559 -47.4198
# 73 vertices

vn -0.1423 0.9898 -0.0000
vn -0.4957 0.8685 -0.0000
vn -0.3554 0.8705 0.3404
vn 0.0127 0.7721 0.6353
vn 0.4000 0.7943 0.4574
vn 0.5785 0.8157 -0.0000
vn -0.4600 0.7396 0.4913
vn -0.5469 0.4149 0.7271
vn -0.2444 0.4343 0.8669
vn 0.6101 0.4529 0.6501
vn 0.8707 0.4919 -0.0000
vn -0.4593 -0.7388 0.4931
vn -0.6852 -0.1364 0.7155
vn -0.9862 -0.1654 -0.0000
vn -0.5783 -0.8158 0.0000
vn -0.2008 -0.7342 0.6486
vn -0.2248 -0.1069 0.9685
vn -0.5409 -0.1139 0.8333
vn -0.4649 -0.7495 0.4713
vn 0.5027 -0.6910 0.5195
vn 0.6941 -0.0573 0.7176
vn 0.7075 -0.7068 0.0000
vn 1.0000 0.0032 -0.0000
vn 0.0038 -1.0000 -0.0000
vn -0.6516 0.3718 0.6612
vn -0.8988 0.4385 -0.0000
vn -0.6415 0.7672 0.0000
vn -0.3554 0.8705 -0.3404
vn 0.0127 0.7721 -0.6353
vn 0.4000 0.7943 -0.4574
vn -0.4600 0.7396 -0.4913
vn -0.5469 0.4149 -0.7271
vn -0.2444 0.4343 -0.8669
vn 0.6101 0.4529 -0.6501
vn -0.4593 -0.7388 -0.4931
vn -0.6852 -0.1364 -0.7155
vn -0.2008 -0.7342 -0.6486
vn -0.4649 -0.7495 -0.4713
vn -0.5409 -0.1139 -0.8333
vn -0.2248 -0.1069 -0.9685
vn 0.5027 -0.6910 -0.5195
vn 0.6941 -0.0573 -0.7176
vn -0.6516 0.3718 -0.6612
vn -0.0347 -0.9305 -0.3647
vn -0.3062 -0.9444 -0.1199
vn -0.1085 -0.9793 -0.1709
vn -0.4005 0.9153 0.0433
vn -0.2975 0.9468 0.1228
vn -0.3978 0.8591 0.3220
vn -0.0815 -0.9949 0.0601
vn -0.3897 0.8930 -0.2251
vn -0.0289 0.9429 -0.3319
vn -0.0120 0.9888 0.1486
vn -0.2370 0.9392 -0.2484
vn -0.0451 0.8131 0.5804
vn -0.2607 0.8323 0.4892
vn 0.2380 -0.9712 0.0142
vn 0.4924 -0.8694 0.0409
vn 0.3292 -0.9368 -0.1187
vn 0.5047 -0.8488 -0.1576
vn 0.2815 -0.9227 -0.2632
vn 0.0686 0.9895 0.1273
vn 0.5074 -0.8604 -0.0463
vn 0.4243 -0.9033 -0.0639
vn 0.6243 -0.7809 0.0185
vn 0.4523 -0.8918 -0.0092
vn 0.0694 0.9976 -0.0030
vn -0.1085 0.9929 0.0496
vn 0.1002 0.9745 -0.2009
vn 0.4209 -0.9066 0.0290
vn -0.0022 0.9669 0.2551
vn -0.3735 0.8891 0.2646
vn -0.3440 0.9387 0.0211
vn -0.1621 0.9581 0.2362
vn -0.2559 0.9401 -0.2251
vn -0.1090 0.9850 -0.1340
vn 0.1114 -0.9937 -0.0081
vn -0.1464 -0.9837 -0.1044
vn 0.0833 -0.9938 -0.0740
vn -0.1586 -0.9873 0.0101
vn 0.1833 -0.9731 -0.1397
vn -0.4231 0.9056 0.0314
vn -0.1854 -0.9824 -0.0245
vn 0.9853 0.1710 -0.0000
vn -0.4926 0.1710 -0.8533
vn 0.9853 0.1710 0.0000
vn -0.4926 0.1710 0.8533
vn 0.0000 -1.0000 -0.0000
# 88 vertex normals

vt 0.9844 0.9885 0.0000
vt 0.7598 0.7632 0.0000
vt 0.8979 0.7632 0.0000
vt 0.9844 0.7632 0.0000
vt 0.0164 0.9885 0.0000
vt 0.0164 0.7632 0.0000
vt 0.1328 0.7632 0.0000
vt 0.2450 0.7632 0.0000
vt 0.8314 0.6669 0.0000
vt 0.6612 0.0471 0.0000
vt 0.6612 0.0149 0.0000
vt 0.8449 0.0149 0.0000
vt 0.0164 0.5519 0.0000
vt 0.2336 0.5519 0.0000
vt 0.4532 0.5519 0.0000
vt 0.8399 0.2001 0.0000
vt 0.8062 0.3606 0.0000
vt 0.5648 0.3606 0.0000
vt 0.6529 0.2001 0.0000
vt 0.3563 0.0149 0.0000
vt 0.4952 0.0149 0.0000
vt 0.4952 0.0471 0.0000
vt 0.3563 0.0471 0.0000
vt 0.2042 0.2001 0.0000
vt 0.2425 0.3606 0.0000
vt 0.0164 0.3606 0.0000
vt 0.0164 0.2001 0.0000
vt 0.3951 0.2001 0.0000
vt 0.4773 0.3606 0.0000
vt 0.9844 0.0088 0.0000
vt 0.9844 0.2001 0.0000
vt 0.0164 0.0088 0.0000
vt 0.8030 0.5519 0.0000
vt 0.5870 0.5519 0.0000
vt 0.6660 0.6669 0.0000
vt 0.9844 0.5519 0.0000
vt 0.9844 0.3606 0.0000
vt 0.1873 0.0149 0.0000
vt 0.3551 0.7420 -0.2500
vt 0.2442 0.8510 -0.2500
vt 0.3552 0.8510 -0.2500
vt 0.7836 0.8510 0.2500
vt 0.5148 0.8510 0.2500
vt 0.6937 0.7564 0.2500
vt 0.3551 0.9615 -0.2500
vt 0.6823 0.9504 0.2500
vt 0.3551 0.9615 0.2500
vt 0.3553 0.8510 0.2500
vt 0.5148 0.9846 0.2500
vt 0.3551 0.7420 0.2500
vt 0.5148 0.7196 0.2500
vt 0.5148 0.9846 -0.2500
vt 0.6823 0.9504 -0.2500
vt 0.5148 0.8510 -0.2500
vt 0.6937 0.7564 -0.2500
vt 0.5148 0.7196 -0.2500
vt 0.2442 0.8510 0.2500
vt 0.7836 0.8510 -0.2500
vt 0.6417 0.0757 1.0000
vt 0.6417 0.1583 1.0000
vt 0.4145 0.1583 1.0000
vt 0.4145 0.0757 1.0000
vt 0.5994 0.6832 -0.2500
vt 0.4305 0.6832 -0.2500
vt 0.5163 0.5420 -0.2500
# 65 texture coords

g base
usemtl Material__254
s 1
f 1/1/1 2/2/2 3/3/3 
f 1/1/1 3/3/3 4/4/4 
f 1/5/1 4/6/4 5/7/5 
f 1/5/1 5/7/5 6/8/6 
f 2/2/2 7/9/7 3/3/3 
f 8/10/8 9/11/9 4/12/4 
f 9/13/9 10/14/10 5/7/5 
f 5/7/5 4/6/4 9/13/9 
f 10/14/10 11/15/11 6/8/6 
f 6/8/6 5/7/5 10/14/10 
f 12/16/12 13/17/13 14/18/14 
f 14/18/14 15/19/15 12/16/12 
f 16/20/16 17/21/17 18/22/18 
f 18/22/18 19/23/19 16/20/16 
f 20/24/20 21/25/21 17/26/17 
f 17/26/17 16/27/16 20/24/20 
f 22/28/22 23/29/23 21/25/21 
f 21/25/21 20/24/20 22/28/22 
f 24/30/24 12/16/12 15/19/15 
f 24/30/24 19/31/19 12/16/12 
f 24/32/24 20/24/20 16/27/16 
f 24/32/24 22/28/22 20/24/20 
f 14/18/14 13/17/13 25/33/25 
f 25/33/25 26/34/26 14/18/14 
f 17/21/17 9/11/9 8/10/8 
f 8/10/8 18/22/18 17/21/17 
f 17/26/17 21/25/21 10/14/10 
f 10/14/10 9/13/9 17/26/17 
f 21/25/21 23/29/23 11/15/11 
f 11/15/11 10/14/10 21/25/21 
f 27/35/27 26/34/26 25/33/25 
f 25/33/25 7/9/7 27/35/27 
f 4/4/4 7/9/7 8/36/8 
f 8/36/8 7/9/7 25/33/25 
f 25/33/25 13/17/13 18/37/18 
f 18/37/18 8/36/8 25/33/25 
f 18/37/18 13/17/13 12/16/12 
f 12/16/12 19/31/19 18/37/18 
f 24/38/24 16/20/16 19/23/19 
f 4/4/4 3/3/3 7/9/7 
f 2/2/2 27/35/27 7/9/7 
f 1/1/1 28/3/28 2/2/2 
f 1/1/1 29/4/29 28/3/28 
f 1/5/1 30/7/30 29/6/29 
f 1/5/1 6/8/6 30/7/30 
f 2/2/2 28/3/28 31/9/31 
f 32/10/32 29/12/29 33/11/33 
f 33/13/33 29/6/29 30/7/30 
f 30/7/30 34/14/34 33/13/33 
f 34/14/34 30/7/30 6/8/6 
f 6/8/6 11/15/11 34/14/34 
f 35/16/35 15/19/15 14/18/14 
f 14/18/14 36/17/36 35/16/35 
f 37/20/37 38/23/38 39/22/39 
f 39/22/39 40/21/40 37/20/37 
f 41/24/41 37/27/37 40/26/40 
f 40/26/40 42/25/42 41/24/41 
f 22/28/22 41/24/41 42/25/42 
f 42/25/42 23/29/23 22/28/22 
f 24/30/24 15/19/15 35/16/35 
f 24/30/24 35/16/35 38/31/38 
f 24/32/24 37/27/37 41/24/41 
f 24/32/24 41/24/41 22/28/22 
f 14/18/14 26/34/26 43/33/43 
f 43/33/43 36/17/36 14/18/14 
f 40/21/40 39/22/39 32/10/32 
f 32/10/32 33/11/33 40/21/40 
f 40/26/40 33/13/33 34/14/34 
f 34/14/34 42/25/42 40/26/40 
f 42/25/42 34/14/34 11/15/11 
f 11/15/11 23/29/23 42/25/42 
f 27/35/27 31/9/31 43/33/43 
f 43/33/43 26/34/26 27/35/27 
f 29/4/29 32/36/32 31/9/31 
f 32/36/32 43/33/43 31/9/31 
f 43/33/43 32/36/32 39/37/39 
f 39/37/39 36/17/36 43/33/43 
f 39/37/39 38/31/38 35/16/35 
f 35/16/35 36/17/36 39/37/39 
f 24/38/24 38/23/38 37/20/37 
f 29/4/29 31/9/31 28/3/28 
f 2/2/2 31/9/31 27/35/27 
s 2
f 44/39/44 45/40/45 46/41/46 
s 1
f 47/42/47 48/43/48 49/44/49 
s 2
f 45/40/45 50/45/50 46/41/46 
s 1
f 47/42/47 51/46/51 48/43/48 
f 50/47/52 52/48/53 48/43/48 
f 48/43/48 53/49/54 50/47/52 
f 48/43/48 52/48/53 44/50/55 
f 44/50/55 54/51/56 48/43/48 
s 2
f 53/52/57 51/53/58 55/54/59 
f 55/54/59 49/55/60 54/56/61 
s 1
f 50/47/52 45/57/62 52/48/53 
f 52/48/53 45/57/62 44/50/55 
s 2
f 50/45/50 53/52/57 55/54/59 
f 55/54/59 46/41/46 50/45/50 
f 55/54/59 54/56/61 44/39/44 
f 44/39/44 46/41/46 55/54/59 
s 1
f 48/43/48 54/51/56 49/44/49 
f 51/46/51 53/49/54 48/43/48 
s 2
f 51/53/58 47/58/63 55/54/59 
f 55/54/59 47/58/63 49/55/60 
f 56/39/64 57/40/65 58/41/66 
s 1
f 59/42/67 60/43/68 61/44/69 
s 2
f 57/40/65 62/45/70 58/41/66 
s 1
f 59/42/67 63/46/71 60/43/68 
f 62/47/72 64/48/73 60/43/68 
f 60/43/68 65/49/74 62/47/72 
f 60/43/68 64/48/73 56/50/75 
f 56/50/75 66/51/76 60/43/68 
s 2
f 65/52/77 63/53/78 67/54/79 
f 67/54/79 61/55/80 66/56/81 
s 1
f 62/47/72 57/57/82 64/48/73 
f 64/48/73 57/57/82 56/50/75 
s 2
f 62/45/70 65/52/77 67/54/79 
f 67/54/79 58/41/66 62/45/70 
f 67/54/79 66/56/81 56/39/64 
f 56/39/64 58/41/66 67/54/79 
s 1
f 60/43/68 66/51/76 61/44/69 
f 63/46/71 65/49/74 60/43/68 
s 2
f 63/53/78 59/58/83 67/54/79 
f 67/54/79 59/58/83 61/55/80 
s 1
f 68/59/84 69/60/85 70/61/85 
f 70/61/85 71/62/86 68/59/84 
f 69/59/85 72/60/87 73/61/87 
f 73/61/87 70/62/85 69/59/85 
f 72/60/87 68/59/84 71/62/86 
f 71/62/86 73/61/87 72/60/87 
s 2
f 72/63/88 69/64/88 68/65/88 
# 129 faces

