# 3ds Max Wavefront OBJ Exporter v0.97b - (c)2007 guruware
# File Created: 18.01.2021 10:09:54

mtllib pear.mtl

#
# object base
#

v  50.0000 66.1911 -50.0000
v  45.5150 67.6970 -42.6475
v  54.4850 67.0772 -42.6475
v  58.6450 66.6307 -50.0000
v  54.4850 67.0772 -57.3525
v  45.5150 67.6970 -57.3525
v  41.3550 68.1434 -50.0000
v  50.0000 51.9784 -31.6520
v  62.9740 51.9784 -37.0260
v  59.8823 63.2827 -40.1177
v  50.0000 63.2827 -36.0243
v  68.3480 51.9784 -50.0000
v  63.9757 63.2827 -50.0000
v  62.9740 51.9784 -62.9740
v  59.8823 63.2827 -59.8823
v  50.0000 51.9784 -68.3481
v  50.0000 63.2827 -63.9757
v  37.0260 51.9784 -62.9740
v  40.1177 63.2827 -59.8823
v  31.6520 51.9784 -50.0000
v  36.0243 63.2827 -50.0000
v  37.0260 51.9784 -37.0260
v  40.1177 63.2827 -40.1177
v  50.0000 20.2346 -19.7702
v  71.3757 20.2345 -28.6243
v  68.7562 36.8583 -31.2438
v  50.0000 36.8583 -23.4747
v  80.2298 20.2346 -50.0000
v  76.5253 36.8583 -50.0000
v  71.3757 20.2346 -71.3757
v  68.7562 36.8583 -68.7563
v  50.0000 20.2346 -80.2298
v  50.0000 36.8583 -76.5254
v  28.6243 20.2346 -71.3757
v  31.2438 36.8583 -68.7563
v  19.7702 20.2346 -50.0000
v  23.4747 36.8583 -50.0000
v  28.6243 20.2346 -28.6243
v  31.2437 36.8583 -31.2438
v  50.0000 -0.0331 -50.0000
v  68.1349 4.7282 -31.8651
v  50.0000 4.7282 -24.3534
v  75.6466 4.7282 -50.0000
v  68.1349 4.7282 -68.1349
v  50.0000 4.7282 -75.6466
v  31.8651 4.7282 -68.1349
v  24.3534 4.7282 -50.0000
v  31.8651 4.7282 -31.8651
v  44.0786 86.1051 -49.9415
v  45.8443 87.3415 -47.7860
v  47.6100 88.5778 -49.9415
v  45.8443 87.3415 -52.0970
v  48.1079 76.8295 -49.9415
v  49.5395 77.4168 -51.5022
v  50.1308 65.1855 -51.1424
v  48.9300 65.1855 -49.9415
v  49.5395 77.4168 -48.3808
v  50.1308 65.1855 -48.7406
v  50.9710 78.0040 -49.9415
v  51.3317 65.1855 -49.9415
# 60 vertices

vn 0.0790 0.9969 0.0000
vn -0.1424 0.9384 0.3147
vn 0.2097 0.9409 0.2659
vn 0.3392 0.9407 0.0082
vn 0.2055 0.9414 -0.2675
vn -0.1665 0.9374 -0.3060
vn -0.3606 0.9320 -0.0362
vn 0.0000 0.4251 0.9052
vn 0.6400 0.4251 0.6400
vn 0.5794 0.5923 0.5599
vn 0.0068 0.5732 0.8194
vn 0.9052 0.4251 -0.0000
vn 0.7979 0.6028 0.0022
vn 0.6400 0.4251 -0.6400
vn 0.5793 0.5893 -0.5631
vn -0.0000 0.4251 -0.9052
vn 0.0068 0.5732 -0.8194
vn -0.6400 0.4251 -0.6400
vn -0.5921 0.5682 -0.5715
vn -0.9052 0.4251 -0.0000
vn -0.8340 0.5516 -0.0110
vn -0.6400 0.4251 0.6400
vn -0.5913 0.5522 0.5877
vn 0.0000 -0.0321 0.9995
vn 0.7067 -0.0321 0.7067
vn 0.6651 0.3394 0.6651
vn 0.0000 0.3394 0.9407
vn 0.9995 -0.0321 -0.0000
vn 0.9407 0.3394 -0.0000
vn 0.7067 -0.0321 -0.7067
vn 0.6651 0.3394 -0.6651
vn -0.0000 -0.0321 -0.9995
vn -0.0000 0.3394 -0.9407
vn -0.7067 -0.0321 -0.7067
vn -0.6651 0.3394 -0.6651
vn -0.9995 -0.0321 -0.0000
vn -0.9407 0.3394 -0.0000
vn -0.7067 -0.0321 0.7067
vn -0.6651 0.3394 0.6651
vn 0.0000 -1.0000 0.0000
vn 0.5160 -0.6837 0.5160
vn 0.0000 -0.6837 0.7298
vn 0.7298 -0.6837 -0.0000
vn 0.5160 -0.6837 -0.5160
vn -0.0000 -0.6837 -0.7298
vn -0.5160 -0.6837 -0.5160
vn -0.7298 -0.6837 -0.0000
vn -0.5160 -0.6837 0.5160
vn -0.5736 0.8192 0.0000
vn -0.5736 0.8192 -0.0000
vn -0.9738 -0.2274 -0.0011
vn 0.0837 -0.0375 -0.9958
vn 0.0205 -0.0253 -0.9995
vn -0.9973 -0.0736 -0.0017
vn 0.0860 -0.0370 0.9956
vn 0.0242 -0.0240 0.9994
vn 0.9842 0.1769 0.0015
vn 0.9997 0.0240 0.0020
vn -0.9169 -0.3991 -0.0004
vn 0.1358 -0.0061 -0.9907
vn 0.1381 -0.0073 0.9904
vn 0.9536 0.3009 0.0009
# 62 vertex normals

vt 0.4808 0.9841 0.0000
vt 0.3981 0.8394 0.0000
vt 0.5633 0.8394 0.0000
vt 0.6912 0.8394 0.0000
vt 0.2702 0.8394 0.0000
vt 0.4807 0.6009 0.0000
vt 0.6573 0.6009 0.0000
vt 0.6263 0.7348 0.0000
vt 0.4802 0.7348 0.0000
vt 0.8340 0.6009 0.0000
vt 0.7724 0.7348 0.0000
vt 0.3041 0.6009 0.0000
vt 0.3341 0.7348 0.0000
vt 0.1274 0.6009 0.0000
vt 0.1880 0.7348 0.0000
vt 0.4808 0.2693 0.0000
vt 0.7055 0.2693 0.0000
vt 0.6965 0.4239 0.0000
vt 0.4808 0.4239 0.0000
vt 0.9301 0.2693 0.0000
vt 0.9121 0.4239 0.0000
vt 0.2561 0.2693 0.0000
vt 0.2651 0.4239 0.0000
vt 0.0315 0.2693 0.0000
vt 0.0495 0.4239 0.0000
vt 0.4808 0.0168 0.0000
vt 0.6675 0.1352 0.0000
vt 0.4808 0.1352 0.0000
vt 0.8542 0.1352 0.0000
vt 0.2941 0.1352 0.0000
vt 0.1074 0.1352 0.0000
vt 0.0171 0.9811 0.2500
vt 0.0171 0.8322 0.2500
vt 0.1625 0.8322 0.2500
vt 0.1625 0.9811 0.2500
vt 0.8652 0.8200 1.0000
vt 0.9198 0.8200 1.0000
vt 0.9198 0.6581 1.0000
vt 0.8652 0.6581 1.0000
vt 0.9801 0.8200 1.0000
vt 0.9801 0.6581 1.0000
vt 0.8652 0.9840 1.0000
vt 0.9198 0.9840 1.0000
vt 0.9801 0.9840 1.0000
# 44 texture coords

g base
usemtl Material__254
s 1
f 1/1/1 2/2/2 3/3/3 
f 1/1/1 3/3/3 4/4/4 
f 1/1/1 4/4/4 5/3/5 
f 1/1/1 5/3/5 6/2/6 
f 1/1/1 6/2/6 7/5/7 
f 1/1/1 7/5/7 2/2/2 
f 8/6/8 9/7/9 10/8/10 
f 10/8/10 11/9/11 8/6/8 
f 9/7/9 12/10/12 13/11/13 
f 13/11/13 10/8/10 9/7/9 
f 12/10/12 14/7/14 15/8/15 
f 15/8/15 13/11/13 12/10/12 
f 14/7/14 16/6/16 17/9/17 
f 17/9/17 15/8/15 14/7/14 
f 16/6/16 18/12/18 19/13/19 
f 19/13/19 17/9/17 16/6/16 
f 18/12/18 20/14/20 21/15/21 
f 21/15/21 19/13/19 18/12/18 
f 20/14/20 22/12/22 23/13/23 
f 23/13/23 21/15/21 20/14/20 
f 22/12/22 8/6/8 11/9/11 
f 11/9/11 23/13/23 22/12/22 
f 24/16/24 25/17/25 26/18/26 
f 26/18/26 27/19/27 24/16/24 
f 25/17/25 28/20/28 29/21/29 
f 29/21/29 26/18/26 25/17/25 
f 28/20/28 30/17/30 31/18/31 
f 31/18/31 29/21/29 28/20/28 
f 30/17/30 32/16/32 33/19/33 
f 33/19/33 31/18/31 30/17/30 
f 32/16/32 34/22/34 35/23/35 
f 35/23/35 33/19/33 32/16/32 
f 34/22/34 36/24/36 37/25/37 
f 37/25/37 35/23/35 34/22/34 
f 36/24/36 38/22/38 39/23/39 
f 39/23/39 37/25/37 36/24/36 
f 38/22/38 24/16/24 27/19/27 
f 27/19/27 39/23/39 38/22/38 
f 40/26/40 41/27/41 42/28/42 
f 40/26/40 43/29/43 41/27/41 
f 40/26/40 44/27/44 43/29/43 
f 40/26/40 45/28/45 44/27/44 
f 40/26/40 46/30/46 45/28/45 
f 40/26/40 47/31/47 46/30/46 
f 40/26/40 48/30/48 47/31/47 
f 40/26/40 42/28/42 48/30/48 
f 42/28/42 41/27/41 25/17/25 
f 25/17/25 24/16/24 42/28/42 
f 41/27/41 43/29/43 28/20/28 
f 28/20/28 25/17/25 41/27/41 
f 43/29/43 44/27/44 30/17/30 
f 30/17/30 28/20/28 43/29/43 
f 44/27/44 45/28/45 32/16/32 
f 32/16/32 30/17/30 44/27/44 
f 45/28/45 46/30/46 34/22/34 
f 34/22/34 32/16/32 45/28/45 
f 46/30/46 47/31/47 36/24/36 
f 36/24/36 34/22/34 46/30/46 
f 47/31/47 48/30/48 38/22/38 
f 38/22/38 36/24/36 47/31/47 
f 48/30/48 42/28/42 24/16/24 
f 24/16/24 38/22/38 48/30/48 
f 27/19/27 26/18/26 9/7/9 
f 9/7/9 8/6/8 27/19/27 
f 26/18/26 29/21/29 12/10/12 
f 12/10/12 9/7/9 26/18/26 
f 29/21/29 31/18/31 14/7/14 
f 14/7/14 12/10/12 29/21/29 
f 31/18/31 33/19/33 16/6/16 
f 16/6/16 14/7/14 31/18/31 
f 33/19/33 35/23/35 18/12/18 
f 18/12/18 16/6/16 33/19/33 
f 35/23/35 37/25/37 20/14/20 
f 20/14/20 18/12/18 35/23/35 
f 37/25/37 39/23/39 22/12/22 
f 22/12/22 20/14/20 37/25/37 
f 39/23/39 27/19/27 8/6/8 
f 8/6/8 22/12/22 39/23/39 
f 2/2/2 11/9/11 3/3/3 
f 13/11/13 4/4/4 3/3/3 
f 3/3/3 10/8/10 13/11/13 
f 15/8/15 5/3/5 4/4/4 
f 4/4/4 13/11/13 15/8/15 
f 5/3/5 17/9/17 6/2/6 
f 21/15/21 7/5/7 6/2/6 
f 6/2/6 19/13/19 21/15/21 
f 23/13/23 2/2/2 7/5/7 
f 7/5/7 21/15/21 23/13/23 
f 2/2/2 23/13/23 11/9/11 
f 11/9/11 10/8/10 3/3/3 
f 5/3/5 15/8/15 17/9/17 
f 17/9/17 19/13/19 6/2/6 
s 2
f 49/32/49 50/33/49 51/34/49 
f 51/34/49 52/35/50 49/32/49 
s 1
f 53/36/51 54/37/52 55/38/53 
f 55/38/53 56/39/54 53/36/51 
f 57/37/55 53/36/51 56/39/54 
f 56/39/54 58/38/56 57/37/55 
f 59/40/57 57/37/55 58/38/56 
f 58/38/56 60/41/58 59/40/57 
f 54/37/52 59/40/57 60/41/58 
f 60/41/58 55/38/53 54/37/52 
f 49/42/59 52/43/60 54/37/52 
f 54/37/52 53/36/51 49/42/59 
f 50/43/61 49/42/59 53/36/51 
f 53/36/51 57/37/55 50/43/61 
f 51/44/62 50/43/61 57/37/55 
f 57/37/55 59/40/57 51/44/62 
f 52/43/60 51/44/62 59/40/57 
f 59/40/57 54/37/52 52/43/60 
# 110 faces

