# Max2Obj Version 4.0 Mar 10th, 2001
#
# object base to come ...
#
v  77.568848 22.134399 -4.781835
v  22.431152 22.134399 -4.781843
v  22.431152 77.272202 -4.781942
v  77.568848 77.272202 -4.781934
v  89.734161 9.969101 2.525984
v  10.265869 9.969101 2.525971
v  10.265869 9.969101 -6.730346
v  89.734161 9.969101 -6.730334
v  10.265869 89.437401 2.525971
v  10.265869 89.437401 -6.730346
v  89.734161 89.437401 2.525984
v  89.734161 89.437401 -6.730334
v  19.230347 18.933599 -6.730345
v  80.769653 18.933599 -6.730336
v  19.230347 80.472900 -6.730345
v  80.769653 80.472900 -6.730336
# 16 vertices

vt  0.169100 0.169700 0.000000
vt  0.826300 0.169700 0.000000
vt  0.826300 0.827900 0.000000
vt  0.169100 0.827900 0.000000
vt  0.001600 0.002000 0.000000
vt  0.993800 0.002000 0.000000
vt  0.965000 0.030800 0.000000
vt  0.030400 0.030800 0.000000
vt  0.993800 0.995600 0.000000
vt  0.965000 0.966800 0.000000
vt  0.001600 0.995600 0.000000
vt  0.030400 0.966800 0.000000
vt  0.865500 0.130500 0.000000
vt  0.130000 0.130500 0.000000
vt  0.865500 0.867100 0.000000
vt  0.130000 0.867100 0.000000
# 16 texture vertices

vn  -0.207312 0.207312 -0.956056
vn  0.207313 0.207312 -0.956056
vn  0.207303 -0.207311 -0.956059
vn  -0.207302 -0.207311 -0.956059
vn  0.577350 -0.577350 0.577350
vn  -0.577350 -0.577350 0.577350
vn  -0.577350 -0.577350 -0.577350
vn  0.577350 -0.577350 -0.577350
vn  -0.577350 0.577350 0.577350
vn  -0.577350 0.577350 -0.577350
vn  0.577350 0.577350 0.577350
vn  0.577350 0.577350 -0.577350
vn  0.072211 0.072211 -0.994772
vn  -0.072211 0.072211 -0.994772
vn  0.072209 -0.072208 -0.994772
vn  -0.072209 -0.072209 -0.994772
# 16 vertex normals

g base
s 1
f 3/3/3 4/4/4 1/1/1
f 1/1/1 2/2/2 3/3/3
f 7/7/7 8/8/8 5/5/5
f 5/5/5 6/6/6 7/7/7
f 10/10/10 7/7/7 6/6/6
f 6/6/6 9/9/9 10/10/10
f 12/12/12 10/10/10 9/9/9
f 9/9/9 11/11/11 12/12/12
f 8/8/8 12/12/12 11/11/11
f 11/11/11 5/5/5 8/8/8
f 13/13/13 14/14/14 8/8/8
f 8/8/8 7/7/7 13/13/13
f 15/15/15 13/13/13 7/7/7
f 7/7/7 10/10/10 15/15/15
f 16/16/16 15/15/15 10/10/10
f 10/10/10 12/12/12 16/16/16
f 14/14/14 16/16/16 12/12/12
f 12/12/12 8/8/8 14/14/14
f 2/2/2 1/1/1 14/14/14
f 14/14/14 13/13/13 2/2/2
f 3/3/3 2/2/2 13/13/13
f 13/13/13 15/15/15 3/3/3
f 4/4/4 3/3/3 15/15/15
f 15/15/15 16/16/16 4/4/4
f 1/1/1 4/4/4 16/16/16
f 16/16/16 14/14/14 1/1/1
f 9/11/9 6/5/6 5/5/5
f 5/5/5 11/11/11 9/11/9
# 28 faces

g
