# Max2Obj Version 4.0 Mar 10th, 2001
#
# object base to come ...
#
v  -0.190948 0.000000 3.297778
v  -0.190948 100.000000 3.297773
v  1.759399 1.762337 -6.566314
v  1.759399 1.762337 -11.884365
v  -0.190948 0.000000 -11.880843
v  1.759399 98.237663 -11.884366
v  -0.190948 100.000000 -11.880844
v  100.403885 100.000000 -11.880842
v  100.403885 0.000000 -11.880841
v  1.759399 98.237663 -6.566318
v  100.403877 100.000000 3.297785
v  100.403877 0.000000 3.297789
v  98.301208 1.762337 -11.884363
v  98.301208 98.237663 -11.884364
v  98.301208 98.237663 -6.566304
v  98.301208 1.762337 -6.566300
# 16 vertices

vt  0.874836 0.020490 0.000499
vt  0.874836 0.020490 0.000499
vt  0.311481 0.119918 0.646222
vt  0.599180 0.119918 0.646222
vt  0.899300 0.348776 0.999501
vt  0.987656 0.348776 0.999501
vt  0.899300 0.670871 0.999501
vt  0.987656 0.670871 0.999501
vt  0.459591 0.020490 0.000499
vt  0.459591 0.020490 0.000499
vt  0.016669 0.119918 0.646222
vt  0.876462 0.119918 0.646222
vt  0.987656 0.022070 0.999501
vt  0.987656 0.985627 0.999501
vt  0.899300 0.022070 0.999501
vt  0.899300 0.985627 0.999501
vt  0.311481 0.108033 0.999501
vt  0.874836 0.092577 0.999501
vt  0.599180 0.108033 0.999501
vt  0.874836 0.092577 0.999501
vt  0.459591 0.092577 0.999501
vt  0.459591 0.092577 0.999501
vt  0.016669 0.108033 0.999501
vt  0.876462 0.108033 0.999501
vt  0.873680 0.137357 0.646222
vt  0.873680 0.984072 0.646222
vt  0.873680 0.137357 0.000499
vt  0.873680 0.984072 0.000499
vt  0.016352 0.984072 0.000499
vt  0.015957 0.137357 0.646222
vt  0.016352 0.137357 0.000499
vt  0.015958 0.984072 0.646222
vt  0.899300 0.348776 0.999501
vt  0.987656 0.348776 0.999501
vt  0.987656 0.670871 0.999501
vt  0.899300 0.670871 0.999501
vt  0.599180 0.119918 0.646222
vt  0.311481 0.119918 0.646222
vt  0.311481 0.108033 0.999501
vt  0.599180 0.108033 0.999501
vt  0.013524 0.020490 0.000499
vt  0.431455 0.020490 0.000499
vt  0.013524 0.092577 0.999501
vt  0.431455 0.092577 0.999501
vt  0.013524 0.020490 0.000499
vt  0.431455 0.020490 0.000499
vt  0.431455 0.092577 0.999501
vt  0.013524 0.092577 0.999501
# 48 texture vertices

vn  -1.570796 -1.421037 0.000000
vn  -1.570796 1.570796 0.000000
vn  0.577350 0.577350 -0.577350
vn  0.300869 0.300745 -0.905003
vn  -0.152146 -0.000000 -0.835993
vn  0.300869 -0.300745 -0.905003
vn  -1.572306 0.001468 -1.570795
vn  0.000000 1.572190 -0.697565
vn  0.000000 -0.151153 -0.697565
vn  0.577350 -0.577350 -0.577350
vn  -0.000000 1.570797 1.570796
vn  -0.000000 -1.570796 0.782433
vn  -0.300934 0.300725 -0.904988
vn  -0.300934 -0.300725 -0.904988
vn  -0.577350 -0.577350 -0.577350
vn  -0.577350 0.577350 -0.577350
# 16 vertex normals

g base
s 1
f 5/6/5 7/8/7 6/7/6
f 6/7/6 4/5/4 5/6/5
f 6/7/6 7/8/7 8/14/8
f 8/14/8 14/16/14 6/7/6
f 2/42/2 7/44/7 5/43/5
f 5/43/5 1/41/1 2/42/2
f 11/9/11 8/22/8 7/20/7
f 7/20/7 2/2/2 11/9/11
f 16/11/16 13/23/13 4/17/4
f 4/17/4 3/3/3 16/11/16
f 10/4/10 3/3/3 4/17/4
f 4/17/4 6/19/6 10/4/10
f 9/13/9 5/6/5 4/5/4
f 4/5/4 13/15/13 9/13/9
f 1/1/1 5/18/5 9/21/9
f 9/21/9 12/10/12 1/1/1
f 10/4/10 6/19/6 14/24/14
f 14/24/14 15/12/15 10/4/10
f 3/25/3 10/26/10 15/32/15
f 15/32/15 16/30/16 3/25/3
f 2/28/2 1/27/1 12/31/12
f 12/31/12 11/29/11 2/28/2
f 9/34/9 13/33/13 14/36/14
f 14/36/14 8/35/8 9/34/9
f 11/46/11 12/45/12 9/48/9
f 9/48/9 8/47/8 11/46/11
f 15/37/15 14/40/14 13/39/13
f 13/39/13 16/38/16 15/37/15
# 28 faces

g
