# 3ds Max Wavefront OBJ Exporter v0.97b - (c)2007 guruware
# File Created: 05.03.2021 17:34:47

mtllib populus_tea_table.mtl

#
# object base
#

v  179.8270 66.1094 -70.7334
v  195.4141 74.1781 -74.2339
v  195.4141 74.1781 -27.3256
v  179.8270 64.9118 -27.3256
v  30.9403 46.2073 -16.7715
v  7.1744 57.2899 -22.3423
v  26.8114 52.3790 -46.6141
v  152.5846 -0.0000 -4.8035
v  84.9435 -0.0000 -16.7470
v  115.9533 -0.0000 -100.4425
v  166.9870 -0.0000 -95.2870
v  86.8409 73.6922 -2.1124
v  71.1606 71.8857 -4.7277
v  76.6613 56.9516 -4.6038
v  83.2794 53.1323 -4.5948
v  132.5458 97.6816 -71.2339
v  132.5458 97.6816 -22.4271
v  152.5846 97.6814 -2.1472
v  166.9870 97.6814 -95.2870
v  70.2609 49.3943 -82.6586
v  73.8015 57.7833 -101.9482
v  100.6674 40.3047 -100.4425
v  24.7300 -0.0000 -3.2020
v  25.0700 -0.0000 -92.2957
v  74.1604 -0.0000 -86.0853
v  200.0000 -0.0000 -74.2339
v  200.0000 -0.0000 -27.3256
v  17.8578 55.8106 -9.5824
v  42.0704 55.3102 -6.6140
v  146.8622 77.8687 -2.1472
v  142.8799 45.3103 -8.9792
v  43.2267 97.6814 -95.2871
v  6.4687 97.6814 -83.6457
v  37.7945 97.6816 -71.2339
v  200.0000 97.6814 -27.3256
v  200.0000 97.6814 -74.2339
v  32.2287 55.8350 -70.5542
v  43.2267 65.1169 -92.7835
v  166.9870 77.8687 -95.2870
v  147.8182 66.1094 -89.5141
v  184.8986 32.4938 -30.1871
v  184.8986 33.0167 -69.6221
v  6.4686 97.6814 -9.5824
v  7.8942 19.7490 -66.2366
v  62.5723 97.6814 -9.0411
v  51.2988 97.6814 -2.1473
v  45.1689 30.3392 -4.3511
v  9.0411 67.7633 -81.1422
v  60.7179 24.9064 -84.3574
v  27.7315 23.8422 -87.0281
v  100.6674 97.6814 -100.4425
v  3.6237 64.2873 -46.6141
v  -0.0000 97.6814 -46.6141
v  -0.0000 -0.0000 -34.7206
v  2.6864 11.7926 -34.7206
v  6.4017 -0.0000 -66.5146
v  60.0797 74.4785 1.8191
v  69.8106 64.8315 -6.9112
v  60.8947 28.6078 -1.1786
v  75.9072 -0.0000 -0.5192
v  85.7908 29.7500 -3.5685
v  71.8862 34.8893 -3.6067
v  61.4977 34.3478 -6.5259
v  56.7609 40.2039 -2.1473
v  57.6117 53.9537 -2.1544
v  62.6086 53.4924 -8.8084
v  91.6207 28.8850 -12.3774
v  87.5631 52.3278 -8.9958
v  92.2050 97.6814 -2.1473
v  87.4444 97.6814 -9.0411
v  37.7945 97.6816 -22.4272
v  131.7483 99.3583 -70.9037
v  131.7482 99.3583 -22.7574
v  125.3052 99.3583 -65.7835
v  125.3052 99.3583 -27.8776
v  124.5487 94.4348 -65.3773
v  124.5487 94.4348 -28.2837
v  38.5921 99.3583 -22.7574
v  45.0351 99.3583 -27.8776
v  45.7916 94.4348 -28.2838
v  38.5921 99.3583 -70.9037
v  45.0351 99.3583 -65.7835
v  45.7916 94.4348 -65.3773
v  126.3772 93.6178 -29.5669
v  126.3771 96.7546 -29.9886
v  43.9617 96.7546 -29.9886
v  43.9612 93.6178 -29.5670
v  126.3761 96.7546 -36.5258
v  43.9657 96.7546 -36.5258
v  126.3760 93.6305 -37.0444
v  43.9662 93.6305 -37.0444
v  126.3772 93.6178 -56.5372
v  126.3771 96.7546 -56.9588
v  43.9617 96.7546 -56.9588
v  43.9612 93.6178 -56.5372
v  126.3761 96.7546 -63.4960
v  43.9657 96.7546 -63.4960
v  126.3760 93.6305 -64.0146
v  43.9662 93.6305 -64.0146
v  126.3772 93.6178 -47.5190
v  126.3771 96.7546 -47.9406
v  43.9617 96.7546 -47.9406
v  43.9612 93.6178 -47.5190
v  126.3761 96.7546 -54.4778
v  43.9657 96.7546 -54.4778
v  126.3760 93.6305 -54.9964
v  43.9662 93.6305 -54.9964
v  126.3772 93.6178 -38.7082
v  126.3771 96.7546 -39.1298
v  43.9617 96.7546 -39.1298
v  43.9612 93.6178 -38.7082
v  126.3761 96.7546 -45.6670
v  43.9657 96.7546 -45.6670
v  126.3760 93.6305 -46.1856
v  43.9662 93.6305 -46.1856
# 115 vertices

vn 0.3901 -0.8651 -0.3153
vn 0.4047 -0.8838 -0.2349
vn 0.4858 -0.8378 0.2493
vn 0.4545 -0.7645 0.4571
vn -0.3022 -0.8756 0.3768
vn -0.4379 -0.8980 -0.0438
vn -0.4192 -0.8916 -0.1711
vn 0.0000 -1.0000 -0.0000
vn 0.2608 -0.9533 0.1525
vn -0.1338 -0.0005 0.9910
vn 0.1363 0.0257 0.9903
vn -0.1737 -0.0130 0.9847
vn -0.0103 -0.0119 0.9999
vn 0.0000 1.0000 -0.0000
vn 0.0000 1.0000 0.0000
vn -0.3753 -0.8149 -0.4416
vn -0.4107 -0.8061 -0.4260
vn -0.3315 -0.8551 -0.3987
vn -0.3620 -0.8221 0.4395
vn -0.1029 -0.6821 0.7240
vn 0.8100 0.0131 0.5863
vn 0.2280 -0.1328 0.9646
vn 0.2192 -0.0614 0.9738
vn -0.0000 1.0000 -0.0000
vn -0.3058 -0.8784 -0.3672
vn -0.2826 -0.8364 -0.4698
vn 0.3398 -0.8053 -0.4858
vn 0.4596 -0.8593 -0.2243
vn 0.8658 -0.1491 -0.4776
vn 0.8761 -0.1709 -0.4509
vn 0.8598 -0.1678 0.4824
vn 0.8316 -0.1680 0.5293
vn 0.8426 0.1121 -0.5267
vn 0.8179 0.2567 0.5149
vn 0.8498 0.2908 -0.4395
vn -0.4293 -0.1304 0.8937
vn -0.7069 -0.0923 0.7013
vn -0.9124 -0.1499 0.3808
vn -0.5707 0.4988 -0.6523
vn -0.8843 0.2908 -0.3652
vn -0.8382 0.5440 0.0372
vn 0.3013 0.2540 0.9191
vn 0.0736 0.1141 0.9907
vn -0.3136 -0.0728 -0.9468
vn -0.2489 -0.0307 -0.9681
vn -0.0669 0.0207 -0.9975
vn 0.3742 0.1448 -0.9160
vn 0.3942 0.2156 -0.8934
vn -0.0726 0.0188 -0.9972
vn -0.7205 0.2982 0.6260
vn -0.2938 0.1056 0.9500
vn -0.3283 -0.0423 0.9436
vn 0.2730 -0.0724 0.9593
vn -0.7573 -0.1124 -0.6433
vn -0.7461 -0.1190 -0.6551
vn -0.3631 0.2046 -0.9090
vn -0.1457 0.1581 -0.9766
vn -0.3663 0.3344 -0.8683
vn 0.3204 0.0000 -0.9473
vn 0.3376 -0.0203 -0.9411
vn 0.0215 0.0305 -0.9993
vn -0.0674 -0.0238 -0.9974
vn -0.4500 -0.8763 -0.1720
vn -0.3444 -0.8898 -0.2994
vn -0.9955 -0.0946 -0.0081
vn -0.9941 -0.1079 -0.0101
vn -0.9525 0.2170 0.2137
vn -0.4863 0.2203 0.8455
vn -0.9168 0.3155 0.2447
vn -0.1733 -0.0252 -0.9845
vn -0.4032 0.2247 -0.8871
vn -0.9045 0.1255 -0.4076
vn 0.1359 0.0500 0.9895
vn 0.0507 -0.2618 0.9638
vn -0.0176 0.1605 0.9869
vn -0.0167 0.0462 0.9988
vn 0.0589 0.0850 0.9946
vn -0.0742 0.2023 0.9765
vn 0.2908 0.4015 0.8685
vn 0.2545 0.0712 0.9645
vn 0.2479 -0.1787 0.9522
vn 0.3321 -0.1487 0.9314
vn -0.0939 -0.0856 0.9919
vn -0.0307 -0.2396 0.9704
vn -0.4088 0.0926 0.9079
vn -0.4562 0.2146 0.8636
vn -0.0000 1.0000 0.0000
vn 0.6829 -0.2030 0.7018
vn 0.7095 -0.0620 0.7020
vn 0.7332 -0.0177 0.6798
vn 0.8268 -0.0964 0.5541
vn 0.8220 -0.1230 0.5561
vn 0.4232 -0.8748 0.2357
vn 0.2159 0.1349 0.9670
vn -0.1729 -0.1081 0.9790
vn 0.3418 -0.5750 0.7434
vn 0.7928 0.4064 0.4543
vn 0.8031 0.4256 -0.4170
vn 0.6738 0.4377 -0.5953
vn 0.5698 0.4112 -0.7115
vn 0.5698 0.4112 0.7115
vn 0.6738 0.4377 0.5953
vn -0.7112 0.1656 0.6832
vn -0.6799 0.1635 0.7148
vn -0.6799 0.1634 -0.7149
vn -0.7112 0.1656 -0.6832
vn -0.5698 0.4112 0.7115
vn -0.6738 0.4378 0.5953
vn 0.6799 0.1634 -0.7149
vn 0.7112 0.1656 -0.6832
vn -0.5698 0.4112 -0.7115
vn -0.6738 0.4377 -0.5953
vn 0.6799 0.1634 0.7149
vn 0.7112 0.1656 0.6832
vn -0.0000 0.1332 0.9911
vn 0.0000 0.1638 -0.9865
# 116 vertex normals

vt 0.8005 0.8904 0.0000
vt 0.7974 0.9743 0.0000
vt 0.6946 0.9743 0.0000
vt 0.6951 0.8900 0.0000
vt 0.9361 0.7808 0.0000
vt 0.9299 0.8889 0.0000
vt 0.8537 0.7808 0.0000
vt 0.7097 0.5972 0.0000
vt 0.8297 0.6178 0.0000
vt 0.7678 0.7432 0.0000
vt 0.6770 0.7335 0.0000
vt 0.6781 0.4082 0.0000
vt 0.6897 0.3241 0.0000
vt 0.7431 0.3465 0.0000
vt 0.7525 0.4022 0.0000
vt 0.3619 0.9014 0.0000
vt 0.3619 0.7631 0.0000
vt 0.4061 0.6986 0.0000
vt 0.4360 0.9731 0.0000
vt 0.6795 0.7808 0.0000
vt 0.6356 0.8889 0.0000
vt 0.6042 0.7808 0.0000
vt 0.9384 0.5996 0.0000
vt 0.9309 0.7343 0.0000
vt 0.8436 0.7230 0.0000
vt 0.6171 0.7003 0.0000
vt 0.6207 0.6294 0.0000
vt 0.9757 0.8889 0.0000
vt 0.9866 0.7808 0.0000
vt 0.6677 0.5585 0.0000
vt 0.6520 0.3653 0.0000
vt 0.7515 0.3788 0.0000
vt 0.1612 0.9709 0.0000
vt 0.0602 0.9363 0.0000
vt 0.1509 0.9014 0.0000
vt 0.5152 0.7575 0.0000
vt 0.5152 0.9122 0.0000
vt 0.7870 0.7808 0.0000
vt 0.7084 0.8889 0.0000
vt 0.8793 0.9743 0.0000
vt 0.8789 0.8622 0.0000
vt 0.2199 0.6595 0.0000
vt 0.0126 0.6595 0.0000
vt 0.0126 0.3436 0.0000
vt 0.2199 0.3436 0.0000
vt 0.6440 0.9698 0.0000
vt 0.6453 0.7737 0.0000
vt 0.7735 0.7753 0.0000
vt 0.7780 0.9672 0.0000
vt 0.2199 0.5942 0.0000
vt 0.7868 0.4438 0.0000
vt 0.8962 0.3705 0.0000
vt 0.7832 0.3403 0.0000
vt 0.5973 0.4470 0.0000
vt 0.5973 0.5126 0.0000
vt 0.6897 0.4470 0.0000
vt 0.7018 0.4191 0.0000
vt 0.5973 0.4191 0.0000
vt 0.7255 0.2647 0.0000
vt 0.6857 0.0418 0.0000
vt 0.9778 0.0389 0.0000
vt 0.7523 0.2544 0.0000
vt 0.7888 0.2365 0.0000
vt 0.8039 0.1580 0.0000
vt 0.7467 0.1990 0.0000
vt 0.3178 0.2385 0.0000
vt 0.3178 0.0337 0.0000
vt 0.0126 0.0323 0.0000
vt 0.0126 0.2436 0.0000
vt 0.3178 0.2948 0.0000
vt 0.0126 0.2916 0.0000
vt 0.0126 0.0196 0.0000
vt 0.3178 0.0199 0.0000
vt 0.7958 0.5602 0.0000
vt 0.3178 0.2719 0.0000
vt 0.0126 0.2768 0.0000
vt 0.0126 0.0423 0.0000
vt 0.3178 0.0423 0.0000
vt 0.8016 0.5630 0.0000
vt 0.8813 0.5630 0.0000
vt 0.8836 0.4438 0.0000
vt 0.6759 0.5585 0.0000
vt 0.8099 0.5610 0.0000
vt 0.6442 0.4106 0.0000
vt 0.3178 0.2424 0.0000
vt 0.3178 0.0180 0.0000
vt 0.0126 0.0174 0.0000
vt 0.0126 0.2456 0.0000
vt 0.9895 0.9743 0.0000
vt 0.5973 0.1894 0.0000
vt 0.5973 0.0166 0.0000
vt 0.7122 0.0162 0.0000
vt 0.7793 0.1883 0.0000
vt 0.8827 0.8140 0.0000
vt 0.7968 0.9679 0.0000
vt 0.7388 0.8140 0.0000
vt 0.8540 0.8889 0.0000
vt 0.7728 0.8889 0.0000
vt 0.0126 0.5019 0.0000
vt 0.2199 0.4871 0.0000
vt 0.9506 0.2712 0.0000
vt 0.9506 0.1582 0.0000
vt 0.9195 0.2785 0.0000
vt 0.9506 0.5630 0.0000
vt 0.9506 0.4438 0.0000
vt 0.9506 0.3705 0.0000
vt 0.6979 0.9679 0.0000
vt 0.8827 0.9679 0.0000
vt 0.6967 0.5126 0.0000
vt 0.7096 0.5933 0.0000
vt 0.6933 0.6800 0.0000
vt 0.6368 0.5957 0.0000
vt 0.8473 0.3043 0.0000
vt 0.9517 0.3808 0.0000
vt 0.8346 0.4007 0.0000
vt 0.8204 0.3381 0.0000
vt 0.8892 0.6800 0.0000
vt 0.8699 0.5922 0.0000
vt 0.9445 0.6800 0.0000
vt 0.7660 0.5126 0.0000
vt 0.8074 0.2870 0.0000
vt 0.7585 0.2858 0.0000
vt 0.7579 0.2144 0.0000
vt 0.8454 0.2109 0.0000
vt 0.9517 0.2109 0.0000
vt 0.8889 0.9730 0.0000
vt 0.7732 0.8733 0.0000
vt 0.8892 0.8733 0.0000
vt 0.8880 0.0685 0.0000
vt 0.8236 0.2348 0.0000
vt 0.8082 0.0498 0.0000
vt 0.7073 0.0383 0.0000
vt 0.6874 0.2104 0.0000
vt 0.5974 0.0466 0.0000
vt 0.5974 0.2225 0.0000
vt 0.7732 0.5922 0.0000
vt 0.9445 0.8733 0.0000
vt 0.7732 0.6800 0.0000
vt 0.7297 0.9768 0.0000
vt 0.6933 0.8733 0.0000
vt 0.5973 0.4059 0.0000
vt 0.5973 0.3266 0.0000
vt 0.2886 0.9870 0.0000
vt 0.2614 0.7196 0.0000
vt 0.2721 0.6986 0.0000
vt 0.6785 0.4788 0.0000
vt 0.5978 0.4788 0.0000
vt 0.5978 0.5367 0.0000
vt 0.6052 0.9705 0.0000
vt 0.7088 0.9705 0.0000
vt 0.7139 0.9051 0.0000
vt 0.8181 0.9705 0.0000
vt 0.8229 0.8960 0.0000
vt 0.9848 0.9705 0.0000
vt 0.9848 0.8342 0.0000
vt 0.9878 0.2095 0.0000
vt 0.9906 0.0512 0.0000
vt 0.6061 0.9743 0.0000
vt 0.9173 0.7683 0.0000
vt 0.9214 0.9795 0.0000
vt 0.9339 0.3814 0.0000
vt 0.9103 0.4132 0.0000
vt 0.9782 0.6481 0.0000
vt 0.9662 0.6960 0.0000
vt 0.8471 0.5936 0.0000
vt 0.6650 0.2161 0.0000
vt 0.6649 0.2656 0.0000
vt 0.9340 0.2356 0.0000
vt 0.9533 0.5488 0.0000
vt 0.9396 0.5532 0.0000
vt 0.1813 0.6990 0.0000
vt 0.2062 0.7196 0.0000
vt 0.1509 0.7631 0.0000
vt 0.7245 0.9622 0.0000
vt 0.7245 0.9942 0.0000
vt 0.6076 0.9942 0.0000
vt 0.6076 0.9622 0.0000
vt 0.3311 0.8757 0.0000
vt 0.3311 0.8034 0.0000
vt 0.1847 0.8034 0.0000
vt 0.1847 0.8757 0.0000
vt 0.8673 0.0449 0.0000
vt 0.8673 0.0066 0.0000
vt 0.9928 0.0066 0.0000
vt 0.9928 0.0449 0.0000
vt 0.0602 0.7199 0.0000
vt 0.0602 0.8280 0.0000
vt 0.7762 0.0885 0.0000
vt 0.9307 0.0885 0.0000
vt 0.9307 0.1843 0.0000
vt 0.7762 0.1843 0.0000
vt 0.8585 0.9942 0.0000
vt 0.8585 0.9622 0.0000
vt 0.7416 0.9622 0.0000
vt 0.7416 0.9942 0.0000
vt 0.5764 0.6720 0.0000
vt 0.5764 0.5688 0.0000
vt 0.2347 0.5688 0.0000
vt 0.2347 0.6720 0.0000
# 199 texture coords

g base
usemtl 04___Default
s 2
f 1/1/1 2/2/2 3/3/3 
f 3/3/3 4/4/4 1/1/1 
f 5/5/5 6/6/6 7/7/7 
f 8/8/8 9/9/9 10/10/8 
f 10/10/8 11/11/8 8/8/8 
s 1
f 12/12/10 13/13/11 14/14/12 
f 14/14/12 15/15/13 12/12/10 
s 2
f 16/16/14 17/17/15 18/18/15 
f 18/18/15 19/19/14 16/16/14 
f 20/20/16 21/21/17 22/22/18 
f 23/23/8 24/24/8 25/25/8 
f 11/11/8 26/26/8 27/27/8 
f 27/27/8 8/8/8 11/11/8 
f 28/28/19 5/5/5 29/29/20 
s 1
f 4/30/21 30/31/22 31/32/23 
s 2
f 32/33/24 33/34/24 34/35/24 
f 19/19/14 18/18/15 35/36/24 
f 35/36/24 36/37/24 19/19/14 
f 37/38/25 38/39/26 20/20/16 
f 39/40/27 2/2/2 1/1/1 
f 1/1/1 40/41/28 39/40/27 
s 1
f 2/42/29 36/43/30 35/44/31 
f 35/44/31 3/45/32 2/42/29 
f 1/46/33 4/47/21 41/48/34 
f 41/48/34 42/49/35 1/46/33 
f 28/42/36 43/43/37 6/50/38 
f 37/51/39 44/52/40 7/53/41 
f 45/54/42 46/55/43 13/56/11 
f 38/57/44 32/58/45 21/59/46 
f 40/60/47 11/61/48 22/62/49 
f 5/63/50 47/64/51 29/65/52 
f 28/66/36 29/67/52 46/68/43 
f 46/68/43 43/69/37 28/66/36 
f 3/70/32 35/71/31 18/72/53 
f 18/72/53 30/73/22 3/70/32 
f 31/32/23 41/74/34 4/30/21 
f 48/75/54 33/76/55 32/77/45 
f 32/77/45 38/78/44 48/75/54 
f 37/51/39 20/79/56 49/80/57 
f 49/80/57 50/81/58 37/51/39 
f 1/82/33 42/83/35 40/84/47 
f 2/85/29 39/86/59 19/87/60 
f 19/87/60 36/88/30 2/85/29 
s 2
f 22/89/18 39/40/27 40/41/28 
s 1
f 51/90/61 19/91/60 39/92/59 
f 39/92/59 22/93/49 51/90/61 
f 10/94/62 49/95/57 22/96/49 
s 2
f 52/97/63 48/98/64 7/7/7 
s 1
f 53/99/65 33/44/55 48/45/54 
f 48/45/54 52/100/66 53/99/65 
f 54/101/67 23/102/68 55/103/69 
s 2
f 20/20/16 38/39/26 21/21/17 
s 1
f 32/58/45 51/90/61 21/59/46 
f 51/90/61 22/93/49 21/59/46 
f 53/99/65 52/100/66 6/50/38 
f 43/43/37 53/99/65 6/50/38 
s 2
f 6/6/6 52/97/63 7/7/7 
f 5/5/5 28/28/19 6/6/6 
s 1
f 49/80/57 25/104/70 24/105/71 
f 24/105/71 50/81/58 49/80/57 
f 56/106/72 54/101/67 55/103/69 
f 55/103/69 44/52/40 56/106/72 
f 23/102/68 5/63/50 55/103/69 
f 5/63/50 7/53/41 55/103/69 
f 49/95/57 20/107/56 22/96/49 
f 10/94/62 25/108/70 49/95/57 
f 37/51/39 50/81/58 44/52/40 
f 56/106/72 44/52/40 50/81/58 
f 50/81/58 24/105/71 56/106/72 
f 44/52/40 55/103/69 7/53/41 
f 46/55/43 57/109/73 13/56/11 
f 13/110/11 58/111/74 14/112/12 
f 59/113/75 60/114/76 61/115/77 
f 61/115/77 62/116/78 59/113/75 
f 63/117/79 64/118/80 59/119/75 
f 13/56/11 57/109/73 65/120/81 
f 64/121/80 65/122/81 29/123/52 
f 29/123/52 47/124/51 64/121/80 
f 60/114/76 59/113/75 47/124/51 
f 47/124/51 23/125/68 60/114/76 
f 62/126/78 66/127/82 63/128/79 
f 67/129/83 31/130/23 68/131/84 
f 12/132/10 68/131/84 31/130/23 
f 31/130/23 30/133/22 12/132/10 
f 69/134/85 12/132/10 30/133/22 
f 30/133/22 18/135/53 69/134/85 
f 62/116/78 61/115/77 15/15/13 
f 15/15/13 14/14/12 62/116/78 
f 47/124/51 59/113/75 64/121/80 
f 13/110/11 65/136/81 58/111/74 
f 59/137/75 62/126/78 63/128/79 
f 58/111/74 65/136/81 66/138/82 
f 64/118/80 63/117/79 66/138/82 
f 62/126/78 14/139/12 66/127/82 
f 65/136/81 64/118/80 66/138/82 
f 14/139/12 58/140/74 66/127/82 
f 13/13/11 70/141/86 45/142/42 
f 13/13/11 12/12/10 70/141/86 
s 2
f 32/33/24 34/35/24 16/16/14 
f 16/16/14 51/143/24 32/33/24 
f 70/144/87 69/145/14 18/18/15 
s 1
f 12/146/10 69/147/85 70/148/86 
s 2
f 12/149/88 15/150/89 68/151/90 
f 68/151/90 15/150/89 61/152/91 
f 61/152/91 67/153/92 68/151/90 
f 61/152/91 60/154/93 9/155/9 
f 9/155/9 67/153/92 61/152/91 
s 1
f 8/156/94 31/130/23 67/129/83 
f 67/129/83 9/157/95 8/156/94 
s 2
f 4/4/4 3/3/3 30/158/96 
s 1
f 42/49/35 41/48/34 27/159/97 
f 27/159/97 26/160/98 42/49/35 
f 31/32/23 8/161/94 41/74/34 
f 42/83/35 11/162/48 40/84/47 
s 2
f 9/9/9 25/25/8 10/10/8 
f 9/9/9 23/23/8 25/25/8 
f 24/24/8 23/23/8 54/163/8 
f 54/163/8 56/164/8 24/24/8 
f 9/9/9 60/165/93 23/23/8 
s 1
f 46/166/43 29/123/52 57/167/73 
f 57/167/73 29/123/52 65/122/81 
f 5/63/50 23/102/68 47/64/51 
s 2
f 48/98/64 37/38/25 7/7/7 
f 37/38/25 48/98/64 38/39/26 
s 1
f 11/61/48 10/168/62 22/62/49 
f 42/83/35 26/169/98 11/162/48 
f 8/161/94 27/170/97 41/74/34 
s 2
f 46/171/15 45/172/15 71/173/87 
f 71/173/87 45/172/15 70/144/87 
f 70/144/87 17/17/15 71/173/87 
s 1
f 16/174/99 72/175/100 73/176/101 
f 73/176/101 17/177/102 16/174/99 
s 2
f 72/178/14 74/179/14 75/180/14 
f 75/180/14 73/181/14 72/178/14 
s 1
f 74/175/103 76/174/104 77/177/105 
f 77/177/105 75/176/106 74/175/103 
f 17/182/102 73/183/101 78/184/107 
f 78/184/107 71/185/108 17/182/102 
s 2
f 73/181/14 75/180/14 79/179/14 
f 79/179/14 78/178/14 73/181/14 
s 1
f 75/183/106 77/182/105 80/185/109 
f 80/185/109 79/184/110 75/183/106 
f 71/177/108 78/176/107 81/175/111 
f 81/175/111 34/174/112 71/177/108 
s 2
f 78/178/14 79/179/14 82/180/14 
f 82/180/14 81/181/14 78/178/14 
s 1
f 79/176/110 80/177/109 83/174/113 
f 83/174/113 82/175/114 79/176/110 
f 34/182/112 81/183/111 72/184/100 
f 72/184/100 16/185/99 34/182/112 
s 2
f 81/181/14 82/180/14 74/179/14 
f 74/179/14 72/178/14 81/181/14 
s 1
f 82/183/114 83/182/113 76/185/104 
f 76/185/104 74/184/103 82/183/114 
s 2
f 43/186/87 46/171/15 71/173/87 
f 33/34/24 53/187/87 34/35/24 
f 53/187/87 43/186/87 71/173/87 
f 53/187/87 71/173/87 34/35/24 
f 19/19/14 51/143/24 16/16/14 
f 17/17/15 70/144/87 18/18/15 
f 80/188/87 77/189/87 76/190/87 
f 76/190/87 83/191/24 80/188/87 
s 1
f 84/192/115 85/193/115 86/194/115 
f 86/194/115 87/195/115 84/192/115 
s 2
f 85/196/14 88/197/14 89/198/14 
f 89/198/14 86/199/14 85/196/14 
s 1
f 88/193/116 90/192/116 91/195/116 
f 91/195/116 89/194/116 88/193/116 
f 92/192/115 93/193/115 94/194/115 
f 94/194/115 95/195/115 92/192/115 
s 2
f 93/196/14 96/197/14 97/198/14 
f 97/198/14 94/199/14 93/196/14 
s 1
f 96/193/116 98/192/116 99/195/116 
f 99/195/116 97/194/116 96/193/116 
f 100/192/115 101/193/115 102/194/115 
f 102/194/115 103/195/115 100/192/115 
s 2
f 101/196/14 104/197/14 105/198/14 
f 105/198/14 102/199/14 101/196/14 
s 1
f 104/193/116 106/192/116 107/195/116 
f 107/195/116 105/194/116 104/193/116 
f 108/192/115 109/193/115 110/194/115 
f 110/194/115 111/195/115 108/192/115 
s 2
f 109/196/14 112/197/14 113/198/14 
f 113/198/14 110/199/14 109/196/14 
s 1
f 112/193/116 114/192/116 115/195/116 
f 115/195/116 113/194/116 112/193/116 
# 186 faces

