# 3ds Max Wavefront OBJ Exporter v0.97b - (c)2007 guruware
# File Created: 26.01.2021 15:05:20

mtllib refrigerator2.mtl

#
# object lower
#

v  96.8488 7.2752 0.0435
v  0.6656 7.2752 0.0435
v  0.6656 7.2752 -8.9559
v  96.8488 7.2752 -8.9559
v  5.5916 13.0751 -11.2141
v  0.6656 97.3550 -8.9559
v  5.5916 97.3550 -11.2141
v  96.8488 97.3550 -8.9559
v  96.8488 97.3550 0.0218
v  0.6656 97.3550 0.0218
v  91.9227 13.0751 -11.2141
v  100.0000 7.2752 -100.0000
v  100.0000 7.2752 -9.9148
v  0.0000 7.2752 -9.9148
v  0.0000 7.2752 -100.0000
v  99.9988 100.0000 -100.0000
v  99.9988 100.0000 -9.9148
v  0.0012 100.0000 -9.9148
v  0.0012 100.0000 -100.0000
v  96.7356 0.0000 -22.0574
v  94.7628 0.0000 -26.8202
v  94.7628 1.8121 -26.8202
v  96.7356 1.8121 -22.0574
v  90.0000 0.0000 -28.7930
v  90.0000 1.8121 -28.7930
v  85.2372 0.0000 -26.8202
v  85.2372 1.8121 -26.8202
v  83.2644 0.0000 -22.0574
v  83.2644 1.8121 -22.0574
v  85.2372 0.0000 -17.2946
v  85.2372 1.8121 -17.2946
v  90.0000 0.0000 -15.3218
v  90.0000 1.8121 -15.3218
v  94.7628 0.0000 -17.2947
v  94.7628 1.8121 -17.2947
v  91.9713 5.2052 -24.0287
v  92.7878 5.2052 -22.0574
v  90.0000 5.2052 -24.8453
v  88.0287 5.2052 -24.0287
v  87.2122 5.2052 -22.0574
v  88.0287 5.2052 -20.0861
v  90.0000 5.2052 -19.2696
v  91.9713 5.2052 -20.0861
v  91.9713 7.8078 -24.0287
v  92.7878 7.8078 -22.0574
v  90.0000 7.8078 -24.8453
v  88.0287 7.8078 -24.0287
v  87.2122 7.8078 -22.0574
v  88.0287 7.8078 -20.0861
v  90.0000 7.8078 -19.2696
v  91.9713 7.8078 -20.0861
v  96.7356 0.0000 -88.4581
v  94.7628 0.0000 -93.2209
v  94.7628 1.8121 -93.2209
v  96.7356 1.8121 -88.4581
v  90.0000 0.0000 -95.1937
v  90.0000 1.8121 -95.1937
v  85.2372 0.0000 -93.2209
v  85.2372 1.8121 -93.2209
v  83.2644 0.0000 -88.4581
v  83.2644 1.8121 -88.4581
v  85.2372 0.0000 -83.6954
v  85.2372 1.8121 -83.6954
v  90.0000 0.0000 -81.7226
v  90.0000 1.8121 -81.7226
v  94.7628 0.0000 -83.6954
v  94.7628 1.8121 -83.6954
v  91.9713 5.2052 -90.4294
v  92.7878 5.2052 -88.4581
v  90.0000 5.2052 -91.2460
v  88.0287 5.2052 -90.4294
v  87.2122 5.2052 -88.4581
v  88.0287 5.2052 -86.4868
v  90.0000 5.2052 -85.6703
v  91.9713 5.2052 -86.4868
v  91.9713 7.8078 -90.4294
v  92.7878 7.8078 -88.4581
v  90.0000 7.8078 -91.2460
v  88.0287 7.8078 -90.4294
v  87.2122 7.8078 -88.4581
v  88.0287 7.8078 -86.4868
v  90.0000 7.8078 -85.6703
v  91.9713 7.8078 -86.4868
v  16.7356 0.0000 -88.4581
v  14.7628 0.0000 -93.2209
v  14.7628 1.8121 -93.2209
v  16.7356 1.8121 -88.4581
v  10.0000 0.0000 -95.1937
v  10.0000 1.8121 -95.1937
v  5.2372 0.0000 -93.2209
v  5.2372 1.8121 -93.2209
v  3.2644 0.0000 -88.4581
v  3.2644 1.8121 -88.4581
v  5.2372 0.0000 -83.6954
v  5.2372 1.8121 -83.6954
v  10.0000 0.0000 -81.7226
v  10.0000 1.8121 -81.7226
v  14.7628 0.0000 -83.6954
v  14.7628 1.8121 -83.6954
v  11.9713 5.2052 -90.4294
v  12.7878 5.2052 -88.4581
v  10.0000 5.2052 -91.2460
v  8.0287 5.2052 -90.4294
v  7.2122 5.2052 -88.4581
v  8.0287 5.2052 -86.4868
v  10.0000 5.2052 -85.6703
v  11.9713 5.2052 -86.4868
v  11.9713 7.8078 -90.4294
v  12.7878 7.8078 -88.4581
v  10.0000 7.8078 -91.2460
v  8.0287 7.8078 -90.4294
v  7.2122 7.8078 -88.4581
v  8.0287 7.8078 -86.4868
v  10.0000 7.8078 -85.6703
v  11.9713 7.8078 -86.4868
v  16.7356 0.0000 -22.0574
v  14.7628 0.0000 -26.8202
v  14.7628 1.8121 -26.8202
v  16.7356 1.8121 -22.0574
v  10.0000 0.0000 -28.7930
v  10.0000 1.8121 -28.7930
v  5.2372 0.0000 -26.8202
v  5.2372 1.8121 -26.8202
v  3.2644 0.0000 -22.0574
v  3.2644 1.8121 -22.0574
v  5.2372 0.0000 -17.2946
v  5.2372 1.8121 -17.2946
v  10.0000 0.0000 -15.3218
v  10.0000 1.8121 -15.3218
v  14.7628 0.0000 -17.2947
v  14.7628 1.8121 -17.2947
v  11.9713 5.2052 -24.0287
v  12.7878 5.2052 -22.0574
v  10.0000 5.2052 -24.8453
v  8.0287 5.2052 -24.0287
v  7.2122 5.2052 -22.0574
v  8.0287 5.2052 -20.0861
v  10.0000 5.2052 -19.2696
v  11.9713 5.2052 -20.0861
v  11.9713 7.8078 -24.0287
v  12.7878 7.8078 -22.0574
v  10.0000 7.8078 -24.8453
v  8.0287 7.8078 -24.0287
v  7.2122 7.8078 -22.0574
v  8.0287 7.8078 -20.0861
v  10.0000 7.8078 -19.2696
v  11.9713 7.8078 -20.0861
v  94.3340 100.0000 -6.0461
v  94.3340 100.0000 -2.5534
v  94.3347 97.3550 -2.5532
v  94.3348 97.3550 -6.0463
v  3.1804 100.0000 -2.5534
v  3.1804 100.0000 -8.1036
v  3.1796 97.3550 -8.1037
v  3.1796 97.3550 -2.5532
v  88.3071 97.3550 -11.2143
v  88.3063 100.0000 -11.2141
v  9.2081 100.0000 -11.2141
v  9.2073 97.3550 -11.2143
v  91.9227 97.3550 -11.2141
# 160 vertices

vn -0.0000 -1.0000 -0.0000
vn -0.2238 -0.1827 -0.9574
vn -0.1971 -0.2058 -0.9585
vn -0.4167 0.0000 -0.9090
vn 1.0000 0.0000 -0.0000
vn -1.0000 0.0000 -0.0000
vn 0.2238 -0.1827 -0.9574
vn 0.1971 -0.2058 -0.9585
vn 0.0000 -1.0000 0.0000
vn 1.0000 0.0000 0.0000
vn 0.0000 -0.0000 1.0000
vn -1.0000 0.0000 0.0000
vn 0.0000 0.0000 -1.0000
vn 0.7071 0.0000 -0.7071
vn 0.6532 0.3829 -0.6532
vn 0.9238 0.3829 0.0000
vn -0.0000 0.0000 -1.0000
vn -0.0000 0.3829 -0.9238
vn -0.7071 0.0000 -0.7071
vn -0.6532 0.3829 -0.6532
vn -0.9238 0.3829 -0.0000
vn -0.7071 0.0000 0.7071
vn -0.6532 0.3829 0.6532
vn 0.0000 0.0000 1.0000
vn 0.0000 0.3829 0.9238
vn 0.7071 0.0000 0.7071
vn 0.6532 0.3829 0.6532
vn 0.6273 0.4615 -0.6273
vn 0.8871 0.4615 0.0000
vn 0.0000 0.4615 -0.8871
vn -0.6273 0.4615 -0.6273
vn -0.8871 0.4615 -0.0000
vn -0.6273 0.4615 0.6273
vn 0.0000 0.4615 0.8871
vn 0.6273 0.4615 0.6273
vn 0.0000 -1.0000 -0.0000
vn 0.0000 0.3829 -0.9238
vn -0.0000 0.0000 1.0000
vn -0.0000 0.3829 0.9238
vn -0.0000 0.4615 0.8871
vn 1.0000 -0.0000 0.0000
vn -0.7071 -0.0000 0.7071
vn -0.0000 -0.0000 1.0000
vn 0.7071 -0.0000 0.7071
vn 1.0000 0.0003 0.0000
vn 1.0000 0.0003 -0.0000
vn -1.0000 0.0003 -0.0000
vn 0.0000 0.0001 1.0000
vn 0.6509 0.0002 -0.7592
vn -0.4586 0.0002 -0.8886
vn 0.4167 -0.0000 -0.9090
vn 0.0000 0.0002 1.0000
vn -0.0000 1.0000 0.0000
vn -0.0000 1.0000 -0.0000
vn 0.0000 1.0000 -0.0000
vn 0.0000 1.0000 0.0000
# 56 vertex normals

vt 0.7001 0.3532 0.0000
vt 0.7001 0.0525 0.0000
vt 0.7296 0.0525 0.0000
vt 0.7296 0.3532 0.0000
vt 0.7001 0.0065 0.0000
vt 0.7001 0.0240 0.0000
vt 0.4413 0.0240 0.0000
vt 0.4413 0.0065 0.0000
vt 0.4413 0.4091 0.0000
vt 0.4413 0.3532 0.0000
vt 0.7001 0.4091 0.0000
vt 0.4413 0.0525 0.0000
vt 0.7500 0.3532 0.0000
vt 0.7500 0.0525 0.0000
vt 0.7664 0.4240 0.0000
vt 0.7664 0.3532 0.0000
vt 0.8377 0.3532 0.0000
vt 0.8377 0.4240 0.0000
vt 0.3571 0.7157 0.0000
vt 0.6487 0.7157 0.0000
vt 0.6487 0.9907 0.0000
vt 0.3571 0.9907 0.0000
vt 0.6646 0.7141 0.0000
vt 0.9822 0.7141 0.0000
vt 0.9822 0.9891 0.0000
vt 0.6646 0.9891 0.0000
vt 0.0206 0.7141 0.0000
vt 0.3361 0.7141 0.0000
vt 0.3361 0.9891 0.0000
vt 0.0206 0.9891 0.0000
vt 0.9904 0.2945 1.0000
vt 0.9904 0.3606 1.0000
vt 0.9665 0.3606 1.0000
vt 0.9665 0.2945 1.0000
vt 0.9904 0.4266 1.0000
vt 0.9665 0.4266 1.0000
vt 0.8947 0.3612 1.0000
vt 0.8947 0.3311 1.0000
vt 0.8947 0.3913 1.0000
vt 0.8532 0.3612 1.0000
vt 0.8532 0.3311 1.0000
vt 0.8532 0.3913 1.0000
vt 0.8825 0.2966 -0.2500
vt 0.7995 0.2966 -0.2500
vt 0.8410 0.3137 -0.2500
vt 0.7823 0.2551 -0.2500
vt 0.8996 0.2551 -0.2500
vt 0.4056 0.4091 0.0000
vt 0.4056 0.3532 0.0000
vt 0.4231 0.3532 0.0000
vt 0.4231 0.4091 0.0000
vt 0.4056 0.0525 0.0000
vt 0.4056 0.0240 0.0000
vt 0.4231 0.0240 0.0000
vt 0.4231 0.0525 0.0000
vt 0.4231 0.4268 0.0000
vt 0.4056 0.4268 0.0000
vt 0.4056 0.0065 0.0000
vt 0.4231 0.0065 0.0000
vt 0.7001 0.4268 0.0000
vt 0.4413 0.4268 0.0000
# 61 texture coords

g lower
usemtl Material__3
s 4
f 1/1/1 2/2/1 3/3/1 
f 3/3/1 4/4/1 1/1/1 
s 2
f 5/5/2 3/6/3 6/7/4 
f 6/7/4 7/8/4 5/5/2 
s 1
f 8/9/5 9/10/5 1/1/5 
f 1/1/5 4/11/5 8/9/5 
f 10/12/6 6/7/6 3/6/6 
f 3/6/6 2/2/6 10/12/6 
s 2
f 11/13/7 4/4/8 3/3/3 
f 3/3/3 5/14/2 11/13/7 
s 4
f 12/15/9 13/16/9 14/17/9 
f 14/17/9 15/18/9 12/15/9 
s 1
f 16/19/10 17/20/10 13/21/10 
f 13/21/10 12/22/5 16/19/10 
s 2
f 17/23/11 18/24/11 14/25/11 
f 14/25/11 13/26/11 17/23/11 
s 1
f 19/19/12 15/22/6 14/21/12 
f 14/21/12 18/20/12 19/19/12 
s 2
f 19/27/13 16/28/13 12/29/13 
f 12/29/13 15/30/13 19/27/13 
s 1
f 20/31/10 21/32/14 22/33/15 
f 22/33/15 23/34/16 20/31/10 
f 21/32/14 24/35/17 25/36/18 
f 25/36/18 22/33/15 21/32/14 
f 24/35/17 26/32/19 27/33/20 
f 27/33/20 25/36/18 24/35/17 
f 26/32/19 28/31/6 29/34/21 
f 29/34/21 27/33/20 26/32/19 
f 28/31/6 30/32/22 31/33/23 
f 31/33/23 29/34/21 28/31/6 
f 30/32/22 32/35/24 33/36/25 
f 33/36/25 31/33/23 30/32/22 
f 32/35/24 34/32/26 35/33/27 
f 35/33/27 33/36/25 32/35/24 
f 34/32/26 20/31/10 23/34/16 
f 23/34/16 35/33/27 34/32/26 
f 23/34/16 22/33/15 36/37/28 
f 36/37/28 37/38/29 23/34/16 
f 22/33/15 25/36/18 38/39/30 
f 38/39/30 36/37/28 22/33/15 
f 25/36/18 27/33/20 39/37/31 
f 39/37/31 38/39/30 25/36/18 
f 27/33/20 29/34/21 40/38/32 
f 40/38/32 39/37/31 27/33/20 
f 29/34/21 31/33/23 41/37/33 
f 41/37/33 40/38/32 29/34/21 
f 31/33/23 33/36/25 42/39/34 
f 42/39/34 41/37/33 31/33/23 
f 33/36/25 35/33/27 43/37/35 
f 43/37/35 42/39/34 33/36/25 
f 35/33/27 23/34/16 37/38/29 
f 37/38/29 43/37/35 35/33/27 
f 37/38/29 36/37/28 44/40/14 
f 44/40/14 45/41/5 37/38/29 
f 36/37/28 38/39/30 46/42/13 
f 46/42/13 44/40/14 36/37/28 
f 38/39/30 39/37/31 47/40/19 
f 47/40/19 46/42/13 38/39/30 
f 39/37/31 40/38/32 48/41/12 
f 48/41/12 47/40/19 39/37/31 
f 40/38/32 41/37/33 49/40/22 
f 49/40/22 48/41/12 40/38/32 
f 41/37/33 42/39/34 50/42/24 
f 50/42/24 49/40/22 41/37/33 
f 42/39/34 43/37/35 51/40/26 
f 51/40/26 50/42/24 42/39/34 
f 43/37/35 37/38/29 45/41/5 
f 45/41/5 51/40/26 43/37/35 
s 4
f 34/43/36 21/44/36 20/45/36 
f 30/43/36 26/44/36 24/46/36 
f 24/46/36 32/47/36 30/43/36 
f 30/43/36 28/45/36 26/44/36 
f 32/47/36 24/46/36 21/44/36 
f 21/44/36 34/43/36 32/47/36 
s 1
f 52/31/10 53/32/14 54/33/15 
f 54/33/15 55/34/16 52/31/10 
f 53/32/14 56/35/13 57/36/37 
f 57/36/37 54/33/15 53/32/14 
f 56/35/13 58/32/19 59/33/20 
f 59/33/20 57/36/37 56/35/13 
f 58/32/19 60/31/6 61/34/21 
f 61/34/21 59/33/20 58/32/19 
f 60/31/6 62/32/22 63/33/23 
f 63/33/23 61/34/21 60/31/6 
f 62/32/22 64/35/38 65/36/39 
f 65/36/39 63/33/23 62/32/22 
f 64/35/38 66/32/26 67/33/27 
f 67/33/27 65/36/39 64/35/38 
f 66/32/26 52/31/10 55/34/16 
f 55/34/16 67/33/27 66/32/26 
f 55/34/16 54/33/15 68/37/28 
f 68/37/28 69/38/29 55/34/16 
f 54/33/15 57/36/37 70/39/30 
f 70/39/30 68/37/28 54/33/15 
f 57/36/37 59/33/20 71/37/31 
f 71/37/31 70/39/30 57/36/37 
f 59/33/20 61/34/21 72/38/32 
f 72/38/32 71/37/31 59/33/20 
f 61/34/21 63/33/23 73/37/33 
f 73/37/33 72/38/32 61/34/21 
f 63/33/23 65/36/39 74/39/40 
f 74/39/40 73/37/33 63/33/23 
f 65/36/39 67/33/27 75/37/35 
f 75/37/35 74/39/40 65/36/39 
f 67/33/27 55/34/16 69/38/29 
f 69/38/29 75/37/35 67/33/27 
f 69/38/29 68/37/28 76/40/14 
f 76/40/14 77/41/10 69/38/29 
f 68/37/28 70/39/30 78/42/13 
f 78/42/13 76/40/14 68/37/28 
f 70/39/30 71/37/31 79/40/19 
f 79/40/19 78/42/13 70/39/30 
f 71/37/31 72/38/32 80/41/6 
f 80/41/6 79/40/19 71/37/31 
f 72/38/32 73/37/33 81/40/22 
f 81/40/22 80/41/6 72/38/32 
f 73/37/33 74/39/40 82/42/38 
f 82/42/38 81/40/22 73/37/33 
f 74/39/40 75/37/35 83/40/26 
f 83/40/26 82/42/38 74/39/40 
f 75/37/35 69/38/29 77/41/10 
f 77/41/10 83/40/26 75/37/35 
s 4
f 66/43/36 53/44/36 52/45/36 
f 62/43/36 58/44/36 56/46/36 
f 56/46/36 64/47/36 62/43/36 
f 62/43/36 60/45/36 58/44/36 
f 64/47/36 56/46/36 53/44/36 
f 53/44/36 66/43/36 64/47/36 
s 1
f 84/31/10 85/32/14 86/33/15 
f 86/33/15 87/34/16 84/31/10 
f 85/32/14 88/35/13 89/36/37 
f 89/36/37 86/33/15 85/32/14 
f 88/35/13 90/32/19 91/33/20 
f 91/33/20 89/36/37 88/35/13 
f 90/32/19 92/31/6 93/34/21 
f 93/34/21 91/33/20 90/32/19 
f 92/31/6 94/32/22 95/33/23 
f 95/33/23 93/34/21 92/31/6 
f 94/32/22 96/35/38 97/36/39 
f 97/36/39 95/33/23 94/32/22 
f 96/35/38 98/32/26 99/33/27 
f 99/33/27 97/36/39 96/35/38 
f 98/32/26 84/31/10 87/34/16 
f 87/34/16 99/33/27 98/32/26 
f 87/34/16 86/33/15 100/37/28 
f 100/37/28 101/38/29 87/34/16 
f 86/33/15 89/36/37 102/39/30 
f 102/39/30 100/37/28 86/33/15 
f 89/36/37 91/33/20 103/37/31 
f 103/37/31 102/39/30 89/36/37 
f 91/33/20 93/34/21 104/38/32 
f 104/38/32 103/37/31 91/33/20 
f 93/34/21 95/33/23 105/37/33 
f 105/37/33 104/38/32 93/34/21 
f 95/33/23 97/36/39 106/39/40 
f 106/39/40 105/37/33 95/33/23 
f 97/36/39 99/33/27 107/37/35 
f 107/37/35 106/39/40 97/36/39 
f 99/33/27 87/34/16 101/38/29 
f 101/38/29 107/37/35 99/33/27 
f 101/38/29 100/37/28 108/40/14 
f 108/40/14 109/41/10 101/38/29 
f 100/37/28 102/39/30 110/42/17 
f 110/42/17 108/40/14 100/37/28 
f 102/39/30 103/37/31 111/40/19 
f 111/40/19 110/42/17 102/39/30 
f 103/37/31 104/38/32 112/41/6 
f 112/41/6 111/40/19 103/37/31 
f 104/38/32 105/37/33 113/40/22 
f 113/40/22 112/41/6 104/38/32 
f 105/37/33 106/39/40 114/42/24 
f 114/42/24 113/40/22 105/37/33 
f 106/39/40 107/37/35 115/40/26 
f 115/40/26 114/42/24 106/39/40 
f 107/37/35 101/38/29 109/41/10 
f 109/41/10 115/40/26 107/37/35 
s 4
f 98/43/36 85/44/36 84/45/36 
f 94/43/36 90/44/36 88/46/36 
f 88/46/36 96/47/36 94/43/36 
f 94/43/36 92/45/36 90/44/36 
f 96/47/36 88/46/36 85/44/36 
f 85/44/36 98/43/36 96/47/36 
s 1
f 116/31/10 117/32/14 118/33/15 
f 118/33/15 119/34/16 116/31/10 
f 117/32/14 120/35/17 121/36/18 
f 121/36/18 118/33/15 117/32/14 
f 120/35/17 122/32/19 123/33/20 
f 123/33/20 121/36/18 120/35/17 
f 122/32/19 124/31/6 125/34/21 
f 125/34/21 123/33/20 122/32/19 
f 124/31/6 126/32/22 127/33/23 
f 127/33/23 125/34/21 124/31/6 
f 126/32/22 128/35/24 129/36/25 
f 129/36/25 127/33/23 126/32/22 
f 128/35/24 130/32/26 131/33/27 
f 131/33/27 129/36/25 128/35/24 
f 130/32/26 116/31/10 119/34/16 
f 119/34/16 131/33/27 130/32/26 
f 119/34/16 118/33/15 132/37/28 
f 132/37/28 133/38/29 119/34/16 
f 118/33/15 121/36/18 134/39/30 
f 134/39/30 132/37/28 118/33/15 
f 121/36/18 123/33/20 135/37/31 
f 135/37/31 134/39/30 121/36/18 
f 123/33/20 125/34/21 136/38/32 
f 136/38/32 135/37/31 123/33/20 
f 125/34/21 127/33/23 137/37/33 
f 137/37/33 136/38/32 125/34/21 
f 127/33/23 129/36/25 138/39/40 
f 138/39/40 137/37/33 127/33/23 
f 129/36/25 131/33/27 139/37/35 
f 139/37/35 138/39/40 129/36/25 
f 131/33/27 119/34/16 133/38/29 
f 133/38/29 139/37/35 131/33/27 
f 133/38/29 132/37/28 140/40/14 
f 140/40/14 141/41/41 133/38/29 
f 132/37/28 134/39/30 142/42/13 
f 142/42/13 140/40/14 132/37/28 
f 134/39/30 135/37/31 143/40/19 
f 143/40/19 142/42/13 134/39/30 
f 135/37/31 136/38/32 144/41/6 
f 144/41/6 143/40/19 135/37/31 
f 136/38/32 137/37/33 145/40/42 
f 145/40/42 144/41/6 136/38/32 
f 137/37/33 138/39/40 146/42/43 
f 146/42/43 145/40/42 137/37/33 
f 138/39/40 139/37/35 147/40/44 
f 147/40/44 146/42/43 138/39/40 
f 139/37/35 133/38/29 141/41/41 
f 141/41/41 147/40/44 139/37/35 
s 4
f 130/43/36 117/44/36 116/45/36 
f 126/43/36 122/44/36 120/46/36 
f 120/46/36 128/47/36 126/43/36 
f 126/43/36 124/45/36 122/44/36 
f 128/47/36 120/46/36 117/44/36 
f 117/44/36 130/43/36 128/47/36 
s 1
f 148/48/45 149/49/46 150/50/45 
f 150/50/45 151/51/45 148/48/45 
f 152/52/47 153/53/47 154/54/47 
f 154/54/47 155/55/47 152/52/47 
s 2
f 149/49/48 152/52/48 155/55/48 
f 155/55/48 150/50/48 149/49/48 
f 148/48/49 151/51/49 156/56/49 
f 156/56/49 157/57/49 148/48/49 
f 154/54/50 153/53/50 158/58/50 
f 158/58/50 159/59/50 154/54/50 
f 8/9/51 4/11/8 11/60/7 
f 11/60/7 160/61/51 8/9/51 
f 2/2/52 1/1/52 9/10/52 
f 9/10/52 10/12/52 2/2/52 
s 4
f 160/61/53 156/56/53 151/51/53 
f 151/51/53 8/9/53 160/61/53 
f 8/9/53 151/51/53 150/50/54 
f 150/50/54 9/10/54 8/9/53 
f 9/10/54 150/50/54 155/55/55 
f 155/55/55 10/12/55 9/10/54 
f 6/7/56 10/12/55 155/55/55 
f 155/55/55 154/54/56 6/7/56 
f 7/8/56 6/7/56 154/54/56 
f 154/54/56 159/59/56 7/8/56 
# 260 faces

#
# object upper
#

v  99.9976 100.0000 -100.0000
v  99.9976 100.0000 -9.9148
v  99.9988 0.0000 -9.9148
v  99.9988 0.0000 -100.0000
v  0.0012 0.0000 -9.9148
v  0.0024 100.0000 -9.9148
v  0.0024 100.0000 -100.0000
v  0.0012 0.0000 -100.0000
v  91.9227 92.3400 -11.2142
v  96.8488 97.2879 -8.9559
v  96.8488 2.6041 -8.9559
v  91.9227 2.6041 -11.2141
v  5.5916 92.3400 -11.2141
v  0.6656 97.2879 -8.9559
v  96.8488 97.2879 -0.0435
v  0.6656 97.2879 -0.0435
v  0.6656 2.6041 -0.0218
v  96.8488 2.6041 -0.0218
v  94.3332 2.6041 -6.0459
v  94.3332 2.6041 -2.5536
v  94.3340 0.0000 -2.5534
v  94.3340 0.0000 -6.0461
v  3.1804 0.0000 -2.5534
v  3.1812 2.6041 -2.5536
v  3.1812 2.6041 -8.1034
v  3.1804 0.0000 -8.1036
v  88.3063 0.0000 -11.2141
v  88.3056 2.6041 -11.2140
v  9.2088 2.6041 -11.2140
v  9.2081 0.0000 -11.2141
v  0.6656 2.6041 -8.9559
v  5.5916 2.6041 -11.2141
# 32 vertices

vn 1.0000 0.0000 0.0000
vn 1.0000 0.0000 -0.0000
vn -1.0000 0.0000 0.0000
vn -1.0000 0.0000 -0.0000
vn 0.0000 1.0000 -0.0000
vn 0.0000 -0.0000 1.0000
vn 0.0000 0.0000 -1.0000
vn 0.2182 0.2170 -0.9515
vn 0.2175 0.2177 -0.9515
vn 0.4167 -0.0000 -0.9090
vn -0.2182 0.2170 -0.9515
vn -0.2175 0.2177 -0.9515
vn 0.0000 0.0002 1.0000
vn 0.9085 0.0003 -0.4178
vn 1.0000 0.0003 -0.0000
vn -1.0000 0.0003 -0.0000
vn 0.0000 0.0001 1.0000
vn 0.6509 0.0002 -0.7592
vn -0.4586 0.0002 -0.8886
vn -0.4167 0.0000 -0.9090
vn 0.0000 -1.0000 0.0000
vn 0.0000 -1.0000 -0.0000
vn -0.0000 -1.0000 -0.0000
vn -0.0000 -1.0000 0.0000
# 24 vertex normals

vt 0.3571 0.4423 0.0000
vt 0.6487 0.4423 0.0000
vt 0.6487 0.7157 0.0000
vt 0.3571 0.7157 0.0000
vt 0.7657 0.0070 0.0000
vt 0.7657 0.2297 0.0000
vt 0.9918 0.2297 0.0000
vt 0.9918 0.0070 0.0000
vt 0.9822 0.7141 0.0000
vt 0.6646 0.7141 0.0000
vt 0.6646 0.4407 0.0000
vt 0.9822 0.4407 0.0000
vt 0.0206 0.7141 0.0000
vt 0.0206 0.4407 0.0000
vt 0.3361 0.4407 0.0000
vt 0.3361 0.7141 0.0000
vt 0.0600 0.4268 0.0000
vt 0.0596 0.4091 0.0000
vt 0.3708 0.4091 0.0000
vt 0.3708 0.4268 0.0000
vt 0.0301 0.3532 0.0000
vt 0.0123 0.3532 0.0000
vt 0.0123 0.0525 0.0000
vt 0.0301 0.0525 0.0000
vt 0.0596 0.3532 0.0000
vt 0.0596 0.0525 0.0000
vt 0.3708 0.0525 0.0000
vt 0.3708 0.3532 0.0000
vt 0.3875 0.4091 0.0000
vt 0.3875 0.3532 0.0000
vt 0.4056 0.3532 0.0000
vt 0.4056 0.4091 0.0000
vt 0.4056 0.0525 0.0000
vt 0.3875 0.0525 0.0000
vt 0.3875 0.0240 0.0000
vt 0.4056 0.0240 0.0000
vt 0.4056 0.4268 0.0000
vt 0.3875 0.4268 0.0000
vt 0.3875 0.0065 0.0000
vt 0.4056 0.0065 0.0000
vt 0.3708 0.0240 0.0000
vt 0.0596 0.0240 0.0000
vt 0.0595 0.0065 0.0000
vt 0.3708 0.0065 0.0000
# 44 texture coords

g upper
usemtl Material__3
s 1
f 161/62/57 162/63/58 163/64/57 
f 163/64/57 164/65/57 161/62/57 
f 165/64/59 166/63/60 167/62/59 
f 167/62/59 168/65/59 165/64/59 
s 4
f 162/66/61 161/67/61 167/68/61 
f 167/68/61 166/69/61 162/66/61 
s 2
f 165/70/62 163/71/62 162/72/62 
f 162/72/62 166/73/62 165/70/62 
f 168/74/63 167/75/63 161/76/63 
f 161/76/63 164/77/63 168/74/63 
f 169/78/64 170/79/65 171/80/66 
f 171/80/66 172/81/66 169/78/64 
f 170/82/65 169/83/64 173/84/67 
f 173/84/67 174/85/68 170/82/65 
s 4
f 175/86/61 170/82/61 174/85/61 
f 174/85/61 176/87/61 175/86/61 
s 2
f 176/87/69 177/88/69 178/89/69 
f 178/89/69 175/86/69 176/87/69 
s 1
f 179/90/70 180/91/71 181/92/71 
f 181/92/71 182/93/70 179/90/70 
f 183/94/72 184/95/72 185/96/72 
f 185/96/72 186/97/72 183/94/72 
s 2
f 181/92/73 180/91/73 184/95/73 
f 184/95/73 183/94/73 181/92/73 
s 1
f 179/90/70 182/93/70 187/98/74 
f 187/98/74 188/99/74 179/90/70 
s 2
f 186/97/75 185/96/75 189/100/75 
f 189/100/75 190/101/75 186/97/75 
f 191/102/76 174/103/68 173/104/67 
f 173/104/67 192/105/76 191/102/76 
s 1
f 170/79/58 175/86/58 178/89/58 
f 178/89/58 171/80/58 170/79/58 
f 176/87/60 174/103/60 191/102/60 
f 191/102/60 177/88/60 176/87/60 
s 4
f 192/105/77 189/100/77 185/96/77 
f 185/96/77 191/102/77 192/105/77 
f 191/102/77 185/96/77 184/95/78 
f 184/95/78 177/88/78 191/102/77 
f 177/88/78 184/95/78 180/91/79 
f 180/91/79 178/89/79 177/88/78 
f 171/80/80 178/89/79 180/91/79 
f 180/91/79 179/90/80 171/80/80 
f 172/81/80 171/80/80 179/90/80 
f 179/90/80 188/99/80 172/81/80 
# 44 faces

