# 3ds Max Wavefront OBJ Exporter v0.97b - (c)2007 guruware
# File Created: 28.04.2021 17:45:21

mtllib resurrectionstatue.mtl

#
# object base
#

v  68.9605 0.0000 -84.7038
v  86.4161 0.0000 -77.9949
v  10.3923 0.0000 -56.9264
v  11.9007 0.0000 -77.9949
v  12.9082 0.0000 -32.3121
v  15.0221 13.1414 -32.5916
v  24.4062 13.1414 -29.4918
v  17.2067 14.4626 -51.2603
v  71.9709 0.0000 -18.5981
v  86.4161 0.0000 -34.3886
v  84.7913 6.8401 -25.2315
v  83.2946 13.1414 -28.1797
v  12.7193 10.3569 -80.1599
v  64.8895 13.1414 -81.0786
v  10.5346 8.1975 -56.0581
v  66.3505 13.1414 -20.9436
v  20.8184 11.1978 -23.6600
v  19.7227 0.0000 -22.0051
v  19.0726 15.4883 -75.6494
v  83.2946 13.1414 -75.6494
v  30.2517 24.9977 -37.0206
v  47.1344 25.3044 -40.0904
v  25.2378 23.5857 -56.0659
v  65.7928 19.2601 -36.2037
v  30.9263 22.6493 -35.3402
v  72.2207 13.0365 -43.3302
v  72.1499 13.0365 -66.7084
v  72.2207 21.7658 -47.6463
v  59.1275 13.0365 -73.2594
v  69.7183 23.8192 -66.7084
v  30.5387 13.0365 -69.8287
v  25.2037 13.0365 -56.0659
v  31.1203 23.1009 -66.7084
v  27.7793 13.0365 -37.9474
v  63.6650 13.0365 -36.2037
v  33.7637 13.0365 -34.0080
v  52.6048 24.4449 -70.0111
v  35.4269 83.6177 -67.1884
v  35.4269 83.6177 -46.1653
v  66.6520 83.6177 -46.1653
v  66.6520 83.6177 -67.1884
v  60.2108 23.0583 -49.5811
v  66.1652 28.2884 -47.9045
v  60.7222 32.4302 -38.8651
v  33.9218 23.6487 -52.8899
v  37.3708 23.7601 -47.1166
v  26.7245 62.0473 -44.1485
v  75.8835 76.3517 -70.7954
v  75.8835 72.7165 -42.1581
v  24.0890 73.2529 -70.7954
v  51.1614 74.8197 -73.4596
v  24.0890 76.4071 -42.1581
v  62.2670 24.0119 -67.2672
v  65.6067 32.1018 -68.7550
v  49.1112 75.0154 -40.2639
v  61.3462 65.8543 -72.9921
v  41.5125 36.9365 -39.6057
v  50.5245 47.5888 -39.3884
v  39.7061 59.4482 -40.8014
v  38.8146 60.1247 -42.6402
v  29.4380 61.1237 -40.5704
v  42.5641 52.3571 -40.1424
v  57.5654 51.9288 -38.8864
v  40.6251 69.1737 -41.4448
v  40.2369 66.3364 -72.2391
v  40.6283 51.8102 -70.5959
v  50.2546 46.5609 -70.6491
v  59.4666 51.7338 -71.7458
v  57.1791 69.9663 -39.1384
v  60.1997 63.6680 -38.2723
v  70.9388 72.0050 -39.5265
v  34.4191 21.3677 -65.8368
v  59.7971 91.7537 -45.1612
v  39.7932 92.3531 -45.1612
v  39.7932 91.5013 -47.0428
v  60.1758 90.8706 -47.0428
v  39.7357 98.7147 -45.2266
v  58.1707 100.0337 -43.6735
v  39.7357 98.7147 -66.8418
v  60.8991 92.8011 -45.4776
v  61.8489 99.0126 -66.8418
v  60.2846 99.0126 -46.1535
v  39.7932 83.1630 -66.8372
v  61.7401 83.1630 -66.8372
v  39.7932 83.1630 -47.0428
v  60.1758 83.1630 -47.0428
v  60.0015 97.7847 -47.7999
v  65.0653 96.1520 -47.7999
v  65.0653 96.1520 -65.6712
v  60.0015 97.7847 -66.2598
v  59.9889 83.3970 -47.7098
v  64.1714 83.3970 -47.7098
v  64.9066 83.3970 -65.7613
v  59.9889 83.3970 -66.3499
v  35.7799 95.2163 -66.2598
v  34.9450 96.9180 -47.3840
v  39.9822 97.7847 -47.7999
v  39.9822 96.8490 -66.2598
v  35.6161 90.6119 -47.7549
v  39.9895 90.6307 -47.7478
v  39.9949 83.3970 -66.3499
v  35.6637 88.6823 -66.3048
v  34.7984 89.3658 -47.1179
v  36.2862 83.3970 -66.3499
v  39.9949 83.3970 -47.7098
v  36.0904 83.3970 -47.1360
v  52.3499 85.1990 -44.3828
v  47.6519 85.6308 -44.3828
v  47.6519 85.6308 -50.0581
v  52.3499 85.1990 -50.0581
v  51.8511 92.4212 -45.5326
v  48.1506 92.4212 -45.5326
v  51.8511 92.4212 -49.9680
v  48.1506 92.4212 -49.9680
# 114 vertices

vn -0.0201 -0.8912 -0.4531
vn 0.0000 -1.0000 -0.0000
vn -0.0673 -0.8173 -0.5723
vn -0.4320 -0.8536 0.2910
vn -0.0411 0.9914 0.1243
vn -0.0444 0.9834 0.1760
vn 0.0202 0.9991 0.0370
vn 0.5964 -0.5887 0.5456
vn 0.9729 0.2311 0.0000
vn -0.3550 0.4489 -0.8201
vn -0.0324 0.2917 -0.9560
vn -0.9952 0.0537 -0.0820
vn -0.9986 0.0439 0.0300
vn -0.9945 0.0609 -0.0847
vn 0.0052 0.9997 0.0239
vn -0.0729 0.9588 0.2747
vn -0.5049 0.1683 0.8466
vn -0.8379 0.2919 0.4613
vn -0.4203 -0.5528 0.7196
vn -0.3608 0.8265 -0.4320
vn -0.6726 0.7398 -0.0171
vn -0.6823 0.7310 -0.0057
vn 0.0195 0.9998 0.0072
vn 0.0566 0.9973 0.0463
vn -0.9815 0.1280 0.1423
vn -0.9752 0.1601 0.1528
vn -0.9998 0.0164 0.0094
vn 0.3344 0.3969 0.8548
vn 0.0908 0.2315 0.9686
vn 0.1239 -0.5576 0.8208
vn 0.3479 0.4638 0.8147
vn 0.2669 0.3322 -0.9047
vn 0.3156 0.2803 -0.9065
vn 0.2990 0.2984 -0.9064
vn 0.9729 0.2311 -0.0000
vn 0.3479 0.2442 -0.9052
vn 0.0000 1.0000 -0.0000
vn 0.0260 0.9278 0.3722
vn 0.0746 0.9449 0.3187
vn -0.0510 0.9970 -0.0583
vn 0.2120 0.8973 0.3872
vn 0.0776 0.5948 0.8001
vn 0.9127 0.0768 0.4014
vn 0.9841 0.1600 -0.0769
vn 0.9810 0.1234 0.1496
vn 0.4471 0.1008 -0.8888
vn 0.1493 0.2561 -0.9551
vn 0.3399 0.2214 -0.9140
vn -0.9198 0.1637 -0.3566
vn -0.9877 0.0407 -0.1511
vn -0.9070 0.1010 -0.4088
vn -0.8604 0.0643 0.5056
vn -0.9879 0.0387 -0.1503
vn 0.6252 -0.2138 0.7506
vn 0.7284 -0.0314 0.6844
vn 0.0659 0.0127 0.9977
vn 0.0425 0.1306 0.9905
vn 0.0732 -0.0250 0.9970
vn 0.1864 0.9685 0.1652
vn 0.0958 0.9951 0.0258
vn -0.1487 0.2725 -0.9506
vn -0.0168 0.2814 -0.9594
vn -0.9229 0.1638 0.3486
vn -0.7837 0.0899 0.6146
vn -0.5492 -0.0465 0.8344
vn 0.0389 0.1484 0.9882
vn -0.0026 0.9994 -0.0343
vn -0.1633 0.3007 -0.9396
vn -0.0755 0.9933 -0.0870
vn 0.9702 0.2188 -0.1038
vn 0.2002 -0.7422 0.6396
vn 0.4397 -0.6863 0.5793
vn 0.1020 -0.6799 0.7262
vn -0.8248 -0.2679 0.4979
vn -0.7689 -0.2688 0.5802
vn -0.8031 -0.2647 0.5339
vn 0.6710 0.7407 0.0330
vn 0.6185 0.7858 -0.0000
vn 0.7171 0.6940 0.0641
vn 0.7450 0.6618 0.0840
vn -0.1270 0.0950 -0.9873
vn -0.0849 0.4732 -0.8769
vn -0.0034 0.3932 -0.9194
vn -0.5892 0.8073 -0.0343
vn -0.5366 0.8438 -0.0000
vn -0.6269 0.7768 -0.0602
vn -0.6580 0.7485 -0.0824
vn -0.0663 -0.5884 0.8059
vn 0.5261 -0.4222 -0.7382
vn 0.6963 -0.3974 -0.5977
vn 0.7446 -0.6675 -0.0025
vn -0.0837 0.0982 0.9916
vn -0.0112 0.4294 0.9030
vn -0.0259 0.5371 0.8431
vn 0.1292 0.1861 -0.9740
vn 0.1752 -0.0368 -0.9838
vn -0.0395 0.0243 0.9989
vn 0.0112 -0.0041 0.9999
vn -0.0582 0.0128 0.9982
vn 0.4363 0.8922 0.1167
vn 0.5146 0.8558 0.0534
vn 0.1394 0.9772 0.1600
vn -0.9958 0.0690 0.0601
vn -0.9821 -0.1877 0.0154
vn -0.9811 -0.1935 0.0028
vn -0.0191 0.0482 0.9987
vn 0.0133 0.0686 0.9976
vn 0.0208 -0.0074 0.9998
vn 0.7769 -0.2450 0.5800
vn 0.6539 -0.7558 0.0353
vn -0.5795 -0.2584 0.7729
vn -0.7708 -0.2651 0.5792
vn -0.1410 -0.4565 0.8785
vn -0.0057 -1.0000 0.0055
vn 0.8087 -0.5874 0.0304
vn -0.0608 -0.9974 0.0382
vn 0.8924 -0.4471 0.0611
vn 0.9900 -0.1402 0.0182
vn 0.8467 0.5321 -0.0038
vn 0.7433 0.6669 -0.0522
vn -0.0231 0.9988 -0.0433
vn -0.0346 0.9989 -0.0325
vn -0.8142 0.5787 -0.0455
vn -0.8442 0.5348 -0.0361
vn -0.7498 -0.6605 -0.0387
vn -0.9325 -0.3610 -0.0119
vn -0.9928 -0.1061 -0.0559
vn 0.2735 0.2325 0.9333
vn 0.0808 0.5336 0.8419
vn -0.1167 -0.0657 -0.9910
vn 0.0400 0.1084 0.9933
vn 0.1238 -0.0102 0.9923
vn -0.0779 -0.1474 -0.9860
vn -0.1259 -0.1265 -0.9840
vn -0.0495 -0.1538 -0.9869
vn 0.0461 0.5248 -0.8500
vn -0.9829 -0.1832 0.0202
vn 0.9758 -0.2155 -0.0382
vn 0.9773 -0.2103 -0.0267
vn 0.9736 -0.2220 -0.0527
vn 0.0232 -0.1461 -0.9890
vn 0.1231 -0.1164 -0.9855
vn -0.1202 -0.1385 0.9830
vn -0.1005 -0.1051 0.9894
vn 0.0000 0.1870 0.9824
vn 0.9276 0.3678 -0.0656
vn -0.9807 -0.1956 -0.0032
vn 0.4240 0.2609 0.8673
vn -0.0348 -0.1669 -0.9854
vn 0.9711 -0.2287 -0.0678
vn 0.7635 0.6308 -0.1381
vn -0.1391 -0.1023 0.9850
vn -0.0280 -0.9073 0.4196
vn -0.0273 -0.9107 0.4123
vn -0.0273 -0.9104 0.4128
vn -0.0281 -0.9071 0.4201
vn -0.0714 0.9975 -0.0000
vn -0.0422 0.9988 -0.0233
vn -0.0383 0.9989 -0.0264
vn -0.7907 -0.0316 0.6114
vn 0.3787 0.1530 0.9128
vn -0.2359 0.0079 0.9717
vn 0.9940 -0.1085 0.0127
vn 0.9974 -0.0085 0.0713
vn 0.9915 0.1062 0.0750
vn -1.0000 -0.0047 0.0012
vn -1.0000 -0.0043 0.0003
vn -1.0000 -0.0080 -0.0000
vn 0.6909 0.6469 0.3226
vn 0.0280 0.0526 -0.9982
vn 0.0000 -0.0003 -1.0000
vn 0.9877 -0.1556 0.0177
vn 0.9967 -0.0052 0.0808
vn -0.0000 -0.0000 1.0000
vn 0.2252 -0.1955 0.9545
vn -0.5033 -0.0045 0.8641
vn -1.0000 -0.0028 0.0012
vn -1.0000 0.0000 -0.0000
vn -0.0135 0.9988 -0.0462
vn 0.5523 -0.2286 0.8017
vn 0.4067 -0.3579 0.8405
vn 0.9969 -0.0000 0.0788
vn 0.3069 0.9518 0.0000
vn 0.0005 0.0069 1.0000
vn 0.0000 0.0071 1.0000
vn 0.0017 0.0064 1.0000
vn 0.0020 0.0063 1.0000
vn 0.1177 0.0060 -0.9930
vn 0.1188 0.0055 -0.9929
vn 0.1185 0.0057 -0.9929
vn 0.1174 0.0061 -0.9931
vn 0.9986 -0.0473 0.0247
vn 0.9968 -0.0696 0.0406
vn 0.9993 -0.0351 0.0161
vn 0.9999 -0.0124 -0.0000
vn -0.3311 0.9420 -0.0557
vn -0.1765 0.9796 -0.0961
vn -0.2037 0.9749 -0.0893
vn -0.3617 0.9311 -0.0472
vn 0.0524 -0.0158 0.9985
vn -0.0014 -0.0589 0.9983
vn 0.0732 -0.0141 0.9972
vn 0.0810 0.0073 0.9967
vn -0.0010 0.0077 -1.0000
vn -0.0019 0.0071 -1.0000
vn -0.0025 0.0068 -1.0000
vn -0.6532 0.6375 0.4086
vn -0.5212 0.6341 0.5712
vn -0.8478 0.5272 -0.0570
vn -0.9964 -0.0795 -0.0286
vn -0.9940 -0.1037 -0.0346
vn -0.9999 -0.0066 -0.0105
vn -0.9983 -0.0530 -0.0235
vn -0.9902 -0.1353 -0.0346
vn -0.9807 -0.1951 -0.0153
vn -0.0034 0.4569 0.8895
vn 0.1334 0.0179 0.9909
vn 0.1275 0.0127 0.9918
vn 0.1453 0.0285 0.9890
vn 0.0000 0.0085 -1.0000
vn -0.0027 0.0069 -1.0000
vn -0.9773 -0.2115 -0.0100
vn -0.0915 -0.9958 -0.0000
vn 0.0055 0.1637 0.9865
vn 0.0000 0.1669 0.9860
vn 0.0102 0.1608 0.9869
vn 0.0145 0.1582 0.9873
vn 0.9976 0.0689 0.0000
vn 0.9976 0.0689 -0.0000
vn -0.9973 0.0733 0.0000
vn -0.9973 0.0733 -0.0000
# 231 vertex normals

vt 0.8972 0.3412 0.0000
vt 0.9082 0.3453 0.0000
vt 0.8607 0.3588 0.0000
vt 0.8615 0.3456 0.0000
vt 0.8623 0.3742 0.0000
vt 0.1663 0.6125 0.0000
vt 0.1197 0.6013 0.0000
vt 0.1663 0.6928 0.0000
vt 0.0133 0.2389 0.0000
vt 0.1280 0.2389 0.0000
vt 0.0854 0.2917 0.0000
vt 0.1613 0.2241 0.0000
vt 0.1241 0.2895 0.0000
vt 0.1241 0.2646 0.0000
vt 0.4521 0.2241 0.0000
vt 0.6803 0.2895 0.0000
vt 0.4521 0.2895 0.0000
vt 0.6954 0.2241 0.0000
vt 0.8156 0.2895 0.0000
vt 0.6954 0.2895 0.0000
vt 0.0125 0.5696 0.0000
vt 0.1663 0.5696 0.0000
vt 0.9918 0.2895 0.0000
vt 0.9355 0.2895 0.0000
vt 0.9355 0.2241 0.0000
vt 0.9918 0.2241 0.0000
vt 0.9524 0.8190 0.0000
vt 0.9934 0.8190 0.0000
vt 0.9934 0.9865 0.0000
vt 0.8312 0.4460 0.0000
vt 0.7645 0.4864 0.0000
vt 0.7446 0.4450 0.0000
vt 0.2401 0.4606 0.0000
vt 0.3944 0.5487 0.0000
vt 0.2401 0.5487 0.0000
vt 0.9299 0.2241 0.0000
vt 0.9299 0.2895 0.0000
vt 0.8156 0.2241 0.0000
vt 0.6415 0.4460 0.0000
vt 0.9956 0.0998 0.0000
vt 0.7000 0.2050 0.0000
vt 0.7860 0.0086 0.0000
vt 0.0207 0.2050 0.0000
vt 0.0062 0.0076 0.0000
vt 0.9956 0.2050 0.0000
vt 0.4388 0.2895 0.0000
vt 0.3509 0.2895 0.0000
vt 0.4388 0.2241 0.0000
vt 0.6803 0.2241 0.0000
vt 0.3443 0.2895 0.0000
vt 0.3509 0.2241 0.0000
vt 0.3443 0.2241 0.0000
vt 0.3944 0.3656 0.0000
vt 0.4705 0.3656 0.0000
vt 0.4705 0.5487 0.0000
vt 0.2401 0.3656 0.0000
vt 0.9083 0.3726 0.0000
vt 0.8994 0.3825 0.0000
vt 0.8666 0.3806 0.0000
vt 0.0075 0.4243 0.0000
vt 0.1012 0.4243 0.0000
vt 0.0075 0.5145 0.0000
vt 0.8136 0.6307 0.0000
vt 0.7798 0.8434 0.0000
vt 0.8136 0.8434 0.0000
vt 0.2423 0.2194 0.0000
vt 0.3443 0.2194 0.0000
vt 0.2423 0.2895 0.0000
vt 0.3509 0.2194 0.0000
vt 0.4388 0.2194 0.0000
vt 0.6923 0.2194 0.0000
vt 0.8159 0.2194 0.0000
vt 0.6923 0.2895 0.0000
vt 0.9304 0.2194 0.0000
vt 0.8159 0.2895 0.0000
vt 0.9918 0.2194 0.0000
vt 0.9356 0.2194 0.0000
vt 0.6800 0.2895 0.0000
vt 0.4910 0.2194 0.0000
vt 0.6800 0.2194 0.0000
vt 0.2274 0.4243 0.0000
vt 0.2274 0.5561 0.0000
vt 0.1842 0.3751 0.0000
vt 0.4521 0.2194 0.0000
vt 0.5843 0.2194 0.0000
vt 0.9107 0.2895 0.0000
vt 0.4525 0.2895 0.0000
vt 0.4525 0.2194 0.0000
vt 0.1502 0.5561 0.0000
vt 0.7798 0.7444 0.0000
vt 0.9304 0.2895 0.0000
vt 0.5843 0.2895 0.0000
vt 0.0075 0.5561 0.0000
vt 0.9356 0.2895 0.0000
vt 0.7501 0.7052 0.0000
vt 0.7501 0.7609 0.0000
vt 0.6779 0.7606 0.0000
vt 0.8372 0.5766 0.0000
vt 0.8919 0.5766 0.0000
vt 0.8919 0.8296 0.0000
vt 0.3456 0.9130 0.0000
vt 0.3268 0.9934 0.0000
vt 0.2004 0.9934 0.0000
vt 0.1774 0.9130 0.0000
vt 0.6661 0.9130 0.0000
vt 0.5974 0.9934 0.0000
vt 0.5040 0.9130 0.0000
vt 0.1662 0.9130 0.0000
vt 0.1478 0.9934 0.0000
vt 0.0321 0.9934 0.0000
vt 0.0127 0.9130 0.0000
vt 0.6779 0.6082 0.0000
vt 0.9105 0.4270 0.0000
vt 0.7816 0.4270 0.0000
vt 0.7816 0.3237 0.0000
vt 0.6780 0.9130 0.0000
vt 0.8171 0.9130 0.0000
vt 0.7418 0.9934 0.0000
vt 0.3566 0.9015 0.0000
vt 0.4481 0.8537 0.0000
vt 0.5040 0.9015 0.0000
vt 0.8540 0.4512 0.0000
vt 0.9929 0.4512 0.0000
vt 0.8846 0.5450 0.0000
vt 0.9381 0.0073 0.0000
vt 0.9381 0.0271 0.0000
vt 0.9928 0.0073 0.0000
vt 0.1662 0.8203 0.0000
vt 0.0127 0.9015 0.0000
vt 0.0923 0.6215 0.0000
vt 0.8193 0.5550 0.0000
vt 0.7094 0.5773 0.0000
vt 0.9190 0.5869 0.0000
vt 0.9105 0.3237 0.0000
vt 0.3188 0.6189 0.0000
vt 0.4698 0.5883 0.0000
vt 0.2565 0.5615 0.0000
vt 0.6879 0.5716 0.0000
vt 0.6188 0.5084 0.0000
vt 0.7473 0.5084 0.0000
vt 0.9332 0.3038 0.0000
vt 0.9918 0.3038 0.0000
vt 0.9332 0.4312 0.0000
vt 0.8441 0.4312 0.0000
vt 0.8441 0.3038 0.0000
vt 0.7884 0.3038 0.0000
vt 0.7884 0.4312 0.0000
vt 0.6775 0.3038 0.0000
vt 0.6971 0.4312 0.0000
vt 0.6417 0.4312 0.0000
vt 0.7233 0.3038 0.0000
vt 0.7752 0.3038 0.0000
vt 0.7233 0.4312 0.0000
vt 0.7752 0.4312 0.0000
vt 0.8855 0.3038 0.0000
vt 0.9065 0.4312 0.0000
vt 0.8562 0.4312 0.0000
vt 0.8461 0.3038 0.0000
vt 0.8461 0.4312 0.0000
vt 0.7873 0.4312 0.0000
vt 0.9384 0.9130 0.0000
vt 0.9170 0.9934 0.0000
vt 0.5691 0.8563 0.0000
vt 0.6655 0.9015 0.0000
vt 0.7814 0.5940 0.0000
vt 0.9533 0.7479 0.0000
vt 0.9049 0.6713 0.0000
vt 0.7877 0.3038 0.0000
vt 0.7160 0.3038 0.0000
vt 0.8562 0.3038 0.0000
vt 0.6655 0.5759 0.0000
vt 0.5691 0.7660 0.0000
vt 0.5096 0.7331 0.0000
vt 0.4117 0.9934 0.0000
vt 0.3566 0.9130 0.0000
vt 0.1662 0.9015 0.0000
vt 0.3456 0.9015 0.0000
vt 0.1774 0.9015 0.0000
vt 0.1774 0.6558 0.0000
vt 0.3559 0.6535 0.0000
vt 0.4481 0.7659 0.0000
vt 0.6780 0.9015 0.0000
vt 0.6780 0.7919 0.0000
vt 0.7684 0.8499 0.0000
vt 0.8616 0.8703 0.0000
vt 0.8788 0.8367 0.0000
vt 0.9384 0.9015 0.0000
vt 0.6417 0.3038 0.0000
vt 0.9247 0.3038 0.0000
vt 0.9918 0.4312 0.0000
vt 0.0127 0.6070 0.0000
vt 0.4698 0.5615 0.0000
vt 0.8171 0.9015 0.0000
vt 0.7280 0.6088 0.0000
vt 0.7672 0.6088 0.0000
vt 0.7672 0.6875 0.0000
vt 0.9929 0.7479 0.0000
vt 0.2274 0.2816 0.0000
vt 0.2274 0.2371 0.0000
vt 0.3328 0.2816 0.0000
vt 0.3456 0.6718 0.0000
vt 0.8720 0.0073 0.0000
vt 0.9928 0.0271 0.0000
vt 0.7449 0.7749 0.0000
vt 0.9012 0.3642 0.0000
vt 0.8720 0.3642 0.0000
vt 0.8720 0.3550 0.0000
vt 0.9012 0.3550 0.0000
vt 0.4829 0.3659 0.0000
vt 0.6027 0.3659 0.0000
vt 0.4829 0.4933 0.0000
vt 0.4829 0.3035 0.0000
vt 0.6027 0.3562 0.0000
vt 0.4829 0.3562 0.0000
vt 0.6035 0.5315 0.0000
vt 0.4825 0.5710 0.0000
vt 0.6035 0.5710 0.0000
vt 0.5954 0.5315 0.0000
vt 0.6348 0.3656 0.0000
vt 0.6155 0.3656 0.0000
vt 0.6155 0.4933 0.0000
vt 0.1338 0.3850 0.0000
vt 0.0071 0.3850 0.0000
vt 0.1338 0.3022 0.0000
vt 0.4825 0.5073 0.0000
vt 0.4811 0.8618 0.0000
vt 0.4811 0.7643 0.0000
vt 0.5332 0.7643 0.0000
vt 0.5332 0.8617 0.0000
vt 0.5954 0.5073 0.0000
vt 0.0071 0.3022 0.0000
vt 0.6027 0.4933 0.0000
vt 0.6155 0.3032 0.0000
vt 0.6155 0.3558 0.0000
vt 0.6348 0.3558 0.0000
vt 0.6027 0.3035 0.0000
vt 0.8344 0.3307 0.0000
vt 0.8344 0.3432 0.0000
vt 0.8151 0.3432 0.0000
vt 0.6348 0.3032 0.0000
vt 0.1132 0.2394 0.0000
vt 0.1132 0.2700 0.0000
vt 0.0116 0.2394 0.0000
vt 0.3701 0.3500 0.0000
vt 0.3701 0.3031 0.0000
vt 0.2557 0.3031 0.0000
vt 0.2557 0.3500 0.0000
vt 0.4697 0.3500 0.0000
vt 0.4697 0.3031 0.0000
vt 0.3806 0.3031 0.0000
vt 0.3806 0.3500 0.0000
vt 0.2450 0.3031 0.0000
vt 0.1573 0.3031 0.0000
vt 0.1573 0.3500 0.0000
vt 0.2450 0.3500 0.0000
vt 0.6035 0.5073 0.0000
vt 0.4598 0.3031 0.0000
vt 0.4598 0.3500 0.0000
vt 0.1937 0.3031 0.0000
vt 0.8249 0.7341 0.0000
vt 0.8492 0.7341 0.0000
vt 0.8249 0.8388 0.0000
vt 0.6035 0.5337 0.0000
vt 0.4825 0.5337 0.0000
vt 0.8249 0.7015 0.0000
vt 0.8884 0.3706 0.0000
vt 0.8729 0.3706 0.0000
vt 0.8729 0.3539 0.0000
vt 0.8884 0.3539 0.0000
vt 0.9961 0.8052 0.0000
vt 0.9962 0.7650 0.0000
vt 0.9212 0.7650 0.0000
vt 0.9212 0.8052 0.0000
vt 0.1567 0.2895 0.0000
vt 0.3393 0.2895 0.0000
vt 0.3393 0.2199 0.0000
vt 0.1567 0.2199 0.0000
# 277 texture coords

g base
usemtl Material__49
s 1
f 1/1/1 2/2/2 3/3/2 
f 3/3/2 4/4/3 1/1/1 
f 3/3/2 2/2/2 5/5/4 
s 2
f 6/6/5 7/7/6 8/8/7 
s 16
f 9/9/8 10/10/8 11/11/8 
s 4
f 10/12/9 12/13/9 11/14/9 
s 1
f 1/15/1 13/16/10 14/17/11 
s 4
f 4/18/12 15/19/13 13/20/14 
s 2
f 16/21/15 7/7/6 17/22/16 
s 1
f 17/23/17 6/24/18 5/25/4 
f 5/25/4 18/26/19 17/23/17 
f 19/27/20 13/28/10 8/29/21 
f 6/30/18 8/31/21 15/32/22 
s 2
f 8/33/7 14/34/23 19/35/24 
s 4
f 5/36/25 6/37/26 15/19/13 
f 3/38/27 5/36/25 15/19/13 
s 1
f 8/31/21 13/39/10 15/32/22 
s 2
f 7/7/6 6/6/5 17/22/16 
s 4
f 15/19/13 4/18/12 3/38/27 
s 1
f 11/40/28 16/41/29 9/42/30 
f 16/41/29 17/43/17 9/42/30 
f 17/43/17 18/44/19 9/42/30 
f 11/40/28 12/45/31 16/41/29 
f 13/28/10 19/27/20 14/29/11 
s 64
f 14/46/32 20/47/33 1/48/34 
s 1
f 1/15/1 4/49/3 13/16/10 
s 4
f 10/12/9 20/50/35 12/13/9 
s 64
f 20/47/33 2/51/36 1/48/34 
s 4
f 10/12/9 2/52/35 20/50/35 
s 2
f 14/34/23 16/53/15 12/54/37 
f 12/54/37 20/55/37 14/34/23 
f 8/33/7 7/56/6 16/53/15 
f 8/33/7 16/53/15 14/34/23 
s 1
f 2/2/2 10/57/2 5/5/4 
f 9/58/30 18/59/19 5/5/4 
f 5/5/4 10/57/2 9/58/30 
s 2
f 21/60/38 22/61/39 23/62/40 
f 24/63/41 21/64/38 25/65/42 
s 4
f 26/66/43 27/67/44 28/68/45 
s 1
f 27/69/46 29/70/47 30/47/48 
s 4
f 31/71/49 32/72/50 33/73/51 
f 32/72/50 34/74/52 23/75/53 
f 35/76/54 26/77/43 24/23/55 
s 1
f 24/78/56 36/79/57 35/80/58 
s 2
f 22/61/39 28/81/59 30/82/60 
f 22/61/39 24/83/41 28/81/59 
s 1
f 29/84/47 31/85/61 37/17/62 
s 4
f 34/74/52 21/86/63 23/75/53 
f 25/87/64 34/88/52 36/79/65 
s 1
f 24/78/56 25/87/66 36/79/57 
s 2
f 22/61/39 37/89/67 23/62/40 
f 24/63/41 22/90/39 21/64/38 
s 4
f 34/74/52 25/91/64 21/86/63 
f 32/72/50 23/75/53 33/73/51 
s 1
f 31/85/61 33/92/68 37/17/62 
f 29/70/47 37/46/62 30/47/48 
s 2
f 37/89/67 33/93/69 23/62/40 
s 4
f 26/77/43 28/94/45 24/23/55 
f 27/67/44 30/50/70 28/68/45 
s 2
f 38/56/37 39/35/37 40/55/37 
f 40/55/37 41/54/37 38/56/37 
s 32
f 42/95/71 43/96/72 44/97/73 
s 16
f 45/98/74 46/99/75 47/100/76 
s 8
f 48/101/77 41/102/78 40/103/79 
f 40/103/79 49/104/80 48/101/77 
s 1
f 50/105/81 38/106/82 51/107/83 
s 8
f 52/108/84 39/109/85 38/110/86 
f 38/110/86 50/111/87 52/108/84 
s 32
f 46/112/88 42/95/71 44/97/73 
s 64
f 53/113/89 54/114/90 43/115/91 
s 1
f 52/116/92 55/117/93 39/118/94 
f 48/119/95 56/120/96 51/121/83 
f 57/122/97 44/123/98 58/124/99 
s 4
f 59/125/100 60/126/101 61/127/102 
f 47/128/103 50/129/104 45/130/105 
s 1
f 57/122/97 62/131/106 61/132/107 
f 44/123/98 63/133/108 58/124/99 
s 16
f 49/100/109 44/99/109 43/98/109 
s 64
f 42/134/110 53/113/89 43/115/91 
s 16
f 57/135/111 61/136/112 46/137/75 
s 32
f 57/138/113 46/139/88 44/140/73 
s 2
f 55/141/114 64/142/115 51/143/116 
f 65/144/117 64/145/115 60/146/118 
f 60/146/118 66/147/119 65/144/117 
f 62/148/120 67/149/121 66/150/119 
f 58/151/122 63/152/123 67/153/121 
f 63/152/123 68/154/124 67/153/121 
f 69/155/125 51/156/116 56/157/126 
f 70/158/127 56/159/126 68/160/124 
s 1
f 55/117/93 71/161/128 40/162/129 
f 51/121/83 65/163/130 50/164/81 
f 62/131/106 59/165/131 61/132/107 
f 57/122/97 58/124/99 62/131/106 
f 63/133/108 44/123/98 71/166/128 
f 71/166/128 70/167/132 63/133/108 
s 2
f 63/168/123 70/158/127 68/160/124 
f 62/148/120 58/169/122 67/149/121 
f 70/170/127 69/155/125 56/157/126 
s 1
f 72/171/133 66/172/134 67/173/135 
f 38/106/82 41/174/136 51/107/83 
f 41/174/136 48/175/95 51/107/83 
s 4
f 47/128/103 52/176/137 50/129/104 
f 48/177/138 49/178/139 43/179/140 
s 1
f 66/172/134 72/171/133 50/164/81 
f 50/164/81 65/163/130 66/172/134 
f 54/180/141 67/173/135 68/181/142 
f 40/162/129 39/118/94 55/117/93 
f 52/182/92 47/183/143 64/184/144 
f 69/185/145 70/186/132 71/187/128 
s 2
f 59/188/146 62/148/120 66/150/119 
f 69/155/125 55/189/114 51/156/116 
f 64/142/115 65/190/117 51/143/116 
s 4
f 50/129/104 72/191/147 45/130/105 
s 16
f 61/136/112 47/192/76 46/137/75 
s 1
f 52/182/92 64/184/144 55/193/93 
f 71/194/128 49/195/148 40/196/129 
f 44/123/98 49/197/148 71/166/128 
f 55/193/93 69/185/145 71/187/128 
f 68/181/142 56/120/96 48/119/95 
f 48/119/95 54/180/141 68/181/142 
f 54/180/141 72/171/133 67/173/135 
s 64
f 54/198/90 53/199/89 72/200/149 
s 4
f 54/201/150 48/177/138 43/179/140 
f 60/126/101 59/125/100 66/202/151 
f 60/126/101 47/203/103 61/127/102 
s 1
f 47/183/143 60/204/152 64/184/144 
s 2
f 73/205/153 74/206/154 75/207/155 
f 75/207/155 76/208/156 73/205/153 
f 77/209/157 78/210/158 79/211/159 
s 1
f 74/212/160 78/213/161 77/214/162 
s 4
f 80/215/163 81/216/164 82/217/165 
f 79/216/166 75/218/167 77/217/168 
s 1
f 78/219/161 82/220/169 81/221/170 
f 79/222/171 81/223/170 83/224/171 
s 4
f 81/216/164 76/218/172 84/225/173 
s 1
f 85/226/174 86/227/174 76/228/175 
f 76/228/175 75/229/176 85/226/174 
s 4
f 75/218/167 83/225/177 85/230/178 
s 1
f 81/223/170 84/231/171 83/224/171 
s 2
f 78/210/158 81/232/179 79/211/159 
s 1
f 80/233/180 82/234/169 78/235/161 
f 74/212/160 73/236/181 78/213/161 
s 4
f 75/218/167 79/216/166 83/225/177 
f 76/218/172 86/230/182 84/225/173 
s 1
f 75/218/176 74/215/160 77/217/162 
f 76/237/175 80/238/180 73/239/181 
f 73/240/181 80/233/180 78/235/161 
s 4
f 80/241/163 76/242/172 81/243/164 
s 2
f 87/244/183 88/245/183 89/246/183 
f 89/246/183 90/247/183 87/244/183 
s 1
f 91/248/184 92/249/185 88/250/186 
f 88/250/186 87/251/187 91/248/184 
f 89/252/188 93/253/189 94/254/190 
f 94/254/190 90/255/191 89/252/188 
s 4
f 88/217/192 92/256/193 93/225/194 
f 88/217/192 93/225/194 89/216/195 
s 2
f 95/246/196 96/245/197 97/244/198 
f 97/244/198 98/247/199 95/246/196 
s 1
f 96/250/200 99/257/201 100/258/202 
f 100/258/202 97/251/203 96/250/200 
f 101/254/204 102/259/205 98/255/206 
s 8
f 103/260/207 99/261/208 102/262/209 
s 4
f 99/263/210 96/217/211 95/216/212 
f 95/216/212 102/264/213 99/263/210 
f 102/216/213 104/264/214 103/217/215 
s 8
f 99/261/208 103/260/207 100/265/216 
s 1
f 105/248/217 100/251/202 103/250/218 
f 103/250/218 106/249/219 105/248/217 
f 101/254/204 104/253/220 102/259/205 
f 102/259/205 95/252/221 98/255/206 
s 4
f 103/217/215 104/264/214 106/263/222 
s 2
f 107/266/223 108/267/223 109/268/223 
f 109/268/223 110/269/223 107/266/223 
s 1
f 111/270/224 112/271/225 108/272/226 
f 108/272/226 107/273/227 111/270/224 
s 4
f 111/274/228 107/275/229 110/276/228 
f 110/276/228 113/277/228 111/274/228 
f 112/274/230 114/277/230 109/276/230 
f 109/276/230 108/275/231 112/274/230 
s 2
f 22/61/39 30/82/60 37/89/67 
# 180 faces

