# 3ds Max Wavefront OBJ Exporter v0.97b - (c)2007 guruware
# File Created: 26.01.2021 16:50:01

mtllib rice_cooker2.mtl

#
# object base
#

v  74.1140 6.1207 -63.9191
v  81.1058 21.1926 -67.9549
v  86.5409 21.1926 -50.0000
v  78.3273 6.1207 -50.0000
v  63.9191 6.1207 -74.1140
v  67.9549 21.1926 -81.1058
v  50.0000 6.1207 -78.3273
v  50.0000 21.1926 -86.5409
v  63.9191 6.1207 -25.8861
v  67.9549 21.1926 -18.8942
v  50.0000 21.1926 -13.4591
v  50.0000 6.1207 -21.6727
v  74.0833 6.1207 -36.0350
v  81.0662 21.1926 -31.9858
v  64.4728 83.4728 -58.9970
v  63.0114 84.3535 -58.1535
v  65.2848 84.3535 -50.6430
v  67.0016 83.4728 -50.6430
v  58.3540 83.4728 -36.1702
v  57.5104 84.3535 -37.6317
v  50.0000 84.3535 -35.3582
v  50.0000 83.4728 -33.6414
v  76.9182 81.8714 -66.1808
v  81.6216 81.8714 -50.6430
v  65.5378 81.8714 -77.5613
v  58.3540 83.4728 -65.1158
v  50.0000 81.8714 -82.2646
v  50.0000 83.4728 -67.6446
v  50.0000 81.8714 -19.0214
v  65.5378 81.8714 -23.7248
v  76.8840 81.8714 -35.0540
v  64.4544 83.4728 -42.2615
v  90.3166 39.2129 -50.0000
v  84.3199 39.2129 -69.8102
v  81.3419 62.1789 -68.2111
v  86.8182 62.1791 -50.1199
v  69.8102 39.2129 -84.3199
v  68.0913 62.1787 -81.4619
v  50.0000 39.2129 -90.3166
v  50.0000 62.1786 -86.9383
v  50.0000 39.2129 -9.6834
v  69.8102 39.2129 -15.6801
v  68.0911 62.1795 -18.7782
v  50.0000 62.1795 -13.3020
v  84.2762 39.2129 -30.1245
v  81.3019 62.1793 -31.9691
v  50.0000 6.1207 -50.0000
v  50.0000 83.4728 -50.6430
v  57.5104 84.3535 -63.6544
v  62.9948 84.3535 -43.1078
v  50.0000 84.3535 -65.9278
v  59.0854 85.4992 -27.3495
v  57.7014 85.0235 -28.5222
v  57.8418 83.2710 -28.5221
v  59.1959 83.2710 -27.3495
v  59.0854 85.4992 -29.6948
v  60.4394 86.5613 -28.5221
v  60.5499 83.2710 -28.5221
v  59.1959 83.2710 -29.6947
v  50.0000 85.0469 -28.5221
v  58.3852 86.2268 -27.3495
v  50.0000 86.2683 -27.3495
v  50.0000 87.4897 -28.5221
v  59.5669 87.3761 -28.5221
v  58.3852 86.2268 -29.6947
v  50.0000 86.2683 -29.6947
v  62.3405 9.4732 -30.9303
v  64.3985 -0.0000 -32.8511
v  67.4847 -0.0000 -32.8511
v  69.5432 9.4732 -30.9298
v  62.3405 9.4732 -37.6523
v  69.5427 9.4732 -37.6523
v  67.4847 -0.0000 -35.7315
v  64.3985 -0.0000 -35.7315
v  62.3405 9.4732 -69.0697
v  69.5432 9.4732 -69.0702
v  67.4847 -0.0000 -67.1489
v  64.3985 -0.0000 -67.1489
v  62.3405 9.4732 -62.3477
v  64.3985 -0.0000 -64.2685
v  67.4847 -0.0000 -64.2685
v  69.5427 9.4732 -62.3477
v  55.8027 86.6411 -44.8404
v  57.5430 83.3571 -43.1000
v  61.0438 83.3571 -50.6430
v  58.4957 86.6411 -50.6430
v  50.0000 86.6411 -50.6430
v  55.8027 86.6411 -56.4457
v  57.5430 83.3571 -58.1861
v  50.0000 86.6411 -59.1387
v  50.0000 83.3571 -61.6868
v  50.0000 86.6411 -42.1473
v  50.0000 83.3571 -39.5993
v  25.8860 6.1207 -63.9191
v  21.6727 6.1207 -50.0000
v  13.4591 21.1926 -50.0000
v  18.8942 21.1926 -67.9549
v  36.0809 6.1207 -74.1140
v  32.0451 21.1926 -81.1058
v  36.0809 6.1207 -25.8861
v  32.0451 21.1926 -18.8942
v  25.9167 6.1207 -36.0350
v  18.9338 21.1926 -31.9858
v  35.5272 83.4728 -58.9970
v  32.9984 83.4728 -50.6430
v  34.7152 84.3535 -50.6430
v  36.9886 84.3535 -58.1535
v  41.6460 83.4728 -36.1702
v  42.4896 84.3535 -37.6317
v  23.0818 81.8714 -66.1808
v  18.3784 81.8714 -50.6430
v  34.4622 81.8714 -77.5613
v  41.6460 83.4728 -65.1158
v  34.4622 81.8714 -23.7248
v  23.1160 81.8714 -35.0540
v  35.5456 83.4728 -42.2615
v  9.6834 39.2129 -50.0000
v  13.1818 62.1791 -50.1199
v  18.6581 62.1789 -68.2111
v  15.6801 39.2129 -69.8102
v  31.9087 62.1787 -81.4619
v  30.1898 39.2129 -84.3199
v  31.9089 62.1795 -18.7782
v  30.1898 39.2129 -15.6801
v  18.6981 62.1793 -31.9691
v  15.7238 39.2129 -30.1245
v  42.4896 84.3535 -63.6544
v  37.0052 84.3535 -43.1078
v  40.9146 85.4992 -27.3495
v  40.8041 83.2710 -27.3495
v  42.1582 83.2710 -28.5221
v  42.2986 85.0235 -28.5222
v  40.9146 85.4992 -29.6948
v  40.8041 83.2710 -29.6947
v  39.4501 83.2710 -28.5221
v  39.5606 86.5613 -28.5221
v  41.6148 86.2268 -27.3495
v  41.6148 86.2268 -29.6947
v  40.4331 87.3761 -28.5221
v  37.6595 9.4732 -30.9303
v  30.4568 9.4732 -30.9298
v  32.5153 -0.0000 -32.8511
v  35.6015 -0.0000 -32.8511
v  37.6595 9.4732 -37.6523
v  35.6015 -0.0000 -35.7315
v  32.5153 -0.0000 -35.7315
v  30.4573 9.4732 -37.6523
v  37.6595 9.4732 -69.0697
v  35.6015 -0.0000 -67.1489
v  32.5153 -0.0000 -67.1489
v  30.4568 9.4732 -69.0702
v  37.6595 9.4732 -62.3477
v  30.4573 9.4732 -62.3477
v  32.5153 -0.0000 -64.2685
v  35.6015 -0.0000 -64.2685
v  44.1973 86.6411 -44.8404
v  41.5043 86.6411 -50.6430
v  38.9562 83.3571 -50.6430
v  42.4570 83.3571 -43.1000
v  44.1973 86.6411 -56.4457
v  42.4570 83.3571 -58.1861
# 161 vertices

vn 0.7557 -0.4721 -0.4540
vn 0.8089 -0.3335 -0.4843
vn 0.9415 -0.3370 0.0005
vn 0.8781 -0.4785 0.0005
vn 0.4540 -0.4721 -0.7557
vn 0.4843 -0.3335 -0.8089
vn 0.0000 -0.4785 -0.8781
vn -0.0000 -0.3371 -0.9415
vn 0.4537 -0.4721 0.7558
vn 0.4840 -0.3335 0.8090
vn 0.0000 -0.3371 0.9415
vn 0.0000 -0.4785 0.8781
vn 0.7553 -0.4721 0.4546
vn 0.8084 -0.3335 0.4850
vn 0.3974 0.8865 -0.2370
vn 0.2799 0.9442 -0.1736
vn 0.3316 0.9434 0.0049
vn 0.4564 0.8898 0.0002
vn 0.2369 0.8865 0.3975
vn 0.2387 0.8865 0.3964
vn -0.0000 0.8898 0.4564
vn 0.0000 0.8898 0.4564
vn 0.0951 0.9938 -0.0567
vn 0.0948 0.9938 -0.0572
vn 0.1089 0.9941 0.0001
vn 0.0567 0.9938 -0.0951
vn 0.0572 0.9938 -0.0948
vn 0.0000 0.9941 -0.1089
vn 0.0000 0.9941 0.1089
vn 0.0567 0.9938 0.0952
vn 0.0572 0.9938 0.0949
vn 0.0951 0.9938 0.0568
vn 0.0948 0.9938 0.0573
vn 0.9996 -0.0268 0.0010
vn 0.8579 -0.0278 -0.5130
vn 0.8427 0.1909 -0.5033
vn 0.9795 0.2013 0.0021
vn 0.5135 -0.0287 -0.8576
vn 0.5054 0.1859 -0.8426
vn -0.0000 -0.0293 -0.9996
vn 0.0000 0.1869 -0.9824
vn 0.0000 -0.0243 0.9997
vn 0.5129 -0.0244 0.8581
vn 0.5014 0.2104 0.8392
vn 0.0000 0.2153 0.9766
vn 0.8572 -0.0252 0.5144
vn 0.8385 0.2056 0.5046
vn -0.0000 -1.0000 -0.0000
vn -0.0000 -1.0000 0.0000
vn 0.0000 -1.0000 -0.0000
vn 0.8310 0.2385 -0.5026
vn 0.9669 0.2550 -0.0044
vn 0.4988 0.2302 -0.8356
vn 0.0000 0.2309 -0.9730
vn -0.0000 0.2789 0.9603
vn 0.4966 0.2715 0.8245
vn 0.8286 0.2633 0.4940
vn -0.0575 0.9982 0.0174
vn -0.0300 0.9983 0.0503
vn 0.0052 1.0000 -0.0016
vn -0.0428 0.9982 0.0428
vn -0.0300 0.9983 -0.0503
vn -0.0000 0.9983 -0.0575
vn -0.0502 0.9983 -0.0300
vn 0.2370 0.8865 -0.3974
vn 0.0000 0.8898 -0.4564
vn -0.0000 0.8898 -0.4564
vn 0.2389 0.8865 -0.3963
vn 0.3972 0.8865 0.2375
vn 0.3962 0.8865 0.2392
vn 0.0000 0.9983 0.0575
vn -0.0575 0.9982 -0.0175
vn 0.1123 0.0205 0.9935
vn -0.6319 -0.7750 -0.0004
vn -0.9980 -0.0626 0.0000
vn 0.0206 0.0010 0.9998
vn 0.1123 0.0205 -0.9935
vn 0.8944 0.4473 0.0000
vn 0.9991 0.0426 0.0000
vn 0.0206 0.0010 -0.9998
vn 0.0000 -1.0000 -0.0004
vn 0.0037 0.1571 0.9876
vn -0.0000 0.0037 1.0000
vn -0.0000 1.0000 0.0015
vn 0.4332 0.9013 0.0004
vn 0.0055 0.1549 -0.9879
vn -0.0000 0.0018 -1.0000
vn -0.6804 -0.2847 0.6753
vn -0.6742 -0.2846 0.6815
vn 0.6741 -0.2847 0.6815
vn 0.6803 -0.2848 0.6753
vn -0.6804 -0.2847 -0.6753
vn 0.6803 -0.2847 -0.6753
vn 0.6741 -0.2847 -0.6815
vn -0.6742 -0.2846 -0.6815
vn 0.6803 -0.2848 -0.6753
vn 0.6803 -0.2847 0.6753
vn 0.5658 0.5997 0.5658
vn 0.7901 0.6130 0.0000
vn 0.7901 0.6130 -0.0000
vn 0.0000 1.0000 -0.0000
vn 0.5658 0.5997 -0.5658
vn -0.0000 0.6130 -0.7901
vn 0.0000 0.6130 -0.7901
vn -0.0000 0.6130 0.7901
vn 0.0000 0.6130 0.7901
vn -0.7557 -0.4721 -0.4540
vn -0.8781 -0.4785 0.0005
vn -0.9415 -0.3370 0.0005
vn -0.8089 -0.3335 -0.4843
vn -0.4540 -0.4721 -0.7557
vn -0.4843 -0.3335 -0.8089
vn -0.4537 -0.4721 0.7558
vn -0.4840 -0.3335 0.8090
vn -0.7553 -0.4721 0.4546
vn -0.8084 -0.3335 0.4850
vn -0.3974 0.8865 -0.2370
vn -0.4564 0.8898 0.0002
vn -0.4564 0.8898 0.0003
vn -0.3963 0.8865 -0.2389
vn -0.2369 0.8865 0.3975
vn -0.2387 0.8865 0.3964
vn -0.0951 0.9938 -0.0567
vn -0.1089 0.9941 0.0001
vn -0.0948 0.9938 -0.0572
vn -0.0567 0.9938 -0.0951
vn -0.0572 0.9938 -0.0948
vn -0.0572 0.9938 0.0949
vn -0.0567 0.9938 0.0952
vn -0.0951 0.9938 0.0568
vn -0.0948 0.9938 0.0573
vn -0.9996 -0.0268 0.0010
vn -0.9795 0.2013 0.0021
vn -0.8427 0.1909 -0.5033
vn -0.8579 -0.0278 -0.5130
vn -0.5054 0.1859 -0.8426
vn -0.5135 -0.0287 -0.8576
vn -0.5014 0.2104 0.8392
vn -0.5129 -0.0244 0.8581
vn -0.8385 0.2056 0.5046
vn -0.8572 -0.0252 0.5144
vn 0.0000 -1.0000 0.0000
vn -0.9669 0.2550 -0.0044
vn -0.8310 0.2385 -0.5026
vn -0.4988 0.2302 -0.8356
vn -0.4966 0.2715 0.8245
vn -0.8286 0.2633 0.4940
vn 0.0503 0.9983 0.0300
vn 0.0575 0.9983 -0.0000
vn 0.0300 0.9983 0.0503
vn 0.0300 0.9983 -0.0503
vn 0.0502 0.9983 -0.0300
vn -0.2370 0.8865 -0.3974
vn -0.2389 0.8865 -0.3963
vn -0.3972 0.8865 0.2375
vn -0.3962 0.8865 0.2392
vn -0.1123 0.0205 0.9935
vn -0.0206 0.0010 0.9998
vn 0.9980 -0.0626 0.0000
vn 0.6319 -0.7750 -0.0004
vn -0.1123 0.0205 -0.9935
vn -0.0206 0.0010 -0.9998
vn -0.9991 0.0426 0.0000
vn -0.8944 0.4473 0.0000
vn -0.0037 0.1571 0.9876
vn -0.0055 0.1549 -0.9879
vn -0.4332 0.9013 0.0004
vn 0.6804 -0.2847 0.6753
vn -0.6803 -0.2848 0.6753
vn -0.6741 -0.2847 0.6815
vn 0.6742 -0.2846 0.6815
vn 0.6804 -0.2847 -0.6753
vn 0.6742 -0.2846 -0.6815
vn -0.6741 -0.2847 -0.6815
vn -0.6803 -0.2847 -0.6753
vn -0.6803 -0.2848 -0.6753
vn -0.6803 -0.2847 0.6753
vn -0.5658 0.5997 0.5658
vn -0.7901 0.6130 -0.0000
vn -0.7901 0.6130 0.0000
vn -0.5658 0.5997 -0.5658
# 181 vertex normals

vt 0.6600 0.0103 0.0000
vt 0.6600 0.1880 0.0000
vt 0.5010 0.1880 0.0000
vt 0.5010 0.0103 1.0000
vt 0.8200 0.0103 0.0000
vt 0.8200 0.1880 0.0000
vt 0.9691 0.0092 0.0000
vt 0.9691 0.1869 0.0000
vt 0.1818 0.0103 0.0000
vt 0.1818 0.1880 0.0000
vt 0.0154 0.1880 0.0000
vt 0.0154 0.0103 0.0000
vt 0.3409 0.0103 0.0000
vt 0.3409 0.1880 0.0000
vt 0.7858 0.8675 0.0000
vt 0.7771 0.8829 0.0000
vt 0.7157 0.8646 0.0000
vt 0.7157 0.8467 0.0000
vt 0.5937 0.9183 0.0000
vt 0.6089 0.9274 0.0000
vt 0.5891 0.9869 0.0000
vt 0.5711 0.9869 1.0000
vt 0.8474 0.7590 0.0000
vt 0.7158 0.7198 0.0000
vt 0.9448 0.8541 0.0000
vt 0.8377 0.9182 0.0000
vt 0.9874 0.9869 0.0000
vt 0.8604 0.9869 1.0000
vt 0.4441 0.9869 0.0000
vt 0.4868 0.8540 0.0000
vt 0.5837 0.7592 0.0000
vt 0.6454 0.8677 0.0000
vt 0.5010 0.3193 0.0000
vt 0.6600 0.3193 0.0000
vt 0.6600 0.4895 0.0000
vt 0.5010 0.4895 0.0000
vt 0.8200 0.3193 0.0000
vt 0.8200 0.4895 0.0000
vt 0.9691 0.3182 0.0000
vt 0.9691 0.4884 0.0000
vt 0.0154 0.3193 0.0000
vt 0.1818 0.3193 0.0000
vt 0.1818 0.4895 0.0000
vt 0.0154 0.4895 0.0000
vt 0.3409 0.3193 0.0000
vt 0.3409 0.4895 0.0000
vt 0.9230 0.7737 0.0000
vt 0.9230 0.7096 1.0000
vt 0.9546 0.7642 0.0000
vt 0.9777 0.7411 0.0000
vt 0.8588 0.7096 0.0000
vt 0.8684 0.7411 0.0000
vt 0.8914 0.7641 0.0000
vt 0.6600 0.6939 0.0000
vt 0.5010 0.6939 1.0000
vt 0.8200 0.6939 0.0000
vt 0.9691 0.6928 0.0000
vt 0.0154 0.6939 0.0000
vt 0.1818 0.6939 0.0000
vt 0.3409 0.6939 0.0000
vt 0.7157 0.9869 0.0000
vt 0.8226 0.9274 0.0000
vt 0.6541 0.8830 0.0000
vt 0.8424 0.9869 0.0000
vt 0.9872 0.7096 1.0000
vt 0.2917 0.7536 0.0000
vt 0.3076 0.7088 0.0000
vt 0.2424 0.7089 0.0000
vt 0.2424 0.7536 0.0000
vt 0.2917 0.8073 0.0000
vt 0.2917 0.7804 0.0000
vt 0.2424 0.7804 0.5000
vt 0.2424 0.8073 0.0000
vt 0.4763 0.7089 0.0000
vt 0.3234 0.7535 0.0000
vt 0.4763 0.7536 0.5000
vt 0.4763 0.7804 0.0000
vt 0.3234 0.7803 0.0000
vt 0.3234 0.8071 0.0000
vt 0.4763 0.8073 0.0000
vt 0.2424 0.8218 0.0000
vt 0.3076 0.8217 0.0000
vt 0.4763 0.8218 0.0000
vt 0.3670 0.9159 0.0000
vt 0.3670 0.8404 0.0000
vt 0.3261 0.8404 0.0000
vt 0.3261 0.9159 0.0000
vt 0.4091 0.9159 0.0000
vt 0.4349 0.9159 0.0000
vt 0.4349 0.8404 0.0000
vt 0.4091 0.8404 0.0000
vt 0.4004 0.9816 0.0000
vt 0.3271 0.9816 0.0000
vt 0.3271 0.9324 0.0000
vt 0.4004 0.9324 0.0000
vt 0.2793 0.8404 0.0000
vt 0.2793 0.9159 0.0000
vt 0.1269 0.8654 0.0000
vt 0.1921 0.8006 0.5000
vt 0.0172 0.7074 0.0000
vt 0.0172 0.8025 0.0000
vt 0.0172 0.9859 0.0000
vt 0.1862 0.9859 1.0000
vt 0.2823 0.9859 0.0000
# 104 texture coords

g base
usemtl Material__4
s 1
f 1/1/1 2/2/2 3/3/3 
f 3/3/3 4/4/4 1/1/1 
f 5/5/5 6/6/6 2/2/2 
f 2/2/2 1/1/1 5/5/5 
f 7/7/7 8/8/8 6/6/6 
f 6/6/6 5/5/5 7/7/7 
f 9/9/9 10/10/10 11/11/11 
f 11/11/11 12/12/12 9/9/9 
f 13/13/13 14/14/14 10/10/10 
f 10/10/10 9/9/9 13/13/13 
f 4/4/4 3/3/3 14/14/14 
f 14/14/14 13/13/13 4/4/4 
f 15/15/15 16/16/16 17/17/17 
f 17/17/17 18/18/18 15/15/15 
f 19/19/19 20/20/20 21/21/21 
f 21/21/21 22/22/22 19/19/19 
s 2
f 23/23/23 15/15/24 18/18/25 
f 18/18/25 24/24/25 23/23/23 
f 25/25/26 26/26/27 15/15/24 
f 15/15/24 23/23/23 25/25/26 
f 27/27/28 28/28/28 26/26/27 
f 26/26/27 25/25/26 27/27/28 
f 22/22/29 29/29/29 30/30/30 
f 30/30/30 19/19/31 22/22/29 
f 31/31/32 32/32/33 19/19/31 
f 19/19/31 30/30/30 31/31/32 
f 24/24/25 18/18/25 32/32/33 
f 32/32/33 31/31/32 24/24/25 
s 1
f 33/33/34 34/34/35 35/35/36 
f 35/35/36 36/36/37 33/33/34 
f 35/35/36 34/34/35 37/37/38 
f 37/37/38 38/38/39 35/35/36 
f 37/37/38 39/39/40 40/40/41 
f 40/40/41 38/38/39 37/37/38 
f 41/41/42 42/42/43 43/43/44 
f 43/43/44 44/44/45 41/41/42 
f 42/42/43 45/45/46 46/46/47 
f 46/46/47 43/43/44 42/42/43 
f 45/45/46 33/33/34 36/36/37 
f 36/36/37 46/46/47 45/45/46 
s 2
f 4/47/48 47/48/49 1/49/49 
f 1/49/49 47/48/49 5/50/49 
f 12/51/50 47/48/49 9/52/48 
f 9/52/48 47/48/49 13/53/48 
s 1
f 36/36/37 35/35/36 23/54/51 
f 23/54/51 24/55/52 36/36/37 
f 23/54/51 35/35/36 38/38/39 
f 38/38/39 25/56/53 23/54/51 
f 38/38/39 40/40/41 27/57/54 
f 27/57/54 25/56/53 38/38/39 
f 29/58/55 44/44/45 43/43/44 
f 43/43/44 30/59/56 29/58/55 
f 30/59/56 43/43/44 46/46/47 
f 46/46/47 31/60/57 30/59/56 
f 31/60/57 46/46/47 36/36/37 
f 36/36/37 24/55/52 31/60/57 
f 3/3/3 2/2/2 34/34/35 
f 34/34/35 33/33/34 3/3/3 
f 2/2/2 6/6/6 37/37/38 
f 37/37/38 34/34/35 2/2/2 
f 6/6/6 8/8/8 39/39/40 
f 39/39/40 37/37/38 6/6/6 
f 11/11/11 10/10/10 42/42/43 
f 42/42/43 41/41/42 11/11/11 
f 10/10/10 14/14/14 45/45/46 
f 45/45/46 42/42/43 10/10/10 
f 14/14/14 3/3/3 33/33/34 
f 33/33/34 45/45/46 14/14/14 
f 16/16/16 48/61/58 17/17/17 
s 2
f 49/62/59 48/61/60 16/16/61 
f 20/20/62 48/61/60 21/21/63 
f 50/63/64 48/61/60 20/20/62 
s 1
f 26/26/65 28/28/66 51/64/67 
f 51/64/67 49/62/68 26/26/65 
f 26/26/65 49/62/68 16/16/16 
f 16/16/16 15/15/15 26/26/65 
f 32/32/69 18/18/18 17/17/17 
f 17/17/17 50/63/70 32/32/69 
f 32/32/69 50/63/70 20/20/20 
f 20/20/20 19/19/19 32/32/69 
s 2
f 49/62/59 51/64/71 48/61/60 
f 50/63/64 17/17/72 48/61/60 
f 47/48/49 4/47/48 13/53/48 
f 47/48/49 7/65/50 5/50/49 
s 1
f 52/66/73 53/67/74 54/68/75 
f 54/68/75 55/69/76 52/66/73 
f 56/70/77 57/71/78 58/72/79 
f 58/72/79 59/73/80 56/70/77 
f 60/74/81 53/67/74 61/75/82 
f 61/75/82 62/76/83 60/74/81 
f 63/77/84 64/78/85 65/79/86 
f 65/79/86 66/80/87 63/77/84 
f 53/67/74 52/66/73 61/75/82 
f 64/78/85 57/71/78 56/70/77 
f 56/70/77 65/79/86 64/78/85 
f 52/66/73 55/69/76 58/72/79 
f 58/72/79 57/71/78 52/66/73 
f 56/70/77 59/73/80 54/81/75 
f 54/81/75 53/82/74 56/70/77 
f 62/76/83 61/75/82 64/78/85 
f 64/78/85 63/77/84 62/76/83 
f 66/80/87 65/79/86 53/82/74 
f 53/82/74 60/83/81 66/80/87 
f 64/78/85 61/75/82 52/66/73 
f 52/66/73 57/71/78 64/78/85 
f 56/70/77 53/82/74 65/79/86 
f 67/84/88 68/85/89 69/86/90 
f 69/86/90 70/87/91 67/84/88 
f 71/88/92 72/89/93 73/90/94 
f 73/90/94 74/91/95 71/88/92 
s 2
f 74/92/50 73/93/50 69/94/50 
f 69/94/50 68/95/50 74/92/50 
s 1
f 71/88/92 74/91/95 68/85/89 
f 68/85/89 67/84/88 71/88/92 
f 73/96/94 72/97/93 70/87/91 
f 70/87/91 69/86/90 73/96/94 
f 75/84/92 76/87/96 77/86/94 
f 77/86/94 78/85/95 75/84/92 
f 79/88/88 80/91/89 81/90/90 
f 81/90/90 82/89/97 79/88/88 
s 2
f 80/92/50 78/95/50 77/94/50 
f 77/94/50 81/93/50 80/92/50 
s 1
f 79/88/88 75/84/92 78/85/95 
f 78/85/95 80/91/89 79/88/88 
f 81/96/90 77/86/94 76/87/96 
f 76/87/96 82/97/97 81/96/90 
f 83/98/98 84/99/98 85/100/99 
f 85/100/99 86/101/100 83/98/98 
s 2
f 86/101/101 87/102/101 83/98/101 
s 1
f 88/98/102 86/101/100 85/100/99 
f 85/100/99 89/99/102 88/98/102 
s 2
f 86/101/101 88/98/101 87/102/101 
s 1
f 90/103/103 88/98/102 89/99/102 
f 89/99/102 91/104/104 90/103/103 
f 84/99/98 83/98/98 92/103/105 
f 92/103/105 93/104/106 84/99/98 
s 2
f 88/98/101 90/103/101 87/102/101 
f 87/102/101 92/103/101 83/98/101 
s 1
f 94/1/107 95/4/108 96/3/109 
f 96/3/109 97/2/110 94/1/107 
f 98/5/111 94/1/107 97/2/110 
f 97/2/110 99/6/112 98/5/111 
f 7/7/7 98/5/111 99/6/112 
f 99/6/112 8/8/8 7/7/7 
f 100/9/113 12/12/12 11/11/11 
f 11/11/11 101/10/114 100/9/113 
f 102/13/115 100/9/113 101/10/114 
f 101/10/114 103/14/116 102/13/115 
f 95/4/108 102/13/115 103/14/116 
f 103/14/116 96/3/109 95/4/108 
f 104/15/117 105/18/118 106/17/119 
f 106/17/119 107/16/120 104/15/117 
f 108/19/121 22/22/22 21/21/21 
f 21/21/21 109/20/122 108/19/121 
s 2
f 110/23/123 111/24/124 105/18/124 
f 105/18/124 104/15/125 110/23/123 
f 112/25/126 110/23/123 104/15/125 
f 104/15/125 113/26/127 112/25/126 
f 27/27/28 112/25/126 113/26/127 
f 113/26/127 28/28/28 27/27/28 
f 22/22/29 108/19/128 114/30/129 
f 114/30/129 29/29/29 22/22/29 
f 115/31/130 114/30/129 108/19/128 
f 108/19/128 116/32/131 115/31/130 
f 111/24/124 115/31/130 116/32/131 
f 116/32/131 105/18/124 111/24/124 
s 1
f 117/33/132 118/36/133 119/35/134 
f 119/35/134 120/34/135 117/33/132 
f 119/35/134 121/38/136 122/37/137 
f 122/37/137 120/34/135 119/35/134 
f 122/37/137 121/38/136 40/40/41 
f 40/40/41 39/39/40 122/37/137 
f 41/41/42 44/44/45 123/43/138 
f 123/43/138 124/42/139 41/41/42 
f 124/42/139 123/43/138 125/46/140 
f 125/46/140 126/45/141 124/42/139 
f 126/45/141 125/46/140 118/36/133 
f 118/36/133 117/33/132 126/45/141 
s 2
f 95/47/50 94/49/142 47/48/49 
f 94/49/142 98/50/142 47/48/49 
f 12/51/50 100/52/50 47/48/49 
f 100/52/50 102/53/50 47/48/49 
s 1
f 118/36/133 111/55/143 110/54/144 
f 110/54/144 119/35/134 118/36/133 
f 110/54/144 112/56/145 121/38/136 
f 121/38/136 119/35/134 110/54/144 
f 121/38/136 112/56/145 27/57/54 
f 27/57/54 40/40/41 121/38/136 
f 29/58/55 114/59/146 123/43/138 
f 123/43/138 44/44/45 29/58/55 
f 114/59/146 115/60/147 125/46/140 
f 125/46/140 123/43/138 114/59/146 
f 115/60/147 111/55/143 118/36/133 
f 118/36/133 125/46/140 115/60/147 
f 96/3/109 117/33/132 120/34/135 
f 120/34/135 97/2/110 96/3/109 
f 97/2/110 120/34/135 122/37/137 
f 122/37/137 99/6/112 97/2/110 
f 99/6/112 122/37/137 39/39/40 
f 39/39/40 8/8/8 99/6/112 
f 11/11/11 41/41/42 124/42/139 
f 124/42/139 101/10/114 11/11/11 
f 101/10/114 124/42/139 126/45/141 
f 126/45/141 103/14/116 101/10/114 
f 103/14/116 126/45/141 117/33/132 
f 117/33/132 96/3/109 103/14/116 
s 2
f 107/16/148 106/17/149 48/61/60 
f 127/62/150 107/16/148 48/61/60 
f 109/20/151 21/21/63 48/61/60 
f 128/63/152 109/20/151 48/61/60 
s 1
f 113/26/153 127/62/154 51/64/67 
f 51/64/67 28/28/66 113/26/153 
f 113/26/153 104/15/117 107/16/120 
f 107/16/120 127/62/154 113/26/153 
f 116/32/155 128/63/156 106/17/119 
f 106/17/119 105/18/118 116/32/155 
f 116/32/155 108/19/121 109/20/122 
f 109/20/122 128/63/156 116/32/155 
s 2
f 127/62/150 48/61/60 51/64/71 
f 128/63/152 48/61/60 106/17/149 
f 47/48/49 102/53/50 95/47/50 
f 47/48/49 98/50/142 7/65/50 
s 1
f 129/66/157 130/69/158 131/68/159 
f 131/68/159 132/67/160 129/66/157 
f 133/70/161 134/73/162 135/72/163 
f 135/72/163 136/71/164 133/70/161 
f 60/74/81 62/76/83 137/75/165 
f 137/75/165 132/67/160 60/74/81 
f 63/77/84 66/80/87 138/79/166 
f 138/79/166 139/78/167 63/77/84 
f 132/67/160 137/75/165 129/66/157 
f 139/78/167 138/79/166 133/70/161 
f 133/70/161 136/71/164 139/78/167 
f 129/66/157 136/71/164 135/72/163 
f 135/72/163 130/69/158 129/66/157 
f 133/70/161 132/82/160 131/81/159 
f 131/81/159 134/73/162 133/70/161 
f 62/76/83 63/77/84 139/78/167 
f 139/78/167 137/75/165 62/76/83 
f 66/80/87 60/83/81 132/82/160 
f 132/82/160 138/79/166 66/80/87 
f 139/78/167 136/71/164 129/66/157 
f 129/66/157 137/75/165 139/78/167 
f 133/70/161 138/79/166 132/82/160 
f 140/84/168 141/87/169 142/86/170 
f 142/86/170 143/85/171 140/84/168 
f 144/88/172 145/91/173 146/90/174 
f 146/90/174 147/89/175 144/88/172 
s 2
f 145/92/50 143/95/50 142/94/50 
f 142/94/50 146/93/50 145/92/50 
s 1
f 144/88/172 140/84/168 143/85/171 
f 143/85/171 145/91/173 144/88/172 
f 146/96/174 142/86/170 141/87/169 
f 141/87/169 147/97/175 146/96/174 
f 148/84/172 149/85/173 150/86/174 
f 150/86/174 151/87/176 148/84/172 
f 152/88/168 153/89/177 154/90/170 
f 154/90/170 155/91/171 152/88/168 
s 2
f 155/92/50 154/93/50 150/94/50 
f 150/94/50 149/95/50 155/92/50 
s 1
f 152/88/168 155/91/171 149/85/173 
f 149/85/173 148/84/172 152/88/168 
f 154/96/170 153/97/177 151/87/176 
f 151/87/176 150/86/174 154/96/170 
f 156/98/178 157/101/179 158/100/180 
f 158/100/180 159/99/178 156/98/178 
s 2
f 157/101/101 156/98/101 87/102/101 
s 1
f 160/98/181 161/99/181 158/100/180 
f 158/100/180 157/101/179 160/98/181 
s 2
f 157/101/101 87/102/101 160/98/101 
s 1
f 90/103/103 91/104/104 161/99/181 
f 161/99/181 160/98/181 90/103/103 
f 159/99/178 93/104/106 92/103/105 
f 92/103/105 156/98/178 159/99/178 
s 2
f 160/98/101 87/102/101 90/103/101 
f 87/102/101 156/98/101 92/103/101 
# 276 faces

