# Max2Obj Version 4.0 Mar 10th, 2001
#
# object up to come ...
#
v  49.999958 100.000000 0.000000
v  49.999954 100.000000 -100.000000
v  0.000000 100.000000 -50.000046
v  100.000000 100.000000 -50.000046
v  49.999954 0.000000 0.000000
v  49.999947 0.000000 -100.000000
v  0.000000 0.000000 -50.000050
v  100.000000 0.000000 -50.000050
# 8 vertices

vt  0.022566 1.000000 0.000000
vt  0.994359 1.000000 0.000000
vt  0.022566 1.000000 0.000000
vt  0.994359 1.000000 0.000000
vt  0.022566 0.489698 0.000000
vt  0.994359 0.489698 0.000000
vt  0.022566 0.489698 0.000000
vt  0.994359 0.489698 0.000000
# 8 texture vertices

vn  1.000000 -0.000000 -0.000000
vn  1.000000 -0.000000 -0.000000
vn  0.000000 -0.000000 1.000000
vn  0.000000 -0.000000 1.000000
vn  1.000000 -0.000000 -0.000000
vn  1.000000 -0.000000 -0.000000
vn  0.000000 -0.000000 1.000000
vn  0.000000 -0.000000 1.000000
# 8 vertex normals

g up
s 0
f 5/5/5 6/6/6 2/2/2
f 2/2/2 1/1/1 5/5/5
f 7/7/7 8/8/8 4/4/4
f 4/4/4 3/3/3 7/7/7
# 4 faces

g
# object down to come ...
#
v  49.999947 0.000000 0.000000
v  49.999943 0.000000 -100.000000
v  49.999954 100.000000 0.000000
v  49.999947 100.000000 -100.000000
v  0.000000 0.000000 -50.000053
v  100.000000 0.000000 -50.000053
v  0.000000 100.000000 -50.000050
v  100.000000 100.000000 -50.000050
# 8 vertices

vt  0.022566 0.000000 0.000000
vt  0.994359 0.000000 0.000000
vt  0.022566 0.489698 0.000000
vt  0.994359 0.489698 0.000000
vt  0.022566 0.000000 0.000000
vt  0.994359 0.000000 0.000000
vt  0.022566 0.489698 0.000000
vt  0.994359 0.489698 0.000000
# 8 texture vertices

vn  1.000000 -0.000000 -0.000000
vn  1.000000 -0.000000 -0.000000
vn  1.000000 -0.000000 -0.000000
vn  1.000000 -0.000000 -0.000000
vn  0.000000 -0.000000 1.000000
vn  0.000000 -0.000000 1.000000
vn  0.000000 -0.000000 1.000000
vn  0.000000 -0.000000 1.000000
# 8 vertex normals

g down
s 0
f 9/9/9 10/10/10 12/12/12
f 12/12/12 11/11/11 9/9/9
f 13/13/13 14/14/14 16/16/16
f 16/16/16 15/15/15 13/13/13
# 4 faces

g
