# 3ds Max Wavefront OBJ Exporter v0.97b - (c)2007 guruware
# File Created: 27.01.2021 15:08:52

mtllib ??\scifi_closet.mtl

#
# object base2
#

v  92.4908 0.0000 -94.1903
v  92.4908 0.0000 -5.8097
v  0.0000 0.0000 -5.8097
v  0.0000 0.0000 -94.1903
v  88.8277 200.0000 -91.0284
v  0.0000 200.0000 -91.0284
v  0.0000 200.0000 -8.9715
v  88.8277 200.0000 -8.9715
v  100.0000 100.0000 -100.0000
v  100.0000 189.4189 -100.0000
v  100.0000 189.4189 -0.0000
v  100.0000 100.0000 -0.0000
v  100.0000 5.5257 -0.0000
v  100.0000 5.5257 -100.0000
v  18.4900 91.6202 -0.0000
v  18.4900 52.0118 -0.0000
v  86.5577 52.0118 -0.0000
v  86.5577 91.6202 -0.0000
v  0.0000 5.5257 -100.0000
v  0.0000 100.0000 -100.0000
v  18.4900 7.0668 -0.0000
v  24.1933 4.3177 -2.3027
v  80.8543 4.3177 -2.3027
v  86.5577 7.0668 -0.0000
v  86.3130 117.9866 0.0000
v  18.7347 117.9866 0.0000
v  24.7042 112.0170 0.0000
v  80.3434 112.0170 0.0000
v  0.0000 189.4189 -100.0000
v  0.0000 189.4290 -0.0000
v  90.6859 169.5445 -0.0000
v  90.6859 116.1752 -0.0000
v  0.0000 100.0000 -0.0000
v  14.3617 116.1752 -0.0000
v  14.3617 169.5525 -0.0000
v  80.7837 95.9308 -0.0000
v  24.2639 95.9308 -0.0000
v  82.1548 107.6441 -0.0000
v  82.1548 178.0766 -0.0000
v  22.8929 178.0828 -0.0000
v  22.8929 107.6441 -0.0000
v  88.4995 168.6389 -2.0651
v  88.4995 117.0809 -2.0651
v  81.2489 175.8902 -2.0651
v  23.7984 175.8962 -2.0651
v  16.5482 168.6468 -2.0651
v  16.5482 117.0809 -2.0651
v  23.7985 109.8305 -2.0651
v  81.2491 109.8305 -2.0651
v  86.3130 167.7334 -0.0000
v  80.3431 173.7039 -0.0000
v  24.7039 173.7097 -0.0000
v  18.7347 167.7411 -0.0000
v  90.6859 93.6309 -0.0000
v  90.6859 5.5257 -0.0000
v  82.1548 100.0000 -0.0000
v  22.8929 100.0000 -0.0000
v  0.0000 5.5257 -0.0000
v  14.3617 5.5257 -0.0000
v  14.3617 93.6309 -0.0000
v  22.8929 1.4136 -4.3235
v  82.1548 1.4136 -4.3235
v  86.5577 47.2635 -0.0000
v  18.4900 47.2635 -0.0000
v  88.6218 49.6788 -2.5491
v  88.6218 6.3672 -2.5491
v  81.4692 98.0364 -2.5491
v  88.6218 92.6965 -2.5491
v  23.5784 98.0364 -2.5491
v  16.4258 92.6965 -2.5491
v  16.4258 49.6788 -2.5491
v  23.5431 3.1740 -5.7348
v  16.4258 6.3672 -2.5491
v  81.5045 3.1740 -5.7348
# 74 vertices

vn 0.0000 -1.0000 -0.0000
vn 0.0000 1.0000 -0.0000
vn 1.0000 0.0000 -0.0000
vn 0.9494 0.3142 -0.0000
vn 0.9360 -0.3519 -0.0000
vn 0.5927 -0.8054 -0.0000
vn 0.0000 0.0000 1.0000
vn 0.0000 0.0000 -1.0000
vn 0.0000 -0.2676 -0.9635
vn 0.0000 -0.3942 -0.9190
vn 0.0000 -0.1773 0.9842
vn 0.0000 -0.6421 0.7666
vn 0.0000 -0.7246 -0.6892
vn 0.0000 0.3444 -0.9388
vn 0.0000 0.2484 -0.9687
vn 0.6876 0.7261 -0.0000
vn 0.0001 0.6468 0.7627
vn 0.0000 0.6471 0.7624
vn 0.0000 0.3447 0.9387
vn 0.0000 0.2484 0.9687
vn 0.0000 0.6467 -0.7627
vn -0.6866 0.0000 0.7270
vn -0.6074 -0.2516 0.7535
vn -0.3290 -0.2278 0.9164
vn 0.0668 -0.1892 0.9797
vn -0.2517 -0.6074 0.7535
vn 0.2516 -0.6075 0.7535
vn 0.6074 -0.2516 0.7535
vn 0.3290 -0.2279 0.9164
vn 0.6866 0.0000 0.7270
vn -0.0668 -0.1892 0.9797
vn 0.4855 0.4855 0.7270
vn 0.2516 0.6074 0.7535
vn -0.2516 0.6074 0.7535
vn -0.4855 0.4855 0.7270
vn 0.4856 0.4855 0.7270
vn 0.2517 0.6074 0.7535
vn -0.2516 0.6075 0.7535
vn -0.4855 0.4856 0.7270
vn -0.2516 -0.6074 0.7535
vn 0.2516 -0.6074 0.7535
vn 0.0000 -0.2676 0.9635
vn 0.0000 -0.4841 0.8750
vn 0.0000 -0.3942 0.9190
vn 0.0000 -0.7246 0.6892
vn -0.7772 0.0000 0.6293
vn -0.2401 -0.1878 0.9524
vn -0.0204 -0.4357 0.8998
vn -0.6703 -0.3311 0.6641
vn -0.2454 -0.7350 0.6321
vn -0.2425 -0.7360 0.6321
vn -0.3766 -0.3328 0.8645
vn 0.2454 -0.7350 0.6321
vn 0.2425 -0.7360 0.6321
vn 0.6703 -0.3311 0.6641
vn 0.3766 -0.3328 0.8645
vn 0.2401 -0.1878 0.9524
vn 0.5438 0.5237 0.6558
vn 0.3370 0.5100 0.7914
vn 0.2500 0.5600 0.7899
vn 0.5349 0.5719 0.6219
vn -0.3175 0.5333 0.7841
vn -0.2322 0.5547 0.7990
vn -0.5721 0.5195 0.6347
vn -0.5666 0.5071 0.6494
vn 0.7772 0.0000 0.6293
vn 0.5986 -0.5198 0.6095
vn 0.4620 0.6188 0.6354
vn 0.2375 0.7166 0.6558
vn 0.2386 0.7162 0.6558
vn -0.2375 0.7166 0.6558
vn -0.2386 0.7162 0.6558
vn -0.4620 0.6188 0.6354
vn -0.4689 -0.4288 0.7722
vn 0.0039 -0.4349 0.9005
vn -0.1186 -0.9351 0.3341
vn -0.1294 -0.9293 0.3459
vn -0.5993 -0.5025 0.6232
vn 0.1256 -0.9299 0.3457
vn 0.1503 -0.9290 0.3381
vn 0.0000 0.7259 0.6878
vn 0.4689 -0.4288 0.7722
# 82 vertex normals

vt 0.8565 0.0034 0.0000
vt 0.9973 0.0034 0.0000
vt 0.9973 0.2042 0.0000
vt 0.8565 0.2042 0.0000
vt 0.0059 0.0046 0.0000
vt 0.8457 0.0046 0.0000
vt 0.8457 0.2042 0.0000
vt 0.0059 0.2042 0.0000
vt 0.3272 0.6232 0.0000
vt 0.3272 0.3023 0.0000
vt 0.6507 0.3023 0.0000
vt 0.6507 0.6232 0.0000
vt 0.6507 0.9355 0.0000
vt 0.6507 0.9924 0.0000
vt 0.3272 0.9924 0.0000
vt 0.3272 0.9355 0.0000
vt 0.9206 0.6605 0.0000
vt 0.9206 0.7910 0.0000
vt 0.7074 0.7910 0.0000
vt 0.7074 0.6605 0.0000
vt 0.0054 0.9355 0.0000
vt 0.0054 0.6232 0.0000
vt 0.9206 0.9355 0.0000
vt 0.9036 0.9578 0.0000
vt 0.7240 0.9578 0.0000
vt 0.7083 0.9355 0.0000
vt 0.0054 0.9924 0.0000
vt 0.7054 0.5631 0.0000
vt 0.9255 0.5631 0.0000
vt 0.9036 0.5822 0.0000
vt 0.7240 0.5822 0.0000
vt 0.0054 0.3023 0.0000
vt 0.3272 0.2142 0.0000
vt 0.6507 0.2142 0.0000
vt 0.9957 0.2142 0.0000
vt 0.9957 0.3023 0.0000
vt 0.0054 0.2142 0.0000
vt 0.6794 0.3890 0.0000
vt 0.6794 0.5713 0.0000
vt 0.9957 0.6232 0.0000
vt 0.9451 0.5713 0.0000
vt 0.9451 0.3890 0.0000
vt 0.7250 0.6521 0.0000
vt 0.9036 0.6521 0.0000
vt 0.7065 0.6014 0.0000
vt 0.7130 0.3581 0.0000
vt 0.9128 0.3581 0.0000
vt 0.9128 0.6014 0.0000
vt 0.6850 0.5732 0.0000
vt 0.6850 0.3904 0.0000
vt 0.6895 0.3912 0.0000
vt 0.6895 0.5723 0.0000
vt 0.7151 0.3617 0.0000
vt 0.7200 0.3630 0.0000
vt 0.9117 0.3617 0.0000
vt 0.9073 0.3630 0.0000
vt 0.9426 0.3893 0.0000
vt 0.9402 0.3928 0.0000
vt 0.9426 0.5687 0.0000
vt 0.9402 0.5652 0.0000
vt 0.9126 0.5995 0.0000
vt 0.9082 0.5976 0.0000
vt 0.7129 0.5995 0.0000
vt 0.7166 0.5976 0.0000
vt 0.6948 0.5672 0.0000
vt 0.6948 0.3931 0.0000
vt 0.7054 0.3972 0.0000
vt 0.7186 0.3679 0.0000
vt 0.7240 0.3777 0.0000
vt 0.9077 0.3679 0.0000
vt 0.9036 0.3777 0.0000
vt 0.9353 0.3931 0.0000
vt 0.9255 0.3972 0.0000
vt 0.9353 0.5672 0.0000
vt 0.9077 0.5918 0.0000
vt 0.7186 0.5918 0.0000
vt 0.6791 0.6502 0.0000
vt 0.6791 0.9355 0.0000
vt 0.7130 0.6194 0.0000
vt 0.9128 0.6194 0.0000
vt 0.9957 0.9355 0.0000
vt 0.9501 0.9355 0.0000
vt 0.9501 0.6502 0.0000
vt 0.9957 0.9924 0.0000
vt 0.9128 0.9823 0.0000
vt 0.7130 0.9823 0.0000
vt 0.7083 0.8126 0.0000
vt 0.9206 0.8126 0.0000
vt 0.6826 0.9313 0.0000
vt 0.6862 0.8008 0.0000
vt 0.6862 0.9313 0.0000
vt 0.6821 0.6520 0.0000
vt 0.7100 0.6262 0.0000
vt 0.7130 0.6287 0.0000
vt 0.6849 0.6535 0.0000
vt 0.9154 0.6262 0.0000
vt 0.9127 0.6287 0.0000
vt 0.9424 0.6538 0.0000
vt 0.9395 0.6565 0.0000
vt 0.9395 0.8008 0.0000
vt 0.9328 0.9468 0.0000
vt 0.9098 0.9794 0.0000
vt 0.9043 0.9666 0.0000
vt 0.9309 0.9449 0.0000
vt 0.7143 0.9794 0.0000
vt 0.7180 0.9666 0.0000
vt 0.6982 0.9443 0.0000
vt 0.7018 0.9443 0.0000
vt 0.6977 0.9256 0.0000
vt 0.6977 0.8118 0.0000
vt 0.7022 0.8211 0.0000
vt 0.7022 0.9256 0.0000
vt 0.6970 0.6553 0.0000
vt 0.7143 0.6429 0.0000
vt 0.7180 0.6476 0.0000
vt 0.7027 0.6588 0.0000
vt 0.7186 0.6299 0.0000
vt 0.9077 0.6299 0.0000
vt 0.8957 0.6472 0.0000
vt 0.7328 0.6472 0.0000
vt 0.9274 0.6601 0.0000
vt 0.9321 0.6734 0.0000
vt 0.9305 0.6773 0.0000
vt 0.9267 0.6676 0.0000
vt 0.9321 0.7982 0.0000
vt 0.9305 0.7951 0.0000
vt 0.9344 0.9256 0.0000
vt 0.9083 0.9609 0.0000
vt 0.9059 0.9593 0.0000
vt 0.9298 0.9256 0.0000
vt 0.7217 0.9626 0.0000
vt 0.7225 0.9595 0.0000
vt 0.9142 0.8096 0.0000
vt 0.7148 0.8096 0.0000
vt 0.7020 0.8029 0.0000
vt 0.9280 0.8029 0.0000
vt 0.6970 0.7982 0.0000
vt 0.7016 0.7951 0.0000
vt 0.9298 0.8211 0.0000
vt 0.9344 0.8118 0.0000
vt 0.9422 0.9273 0.0000
vt 0.9395 0.9273 0.0000
# 142 texture coords

g base2
usemtl Material__27
s 4
f 1/1/1 2/2/1 3/3/1 
f 3/3/1 4/4/1 1/1/1 
f 5/5/2 6/6/2 7/7/2 
f 7/7/2 8/8/2 5/5/2 
s 1
f 9/9/3 10/10/4 11/11/4 
f 11/11/4 12/12/3 9/9/3 
f 13/13/5 2/14/6 1/15/6 
f 1/15/6 14/16/5 13/13/5 
s 2
f 15/17/7 16/18/7 17/19/7 
f 17/19/7 18/20/7 15/17/7 
f 9/9/8 14/16/9 19/21/10 
f 19/21/10 20/22/8 9/9/8 
f 21/23/11 22/24/12 23/25/12 
f 23/25/12 24/26/11 21/23/11 
f 19/21/10 14/16/9 1/15/13 
f 1/15/13 4/27/13 19/21/10 
s 1
f 13/13/5 14/16/5 9/9/3 
f 9/9/3 12/12/3 13/13/5 
s 2
f 25/28/7 26/29/7 27/30/7 
f 27/30/7 28/31/7 25/28/7 
f 29/32/14 10/10/15 9/9/8 
f 9/9/8 20/22/8 29/32/14 
s 1
f 5/33/16 8/34/16 11/11/4 
f 11/11/4 10/10/4 5/33/16 
s 2
f 8/34/17 7/35/18 30/36/19 
f 30/36/19 11/11/20 8/34/17 
f 6/37/21 5/33/21 10/10/15 
f 10/10/15 29/32/14 6/37/21 
f 12/12/7 11/11/20 31/38/7 
f 31/38/7 32/39/7 12/12/7 
f 30/36/19 33/40/7 34/41/7 
f 34/41/7 35/42/7 30/36/19 
f 15/17/7 18/20/7 36/43/7 
f 36/43/7 37/44/7 15/17/7 
f 32/39/7 38/45/7 12/12/7 
f 11/11/20 39/46/7 31/38/7 
f 35/42/7 40/47/7 30/36/19 
f 41/48/7 34/41/7 33/40/7 
f 30/36/19 40/47/7 39/46/7 
f 39/46/7 11/11/20 30/36/19 
s 1
f 32/49/22 31/50/23 42/51/24 
f 42/51/24 43/52/25 32/49/22 
f 31/50/23 39/53/26 44/54/26 
f 44/54/26 42/51/24 31/50/23 
f 39/53/26 40/55/27 45/56/27 
f 45/56/27 44/54/26 39/53/26 
f 40/55/27 35/57/28 46/58/29 
f 46/58/29 45/56/27 40/55/27 
f 35/57/28 34/59/30 47/60/31 
f 47/60/31 46/58/29 35/57/28 
s 4
f 34/59/32 41/61/33 48/62/33 
f 48/62/33 47/60/32 34/59/32 
f 41/61/33 38/63/34 49/64/34 
f 49/64/34 48/62/33 41/61/33 
f 38/63/34 32/49/35 43/52/35 
f 43/52/35 49/64/34 38/63/34 
s 1
f 43/65/25 42/66/24 50/67/30 
f 50/67/30 25/28/28 43/65/25 
s 4
f 42/66/36 44/68/37 51/69/37 
f 51/69/37 50/67/36 42/66/36 
f 44/68/37 45/70/38 52/71/38 
f 52/71/38 51/69/37 44/68/37 
f 45/70/38 46/72/39 53/73/39 
f 53/73/39 52/71/38 45/70/38 
s 1
f 46/72/29 47/74/31 26/29/23 
f 26/29/23 53/73/22 46/72/29 
f 47/74/31 48/75/40 27/30/40 
f 27/30/40 26/29/23 47/74/31 
f 48/75/40 49/76/41 28/31/41 
f 28/31/41 27/30/40 48/75/40 
f 49/76/41 43/65/25 25/28/28 
f 25/28/28 28/31/41 49/76/41 
s 2
f 13/13/42 12/12/7 54/77/7 
f 54/77/7 55/78/43 13/13/42 
f 12/12/7 56/79/7 54/77/7 
f 38/45/7 41/48/7 57/80/7 
f 57/80/7 56/79/7 38/45/7 
f 41/48/7 33/40/7 57/80/7 
f 33/40/7 58/81/44 59/82/43 
f 59/82/43 60/83/7 33/40/7 
f 58/81/44 3/84/45 61/85/45 
f 61/85/45 59/82/43 58/81/44 
f 13/13/42 55/78/43 62/86/45 
f 62/86/45 2/14/45 13/13/42 
f 61/85/45 3/84/45 2/14/45 
f 2/14/45 62/86/45 61/85/45 
f 33/40/7 60/83/7 57/80/7 
f 12/12/7 38/45/7 56/79/7 
f 21/23/11 24/26/11 63/87/7 
f 63/87/7 64/88/7 21/23/11 
s 1
f 55/89/46 65/90/47 66/91/48 
f 54/92/49 56/93/50 67/94/51 
f 67/94/51 68/95/52 54/92/49 
f 56/93/50 57/96/53 69/97/54 
f 69/97/54 67/94/51 56/93/50 
f 57/96/53 60/98/55 70/99/56 
f 70/99/56 69/97/54 57/96/53 
f 60/98/55 71/100/57 70/99/56 
s 4
f 59/101/58 61/102/59 72/103/60 
f 72/103/60 73/104/61 59/101/58 
f 61/102/59 62/105/62 74/106/63 
f 74/106/63 72/103/60 61/102/59 
f 62/105/62 55/107/64 66/108/65 
f 66/108/65 74/106/63 62/105/62 
s 1
f 66/109/48 65/110/47 63/111/66 
f 63/111/66 24/112/67 66/109/48 
s 4
f 68/113/68 67/114/69 36/115/70 
f 36/115/70 18/116/68 68/113/68 
f 67/117/69 69/118/71 37/119/72 
f 37/119/72 36/120/70 67/117/69 
f 69/121/71 70/122/73 15/123/73 
f 15/123/73 37/124/72 69/121/71 
s 1
f 70/122/56 71/125/57 16/126/74 
f 16/126/74 15/123/46 70/122/56 
f 73/127/75 72/128/76 22/129/77 
f 22/129/77 21/130/78 73/127/75 
f 72/128/76 74/131/79 23/132/80 
f 23/132/80 22/129/77 72/128/76 
f 74/131/79 66/109/48 24/112/67 
f 24/112/67 23/132/80 74/131/79 
s 4
f 64/133/81 63/134/81 65/135/81 
f 65/135/81 71/136/81 64/133/81 
s 1
f 65/137/47 17/138/82 16/126/74 
f 16/126/74 71/125/57 65/137/47 
f 68/113/52 18/116/66 17/138/82 
f 17/138/82 65/137/47 68/113/52 
f 73/127/75 21/130/78 64/139/46 
f 64/139/46 71/140/57 73/127/75 
s 2
f 51/69/7 52/71/7 53/73/7 
f 53/73/7 50/67/7 51/69/7 
f 50/67/7 53/73/7 26/29/7 
f 26/29/7 25/28/7 50/67/7 
s 1
f 54/92/49 68/95/52 65/90/47 
f 55/89/46 54/92/49 65/90/47 
f 60/98/55 59/141/66 71/100/57 
f 59/141/66 73/142/75 71/100/57 
# 136 faces

#
# object base1
#

v  7.5092 -0.0000 -94.1903
v  100.0000 -0.0000 -94.1903
v  100.0000 -0.0000 -5.8097
v  7.5092 -0.0000 -5.8097
v  11.1723 200.0000 -91.0285
v  11.1723 200.0000 -8.9716
v  100.0000 200.0000 -8.9716
v  100.0000 200.0000 -91.0285
v  0.0000 100.0000 -100.0000
v  0.0000 100.0000 -0.0000
v  0.0000 189.4189 -0.0000
v  0.0000 189.4189 -100.0000
v  0.0000 5.5257 -0.0000
v  0.0000 5.5257 -100.0000
v  81.5100 91.6202 -0.0000
v  13.4423 91.6202 -0.0000
v  13.4423 52.0118 -0.0000
v  81.5100 52.0118 -0.0000
v  100.0000 100.0000 -100.0000
v  100.0000 5.5257 -100.0000
v  81.5100 7.0668 -0.0000
v  13.4423 7.0668 -0.0000
v  19.1457 4.3177 -2.3027
v  75.8067 4.3177 -2.3027
v  13.6870 117.9866 -0.0000
v  19.6566 112.0170 -0.0000
v  75.2958 112.0170 -0.0000
v  81.2654 117.9866 -0.0000
v  100.0000 189.4189 -100.0000
v  100.0000 189.4290 -0.0000
v  9.3141 116.1752 -0.0000
v  9.3141 169.5445 -0.0000
v  85.6383 169.5525 -0.0000
v  85.6383 116.1752 -0.0000
v  100.0000 100.0000 -0.0000
v  75.7361 95.9308 -0.0000
v  19.2163 95.9308 -0.0000
v  17.8452 107.6441 -0.0000
v  17.8452 178.0766 -0.0000
v  77.1071 178.0828 -0.0000
v  77.1071 107.6441 -0.0000
v  11.5005 117.0809 -2.0651
v  11.5005 168.6389 -2.0651
v  18.7511 175.8902 -2.0651
v  76.2016 175.8962 -2.0651
v  83.4518 168.6468 -2.0651
v  83.4518 117.0809 -2.0651
v  76.2015 109.8305 -2.0651
v  18.7509 109.8305 -2.0651
v  13.6870 167.7334 -0.0000
v  19.6569 173.7039 -0.0000
v  75.2961 173.7097 -0.0000
v  81.2654 167.7411 -0.0000
v  9.3141 5.5257 -0.0000
v  9.3141 93.6309 -0.0000
v  17.8452 100.0000 -0.0000
v  77.1071 100.0000 -0.0000
v  85.6383 93.6309 -0.0000
v  85.6383 5.5257 -0.0000
v  100.0000 5.5257 -0.0000
v  77.1071 1.4136 -4.3235
v  17.8452 1.4136 -4.3235
v  81.5100 47.2635 -0.0000
v  13.4423 47.2635 -0.0000
v  11.3782 6.3672 -2.5491
v  11.3782 49.6788 -2.5491
v  11.3782 92.6965 -2.5491
v  18.5308 98.0364 -2.5491
v  76.4216 98.0364 -2.5491
v  83.5742 92.6965 -2.5491
v  83.5742 49.6788 -2.5491
v  83.5742 6.3672 -2.5491
v  76.4569 3.1740 -5.7348
v  18.4955 3.1740 -5.7348
# 74 vertices

vn 0.0000 -1.0000 0.0000
vn -0.0000 1.0000 -0.0000
vn -1.0000 0.0000 -0.0000
vn -0.9494 0.3142 -0.0000
vn -0.9360 -0.3519 0.0000
vn -0.5927 -0.8054 0.0000
vn 0.0000 0.0000 1.0000
vn 0.0000 -0.0000 -1.0000
vn 0.0000 -0.3942 -0.9190
vn 0.0000 -0.2676 -0.9635
vn 0.0000 -0.1773 0.9842
vn 0.0000 -0.6421 0.7666
vn 0.0000 -0.7246 -0.6892
vn -0.0000 0.0000 1.0000
vn 0.0000 0.3444 -0.9388
vn -0.0000 0.2484 -0.9687
vn -0.6876 0.7261 -0.0000
vn -0.0001 0.6468 0.7627
vn -0.0000 0.2484 0.9687
vn -0.0000 0.3447 0.9387
vn -0.0000 0.6471 0.7624
vn -0.0000 0.6467 -0.7627
vn 0.6866 0.0000 0.7270
vn -0.0668 -0.1892 0.9797
vn 0.3290 -0.2278 0.9164
vn 0.6074 -0.2516 0.7535
vn 0.2517 -0.6074 0.7535
vn -0.2516 -0.6075 0.7535
vn -0.3290 -0.2279 0.9164
vn -0.6074 -0.2516 0.7535
vn 0.0668 -0.1892 0.9797
vn -0.6866 0.0000 0.7270
vn -0.4855 0.4855 0.7270
vn -0.2516 0.6074 0.7535
vn 0.2516 0.6074 0.7535
vn 0.4855 0.4855 0.7270
vn -0.4856 0.4855 0.7270
vn -0.2517 0.6074 0.7535
vn 0.2516 0.6075 0.7535
vn 0.4855 0.4856 0.7270
vn 0.2516 -0.6074 0.7535
vn -0.2516 -0.6074 0.7535
vn 0.0000 -0.2676 0.9635
vn 0.0000 -0.4841 0.8750
vn -0.0000 -0.4841 0.8750
vn 0.0000 -0.3942 0.9190
vn 0.0000 -0.7246 0.6892
vn 0.7772 0.0000 0.6293
vn 0.0204 -0.4357 0.8998
vn 0.2401 -0.1878 0.9524
vn 0.6703 -0.3311 0.6641
vn 0.3766 -0.3328 0.8645
vn 0.2425 -0.7360 0.6321
vn 0.2454 -0.7350 0.6321
vn -0.2425 -0.7360 0.6321
vn -0.2454 -0.7350 0.6321
vn -0.3766 -0.3328 0.8645
vn -0.6703 -0.3311 0.6641
vn -0.2401 -0.1878 0.9524
vn -0.5438 0.5237 0.6558
vn -0.5349 0.5719 0.6219
vn -0.2500 0.5600 0.7899
vn -0.3370 0.5100 0.7914
vn 0.2322 0.5547 0.7990
vn 0.3175 0.5333 0.7841
vn 0.5666 0.5071 0.6494
vn 0.5721 0.5195 0.6347
vn -0.5986 -0.5198 0.6095
vn -0.7772 0.0000 0.6293
vn -0.4620 0.6188 0.6354
vn -0.2386 0.7162 0.6558
vn -0.2375 0.7166 0.6558
vn 0.2386 0.7162 0.6558
vn 0.2375 0.7166 0.6558
vn 0.4620 0.6188 0.6354
vn 0.4689 -0.4288 0.7722
vn -0.0039 -0.4349 0.9005
vn 0.5993 -0.5025 0.6232
vn 0.1294 -0.9293 0.3459
vn 0.1186 -0.9351 0.3341
vn -0.1503 -0.9290 0.3381
vn -0.1256 -0.9299 0.3457
vn 0.0000 0.7259 0.6878
vn -0.4689 -0.4288 0.7722
# 84 vertex normals

vt 0.8565 0.0034 0.0000
vt 0.8565 0.2042 0.0000
vt 0.9973 0.2042 0.0000
vt 0.9973 0.0034 0.0000
vt 0.0059 0.0046 0.0000
vt 0.0059 0.2042 0.0000
vt 0.8457 0.2042 0.0000
vt 0.8457 0.0046 0.0000
vt 0.3272 0.6232 0.0000
vt 0.6507 0.6232 0.0000
vt 0.6507 0.3023 0.0000
vt 0.3272 0.3023 0.0000
vt 0.6507 0.9355 0.0000
vt 0.3272 0.9355 0.0000
vt 0.3272 0.9924 0.0000
vt 0.6507 0.9924 0.0000
vt 0.9206 0.6605 0.0000
vt 0.7074 0.6605 0.0000
vt 0.7074 0.7910 0.0000
vt 0.9206 0.7910 0.0000
vt 0.0054 0.6232 0.0000
vt 0.0054 0.9355 0.0000
vt 0.9206 0.9355 0.0000
vt 0.7083 0.9355 0.0000
vt 0.7240 0.9578 0.0000
vt 0.9036 0.9578 0.0000
vt 0.0054 0.9924 0.0000
vt 0.7054 0.5631 0.0000
vt 0.7240 0.5822 0.0000
vt 0.9036 0.5822 0.0000
vt 0.9255 0.5631 0.0000
vt 0.0054 0.3023 0.0000
vt 0.3272 0.2142 0.0000
vt 0.6507 0.2142 0.0000
vt 0.9957 0.3023 0.0000
vt 0.9957 0.2142 0.0000
vt 0.0054 0.2142 0.0000
vt 0.6794 0.5713 0.0000
vt 0.6794 0.3890 0.0000
vt 0.9451 0.3890 0.0000
vt 0.9451 0.5713 0.0000
vt 0.9957 0.6232 0.0000
vt 0.9036 0.6521 0.0000
vt 0.7250 0.6521 0.0000
vt 0.7065 0.6014 0.0000
vt 0.7130 0.3581 0.0000
vt 0.9128 0.3581 0.0000
vt 0.9128 0.6014 0.0000
vt 0.6850 0.5732 0.0000
vt 0.6895 0.5723 0.0000
vt 0.6895 0.3912 0.0000
vt 0.6850 0.3904 0.0000
vt 0.7200 0.3630 0.0000
vt 0.7151 0.3617 0.0000
vt 0.9073 0.3630 0.0000
vt 0.9117 0.3617 0.0000
vt 0.9402 0.3928 0.0000
vt 0.9426 0.3893 0.0000
vt 0.9402 0.5652 0.0000
vt 0.9426 0.5687 0.0000
vt 0.9082 0.5976 0.0000
vt 0.9126 0.5995 0.0000
vt 0.7166 0.5976 0.0000
vt 0.7129 0.5995 0.0000
vt 0.6948 0.5672 0.0000
vt 0.7054 0.3972 0.0000
vt 0.6948 0.3931 0.0000
vt 0.7240 0.3777 0.0000
vt 0.7186 0.3679 0.0000
vt 0.9036 0.3777 0.0000
vt 0.9077 0.3679 0.0000
vt 0.9255 0.3972 0.0000
vt 0.9353 0.3931 0.0000
vt 0.9353 0.5672 0.0000
vt 0.9077 0.5918 0.0000
vt 0.7186 0.5918 0.0000
vt 0.6791 0.9355 0.0000
vt 0.6791 0.6502 0.0000
vt 0.7130 0.6194 0.0000
vt 0.9128 0.6194 0.0000
vt 0.9501 0.6502 0.0000
vt 0.9501 0.9355 0.0000
vt 0.9957 0.9355 0.0000
vt 0.9128 0.9823 0.0000
vt 0.9957 0.9924 0.0000
vt 0.7130 0.9823 0.0000
vt 0.9206 0.8126 0.0000
vt 0.7083 0.8126 0.0000
vt 0.6826 0.9313 0.0000
vt 0.6862 0.9313 0.0000
vt 0.6862 0.8008 0.0000
vt 0.6821 0.6520 0.0000
vt 0.6849 0.6535 0.0000
vt 0.7130 0.6287 0.0000
vt 0.7100 0.6262 0.0000
vt 0.9127 0.6287 0.0000
vt 0.9154 0.6262 0.0000
vt 0.9395 0.6565 0.0000
vt 0.9424 0.6538 0.0000
vt 0.9395 0.8008 0.0000
vt 0.9328 0.9468 0.0000
vt 0.9309 0.9449 0.0000
vt 0.9043 0.9666 0.0000
vt 0.9098 0.9794 0.0000
vt 0.7180 0.9666 0.0000
vt 0.7143 0.9794 0.0000
vt 0.7018 0.9443 0.0000
vt 0.6982 0.9443 0.0000
vt 0.6977 0.9256 0.0000
vt 0.7022 0.9256 0.0000
vt 0.7022 0.8211 0.0000
vt 0.6977 0.8118 0.0000
vt 0.6970 0.6553 0.0000
vt 0.7027 0.6588 0.0000
vt 0.7180 0.6476 0.0000
vt 0.7143 0.6429 0.0000
vt 0.7186 0.6299 0.0000
vt 0.7328 0.6472 0.0000
vt 0.8957 0.6472 0.0000
vt 0.9077 0.6299 0.0000
vt 0.9274 0.6601 0.0000
vt 0.9267 0.6676 0.0000
vt 0.9305 0.6773 0.0000
vt 0.9321 0.6734 0.0000
vt 0.9305 0.7951 0.0000
vt 0.9321 0.7982 0.0000
vt 0.9344 0.9256 0.0000
vt 0.9298 0.9256 0.0000
vt 0.9059 0.9593 0.0000
vt 0.9083 0.9609 0.0000
vt 0.7225 0.9595 0.0000
vt 0.7217 0.9626 0.0000
vt 0.9142 0.8096 0.0000
vt 0.9280 0.8029 0.0000
vt 0.7020 0.8029 0.0000
vt 0.7148 0.8096 0.0000
vt 0.6970 0.7982 0.0000
vt 0.7016 0.7951 0.0000
vt 0.9344 0.8118 0.0000
vt 0.9298 0.8211 0.0000
vt 0.9422 0.9273 0.0000
vt 0.9395 0.9273 0.0000
# 142 texture coords

g base1
usemtl Material__27
s 4
f 75/143/83 76/144/83 77/145/83 
f 77/145/83 78/146/83 75/143/83 
f 79/147/84 80/148/84 81/149/84 
f 81/149/84 82/150/84 79/147/84 
s 1
f 83/151/85 84/152/85 85/153/86 
f 85/153/86 86/154/86 83/151/85 
f 87/155/87 88/156/87 75/157/88 
f 75/157/88 78/158/88 87/155/87 
s 2
f 89/159/89 90/160/89 91/161/89 
f 91/161/89 92/162/89 89/159/89 
f 83/151/90 93/163/90 94/164/91 
f 94/164/91 88/156/92 83/151/90 
f 95/165/93 96/166/93 97/167/94 
f 97/167/94 98/168/94 95/165/93 
f 94/164/91 76/169/95 75/157/95 
f 75/157/95 88/156/92 94/164/91 
s 1
f 87/155/87 84/152/85 83/151/85 
f 83/151/85 88/156/87 87/155/87 
s 2
f 99/170/89 100/171/89 101/172/89 
f 101/172/89 102/173/96 99/170/89 
f 103/174/97 93/163/90 83/151/90 
f 83/151/90 86/154/98 103/174/97 
s 1
f 79/175/99 86/154/86 85/153/86 
f 85/153/86 80/176/99 79/175/99 
s 2
f 80/176/100 85/153/101 104/177/102 
f 104/177/102 81/178/103 80/176/100 
f 82/179/104 103/174/97 86/154/98 
f 86/154/98 79/175/104 82/179/104 
f 84/152/89 105/180/96 106/181/96 
f 106/181/96 85/153/101 84/152/89 
f 104/177/102 107/182/89 108/183/89 
f 108/183/89 109/184/89 104/177/102 
f 89/159/89 110/185/89 111/186/89 
f 111/186/89 90/160/89 89/159/89 
f 105/180/96 84/152/89 112/187/96 
f 85/153/101 106/181/96 113/188/96 
f 107/182/89 104/177/102 114/189/89 
f 115/190/89 109/184/89 108/183/89 
f 104/177/102 85/153/101 113/188/96 
f 113/188/96 114/189/89 104/177/102 
s 1
f 105/191/105 116/192/106 117/193/107 
f 117/193/107 106/194/108 105/191/105 
f 106/194/108 117/193/107 118/195/109 
f 118/195/109 113/196/109 106/194/108 
f 113/196/109 118/195/109 119/197/110 
f 119/197/110 114/198/110 113/196/109 
f 114/198/110 119/197/110 120/199/111 
f 120/199/111 107/200/112 114/198/110 
f 107/200/112 120/199/111 121/201/113 
f 121/201/113 108/202/114 107/200/112 
s 4
f 108/202/115 121/201/115 122/203/116 
f 122/203/116 115/204/116 108/202/115 
f 115/204/116 122/203/116 123/205/117 
f 123/205/117 112/206/117 115/204/116 
f 112/206/117 123/205/117 116/192/118 
f 116/192/118 105/191/118 112/206/117 
s 1
f 116/207/106 99/170/112 124/208/114 
f 124/208/114 117/209/107 116/207/106 
s 4
f 117/209/119 124/208/119 125/210/120 
f 125/210/120 118/211/120 117/209/119 
f 118/211/120 125/210/120 126/212/121 
f 126/212/121 119/213/121 118/211/120 
f 119/213/121 126/212/121 127/214/122 
f 127/214/122 120/215/122 119/213/121 
s 1
f 120/215/111 127/214/105 102/173/108 
f 102/173/108 121/216/113 120/215/111 
f 121/216/113 102/173/108 101/172/123 
f 101/172/123 122/217/123 121/216/113 
f 122/217/123 101/172/123 100/171/124 
f 100/171/124 123/218/124 122/217/123 
f 123/218/124 100/171/124 99/170/112 
f 99/170/112 116/207/106 123/218/124 
s 2
f 87/155/125 128/219/126 129/220/89 
f 129/220/89 84/152/89 87/155/125 
f 84/152/89 129/220/89 130/221/89 
f 112/187/96 130/221/89 131/222/89 
f 131/222/89 115/190/89 112/187/96 
f 115/190/89 131/222/89 109/184/89 
f 109/184/89 132/223/96 133/224/127 
f 133/224/127 134/225/128 109/184/89 
f 134/225/128 133/224/127 135/226/129 
f 135/226/129 77/227/129 134/225/128 
f 87/155/125 78/158/129 136/228/129 
f 136/228/129 128/219/126 87/155/125 
f 135/226/129 136/228/129 78/158/129 
f 78/158/129 77/227/129 135/226/129 
f 109/184/89 131/222/89 132/223/96 
f 84/152/89 130/221/89 112/187/96 
f 95/165/93 137/229/89 138/230/89 
f 138/230/89 96/166/93 95/165/93 
s 1
f 128/231/130 139/232/131 140/233/132 
f 129/234/133 141/235/134 142/236/135 
f 142/236/135 130/237/136 129/234/133 
f 130/237/136 142/236/135 143/238/137 
f 143/238/137 131/239/138 130/237/136 
f 131/239/138 143/238/137 144/240/139 
f 144/240/139 132/241/140 131/239/138 
f 132/241/140 144/240/139 145/242/141 
s 4
f 133/243/142 146/244/143 147/245/144 
f 147/245/144 135/246/145 133/243/142 
f 135/246/145 147/245/144 148/247/146 
f 148/247/146 136/248/147 135/246/145 
f 136/248/147 148/247/146 139/249/148 
f 139/249/148 128/250/149 136/248/147 
s 1
f 139/251/131 96/252/150 138/253/151 
f 138/253/151 140/254/132 139/251/131 
s 4
f 141/255/152 90/256/152 111/257/153 
f 111/257/153 142/258/154 141/255/152 
f 142/259/154 111/260/153 110/261/155 
f 110/261/155 143/262/156 142/259/154 
f 143/263/156 110/264/155 89/265/157 
f 89/265/157 144/266/157 143/263/156 
s 1
f 144/266/139 89/265/130 92/267/158 
f 92/267/158 145/268/141 144/266/139 
f 146/269/159 95/270/160 98/271/161 
f 98/271/161 147/272/162 146/269/159 
f 147/272/162 98/271/161 97/273/163 
f 97/273/163 148/274/164 147/272/162 
f 148/274/164 97/273/163 96/252/150 
f 96/252/150 139/251/131 148/274/164 
s 4
f 137/275/165 145/276/165 140/277/165 
f 140/277/165 138/278/165 137/275/165 
s 1
f 140/279/132 145/268/141 92/267/158 
f 92/267/158 91/280/166 140/279/132 
f 141/255/134 140/279/132 91/280/166 
f 91/280/166 90/256/151 141/255/134 
f 146/269/159 145/281/141 137/282/130 
f 137/282/130 95/270/160 146/269/159 
s 2
f 125/210/96 124/208/96 127/214/96 
f 127/214/96 126/212/96 125/210/96 
f 124/208/96 99/170/89 102/173/96 
f 102/173/96 127/214/96 124/208/96 
s 1
f 129/234/133 140/233/132 141/235/134 
f 128/231/130 140/233/132 129/234/133 
f 132/241/140 145/242/141 133/283/151 
f 133/283/151 145/242/141 146/284/159 
# 136 faces

