# 3ds Max Wavefront OBJ Exporter v0.97b - (c)2007 guruware
# File Created: 14.01.2021 17:55:47

mtllib scifi_ceiling_light.mtl

#
# object base
#

v  40.7769 64.0913 -32.7192
v  48.2039 64.0913 -40.1462
v  40.8798 68.8670 -44.3774
v  36.5480 68.8670 -40.0456
v  30.7036 68.8670 -38.4796
v  30.7036 64.0913 -30.0201
v  42.3980 55.6534 -29.9128
v  51.0124 55.6537 -38.5268
v  30.7036 55.6533 -26.7793
v  41.3768 34.5903 -31.7018
v  49.2460 34.5930 -39.5768
v  51.7161 45.0090 -38.1283
v  42.8035 45.0090 -29.2157
v  30.7036 45.0090 -25.9735
v  30.7036 34.5895 -28.8408
v  38.7343 28.2733 -36.3077
v  44.6820 28.2733 -42.2554
v  30.7036 28.2733 -34.1558
v  42.4619 68.8670 -50.0000
v  50.9190 64.0913 -50.0000
v  54.1625 55.6542 -50.0000
v  52.1165 34.5974 -50.0000
v  54.9748 45.0090 -50.0000
v  46.8545 28.2733 -50.0000
v  30.7036 70.7353 -50.0000
v  42.0362 25.0299 -50.0000
v  40.5299 25.0483 -44.6086
v  30.7036 23.4130 -50.0000
v  36.3489 25.0604 -40.4082
v  30.7036 25.0637 -38.8919
v  20.6303 64.0913 -32.7192
v  24.8592 68.8670 -40.0456
v  20.5274 68.8670 -44.3774
v  13.2033 64.0913 -40.1462
v  10.3948 55.6537 -38.5268
v  19.0092 55.6534 -29.9128
v  20.0305 34.5903 -31.7018
v  18.6037 45.0090 -29.2157
v  9.6911 45.0090 -38.1283
v  12.1612 34.5930 -39.5768
v  22.6729 28.2733 -36.3077
v  16.7252 28.2733 -42.2554
v  18.9453 68.8670 -50.0000
v  10.4882 64.0913 -50.0000
v  7.2447 55.6542 -50.0000
v  6.4324 45.0090 -50.0000
v  9.2908 34.5974 -50.0000
v  14.5527 28.2733 -50.0000
v  19.3711 25.0299 -50.0000
v  20.8773 25.0483 -44.6086
v  25.0583 25.0604 -40.4082
v  40.7769 64.0913 -67.2808
v  36.5480 68.8670 -59.9544
v  40.8798 68.8670 -55.6227
v  48.2039 64.0913 -59.8538
v  30.7036 64.0913 -69.9799
v  30.7036 68.8670 -61.5204
v  51.0124 55.6537 -61.4732
v  42.3980 55.6534 -70.0872
v  30.7036 55.6533 -73.2206
v  41.3768 34.5903 -68.2982
v  42.8035 45.0090 -70.7843
v  51.7161 45.0090 -61.8717
v  49.2460 34.5930 -60.4232
v  30.7036 34.5895 -71.1592
v  30.7036 45.0090 -74.0265
v  38.7343 28.2733 -63.6923
v  44.6820 28.2733 -57.7446
v  30.7036 28.2733 -65.8442
v  40.5299 25.0483 -55.3914
v  36.3489 25.0604 -59.5918
v  30.7036 25.0637 -61.1081
v  20.6303 64.0913 -67.2808
v  13.2033 64.0913 -59.8538
v  20.5274 68.8670 -55.6227
v  24.8592 68.8670 -59.9544
v  19.0092 55.6534 -70.0872
v  10.3948 55.6537 -61.4732
v  20.0305 34.5903 -68.2982
v  12.1612 34.5930 -60.4232
v  9.6911 45.0090 -61.8717
v  18.6037 45.0090 -70.7843
v  22.6729 28.2733 -63.6923
v  16.7252 28.2733 -57.7446
v  20.8773 25.0483 -55.3914
v  25.0583 25.0604 -59.5918
v  33.5340 68.9288 -48.9989
v  31.2464 68.9288 -52.9504
v  31.2464 78.2312 -52.9504
v  33.5340 78.2312 -48.9989
v  32.9873 78.2312 -48.0507
v  32.9873 68.9288 -48.0507
v  30.1608 78.2312 -52.9504
v  27.8732 78.2312 -48.9989
v  27.8732 68.9288 -48.9989
v  30.1608 68.9288 -52.9504
v  28.4199 78.2312 -48.0507
v  28.4199 68.9288 -48.0507
v  31.1767 77.9876 -49.7268
v  30.7036 77.9876 -50.5463
v  30.7036 100.0000 -50.5463
v  31.1767 100.0000 -49.7268
v  30.2305 77.9876 -49.7268
v  30.2305 100.0000 -49.7268
v  31.5907 78.0896 -50.2877
v  30.7041 78.0896 -50.9326
v  30.7041 78.9982 -50.9326
v  31.5907 78.9982 -50.2877
v  29.8169 78.0896 -50.2887
v  29.8169 78.9982 -50.2887
v  30.1551 78.0896 -49.2458
v  30.1551 78.9982 -49.2458
v  31.2513 78.0896 -49.2452
v  31.2513 78.9982 -49.2452
v  83.0043 73.2834 -37.1428
v  88.5301 73.2834 -42.6686
v  83.0808 76.8365 -45.8167
v  79.8579 76.8365 -42.5937
v  75.5096 76.8365 -41.4286
v  75.5096 73.2834 -35.1346
v  84.2104 67.0054 -35.0548
v  90.6197 67.0056 -41.4638
v  75.5096 67.0054 -32.7235
v  83.4506 51.3341 -36.3859
v  89.3054 51.3361 -42.2450
v  91.1432 59.0858 -41.1673
v  84.5121 59.0858 -34.5361
v  75.5096 59.0858 -32.1239
v  75.5096 51.3335 -34.2572
v  81.4845 46.6342 -39.8127
v  85.9097 46.6342 -44.2379
v  75.5096 46.6342 -38.2117
v  84.2579 76.8365 -50.0000
v  90.5501 73.2834 -50.0000
v  92.9634 67.0060 -50.0000
v  91.4411 51.3394 -50.0000
v  93.5677 59.0858 -50.0000
v  87.5261 46.6341 -50.0000
v  75.5096 78.2266 -50.0000
v  83.9412 44.2210 -50.0000
v  82.8205 44.2347 -45.9887
v  75.5096 43.0181 -50.0000
v  79.7097 44.2437 -42.8636
v  75.5096 44.2461 -41.7354
v  68.0148 73.2834 -37.1428
v  71.1612 76.8365 -42.5937
v  67.9383 76.8365 -45.8167
v  62.4890 73.2834 -42.6686
v  60.3995 67.0056 -41.4638
v  66.8087 67.0054 -35.0548
v  67.5686 51.3341 -36.3859
v  66.5070 59.0858 -34.5361
v  59.8759 59.0858 -41.1673
v  61.7137 51.3361 -42.2450
v  69.5346 46.6342 -39.8127
v  65.1094 46.6342 -44.2379
v  66.7612 76.8365 -50.0000
v  60.4690 73.2834 -50.0000
v  58.0557 67.0060 -50.0000
v  57.4514 59.0858 -50.0000
v  59.5780 51.3394 -50.0000
v  63.4930 46.6341 -50.0000
v  67.0780 44.2210 -50.0000
v  68.1986 44.2347 -45.9887
v  71.3094 44.2437 -42.8636
v  83.0043 73.2834 -62.8572
v  79.8579 76.8365 -57.4063
v  83.0808 76.8365 -54.1833
v  88.5301 73.2834 -57.3314
v  75.5096 73.2834 -64.8654
v  75.5096 76.8365 -58.5714
v  90.6197 67.0056 -58.5362
v  84.2104 67.0054 -64.9452
v  75.5096 67.0054 -67.2765
v  83.4506 51.3341 -63.6141
v  84.5121 59.0858 -65.4639
v  91.1432 59.0858 -58.8327
v  89.3054 51.3361 -57.7550
v  75.5096 51.3335 -65.7428
v  75.5096 59.0858 -67.8761
v  81.4845 46.6342 -60.1873
v  85.9097 46.6342 -55.7621
v  75.5096 46.6342 -61.7883
v  82.8205 44.2347 -54.0113
v  79.7097 44.2437 -57.1364
v  75.5096 44.2461 -58.2646
v  68.0148 73.2834 -62.8572
v  62.4890 73.2834 -57.3314
v  67.9383 76.8365 -54.1833
v  71.1612 76.8365 -57.4063
v  66.8087 67.0054 -64.9452
v  60.3995 67.0056 -58.5362
v  67.5686 51.3341 -63.6141
v  61.7137 51.3361 -57.7550
v  59.8759 59.0858 -58.8327
v  66.5070 59.0858 -65.4639
v  69.5346 46.6342 -60.1873
v  65.1094 46.6342 -55.7621
v  68.1986 44.2347 -54.0113
v  71.3094 44.2437 -57.1364
v  77.6154 76.8825 -49.2552
v  75.9134 76.8825 -52.1951
v  75.9134 83.8036 -52.1951
v  77.6154 83.8036 -49.2552
v  77.2087 83.8036 -48.5497
v  77.2087 76.8825 -48.5497
v  75.1057 83.8036 -52.1951
v  73.4037 83.8036 -49.2552
v  73.4037 76.8825 -49.2552
v  75.1057 76.8825 -52.1951
v  73.8104 83.8036 -48.5497
v  73.8104 76.8825 -48.5497
v  75.8616 83.6224 -49.7968
v  75.5096 83.6224 -50.4065
v  75.5096 100.0000 -50.4065
v  75.8616 100.0000 -49.7968
v  75.1575 83.6224 -49.7968
v  75.1575 100.0000 -49.7968
v  76.1696 83.6983 -50.2141
v  75.5099 83.6983 -50.6938
v  75.5099 84.3743 -50.6938
v  76.1696 84.3743 -50.2141
v  74.8498 83.6983 -50.2148
v  74.8498 84.3743 -50.2148
v  75.1014 83.6983 -49.4389
v  75.1014 84.3743 -49.4389
v  75.9171 83.6983 -49.4384
v  75.9171 84.3743 -49.4384
# 228 vertices

vn 0.3896 0.6268 0.6748
vn 0.6733 0.6269 0.3920
vn 0.3066 0.9347 0.1797
vn 0.1783 0.9343 0.3086
vn -0.0000 0.9343 0.3565
vn -0.0000 0.6268 0.7792
vn 0.4883 0.2144 0.8459
vn 0.8443 0.2146 0.4909
vn -0.0000 0.2144 0.9768
vn 0.4464 -0.4512 0.7728
vn 0.7717 -0.4501 0.4493
vn 0.8607 -0.0934 0.5005
vn 0.4978 -0.0937 0.8622
vn -0.0000 -0.0938 0.9956
vn 0.0000 -0.4514 0.8923
vn 0.3412 -0.7315 0.5903
vn 0.5888 -0.7313 0.3443
vn 0.0000 -0.7317 0.6816
vn 0.3558 0.9346 0.0000
vn 0.7797 0.6262 -0.0000
vn 0.9766 0.2149 -0.0000
vn 0.8937 -0.4487 -0.0000
vn 0.9957 -0.0931 -0.0000
vn 0.6825 -0.7309 -0.0000
vn 0.0000 1.0000 0.0000
vn 0.3909 -0.9204 0.0000
vn 0.3371 -0.9200 0.1998
vn -0.0000 -1.0000 -0.0000
vn 0.1965 -0.9191 0.3416
vn 0.0000 -0.9189 0.3944
vn -0.3896 0.6268 0.6748
vn -0.1783 0.9343 0.3086
vn -0.3066 0.9347 0.1797
vn -0.6733 0.6269 0.3920
vn -0.8443 0.2146 0.4909
vn -0.4883 0.2144 0.8459
vn -0.4464 -0.4512 0.7728
vn -0.4978 -0.0937 0.8622
vn -0.8607 -0.0934 0.5005
vn -0.7717 -0.4501 0.4493
vn -0.3412 -0.7315 0.5903
vn -0.5888 -0.7313 0.3443
vn -0.3558 0.9346 0.0000
vn -0.7797 0.6262 0.0000
vn -0.9766 0.2149 0.0000
vn -0.9957 -0.0931 0.0000
vn -0.8937 -0.4487 -0.0000
vn -0.6825 -0.7309 -0.0000
vn -0.3909 -0.9204 0.0000
vn -0.3371 -0.9200 0.1998
vn -0.1965 -0.9191 0.3416
vn 0.3896 0.6268 -0.6748
vn 0.1783 0.9343 -0.3086
vn 0.3066 0.9347 -0.1797
vn 0.6733 0.6269 -0.3920
vn 0.0000 0.6268 -0.7792
vn -0.0000 0.9343 -0.3565
vn 0.8443 0.2146 -0.4909
vn 0.4883 0.2144 -0.8459
vn 0.0000 0.2144 -0.9768
vn 0.4464 -0.4512 -0.7728
vn 0.4978 -0.0937 -0.8622
vn 0.8607 -0.0934 -0.5005
vn 0.7717 -0.4501 -0.4493
vn 0.0000 -0.4514 -0.8923
vn 0.0000 -0.0938 -0.9956
vn 0.3412 -0.7315 -0.5903
vn 0.5888 -0.7313 -0.3443
vn 0.0000 -0.7317 -0.6816
vn 0.3371 -0.9200 -0.1998
vn 0.1965 -0.9191 -0.3416
vn 0.0000 -0.9189 -0.3944
vn -0.3896 0.6268 -0.6748
vn -0.6733 0.6269 -0.3920
vn -0.3066 0.9347 -0.1797
vn -0.1783 0.9343 -0.3086
vn -0.4883 0.2144 -0.8459
vn -0.8443 0.2146 -0.4909
vn -0.4464 -0.4512 -0.7728
vn -0.7717 -0.4501 -0.4493
vn -0.8607 -0.0934 -0.5005
vn -0.4978 -0.0937 -0.8622
vn -0.3412 -0.7315 -0.5903
vn -0.5888 -0.7313 -0.3443
vn -0.3371 -0.9200 -0.1998
vn -0.1965 -0.9191 -0.3416
vn 1.0000 -0.0000 -0.0009
vn 0.4995 0.0000 -0.8663
vn 0.3958 0.6101 -0.6864
vn 0.7924 0.6100 -0.0007
vn 0.3964 0.6100 0.6862
vn 0.5003 -0.0000 0.8659
vn -0.3958 0.6101 -0.6864
vn -0.7924 0.6100 -0.0007
vn -1.0000 -0.0000 -0.0009
vn -0.4995 0.0000 -0.8663
vn -0.3964 0.6100 0.6862
vn -0.5003 -0.0000 0.8659
vn 0.8660 0.0000 0.5000
vn -0.0000 0.0000 -1.0000
vn 0.0000 0.5547 -0.8321
vn 0.7206 0.5547 0.4160
vn -0.8660 0.0000 0.5000
vn -0.7206 0.5547 0.4160
vn 0.9512 0.0000 -0.3085
vn 0.0005 0.0000 -1.0000
vn 0.0004 0.5957 -0.8032
vn 0.7640 0.5957 -0.2478
vn -0.9509 0.0000 -0.3095
vn -0.7638 0.5957 -0.2486
vn -0.5882 0.0000 0.8087
vn -0.4725 0.5957 0.6496
vn 0.5873 0.0000 0.8093
vn 0.4718 0.5957 0.6501
vn 0.0000 0.9343 0.3565
vn 0.6825 -0.7309 0.0000
vn 0.0000 -1.0000 -0.0000
vn -0.3558 0.9346 -0.0000
vn -0.7797 0.6262 -0.0000
vn -0.6825 -0.7309 0.0000
vn -0.0000 -0.4514 -0.8923
vn -0.0000 -0.9189 -0.3944
vn 1.0000 0.0000 -0.0009
vn 0.5003 0.0000 0.8659
vn -1.0000 0.0000 -0.0009
vn -0.5003 0.0000 0.8659
# 126 vertex normals

vt 0.3191 0.1948 0.0000
vt 0.1576 0.1948 0.0000
vt 0.1577 0.0103 0.0000
vt 0.3187 0.0103 0.0000
vt 0.4867 0.0103 0.0000
vt 0.4869 0.1948 0.0000
vt 0.3191 0.2903 0.0000
vt 0.1576 0.2903 0.0000
vt 0.4869 0.2903 0.0000
vt 0.3191 0.5636 0.0000
vt 0.1576 0.5636 0.0000
vt 0.1576 0.3915 0.0000
vt 0.3191 0.3915 0.0000
vt 0.4869 0.3915 0.0000
vt 0.4869 0.5636 0.0000
vt 0.3191 0.6803 0.0000
vt 0.1576 0.6803 0.0000
vt 0.4869 0.6803 0.0000
vt 0.0117 0.0103 0.0000
vt 0.0113 0.1948 0.0000
vt 0.0113 0.2903 0.0000
vt 0.0113 0.5636 0.0000
vt 0.0113 0.3915 0.0000
vt 0.0113 0.6803 0.0000
vt 0.7594 0.2462 0.0000
vt 0.6470 0.0427 0.0000
vt 0.7594 0.0111 0.0000
vt 0.5604 0.1293 0.0000
vt 0.5291 0.2462 0.0000
vt 0.0113 0.7657 0.0000
vt 0.1576 0.7657 0.0000
vt 0.2360 0.9241 0.0000
vt 0.3191 0.7657 0.0000
vt 0.4869 0.7657 0.0000
vt 0.7594 0.4813 0.0000
vt 0.6470 0.4497 0.0000
vt 0.5604 0.3631 0.0000
vt 0.8719 0.0427 0.0000
vt 0.9585 0.1293 0.0000
vt 0.9898 0.2462 0.0000
vt 0.8719 0.4497 0.0000
vt 0.9585 0.3631 0.0000
vt 0.7521 0.5037 0.0000
vt 0.9444 0.5037 0.0000
vt 0.9444 0.8915 0.0000
vt 0.7521 0.8915 0.0000
vt 0.7060 0.8915 0.0000
vt 0.7060 0.5037 0.0000
vt 0.4601 0.9874 0.0000
vt 0.3380 0.9195 0.0000
vt 0.3380 0.8825 0.0000
vt 0.4601 0.8146 0.0000
vt 0.4891 0.8320 0.0000
vt 0.4891 0.9700 0.0000
vt 0.9901 0.8915 0.0000
vt 0.9901 0.5037 0.0000
vt 0.5139 0.8915 0.0000
vt 0.5139 0.5037 0.0000
vt 0.9878 0.9637 0.0000
vt 0.9878 0.9908 0.0000
vt 0.5093 0.9908 0.0000
vt 0.5093 0.9637 0.0000
vt 0.9878 0.9094 0.0000
vt 0.9878 0.9366 0.0000
vt 0.5093 0.9366 0.0000
vt 0.5093 0.9094 0.0000
vt 0.5517 0.0725 0.0000
vt 0.5828 0.0187 0.0000
vt 0.5207 0.0187 0.0000
vt 0.0609 0.9097 1.0000
vt 0.0091 0.9097 1.0000
vt 0.0091 0.9921 1.0000
vt 0.0609 0.9921 1.0000
vt 0.1126 0.9097 1.0000
vt 0.1126 0.9921 1.0000
vt 0.1643 0.9097 1.0000
vt 0.1643 0.9921 1.0000
vt 0.0202 0.8930 0.2500
vt 0.0653 0.8930 0.2500
vt 0.0792 0.8501 0.2500
vt 0.0427 0.8236 0.2500
vt 0.0062 0.8501 0.2500
# 82 texture coords

g base
usemtl Material__287
s 1
f 1/1/1 2/2/2 3/3/3 
f 3/3/3 4/4/4 1/1/1 
f 1/1/1 4/4/4 5/5/5 
f 5/5/5 6/6/6 1/1/1 
f 1/1/1 7/7/7 8/8/8 
f 8/8/8 2/2/2 1/1/1 
f 6/6/6 9/9/9 7/7/7 
f 7/7/7 1/1/1 6/6/6 
f 10/10/10 11/11/11 12/12/12 
f 12/12/12 13/13/13 10/10/10 
f 10/10/10 13/13/13 14/14/14 
f 14/14/14 15/15/15 10/10/10 
f 16/16/16 17/17/17 11/11/11 
f 11/11/11 10/10/10 16/16/16 
f 16/16/16 10/10/10 15/15/15 
f 15/15/15 18/18/18 16/16/16 
f 19/19/19 3/3/3 2/2/2 
f 2/2/2 20/20/20 19/19/19 
f 2/2/2 8/8/8 21/21/21 
f 21/21/21 20/20/20 2/2/2 
f 12/12/12 11/11/11 22/22/22 
f 22/22/22 23/23/23 12/12/12 
f 11/11/11 17/17/17 24/24/24 
f 24/24/24 22/22/22 11/11/11 
f 25/25/25 3/26/3 19/27/19 
f 25/25/25 4/28/4 3/26/3 
f 5/29/5 4/28/4 25/25/25 
f 26/30/26 27/31/27 28/32/28 
f 27/31/27 29/33/29 28/32/28 
f 29/33/29 30/34/30 28/32/28 
f 17/17/17 27/31/27 26/30/26 
f 26/30/26 24/24/24 17/17/17 
f 16/16/16 29/33/29 27/31/27 
f 27/31/27 17/17/17 16/16/16 
f 18/18/18 30/34/30 29/33/29 
f 29/33/29 16/16/16 18/18/18 
f 31/1/31 32/4/32 33/3/33 
f 33/3/33 34/2/34 31/1/31 
f 31/1/31 6/6/6 5/5/5 
f 5/5/5 32/4/32 31/1/31 
f 35/8/35 36/7/36 31/1/31 
f 31/1/31 34/2/34 35/8/35 
f 36/7/36 9/9/9 6/6/6 
f 6/6/6 31/1/31 36/7/36 
f 37/10/37 38/13/38 39/12/39 
f 39/12/39 40/11/40 37/10/37 
f 37/10/37 15/15/15 14/14/14 
f 14/14/14 38/13/38 37/10/37 
f 41/16/41 37/10/37 40/11/40 
f 40/11/40 42/17/42 41/16/41 
f 41/16/41 18/18/18 15/15/15 
f 15/15/15 37/10/37 41/16/41 
f 43/19/43 44/20/44 34/2/34 
f 34/2/34 33/3/33 43/19/43 
f 45/21/45 35/8/35 34/2/34 
f 34/2/34 44/20/44 45/21/45 
f 39/12/39 46/23/46 47/22/47 
f 47/22/47 40/11/40 39/12/39 
f 40/11/40 47/22/47 48/24/48 
f 48/24/48 42/17/42 40/11/40 
f 25/25/25 43/35/43 33/36/33 
f 25/25/25 33/36/33 32/37/32 
f 5/29/5 25/25/25 32/37/32 
f 49/30/49 28/32/28 50/31/50 
f 50/31/50 28/32/28 51/33/51 
f 51/33/51 28/32/28 30/34/30 
f 42/17/42 48/24/48 49/30/49 
f 49/30/49 50/31/50 42/17/42 
f 41/16/41 42/17/42 50/31/50 
f 50/31/50 51/33/51 41/16/41 
f 18/18/18 41/16/41 51/33/51 
f 51/33/51 30/34/30 18/18/18 
f 52/1/52 53/4/53 54/3/54 
f 54/3/54 55/2/55 52/1/52 
f 52/1/52 56/6/56 57/5/57 
f 57/5/57 53/4/53 52/1/52 
f 58/8/58 59/7/59 52/1/52 
f 52/1/52 55/2/55 58/8/58 
f 59/7/59 60/9/60 56/6/56 
f 56/6/56 52/1/52 59/7/59 
f 61/10/61 62/13/62 63/12/63 
f 63/12/63 64/11/64 61/10/61 
f 61/10/61 65/15/65 66/14/66 
f 66/14/66 62/13/62 61/10/61 
f 67/16/67 61/10/61 64/11/64 
f 64/11/64 68/17/68 67/16/67 
f 67/16/67 69/18/69 65/15/65 
f 65/15/65 61/10/61 67/16/67 
f 19/19/19 20/20/20 55/2/55 
f 55/2/55 54/3/54 19/19/19 
f 21/21/21 58/8/58 55/2/55 
f 55/2/55 20/20/20 21/21/21 
f 63/12/63 23/23/23 22/22/22 
f 22/22/22 64/11/64 63/12/63 
f 64/11/64 22/22/22 24/24/24 
f 24/24/24 68/17/68 64/11/64 
f 25/25/25 19/27/19 54/38/54 
f 25/25/25 54/38/54 53/39/53 
f 57/40/57 25/25/25 53/39/53 
f 26/30/26 28/32/28 70/31/70 
f 70/31/70 28/32/28 71/33/71 
f 71/33/71 28/32/28 72/34/72 
f 68/17/68 24/24/24 26/30/26 
f 26/30/26 70/31/70 68/17/68 
f 67/16/67 68/17/68 70/31/70 
f 70/31/70 71/33/71 67/16/67 
f 69/18/69 67/16/67 71/33/71 
f 71/33/71 72/34/72 69/18/69 
f 73/1/73 74/2/74 75/3/75 
f 75/3/75 76/4/76 73/1/73 
f 73/1/73 76/4/76 57/5/57 
f 57/5/57 56/6/56 73/1/73 
f 73/1/73 77/7/77 78/8/78 
f 78/8/78 74/2/74 73/1/73 
f 56/6/56 60/9/60 77/7/77 
f 77/7/77 73/1/73 56/6/56 
f 79/10/79 80/11/80 81/12/81 
f 81/12/81 82/13/82 79/10/79 
f 79/10/79 82/13/82 66/14/66 
f 66/14/66 65/15/65 79/10/79 
f 83/16/83 84/17/84 80/11/80 
f 80/11/80 79/10/79 83/16/83 
f 83/16/83 79/10/79 65/15/65 
f 65/15/65 69/18/69 83/16/83 
f 43/19/43 75/3/75 74/2/74 
f 74/2/74 44/20/44 43/19/43 
f 74/2/74 78/8/78 45/21/45 
f 45/21/45 44/20/44 74/2/74 
f 81/12/81 80/11/80 47/22/47 
f 47/22/47 46/23/46 81/12/81 
f 80/11/80 84/17/84 48/24/48 
f 48/24/48 47/22/47 80/11/80 
f 25/25/25 75/41/75 43/35/43 
f 25/25/25 76/42/76 75/41/75 
f 57/40/57 76/42/76 25/25/25 
f 49/30/49 85/31/85 28/32/28 
f 85/31/85 86/33/86 28/32/28 
f 86/33/86 72/34/72 28/32/28 
f 84/17/84 85/31/85 49/30/49 
f 49/30/49 48/24/48 84/17/84 
f 83/16/83 86/33/86 85/31/85 
f 85/31/85 84/17/84 83/16/83 
f 69/18/69 72/34/72 86/33/86 
f 86/33/86 83/16/83 69/18/69 
f 13/13/13 12/12/12 8/8/8 
f 8/8/8 7/7/7 13/13/13 
f 14/14/14 13/13/13 7/7/7 
f 7/7/7 9/9/9 14/14/14 
f 12/12/12 23/23/23 21/21/21 
f 21/21/21 8/8/8 12/12/12 
f 39/12/39 38/13/38 36/7/36 
f 36/7/36 35/8/35 39/12/39 
f 38/13/38 14/14/14 9/9/9 
f 9/9/9 36/7/36 38/13/38 
f 46/23/46 39/12/39 35/8/35 
f 35/8/35 45/21/45 46/23/46 
f 63/12/63 62/13/62 59/7/59 
f 59/7/59 58/8/58 63/12/63 
f 62/13/62 66/14/66 60/9/60 
f 60/9/60 59/7/59 62/13/62 
f 23/23/23 63/12/63 58/8/58 
f 58/8/58 21/21/21 23/23/23 
f 82/13/82 81/12/81 78/8/78 
f 78/8/78 77/7/77 82/13/82 
f 66/14/66 82/13/82 77/7/77 
f 77/7/77 60/9/60 66/14/66 
f 81/12/81 46/23/46 45/21/45 
f 45/21/45 78/8/78 81/12/81 
f 87/43/87 88/44/88 89/45/89 
f 89/45/89 90/46/90 87/43/87 
f 90/46/90 91/47/91 92/48/92 
f 92/48/92 87/43/87 90/46/90 
f 90/49/90 89/50/89 93/51/93 
f 93/51/93 94/52/94 90/49/90 
f 95/43/95 94/46/94 93/45/93 
f 93/45/93 96/44/96 95/43/95 
f 97/53/97 91/54/91 90/49/90 
f 90/49/90 94/52/94 97/53/97 
f 96/44/96 93/45/93 89/55/89 
f 89/55/89 88/56/88 96/44/96 
f 94/46/94 95/43/95 98/48/98 
f 98/48/98 97/47/97 94/46/94 
f 91/57/91 97/47/97 98/48/98 
f 98/48/98 92/58/92 91/57/91 
f 99/59/99 100/60/100 101/61/101 
f 101/61/101 102/62/102 99/59/99 
f 100/63/100 103/64/103 104/65/104 
f 104/65/104 101/66/101 100/63/100 
f 103/64/103 99/59/99 102/62/102 
f 102/62/102 104/65/104 103/64/103 
f 102/67/102 101/68/101 104/69/104 
f 105/70/105 106/71/106 107/72/107 
f 107/72/107 108/73/108 105/70/105 
f 106/71/106 109/70/109 110/73/110 
f 110/73/110 107/72/107 106/71/106 
f 109/70/109 111/74/111 112/75/112 
f 112/75/112 110/73/110 109/70/109 
f 111/74/111 113/76/113 114/77/114 
f 114/77/114 112/75/112 111/74/111 
f 113/74/113 105/70/105 108/73/108 
f 108/73/108 114/75/114 113/74/113 
f 110/78/110 112/79/112 114/80/114 
f 114/80/114 108/81/108 110/78/110 
f 108/81/108 107/82/107 110/78/110 
f 115/1/1 116/2/2 117/3/3 
f 117/3/3 118/4/4 115/1/1 
f 115/1/1 118/4/4 119/5/115 
f 119/5/115 120/6/6 115/1/1 
f 115/1/1 121/7/7 122/8/8 
f 122/8/8 116/2/2 115/1/1 
f 120/6/6 123/9/9 121/7/7 
f 121/7/7 115/1/1 120/6/6 
f 124/10/10 125/11/11 126/12/12 
f 126/12/12 127/13/13 124/10/10 
f 124/10/10 127/13/13 128/14/14 
f 128/14/14 129/15/15 124/10/10 
f 130/16/16 131/17/17 125/11/11 
f 125/11/11 124/10/10 130/16/16 
f 130/16/16 124/10/10 129/15/15 
f 129/15/15 132/18/18 130/16/16 
f 133/19/19 117/3/3 116/2/2 
f 116/2/2 134/20/20 133/19/19 
f 116/2/2 122/8/8 135/21/21 
f 135/21/21 134/20/20 116/2/2 
f 126/12/12 125/11/11 136/22/22 
f 136/22/22 137/23/23 126/12/12 
f 125/11/11 131/17/17 138/24/116 
f 138/24/116 136/22/22 125/11/11 
f 139/25/25 117/26/3 133/27/19 
f 139/25/25 118/28/4 117/26/3 
f 119/29/115 118/28/4 139/25/25 
f 140/30/26 141/31/27 142/32/117 
f 141/31/27 143/33/29 142/32/117 
f 143/33/29 144/34/30 142/32/117 
f 131/17/17 141/31/27 140/30/26 
f 140/30/26 138/24/116 131/17/17 
f 130/16/16 143/33/29 141/31/27 
f 141/31/27 131/17/17 130/16/16 
f 132/18/18 144/34/30 143/33/29 
f 143/33/29 130/16/16 132/18/18 
f 145/1/31 146/4/32 147/3/33 
f 147/3/33 148/2/34 145/1/31 
f 145/1/31 120/6/6 119/5/115 
f 119/5/115 146/4/32 145/1/31 
f 149/8/35 150/7/36 145/1/31 
f 145/1/31 148/2/34 149/8/35 
f 150/7/36 123/9/9 120/6/6 
f 120/6/6 145/1/31 150/7/36 
f 151/10/37 152/13/38 153/12/39 
f 153/12/39 154/11/40 151/10/37 
f 151/10/37 129/15/15 128/14/14 
f 128/14/14 152/13/38 151/10/37 
f 155/16/41 151/10/37 154/11/40 
f 154/11/40 156/17/42 155/16/41 
f 155/16/41 132/18/18 129/15/15 
f 129/15/15 151/10/37 155/16/41 
f 157/19/118 158/20/119 148/2/34 
f 148/2/34 147/3/33 157/19/118 
f 159/21/45 149/8/35 148/2/34 
f 148/2/34 158/20/119 159/21/45 
f 153/12/39 160/23/46 161/22/47 
f 161/22/47 154/11/40 153/12/39 
f 154/11/40 161/22/47 162/24/120 
f 162/24/120 156/17/42 154/11/40 
f 139/25/25 157/35/118 147/36/33 
f 139/25/25 147/36/33 146/37/32 
f 119/29/115 139/25/25 146/37/32 
f 163/30/49 142/32/117 164/31/50 
f 164/31/50 142/32/117 165/33/51 
f 165/33/51 142/32/117 144/34/30 
f 156/17/42 162/24/120 163/30/49 
f 163/30/49 164/31/50 156/17/42 
f 155/16/41 156/17/42 164/31/50 
f 164/31/50 165/33/51 155/16/41 
f 132/18/18 155/16/41 165/33/51 
f 165/33/51 144/34/30 132/18/18 
f 166/1/52 167/4/53 168/3/54 
f 168/3/54 169/2/55 166/1/52 
f 166/1/52 170/6/56 171/5/57 
f 171/5/57 167/4/53 166/1/52 
f 172/8/58 173/7/59 166/1/52 
f 166/1/52 169/2/55 172/8/58 
f 173/7/59 174/9/60 170/6/56 
f 170/6/56 166/1/52 173/7/59 
f 175/10/61 176/13/62 177/12/63 
f 177/12/63 178/11/64 175/10/61 
f 175/10/61 179/15/121 180/14/66 
f 180/14/66 176/13/62 175/10/61 
f 181/16/67 175/10/61 178/11/64 
f 178/11/64 182/17/68 181/16/67 
f 181/16/67 183/18/69 179/15/121 
f 179/15/121 175/10/61 181/16/67 
f 133/19/19 134/20/20 169/2/55 
f 169/2/55 168/3/54 133/19/19 
f 135/21/21 172/8/58 169/2/55 
f 169/2/55 134/20/20 135/21/21 
f 177/12/63 137/23/23 136/22/22 
f 136/22/22 178/11/64 177/12/63 
f 178/11/64 136/22/22 138/24/116 
f 138/24/116 182/17/68 178/11/64 
f 139/25/25 133/27/19 168/38/54 
f 139/25/25 168/38/54 167/39/53 
f 171/40/57 139/25/25 167/39/53 
f 140/30/26 142/32/117 184/31/70 
f 184/31/70 142/32/117 185/33/71 
f 185/33/71 142/32/117 186/34/122 
f 182/17/68 138/24/116 140/30/26 
f 140/30/26 184/31/70 182/17/68 
f 181/16/67 182/17/68 184/31/70 
f 184/31/70 185/33/71 181/16/67 
f 183/18/69 181/16/67 185/33/71 
f 185/33/71 186/34/122 183/18/69 
f 187/1/73 188/2/74 189/3/75 
f 189/3/75 190/4/76 187/1/73 
f 187/1/73 190/4/76 171/5/57 
f 171/5/57 170/6/56 187/1/73 
f 187/1/73 191/7/77 192/8/78 
f 192/8/78 188/2/74 187/1/73 
f 170/6/56 174/9/60 191/7/77 
f 191/7/77 187/1/73 170/6/56 
f 193/10/79 194/11/80 195/12/81 
f 195/12/81 196/13/82 193/10/79 
f 193/10/79 196/13/82 180/14/66 
f 180/14/66 179/15/121 193/10/79 
f 197/16/83 198/17/84 194/11/80 
f 194/11/80 193/10/79 197/16/83 
f 197/16/83 193/10/79 179/15/121 
f 179/15/121 183/18/69 197/16/83 
f 157/19/118 189/3/75 188/2/74 
f 188/2/74 158/20/119 157/19/118 
f 188/2/74 192/8/78 159/21/45 
f 159/21/45 158/20/119 188/2/74 
f 195/12/81 194/11/80 161/22/47 
f 161/22/47 160/23/46 195/12/81 
f 194/11/80 198/17/84 162/24/120 
f 162/24/120 161/22/47 194/11/80 
f 139/25/25 189/41/75 157/35/118 
f 139/25/25 190/42/76 189/41/75 
f 171/40/57 190/42/76 139/25/25 
f 163/30/49 199/31/85 142/32/117 
f 199/31/85 200/33/86 142/32/117 
f 200/33/86 186/34/122 142/32/117 
f 198/17/84 199/31/85 163/30/49 
f 163/30/49 162/24/120 198/17/84 
f 197/16/83 200/33/86 199/31/85 
f 199/31/85 198/17/84 197/16/83 
f 183/18/69 186/34/122 200/33/86 
f 200/33/86 197/16/83 183/18/69 
f 127/13/13 126/12/12 122/8/8 
f 122/8/8 121/7/7 127/13/13 
f 128/14/14 127/13/13 121/7/7 
f 121/7/7 123/9/9 128/14/14 
f 126/12/12 137/23/23 135/21/21 
f 135/21/21 122/8/8 126/12/12 
f 153/12/39 152/13/38 150/7/36 
f 150/7/36 149/8/35 153/12/39 
f 152/13/38 128/14/14 123/9/9 
f 123/9/9 150/7/36 152/13/38 
f 160/23/46 153/12/39 149/8/35 
f 149/8/35 159/21/45 160/23/46 
f 177/12/63 176/13/62 173/7/59 
f 173/7/59 172/8/58 177/12/63 
f 176/13/62 180/14/66 174/9/60 
f 174/9/60 173/7/59 176/13/62 
f 137/23/23 177/12/63 172/8/58 
f 172/8/58 135/21/21 137/23/23 
f 196/13/82 195/12/81 192/8/78 
f 192/8/78 191/7/77 196/13/82 
f 180/14/66 196/13/82 191/7/77 
f 191/7/77 174/9/60 180/14/66 
f 195/12/81 160/23/46 159/21/45 
f 159/21/45 192/8/78 195/12/81 
f 201/43/123 202/44/88 203/45/89 
f 203/45/89 204/46/90 201/43/123 
f 204/46/90 205/47/91 206/48/124 
f 206/48/124 201/43/123 204/46/90 
f 204/49/90 203/50/89 207/51/93 
f 207/51/93 208/52/94 204/49/90 
f 209/43/125 208/46/94 207/45/93 
f 207/45/93 210/44/96 209/43/125 
f 211/53/97 205/54/91 204/49/90 
f 204/49/90 208/52/94 211/53/97 
f 210/44/96 207/45/93 203/55/89 
f 203/55/89 202/56/88 210/44/96 
f 208/46/94 209/43/125 212/48/126 
f 212/48/126 211/47/97 208/46/94 
f 205/57/91 211/47/97 212/48/126 
f 212/48/126 206/58/124 205/57/91 
f 213/59/99 214/60/100 215/61/101 
f 215/61/101 216/62/102 213/59/99 
f 214/63/100 217/64/103 218/65/104 
f 218/65/104 215/66/101 214/63/100 
f 217/64/103 213/59/99 216/62/102 
f 216/62/102 218/65/104 217/64/103 
f 216/67/102 215/68/101 218/69/104 
f 219/70/105 220/71/106 221/72/107 
f 221/72/107 222/73/108 219/70/105 
f 220/71/106 223/70/109 224/73/110 
f 224/73/110 221/72/107 220/71/106 
f 223/70/109 225/74/111 226/75/112 
f 226/75/112 224/73/110 223/70/109 
f 225/74/111 227/76/113 228/77/114 
f 228/77/114 226/75/112 225/74/111 
f 227/74/113 219/70/105 222/73/108 
f 222/73/108 228/75/114 227/74/113 
f 224/78/110 226/79/112 228/80/114 
f 228/80/114 222/81/108 224/78/110 
f 222/81/108 221/82/107 224/78/110 
# 408 faces

