# 3ds Max Wavefront OBJ Exporter v0.97b - (c)2007 guruware
# File Created: 23.03.2021 10:18:17

mtllib scifi_wall_light.mtl

#
# object base
#

v  70.8158 50.0000 -100.7076
v  68.5725 58.3721 -100.7076
v  68.4434 58.2976 -96.9569
v  70.6668 50.0000 -96.9569
v  62.4437 64.5009 -100.7076
v  62.3692 64.3718 -96.9569
v  54.0716 66.7442 -100.7076
v  54.0716 66.5952 -96.9569
v  54.0716 33.2558 -100.7076
v  62.4437 35.4991 -100.7076
v  62.3692 35.6282 -96.9569
v  54.0716 33.4049 -96.9569
v  68.5725 41.6279 -100.7076
v  68.4434 41.7024 -96.9569
v  67.4110 57.7015 -94.4386
v  69.4746 50.0000 -94.4386
v  61.7731 63.3394 -94.4386
v  54.0716 65.4030 -94.4386
v  61.7731 36.6607 -94.4386
v  54.0716 34.5970 -94.4386
v  67.4110 42.2985 -94.4386
v  64.4399 55.9872 -94.4386
v  66.0441 50.0000 -94.4386
v  60.0570 60.3701 -94.4386
v  54.0716 61.9743 -94.4386
v  60.0570 39.6300 -94.4386
v  54.0716 38.0257 -94.4386
v  64.4399 44.0129 -94.4386
v  61.6713 54.3821 -94.4386
v  54.0716 50.0000 -94.4386
v  62.8455 50.0000 -94.4386
v  58.4634 57.5900 -94.4386
v  54.0716 58.7642 -94.4386
v  58.4634 42.4100 -94.4386
v  54.0716 41.2358 -94.4386
v  61.6713 45.6179 -94.4386
v  63.8658 55.6547 -94.5038
v  62.3367 54.7719 -94.5038
v  63.6154 50.0000 -94.5038
v  65.3809 50.0000 -94.5038
v  59.7263 59.7942 -94.5039
v  58.8435 58.2651 -94.5039
v  54.0716 61.3093 -94.5039
v  54.0716 59.5438 -94.5039
v  59.7263 40.2058 -94.5038
v  58.8435 41.7349 -94.5038
v  54.0716 40.4563 -94.5038
v  54.0716 38.6907 -94.5038
v  63.8658 44.3453 -94.5038
v  62.3367 45.2281 -94.5038
v  39.6998 58.2976 -96.9569
v  39.5707 58.3721 -100.7076
v  37.3274 50.0000 -100.7076
v  37.4765 50.0000 -96.9569
v  45.7740 64.3718 -96.9569
v  45.6995 64.5009 -100.7076
v  45.7740 35.6282 -96.9569
v  45.6995 35.4991 -100.7076
v  39.6998 41.7024 -96.9569
v  39.5707 41.6279 -100.7076
v  38.6686 50.0000 -94.4386
v  40.7323 57.7015 -94.4386
v  46.3701 63.3394 -94.4386
v  46.3701 36.6607 -94.4386
v  40.7323 42.2985 -94.4386
v  43.7033 55.9872 -94.4386
v  42.0991 50.0000 -94.4386
v  48.0862 60.3701 -94.4386
v  48.0863 39.6300 -94.4386
v  43.7033 44.0129 -94.4386
v  46.4719 54.3821 -94.4386
v  45.2977 50.0000 -94.4386
v  49.6798 57.5900 -94.4386
v  49.6798 42.4100 -94.4386
v  46.4719 45.6179 -94.4386
v  44.5279 50.0000 -94.5038
v  45.8065 54.7719 -94.5038
v  44.2775 55.6547 -94.5038
v  42.7623 50.0000 -94.5039
v  49.2997 58.2651 -94.5038
v  48.4170 59.7942 -94.5038
v  49.2998 41.7349 -94.5038
v  48.4170 40.2058 -94.5038
v  45.8065 45.2281 -94.5038
v  44.2775 44.3453 -94.5038
# 85 vertices

vn 0.9992 -0.0000 0.0397
vn 0.8653 0.4996 0.0397
vn 0.8425 0.4864 0.2313
vn 0.9729 -0.0000 0.2313
vn 0.4996 0.8653 0.0397
vn 0.4864 0.8425 0.2313
vn 0.0000 0.9992 0.0397
vn 0.0000 0.9729 0.2313
vn 0.0000 -0.9992 0.0397
vn 0.4996 -0.8653 0.0397
vn 0.4864 -0.8425 0.2313
vn 0.0000 -0.9729 0.2313
vn 0.8653 -0.4996 0.0397
vn 0.8425 -0.4864 0.2313
vn 0.5132 0.2963 0.8055
vn 0.5925 0.0000 0.8055
vn 0.2963 0.5132 0.8055
vn 0.0000 0.5925 0.8055
vn 0.2963 -0.5132 0.8055
vn 0.0000 -0.5925 0.8055
vn 0.5132 -0.2963 0.8055
vn 0.0000 -0.0000 -1.0000
vn -0.0000 -0.0000 -1.0000
vn 0.0000 0.0000 1.0000
vn -0.0000 -0.0000 1.0000
vn 0.0000 -0.0000 1.0000
vn -0.0000 0.0000 1.0000
vn 0.0729 0.0422 0.9964
vn 0.0730 0.0420 0.9964
vn 0.0844 0.0000 0.9964
vn 0.0730 -0.0420 0.9964
vn 0.0729 -0.0422 0.9964
vn 0.0421 -0.0726 0.9965
vn 0.0418 -0.0727 0.9965
vn 0.0000 -0.0834 0.9965
vn 0.0000 -0.0833 0.9965
vn 0.0000 0.0976 0.9952
vn -0.0488 0.0847 0.9952
vn -0.0489 0.0846 0.9952
vn -0.0847 0.0489 0.9952
vn -0.0979 0.0000 0.9952
vn -0.0847 -0.0489 0.9952
vn -0.0488 -0.0847 0.9952
vn -0.0489 -0.0846 0.9952
vn 0.0000 -0.0976 0.9952
vn 0.0000 0.0834 0.9965
vn 0.0421 0.0725 0.9965
vn 0.0418 0.0727 0.9965
vn -0.8425 0.4864 0.2313
vn -0.8653 0.4996 0.0397
vn -0.9992 -0.0000 0.0397
vn -0.9729 -0.0000 0.2313
vn -0.4864 0.8425 0.2313
vn -0.4996 0.8653 0.0397
vn -0.4864 -0.8425 0.2313
vn -0.4996 -0.8653 0.0397
vn -0.8425 -0.4864 0.2313
vn -0.8653 -0.4996 0.0397
vn -0.5925 -0.0000 0.8055
vn -0.5132 0.2963 0.8055
vn -0.2963 0.5132 0.8055
vn -0.2963 -0.5132 0.8055
vn -0.5132 -0.2963 0.8055
vn -0.0844 0.0000 0.9964
vn -0.0730 0.0420 0.9964
vn -0.0730 0.0422 0.9964
vn -0.0730 -0.0420 0.9964
vn -0.0729 -0.0422 0.9964
vn -0.0421 -0.0726 0.9965
vn -0.0418 -0.0727 0.9965
vn 0.0488 0.0847 0.9952
vn 0.0489 0.0846 0.9952
vn 0.0847 0.0489 0.9952
vn 0.0979 0.0000 0.9952
vn 0.0847 -0.0489 0.9952
vn 0.0488 -0.0846 0.9952
vn 0.0489 -0.0846 0.9952
vn -0.0421 0.0725 0.9965
vn -0.0418 0.0727 0.9965
# 79 vertex normals

vt 0.9850 0.5005 0.0000
vt 0.9850 0.6594 0.0000
vt 0.8916 0.6594 0.0000
vt 0.8916 0.5005 0.0000
vt 0.9850 0.8202 0.0000
vt 0.8916 0.8202 0.0000
vt 0.9850 0.9877 0.0000
vt 0.8916 0.9877 0.0000
vt 0.9850 0.0163 0.0000
vt 0.9850 0.1595 0.0000
vt 0.8916 0.1595 0.0000
vt 0.8916 0.0163 0.0000
vt 0.9850 0.3347 0.0000
vt 0.8916 0.3347 0.0000
vt 0.7801 0.6594 0.0000
vt 0.7801 0.5005 0.0000
vt 0.7801 0.8202 0.0000
vt 0.7801 0.9877 0.0000
vt 0.7801 0.1595 0.0000
vt 0.7801 0.0163 0.0000
vt 0.7801 0.3347 0.0000
vt 0.1869 0.8639 0.0005
vt 0.1351 0.8795 0.0005
vt 0.2387 0.8795 0.0005
vt 0.0972 0.9222 0.0005
vt 0.0833 0.9805 0.0005
vt 0.2904 0.9805 0.0005
vt 0.2766 0.9222 0.0005
vt 0.4118 0.5144 0.9995
vt 0.4118 0.6739 0.9995
vt 0.6133 0.6739 0.9995
vt 0.6133 0.5144 0.9995
vt 0.4118 0.8233 0.9995
vt 0.6133 0.8233 0.9995
vt 0.4118 0.9859 0.9995
vt 0.6133 0.9859 0.9995
vt 0.4118 0.0151 0.9995
vt 0.4118 0.1934 0.9995
vt 0.6133 0.1934 0.9995
vt 0.6133 0.0151 0.9995
vt 0.4118 0.3550 0.9995
vt 0.6133 0.3550 0.9995
vt 0.1232 0.6374 0.9995
vt 0.3869 0.4975 0.9995
vt 0.0824 0.4975 0.9995
vt 0.2346 0.7398 0.9995
vt 0.3869 0.7773 0.9995
vt 0.2346 0.2552 0.9995
vt 0.3869 0.2177 0.9995
vt 0.1232 0.3576 0.9995
vt 0.6367 0.3565 0.9995
vt 0.7543 0.3565 0.9995
vt 0.7543 0.5089 0.9995
vt 0.6367 0.5089 0.9995
vt 0.6367 0.1929 0.9995
vt 0.7543 0.1929 0.9995
vt 0.6367 0.0167 0.9995
vt 0.7543 0.0167 0.9995
vt 0.6367 0.8117 0.9995
vt 0.7543 0.8117 0.9995
vt 0.7543 0.9880 0.9995
vt 0.6367 0.9880 0.9995
vt 0.6367 0.6612 0.9995
vt 0.7543 0.6612 0.9995
vt 0.0115 0.3108 0.0005
vt 0.0517 0.3108 0.9994
vt 0.0517 0.2432 0.9995
vt 0.0115 0.2432 0.0005
vt 0.0517 0.1749 0.9995
vt 0.0115 0.1749 0.0005
vt 0.0517 0.0914 0.9995
vt 0.0115 0.0914 0.0005
vt 0.0517 0.0200 0.9995
vt 0.0115 0.0200 0.0005
vt 0.0107 0.9882 0.0005
vt 0.0498 0.9882 0.9995
vt 0.0498 0.9083 0.9995
vt 0.0107 0.9083 0.0005
vt 0.0498 0.8248 0.9995
vt 0.0107 0.8248 0.0005
vt 0.0498 0.7565 0.9995
vt 0.0107 0.7565 0.0005
vt 0.0498 0.6888 0.9994
vt 0.0107 0.6888 0.0005
vt 0.0498 0.5981 0.9994
vt 0.0107 0.5981 0.0005
vt 0.0498 0.5131 0.9994
vt 0.0107 0.5131 0.0005
vt 0.0115 0.4745 0.0005
vt 0.0517 0.4745 0.9994
vt 0.0517 0.4016 0.9994
vt 0.0115 0.4016 0.0005
# 92 texture coords

g base
usemtl Material__25
s 1
f 1/1/1 2/2/2 3/3/3 
f 3/3/3 4/4/4 1/1/1 
f 2/2/2 5/5/5 6/6/6 
f 6/6/6 3/3/3 2/2/2 
f 5/5/5 7/7/7 8/8/8 
f 8/8/8 6/6/6 5/5/5 
f 9/9/9 10/10/10 11/11/11 
f 11/11/11 12/12/12 9/9/9 
f 10/10/10 13/13/13 14/14/14 
f 14/14/14 11/11/11 10/10/10 
f 13/13/13 1/1/1 4/4/4 
f 4/4/4 14/14/14 13/13/13 
f 3/3/3 15/15/15 16/16/16 
f 16/16/16 4/4/4 3/3/3 
f 6/6/6 17/17/17 15/15/15 
f 15/15/15 3/3/3 6/6/6 
f 8/8/8 18/18/18 17/17/17 
f 17/17/17 6/6/6 8/8/8 
f 11/11/11 19/19/19 20/20/20 
f 20/20/20 12/12/12 11/11/11 
f 14/14/14 21/21/21 19/19/19 
f 19/19/19 11/11/11 14/14/14 
f 4/4/4 16/16/16 21/21/21 
f 21/21/21 14/14/14 4/4/4 
s 2
f 1/22/22 13/23/23 2/24/23 
f 10/25/23 9/26/23 7/27/23 
f 7/27/23 5/28/23 10/25/23 
f 13/23/23 10/25/23 5/28/23 
f 5/28/23 2/24/23 13/23/23 
s 1
f 16/29/16 15/30/15 22/31/24 
f 22/31/24 23/32/24 16/29/16 
f 15/30/15 17/33/17 24/34/25 
f 24/34/25 22/31/24 15/30/15 
f 17/33/17 18/35/18 25/36/25 
f 25/36/25 24/34/25 17/33/17 
f 20/37/20 19/38/19 26/39/26 
f 26/39/26 27/40/26 20/37/20 
f 19/38/19 21/41/21 28/42/26 
f 28/42/26 26/39/26 19/38/19 
f 21/41/21 16/29/16 23/32/24 
f 23/32/24 28/42/26 21/41/21 
s 2
f 29/43/24 30/44/24 31/45/24 
f 32/46/24 30/44/24 29/43/24 
f 33/47/24 30/44/24 32/46/24 
f 34/48/24 30/44/24 35/49/24 
f 36/50/24 30/44/24 34/48/24 
f 31/45/24 30/44/24 36/50/24 
f 37/51/27 38/52/27 39/53/24 
f 39/53/24 40/54/24 37/51/27 
f 41/55/27 42/56/27 38/52/27 
f 38/52/27 37/51/27 41/55/27 
f 43/57/24 44/58/24 42/56/27 
f 42/56/27 41/55/27 43/57/24 
f 45/59/26 46/60/26 47/61/26 
f 47/61/26 48/62/26 45/59/26 
f 49/63/26 50/64/26 46/60/26 
f 46/60/26 45/59/26 49/63/26 
f 40/54/24 39/53/24 50/64/26 
f 50/64/26 49/63/26 40/54/24 
s 1
f 38/65/28 29/66/29 31/67/30 
f 31/67/30 39/68/30 38/65/28 
f 39/68/30 31/67/30 36/69/31 
f 36/69/31 50/70/32 39/68/30 
f 50/70/32 36/69/31 34/71/33 
f 34/71/33 46/72/34 50/70/32 
f 46/72/34 34/71/33 35/73/35 
f 35/73/35 47/74/36 46/72/34 
s 4
f 48/75/37 27/76/37 26/77/38 
f 26/77/38 45/78/39 48/75/37 
f 45/78/39 26/77/38 28/79/40 
f 28/79/40 49/80/40 45/78/39 
f 49/80/40 28/79/40 23/81/41 
f 23/81/41 40/82/41 49/80/40 
f 40/82/41 23/81/41 22/83/42 
f 22/83/42 37/84/42 40/82/41 
f 37/84/42 22/83/42 24/85/43 
f 24/85/43 41/86/44 37/84/42 
f 41/86/44 24/85/43 25/87/45 
f 25/87/45 43/88/45 41/86/44 
s 1
f 44/89/46 33/90/46 32/91/47 
f 32/91/47 42/92/48 44/89/46 
f 42/92/48 32/91/47 29/66/29 
f 29/66/29 38/65/28 42/92/48 
f 51/3/49 52/2/50 53/1/51 
f 53/1/51 54/4/52 51/3/49 
f 55/6/53 56/5/54 52/2/50 
f 52/2/50 51/3/49 55/6/53 
f 8/8/8 7/7/7 56/5/54 
f 56/5/54 55/6/53 8/8/8 
f 57/11/55 58/10/56 9/9/9 
f 9/9/9 12/12/12 57/11/55 
f 59/14/57 60/13/58 58/10/56 
f 58/10/56 57/11/55 59/14/57 
f 54/4/52 53/1/51 60/13/58 
f 60/13/58 59/14/57 54/4/52 
f 61/16/59 62/15/60 51/3/49 
f 51/3/49 54/4/52 61/16/59 
f 62/15/60 63/17/61 55/6/53 
f 55/6/53 51/3/49 62/15/60 
f 63/17/61 18/18/18 8/8/8 
f 8/8/8 55/6/53 63/17/61 
f 20/20/20 64/19/62 57/11/55 
f 57/11/55 12/12/12 20/20/20 
f 64/19/62 65/21/63 59/14/57 
f 59/14/57 57/11/55 64/19/62 
f 65/21/63 61/16/59 54/4/52 
f 54/4/52 59/14/57 65/21/63 
s 2
f 53/22/23 52/24/22 60/23/22 
f 7/27/23 9/26/23 58/25/22 
f 58/25/22 56/28/22 7/27/23 
f 56/28/22 58/25/22 60/23/22 
f 60/23/22 52/24/22 56/28/22 
s 1
f 66/31/27 62/30/60 61/29/59 
f 61/29/59 67/32/27 66/31/27 
f 68/34/26 63/33/61 62/30/60 
f 62/30/60 66/31/27 68/34/26 
f 25/36/25 18/35/18 63/33/61 
f 63/33/61 68/34/26 25/36/25 
f 69/39/25 64/38/62 20/37/20 
f 20/37/20 27/40/26 69/39/25 
f 70/42/25 65/41/63 64/38/62 
f 64/38/62 69/39/25 70/42/25 
f 67/32/27 61/29/59 65/41/63 
f 65/41/63 70/42/25 67/32/27 
s 2
f 71/43/24 72/45/24 30/44/24 
f 73/46/24 71/43/24 30/44/24 
f 33/47/24 73/46/24 30/44/24 
f 74/48/24 35/49/24 30/44/24 
f 75/50/24 74/48/24 30/44/24 
f 72/45/24 75/50/24 30/44/24 
f 76/53/25 77/52/24 78/51/27 
f 78/51/27 79/54/25 76/53/25 
f 77/52/24 80/56/24 81/55/24 
f 81/55/24 78/51/27 77/52/24 
f 80/56/24 44/58/24 43/57/24 
f 43/57/24 81/55/24 80/56/24 
f 47/61/26 82/60/25 83/59/25 
f 83/59/25 48/62/26 47/61/26 
f 82/60/25 84/64/27 85/63/25 
f 85/63/25 83/59/25 82/60/25 
f 84/64/27 76/53/25 79/54/25 
f 79/54/25 85/63/25 84/64/27 
s 1
f 72/67/64 71/66/65 77/65/66 
f 77/65/66 76/68/64 72/67/64 
f 75/69/67 72/67/64 76/68/64 
f 76/68/64 84/70/68 75/69/67 
f 74/71/69 75/69/67 84/70/68 
f 84/70/68 82/72/70 74/71/69 
f 35/73/35 74/71/69 82/72/70 
f 82/72/70 47/74/36 35/73/35 
s 4
f 69/77/71 27/76/37 48/75/37 
f 48/75/37 83/78/72 69/77/71 
f 70/79/73 69/77/71 83/78/72 
f 83/78/72 85/80/73 70/79/73 
f 67/81/74 70/79/73 85/80/73 
f 85/80/73 79/82/74 67/81/74 
f 66/83/75 67/81/74 79/82/74 
f 79/82/74 78/84/75 66/83/75 
f 68/85/76 66/83/75 78/84/75 
f 78/84/75 81/86/77 68/85/76 
f 25/87/45 68/85/76 81/86/77 
f 81/86/77 43/88/45 25/87/45 
s 1
f 73/91/78 33/90/46 44/89/46 
f 44/89/46 80/92/79 73/91/78 
f 71/66/65 73/91/78 80/92/79 
f 80/92/79 77/65/66 71/66/65 
# 166 faces

