# 3ds Max Wavefront OBJ Exporter v0.97b - (c)2007 guruware
# File Created: 22.01.2021 17:43:56

mtllib ???\scifi_group_cabinet.mtl

#
# object close1
#

v  100.0000 0.0000 0.0000
v  100.0000 -0.0000 -100.0000
v  100.0000 100.0002 -100.0000
v  100.0000 100.0002 -0.0000
v  0.0000 -0.0000 -100.0000
v  0.0001 100.0002 -100.0000
v  0.0000 0.0000 -0.0000
v  0.0001 100.0002 -0.0000
# 8 vertices

vn 0.5774 -0.5774 0.5774
vn 0.5774 -0.5774 -0.5774
vn 0.5774 0.5774 -0.5774
vn 0.5774 0.5774 0.5774
vn -0.5774 -0.5774 -0.5774
vn -0.5774 0.5774 -0.5774
vn -0.5774 -0.5774 0.5774
vn -0.5774 0.5774 0.5774
# 8 vertex normals

vt 0.9982 0.4013 0.0000
vt 0.6666 0.4013 0.0000
vt 0.6666 0.0031 0.0000
vt 0.9982 0.0031 0.0000
vt 0.3350 0.4013 0.0000
vt 0.3350 0.0031 0.0000
vt 0.9968 0.8417 0.0000
vt 0.6049 0.8417 0.0000
vt 0.6049 0.9945 0.0000
vt 0.9968 0.9945 0.0000
vt 0.0064 0.9960 0.0000
vt 0.5867 0.9960 0.0000
vt 0.5867 0.4154 0.0000
vt 0.0064 0.4154 0.0000
vt 0.0034 0.4013 0.0000
vt 0.0034 0.0031 0.0000
vt 0.9959 0.4147 0.0000
vt 0.9959 0.8284 0.0000
vt 0.6034 0.8284 0.0000
vt 0.6034 0.4147 0.0000
# 20 texture coords

g close1
usemtl Material__8
s 1
f 1/1/1 2/2/2 3/3/3 
f 3/3/3 4/4/4 1/1/1 
f 5/5/5 6/6/6 3/3/3 
f 3/3/3 2/2/2 5/5/5 
f 7/7/7 5/8/5 2/9/2 
f 2/9/2 1/10/1 7/7/7 
f 7/11/7 1/12/1 4/13/4 
f 4/13/4 8/14/8 7/11/7 
f 6/6/6 5/5/5 7/15/7 
f 7/15/7 8/16/8 6/6/6 
f 3/17/3 6/18/6 8/19/8 
f 8/19/8 4/20/4 3/17/3 
# 12 faces

#
# object close2
#

v  0.0000 0.0000 0.0000
v  0.0000 100.0002 0.0000
v  -0.0000 100.0002 -100.0000
v  -0.0000 -0.0000 -100.0000
v  50.0000 100.0002 -100.0000
v  100.0000 0.0000 -0.0000
v  99.9999 100.0002 -0.0000
v  50.0000 100.0002 -0.0000
v  99.9999 100.0002 -100.0000
v  100.0000 -0.0000 -100.0000
# 10 vertices

vn -0.5774 -0.5774 0.5774
vn -0.5774 0.5774 0.5774
vn -0.5774 0.5774 -0.5774
vn -0.5774 -0.5774 -0.5774
vn -0.0000 0.7071 -0.7071
vn 0.0000 -0.7071 0.7071
vn 0.0000 0.7071 0.7071
vn -0.0000 -0.7071 -0.7071
# 8 vertex normals

vt 0.9982 0.4013 0.0000
vt 0.9982 0.0031 0.0000
vt 0.6666 0.0031 0.0000
vt 0.6666 0.4013 0.0000
vt 0.5008 0.0031 0.0000
vt 0.9968 0.8417 0.0000
vt 0.9968 0.9945 0.0000
vt 0.6049 0.9945 0.0000
vt 0.0064 0.9960 0.0000
vt 0.0064 0.4154 0.0000
vt 0.2965 0.4154 0.0000
vt 0.9959 0.6216 0.0000
vt 0.9959 0.4147 0.0000
vt 0.6034 0.4147 0.0000
vt 0.6034 0.6216 0.0000
vt 0.9959 0.7106 0.0000
vt 0.6034 0.7106 0.0000
vt 0.3350 0.4013 0.0000
vt 0.3350 0.0031 0.0000
vt 0.6049 0.8417 0.0000
vt 0.5867 0.9960 0.0000
vt 0.5867 0.4154 0.0000
# 22 texture coords

g close2
usemtl Material__8
s 1
f 9/21/9 10/22/10 11/23/11 
f 11/23/11 12/24/12 9/21/9 
f 12/24/12 11/23/11 13/25/13 
f 14/26/14 9/27/9 12/28/12 
f 14/29/14 15/30/15 16/31/15 
f 13/32/13 11/33/11 10/34/10 
f 10/34/10 16/35/15 13/32/13 
f 17/36/13 13/32/13 16/35/15 
f 16/35/15 15/37/15 17/36/13 
f 18/38/16 13/25/13 17/39/13 
f 12/24/12 13/25/13 18/38/16 
f 14/26/14 12/28/12 18/40/16 
f 14/29/14 16/31/15 9/41/9 
f 9/41/9 16/31/15 10/42/10 
# 14 faces

#
# object close3_down
#

v  100.0000 0.0000 0.0000
v  100.0000 -0.0000 -100.0000
v  100.0000 100.0002 -100.0000
v  100.0000 100.0002 -0.0000
v  0.0000 -0.0000 -100.0000
v  0.0001 100.0002 -100.0000
v  0.0000 0.0000 -0.0000
v  0.0001 100.0002 -0.0000
# 8 vertices

vn 0.5774 -0.5774 0.5774
vn 0.5774 -0.5774 -0.5774
vn 0.7071 0.0000 -0.7071
vn 0.7071 0.0000 0.7071
vn -0.5774 -0.5774 -0.5774
vn -0.7071 0.0000 -0.7071
vn -0.5774 -0.5774 0.5774
vn -0.7071 0.0000 0.7071
# 8 vertex normals

vt 0.9982 0.4013 0.0000
vt 0.6666 0.4013 0.0000
vt 0.6666 0.0031 0.0000
vt 0.9982 0.0031 0.0000
vt 0.3350 0.4013 0.0000
vt 0.3350 0.0031 0.0000
vt 0.9968 0.8417 0.0000
vt 0.6049 0.8417 0.0000
vt 0.6049 0.9945 0.0000
vt 0.9968 0.9945 0.0000
vt 0.0064 0.9960 0.0000
vt 0.5867 0.9960 0.0000
vt 0.5867 0.4154 0.0000
vt 0.0064 0.4154 0.0000
vt 0.0034 0.4013 0.0000
vt 0.0034 0.0031 0.0000
# 16 texture coords

g close3_down
usemtl Material__8
s 1
f 19/43/17 20/44/18 21/45/19 
f 21/45/19 22/46/20 19/43/17 
f 23/47/21 24/48/22 21/45/19 
f 21/45/19 20/44/18 23/47/21 
f 25/49/23 23/50/21 20/51/18 
f 20/51/18 19/52/17 25/49/23 
f 25/53/23 19/54/17 22/55/20 
f 22/55/20 26/56/24 25/53/23 
f 24/48/22 23/47/21 25/57/23 
f 25/57/23 26/58/24 24/48/22 
# 10 faces

#
# object close3_up
#

v  100.0000 0.0000 0.0000
v  100.0000 -0.0000 -100.0000
v  100.0000 100.0002 -100.0000
v  100.0000 100.0002 -0.0000
v  0.0000 -0.0000 -100.0000
v  0.0001 100.0002 -100.0000
v  0.0000 0.0000 -0.0000
v  0.0001 100.0002 -0.0000
# 8 vertices

vn 0.7071 0.0000 0.7071
vn 0.7071 0.0000 -0.7071
vn 0.5774 0.5774 -0.5774
vn 0.5774 0.5774 0.5774
vn -0.7071 0.0000 -0.7071
vn -0.5774 0.5774 -0.5774
vn -0.7071 0.0000 0.7071
vn -0.5774 0.5774 0.5774
# 8 vertex normals

vt 0.9982 0.4013 0.0000
vt 0.6666 0.4013 0.0000
vt 0.6666 0.0031 0.0000
vt 0.9982 0.0031 0.0000
vt 0.3350 0.4013 0.0000
vt 0.3350 0.0031 0.0000
vt 0.0064 0.9960 0.0000
vt 0.5867 0.9960 0.0000
vt 0.5867 0.4154 0.0000
vt 0.0064 0.4154 0.0000
vt 0.0034 0.4013 0.0000
vt 0.0034 0.0031 0.0000
vt 0.9959 0.4147 0.0000
vt 0.9959 0.8284 0.0000
vt 0.6034 0.8284 0.0000
vt 0.6034 0.4147 0.0000
# 16 texture coords

g close3_up
usemtl Material__8
s 1
f 27/59/25 28/60/26 29/61/27 
f 29/61/27 30/62/28 27/59/25 
f 31/63/29 32/64/30 29/61/27 
f 29/61/27 28/60/26 31/63/29 
f 33/65/31 27/66/25 30/67/28 
f 30/67/28 34/68/32 33/65/31 
f 32/64/30 31/63/29 33/69/31 
f 33/69/31 34/70/32 32/64/30 
f 29/71/27 32/72/30 34/73/32 
f 34/73/32 30/74/28 29/71/27 
# 10 faces

