# 3ds Max Wavefront OBJ Exporter v0.97b - (c)2007 guruware
# File Created: 27.01.2021 15:59:33

mtllib scifi_erect_light.mtl

#
# object base
#

v  89.0237 0.4053 -50.0000
v  86.5485 8.7825 -50.0000
v  81.6519 8.7825 -31.7258
v  83.7955 0.4053 -30.4882
v  68.2742 8.7825 -18.3481
v  69.5119 0.4053 -16.2045
v  50.0000 8.7825 -13.4515
v  50.0000 0.4053 -10.9763
v  50.0000 0.4053 -50.0000
v  50.0000 8.7825 -50.0000
v  10.9763 0.4053 -50.0000
v  16.2045 0.4053 -30.4882
v  18.3481 8.7825 -31.7258
v  13.4515 8.7825 -50.0000
v  30.4881 0.4053 -16.2045
v  31.7258 8.7825 -18.3481
v  83.7955 0.4053 -69.5118
v  81.6519 8.7825 -68.2742
v  69.5119 0.4053 -83.7955
v  68.2742 8.7825 -81.6519
v  50.0000 0.4053 -89.0237
v  50.0000 8.7825 -86.5485
v  18.3481 8.7825 -68.2742
v  16.2045 0.4053 -69.5118
v  31.7258 8.7825 -81.6519
v  30.4881 0.4053 -83.7955
v  44.0639 5.2273 -44.0639
v  45.2547 24.0312 -45.2547
v  43.2891 24.0312 -50.0000
v  41.6052 5.2273 -50.0000
v  50.0000 5.2273 -41.6052
v  50.0000 24.0312 -43.2891
v  44.3379 52.7101 -44.3379
v  41.9925 52.7101 -50.0000
v  50.0000 52.7101 -41.9925
v  55.9361 5.2273 -44.0639
v  58.3949 5.2273 -50.0000
v  56.7109 24.0312 -50.0000
v  54.7453 24.0312 -45.2547
v  55.6622 52.7101 -44.3379
v  58.0075 52.7101 -50.0000
v  44.0639 5.2273 -55.9361
v  45.2547 24.0312 -54.7453
v  50.0000 5.2273 -58.3949
v  50.0000 24.0312 -56.7109
v  44.3379 52.7101 -55.6622
v  50.0000 52.7101 -58.0075
v  55.9361 5.2273 -55.9361
v  54.7453 24.0312 -54.7453
v  55.6622 52.7101 -55.6622
v  63.4210 75.4929 -26.9763
v  73.3162 75.4929 -36.8715
v  63.4210 86.9188 -42.5845
v  57.7080 86.9188 -36.8715
v  50.0000 86.9188 -34.8062
v  50.0000 75.4929 -23.3802
v  65.5121 59.8847 -23.3544
v  76.9381 59.8847 -34.7804
v  50.0000 59.8847 -19.1980
v  63.9365 46.1439 -26.1070
v  74.2119 46.1475 -36.3898
v  50.0000 46.1429 -22.3712
v  61.3086 37.8127 -30.7188
v  69.6840 37.8127 -39.0942
v  50.0000 37.8127 -27.6886
v  65.5075 86.9188 -50.0000
v  76.9336 75.4929 -50.0000
v  81.1158 59.8847 -50.0000
v  77.9600 46.1532 -50.0000
v  72.7433 37.8127 -50.0000
v  50.0000 88.3851 -50.0000
v  70.5125 38.3049 -50.0000
v  67.7506 38.3089 -40.1923
v  56.9235 49.3167 -46.1746
v  57.9998 49.3167 -50.0000
v  60.1938 38.3115 -32.6375
v  53.9763 49.3167 -43.2274
v  50.0000 38.3122 -29.9065
v  50.0000 49.3167 -42.1620
v  50.0000 49.3167 -50.0000
v  36.5790 75.4929 -26.9763
v  42.2920 86.9188 -36.8715
v  36.5790 86.9188 -42.5845
v  26.6838 75.4929 -36.8715
v  34.4879 59.8847 -23.3544
v  23.0619 59.8847 -34.7804
v  36.0635 46.1439 -26.1070
v  25.7881 46.1475 -36.3898
v  38.6914 37.8127 -30.7188
v  30.3160 37.8127 -39.0942
v  34.4925 86.9188 -50.0000
v  23.0664 75.4929 -50.0000
v  18.8842 59.8847 -50.0000
v  22.0400 46.1532 -50.0000
v  27.2567 37.8127 -50.0000
v  29.4875 38.3049 -50.0000
v  42.0002 49.3167 -50.0000
v  43.0765 49.3167 -46.1746
v  32.2494 38.3089 -40.1923
v  46.0237 49.3167 -43.2274
v  39.8062 38.3115 -32.6375
v  63.4210 75.4929 -73.0237
v  57.7080 86.9188 -63.1285
v  63.4210 86.9188 -57.4155
v  73.3162 75.4929 -63.1285
v  50.0000 75.4929 -76.6198
v  50.0000 86.9188 -65.1938
v  65.5121 59.8847 -76.6456
v  76.9381 59.8847 -65.2196
v  50.0000 59.8847 -80.8020
v  63.9365 46.1439 -73.8930
v  74.2119 46.1475 -63.6102
v  50.0000 46.1429 -77.6288
v  61.3086 37.8127 -69.2812
v  69.6840 37.8127 -60.9058
v  50.0000 37.8127 -72.3114
v  56.9235 49.3167 -53.8254
v  67.7506 38.3089 -59.8077
v  53.9763 49.3167 -56.7726
v  60.1938 38.3115 -67.3625
v  50.0000 49.3167 -57.8380
v  50.0000 38.3122 -70.0935
v  36.5790 75.4929 -73.0237
v  26.6838 75.4929 -63.1285
v  36.5790 86.9188 -57.4155
v  42.2920 86.9188 -63.1285
v  34.4879 59.8847 -76.6456
v  23.0619 59.8847 -65.2196
v  36.0635 46.1439 -73.8930
v  25.7881 46.1475 -63.6102
v  38.6914 37.8127 -69.2812
v  30.3160 37.8127 -60.9058
v  32.2494 38.3089 -59.8077
v  43.0765 49.3167 -53.8254
v  39.8062 38.3115 -67.3625
v  46.0237 49.3167 -56.7726
# 136 vertices

vn 0.9590 0.2834 -0.0000
vn 0.8305 0.2834 0.4795
vn 0.4795 0.2834 0.8305
vn -0.0000 0.2834 0.9590
vn 0.0000 -1.0000 -0.0000
vn -0.0000 1.0000 0.0000
vn 0.0000 1.0000 0.0000
vn -0.0000 1.0000 -0.0000
vn 0.0000 1.0000 -0.0000
vn -0.9590 0.2834 -0.0000
vn -0.8305 0.2834 0.4795
vn -0.4795 0.2834 0.8305
vn 0.8305 0.2834 -0.4795
vn 0.4795 0.2834 -0.8305
vn -0.0000 0.2834 -0.9590
vn -0.8305 0.2834 -0.4795
vn -0.4795 0.2834 -0.8305
vn -0.7043 0.0892 0.7043
vn -0.7069 0.0224 0.7069
vn -0.9997 0.0224 -0.0000
vn -0.9960 0.0892 -0.0000
vn 0.0000 0.0892 0.9960
vn 0.0000 0.0224 0.9997
vn -0.7064 -0.0452 0.7064
vn -0.9990 -0.0452 -0.0000
vn -0.0000 -0.0452 0.9990
vn 0.7043 0.0892 0.7043
vn 0.9960 0.0892 -0.0000
vn 0.9997 0.0224 -0.0000
vn 0.7069 0.0224 0.7069
vn 0.7064 -0.0452 0.7064
vn 0.9990 -0.0452 -0.0000
vn -0.7043 0.0892 -0.7043
vn -0.7069 0.0224 -0.7069
vn -0.0000 0.0892 -0.9960
vn 0.0000 0.0224 -0.9997
vn -0.7064 -0.0452 -0.7064
vn 0.0000 -0.0452 -0.9990
vn 0.7043 0.0892 -0.7043
vn 0.7069 0.0224 -0.7069
vn 0.7064 -0.0452 -0.7064
vn 0.4380 0.4823 0.7586
vn 0.7571 0.4822 0.4408
vn 0.6099 0.7071 0.3579
vn 0.3536 0.7071 0.6124
vn 0.0000 0.7071 0.7071
vn -0.0000 0.4823 0.8760
vn 0.4999 0.0168 0.8659
vn 0.8643 0.0171 0.5026
vn -0.0000 0.0167 0.9999
vn 0.4632 -0.3771 0.8020
vn 0.8009 -0.3753 0.4666
vn 0.0000 -0.3775 0.9260
vn 0.4223 -0.5372 0.7301
vn 0.7297 -0.5347 0.4261
vn 0.0000 -0.5381 0.8429
vn 0.7058 0.7084 0.0000
vn 0.8762 0.4819 -0.0000
vn 0.9998 0.0175 -0.0000
vn 0.9278 -0.3730 -0.0000
vn 0.8465 -0.5323 -0.0000
vn 0.0823 0.9955 0.0479
vn 0.0941 0.9956 0.0000
vn 0.0480 0.9954 0.0830
vn 0.0000 0.9954 0.0961
vn -0.6606 -0.7507 -0.0000
vn -0.5746 -0.7470 -0.3344
vn -0.3480 -0.9147 -0.2055
vn -0.4046 -0.9145 -0.0000
vn -0.3342 -0.7447 -0.5777
vn -0.2031 -0.9135 -0.3526
vn 0.0000 -0.7441 -0.6681
vn 0.0000 -0.9132 -0.4074
vn -0.1882 -0.9760 -0.1096
vn -0.1878 -0.9760 -0.1105
vn -0.2155 -0.9765 -0.0000
vn -0.1097 -0.9757 -0.1898
vn -0.1096 -0.9757 -0.1900
vn -0.0000 -0.9756 -0.2197
vn 0.0000 -0.9756 -0.2197
vn -0.4380 0.4823 0.7586
vn -0.3536 0.7071 0.6124
vn -0.6099 0.7071 0.3579
vn -0.7571 0.4822 0.4408
vn -0.4999 0.0168 0.8659
vn -0.8643 0.0171 0.5026
vn -0.4632 -0.3771 0.8020
vn -0.8009 -0.3753 0.4666
vn -0.4223 -0.5372 0.7301
vn -0.7297 -0.5347 0.4261
vn -0.7058 0.7084 -0.0000
vn -0.8762 0.4819 -0.0000
vn -0.9998 0.0175 -0.0000
vn -0.9278 -0.3730 -0.0000
vn -0.8465 -0.5323 0.0000
vn -0.0941 0.9956 -0.0000
vn -0.0823 0.9955 0.0479
vn -0.0480 0.9954 0.0830
vn 0.6606 -0.7507 0.0000
vn 0.4046 -0.9145 -0.0000
vn 0.3480 -0.9147 -0.2055
vn 0.5746 -0.7470 -0.3344
vn 0.2031 -0.9135 -0.3526
vn 0.3342 -0.7447 -0.5777
vn 0.1882 -0.9760 -0.1096
vn 0.2155 -0.9765 -0.0000
vn 0.2155 -0.9765 0.0000
vn 0.1878 -0.9760 -0.1105
vn 0.1097 -0.9757 -0.1898
vn 0.1096 -0.9757 -0.1900
vn 0.4380 0.4823 -0.7586
vn 0.3536 0.7071 -0.6124
vn 0.6099 0.7071 -0.3579
vn 0.7571 0.4822 -0.4408
vn -0.0000 0.4823 -0.8760
vn 0.0000 0.7071 -0.7071
vn 0.4999 0.0168 -0.8659
vn 0.8643 0.0171 -0.5026
vn -0.0000 0.0167 -0.9999
vn 0.4632 -0.3771 -0.8020
vn 0.8009 -0.3753 -0.4666
vn 0.0000 -0.3775 -0.9260
vn 0.4223 -0.5372 -0.7301
vn 0.7297 -0.5347 -0.4261
vn 0.0000 -0.5381 -0.8429
vn 0.0823 0.9955 -0.0479
vn 0.0480 0.9954 -0.0830
vn 0.0000 0.9954 -0.0961
vn -0.3480 -0.9147 0.2055
vn -0.5746 -0.7470 0.3344
vn -0.2031 -0.9135 0.3526
vn -0.3342 -0.7447 0.5777
vn -0.0000 -0.9132 0.4074
vn 0.0000 -0.7441 0.6681
vn -0.1882 -0.9760 0.1096
vn -0.1878 -0.9760 0.1105
vn -0.1097 -0.9757 0.1898
vn -0.1096 -0.9757 0.1900
vn 0.0000 -0.9756 0.2197
vn -0.4380 0.4823 -0.7586
vn -0.7571 0.4822 -0.4408
vn -0.6099 0.7071 -0.3579
vn -0.3536 0.7071 -0.6124
vn -0.4999 0.0168 -0.8659
vn -0.8643 0.0171 -0.5026
vn -0.4632 -0.3771 -0.8020
vn -0.8009 -0.3753 -0.4666
vn -0.4223 -0.5372 -0.7301
vn -0.7297 -0.5347 -0.4261
vn -0.0823 0.9955 -0.0479
vn -0.0480 0.9954 -0.0830
vn 0.5746 -0.7470 0.3344
vn 0.3480 -0.9147 0.2055
vn 0.3342 -0.7447 0.5777
vn 0.2031 -0.9135 0.3526
vn 0.1882 -0.9760 0.1096
vn 0.1878 -0.9760 0.1105
vn 0.1097 -0.9757 0.1898
vn 0.1096 -0.9757 0.1900
# 159 vertex normals

vt 0.9914 0.4745 0.0000
vt 0.8616 0.4745 0.0000
vt 0.8616 0.6480 0.0000
vt 0.9914 0.6480 0.0000
vt 0.8616 0.8214 0.0000
vt 0.9914 0.8214 0.0000
vt 0.8616 0.9894 0.0000
vt 0.9914 0.9894 0.0000
vt 0.6342 0.4849 0.0000
vt 0.5326 0.5435 0.0000
vt 0.6499 0.5435 0.0000
vt 0.5912 0.4419 0.0000
vt 0.5326 0.4262 0.0000
vt 0.3783 0.6870 0.0000
vt 0.6465 0.6870 0.0000
vt 0.4156 0.8375 0.0000
vt 0.5143 0.9455 0.0000
vt 0.6465 0.9837 0.0000
vt 0.6342 0.6022 0.0000
vt 0.5912 0.6452 0.0000
vt 0.5326 0.6609 0.0000
vt 0.7597 0.5069 0.0000
vt 0.7593 0.7231 0.0000
vt 0.6786 0.7231 0.0000
vt 0.6786 0.5069 0.0000
vt 0.8403 0.5069 0.0000
vt 0.8403 0.7231 0.0000
vt 0.7595 0.9891 0.0000
vt 0.6786 0.9891 0.0000
vt 0.8403 0.9891 0.0000
vt 0.3279 0.1849 0.0000
vt 0.1617 0.1849 0.0000
vt 0.1618 0.0103 0.0000
vt 0.3274 0.0103 0.0000
vt 0.5002 0.0103 0.0000
vt 0.5004 0.1849 0.0000
vt 0.3279 0.3711 0.0000
vt 0.1617 0.3711 0.0000
vt 0.5004 0.3711 0.0000
vt 0.3279 0.5340 0.0000
vt 0.1617 0.5340 0.0000
vt 0.5004 0.5340 0.0000
vt 0.3279 0.6267 0.0000
vt 0.1617 0.6267 0.0000
vt 0.5004 0.6267 0.0000
vt 0.0117 0.0103 0.0000
vt 0.0113 0.1849 0.0000
vt 0.0113 0.3711 0.0000
vt 0.0113 0.5340 0.0000
vt 0.0113 0.6267 0.0000
vt 0.7594 0.2462 0.0000
vt 0.6470 0.0427 0.0000
vt 0.7594 0.0111 0.0000
vt 0.5604 0.1293 0.0000
vt 0.5291 0.2462 0.0000
vt 0.3490 0.9848 0.0000
vt 0.3045 0.8268 0.0000
vt 0.1301 0.9232 0.0000
vt 0.1474 0.9848 0.0000
vt 0.1828 0.7052 0.0000
vt 0.0826 0.8757 0.0000
vt 0.0186 0.6612 0.0000
vt 0.0186 0.8586 0.0000
vt 0.0186 0.9848 0.0000
vt 0.1617 0.6471 0.0000
vt 0.0113 0.6471 0.0000
vt 0.3279 0.6471 0.0000
vt 0.5004 0.6471 0.0000
vt 0.7594 0.4813 0.0000
vt 0.6470 0.4497 0.0000
vt 0.5604 0.3631 0.0000
vt 0.8719 0.0427 0.0000
vt 0.9585 0.1293 0.0000
vt 0.9898 0.2462 0.0000
vt 0.8719 0.4497 0.0000
vt 0.9585 0.3631 0.0000
# 76 texture coords

g base
usemtl Material__288
s 1
f 1/1/1 2/2/1 3/3/2 
f 3/3/2 4/4/2 1/1/1 
f 4/4/2 3/3/2 5/5/3 
f 5/5/3 6/6/3 4/4/2 
f 6/6/3 5/5/3 7/7/4 
f 7/7/4 8/8/4 6/6/3 
s 2
f 4/9/5 9/10/5 1/11/5 
f 6/12/5 9/10/5 4/9/5 
f 8/13/5 9/10/5 6/12/5 
f 2/14/6 10/15/7 3/16/8 
f 3/16/8 10/15/7 5/17/8 
f 5/17/8 10/15/7 7/18/9 
s 1
f 11/1/10 12/4/11 13/3/11 
f 13/3/11 14/2/10 11/1/10 
f 12/4/11 15/6/12 16/5/12 
f 16/5/12 13/3/11 12/4/11 
f 15/6/12 8/8/4 7/7/4 
f 7/7/4 16/5/12 15/6/12 
s 2
f 12/9/5 11/11/5 9/10/5 
f 15/12/5 12/9/5 9/10/5 
f 8/13/5 15/12/5 9/10/5 
f 14/14/7 13/16/9 10/15/7 
f 13/16/9 16/17/9 10/15/7 
f 16/17/9 7/18/9 10/15/7 
s 1
f 1/1/1 17/4/13 18/3/13 
f 18/3/13 2/2/1 1/1/1 
f 17/4/13 19/6/14 20/5/14 
f 20/5/14 18/3/13 17/4/13 
f 19/6/14 21/8/15 22/7/15 
f 22/7/15 20/5/14 19/6/14 
s 2
f 17/19/5 1/11/5 9/10/5 
f 19/20/5 17/19/5 9/10/5 
f 21/21/5 19/20/5 9/10/5 
f 2/14/6 18/16/6 10/15/7 
f 18/16/6 20/17/6 10/15/7 
f 20/17/6 22/18/7 10/15/7 
s 1
f 11/1/10 14/2/10 23/3/16 
f 23/3/16 24/4/16 11/1/10 
f 24/4/16 23/3/16 25/5/17 
f 25/5/17 26/6/17 24/4/16 
f 26/6/17 25/5/17 22/7/15 
f 22/7/15 21/8/15 26/6/17 
s 2
f 24/19/5 9/10/5 11/11/5 
f 26/20/5 9/10/5 24/19/5 
f 21/21/5 9/10/5 26/20/5 
f 14/14/7 10/15/7 23/16/7 
f 23/16/7 10/15/7 25/17/7 
f 25/17/7 10/15/7 22/18/7 
s 1
f 27/22/18 28/23/19 29/24/20 
f 29/24/20 30/25/21 27/22/18 
f 31/26/22 32/27/23 28/23/19 
f 28/23/19 27/22/18 31/26/22 
f 33/28/24 34/29/25 29/24/20 
f 29/24/20 28/23/19 33/28/24 
f 35/30/26 33/28/24 28/23/19 
f 28/23/19 32/27/23 35/30/26 
f 36/22/27 37/25/28 38/24/29 
f 38/24/29 39/23/30 36/22/27 
f 31/26/22 36/22/27 39/23/30 
f 39/23/30 32/27/23 31/26/22 
f 40/28/31 39/23/30 38/24/29 
f 38/24/29 41/29/32 40/28/31 
f 35/30/26 32/27/23 39/23/30 
f 39/23/30 40/28/31 35/30/26 
f 42/22/33 30/25/21 29/24/20 
f 29/24/20 43/23/34 42/22/33 
f 44/26/35 42/22/33 43/23/34 
f 43/23/34 45/27/36 44/26/35 
f 46/28/37 43/23/34 29/24/20 
f 29/24/20 34/29/25 46/28/37 
f 47/30/38 45/27/36 43/23/34 
f 43/23/34 46/28/37 47/30/38 
f 48/22/39 49/23/40 38/24/29 
f 38/24/29 37/25/28 48/22/39 
f 44/26/35 45/27/36 49/23/40 
f 49/23/40 48/22/39 44/26/35 
f 50/28/41 41/29/32 38/24/29 
f 38/24/29 49/23/40 50/28/41 
f 47/30/38 50/28/41 49/23/40 
f 49/23/40 45/27/36 47/30/38 
f 51/31/42 52/32/43 53/33/44 
f 53/33/44 54/34/45 51/31/42 
f 51/31/42 54/34/45 55/35/46 
f 55/35/46 56/36/47 51/31/42 
f 57/37/48 58/38/49 52/32/43 
f 52/32/43 51/31/42 57/37/48 
f 57/37/48 51/31/42 56/36/47 
f 56/36/47 59/39/50 57/37/48 
f 60/40/51 61/41/52 58/38/49 
f 58/38/49 57/37/48 60/40/51 
f 60/40/51 57/37/48 59/39/50 
f 59/39/50 62/42/53 60/40/51 
f 63/43/54 64/44/55 61/41/52 
f 61/41/52 60/40/51 63/43/54 
f 63/43/54 60/40/51 62/42/53 
f 62/42/53 65/45/56 63/43/54 
f 66/46/57 53/33/44 52/32/43 
f 52/32/43 67/47/58 66/46/57 
f 52/32/43 58/38/49 68/48/59 
f 68/48/59 67/47/58 52/32/43 
f 58/38/49 61/41/52 69/49/60 
f 69/49/60 68/48/59 58/38/49 
f 61/41/52 64/44/55 70/50/61 
f 70/50/61 69/49/60 61/41/52 
s 2
f 71/51/9 53/52/62 66/53/63 
f 71/51/9 54/54/64 53/52/62 
f 55/55/65 54/54/64 71/51/9 
s 1
f 72/56/66 73/57/67 74/58/68 
f 74/58/68 75/59/69 72/56/66 
f 73/57/67 76/60/70 77/61/71 
f 77/61/71 74/58/68 73/57/67 
f 76/60/70 78/62/72 79/63/73 
f 79/63/73 77/61/71 76/60/70 
f 75/59/69 74/58/68 80/64/5 
f 77/61/71 79/63/73 80/64/5 
f 74/58/68 77/61/71 80/64/5 
s 2
f 64/44/74 73/65/75 72/66/76 
f 72/66/76 70/50/76 64/44/74 
f 63/43/77 76/67/78 73/65/75 
f 73/65/75 64/44/74 63/43/77 
f 65/45/79 78/68/80 76/67/78 
f 76/67/78 63/43/77 65/45/79 
s 1
f 81/31/81 82/34/82 83/33/83 
f 83/33/83 84/32/84 81/31/81 
f 81/31/81 56/36/47 55/35/46 
f 55/35/46 82/34/82 81/31/81 
f 85/37/85 81/31/81 84/32/84 
f 84/32/84 86/38/86 85/37/85 
f 85/37/85 59/39/50 56/36/47 
f 56/36/47 81/31/81 85/37/85 
f 87/40/87 85/37/85 86/38/86 
f 86/38/86 88/41/88 87/40/87 
f 87/40/87 62/42/53 59/39/50 
f 59/39/50 85/37/85 87/40/87 
f 89/43/89 87/40/87 88/41/88 
f 88/41/88 90/44/90 89/43/89 
f 89/43/89 65/45/56 62/42/53 
f 62/42/53 87/40/87 89/43/89 
f 91/46/91 92/47/92 84/32/84 
f 84/32/84 83/33/83 91/46/91 
f 84/32/84 92/47/92 93/48/93 
f 93/48/93 86/38/86 84/32/84 
f 86/38/86 93/48/93 94/49/94 
f 94/49/94 88/41/88 86/38/86 
f 88/41/88 94/49/94 95/50/95 
f 95/50/95 90/44/90 88/41/88 
s 2
f 71/51/9 91/69/96 83/70/97 
f 71/51/9 83/70/97 82/71/98 
f 55/55/65 71/51/9 82/71/98 
s 1
f 96/56/99 97/59/100 98/58/101 
f 98/58/101 99/57/102 96/56/99 
f 99/57/102 98/58/101 100/61/103 
f 100/61/103 101/60/104 99/57/102 
f 101/60/104 100/61/103 79/63/73 
f 79/63/73 78/62/72 101/60/104 
f 97/59/100 80/64/5 98/58/101 
f 100/61/103 80/64/5 79/63/73 
f 98/58/101 80/64/5 100/61/103 
s 2
f 90/44/105 95/50/106 96/66/107 
f 96/66/107 99/65/108 90/44/105 
f 89/43/109 90/44/105 99/65/108 
f 99/65/108 101/67/110 89/43/109 
f 65/45/79 89/43/109 101/67/110 
f 101/67/110 78/68/80 65/45/79 
s 1
f 102/31/111 103/34/112 104/33/113 
f 104/33/113 105/32/114 102/31/111 
f 102/31/111 106/36/115 107/35/116 
f 107/35/116 103/34/112 102/31/111 
f 108/37/117 102/31/111 105/32/114 
f 105/32/114 109/38/118 108/37/117 
f 108/37/117 110/39/119 106/36/115 
f 106/36/115 102/31/111 108/37/117 
f 111/40/120 108/37/117 109/38/118 
f 109/38/118 112/41/121 111/40/120 
f 111/40/120 113/42/122 110/39/119 
f 110/39/119 108/37/117 111/40/120 
f 114/43/123 111/40/120 112/41/121 
f 112/41/121 115/44/124 114/43/123 
f 114/43/123 116/45/125 113/42/122 
f 113/42/122 111/40/120 114/43/123 
f 66/46/57 67/47/58 105/32/114 
f 105/32/114 104/33/113 66/46/57 
f 105/32/114 67/47/58 68/48/59 
f 68/48/59 109/38/118 105/32/114 
f 109/38/118 68/48/59 69/49/60 
f 69/49/60 112/41/121 109/38/118 
f 112/41/121 69/49/60 70/50/61 
f 70/50/61 115/44/124 112/41/121 
s 2
f 71/51/9 66/53/63 104/72/126 
f 71/51/9 104/72/126 103/73/127 
f 107/74/128 71/51/9 103/73/127 
s 1
f 72/56/66 75/59/69 117/58/129 
f 117/58/129 118/57/130 72/56/66 
f 118/57/130 117/58/129 119/61/131 
f 119/61/131 120/60/132 118/57/130 
f 120/60/132 119/61/131 121/63/133 
f 121/63/133 122/62/134 120/60/132 
f 75/59/69 80/64/5 117/58/129 
f 119/61/131 80/64/5 121/63/133 
f 117/58/129 80/64/5 119/61/131 
s 2
f 115/44/135 70/50/76 72/66/76 
f 72/66/76 118/65/136 115/44/135 
f 114/43/137 115/44/135 118/65/136 
f 118/65/136 120/67/138 114/43/137 
f 116/45/139 114/43/137 120/67/138 
f 120/67/138 122/68/139 116/45/139 
s 1
f 123/31/140 124/32/141 125/33/142 
f 125/33/142 126/34/143 123/31/140 
f 123/31/140 126/34/143 107/35/116 
f 107/35/116 106/36/115 123/31/140 
f 127/37/144 128/38/145 124/32/141 
f 124/32/141 123/31/140 127/37/144 
f 127/37/144 123/31/140 106/36/115 
f 106/36/115 110/39/119 127/37/144 
f 129/40/146 130/41/147 128/38/145 
f 128/38/145 127/37/144 129/40/146 
f 129/40/146 127/37/144 110/39/119 
f 110/39/119 113/42/122 129/40/146 
f 131/43/148 132/44/149 130/41/147 
f 130/41/147 129/40/146 131/43/148 
f 131/43/148 129/40/146 113/42/122 
f 113/42/122 116/45/125 131/43/148 
f 91/46/91 125/33/142 124/32/141 
f 124/32/141 92/47/92 91/46/91 
f 124/32/141 128/38/145 93/48/93 
f 93/48/93 92/47/92 124/32/141 
f 128/38/145 130/41/147 94/49/94 
f 94/49/94 93/48/93 128/38/145 
f 130/41/147 132/44/149 95/50/95 
f 95/50/95 94/49/94 130/41/147 
s 2
f 71/51/9 125/75/150 91/69/96 
f 71/51/9 126/76/151 125/75/150 
f 107/74/128 126/76/151 71/51/9 
s 1
f 96/56/99 133/57/152 134/58/153 
f 134/58/153 97/59/100 96/56/99 
f 133/57/152 135/60/154 136/61/155 
f 136/61/155 134/58/153 133/57/152 
f 135/60/154 122/62/134 121/63/133 
f 121/63/133 136/61/155 135/60/154 
f 97/59/100 134/58/153 80/64/5 
f 136/61/155 121/63/133 80/64/5 
f 134/58/153 136/61/155 80/64/5 
s 2
f 132/44/156 133/65/157 96/66/107 
f 96/66/107 95/50/106 132/44/156 
f 131/43/158 135/67/159 133/65/157 
f 133/65/157 132/44/156 131/43/158 
f 116/45/139 122/68/139 135/67/159 
f 135/67/159 131/43/158 116/45/139 
# 248 faces

