# 3ds Max Wavefront OBJ Exporter v0.97b - (c)2007 guruware
# File Created: 20.01.2021 17:03:03

mtllib scifi_desk.mtl

#
# object base1
#

v  100.0000 83.1920 -0.0221
v  100.0000 100.0000 -0.0221
v  14.4640 100.0000 -0.0221
v  14.4640 83.1920 -0.0221
v  6.0854 83.1920 -5.0552
v  6.0854 100.0000 -5.0552
v  -0.0000 100.0000 -14.4861
v  -0.0000 83.1920 -14.4861
v  100.0000 83.1920 -100.0221
v  14.4640 83.1920 -100.0221
v  14.4640 100.0000 -100.0221
v  100.0000 100.0000 -100.0221
v  6.0855 83.1920 -94.9890
v  0.0000 83.1920 -85.5581
v  0.0000 100.0000 -85.5581
v  6.0855 100.0000 -94.9890
v  50.0428 8.1806 -14.4830
v  50.0428 8.1806 -30.1443
v  46.8125 1.9915 -30.1443
v  46.8125 1.9915 -14.4830
v  35.8725 85.0011 -14.4830
v  35.8725 78.2551 -30.9231
v  35.8725 74.5058 -30.1443
v  35.8725 74.5058 -14.4830
v  100.0837 12.3600 -14.4830
v  100.0883 1.9915 -14.4830
v  100.0434 74.5058 -30.1443
v  100.0434 74.5058 -14.4830
v  100.0636 85.0011 -14.4830
v  54.6310 12.3600 -14.4830
v  50.8783 6.3645 -69.1211
v  47.6971 1.9915 -69.1211
v  47.6971 1.9915 -30.9231
v  50.8783 6.3645 -30.9231
v  54.6310 12.3600 -30.1443
v  35.8725 78.2551 -69.1211
v  100.0503 78.2662 -69.1296
v  100.0503 78.2662 -30.9146
v  100.0837 12.3600 -30.1443
v  56.4343 7.7240 -30.9070
v  100.0857 7.4524 -30.9146
v  35.8725 85.0011 -30.1443
v  100.0857 7.4524 -69.1295
v  56.4343 7.7240 -69.1372
v  35.8725 85.0011 -69.8998
v  50.0429 8.1806 -85.5612
v  46.8125 1.9915 -85.5612
v  46.8125 1.9915 -69.8998
v  50.0429 8.1806 -69.8998
v  35.8725 85.0011 -85.5612
v  35.8725 74.5058 -85.5612
v  35.8725 74.5058 -69.8998
v  100.0837 12.3600 -85.5612
v  100.0883 1.9915 -85.5612
v  100.0434 74.5058 -85.5612
v  100.0434 74.5058 -69.8998
v  100.0636 85.0011 -85.5612
v  54.6310 12.3600 -85.5612
v  54.6310 12.3600 -69.8998
v  100.0837 12.3600 -69.8998
# 60 vertices

vn -0.0000 0.0000 1.0000
vn -0.2672 0.0000 0.9636
vn -0.6957 0.0000 0.7184
vn -0.9592 0.0000 0.2826
vn 0.0000 1.0000 -0.0000
vn 0.0000 -1.0000 -0.0000
vn 0.0000 0.0000 -1.0000
vn -0.2672 0.0000 -0.9636
vn -0.6957 0.0000 -0.7184
vn -0.9592 0.0000 -0.2826
vn -0.7921 0.6104 -0.0000
vn -0.6645 -0.7473 -0.0000
vn -0.9003 0.4352 -0.0000
vn -1.0000 0.0000 -0.0000
vn -0.9443 -0.0669 -0.3222
vn -0.7490 -0.1347 -0.6487
vn 0.0000 0.0000 1.0000
vn -0.5569 0.8306 -0.0000
vn -0.8087 0.5883 -0.0000
vn 0.0000 -1.0000 0.0000
vn -0.3611 0.9325 -0.0000
vn 0.0002 -1.0000 0.0000
vn 0.0002 -1.0000 -0.0000
vn -0.5538 0.3832 -0.7393
vn -0.1992 0.2417 -0.9497
vn -0.2654 0.2917 -0.9190
vn -0.5956 0.4332 -0.6765
vn -0.0544 0.1411 -0.9885
vn -0.0440 0.1685 -0.9847
vn 0.0000 0.1551 -0.9879
vn 0.0001 0.1556 -0.9878
vn 0.0002 -0.2008 -0.9796
vn 0.0002 -0.2007 -0.9797
vn -0.1165 0.9932 -0.0000
vn 0.0062 1.0000 0.0000
vn -1.0000 -0.0000 -0.0000
vn -0.9443 -0.0669 0.3222
vn -0.7490 -0.1347 0.6487
vn 0.0000 -0.0000 -1.0000
vn -0.5538 0.3832 0.7393
vn -0.5956 0.4332 0.6765
vn -0.2654 0.2917 0.9190
vn -0.1992 0.2417 0.9497
vn -0.0440 0.1685 0.9847
vn -0.0544 0.1411 0.9885
vn 0.0001 0.1556 0.9878
vn -0.0000 0.1551 0.9879
vn 0.0002 -0.2008 0.9796
vn 0.0002 -0.2007 0.9797
# 49 vertex normals

vt 0.0118 0.0978 0.0000
vt 0.0118 0.0117 0.0000
vt 0.4818 0.0117 0.0000
vt 0.4818 0.0978 0.0000
vt 0.5380 0.0978 0.0000
vt 0.5380 0.0117 0.0000
vt 0.5942 0.0117 0.0000
vt 0.5942 0.0978 0.0000
vt 0.5384 0.3566 0.0000
vt 0.4840 0.3875 0.0000
vt 0.4637 0.4401 0.0000
vt 0.3521 0.3621 0.0000
vt 0.3609 0.3690 0.0000
vt 0.3647 0.3858 0.0000
vt 0.3521 0.5247 0.0000
vt 0.0978 0.5247 0.0000
vt 0.0978 0.3621 0.0000
vt 0.9847 0.0117 0.0000
vt 0.9847 0.0978 0.0000
vt 0.9932 0.4401 0.0000
vt 0.9185 0.3566 0.0000
vt 0.9729 0.3875 0.0000
vt 0.3647 0.5011 0.0000
vt 0.3535 0.5179 0.0000
vt 0.9738 0.3413 0.0000
vt 0.9738 0.2788 0.0000
vt 0.9940 0.2788 0.0000
vt 0.9940 0.3413 0.0000
vt 0.0117 0.4087 0.0000
vt 0.0590 0.3296 0.0000
vt 0.0764 0.3296 0.0000
vt 0.0764 0.4088 0.0000
vt 0.3824 0.7332 0.0000
vt 0.4088 0.4911 0.0000
vt 0.4464 0.7333 0.0000
vt 0.0918 0.3413 0.0000
vt 0.0918 0.2788 0.0000
vt 0.3215 0.2788 0.0000
vt 0.3215 0.3413 0.0000
vt 0.0764 0.7323 0.0000
vt 0.0117 0.7323 0.0000
vt 0.3824 0.4911 0.0000
vt 0.4464 0.4911 0.0000
vt 0.9738 0.1099 0.0000
vt 0.9940 0.1099 0.0000
vt 0.9940 0.2672 0.0000
vt 0.9738 0.2672 0.0000
vt 0.3655 0.9023 0.0000
vt 0.3062 0.9023 0.0000
vt 0.3062 0.9007 0.0000
vt 0.9557 0.3413 0.0000
vt 0.9557 0.2788 0.0000
vt 0.0918 0.2672 0.0000
vt 0.0918 0.1099 0.0000
vt 0.3215 0.1099 0.0000
vt 0.3215 0.2672 0.0000
vt 0.8053 0.3413 0.0000
vt 0.8053 0.2788 0.0000
vt 0.9557 0.2672 0.0000
vt 0.8053 0.2672 0.0000
vt 0.0117 0.3296 0.0000
vt 0.8053 0.1099 0.0000
vt 0.9557 0.1099 0.0000
vt 0.0590 0.1406 0.0000
vt 0.0117 0.1406 0.0000
vt 0.0968 0.9023 0.0000
vt 0.1561 0.9007 0.0000
vt 0.1561 0.9023 0.0000
vt 0.0968 0.8762 0.0000
vt 0.3655 0.8762 0.0000
vt 0.4637 0.9919 0.0000
vt 0.9932 0.9919 0.0000
# 72 texture coords

g base1
usemtl Material__285
s 1
f 1/1/1 2/2/1 3/3/2 
f 3/3/2 4/4/2 1/1/1 
f 5/5/3 6/6/3 7/7/4 
f 7/7/4 8/8/4 5/5/3 
f 4/4/2 3/3/2 6/6/3 
f 6/6/3 5/5/3 4/4/2 
s 2
f 7/9/5 6/10/5 3/11/5 
f 4/12/6 5/13/6 8/14/6 
s 1
f 9/1/7 10/4/8 11/3/8 
f 11/3/8 12/2/7 9/1/7 
f 13/5/9 14/8/10 15/7/10 
f 15/7/10 16/6/9 13/5/9 
s 2
f 4/12/6 10/15/6 9/16/6 
f 9/16/6 1/17/6 4/12/6 
s 1
f 7/7/4 15/18/10 14/19/10 
f 14/19/10 8/8/4 7/7/4 
s 2
f 3/11/5 11/20/5 15/21/5 
f 15/21/5 7/9/5 3/11/5 
s 1
f 10/4/8 13/5/9 16/6/9 
f 16/6/9 11/3/8 10/4/8 
s 2
f 15/21/5 11/20/5 16/22/5 
f 10/15/6 14/23/6 13/24/6 
s 1
f 17/25/11 18/26/11 19/27/12 
f 19/27/12 20/28/13 17/25/11 
f 21/29/14 22/30/15 23/31/16 
f 23/31/16 24/32/14 21/29/14 
s 8
f 25/33/17 17/34/17 26/35/17 
s 2
f 24/36/6 23/37/6 27/38/6 
f 27/38/6 28/39/6 24/36/6 
s 8
f 21/29/1 24/32/1 28/40/1 
f 28/40/1 29/41/1 21/29/1 
f 25/33/17 30/42/17 17/34/17 
f 17/34/17 20/43/17 26/35/17 
s 2
f 31/44/18 32/45/19 33/46/19 
f 33/46/19 34/47/18 31/44/18 
s 1
f 20/48/13 19/49/12 33/50/20 
f 17/25/11 30/51/21 35/52/21 
f 35/52/21 18/26/11 17/25/11 
s 2
f 22/53/22 36/54/23 37/55/22 
f 37/55/22 38/56/22 22/53/22 
s 1
f 30/51/21 25/57/5 39/58/5 
f 39/58/5 35/52/21 30/51/21 
s 8
f 19/27/24 18/26/25 34/47/26 
f 34/47/26 33/46/27 19/27/24 
f 18/26/25 35/52/28 40/59/29 
f 40/59/29 34/47/26 18/26/25 
f 35/52/28 39/58/30 41/60/31 
f 41/60/31 40/59/29 35/52/28 
s 1
f 27/38/32 23/37/16 22/53/15 
f 22/53/15 38/56/33 27/38/32 
f 21/29/14 42/61/14 22/30/15 
s 2
f 40/59/34 41/60/35 43/62/35 
f 43/62/35 44/63/34 40/59/34 
s 1
f 22/64/15 42/65/14 45/61/36 
f 45/61/36 36/30/37 22/64/15 
f 46/25/11 47/28/13 48/27/12 
f 48/27/12 49/26/11 46/25/11 
f 50/29/36 51/32/14 52/31/38 
f 52/31/38 36/30/37 50/29/36 
s 8
f 53/33/39 54/35/39 46/34/39 
s 2
f 51/36/6 55/39/6 56/38/6 
f 56/38/6 52/37/6 51/36/6 
s 8
f 50/29/39 57/41/39 55/40/39 
f 55/40/39 51/32/7 50/29/39 
f 53/33/39 46/34/39 58/42/39 
f 46/34/39 54/35/39 47/43/39 
s 1
f 47/66/13 32/67/6 48/68/12 
f 46/25/11 49/26/11 59/52/21 
f 59/52/21 58/51/21 46/25/11 
f 58/51/21 59/52/21 60/58/5 
f 60/58/5 53/57/5 58/51/21 
s 8
f 48/27/40 32/46/41 31/47/42 
f 31/47/42 49/26/43 48/27/40 
f 49/26/43 31/47/42 44/59/44 
f 44/59/44 59/52/45 49/26/43 
f 59/52/45 44/59/44 43/60/46 
f 43/60/46 60/58/47 59/52/45 
s 1
f 56/38/48 37/56/49 36/53/37 
f 36/53/37 52/37/38 56/38/48 
s 4
f 32/67/6 54/69/6 26/70/20 
f 26/70/20 33/50/20 32/67/6 
s 1
f 50/29/36 36/30/37 45/61/36 
s 2
f 40/59/34 44/63/34 31/44/18 
f 31/44/18 34/47/18 40/59/34 
s 4
f 26/70/20 20/48/20 33/50/20 
f 32/67/6 47/66/6 54/69/6 
s 2
f 2/71/5 12/72/5 11/20/5 
f 11/20/5 3/11/5 2/71/5 
f 8/14/6 14/23/6 10/15/6 
f 10/15/6 4/12/6 8/14/6 
# 90 faces

#
# object base2
#

v  -0.0221 83.1920 -0.0221
v  85.5139 83.1920 -0.0221
v  85.5139 100.0000 -0.0221
v  -0.0221 100.0000 -0.0221
v  93.8925 83.1920 -5.0552
v  99.9779 83.1920 -14.4860
v  99.9779 100.0000 -14.4860
v  93.8925 100.0000 -5.0552
v  -0.0221 83.1920 -100.0221
v  -0.0221 100.0000 -100.0221
v  85.5139 100.0000 -100.0221
v  85.5139 83.1920 -100.0221
v  93.8925 83.1920 -94.9890
v  93.8925 100.0000 -94.9890
v  99.9779 100.0000 -85.5581
v  99.9779 83.1920 -85.5581
v  40.2298 16.1604 -14.4830
v  50.3558 5.7955 -14.4830
v  50.3558 79.7817 -14.4830
v  40.2298 69.2865 -14.4830
v  40.2299 69.2865 -30.1443
v  40.2299 16.1604 -30.1443
v  36.4295 12.3600 -30.1443
v  36.4295 12.3600 -14.4830
v  0.0616 12.3600 -14.4830
v  0.0662 1.9915 -14.4830
v  46.5555 1.9915 -14.4830
v  0.0213 74.5058 -14.4830
v  0.0213 74.5058 -30.1443
v  35.0105 74.5058 -30.1443
v  35.0105 74.5058 -14.4830
v  0.0415 85.0011 -14.4830
v  45.1365 85.0011 -14.4830
v  0.0282 78.2662 -69.1296
v  37.2157 78.2652 -69.1217
v  37.2156 78.2652 -30.9225
v  0.0282 78.2662 -30.9146
v  0.0616 12.3600 -30.1443
v  38.6344 7.5542 -30.9225
v  0.0636 7.4524 -30.9146
v  45.5347 13.9632 -30.9226
v  45.5346 71.4838 -30.9226
v  38.6344 7.5542 -69.1217
v  0.0637 7.4524 -69.1295
v  50.3559 79.7817 -85.5612
v  45.1365 85.0011 -85.5612
v  40.2299 16.1604 -85.5612
v  40.2299 69.2865 -85.5612
v  50.3559 5.7955 -85.5612
v  40.2299 16.1604 -69.8998
v  40.2299 69.2865 -69.8998
v  46.5555 1.9915 -85.5612
v  36.4295 12.3600 -85.5612
v  36.4295 12.3600 -69.8998
v  0.0663 1.9915 -85.5612
v  0.0616 12.3600 -85.5612
v  0.0213 74.5058 -85.5612
v  35.0105 74.5058 -85.5612
v  35.0105 74.5058 -69.8998
v  0.0213 74.5058 -69.8998
v  0.0415 85.0011 -85.5612
v  45.5347 13.9632 -69.1216
v  45.5346 71.4838 -69.1216
v  0.0616 12.3600 -69.8998
# 64 vertices

vn -0.0000 0.0000 1.0000
vn 0.2672 0.0000 0.9636
vn 0.6957 0.0000 0.7184
vn 0.9592 0.0000 0.2826
vn 0.0000 1.0000 -0.0000
vn 0.0000 -1.0000 -0.0000
vn 0.0000 0.0000 -1.0000
vn 0.2672 0.0000 -0.9636
vn 0.6957 0.0000 -0.7184
vn 0.9592 0.0000 -0.2826
vn 0.0000 0.0000 1.0000
vn -0.0000 -0.0000 1.0000
vn -0.9239 -0.3827 -0.0000
vn -0.9239 0.3827 -0.0000
vn -0.3827 0.9239 -0.0000
vn -0.3827 -0.9239 -0.0000
vn -0.0000 -1.0000 -0.0000
vn -0.3353 -0.9421 -0.0000
vn -0.0006 0.1554 -0.9878
vn -0.0510 0.1352 -0.9895
vn -0.0546 0.1349 -0.9894
vn -0.0006 0.1551 -0.9879
vn -0.1241 0.0514 -0.9909
vn -0.1248 0.0530 -0.9908
vn -0.1247 -0.0603 -0.9904
vn -0.1220 -0.0565 -0.9909
vn -0.0600 -0.1684 -0.9839
vn -0.0666 -0.1579 -0.9852
vn 0.0000 -0.2007 -0.9797
vn -0.0000 -0.2008 -0.9796
vn -0.0026 1.0000 -0.0000
vn -0.3668 0.9303 -0.0000
vn 0.9239 0.3827 0.0000
vn 0.7071 0.7071 0.0000
vn 0.0000 -0.0000 -1.0000
vn 0.9240 -0.3825 0.0000
vn 0.3829 -0.9238 0.0000
vn -0.9167 0.3997 -0.0000
vn -0.9033 -0.4290 -0.0000
vn -0.0006 0.1554 0.9878
vn -0.0006 0.1551 0.9879
vn -0.0546 0.1349 0.9894
vn -0.0510 0.1352 0.9895
vn -0.1248 0.0530 0.9908
vn -0.1241 0.0514 0.9909
vn -0.1220 -0.0565 0.9909
vn -0.1247 -0.0603 0.9904
vn -0.0666 -0.1579 0.9852
vn -0.0600 -0.1684 0.9839
vn -0.0000 -0.2008 0.9796
vn -0.0000 -0.2007 0.9797
# 51 vertex normals

vt 0.0118 0.0978 0.0000
vt 0.4818 0.0978 0.0000
vt 0.4818 0.0117 0.0000
vt 0.0118 0.0117 0.0000
vt 0.5380 0.0978 0.0000
vt 0.5942 0.0978 0.0000
vt 0.5942 0.0117 0.0000
vt 0.5380 0.0117 0.0000
vt 0.5384 0.3566 0.0000
vt 0.4637 0.4401 0.0000
vt 0.4840 0.3875 0.0000
vt 0.3521 0.3621 0.0000
vt 0.3647 0.3858 0.0000
vt 0.3609 0.3690 0.0000
vt 0.3521 0.5247 0.0000
vt 0.0978 0.3621 0.0000
vt 0.0978 0.5247 0.0000
vt 0.9847 0.0978 0.0000
vt 0.9847 0.0117 0.0000
vt 0.9932 0.4401 0.0000
vt 0.9185 0.3566 0.0000
vt 0.9729 0.3875 0.0000
vt 0.3535 0.5179 0.0000
vt 0.3647 0.5011 0.0000
vt 0.3583 0.9353 0.0000
vt 0.4222 0.9863 0.0000
vt 0.0429 0.9863 0.0000
vt 0.1078 0.9353 0.0000
vt 0.4758 0.3413 0.0000
vt 0.4758 0.2788 0.0000
vt 0.6591 0.2788 0.0000
vt 0.6591 0.3413 0.0000
vt 0.6816 0.2788 0.0000
vt 0.6816 0.3413 0.0000
vt 0.3824 0.9165 0.0000
vt 0.3824 0.7332 0.0000
vt 0.4464 0.7333 0.0000
vt 0.4464 0.9676 0.0000
vt 0.3215 0.3413 0.0000
vt 0.3215 0.2788 0.0000
vt 0.4487 0.2788 0.0000
vt 0.4487 0.3413 0.0000
vt 0.0117 0.7323 0.0000
vt 0.0764 0.7323 0.0000
vt 0.0764 0.9086 0.0000
vt 0.0117 0.9595 0.0000
vt 0.3215 0.1099 0.0000
vt 0.4487 0.1099 0.0000
vt 0.4487 0.2672 0.0000
vt 0.3215 0.2672 0.0000
vt 0.8053 0.3413 0.0000
vt 0.8053 0.2788 0.0000
vt 0.6816 0.2672 0.0000
vt 0.8053 0.2672 0.0000
vt 0.6591 0.2672 0.0000
vt 0.4758 0.2672 0.0000
vt 0.6816 0.1099 0.0000
vt 0.8053 0.1099 0.0000
vt 0.3655 0.5799 0.0000
vt 0.0968 0.5799 0.0000
vt 0.0968 0.5533 0.0000
vt 0.3655 0.5533 0.0000
vt 0.0968 0.8472 0.0000
vt 0.3655 0.8472 0.0000
vt 0.3655 0.8535 0.0000
vt 0.0968 0.8535 0.0000
vt 0.6591 0.1099 0.0000
vt 0.4758 0.1099 0.0000
vt 0.3655 0.8762 0.0000
vt 0.0968 0.8762 0.0000
vt 0.9932 0.9919 0.0000
vt 0.4637 0.9919 0.0000
# 72 texture coords

g base2
usemtl Material__285
s 1
f 61/73/50 62/74/51 63/75/51 
f 63/75/51 64/76/50 61/73/50 
f 65/77/52 66/78/53 67/79/53 
f 67/79/53 68/80/52 65/77/52 
f 62/74/51 65/77/52 68/80/52 
f 68/80/52 63/75/51 62/74/51 
s 2
f 67/81/54 63/82/54 68/83/54 
f 62/84/55 66/85/55 65/86/55 
s 1
f 69/73/56 70/76/56 71/75/57 
f 71/75/57 72/74/57 69/73/56 
f 73/77/58 74/80/58 75/79/59 
f 75/79/59 76/78/59 73/77/58 
s 2
f 72/87/55 62/84/55 61/88/55 
f 61/88/55 69/89/55 72/87/55 
s 1
f 76/90/59 75/91/59 67/79/53 
f 67/79/53 66/78/53 76/90/59 
s 2
f 71/92/54 63/82/54 67/81/54 
f 67/81/54 75/93/54 71/92/54 
s 1
f 72/74/57 71/75/57 74/80/58 
f 74/80/58 73/77/58 72/74/57 
s 2
f 75/93/54 74/94/54 71/92/54 
f 72/87/55 73/95/55 76/96/55 
s 8
f 77/97/60 78/98/60 79/99/61 
f 79/99/61 80/100/50 77/97/60 
s 1
f 80/101/62 81/102/62 82/103/63 
f 82/103/63 77/104/63 80/101/62 
f 82/103/63 83/105/64 84/106/64 
f 84/106/64 77/104/63 82/103/63 
s 8
f 84/107/61 85/108/61 86/109/61 
f 86/109/61 87/110/61 84/107/61 
f 78/98/60 77/97/60 84/107/61 
f 84/107/61 87/110/61 78/98/60 
s 1
f 88/111/55 89/112/55 90/113/65 
f 90/113/65 91/114/65 88/111/55 
s 8
f 92/115/61 88/116/60 91/117/61 
f 91/117/61 93/118/61 92/115/61 
f 91/117/61 80/100/50 79/99/61 
f 79/99/61 93/118/61 91/117/61 
s 1
f 90/113/65 81/102/62 80/101/62 
f 80/101/62 91/114/65 90/113/65 
s 4
f 94/119/66 95/120/67 96/121/67 
f 96/121/67 97/122/66 94/119/66 
s 1
f 85/123/54 84/106/64 83/105/64 
f 83/105/64 98/124/54 85/123/54 
s 8
f 98/124/68 83/105/69 99/125/70 
f 99/125/70 100/126/71 98/124/68 
f 83/105/69 82/103/72 101/127/73 
f 101/127/73 99/125/70 83/105/69 
f 82/103/72 81/102/74 102/128/75 
f 102/128/75 101/127/73 82/103/72 
f 81/102/74 90/113/76 96/121/77 
f 96/121/77 102/128/75 81/102/74 
f 90/113/76 89/112/78 97/122/79 
f 97/122/79 96/121/77 90/113/76 
s 4
f 100/126/80 99/125/81 103/129/81 
f 103/129/81 104/130/80 100/126/80 
s 2
f 79/131/82 105/132/82 106/133/83 
f 106/133/83 93/134/83 79/131/82 
s 8
f 107/97/56 108/100/84 105/99/56 
f 105/99/56 109/98/56 107/97/56 
s 1
f 108/101/62 107/104/63 110/103/63 
f 110/103/63 111/102/62 108/101/62 
s 2
f 109/135/85 78/136/85 87/137/86 
f 87/137/86 112/138/86 109/135/85 
s 1
f 110/103/63 107/104/63 113/106/64 
f 113/106/64 114/105/64 110/103/63 
s 8
f 113/107/56 112/110/56 115/109/56 
f 115/109/56 116/108/56 113/107/56 
f 109/98/56 112/110/56 113/107/56 
f 113/107/56 107/97/56 109/98/56 
s 1
f 117/111/55 118/114/65 119/113/65 
f 119/113/65 120/112/55 117/111/55 
s 8
f 121/115/56 106/118/56 118/117/56 
f 118/117/56 117/116/84 121/115/56 
f 118/117/56 106/118/56 105/99/56 
f 105/99/56 108/100/84 118/117/56 
s 1
f 119/113/65 118/114/65 108/101/62 
f 108/101/62 111/102/62 119/113/65 
s 4
f 122/139/87 101/127/87 102/128/88 
f 102/128/88 123/140/88 122/139/87 
f 103/129/81 99/125/81 101/127/87 
f 101/127/87 122/139/87 103/129/81 
f 95/120/67 123/140/88 102/128/88 
f 102/128/88 96/121/67 95/120/67 
s 1
f 116/123/54 124/124/54 114/105/64 
f 114/105/64 113/106/64 116/123/54 
s 8
f 124/124/89 104/126/90 103/125/91 
f 103/125/91 114/105/92 124/124/89 
f 114/105/92 103/125/91 122/127/93 
f 122/127/93 110/103/94 114/105/92 
f 110/103/94 122/127/93 123/128/95 
f 123/128/95 111/102/96 110/103/94 
f 111/102/96 123/128/95 95/121/97 
f 95/121/97 119/113/98 111/102/96 
f 119/113/98 95/121/97 94/122/99 
f 94/122/99 120/112/100 119/113/98 
s 2
f 78/136/85 109/135/85 105/132/82 
f 105/132/82 79/131/82 78/136/85 
f 87/137/86 86/141/55 115/142/55 
f 115/142/55 112/138/86 87/137/86 
f 70/143/54 64/144/54 63/82/54 
f 63/82/54 71/92/54 70/143/54 
f 76/96/55 66/85/55 62/84/55 
f 62/84/55 72/87/55 76/96/55 
# 104 faces

