# 3ds Max Wavefront OBJ Exporter v0.97b - (c)2007 guruware
# File Created: 21.01.2021 15:49:58

mtllib scifi_half_cabinet.mtl

#
# object base0
#

v  100.0000 -0.0000 -0.0000
v  100.0000 -0.0000 -100.0000
v  100.0000 50.0001 -100.0000
v  100.0000 50.0001 -0.0000
v  0.0000 -0.0000 -100.0000
v  0.0001 50.0001 -100.0000
v  0.0000 -0.0000 -0.0000
v  0.0001 50.0001 -0.0000
v  4.2450 42.2265 -0.0000
v  95.7551 42.2265 -0.0000
v  95.7551 5.4832 -0.0000
v  24.3183 28.5368 -0.0000
v  4.2449 28.5368 -0.0000
v  56.5752 5.4832 -0.0000
v  4.2450 42.2265 -0.8171
v  95.7551 42.2265 -0.8171
v  4.2449 28.5368 -0.8171
v  24.3183 28.5368 -0.8171
v  56.5752 5.4832 -0.8171
v  95.7551 5.4832 -0.8171
v  95.7551 42.2265 -94.6677
v  95.7551 5.4832 -94.6677
v  4.2449 5.4832 -94.6677
v  4.2450 42.2265 -94.6677
v  4.2449 5.4832 -0.8171
v  3.7936 42.6427 -0.8171
v  3.7936 28.0552 -0.8171
v  24.0797 28.0552 -0.8171
v  96.2740 42.6427 -0.8171
v  56.6787 4.9898 -0.8171
v  96.2740 4.9898 -0.8171
# 31 vertices

vn 0.5774 -0.5774 0.5774
vn 0.5774 -0.5774 -0.5774
vn 0.5774 0.5774 -0.5774
vn 0.5774 0.5774 0.5774
vn -0.5774 -0.5773 -0.5774
vn -0.5773 0.5774 -0.5774
vn -0.5774 -0.5773 0.5774
vn -0.5773 0.5774 0.5774
vn -0.0000 0.0000 1.0000
vn 0.0000 0.0000 1.0000
vn 0.0000 -1.0000 -0.0000
vn 1.0000 -0.0000 -0.0000
vn 1.0000 -0.0000 0.0000
vn 0.0000 1.0000 -0.0000
vn 0.5815 0.8136 -0.0000
vn -1.0000 0.0000 -0.0000
vn -1.0000 -0.0000 -0.0000
vn -0.7071 0.7071 -0.0000
vn -0.7071 -0.7071 -0.0000
vn -0.5774 -0.5774 0.5774
vn -0.5774 0.5774 0.5774
vn 0.5774 0.5773 0.5774
vn 0.5773 -0.5774 0.5774
vn 0.7071 0.7071 0.0000
vn 0.7071 -0.7071 0.0000
# 25 vertex normals

vt 0.9982 0.4013 0.0000
vt 0.6666 0.4013 0.0000
vt 0.6666 0.0031 0.0000
vt 0.9982 0.0031 0.0000
vt 0.3350 0.4013 0.0000
vt 0.3350 0.0031 0.0000
vt 0.9968 0.8417 0.0000
vt 0.7658 0.8417 0.0000
vt 0.7658 0.9945 0.0000
vt 0.9968 0.9945 0.0000
vt 0.0034 0.4013 0.0000
vt 0.0034 0.0031 0.0000
vt 0.9959 0.4147 0.0000
vt 0.9959 0.8284 0.0000
vt 0.6034 0.8284 0.0000
vt 0.6034 0.4147 0.0000
vt 0.0310 0.5056 0.0000
vt 0.5620 0.5056 0.0000
vt 0.5867 0.4154 0.0000
vt 0.0064 0.4154 0.0000
vt 0.5620 0.9323 0.0000
vt 0.5867 0.9960 0.0000
vt 0.1475 0.6646 0.0000
vt 0.0310 0.6646 0.0000
vt 0.0064 0.9960 0.0000
vt 0.3347 0.9323 0.0000
vt 0.0433 0.5163 0.0000
vt 0.5510 0.5163 0.0000
vt 0.0433 0.6540 0.0000
vt 0.1526 0.6540 0.0000
vt 0.3398 0.9217 0.0000
vt 0.5510 0.9217 0.0000
vt 0.6042 0.9208 0.0000
vt 0.6042 0.8419 0.0000
vt 0.6788 0.8419 0.0000
vt 0.6788 0.9208 0.0000
vt 0.7512 0.9208 0.0000
vt 0.7512 0.8419 0.0000
vt 0.7489 0.9288 0.0000
vt 0.7489 0.9952 0.0000
vt 0.6810 0.9952 0.0000
vt 0.6810 0.9288 0.0000
vt 0.6710 0.9290 0.0000
vt 0.6057 0.9290 0.0000
vt 0.6057 0.9951 0.0000
vt 0.6710 0.9951 0.0000
vt 0.1604 0.5291 0.0000
vt 0.1604 0.6469 0.0000
vt 0.2425 0.6469 0.0000
vt 0.5351 0.5292 0.0000
vt 0.3748 0.8346 0.0000
vt 0.5354 0.8346 0.0000
# 52 texture coords

g base0
usemtl Material__6
s 1
f 1/1/1 2/2/2 3/3/3 
f 3/3/3 4/4/4 1/1/1 
f 5/5/5 6/6/6 3/3/3 
f 3/3/3 2/2/2 5/5/5 
f 7/7/7 5/8/5 2/9/2 
f 2/9/2 1/10/1 7/7/7 
f 6/6/6 5/5/5 7/11/7 
f 7/11/7 8/12/8 6/6/6 
f 3/13/3 6/14/6 8/15/8 
f 8/15/8 4/16/4 3/13/3 
f 9/17/9 10/18/10 4/19/4 
f 4/19/4 8/20/8 9/17/9 
f 11/21/9 1/22/1 4/19/4 
f 4/19/4 10/18/10 11/21/9 
f 12/23/10 13/24/9 7/25/7 
f 7/25/7 14/26/10 12/23/10 
f 9/17/9 8/20/8 7/25/7 
f 7/25/7 13/24/9 9/17/9 
f 7/25/7 1/22/1 11/21/9 
f 11/21/9 14/26/10 7/25/7 
s off
f 10/18/11 9/17/11 15/27/11 
f 15/27/11 16/28/11 10/18/11 
f 9/17/12 13/24/12 17/29/12 
f 17/29/13 15/27/13 9/17/13 
f 13/24/14 12/23/14 18/30/14 
f 18/30/14 17/29/14 13/24/14 
f 12/23/15 14/26/15 19/31/15 
f 19/31/15 18/30/15 12/23/15 
f 14/26/14 11/21/14 20/32/14 
f 20/32/14 19/31/14 14/26/14 
f 11/21/16 10/18/16 16/28/16 
f 16/28/17 20/32/17 11/21/17 
s 1
f 20/33/18 16/34/19 21/35/20 
f 21/35/20 22/36/21 20/33/18 
f 23/36/22 22/37/21 21/38/20 
f 21/38/20 24/35/23 23/36/22 
f 25/39/24 20/40/18 22/41/21 
f 22/41/21 23/42/22 25/39/24 
f 24/35/23 15/34/25 25/33/24 
f 25/33/24 23/36/22 24/35/23 
f 21/43/20 16/44/19 15/45/25 
f 15/45/25 24/46/23 21/43/20 
f 26/47/10 27/48/10 28/49/10 
f 28/49/10 29/50/10 26/47/10 
f 30/51/10 31/52/10 29/50/10 
f 29/50/10 28/49/10 30/51/10 
# 46 faces

#
# object base3
#

v  0.0000 -0.0000 -100.0000
v  0.0001 50.0001 -100.0000
v  100.0000 50.0001 -100.0000
v  100.0000 -0.0000 -100.0000
v  0.0000 -0.0000 -0.0000
v  100.0000 -0.0000 -0.0000
v  0.0001 50.0001 -0.0000
v  100.0000 50.0001 -0.0000
v  4.2450 42.2265 -0.0000
v  95.7551 42.2265 -0.0000
v  95.7551 5.4832 -0.0000
v  24.3183 28.5368 -0.0000
v  4.2449 28.5368 -0.0000
v  56.5752 5.4832 -0.0000
v  4.2450 42.2265 -0.8170
v  95.7551 42.2265 -0.8170
v  4.2449 28.5368 -0.8170
v  24.3183 28.5368 -0.8170
v  56.5752 5.4832 -0.8170
v  95.7551 5.4832 -0.8170
v  95.7551 42.2265 -94.6677
v  95.7551 5.4832 -94.6677
v  4.2449 5.4832 -94.6677
v  4.2450 42.2265 -94.6677
v  4.2449 5.4832 -0.8171
v  3.7936 42.6427 -0.8170
v  3.7936 28.0552 -0.8170
v  24.0797 28.0552 -0.8170
v  96.2740 42.6427 -0.8170
v  56.6787 4.9898 -0.8170
v  96.2740 4.9898 -0.8170
# 31 vertices

vn 0.0000 -0.7071 -0.7071
vn 0.0000 0.7071 -0.7071
vn -0.0000 -0.7071 0.7071
vn -0.0000 0.7071 0.7071
vn 0.0000 0.7071 0.7071
vn -0.0000 0.0000 1.0000
vn 0.0000 0.0000 1.0000
vn 0.0000 -1.0000 -0.0000
vn 1.0000 -0.0000 -0.0000
vn 1.0000 -0.0000 0.0000
vn 0.0000 1.0000 -0.0000
vn 0.5815 0.8136 -0.0000
vn -1.0000 0.0000 -0.0000
vn -1.0000 -0.0000 -0.0000
vn -0.7071 0.7071 -0.0000
vn -0.7071 -0.7071 -0.0000
vn -0.5774 -0.5774 0.5774
vn -0.5774 0.5774 0.5774
vn 0.5774 0.5773 0.5774
vn 0.5773 -0.5774 0.5774
vn 0.7071 0.7071 0.0000
vn 0.7071 -0.7071 0.0000
# 22 vertex normals

vt 0.3350 0.4013 0.0000
vt 0.3350 0.0031 0.0000
vt 0.6666 0.0031 0.0000
vt 0.6666 0.4013 0.0000
vt 0.9968 0.8417 0.0000
vt 0.7658 0.8417 0.0000
vt 0.7658 0.9945 0.0000
vt 0.9968 0.9945 0.0000
vt 0.9959 0.5158 0.0000
vt 0.9959 0.7106 0.0000
vt 0.6034 0.7106 0.0000
vt 0.6034 0.5158 0.0000
vt 0.0310 0.5056 0.0000
vt 0.5620 0.5056 0.0000
vt 0.5867 0.4154 0.0000
vt 0.0064 0.4154 0.0000
vt 0.5620 0.9323 0.0000
vt 0.5867 0.9960 0.0000
vt 0.1475 0.6646 0.0000
vt 0.0310 0.6646 0.0000
vt 0.0064 0.9960 0.0000
vt 0.3347 0.9323 0.0000
vt 0.0433 0.5163 0.0000
vt 0.5510 0.5163 0.0000
vt 0.0433 0.6540 0.0000
vt 0.1526 0.6540 0.0000
vt 0.3398 0.9217 0.0000
vt 0.5510 0.9217 0.0000
vt 0.6042 0.9208 0.0000
vt 0.6042 0.8419 0.0000
vt 0.6788 0.8419 0.0000
vt 0.6788 0.9208 0.0000
vt 0.7512 0.9208 0.0000
vt 0.7512 0.8419 0.0000
vt 0.7489 0.9288 0.0000
vt 0.7489 0.9952 0.0000
vt 0.6810 0.9952 0.0000
vt 0.6810 0.9288 0.0000
vt 0.6710 0.9290 0.0000
vt 0.6057 0.9290 0.0000
vt 0.6057 0.9951 0.0000
vt 0.6710 0.9951 0.0000
vt 0.1604 0.5291 0.0000
vt 0.1604 0.6469 0.0000
vt 0.2425 0.6469 0.0000
vt 0.5351 0.5292 0.0000
vt 0.3748 0.8346 0.0000
vt 0.5354 0.8346 0.0000
# 48 texture coords

g base3
usemtl Material__6
s 1
f 32/53/26 33/54/27 34/55/27 
f 34/55/27 35/56/26 32/53/26 
f 36/57/28 32/58/26 35/59/26 
f 35/59/26 37/60/28 36/57/28 
f 34/61/27 33/62/27 38/63/29 
f 38/63/29 39/64/30 34/61/27 
f 40/65/31 41/66/32 39/67/30 
f 39/67/30 38/68/29 40/65/31 
f 42/69/31 37/70/28 39/67/30 
f 39/67/30 41/66/32 42/69/31 
f 43/71/32 44/72/31 36/73/28 
f 36/73/28 45/74/32 43/71/32 
f 40/65/31 38/68/29 36/73/28 
f 36/73/28 44/72/31 40/65/31 
f 36/73/28 37/70/28 42/69/31 
f 42/69/31 45/74/32 36/73/28 
s off
f 41/66/33 40/65/33 46/75/33 
f 46/75/33 47/76/33 41/66/33 
f 40/65/34 44/72/34 48/77/34 
f 48/77/35 46/75/35 40/65/35 
f 44/72/36 43/71/36 49/78/36 
f 49/78/36 48/77/36 44/72/36 
f 43/71/37 45/74/37 50/79/37 
f 50/79/37 49/78/37 43/71/37 
f 45/74/36 42/69/36 51/80/36 
f 51/80/36 50/79/36 45/74/36 
f 42/69/38 41/66/38 47/76/38 
f 47/76/39 51/80/39 42/69/39 
s 1
f 51/81/40 47/82/41 52/83/42 
f 52/83/42 53/84/43 51/81/40 
f 54/84/44 53/85/43 52/86/42 
f 52/86/42 55/83/45 54/84/44 
f 56/87/46 51/88/40 53/89/43 
f 53/89/43 54/90/44 56/87/46 
f 55/83/45 46/82/47 56/81/46 
f 56/81/46 54/84/44 55/83/45 
f 52/91/42 47/92/41 46/93/47 
f 46/93/47 55/94/45 52/91/42 
f 57/95/32 58/96/32 59/97/32 
f 59/97/32 60/98/32 57/95/32 
f 61/99/32 62/100/32 60/98/32 
f 60/98/32 59/97/32 61/99/32 
# 42 faces

#
# object base2
#

v  0.0000 -0.0000 -0.0000
v  0.0000 50.0001 -0.0000
v  0.0000 50.0001 -100.0000
v  0.0000 -0.0000 -100.0000
v  50.0000 50.0001 -100.0000
v  100.0000 -0.0000 -0.0000
v  100.0000 -0.0000 -100.0000
v  50.0000 50.0001 -0.0000
v  99.9999 50.0001 -0.0000
v  95.7550 42.2265 -0.0000
v  4.2449 5.4832 -0.0000
v  4.2449 42.2265 -0.0000
v  75.6817 28.5368 -0.0000
v  43.4248 5.4832 -0.0000
v  95.7551 28.5368 -0.0000
v  4.2449 42.2265 -0.8171
v  95.7550 42.2265 -0.8171
v  95.7551 28.5368 -0.8170
v  75.6817 28.5368 -0.8170
v  43.4248 5.4832 -0.8170
v  4.2449 5.4832 -0.8170
v  4.2449 5.4832 -94.6677
v  4.2449 42.2265 -94.6677
v  95.7551 5.4832 -94.6677
v  95.7550 42.2265 -94.6677
v  95.7551 5.4832 -0.8171
v  96.2064 42.6427 -0.8170
v  3.7260 42.6427 -0.8170
v  75.9203 28.0552 -0.8170
v  96.2064 28.0552 -0.8170
v  43.3213 4.9898 -0.8170
v  3.7260 4.9898 -0.8170
v  99.9999 50.0001 -100.0000
# 33 vertices

vn -0.5774 -0.5774 0.5774
vn -0.5774 0.5774 0.5774
vn -0.5774 0.5774 -0.5774
vn -0.5774 -0.5774 -0.5774
vn 0.0000 0.7071 -0.7071
vn 0.0000 -0.7071 0.7071
vn 0.0000 -0.7071 -0.7071
vn 0.0000 0.7071 0.7071
vn 0.0000 0.0000 1.0000
vn -0.0000 0.0000 1.0000
vn 0.0000 -1.0000 -0.0000
vn -1.0000 -0.0000 0.0000
vn -1.0000 -0.0000 -0.0000
vn 0.0000 1.0000 -0.0000
vn -0.5815 0.8136 -0.0000
vn 1.0000 -0.0000 -0.0000
vn 1.0000 0.0000 -0.0000
vn 0.7071 0.7071 -0.0000
vn 0.5774 0.5774 0.5774
vn 0.5774 -0.5774 0.5774
vn 0.7071 -0.7071 -0.0000
vn -0.5774 0.5773 0.5774
vn -0.5773 -0.5774 0.5774
vn -0.7071 0.7071 -0.0000
vn -0.7071 -0.7071 0.0000
# 25 vertex normals

vt 0.9982 0.4013 0.0000
vt 0.9982 0.0031 0.0000
vt 0.6666 0.0031 0.0000
vt 0.6666 0.4013 0.0000
vt 0.5008 0.0031 0.0000
vt 0.9968 0.8417 0.0000
vt 0.9968 0.9945 0.0000
vt 0.7658 0.9945 0.0000
vt 0.7658 0.8417 0.0000
vt 0.9959 0.6216 0.0000
vt 0.9959 0.4147 0.0000
vt 0.6034 0.4147 0.0000
vt 0.6034 0.6216 0.0000
vt 0.0064 0.4154 0.0000
vt 0.2965 0.4154 0.0000
vt 0.0310 0.5056 0.0000
vt 0.5620 0.9323 0.0000
vt 0.5620 0.5056 0.0000
vt 0.5867 0.4154 0.0000
vt 0.5867 0.9960 0.0000
vt 0.1475 0.6646 0.0000
vt 0.3347 0.9323 0.0000
vt 0.0064 0.9960 0.0000
vt 0.0310 0.6646 0.0000
vt 0.5510 0.5163 0.0000
vt 0.0433 0.5163 0.0000
vt 0.0433 0.6540 0.0000
vt 0.1526 0.6540 0.0000
vt 0.3398 0.9217 0.0000
vt 0.5510 0.9217 0.0000
vt 0.6042 0.9208 0.0000
vt 0.6788 0.9208 0.0000
vt 0.6788 0.8419 0.0000
vt 0.6042 0.8419 0.0000
vt 0.7512 0.8419 0.0000
vt 0.7512 0.9208 0.0000
vt 0.7489 0.9288 0.0000
vt 0.6810 0.9288 0.0000
vt 0.6810 0.9952 0.0000
vt 0.7489 0.9952 0.0000
vt 0.6710 0.9290 0.0000
vt 0.6710 0.9951 0.0000
vt 0.6057 0.9951 0.0000
vt 0.6057 0.9290 0.0000
vt 0.1604 0.5291 0.0000
vt 0.5351 0.5292 0.0000
vt 0.2425 0.6469 0.0000
vt 0.1604 0.6469 0.0000
vt 0.3748 0.8346 0.0000
vt 0.5354 0.8346 0.0000
vt 0.9959 0.7106 0.0000
vt 0.6034 0.7106 0.0000
vt 0.3350 0.4013 0.0000
vt 0.3350 0.0031 0.0000
# 54 texture coords

g base2
usemtl Material__6
s 1
f 63/101/48 64/102/49 65/103/50 
f 65/103/50 66/104/51 63/101/48 
f 66/104/51 65/103/50 67/105/52 
f 68/106/53 63/107/48 66/108/51 
f 66/108/51 69/109/54 68/106/53 
f 67/110/52 65/111/50 64/112/49 
f 64/112/49 70/113/55 67/110/52 
f 71/114/55 70/115/55 72/116/56 
f 73/117/56 74/118/57 64/119/49 
f 64/119/49 63/120/48 73/117/56 
f 75/121/57 76/122/57 68/123/53 
f 68/123/53 77/124/56 75/121/57 
f 72/116/56 77/124/56 68/123/53 
f 68/123/53 71/114/55 72/116/56 
f 68/123/53 76/122/57 73/117/56 
f 73/117/56 63/120/48 68/123/53 
s off
f 74/118/58 78/125/58 79/126/58 
f 79/126/58 72/116/58 74/118/58 
f 72/116/59 79/126/59 80/127/59 
f 80/127/60 77/124/60 72/116/60 
f 77/124/61 80/127/61 81/128/61 
f 81/128/61 75/121/61 77/124/61 
f 75/121/62 81/128/62 82/129/62 
f 82/129/62 76/122/62 75/121/62 
f 76/122/61 82/129/61 83/130/61 
f 83/130/61 73/117/61 76/122/61 
f 73/117/63 83/130/63 78/125/63 
f 78/125/64 74/118/64 73/117/64 
s 1
f 83/131/65 84/132/66 85/133/67 
f 85/133/67 78/134/68 83/131/65 
f 86/132/69 87/133/70 85/135/67 
f 85/135/67 84/136/66 86/132/69 
f 88/137/71 86/138/69 84/139/66 
f 84/139/66 83/140/65 88/137/71 
f 87/133/70 86/132/69 88/131/71 
f 88/131/71 79/134/72 87/133/70 
f 85/141/67 87/142/70 79/143/72 
f 79/143/72 78/144/68 85/141/67 
f 89/145/56 90/146/57 91/147/57 
f 91/147/57 92/148/56 89/145/56 
f 93/149/57 91/147/57 90/146/57 
f 90/146/57 94/150/56 93/149/57 
f 95/151/52 67/110/52 70/113/55 
f 70/113/55 71/152/55 95/151/52 
f 72/116/56 70/115/55 74/118/57 
f 74/118/57 70/115/55 64/119/49 
f 69/153/54 67/105/52 95/154/52 
f 66/104/51 67/105/52 69/153/54 
# 48 faces

