# 3ds Max Wavefront OBJ Exporter v0.97b - (c)2007 guruware
# File Created: 11.03.2021 11:36:18

mtllib scifi_screen.mtl

#
# object lower
#

v  13.3650 35.0142 -57.8818
v  86.6350 35.0142 -57.8818
v  86.6350 -0.3197 -57.8818
v  13.3650 -0.3197 -57.8818
v  86.6350 35.0142 -42.1183
v  13.3650 35.0142 -42.1183
v  13.3650 -0.3197 -42.1183
v  86.6350 -0.3197 -42.1183
v  76.0415 74.8643 -55.4005
v  50.0000 74.8643 -55.4005
v  50.0000 74.8643 -44.3560
v  76.0415 74.8643 -44.3560
v  91.5365 59.8929 -55.4005
v  86.2161 70.3519 -55.4005
v  86.2161 70.3519 -44.3560
v  91.5365 59.8929 -44.3560
v  23.9585 74.8643 -55.4005
v  23.9585 74.8643 -44.3560
v  13.7839 70.3519 -55.4005
v  8.4635 59.8929 -55.4005
v  8.4635 59.8929 -44.3560
v  13.7839 70.3519 -44.3560
v  79.2807 79.1422 -49.0572
v  20.7193 79.1422 -49.0572
v  28.6351 76.5035 -49.0572
v  71.3649 76.5035 -49.0572
v  20.7193 79.1422 -50.9428
v  79.2807 79.1422 -50.9428
v  71.3649 76.5035 -50.9428
v  28.6351 76.5035 -50.9428
v  81.9193 100.0000 -50.9428
v  81.9193 100.0000 -49.0572
v  81.9193 87.0580 -49.0572
v  81.9193 87.0580 -50.9428
v  18.0807 87.0580 -49.0572
v  18.0807 87.0580 -50.9428
v  18.0807 100.0000 -49.0572
v  18.0807 100.0000 -50.9428
# 38 vertices

vn 0.0000 0.0000 -1.0000
vn 0.0000 0.0000 1.0000
vn 0.2072 0.9783 -0.0000
vn 0.0000 1.0000 -0.0000
vn 0.8913 0.4534 -0.0000
vn 0.6881 0.7256 -0.0000
vn -0.2072 0.9783 -0.0000
vn -0.6881 0.7256 -0.0000
vn -0.8913 0.4534 -0.0000
vn 0.5554 -0.5554 0.6189
vn -0.5554 -0.5554 0.6189
vn -0.1185 -0.7303 0.6728
vn 0.1185 -0.7303 0.6728
vn -0.5554 -0.5554 -0.6189
vn 0.5554 -0.5554 -0.6189
vn 0.1185 -0.7303 -0.6728
vn -0.1185 -0.7303 -0.6728
vn 0.7071 0.0000 -0.7071
vn 0.7071 0.0000 0.7071
vn 0.7303 -0.1185 0.6728
vn 0.7303 -0.1185 -0.6728
vn -0.7303 -0.1185 0.6728
vn -0.7303 -0.1185 -0.6728
vn -0.7071 0.0000 0.7071
vn -0.7071 0.0000 -0.7071
vn 0.0000 -1.0000 -0.0000
# 26 vertex normals

vt 0.5399 0.0196 0.0000
vt 0.5399 0.6563 0.0000
vt 0.8459 0.6563 0.0000
vt 0.8459 0.0196 0.0000
vt 0.6682 0.9925 0.0000
vt 0.5377 0.9926 0.0000
vt 0.5375 0.8388 0.0000
vt 0.6680 0.8388 0.0000
vt 0.9869 0.9923 0.0000
vt 0.8234 0.9924 0.0000
vt 0.8232 0.8388 0.0000
vt 0.9869 0.8388 0.0000
vt 0.4916 0.0447 0.0000
vt 0.0406 0.0447 0.0000
vt 0.1014 0.0243 0.0000
vt 0.4306 0.0243 0.0000
vt 0.8671 0.0995 0.0000
vt 0.9217 0.0995 0.0000
vt 0.9217 0.4198 0.0000
vt 0.8671 0.4198 0.0000
vt 0.9402 0.1490 0.0000
vt 0.9906 0.1490 0.0000
vt 0.9906 0.0723 0.0000
vt 0.9402 0.0723 0.0000
vt 0.9906 0.0211 0.0000
vt 0.9402 0.0211 0.0000
vt 0.9217 0.0161 0.0000
vt 0.8671 0.0161 0.0000
vt 0.9217 0.5014 0.0000
vt 0.8671 0.5014 0.0000
vt 0.5141 0.2054 0.0000
vt 0.0218 0.2054 0.0000
vt 0.0218 0.1056 0.0000
vt 0.5141 0.1056 0.0000
vt 0.8669 0.5036 0.0000
vt 0.8662 0.0176 0.0000
vt 0.9233 0.0176 0.0000
vt 0.9233 0.5036 0.0000
# 38 texture coords

g lower
usemtl Material__290
s 1
f 1/1/1 2/2/1 3/3/1 
f 3/3/1 4/4/1 1/1/1 
f 5/2/2 6/1/2 7/4/2 
f 7/4/2 8/3/2 5/2/2 
f 9/5/3 10/6/4 11/7/4 
f 11/7/4 12/8/3 9/5/3 
f 13/9/5 14/10/6 15/11/6 
f 15/11/6 16/12/5 13/9/5 
f 14/10/6 9/5/3 12/8/3 
f 12/8/3 15/11/6 14/10/6 
f 10/6/4 17/5/7 18/8/7 
f 18/8/7 11/7/4 10/6/4 
f 19/10/8 20/9/9 21/12/9 
f 21/12/9 22/11/8 19/10/8 
f 17/5/7 19/10/8 22/11/8 
f 22/11/8 18/8/7 17/5/7 
f 23/13/10 24/14/11 25/15/12 
f 25/15/12 26/16/13 23/13/10 
f 27/14/14 28/13/15 29/16/16 
f 29/16/16 30/15/17 27/14/14 
f 29/17/16 26/18/13 25/19/12 
f 25/19/12 30/20/17 29/17/16 
f 31/21/18 32/22/19 33/23/20 
f 33/23/20 34/24/21 31/21/18 
f 24/25/11 35/23/22 36/24/23 
f 36/24/23 27/26/14 24/25/11 
f 23/27/10 26/18/13 29/17/16 
f 29/17/16 28/28/15 23/27/10 
f 25/19/12 24/29/11 27/30/14 
f 27/30/14 30/20/17 25/19/12 
f 33/23/20 23/25/10 28/26/15 
f 28/26/15 34/24/21 33/23/20 
f 32/31/19 37/32/24 35/33/22 
f 35/33/22 33/34/20 32/31/19 
f 38/32/25 31/31/18 34/34/21 
f 34/34/21 36/33/23 38/32/25 
f 33/34/20 35/33/22 24/14/11 
f 24/14/11 23/13/10 33/34/20 
f 36/33/23 34/34/21 28/13/15 
f 28/13/15 27/14/14 36/33/23 
f 36/24/23 35/23/22 37/22/24 
f 37/22/24 38/21/25 36/24/23 
s off
f 8/35/26 7/36/26 4/37/26 
f 4/37/26 3/38/26 8/35/26 
# 44 faces

#
# object lower1
#

v  100.0000 48.7944 -37.9128
v  100.0000 10.5865 -37.9128
v  100.0000 10.5865 -62.0872
v  100.0000 48.7944 -62.0872
v  84.9398 0.0000 -37.9128
v  90.4491 0.5419 -37.9128
v  84.9398 24.3232 -37.9128
v  84.9398 0.0000 -62.0872
v  84.9398 24.3232 -62.0872
v  84.5051 63.7658 -37.9128
v  84.5051 63.7658 -62.0872
v  50.0000 63.7658 -62.0872
v  50.0000 63.7658 -37.9128
v  50.0000 32.0314 -37.9128
v  77.2315 32.0314 -37.9128
v  77.2315 32.0314 -62.0872
v  50.0000 32.0314 -62.0872
v  90.4491 0.5419 -62.0872
v  94.6796 59.2533 -62.0872
v  94.6796 59.2533 -37.9128
v  83.0127 30.1043 -37.9128
v  83.0127 30.1043 -62.0872
v  96.6826 3.9981 -37.9128
v  96.6826 3.9981 -62.0872
v  -0.0000 48.7944 -37.9128
v  -0.0000 48.7944 -62.0872
v  -0.0000 10.5865 -62.0872
v  -0.0000 10.5865 -37.9128
v  15.0602 0.0000 -37.9128
v  15.0602 24.3232 -37.9128
v  9.5509 0.5419 -37.9128
v  15.0602 0.0000 -62.0872
v  15.0602 24.3232 -62.0872
v  15.4949 63.7658 -37.9128
v  15.4949 63.7658 -62.0872
v  22.7685 32.0314 -37.9128
v  22.7685 32.0314 -62.0872
v  9.5509 0.5419 -62.0872
v  5.3204 59.2533 -62.0872
v  5.3204 59.2533 -37.9128
v  16.9873 30.1043 -37.9128
v  16.9873 30.1043 -62.0872
v  3.3174 3.9981 -37.9128
v  3.3174 3.9981 -62.0872
v  76.0415 74.8643 -44.3560
v  50.0000 74.8643 -44.3560
v  50.0000 74.8643 -41.9926
v  76.0415 74.8643 -41.9926
v  91.5365 59.8929 -44.3560
v  86.2161 70.3519 -44.3560
v  86.2161 70.3519 -41.9926
v  91.5365 59.8929 -41.9926
v  50.0000 59.8929 -41.9926
v  86.2161 70.3519 -58.0074
v  91.5365 59.8929 -58.0074
v  76.0415 74.8643 -58.0074
v  50.0000 59.8929 -58.0074
v  50.0000 74.8643 -58.0074
v  23.9585 74.8643 -44.3560
v  23.9585 74.8643 -41.9926
v  13.7839 70.3519 -41.9926
v  13.7839 70.3519 -44.3560
v  8.4635 59.8929 -44.3560
v  8.4635 59.8929 -41.9926
v  13.7839 70.3519 -58.0074
v  23.9585 74.8643 -58.0074
v  8.4635 59.8929 -58.0074
v  50.0000 74.8643 -55.4005
v  76.0415 74.8643 -55.4005
v  86.2161 70.3519 -55.4005
v  91.5365 59.8929 -55.4005
v  23.9585 74.8643 -55.4005
v  8.4635 59.8929 -55.4005
v  13.7839 70.3519 -55.4005
# 74 vertices

vn 0.9724 0.2331 -0.0000
vn 0.9729 -0.2311 -0.0000
vn 0.0000 0.0000 1.0000
vn -0.6716 -0.7409 -0.0000
vn -0.9871 -0.1602 -0.0000
vn 0.2072 0.9783 -0.0000
vn 0.0000 1.0000 -0.0000
vn -0.1602 -0.9871 -0.0000
vn 0.0000 -1.0000 -0.0000
vn 0.0000 0.0000 -1.0000
vn 0.2976 -0.9547 -0.0000
vn 0.6881 0.7256 -0.0000
vn -0.7071 -0.7071 -0.0000
vn 0.7210 -0.6929 -0.0000
vn -0.9724 0.2331 -0.0000
vn -0.9729 -0.2311 -0.0000
vn 0.6716 -0.7409 -0.0000
vn 0.9871 -0.1602 -0.0000
vn -0.2072 0.9783 -0.0000
vn 0.1602 -0.9871 -0.0000
vn -0.2976 -0.9547 -0.0000
vn -0.6881 0.7256 -0.0000
vn 0.7071 -0.7071 -0.0000
vn -0.7210 -0.6929 -0.0000
vn 0.0000 0.7071 0.7071
vn 0.1551 0.7321 0.6633
vn 0.8913 0.4534 -0.0000
vn 0.5293 0.5582 0.6389
vn 0.7300 0.3714 0.5737
vn 0.5293 0.5582 -0.6389
vn 0.7300 0.3714 -0.5737
vn 0.1551 0.7321 -0.6633
vn 0.0000 0.7071 -0.7071
vn -0.1551 0.7321 0.6633
vn -0.5293 0.5582 0.6389
vn -0.6881 0.7256 0.0000
vn -0.8913 0.4534 0.0000
vn -0.7300 0.3714 0.5737
vn -0.5293 0.5582 -0.6389
vn -0.1551 0.7321 -0.6633
vn -0.7300 0.3714 -0.5737
vn -0.8913 0.4534 -0.0000
# 42 vertex normals

vt 0.3647 0.7572 0.0000
vt 0.0689 0.7572 0.0000
vt 0.0689 0.9913 0.0000
vt 0.3647 0.9913 0.0000
vt 0.8506 0.0168 0.0000
vt 0.8980 0.0213 0.0000
vt 0.8514 0.2260 0.0000
vt 0.6054 0.2563 0.0000
vt 0.6054 0.0222 0.0000
vt 0.5088 0.0222 0.0000
vt 0.5088 0.2563 0.0000
vt 0.6383 0.7572 0.0000
vt 0.6383 0.9913 0.0000
vt 0.9882 0.9913 0.0000
vt 0.9881 0.7572 0.0000
vt 0.5501 0.5657 0.0000
vt 0.5501 0.2930 0.0000
vt 0.7854 0.2930 0.0000
vt 0.8489 0.5657 0.0000
vt 0.4605 0.2563 0.0000
vt 0.4604 0.0222 0.0000
vt 0.3523 0.0222 0.0000
vt 0.3523 0.2563 0.0000
vt 0.9821 0.4359 0.0000
vt 0.9821 0.1074 0.0000
vt 0.6241 0.2571 0.0000
vt 0.6684 0.2571 0.0000
vt 0.6684 0.0230 0.0000
vt 0.6241 0.0230 0.0000
vt 0.4862 0.9913 0.0000
vt 0.4862 0.7572 0.0000
vt 0.3833 0.7572 0.0000
vt 0.3833 0.9913 0.0000
vt 0.9363 0.5261 0.0000
vt 0.8350 0.2758 0.0000
vt 0.4846 0.0222 0.0000
vt 0.4846 0.2563 0.0000
vt 0.0117 0.7572 0.0000
vt 0.0118 0.9913 0.0000
vt 0.7255 0.2571 0.0000
vt 0.7255 0.0230 0.0000
vt 0.9517 0.0508 0.0000
vt 0.2497 0.0168 0.0000
vt 0.2489 0.2260 0.0000
vt 0.2023 0.0213 0.0000
vt 0.2514 0.5657 0.0000
vt 0.3149 0.2930 0.0000
vt 0.1182 0.1074 0.0000
vt 0.1182 0.4359 0.0000
vt 0.1640 0.5261 0.0000
vt 0.2653 0.2758 0.0000
vt 0.1486 0.0508 0.0000
vt 0.0168 0.3706 0.0000
vt 0.0168 0.7239 0.0000
vt 0.0889 0.7240 0.0000
vt 0.0889 0.3707 0.0000
vt 0.0168 0.0138 0.0000
vt 0.0168 0.1877 0.0000
vt 0.0889 0.1877 0.0000
vt 0.0889 0.0138 0.0000
vt 0.0168 0.2006 0.0000
vt 0.0889 0.2007 0.0000
vt 0.7807 0.7293 0.0000
vt 0.5481 0.7293 0.0000
vt 0.5481 0.5914 0.0000
vt 0.9195 0.5914 0.0000
vt 0.8717 0.6887 0.0000
vt 0.3155 0.7293 0.0000
vt 0.1767 0.5914 0.0000
vt 0.2245 0.6876 0.0000
vt 0.0889 0.3703 0.0000
vt 0.0889 0.7235 0.0000
vt 0.0168 0.7236 0.0000
vt 0.0168 0.3704 0.0000
vt 0.0889 0.2002 0.0000
vt 0.0168 0.2004 0.0000
# 76 texture coords

g lower1
usemtl Material__289
s 1
f 39/39/27 40/40/28 41/41/28 
f 41/41/28 42/42/27 39/39/27 
s 8
f 43/43/29 44/44/29 45/45/29 
s 1
f 46/46/30 43/47/30 45/48/31 
f 45/48/31 47/49/31 46/46/30 
f 48/50/32 49/51/32 50/52/33 
f 50/52/33 51/53/33 48/50/32 
s 8
f 51/54/29 52/55/29 53/56/29 
f 53/56/29 48/57/29 51/54/29 
s 1
f 54/58/34 53/59/34 52/60/35 
f 52/60/35 55/61/35 54/58/34 
s 8
f 47/45/36 42/62/36 41/63/36 
f 50/54/36 49/57/36 54/56/36 
f 54/56/36 55/55/36 50/54/36 
s 1
f 46/64/30 56/65/37 44/66/37 
f 44/66/37 43/67/30 46/64/30 
f 57/68/38 58/69/38 39/70/27 
f 39/70/27 42/71/27 57/68/38 
s 8
f 58/72/29 59/73/29 45/45/29 
f 45/45/29 39/62/29 58/72/29 
s 1
f 59/74/39 60/75/39 47/49/31 
f 47/49/31 45/48/31 59/74/39 
s 8
f 60/73/36 57/72/36 42/62/36 
f 42/62/36 47/45/36 60/73/36 
s 1
f 49/51/32 48/50/32 58/69/38 
f 58/69/38 57/68/38 49/51/32 
s 8
f 48/57/29 53/56/29 59/73/29 
f 59/73/29 58/72/29 48/57/29 
s 1
f 53/59/34 54/58/34 60/75/39 
f 60/75/39 59/74/39 53/59/34 
s 8
f 54/56/36 49/57/36 57/72/36 
f 57/72/36 60/73/36 54/56/36 
s 1
f 61/76/40 62/77/40 41/41/28 
f 41/41/28 40/40/28 61/76/40 
f 44/66/37 56/65/37 62/78/40 
f 62/78/40 61/79/40 44/66/37 
s 8
f 45/45/29 40/63/29 39/62/29 
f 47/45/36 41/63/36 62/80/36 
f 45/45/29 61/80/29 40/63/29 
f 47/45/36 62/80/36 56/44/36 
f 45/45/29 44/44/29 61/80/29 
f 47/45/36 56/44/36 46/43/36 
s 1
f 63/39/41 64/42/41 65/41/42 
f 65/41/42 66/40/42 63/39/41 
s 8
f 67/81/29 68/82/29 69/83/29 
s 1
f 70/46/43 71/49/44 68/48/44 
f 68/48/44 67/47/43 70/46/43 
f 72/50/45 51/53/33 50/52/33 
f 50/52/33 73/51/45 72/50/45 
s 8
f 51/54/29 72/84/29 74/85/29 
f 74/85/29 52/55/29 51/54/29 
s 1
f 75/58/46 55/61/35 52/60/35 
f 52/60/35 74/59/46 75/58/46 
s 8
f 71/82/36 65/86/36 64/87/36 
f 50/54/36 55/55/36 75/85/36 
f 75/85/36 73/84/36 50/54/36 
s 1
f 70/64/43 67/67/43 69/66/47 
f 69/66/47 76/65/47 70/64/43 
f 77/68/48 64/71/41 63/70/41 
f 63/70/41 78/69/48 77/68/48 
s 8
f 78/88/29 63/87/29 68/82/29 
f 68/82/29 79/89/29 78/88/29 
s 1
f 79/74/49 68/48/44 71/49/44 
f 71/49/44 80/75/49 79/74/49 
s 8
f 80/89/36 71/82/36 64/87/36 
f 64/87/36 77/88/36 80/89/36 
s 1
f 73/51/45 77/68/48 78/69/48 
f 78/69/48 72/50/45 73/51/45 
s 8
f 72/84/29 78/88/29 79/89/29 
f 79/89/29 74/85/29 72/84/29 
s 1
f 74/59/46 79/74/49 80/75/49 
f 80/75/49 75/58/46 74/59/46 
s 8
f 75/85/36 80/89/36 77/88/36 
f 77/88/36 73/84/36 75/85/36 
s 1
f 81/76/50 66/40/42 65/41/42 
f 65/41/42 82/77/50 81/76/50 
f 69/66/47 81/79/50 82/78/50 
f 82/78/50 76/65/47 69/66/47 
s 8
f 68/82/29 63/87/29 66/86/29 
f 71/82/36 82/90/36 65/86/36 
f 68/82/29 66/86/29 81/90/29 
f 71/82/36 76/83/36 82/90/36 
f 68/82/29 81/90/29 69/83/29 
f 71/82/36 70/81/36 76/83/36 
s 1
f 83/91/32 84/92/33 85/93/51 
f 85/93/51 86/94/52 83/91/32 
f 87/95/53 88/96/38 89/97/54 
f 89/97/54 90/98/55 87/95/53 
f 88/99/38 83/91/32 86/94/52 
f 86/94/52 89/100/54 88/99/38 
f 86/101/52 85/102/51 91/103/29 
f 91/103/29 90/104/55 86/101/52 
f 92/105/56 93/104/57 94/101/58 
f 86/101/52 90/104/55 89/105/54 
f 94/101/58 93/104/57 95/103/36 
f 95/103/36 96/102/59 94/101/58 
f 85/93/51 84/92/33 97/91/45 
f 97/91/45 98/94/60 85/93/51 
f 99/97/61 100/96/62 101/95/63 
f 101/95/63 102/98/64 99/97/61 
f 98/94/60 97/91/45 100/99/62 
f 100/99/62 99/100/61 98/94/60 
f 98/106/60 102/107/64 91/103/29 
f 91/103/29 85/102/51 98/106/60 
f 103/108/65 104/106/66 105/107/67 
f 98/106/60 99/108/61 102/107/64 
f 104/106/66 96/102/59 95/103/36 
f 95/103/36 105/107/67 104/106/66 
f 94/109/58 96/110/59 106/111/33 
f 106/111/33 107/112/32 94/109/58 
f 93/98/57 92/97/56 108/96/38 
f 108/96/38 109/95/53 93/98/57 
f 92/113/56 94/109/58 107/112/32 
f 107/112/32 108/114/38 92/113/56 
f 96/110/59 104/109/66 110/112/45 
f 110/112/45 106/111/33 96/110/59 
f 103/97/65 105/98/67 111/95/68 
f 111/95/68 112/96/48 103/97/65 
f 104/109/66 103/113/65 112/114/48 
f 112/114/48 110/112/45 104/109/66 
# 120 faces

#
# object upper
#

v  28.6351 100.0000 -50.9428
v  28.6351 100.0000 -49.0572
v  71.3649 100.0000 -49.0572
v  71.3649 100.0000 -50.9428
v  18.0807 0.0000 -50.9428
v  18.0807 0.0000 -49.0572
v  18.0807 89.4456 -49.0572
v  18.0807 89.4456 -50.9428
v  20.7193 97.3614 -49.0572
v  20.7193 97.3614 -50.9428
v  79.2807 97.3614 -50.9428
v  79.2807 97.3614 -49.0572
v  81.9193 89.4456 -50.9428
v  81.9193 89.4456 -49.0572
v  81.9193 0.0000 -49.0572
v  81.9193 0.0000 -50.9428
# 16 vertices

vn -0.1185 0.7303 -0.6728
vn -0.1185 0.7303 0.6728
vn 0.1185 0.7303 0.6728
vn 0.1185 0.7303 -0.6728
vn -0.7071 0.0000 -0.7071
vn -0.7071 0.0000 0.7071
vn -0.7303 0.1185 0.6728
vn -0.7303 0.1185 -0.6728
vn -0.5554 0.5554 0.6189
vn -0.5554 0.5554 -0.6189
vn 0.5554 0.5554 -0.6189
vn 0.5554 0.5554 0.6189
vn 0.7303 0.1185 -0.6728
vn 0.7303 0.1185 0.6728
vn 0.7071 -0.0000 0.7071
vn 0.7071 -0.0000 -0.7071
# 16 vertex normals

vt 0.9104 0.8232 0.0000
vt 0.9104 0.7677 0.0000
vt 0.6137 0.7677 0.0000
vt 0.6137 0.8232 0.0000
vt 0.9402 0.1490 0.0000
vt 0.9906 0.1490 0.0000
vt 0.9906 0.6791 0.0000
vt 0.9402 0.6791 0.0000
vt 0.9880 0.7677 0.0000
vt 0.9880 0.8232 0.0000
vt 0.5379 0.8232 0.0000
vt 0.5379 0.7677 0.0000
vt 0.9906 0.7485 0.0000
vt 0.9402 0.7485 0.0000
vt 0.4954 0.9562 0.0000
vt 0.0444 0.9562 0.0000
vt 0.0218 0.8954 0.0000
vt 0.5141 0.8954 0.0000
vt 0.4346 0.9767 0.0000
vt 0.1053 0.9767 0.0000
vt 0.0218 0.2054 0.0000
vt 0.5141 0.2054 0.0000
# 22 texture coords

g upper
usemtl Material__290
s 1
f 113/115/69 114/116/70 115/117/71 
f 115/117/71 116/118/72 113/115/69 
f 117/119/73 118/120/74 119/121/75 
f 119/121/75 120/122/76 117/119/73 
f 121/123/77 114/116/70 113/115/69 
f 113/115/69 122/124/78 121/123/77 
f 123/125/79 116/118/72 115/117/71 
f 115/117/71 124/126/80 123/125/79 
f 119/121/75 121/127/77 122/128/78 
f 122/128/78 120/122/76 119/121/75 
f 125/122/81 123/128/79 124/127/80 
f 124/127/80 126/121/82 125/122/81 
f 124/129/80 121/130/77 119/131/75 
f 119/131/75 126/132/82 124/129/80 
f 122/130/78 123/129/79 125/132/81 
f 125/132/81 120/131/76 122/130/78 
f 115/133/71 114/134/70 121/130/77 
f 121/130/77 124/129/80 115/133/71 
f 113/134/69 116/133/72 123/129/79 
f 123/129/79 122/130/78 113/134/69 
f 125/122/81 126/121/82 127/120/83 
f 127/120/83 128/119/84 125/122/81 
f 126/132/82 119/131/75 118/135/74 
f 118/135/74 127/136/83 126/132/82 
f 120/131/76 125/132/81 128/136/84 
f 128/136/84 117/135/73 120/131/76 
# 26 faces

