# 3ds Max Wavefront OBJ Exporter v0.97b - (c)2007 guruware
# File Created: 04.07.2020 17:13:12

mtllib skylight.mtl

#
# object side
#

v  0.0000 100.0000 -0.0001
v  100.0000 100.0000 -0.0001
v  100.0000 100.0000 -9.9988
v  0.0000 100.0000 -9.9988
v  100.0000 0.0000 -9.9988
v  100.0000 0.0000 -0.0001
v  0.0000 0.0000 -0.0001
v  0.0000 0.0000 -9.9988
v  93.6230 93.1036 -10.0003
v  6.3770 93.1036 -10.0003
v  6.3770 93.1036 0.0000
v  93.6230 93.1036 0.0000
v  6.3770 6.8964 -10.0003
v  93.6230 6.8964 -10.0003
v  93.6230 6.8964 0.0000
v  6.3770 6.8964 0.0000
v  96.5702 79.3939 -6.9375
v  3.4298 79.3939 -6.9375
v  3.4298 79.3939 -3.0618
v  96.5702 79.3939 -3.0618
v  3.4766 76.0491 -3.0617
v  96.5434 76.0491 -3.0617
v  96.5434 76.0491 -6.9381
v  3.4766 76.0491 -6.9381
v  96.5702 20.5961 -6.9375
v  96.5702 20.5961 -3.0618
v  3.4298 20.5961 -3.0618
v  3.4298 20.5961 -6.9375
v  96.5434 23.9409 -3.0617
v  3.4766 23.9409 -3.0617
v  3.4766 23.9409 -6.9381
v  96.5434 23.9409 -6.9381
v  79.3989 96.5652 -6.4956
v  79.3989 96.5652 -3.5039
v  79.3989 3.4248 -3.5039
v  79.3989 3.4248 -6.4956
v  76.0541 96.5384 -3.5038
v  76.0541 3.4716 -3.5038
v  76.0541 3.4716 -6.4960
v  76.0541 96.5384 -6.4960
v  20.6011 96.5652 -6.4956
v  20.6011 3.4248 -6.4956
v  20.6011 3.4248 -3.5039
v  20.6011 96.5652 -3.5039
v  23.9459 3.4716 -3.5038
v  23.9459 96.5384 -3.5038
v  23.9459 96.5384 -6.4960
v  23.9459 3.4716 -6.4960
v  51.6724 21.4430 -6.2894
v  51.6724 21.4430 -3.7101
v  51.6724 5.7005 -3.7101
v  51.6724 5.7005 -6.2894
v  48.3276 21.4385 -3.7101
v  48.3276 5.7084 -3.7101
v  48.3276 5.7084 -6.2898
v  48.3276 21.4385 -6.2898
v  51.6724 94.4920 -6.2894
v  51.6724 94.4920 -3.7101
v  51.6724 78.7494 -3.7101
v  51.6724 78.7494 -6.2894
v  48.3276 94.4874 -3.7101
v  48.3276 78.7573 -3.7101
v  48.3276 78.7573 -6.2898
v  48.3276 94.4874 -6.2898
# 64 vertices

vn 0.0000 1.0000 -0.0000
vn 0.0000 -1.0000 -0.0000
vn 1.0000 0.0000 -0.0000
vn -1.0000 0.0000 -0.0000
vn 0.0000 0.0002 -1.0000
vn 0.0000 0.0000 1.0000
vn -0.0000 0.0000 1.0000
vn 0.0000 -0.0002 -1.0000
vn 0.0000 -0.0000 1.0000
vn -0.0000 -0.0000 1.0000
vn 0.0002 0.0000 -1.0000
vn -0.0002 0.0000 -1.0000
vn -0.0000 -1.0000 -0.0000
vn -0.0000 -0.0002 -1.0000
vn 0.0001 0.0000 -1.0000
vn -0.0001 0.0000 -1.0000
vn -1.0000 -0.0000 -0.0000
# 17 vertex normals

vt 0.7693 0.9834 1.4128
vt 0.7693 0.0291 1.4128
vt 0.9861 0.0291 1.4128
vt 0.9861 0.9834 1.4128
vt 0.2495 0.0291 1.4128
vt 0.2495 0.9834 1.4128
vt 0.4814 0.9834 1.4128
vt 0.4814 0.0291 1.4128
vt 0.0350 0.0459 0.0005
vt 0.2091 0.0459 0.0005
vt 0.2091 0.9608 0.0005
vt 0.0350 0.9608 0.0005
vt 0.0350 0.0459 0.9995
vt 0.0350 0.9608 0.9995
vt 0.2091 0.9608 0.9995
vt 0.2091 0.0459 0.9995
vt 0.9729 0.0821 1.4044
vt 0.9729 0.9412 1.4044
vt 0.7919 0.9412 1.4044
vt 0.7919 0.0821 1.4044
vt 0.5183 0.0490 1.4044
vt 0.5183 0.9649 1.4044
vt 0.7399 0.9649 1.4044
vt 0.7398 0.0490 1.4044
vt 0.7398 0.9649 1.4044
vt 0.9712 0.9400 1.4128
vt 0.9712 0.0725 1.4128
vt 0.8031 0.0725 1.4128
vt 0.8031 0.9400 1.4128
vt 0.0395 0.9608 0.9995
vt 0.0395 0.0459 0.9995
vt 0.2053 0.0459 0.9995
vt 0.2053 0.9608 0.9995
vt 0.0395 0.0459 0.0005
vt 0.0395 0.9608 0.0005
vt 0.2053 0.9608 0.0005
vt 0.2053 0.0459 0.0005
vt 0.7342 0.9649 1.4044
vt 0.7342 0.0603 1.4044
vt 0.5183 0.0603 1.4044
# 40 texture coords

g side
usemtl 01___Default
s 2
f 1/1/1 2/2/1 3/3/1 
f 3/3/1 4/4/1 1/1/1 
s 4
f 5/3/2 6/2/2 7/1/2 
f 7/1/2 8/4/2 5/3/2 
s 16
f 2/5/3 6/6/3 5/7/3 
f 5/7/3 3/8/3 2/5/3 
s 64
f 4/7/4 8/8/4 7/5/4 
f 7/5/4 1/6/4 4/7/4 
s off
f 3/9/5 9/10/5 10/11/5 
f 10/11/5 4/12/5 3/9/5 
f 2/13/6 1/14/6 11/15/6 
f 11/15/7 12/16/7 2/13/7 
f 5/12/8 8/9/8 13/10/8 
f 13/10/8 14/11/8 5/12/8 
f 6/14/9 15/15/9 16/16/9 
f 16/16/10 7/13/10 6/14/10 
f 3/12/11 5/9/11 14/10/11 
f 14/10/11 9/11/11 3/12/11 
f 1/14/10 7/13/10 16/16/10 
f 16/16/7 11/15/7 1/14/7 
f 8/9/12 4/12/12 10/11/12 
f 10/11/12 13/10/12 8/9/12 
f 6/13/6 2/14/6 12/15/6 
f 12/15/9 15/16/9 6/13/9 
f 12/17/2 11/18/2 10/19/2 
f 10/19/2 9/20/2 12/17/2 
f 9/21/4 14/22/4 15/23/4 
f 15/23/4 12/24/4 9/21/4 
f 11/25/3 16/24/3 13/21/3 
f 13/21/3 10/22/3 11/25/3 
f 14/19/1 13/20/1 16/17/1 
f 16/17/1 15/18/1 14/19/1 
s 64
f 17/26/1 18/27/1 19/28/1 
f 19/28/1 20/29/1 17/26/1 
s off
f 20/30/7 19/31/7 21/32/7 
f 21/32/6 22/33/6 20/30/6 
f 18/34/5 17/35/5 23/36/5 
f 23/36/5 24/37/5 18/34/5 
f 22/38/13 21/39/13 24/40/13 
f 24/40/13 23/22/13 22/38/13 
s 64
f 25/7/13 26/6/13 27/5/13 
f 27/5/13 28/8/13 25/7/13 
s off
f 26/30/10 29/33/10 30/32/10 
f 30/32/10 27/31/10 26/30/10 
f 28/34/14 31/37/14 32/36/14 
f 32/36/8 25/35/8 28/34/8 
f 29/38/1 32/22/1 31/40/1 
f 31/40/1 30/39/1 29/38/1 
s 64
f 33/26/3 34/29/3 35/28/3 
f 35/28/3 36/27/3 33/26/3 
s off
f 34/30/9 37/33/9 38/32/9 
f 38/32/6 35/31/6 34/30/6 
f 36/34/15 39/37/15 40/36/15 
f 40/36/15 33/35/15 36/34/15 
f 37/38/4 40/22/4 39/40/4 
f 39/40/4 38/39/4 37/38/4 
s 64
f 41/26/4 42/27/4 43/28/4 
f 43/28/4 44/29/4 41/26/4 
s off
f 44/30/7 43/31/7 45/32/7 
f 45/32/10 46/33/10 44/30/10 
f 42/34/16 41/35/16 47/36/16 
f 47/36/16 48/37/16 42/34/16 
f 46/38/3 45/39/3 48/40/3 
f 48/40/3 47/22/3 46/38/3 
s 64
f 49/26/3 50/29/3 51/28/3 
f 51/28/3 52/27/3 49/26/3 
s off
f 50/30/9 53/33/9 54/32/9 
f 54/32/6 51/31/6 50/30/6 
f 52/34/15 55/37/15 56/36/15 
f 56/36/15 49/35/15 52/34/15 
f 53/38/4 56/22/4 55/40/4 
f 55/40/4 54/39/4 53/38/4 
s 64
f 57/26/3 58/29/3 59/28/3 
f 59/28/3 60/27/3 57/26/3 
s off
f 58/30/9 61/33/9 62/32/9 
f 62/32/9 59/31/9 58/30/9 
f 60/34/15 63/37/15 64/36/15 
f 64/36/15 57/35/15 60/34/15 
f 61/38/17 64/22/17 63/40/17 
f 63/40/17 62/39/17 61/38/17 
# 80 faces

#
# object top
#

v  0.0000 99.9999 -100.0000
v  100.0000 99.9999 -100.0000
v  100.0000 90.0012 -100.0000
v  0.0000 90.0012 -100.0000
v  100.0000 90.0012 -0.0000
v  100.0000 99.9999 -0.0000
v  0.0000 99.9999 -0.0000
v  0.0000 90.0012 -0.0000
v  93.6230 89.9997 -93.1036
v  6.3770 89.9997 -93.1036
v  6.3770 100.0000 -93.1036
v  93.6230 100.0000 -93.1036
v  6.3770 89.9997 -6.8964
v  93.6230 89.9997 -6.8964
v  93.6230 100.0000 -6.8964
v  6.3770 100.0000 -6.8964
v  96.5702 93.0625 -79.3939
v  3.4298 93.0625 -79.3939
v  3.4298 96.9382 -79.3939
v  96.5702 96.9382 -79.3939
v  3.4766 96.9382 -76.0491
v  96.5434 96.9382 -76.0491
v  96.5434 93.0619 -76.0491
v  3.4766 93.0619 -76.0491
v  96.5702 93.0625 -20.5961
v  96.5702 96.9382 -20.5961
v  3.4298 96.9382 -20.5961
v  3.4298 93.0625 -20.5961
v  96.5434 96.9383 -23.9409
v  3.4766 96.9383 -23.9409
v  3.4766 93.0619 -23.9409
v  96.5434 93.0619 -23.9409
v  79.3989 93.5044 -96.5652
v  79.3989 96.4961 -96.5652
v  79.3989 96.4961 -3.4248
v  79.3989 93.5044 -3.4248
v  76.0541 96.4962 -96.5384
v  76.0541 96.4962 -3.4716
v  76.0541 93.5040 -3.4716
v  76.0541 93.5040 -96.5384
v  20.6011 93.5044 -96.5652
v  20.6011 93.5044 -3.4248
v  20.6011 96.4961 -3.4248
v  20.6011 96.4961 -96.5652
v  23.9459 96.4962 -3.4716
v  23.9459 96.4962 -96.5384
v  23.9459 93.5040 -96.5384
v  23.9459 93.5040 -3.4716
v  51.6724 93.7106 -21.4430
v  51.6724 96.2899 -21.4430
v  51.6724 96.2899 -5.7005
v  51.6724 93.7106 -5.7005
v  48.3276 96.2899 -21.4385
v  48.3276 96.2899 -5.7084
v  48.3276 93.7102 -5.7084
v  48.3276 93.7102 -21.4385
v  51.6724 93.7106 -94.4920
v  51.6724 96.2899 -94.4920
v  51.6724 96.2899 -78.7494
v  51.6724 93.7106 -78.7494
v  48.3276 96.2899 -94.4875
v  48.3276 96.2899 -78.7573
v  48.3276 93.7102 -78.7573
v  48.3276 93.7102 -94.4875
# 64 vertices

vn 0.0000 -0.0000 -1.0000
vn -0.0000 0.0000 1.0000
vn 1.0000 0.0000 -0.0000
vn -1.0000 0.0000 -0.0000
vn 0.0000 -1.0000 -0.0002
vn -0.0000 1.0000 -0.0000
vn 0.0000 -1.0000 0.0002
vn -0.0000 1.0000 0.0000
vn 0.0002 -1.0000 0.0000
vn -0.0002 -1.0000 0.0000
vn 0.0000 1.0000 -0.0000
vn -0.0000 -1.0000 0.0002
vn 0.0001 -1.0000 0.0000
vn -0.0001 -1.0000 0.0000
vn 0.0001 -1.0000 -0.0000
vn -1.0000 0.0000 0.0000
# 16 vertex normals

vt 0.7693 0.9834 1.4128
vt 0.7693 0.0291 1.4128
vt 0.9861 0.0291 1.4128
vt 0.9861 0.9834 1.4128
vt 0.2495 0.0291 1.4128
vt 0.2495 0.9834 1.4128
vt 0.4814 0.9834 1.4128
vt 0.4814 0.0291 1.4128
vt 0.0350 0.0459 0.0005
vt 0.2091 0.0459 0.0005
vt 0.2091 0.9608 0.0005
vt 0.0350 0.9608 0.0005
vt 0.0350 0.0459 0.9995
vt 0.0350 0.9608 0.9995
vt 0.2091 0.9608 0.9995
vt 0.2091 0.0459 0.9995
vt 0.9729 0.0821 1.4044
vt 0.9729 0.9412 1.4044
vt 0.7919 0.9412 1.4044
vt 0.7919 0.0821 1.4044
vt 0.5183 0.0490 1.4044
vt 0.5183 0.9649 1.4044
vt 0.7399 0.9649 1.4044
vt 0.7398 0.0490 1.4044
vt 0.7398 0.9649 1.4044
vt 0.9712 0.9400 1.4128
vt 0.9712 0.0725 1.4128
vt 0.8031 0.0725 1.4128
vt 0.8031 0.9400 1.4128
vt 0.0395 0.9608 0.9995
vt 0.0395 0.0459 0.9995
vt 0.2053 0.0459 0.9995
vt 0.2053 0.9608 0.9995
vt 0.0395 0.0459 0.0005
vt 0.0395 0.9608 0.0005
vt 0.2053 0.9608 0.0005
vt 0.2053 0.0459 0.0005
vt 0.7342 0.9649 1.4044
vt 0.7342 0.0603 1.4044
vt 0.5183 0.0603 1.4044
# 40 texture coords

g top
usemtl 01___Default
s 2
f 65/41/18 66/42/18 67/43/18 
f 67/43/18 68/44/18 65/41/18 
s 4
f 69/43/19 70/42/19 71/41/19 
f 71/41/19 72/44/19 69/43/19 
s 16
f 66/45/20 70/46/20 69/47/20 
f 69/47/20 67/48/20 66/45/20 
s 64
f 68/47/21 72/48/21 71/45/21 
f 71/45/21 65/46/21 68/47/21 
s off
f 67/49/22 73/50/22 74/51/22 
f 74/51/22 68/52/22 67/49/22 
f 66/53/23 65/54/23 75/55/23 
f 75/55/23 76/56/23 66/53/23 
f 69/52/24 72/49/24 77/50/24 
f 77/50/24 78/51/24 69/52/24 
f 70/54/25 79/55/25 80/56/25 
f 80/56/25 71/53/25 70/54/25 
f 67/52/26 69/49/26 78/50/26 
f 78/50/26 73/51/26 67/52/26 
f 65/54/23 71/53/23 80/56/23 
f 80/56/23 75/55/23 65/54/23 
f 72/49/27 68/52/27 74/51/27 
f 74/51/27 77/50/27 72/49/27 
f 70/53/28 66/54/28 76/55/28 
f 76/55/28 79/56/28 70/53/28 
f 76/57/19 75/58/19 74/59/19 
f 74/59/19 73/60/19 76/57/19 
f 73/61/21 78/62/21 79/63/21 
f 79/63/21 76/64/21 73/61/21 
f 75/65/20 80/64/20 77/61/20 
f 77/61/20 74/62/20 75/65/20 
f 78/59/18 77/60/18 80/57/18 
f 80/57/18 79/58/18 78/59/18 
s 64
f 81/66/18 82/67/18 83/68/18 
f 83/68/18 84/69/18 81/66/18 
s off
f 84/70/28 83/71/28 85/72/28 
f 85/72/28 86/73/28 84/70/28 
f 82/74/22 81/75/22 87/76/22 
f 87/76/22 88/77/22 82/74/22 
f 86/78/19 85/79/19 88/80/19 
f 88/80/19 87/62/19 86/78/19 
s 64
f 89/47/19 90/46/19 91/45/19 
f 91/45/19 92/48/19 89/47/19 
s off
f 90/70/25 93/73/25 94/72/25 
f 94/72/25 91/71/25 90/70/25 
f 92/74/24 95/77/24 96/76/24 
f 96/76/29 89/75/29 92/74/29 
f 93/78/18 96/62/18 95/80/18 
f 95/80/18 94/79/18 93/78/18 
s 64
f 97/66/20 98/69/20 99/68/20 
f 99/68/20 100/67/20 97/66/20 
s off
f 98/70/28 101/73/28 102/72/28 
f 102/72/28 99/71/28 98/70/28 
f 100/74/30 103/77/30 104/76/30 
f 104/76/30 97/75/30 100/74/30 
f 101/78/21 104/62/21 103/80/21 
f 103/80/21 102/79/21 101/78/21 
s 64
f 105/66/21 106/67/21 107/68/21 
f 107/68/21 108/69/21 105/66/21 
s off
f 108/70/23 107/71/23 109/72/23 
f 109/72/23 110/73/23 108/70/23 
f 106/74/31 105/75/31 111/76/31 
f 111/76/31 112/77/31 106/74/31 
f 110/78/20 109/79/20 112/80/20 
f 112/80/20 111/62/20 110/78/20 
s 64
f 113/66/20 114/69/20 115/68/20 
f 115/68/20 116/67/20 113/66/20 
s off
f 114/70/28 117/73/28 118/72/28 
f 118/72/28 115/71/28 114/70/28 
f 116/74/30 119/77/30 120/76/30 
f 120/76/32 113/75/32 116/74/32 
f 117/78/21 120/62/21 119/80/21 
f 119/80/21 118/79/21 117/78/21 
s 64
f 121/66/20 122/69/20 123/68/20 
f 123/68/20 124/67/20 121/66/20 
s off
f 122/70/28 125/73/28 126/72/28 
f 126/72/28 123/71/28 122/70/28 
f 124/74/30 127/77/30 128/76/30 
f 128/76/32 121/75/32 124/74/32 
f 125/78/33 128/62/33 127/80/33 
f 127/80/33 126/79/33 125/78/33 
# 80 faces

#
# object bottom
#

v  0.0000 0.0001 -0.0000
v  100.0000 0.0001 -0.0000
v  100.0000 9.9988 -0.0000
v  0.0000 9.9988 -0.0000
v  100.0000 9.9988 -100.0000
v  100.0000 0.0001 -100.0000
v  0.0000 0.0001 -100.0000
v  0.0000 9.9988 -100.0000
v  93.6230 10.0003 -6.8964
v  6.3770 10.0003 -6.8964
v  6.3770 -0.0000 -6.8964
v  93.6230 -0.0000 -6.8964
v  6.3770 10.0003 -93.1036
v  93.6230 10.0003 -93.1036
v  93.6230 -0.0000 -93.1036
v  6.3770 -0.0000 -93.1036
v  96.5702 6.9375 -20.6061
v  3.4298 6.9375 -20.6061
v  3.4298 3.0618 -20.6061
v  96.5702 3.0618 -20.6061
v  3.4766 3.0617 -23.9509
v  96.5434 3.0617 -23.9509
v  96.5434 6.9381 -23.9509
v  3.4766 6.9381 -23.9509
v  96.5702 6.9375 -79.4039
v  96.5702 3.0618 -79.4039
v  3.4298 3.0618 -79.4039
v  3.4298 6.9375 -79.4039
v  96.5434 3.0617 -76.0591
v  3.4766 3.0617 -76.0591
v  3.4766 6.9381 -76.0591
v  96.5434 6.9381 -76.0591
v  79.3989 6.4956 -3.4348
v  79.3989 3.5039 -3.4348
v  79.3989 3.5039 -96.5752
v  79.3989 6.4956 -96.5752
v  76.0541 3.5038 -3.4616
v  76.0541 3.5038 -96.5284
v  76.0541 6.4960 -96.5284
v  76.0541 6.4960 -3.4616
v  20.6011 6.4956 -3.4348
v  20.6011 6.4956 -96.5752
v  20.6011 3.5039 -96.5752
v  20.6011 3.5039 -3.4348
v  23.9459 3.5038 -96.5284
v  23.9459 3.5038 -3.4616
v  23.9459 6.4960 -3.4616
v  23.9459 6.4960 -96.5284
v  51.6724 6.2894 -78.5570
v  51.6724 3.7101 -78.5570
v  51.6724 3.7101 -94.2995
v  51.6724 6.2894 -94.2995
v  48.3276 3.7101 -78.5615
v  48.3276 3.7101 -94.2916
v  48.3276 6.2898 -94.2916
v  48.3276 6.2898 -78.5615
v  51.6724 6.2894 -5.5080
v  51.6724 3.7101 -5.5080
v  51.6724 3.7101 -21.2506
v  51.6724 6.2894 -21.2506
v  48.3276 3.7101 -5.5126
v  48.3276 3.7101 -21.2427
v  48.3276 6.2898 -21.2427
v  48.3276 6.2898 -5.5126
# 64 vertices

vn -0.0000 -0.0000 1.0000
vn 0.0000 0.0000 -1.0000
vn 1.0000 0.0000 -0.0000
vn -1.0000 0.0000 -0.0000
vn 0.0000 1.0000 0.0002
vn -0.0000 -1.0000 0.0000
vn 0.0000 1.0000 -0.0002
vn -0.0000 -1.0000 -0.0000
vn 0.0002 1.0000 0.0000
vn -0.0002 1.0000 0.0000
vn 0.0000 -1.0000 -0.0000
vn 0.0000 0.0000 1.0000
vn 0.0000 -1.0000 0.0000
vn -0.0000 0.0000 -1.0000
vn -0.0000 1.0000 -0.0002
vn 0.0001 1.0000 0.0000
vn -0.0001 1.0000 0.0000
vn 0.0001 1.0000 -0.0000
vn 1.0000 0.0000 0.0000
# 19 vertex normals

vt 0.7693 0.9834 1.4128
vt 0.7693 0.0291 1.4128
vt 0.9861 0.0291 1.4128
vt 0.9861 0.9834 1.4128
vt 0.2495 0.0291 1.4128
vt 0.2495 0.9834 1.4128
vt 0.4814 0.9834 1.4128
vt 0.4814 0.0291 1.4128
vt 0.0350 0.0459 0.0005
vt 0.2091 0.0459 0.0005
vt 0.2091 0.9608 0.0005
vt 0.0350 0.9608 0.0005
vt 0.0350 0.0459 0.9995
vt 0.0350 0.9608 0.9995
vt 0.2091 0.9608 0.9995
vt 0.2091 0.0459 0.9995
vt 0.9729 0.0821 1.4044
vt 0.9729 0.9412 1.4044
vt 0.7919 0.9412 1.4044
vt 0.7919 0.0821 1.4044
vt 0.5183 0.0490 1.4044
vt 0.5183 0.9649 1.4044
vt 0.7399 0.9649 1.4044
vt 0.7398 0.0490 1.4044
vt 0.7398 0.9649 1.4044
vt 0.9712 0.9400 1.4128
vt 0.9712 0.0725 1.4128
vt 0.8031 0.0725 1.4128
vt 0.8031 0.9400 1.4128
vt 0.0395 0.9608 0.9995
vt 0.0395 0.0459 0.9995
vt 0.2053 0.0459 0.9995
vt 0.2053 0.9608 0.9995
vt 0.0395 0.0459 0.0005
vt 0.0395 0.9608 0.0005
vt 0.2053 0.9608 0.0005
vt 0.2053 0.0459 0.0005
vt 0.7342 0.9649 1.4044
vt 0.7342 0.0603 1.4044
vt 0.5183 0.0603 1.4044
# 40 texture coords

g bottom
usemtl 01___Default
s 2
f 129/81/34 130/82/34 131/83/34 
f 131/83/34 132/84/34 129/81/34 
s 4
f 133/83/35 134/82/35 135/81/35 
f 135/81/35 136/84/35 133/83/35 
s 16
f 130/85/36 134/86/36 133/87/36 
f 133/87/36 131/88/36 130/85/36 
s 64
f 132/87/37 136/88/37 135/85/37 
f 135/85/37 129/86/37 132/87/37 
s off
f 131/89/38 137/90/38 138/91/38 
f 138/91/38 132/92/38 131/89/38 
f 130/93/39 129/94/39 139/95/39 
f 139/95/39 140/96/39 130/93/39 
f 133/92/40 136/89/40 141/90/40 
f 141/90/40 142/91/40 133/92/40 
f 134/94/41 143/95/41 144/96/41 
f 144/96/41 135/93/41 134/94/41 
f 131/92/42 133/89/42 142/90/42 
f 142/90/42 137/91/42 131/92/42 
f 129/94/41 135/93/41 144/96/41 
f 144/96/41 139/95/41 129/94/41 
f 136/89/43 132/92/43 138/91/43 
f 138/91/43 141/90/43 136/89/43 
f 134/93/44 130/94/44 140/95/44 
f 140/95/44 143/96/44 134/93/44 
f 140/97/35 139/98/35 138/99/35 
f 138/99/35 137/100/35 140/97/35 
f 137/101/37 142/102/37 143/103/37 
f 143/103/37 140/104/37 137/101/37 
f 139/105/36 144/104/36 141/101/36 
f 141/101/36 138/102/36 139/105/36 
f 142/99/34 141/100/34 144/97/34 
f 144/97/34 143/98/34 142/99/34 
s 64
f 145/106/45 146/107/45 147/108/45 
f 147/108/45 148/109/45 145/106/45 
s off
f 148/110/46 147/111/46 149/112/46 
f 149/112/39 150/113/39 148/110/39 
f 146/114/38 145/115/38 151/116/38 
f 151/116/38 152/117/38 146/114/38 
f 150/118/47 149/119/47 152/120/47 
f 152/120/47 151/102/47 150/118/47 
s 64
f 153/87/47 154/86/47 155/85/47 
f 155/85/47 156/88/47 153/87/47 
s off
f 154/110/41 157/113/41 158/112/41 
f 158/112/41 155/111/41 154/110/41 
f 156/114/48 159/117/48 160/116/48 
f 160/116/48 153/115/48 156/114/48 
f 157/118/45 160/102/45 159/120/45 
f 159/120/45 158/119/45 157/118/45 
s 64
f 161/106/36 162/109/36 163/108/36 
f 163/108/36 164/107/36 161/106/36 
s off
f 162/110/44 165/113/44 166/112/44 
f 166/112/44 163/111/44 162/110/44 
f 164/114/49 167/117/49 168/116/49 
f 168/116/49 161/115/49 164/114/49 
f 165/118/37 168/102/37 167/120/37 
f 167/120/37 166/119/37 165/118/37 
s 64
f 169/106/37 170/107/37 171/108/37 
f 171/108/37 172/109/37 169/106/37 
s off
f 172/110/41 171/111/41 173/112/41 
f 173/112/41 174/113/41 172/110/41 
f 170/114/50 169/115/50 175/116/50 
f 175/116/50 176/117/50 170/114/50 
f 174/118/36 173/119/36 176/120/36 
f 176/120/36 175/102/36 174/118/36 
s 64
f 177/106/36 178/109/36 179/108/36 
f 179/108/36 180/107/36 177/106/36 
s off
f 178/110/44 181/113/44 182/112/44 
f 182/112/44 179/111/44 178/110/44 
f 180/114/49 183/117/49 184/116/49 
f 184/116/51 177/115/51 180/114/51 
f 181/118/37 184/102/37 183/120/37 
f 183/120/37 182/119/37 181/118/37 
s 64
f 185/106/52 186/109/52 187/108/52 
f 187/108/52 188/107/52 185/106/52 
s off
f 186/110/46 189/113/46 190/112/46 
f 190/112/46 187/111/46 186/110/46 
f 188/114/49 191/117/49 192/116/49 
f 192/116/49 185/115/49 188/114/49 
f 189/118/37 192/102/37 191/120/37 
f 191/120/37 190/119/37 189/118/37 
# 80 faces

#
# object top_index_0
#

v  -3.4643 87.5899 1.8344
v  103.1550 87.5899 1.8344
v  103.1550 101.5419 1.8344
v  -3.4643 101.5419 1.8344
v  -3.4643 87.5899 -101.6019
v  -3.4643 101.5419 -101.6019
v  103.1550 101.5419 -101.6019
v  103.1550 87.5899 -101.6019
# 8 vertices

vn 0.0000 -0.0000 1.0000
vn 0.0000 0.0000 -1.0000
vn 0.0000 -1.0000 -0.0000
vn 1.0000 0.0000 -0.0000
vn 1.0000 0.0000 0.0000
vn 0.0000 1.0000 0.0000
vn -1.0000 0.0000 -0.0000
# 7 vertex normals

vt 1.0000 0.0000 0.0000
vt 0.0000 0.0000 0.0000
vt 0.0000 1.0000 0.0000
vt 1.0000 1.0000 0.0000
# 4 texture coords

g top_index_0
usemtl 02___Default
s 2
f 193/121/53 194/122/53 195/123/53 
f 195/123/53 196/124/53 193/121/53 
s 4
f 197/122/54 198/123/54 199/124/54 
f 199/124/54 200/121/54 197/122/54 
s 8
f 193/122/55 197/123/55 200/124/55 
f 200/124/55 194/121/55 193/122/55 
s 16
f 194/122/56 200/123/56 199/124/56 
f 199/124/56 195/121/57 194/122/56 
s 32
f 195/122/58 199/123/58 198/124/58 
f 198/124/58 196/121/58 195/122/58 
s 64
f 196/122/59 198/123/59 197/124/59 
f 197/124/59 193/121/59 196/122/59 
# 12 faces

#
# object top_index_1
#

v  -3.4643 101.7339 1.9000
v  103.1550 101.7339 1.9000
v  103.1550 101.7339 -12.0519
v  -3.4643 101.7339 -12.0519
v  -3.4643 -1.7025 1.9000
v  -3.4643 -1.7025 -12.0519
v  103.1550 -1.7025 -12.0519
v  103.1550 -1.7025 1.9000
# 8 vertices

vn 0.0000 1.0000 0.0000
vn 0.0000 -1.0000 -0.0000
vn 0.0000 -0.0000 1.0000
vn 1.0000 -0.0000 -0.0000
vn 1.0000 0.0000 -0.0000
vn 0.0000 0.0000 -1.0000
vn -1.0000 0.0000 -0.0000
# 7 vertex normals

vt 1.0000 0.0000 0.0000
vt 0.0000 0.0000 0.0000
vt 0.0000 1.0000 0.0000
vt 1.0000 1.0000 0.0000
# 4 texture coords

g top_index_1
usemtl 02___Default
s 2
f 201/125/60 202/126/60 203/127/60 
f 203/127/60 204/128/60 201/125/60 
s 4
f 205/126/61 206/127/61 207/128/61 
f 207/128/61 208/125/61 205/126/61 
s 8
f 201/126/62 205/127/62 208/128/62 
f 208/128/62 202/125/62 201/126/62 
s 16
f 202/126/63 208/127/63 207/128/63 
f 207/128/63 203/125/64 202/126/63 
s 32
f 203/126/65 207/127/65 206/128/65 
f 206/128/65 204/125/65 203/126/65 
s 64
f 204/126/66 206/127/66 205/128/66 
f 205/128/66 201/125/66 204/126/66 
# 12 faces

#
# object top_index_2
#

v  -3.4643 -1.7397 1.8344
v  103.1550 -1.7397 1.8344
v  103.1550 12.2122 1.8344
v  -3.4643 12.2122 1.8344
v  -3.4643 -1.7397 -101.6019
v  -3.4643 12.2123 -101.6019
v  103.1550 12.2123 -101.6019
v  103.1550 -1.7397 -101.6019
# 8 vertices

vn 0.0000 -0.0000 1.0000
vn 0.0000 0.0000 -1.0000
vn 0.0000 -1.0000 -0.0000
vn 1.0000 0.0000 -0.0000
vn 1.0000 0.0000 0.0000
vn 0.0000 1.0000 0.0000
vn -1.0000 0.0000 -0.0000
# 7 vertex normals

vt 1.0000 0.0000 0.0000
vt 0.0000 0.0000 0.0000
vt 0.0000 1.0000 0.0000
vt 1.0000 1.0000 0.0000
# 4 texture coords

g top_index_2
usemtl 02___Default
s 2
f 209/129/67 210/130/67 211/131/67 
f 211/131/67 212/132/67 209/129/67 
s 4
f 213/130/68 214/131/68 215/132/68 
f 215/132/68 216/129/68 213/130/68 
s 8
f 209/130/69 213/131/69 216/132/69 
f 216/132/69 210/129/69 209/130/69 
s 16
f 210/130/70 216/131/70 215/132/70 
f 215/132/70 211/129/71 210/130/70 
s 32
f 211/130/72 215/131/72 214/132/72 
f 214/132/72 212/129/72 211/130/72 
s 64
f 212/130/73 214/131/73 213/132/73 
f 213/132/73 209/129/73 212/130/73 
# 12 faces

