# 3ds Max Wavefront OBJ Exporter v0.97b - (c)2007 guruware
# File Created: 06.04.2021 11:48:03

mtllib ¯\stonestove.mtl

#
# object base
#

v  0.0000 0.0000 -100.0000
v  0.0000 100.0000 -100.0000
v  100.0000 100.0000 -100.0000
v  100.0000 0.0000 -100.0000
v  0.0000 0.0000 -0.0000
v  100.0000 0.0000 -0.0000
v  100.0000 100.0000 -0.0000
v  0.0000 100.0000 -0.0000
# 8 vertices

vn 0.0000 0.0000 -1.0000
vn 0.0000 0.0000 1.0000
vn 0.0000 -1.0000 -0.0000
vn 1.0000 0.0000 -0.0000
vn 0.0000 1.0000 -0.0000
vn -1.0000 0.0000 -0.0000
# 6 vertex normals

vt 0.9944 0.0061 1.4142
vt 0.9944 0.9938 1.4142
vt 0.0064 0.9938 1.4142
vt 0.0064 0.0061 1.4142
vt 0.0064 0.9938 0.0000
vt 0.9944 0.9938 -0.0000
vt 0.9944 0.0061 0.0000
vt 0.0064 0.0061 0.0000
vt 0.9944 0.9938 1.0000
vt 0.0064 0.9938 1.0000
vt 0.0064 0.0061 1.0000
vt 0.9944 0.0061 1.0000
# 12 texture coords

g base
usemtl Material__25
s 1
f 1/1/1 2/2/1 3/3/1 
f 3/3/1 4/4/1 1/1/1 
f 5/4/2 6/1/2 7/2/2 
f 7/2/2 8/3/2 5/4/2 
f 1/5/3 4/6/3 6/7/3 
f 6/7/3 5/8/3 1/5/3 
f 4/1/4 3/2/4 7/3/4 
f 7/3/4 6/4/4 4/1/4 
f 3/9/5 2/10/5 8/11/5 
f 8/11/5 7/12/5 3/9/5 
f 2/3/6 1/4/6 5/1/6 
f 5/1/6 8/2/6 2/3/6 
# 12 faces

