# 3ds Max Wavefront OBJ Exporter v0.97b - (c)2007 guruware
# File Created: 16.12.2020 15:28:02

mtllib statuebase.mtl

#
# object down
#

v  -0.1968 -0.0000 0.1969
v  -0.1968 0.0000 -50.0000
v  50.0000 -0.0000 0.1968
v  50.0000 19.6851 -4.8228
v  50.0000 19.6851 -50.0000
v  4.8228 19.6851 -50.0000
v  4.8228 19.6851 -4.8228
v  100.1969 0.0000 -50.0000
v  95.1772 19.6851 -50.0000
v  95.1772 19.6851 -4.8228
v  100.1969 -0.0000 0.1968
v  50.0000 0.0000 -100.1969
v  50.0000 19.6851 -95.1772
v  95.1772 19.6851 -95.1772
v  100.1968 0.0000 -100.1969
v  4.8228 19.6851 -95.1772
v  -0.1969 0.0000 -100.1968
v  7.5000 19.6829 -7.5000
v  7.5000 19.6829 -92.5000
v  92.5000 19.6829 -92.5000
v  92.5000 19.6829 -7.5000
v  7.5000 100.0000 -7.5000
v  92.5000 100.0000 -7.5000
v  92.5000 100.0000 -92.5000
v  7.5000 100.0000 -92.5000
# 25 vertices

vn -0.0000 -1.0000 -0.0000
vn 0.0000 1.0000 -0.0000
vn 0.0000 0.2471 0.9690
vn 0.9690 0.2471 -0.0000
vn -0.0000 0.2471 -0.9690
vn -0.9690 0.2471 0.0000
vn 0.0000 -1.0000 -0.0000
vn 0.0000 1.0000 0.0000
vn 0.0000 0.0000 1.0000
vn 1.0000 0.0000 -0.0000
vn -0.0000 0.0000 -1.0000
vn -1.0000 -0.0000 0.0000
vn -1.0000 0.0000 0.0000
# 13 vertex normals

vt 0.2466 0.5034 0.0000
vt 0.2466 0.6251 0.0000
vt 0.1250 0.5034 0.0000
vt 0.4952 0.5031 0.0000
vt 0.4952 0.6222 0.0000
vt 0.6143 0.6222 0.0000
vt 0.6143 0.5031 0.0000
vt 0.6205 0.5032 0.0000
vt 0.6205 0.6023 0.0000
vt 0.8053 0.6023 0.0000
vt 0.8053 0.5032 0.0000
vt 0.8120 0.5032 0.0000
vt 0.8120 0.6023 0.0000
vt 0.9968 0.6023 0.0000
vt 0.9968 0.5032 0.0000
vt 0.1250 0.7467 0.0000
vt 0.0034 0.6251 0.0000
vt 0.0034 0.7467 0.0000
vt 0.2466 0.7467 0.0000
vt 0.0034 0.5034 0.0000
vt 0.2466 0.9966 0.0000
vt 0.0034 0.9966 0.0000
vt 0.0034 0.7534 0.0000
vt 0.2466 0.7534 0.0000
vt 0.0030 0.0031 0.0000
vt 0.4970 0.0031 0.0000
vt 0.4970 0.4971 0.0000
vt 0.0030 0.4971 0.0000
vt 0.9970 0.0031 0.0000
vt 0.5030 0.0031 0.0000
vt 0.5030 0.4971 0.0000
vt 0.9970 0.4971 0.0000
# 32 texture coords

g down
usemtl Material__51
s 2
f 1/1/1 2/2/1 3/3/1 
s 4
f 4/4/2 5/5/2 6/6/2 
f 6/6/2 7/7/2 4/4/2 
s 8
f 3/8/3 4/9/3 7/10/3 
f 7/10/3 1/11/3 3/8/3 
s 16
f 8/12/4 9/13/4 10/14/4 
f 10/14/4 11/15/4 8/12/4 
s 32
f 12/8/5 13/9/5 14/10/5 
f 14/10/5 15/11/5 12/8/5 
s 64
f 2/12/6 6/13/6 16/14/6 
f 16/14/6 17/15/6 2/12/6 
s 2
f 12/16/1 8/17/1 3/3/1 
s 4
f 10/7/2 9/6/2 5/5/2 
f 5/5/2 4/4/2 10/7/2 
s 8
f 3/8/3 11/11/3 10/10/3 
f 10/10/3 4/9/3 3/8/3 
s 32
f 12/8/5 17/11/5 16/10/5 
f 16/10/5 13/9/5 12/8/5 
s 4
f 13/4/2 16/7/2 6/6/2 
f 6/6/2 5/5/2 13/4/2 
s 16
f 8/12/4 15/15/4 14/14/4 
f 14/14/4 9/13/4 8/12/4 
s 64
f 2/12/6 1/15/6 7/14/6 
f 7/14/6 6/13/6 2/12/6 
s 4
f 14/7/2 13/4/2 5/5/2 
f 5/5/2 9/6/2 14/7/2 
s 2
f 2/2/1 12/16/1 3/3/1 
f 12/16/1 15/18/1 8/17/1 
f 2/2/1 17/19/1 12/16/1 
f 8/17/1 11/20/1 3/3/1 
f 18/20/7 19/18/7 20/19/7 
f 20/19/7 21/1/7 18/20/7 
s 4
f 22/21/8 23/22/8 24/23/8 
f 24/23/8 25/24/8 22/21/8 
s 8
f 18/25/9 21/26/9 23/27/9 
f 23/27/9 22/28/9 18/25/9 
s 16
f 21/29/10 20/30/10 24/31/10 
f 24/31/10 23/32/10 21/29/10 
s 32
f 20/25/11 19/26/11 25/27/11 
f 25/27/11 24/28/11 20/25/11 
s 64
f 19/29/12 18/30/13 22/31/13 
f 22/31/13 25/32/12 19/29/12 
# 42 faces

#
# object up
#

v  92.5000 0.0000 -92.5000
v  92.5000 0.0000 -7.5000
v  7.5000 0.0000 -7.5000
v  7.5000 0.0000 -92.5000
v  92.5000 100.0000 -92.5000
v  7.5000 100.0000 -92.5000
v  7.5000 100.0000 -7.5000
v  92.5000 100.0000 -7.5000
# 8 vertices

vn 0.0000 -1.0000 -0.0000
vn 0.0000 1.0000 -0.0000
vn 0.0000 0.0000 1.0000
vn 1.0000 0.0000 -0.0000
vn 0.0000 0.0000 -1.0000
vn -1.0000 0.0000 -0.0000
# 6 vertex normals

vt 0.2466 0.7467 0.0000
vt 0.2466 0.5034 0.0000
vt 0.0034 0.5034 0.0000
vt 0.0034 0.7467 0.0000
vt 0.0034 0.7534 0.0000
vt 0.2466 0.7534 0.0000
vt 0.2466 0.9966 0.0000
vt 0.0034 0.9966 0.0000
vt 0.4970 0.4971 0.0000
vt 0.0030 0.4971 0.0000
vt 0.0030 0.0031 0.0000
vt 0.4970 0.0031 0.0000
vt 0.5030 0.4971 0.0000
vt 0.9970 0.4971 0.0000
vt 0.9970 0.0031 0.0000
vt 0.5030 0.0031 0.0000
# 16 texture coords

g up
usemtl 08___Default
s 2
f 26/33/14 27/34/14 28/35/14 
f 28/35/14 29/36/14 26/33/14 
s 4
f 30/37/15 31/38/15 32/39/15 
f 32/39/15 33/40/15 30/37/15 
s 8
f 33/41/16 32/42/16 28/43/16 
f 28/43/16 27/44/16 33/41/16 
s 16
f 30/45/17 33/46/17 27/47/17 
f 27/47/17 26/48/17 30/45/17 
s 32
f 31/41/18 30/42/18 26/43/18 
f 26/43/18 29/44/18 31/41/18 
s 64
f 32/45/19 31/46/19 29/47/19 
f 29/47/19 28/48/19 32/45/19 
# 12 faces

