# 3ds Max Wavefront OBJ Exporter v0.97b - (c)2007 guruware
# File Created: 13.04.2021 20:59:41

mtllib ¹¤½³Ì¨\stonepot.mtl

#
# object base
#

v  40.0143 0.0000 -63.7442
v  31.5163 7.5201 -75.4406
v  50.0000 7.5201 -81.4463
v  50.0000 0.0000 -66.9887
v  33.8427 0.0000 -55.2498
v  20.0928 7.5201 -59.7174
v  33.8427 0.0000 -44.7502
v  20.0928 7.5201 -40.2826
v  40.0143 0.0000 -36.2558
v  31.5163 7.5201 -24.5594
v  50.0000 0.0000 -33.0113
v  50.0000 7.5201 -18.5537
v  59.9857 0.0000 -36.2558
v  68.4837 7.5201 -24.5594
v  66.1573 0.0000 -44.7502
v  79.9072 7.5201 -40.2826
v  66.1573 0.0000 -55.2498
v  79.9072 7.5201 -59.7175
v  59.9857 0.0000 -63.7442
v  68.4837 7.5201 -75.4406
v  50.0000 19.4642 -88.1543
v  27.5735 19.4642 -80.8675
v  26.4886 31.8433 -82.3607
v  50.0000 31.8433 -90.0000
v  13.7131 19.4642 -61.7903
v  11.9577 31.8433 -62.3607
v  13.7131 19.4642 -38.2097
v  11.9577 31.8433 -37.6393
v  27.5735 19.4642 -19.1325
v  26.4886 31.8433 -17.6393
v  50.0000 19.4642 -11.8457
v  50.0000 31.8433 -10.0000
v  72.4265 19.4642 -19.1325
v  73.5114 31.8433 -17.6393
v  86.2869 19.4642 -38.2097
v  88.0423 31.8433 -37.6393
v  86.2869 19.4642 -61.7903
v  88.0423 31.8433 -62.3607
v  72.4265 19.4642 -80.8675
v  73.5114 31.8433 -82.3607
v  50.0000 31.8433 -77.0310
v  65.8884 31.8433 -71.8686
v  34.1116 31.8433 -71.8686
v  24.2920 31.8433 -41.6470
v  24.2920 31.8433 -58.3530
v  34.1116 31.8433 -28.1314
v  50.0000 31.8433 -22.9690
v  50.0000 6.6075 -33.2518
v  61.2940 6.6075 -38.2492
v  61.2940 6.6075 -61.7508
v  50.0000 6.6075 -66.7482
v  38.7060 6.6075 -38.2492
v  38.7060 6.6075 -61.7508
v  75.7080 31.8433 -41.6470
v  65.8884 31.8433 -28.1314
v  75.7080 31.8433 -58.3531
v  50.0000 18.1218 -74.9496
v  66.7356 18.1218 -67.2949
v  33.2643 18.1218 -67.2949
v  26.2716 18.1218 -50.0000
v  33.2643 18.1218 -32.7051
v  50.0000 18.1218 -25.0504
v  66.7357 18.1218 -32.7051
v  73.7284 18.1218 -50.0000
v  65.9284 6.6075 -50.0000
v  34.0716 6.6075 -50.0000
v  102.3856 26.3775 -38.9997
v  102.3856 26.3775 -61.0002
v  103.6088 30.3332 -61.0002
v  103.6088 30.3332 -38.9997
v  93.0416 20.8223 -37.9569
v  93.0416 20.8223 -62.0432
v  89.4665 32.0794 -62.0437
v  89.4665 32.0794 -37.9563
v  87.5455 29.8701 -62.0462
v  87.5455 29.8701 -37.9538
v  84.7472 20.5477 -37.9613
v  84.7472 20.5477 -62.0389
v  -2.3856 26.3775 -38.9997
v  -3.6088 30.3332 -38.9997
v  -3.6088 30.3332 -61.0002
v  -2.3856 26.3775 -61.0002
v  6.9584 20.8223 -62.0432
v  6.9584 20.8223 -37.9569
v  10.5335 32.0794 -37.9563
v  10.5335 32.0794 -62.0437
v  12.4545 29.8701 -62.0462
v  12.4545 29.8701 -37.9538
v  15.2528 20.5477 -37.9613
v  15.2528 20.5477 -62.0389
# 90 vertices

vn -0.2712 -0.8872 -0.3733
vn -0.4248 -0.6911 -0.5847
vn -0.0000 -0.6911 -0.7228
vn -0.0000 -0.8872 -0.4615
vn -0.4389 -0.8872 -0.1426
vn -0.6874 -0.6911 -0.2233
vn -0.4389 -0.8872 0.1426
vn -0.6874 -0.6911 0.2233
vn -0.2712 -0.8872 0.3733
vn -0.4248 -0.6911 0.5847
vn -0.0000 -0.8872 0.4615
vn 0.0000 -0.6911 0.7228
vn 0.2712 -0.8872 0.3733
vn 0.4248 -0.6911 0.5847
vn 0.4389 -0.8872 0.1426
vn 0.6874 -0.6911 0.2233
vn 0.4389 -0.8872 -0.1426
vn 0.6874 -0.6911 -0.2233
vn 0.2712 -0.8872 -0.3733
vn 0.4248 -0.6911 -0.5847
vn -0.0000 -0.3135 -0.9496
vn -0.5582 -0.3135 -0.7682
vn -0.5814 -0.1475 -0.8002
vn -0.0000 -0.1475 -0.9891
vn -0.9031 -0.3135 -0.2934
vn -0.9407 -0.1475 -0.3056
vn -0.9031 -0.3135 0.2934
vn -0.9407 -0.1475 0.3056
vn -0.5582 -0.3135 0.7682
vn -0.5814 -0.1475 0.8002
vn -0.0000 -0.3135 0.9496
vn 0.0000 -0.1475 0.9891
vn 0.5582 -0.3135 0.7682
vn 0.5814 -0.1475 0.8002
vn 0.9031 -0.3135 0.2934
vn 0.9407 -0.1475 0.3056
vn 0.9031 -0.3135 -0.2934
vn 0.9407 -0.1475 -0.3056
vn 0.5582 -0.3135 -0.7682
vn 0.5814 -0.1475 -0.8002
vn 0.0000 -1.0000 -0.0000
vn 0.0000 1.0000 -0.0000
vn -0.0314 0.1823 0.9827
vn -0.0197 0.3694 0.9291
vn -0.6466 0.3940 0.6532
vn -0.5365 0.2369 0.8100
vn 0.5705 0.1934 0.7982
vn 0.6556 0.4024 0.6389
vn 0.9250 0.2253 0.3061
vn 0.9250 0.2253 -0.3061
vn 0.9096 0.4155 0.0006
vn 0.6466 0.3940 -0.6532
vn 0.0314 0.1823 -0.9827
vn 0.0197 0.3694 -0.9291
vn 0.5365 0.2369 -0.8100
vn -0.5705 0.1934 -0.7982
vn -0.6556 0.4024 -0.6389
vn -0.9250 0.2253 -0.3061
vn -0.9250 0.2253 0.3061
vn -0.9096 0.4155 -0.0006
vn -0.0038 0.5777 0.8162
vn -0.5983 0.5608 0.5723
vn 0.6025 0.5614 0.5673
vn 0.8291 0.5591 0.0026
vn 0.5983 0.5608 -0.5723
vn 0.0038 0.5777 -0.8162
vn -0.6025 0.5614 -0.5673
vn -0.8291 0.5591 -0.0026
vn 0.9554 -0.2954 -0.0000
vn 0.5110 -0.8596 -0.0000
vn 0.1225 0.9925 -0.0000
vn -0.7546 0.6562 -0.0000
vn 0.0331 -0.9995 -0.0000
vn 0.0433 0.0072 0.9990
vn 0.1354 -0.0419 0.9899
vn 0.0995 -0.0014 0.9950
vn 0.0409 0.0129 0.9991
vn -0.0005 -0.0007 1.0000
vn 0.0005 -0.0000 1.0000
vn 0.0475 0.0149 -0.9988
vn 0.0005 -0.0000 -1.0000
vn 0.0468 0.0088 -0.9989
vn 0.0798 -0.0016 -0.9968
vn 0.0709 -0.0219 -0.9972
vn -0.0005 -0.0006 -1.0000
vn -0.9554 -0.2954 -0.0000
vn -0.5110 -0.8596 -0.0000
vn -0.1225 0.9925 -0.0000
vn 0.7546 0.6562 -0.0000
vn -0.0331 -0.9995 -0.0000
vn -0.0433 0.0072 0.9990
vn -0.0409 0.0129 0.9991
vn -0.0995 -0.0014 0.9950
vn -0.1354 -0.0419 0.9899
vn 0.0005 -0.0007 1.0000
vn -0.0005 -0.0000 1.0000
vn -0.0475 0.0149 -0.9988
vn -0.0468 0.0088 -0.9989
vn -0.0005 -0.0000 -1.0000
vn -0.0798 -0.0016 -0.9968
vn -0.0709 -0.0219 -0.9972
vn 0.0005 -0.0006 -1.0000
# 102 vertex normals

vt 0.6064 0.0115 1.0000
vt 0.6064 0.1535 1.0000
vt 0.4126 0.1535 1.0000
vt 0.4126 0.0115 1.0000
vt 0.8060 0.0115 1.0000
vt 0.8060 0.1535 1.0000
vt 0.9819 0.0115 1.0000
vt 0.9819 0.1535 1.0000
vt 0.2196 0.0115 1.0000
vt 0.2196 0.1535 1.0000
vt 0.0200 0.1535 1.0000
vt 0.0200 0.0115 1.0000
vt 0.4126 0.2763 1.0000
vt 0.6064 0.2763 1.0000
vt 0.6064 0.3969 1.0000
vt 0.4126 0.3969 1.0000
vt 0.8060 0.2763 1.0000
vt 0.8060 0.3969 1.0000
vt 0.9819 0.2763 1.0000
vt 0.9819 0.3969 1.0000
vt 0.0200 0.2763 1.0000
vt 0.2196 0.2763 1.0000
vt 0.2196 0.3969 1.0000
vt 0.0200 0.3969 1.0000
vt 0.6604 0.6129 -0.2500
vt 0.6493 0.5787 -0.2500
vt 0.7655 0.5787 -0.2500
vt 0.7544 0.6129 -0.2500
vt 0.2196 0.4170 0.2500
vt 0.4126 0.4170 0.2500
vt 0.4126 0.5501 0.2500
vt 0.2196 0.5501 0.2500
vt 0.6064 0.4170 0.2500
vt 0.6064 0.5501 0.2500
vt 0.9819 0.4170 0.2500
vt 0.9819 0.5501 0.2500
vt 0.8060 0.5501 0.2500
vt 0.8060 0.4170 0.2500
vt 0.0200 0.5501 0.2500
vt 0.0200 0.4170 0.2500
vt 0.0102 0.7114 0.2500
vt 0.0362 0.6508 0.2500
vt 0.1619 0.6508 0.2500
vt 0.1878 0.7114 0.2500
vt 0.3392 0.9827 0.2500
vt 0.3392 0.8617 0.2500
vt 0.4891 0.8617 0.2500
vt 0.4891 0.9827 0.2500
vt 0.1893 0.9827 0.2500
vt 0.1893 0.8617 0.2500
vt 0.0781 0.9827 0.2500
vt 0.0184 0.9827 0.2500
vt 0.0189 0.8617 0.2500
vt 0.6003 0.9827 0.2500
vt 0.6598 0.8617 0.2500
vt 0.0779 0.9827 0.2500
vt 0.6599 0.9827 0.2500
vt 0.6004 0.9827 0.2500
vt 0.6596 0.8617 0.2500
vt 0.7254 0.6340 -0.2500
vt 0.6894 0.6340 -0.2500
vt 0.0990 0.6134 0.2500
vt 0.3392 0.7491 0.2500
vt 0.4891 0.7491 0.2500
vt 0.1893 0.7491 0.2500
vt 0.0187 0.7491 0.2500
vt 0.6596 0.7491 0.2500
vt 0.0186 0.7491 0.2500
vt 0.0186 0.8617 0.2500
vt 0.6824 0.6740 1.0000
vt 0.9905 0.6740 1.0000
vt 0.9905 0.7386 1.0000
vt 0.6824 0.7386 1.0000
vt 0.2203 0.5799 1.0000
vt 0.2203 0.6723 1.0000
vt 0.4035 0.6723 1.0000
vt 0.4035 0.5799 1.0000
vt 0.9905 0.9198 1.0000
vt 0.6824 0.9198 1.0000
vt 0.9905 0.9790 1.0000
vt 0.6824 0.9790 1.0000
vt 0.2203 0.7160 1.0000
vt 0.4035 0.7160 1.0000
vt 0.5741 0.5751 1.0000
vt 0.6594 0.6574 1.0000
vt 0.6594 0.7221 1.0000
vt 0.4565 0.7221 1.0000
vt 0.4377 0.5751 1.0000
vt 0.4377 0.7221 1.0000
# 89 texture coords

g base
usemtl Material__470
s 1
f 1/1/1 2/2/2 3/3/3 
f 3/3/3 4/4/4 1/1/1 
f 5/5/5 6/6/6 2/2/2 
f 2/2/2 1/1/1 5/5/5 
f 7/7/7 8/8/8 6/6/6 
f 6/6/6 5/5/5 7/7/7 
f 9/9/9 10/10/10 8/11/8 
f 8/11/8 7/12/7 9/9/9 
f 11/4/11 12/3/12 10/10/10 
f 10/10/10 9/9/9 11/4/11 
f 13/1/13 14/2/14 12/3/12 
f 12/3/12 11/4/11 13/1/13 
f 15/5/15 16/6/16 14/2/14 
f 14/2/14 13/1/13 15/5/15 
f 17/7/17 18/8/18 16/6/16 
f 16/6/16 15/5/15 17/7/17 
f 19/9/19 20/10/20 18/11/18 
f 18/11/18 17/12/17 19/9/19 
f 4/4/4 3/3/3 20/10/20 
f 20/10/20 19/9/19 4/4/4 
f 21/13/21 22/14/22 23/15/23 
f 23/15/23 24/16/24 21/13/21 
f 22/14/22 25/17/25 26/18/26 
f 26/18/26 23/15/23 22/14/22 
f 25/17/25 27/19/27 28/20/28 
f 28/20/28 26/18/26 25/17/25 
f 27/21/27 29/22/29 30/23/30 
f 30/23/30 28/24/28 27/21/27 
f 29/22/29 31/13/31 32/16/32 
f 32/16/32 30/23/30 29/22/29 
f 31/13/31 33/14/33 34/15/34 
f 34/15/34 32/16/32 31/13/31 
f 33/14/33 35/17/35 36/18/36 
f 36/18/36 34/15/34 33/14/33 
f 35/17/35 37/19/37 38/20/38 
f 38/20/38 36/18/36 35/17/35 
f 37/21/37 39/22/39 40/23/40 
f 40/23/40 38/24/38 37/21/37 
f 39/22/39 21/13/21 24/16/24 
f 24/16/24 40/23/40 39/22/39 
s 2
f 13/25/41 11/26/41 4/27/41 
f 4/27/41 19/28/41 13/25/41 
f 40/29/42 24/30/42 41/31/42 
f 41/31/42 42/32/42 40/29/42 
f 23/33/42 43/34/42 41/31/42 
f 41/31/42 24/30/42 23/33/42 
f 28/35/42 44/36/42 45/37/42 
f 45/37/42 26/38/42 28/35/42 
f 23/33/42 26/38/42 45/37/42 
f 45/37/42 43/34/42 23/33/42 
f 30/29/42 46/32/42 44/39/42 
f 44/39/42 28/40/42 30/29/42 
f 30/29/42 32/30/42 47/31/42 
f 47/31/42 46/32/42 30/29/42 
f 48/41/42 49/42/42 50/43/42 
f 50/43/42 51/44/42 48/41/42 
f 52/42/42 48/41/42 51/44/42 
f 51/44/42 53/43/42 52/42/42 
f 34/33/42 36/38/42 54/37/42 
f 54/37/42 55/34/42 34/33/42 
f 38/35/42 56/36/42 54/37/42 
f 54/37/42 36/38/42 38/35/42 
f 34/33/42 55/34/42 47/31/42 
f 47/31/42 32/30/42 34/33/42 
f 40/29/42 42/32/42 56/39/42 
f 56/39/42 38/40/42 40/29/42 
s 1
f 41/45/43 57/46/44 58/47/45 
f 58/47/45 42/48/46 41/45/43 
f 43/49/47 59/50/48 57/46/44 
f 57/46/44 41/45/43 43/49/47 
f 43/49/47 45/51/49 59/50/48 
f 45/51/49 44/52/50 60/53/51 
f 44/54/50 61/47/52 60/55/51 
f 47/45/53 62/46/54 61/47/52 
f 61/47/52 46/48/55 47/45/53 
f 55/49/56 63/50/57 62/46/54 
f 62/46/54 47/45/53 55/49/56 
f 55/49/56 54/56/58 63/50/57 
f 54/57/58 56/58/59 64/59/60 
f 56/58/59 58/47/45 64/59/60 
s 2
f 9/25/41 1/28/41 4/27/41 
f 4/27/41 11/26/41 9/25/41 
f 17/60/41 15/61/41 13/25/41 
f 13/25/41 19/28/41 17/60/41 
f 7/61/41 5/60/41 1/28/41 
f 1/28/41 9/25/41 7/61/41 
f 49/42/42 65/62/42 50/43/42 
f 53/43/42 66/62/42 52/42/42 
s 1
f 22/14/22 21/13/21 3/3/3 
f 3/3/3 2/2/2 22/14/22 
f 25/17/25 22/14/22 2/2/2 
f 2/2/2 6/6/6 25/17/25 
f 27/19/27 25/17/25 6/6/6 
f 6/6/6 8/8/8 27/19/27 
f 29/22/29 27/21/27 8/11/8 
f 8/11/8 10/10/10 29/22/29 
f 31/13/31 29/22/29 10/10/10 
f 10/10/10 12/3/12 31/13/31 
f 33/14/33 31/13/31 12/3/12 
f 12/3/12 14/2/14 33/14/33 
f 35/17/35 33/14/33 14/2/14 
f 14/2/14 16/6/16 35/17/35 
f 37/19/37 35/17/35 16/6/16 
f 16/6/16 18/8/18 37/19/37 
f 39/22/39 37/21/37 18/11/18 
f 18/11/18 20/10/20 39/22/39 
f 21/13/21 39/22/39 20/10/20 
f 20/10/20 3/3/3 21/13/21 
f 51/63/61 50/64/62 58/47/45 
f 58/47/45 57/46/44 51/63/61 
f 53/65/63 51/63/61 57/46/44 
f 57/46/44 59/50/48 53/65/63 
f 66/66/64 53/65/63 59/50/48 
f 59/50/48 60/53/51 66/66/64 
f 52/64/65 66/67/64 60/55/51 
f 60/55/51 61/47/52 52/64/65 
f 48/63/66 52/64/65 61/47/52 
f 61/47/52 62/46/54 48/63/66 
f 49/65/67 48/63/66 62/46/54 
f 62/46/54 63/50/57 49/65/67 
f 65/68/68 49/65/67 63/50/57 
f 63/50/57 64/69/60 65/68/68 
f 50/64/62 65/67/68 64/59/60 
f 64/59/60 58/47/45 50/64/62 
f 45/51/49 60/53/51 59/50/48 
f 44/54/50 46/48/55 61/47/52 
f 54/56/58 64/69/60 63/50/57 
f 56/58/59 42/48/46 58/47/45 
s 8
f 67/70/69 68/71/69 69/72/69 
f 69/72/69 70/73/69 67/70/69 
s 2
f 67/74/70 71/75/70 72/76/70 
f 72/76/70 68/77/70 67/74/70 
f 69/72/71 73/78/71 74/79/71 
f 74/79/71 70/73/71 69/72/71 
s 4
f 75/80/72 76/81/72 74/79/72 
f 74/79/72 73/78/72 75/80/72 
f 77/82/73 78/83/73 72/76/73 
f 72/76/73 71/75/73 77/82/73 
s 1
f 71/84/74 67/85/75 70/86/76 
f 70/86/76 74/87/77 71/84/74 
f 77/88/78 71/84/74 76/89/79 
f 71/84/74 74/87/77 76/89/79 
f 72/84/80 75/89/81 73/87/82 
f 68/85/83 72/84/80 73/87/82 
f 73/87/82 69/86/84 68/85/83 
f 72/84/80 78/88/85 75/89/81 
s 8
f 79/70/86 80/73/86 81/72/86 
f 81/72/86 82/71/86 79/70/86 
s 2
f 79/74/87 82/77/87 83/76/87 
f 83/76/87 84/75/87 79/74/87 
f 81/72/88 80/73/88 85/79/88 
f 85/79/88 86/78/88 81/72/88 
s 4
f 87/80/89 86/78/89 85/79/89 
f 85/79/89 88/81/89 87/80/89 
f 89/82/90 84/75/90 83/76/90 
f 83/76/90 90/83/90 89/82/90 
s 1
f 84/84/91 85/87/92 80/86/93 
f 80/86/93 79/85/94 84/84/91 
f 89/88/95 88/89/96 84/84/91 
f 84/84/91 88/89/96 85/87/92 
f 83/84/97 86/87/98 87/89/99 
f 82/85/100 81/86/101 86/87/98 
f 86/87/98 83/84/97 82/85/100 
f 83/84/97 87/89/99 90/88/102 
# 164 faces

