# Max2Obj Version 4.0 Mar 10th, 2001
#
# object base to come ...
#
v  71.373543 90.112267 -41.345093
v  28.626457 90.112267 -41.345093
v  19.773249 68.738724 -41.345097
v  50.000004 38.511974 -41.345097
v  71.373543 47.365189 -41.345097
v  80.226753 68.738724 -58.654121
v  71.373543 90.112267 -58.654121
v  50.000000 98.965477 -58.654118
v  28.626457 90.112267 -58.654121
v  19.773249 68.738724 -58.654121
v  28.626461 47.365181 -58.654125
v  50.000004 38.511971 -58.654125
v  71.373543 47.365185 -58.654125
v  80.226753 68.738724 -41.345097
v  50.000000 98.965477 -41.345093
v  28.626461 47.365181 -41.345097
v  44.644474 -1.274104 -46.211868
v  55.355526 -1.274104 -46.211868
v  45.400661 52.663582 -46.211864
v  54.599339 52.663582 -46.211864
v  44.644474 -1.274104 -53.788124
v  55.355526 -1.274104 -53.788124
v  45.400661 52.663582 -53.788120
v  54.599339 52.663582 -53.788120
v  53.681744 25.694736 -47.333973
v  46.318256 25.694736 -47.333973
v  46.318256 25.694736 -52.666016
v  53.681744 25.694736 -52.666016
v  50.000000 68.738724 -58.654121
v  50.000000 68.738724 -41.345097
# 30 vertices

vt  0.525322 0.511524 1.000000
vt  0.525322 0.760472 1.000000
vt  0.525322 0.970873 1.000000
vt  0.525322 0.760472 1.000000
vt  0.525322 0.511524 1.000000
vt  0.525322 0.262575 1.000000
vt  0.525322 0.030349 1.000000
vt  0.525322 0.262575 1.000000
vt  0.675956 0.511524 1.000000
vt  0.675956 0.760472 1.000000
vt  0.675956 0.970873 1.000000
vt  0.675956 0.760472 1.000000
vt  0.675956 0.511524 1.000000
vt  0.675956 0.262575 1.000000
vt  0.675956 0.030349 1.000000
vt  0.675956 0.262575 1.000000
vt  0.525322 0.970873 1.000000
vt  0.675956 0.970873 1.000000
vt  0.525322 0.030349 1.000000
vt  0.675956 0.030349 1.000000
vt  0.815035 0.028773 0.999501
vt  0.979998 0.028773 0.999501
vt  0.979998 0.500000 0.851540
vt  0.815035 0.500000 0.851540
vt  0.815035 0.028773 0.000499
vt  0.815035 0.500000 0.148460
vt  0.979998 0.500000 0.148460
vt  0.979998 0.028773 0.000499
vt  0.979998 0.971227 0.999501
vt  0.815035 0.971227 0.999501
vt  0.815035 0.971227 0.000499
vt  0.979998 0.971227 0.000499
vt  0.780586 0.031221 0.000500
vt  0.709489 0.031221 0.000500
vt  0.709489 0.502448 0.156610
vt  0.780586 0.502448 0.156610
vt  0.780586 0.973675 0.928971
vt  0.709489 0.973675 0.928971
vt  0.709489 0.502448 0.843389
vt  0.780586 0.502448 0.843389
vt  0.709489 0.973675 0.071027
vt  0.780586 0.973675 0.071027
vt  0.709489 0.031221 0.999501
vt  0.780586 0.031221 0.999500
vt  0.050901 0.122926 0.419566
vt  0.050901 0.046141 -0.201501
vt  0.127685 0.046141 0.463958
vt  0.127685 0.122926 1.085026
vt  0.152776 0.831942 0.500000
vt  0.484238 0.969133 0.500000
vt  0.015839 0.500734 0.500000
vt  0.484238 0.032336 0.500000
vt  0.015585 0.500734 0.500000
vt  0.153030 0.831942 0.500000
vt  0.153030 0.169527 0.500000
vt  0.152776 0.169526 0.500000
vt  0.015585 0.500734 0.500000
vt  0.152776 0.831942 0.500000
vt  0.153030 0.831942 0.500000
vt  0.153030 0.169527 0.500000
vt  0.152776 0.169526 0.500000
vt  0.484238 0.969133 0.500000
vt  0.015839 0.500734 0.500000
vt  0.484238 0.032336 0.500000
vt  0.484238 0.500734 0.500000
vt  0.484238 0.500734 0.500000
vt  0.483984 0.969133 0.500000
vt  0.483984 0.032336 0.500000
vt  0.483984 0.969133 0.500000
vt  0.483984 0.032336 0.500000
vt  0.483984 0.500734 0.500000
vt  0.483984 0.500734 0.500000
# 72 texture vertices

vn  1.439535 1.439534 1.767123
vn  -1.439534 1.439534 1.767122
vn  -2.035809 -0.000000 1.767123
vn  0.000000 -2.035810 1.767126
vn  1.439535 -1.439534 1.767123
vn  2.035809 -0.000000 -1.767123
vn  1.439534 1.439534 -1.767123
vn  -0.000000 2.035809 -1.767124
vn  -1.439535 1.439534 -1.767123
vn  -2.035809 -0.000000 -1.767123
vn  -1.439534 -1.439535 -1.767122
vn  0.000000 -2.035809 -1.767120
vn  1.439535 -1.439534 -1.767123
vn  2.035809 0.000000 1.767123
vn  -0.000000 2.035809 1.767122
vn  -1.439534 -1.439535 1.767124
vn  0.000000 0.020587 2.262778
vn  0.000000 0.020587 2.262778
vn  -1.087505 -0.037002 0.000000
vn  0.000000 -0.020968 2.304721
vn  0.000000 0.020587 -2.262778
vn  0.000000 0.020587 -2.262778
vn  -1.087505 -0.037002 0.000000
vn  0.000000 -0.020968 -2.304721
vn  0.000000 0.022278 2.448658
vn  0.000000 0.022278 2.448658
vn  0.000000 0.022278 -2.448658
vn  0.000000 0.022278 -2.448658
vn  -0.000000 0.000000 -1.499981
vn  0.000000 -0.000000 1.499981
# 30 vertex normals

g base
s 1
f 6/1/6 7/2/7 1/10/1
f 1/10/1 14/9/14 6/1/6
f 7/2/7 8/17/8 15/18/15
f 15/18/15 1/10/1 7/2/7
f 8/3/8 9/4/9 2/12/2
f 2/12/2 15/11/15 8/3/8
f 9/4/9 10/5/10 3/13/3
f 3/13/3 2/12/2 9/4/9
f 10/5/10 11/6/11 16/14/16
f 16/14/16 3/13/3 10/5/10
f 11/6/11 12/7/12 4/15/4
f 4/15/4 16/14/16 11/6/11
f 12/19/12 13/8/13 5/16/5
f 5/16/5 4/20/4 12/19/12
f 13/8/13 6/1/6 14/9/14
f 14/9/14 5/16/5 13/8/13
f 10/51/10 9/54/9 29/65/29
f 14/57/14 1/58/1 30/72/30
s 2
f 18/22/18 25/23/25 26/24/26
f 26/24/26 17/21/17 18/22/18
s 4
f 27/26/27 28/27/28 22/28/22
f 22/28/22 21/25/21 27/26/27
s 8
f 17/45/17 21/46/21 22/47/22
f 22/47/22 18/48/18 17/45/17
s 16
f 22/34/22 28/35/28 25/36/25
f 25/36/25 18/33/18 22/34/22
s 64
f 23/38/23 27/39/27 26/40/26
f 26/40/26 19/37/19 23/38/23
s 2
f 20/29/20 19/30/19 26/24/26
f 26/24/26 25/23/25 20/29/20
s 4
f 23/31/23 24/32/24 28/27/28
f 28/27/28 27/26/27 23/31/23
s 16
f 24/41/24 20/42/20 25/36/25
f 25/36/25 28/35/28 24/41/24
s 64
f 21/43/21 17/44/17 26/40/26
f 26/40/26 27/39/27 21/43/21
s 1
f 15/62/15 2/59/2 30/66/30
f 8/67/8 7/49/7 29/71/29
f 13/56/13 12/68/12 29/71/29
f 29/65/29 11/55/11 10/51/10
f 9/54/9 8/50/8 29/65/29
f 29/71/29 6/53/6 13/56/13
f 7/49/7 6/53/6 29/71/29
f 29/65/29 12/52/12 11/55/11
f 16/60/16 4/64/4 30/66/30
f 30/72/30 4/70/4 5/61/5
f 1/58/1 15/69/15 30/72/30
f 30/66/30 2/59/2 3/63/3
f 3/63/3 16/60/16 30/66/30
f 30/72/30 5/61/5 14/57/14
# 50 faces

g
