# 3ds Max Wavefront OBJ Exporter v0.97b - (c)2007 guruware
# File Created: 14.01.2021 16:20:17

mtllib ??\tale_closet.mtl

#
# object base1
#

v  4.9298 -0.0000 -100.0000
v  100.0000 -0.0000 -100.0000
v  100.0000 0.0000 -0.0000
v  4.9298 0.0000 -0.0000
v  4.9298 173.9422 -50.0000
v  4.9298 173.9422 -0.0000
v  42.5386 173.9422 -0.0000
v  42.5386 173.9422 -50.0000
v  0.0000 100.0000 -4.9298
v  0.0000 173.9422 -4.9298
v  0.0000 173.9422 -50.0000
v  100.0000 100.0000 -100.0000
v  4.9298 100.0000 -100.0000
v  0.0000 -0.0000 -4.9298
v  0.0000 100.0000 -95.0702
v  0.0000 -0.0000 -95.0702
v  4.9298 173.9421 -100.0000
v  42.5386 173.9422 -100.0000
v  100.0000 100.0000 -0.0000
v  4.9298 100.0000 -0.0000
v  100.0000 200.0000 -0.0000
v  55.6982 188.2846 -100.0000
v  55.6982 188.2846 -50.0000
v  100.0000 200.0000 -100.0000
v  75.8159 197.9893 -100.0000
v  75.8159 197.9893 -50.0000
v  100.0000 200.0000 -50.0000
v  1.2325 100.0000 -98.7676
v  1.2325 173.9421 -98.7676
v  1.2325 100.0000 -1.2325
v  1.2325 -0.0000 -1.2324
v  1.2325 -0.0000 -98.7676
v  1.2325 173.9422 -1.2325
v  0.0000 173.9421 -95.0702
v  1.2325 173.9422 -50.0000
v  75.8159 197.9893 -0.0000
v  55.6982 188.2846 -0.0000
v  100.0000 136.0156 -0.0000
v  91.9599 140.3309 -0.0000
v  91.9599 140.3309 6.4191
v  100.0000 136.0156 6.4191
v  85.1441 138.2876 -0.0000
v  85.1441 138.2876 6.4191
v  80.6999 131.5328 -0.0000
v  80.6999 131.5328 6.4191
v  80.0015 123.3266 -0.0000
v  80.0015 123.3266 6.4191
v  83.9239 114.8178 -0.0000
v  83.9239 114.8178 6.4191
v  90.7771 107.3038 -0.0000
v  90.7771 107.3038 6.4191
v  96.7182 102.0630 -0.0000
v  96.7182 102.0630 6.4191
v  100.0000 100.1482 -0.0000
v  100.0000 100.1482 6.4191
v  91.8400 139.2461 7.5643
v  97.3601 102.8627 7.5643
v  100.0000 101.3224 7.5643
v  100.0000 134.8665 7.5644
v  85.8331 137.4454 7.5643
v  91.5375 107.9990 7.5644
v  81.7306 131.2099 7.5644
v  84.8263 115.3572 7.5644
v  81.0741 123.4968 7.5643
v  42.5386 95.3850 -0.0000
v  34.4985 99.7003 -0.0000
v  34.4985 99.7003 6.4191
v  42.5386 95.3850 6.4191
v  27.6827 97.6571 -0.0000
v  27.6827 97.6570 6.4191
v  23.2385 90.9022 -0.0000
v  23.2385 90.9022 6.4191
v  22.5401 82.6960 -0.0000
v  22.5401 82.6960 6.4191
v  26.4625 74.1872 -0.0000
v  26.4625 74.1872 6.4191
v  33.3157 66.6732 -0.0000
v  33.3157 66.6732 6.4191
v  39.2568 61.4324 -0.0000
v  39.2568 61.4324 6.4191
v  42.5386 59.5176 -0.0000
v  42.5386 59.5176 6.4191
v  34.3786 98.6155 7.5644
v  39.8987 62.2321 7.5644
v  42.5386 60.6918 7.5644
v  42.5386 94.2359 7.5644
v  28.3717 96.8148 7.5644
v  34.0761 67.3684 7.5644
v  24.2692 90.5793 7.5644
v  27.3649 74.7266 7.5644
v  23.6127 82.8662 7.5644
# 91 vertices

vn -0.1185 -0.6728 -0.7303
vn 0.0000 -0.7071 -0.7071
vn 0.0000 -0.7071 0.7071
vn -0.1185 -0.6728 0.7303
vn -0.0000 1.0000 -0.0000
vn -0.1185 0.6728 0.7303
vn -0.2361 0.5371 0.8098
vn -0.4024 0.9154 -0.0000
vn -0.9871 0.0000 0.1602
vn -0.7303 0.6728 0.1185
vn -0.7071 0.7071 -0.0000
vn 0.0000 -0.0000 -1.0000
vn -0.1602 -0.0000 -0.9871
vn -0.7303 -0.6728 0.1185
vn -0.9871 -0.0000 -0.1602
vn -0.7303 -0.6728 -0.1185
vn -0.1185 0.6728 -0.7303
vn -0.2361 0.5371 -0.8098
vn -0.0000 0.0000 1.0000
vn -0.1602 0.0000 0.9871
vn -0.0602 0.7235 0.6877
vn -0.4443 0.5980 -0.6671
vn -0.5963 0.8027 -0.0000
vn -0.0602 0.7235 -0.6877
vn -0.1957 0.7177 -0.6683
vn -0.2631 0.9648 -0.0000
vn -0.0829 0.9966 -0.0000
vn -0.7071 -0.0000 -0.7071
vn -0.5554 0.6189 -0.5554
vn -0.7071 0.0000 0.7071
vn -0.5554 -0.6189 0.5554
vn -0.5554 -0.6189 -0.5554
vn -0.5554 0.6189 0.5554
vn -0.7303 0.6728 -0.1185
vn -0.1957 0.7177 0.6683
vn -0.4443 0.5980 0.6671
vn 0.4729 0.8811 -0.0000
vn 0.1005 0.9949 -0.0000
vn 0.0948 0.9343 0.3435
vn 0.4357 0.8119 0.3886
vn -0.5972 0.8021 -0.0000
vn -0.5621 0.7515 0.3455
vn -0.9449 0.3273 0.0000
vn -0.8853 0.3055 0.3506
vn -0.9850 -0.1726 -0.0000
vn -0.9224 -0.1611 0.3511
vn -0.8333 -0.5528 -0.0000
vn -0.7808 -0.5167 0.3512
vn -0.7012 -0.7129 -0.0000
vn -0.6562 -0.6665 0.3538
vn -0.5855 -0.8107 -0.0000
vn -0.5492 -0.7590 0.3496
vn -0.5040 -0.8637 -0.0000
vn -0.4796 -0.8220 0.3069
vn 0.0463 0.4677 0.8827
vn -0.2504 -0.3483 0.9033
vn -0.2667 -0.4571 0.8485
vn 0.1441 0.2686 0.9524
vn -0.2735 0.3741 0.8861
vn -0.2934 -0.2990 0.9080
vn -0.4213 0.1477 0.8948
vn -0.3613 -0.2415 0.9006
vn -0.4400 -0.0781 0.8946
vn 0.8582 0.5134 0.0000
vn 0.1005 0.9949 0.0000
vn 0.7896 0.5535 0.2649
vn -0.5972 0.8021 0.0000
vn -0.9449 0.3273 -0.0000
vn 0.4980 -0.8672 -0.0000
vn 0.4345 -0.8438 0.3150
vn 0.5262 -0.4033 0.7487
vn 0.6827 0.1983 0.7033
# 72 vertex normals

vt 0.9860 0.2657 0.0000
vt 0.8549 0.2657 0.0000
vt 0.8549 0.3326 0.0000
vt 0.9860 0.3326 0.0000
vt 0.4700 0.0085 0.0000
vt 0.4700 0.2479 0.0000
vt 0.6585 0.2479 0.0000
vt 0.6585 0.0085 0.0000
vt 0.2749 0.6253 0.0000
vt 0.2748 0.3536 0.0000
vt 0.1992 0.3538 0.0000
vt 0.0085 0.6259 0.0000
vt 0.0085 0.9932 0.0000
vt 0.1107 0.9929 0.0000
vt 0.1106 0.6256 0.0000
vt 0.2751 0.9926 0.0000
vt 0.1236 0.6255 0.0000
vt 0.1237 0.9929 0.0000
vt 0.1105 0.3539 0.0000
vt 0.0701 0.3540 0.0000
vt 0.6518 0.6250 0.0000
vt 0.3097 0.6253 0.0000
vt 0.3100 0.9926 0.0000
vt 0.6518 0.9923 0.0000
vt 0.6518 0.2576 0.0000
vt 0.4449 0.3535 0.0000
vt 0.7561 0.2479 0.0000
vt 0.7561 0.0085 0.0000
vt 0.9898 0.2479 0.0000
vt 0.8681 0.2479 0.0000
vt 0.8681 0.0085 0.0000
vt 0.9898 0.0085 0.0000
vt 0.1171 0.6256 0.0000
vt 0.1170 0.3539 0.0000
vt 0.2922 0.6253 0.0000
vt 0.2926 0.9926 0.0000
vt 0.1172 0.9929 0.0000
vt 0.2919 0.3536 0.0000
vt 0.3095 0.3536 0.0000
vt 0.1235 0.3539 0.0000
vt 0.0085 0.2585 0.0000
vt 0.4514 0.2420 0.0000
vt 0.4514 0.0085 0.0000
vt 0.4452 0.2243 0.0000
vt 0.4452 0.0085 0.0000
vt 0.5647 0.2651 0.0000
vt 0.4923 0.3008 0.0000
vt 0.0560 0.3014 0.0000
vt 0.0344 0.2658 0.0000
vt 0.0209 0.0124 0.0000
vt 0.0105 0.0873 0.0000
vt 0.0610 0.0821 0.0000
vt 0.0813 0.0124 0.0000
vt 0.0384 0.1611 0.0000
vt 0.0806 0.1326 0.0000
vt 0.1137 0.2148 0.0000
vt 0.1347 0.1670 0.0000
vt 0.2058 0.2240 0.0000
vt 0.2015 0.1717 0.0000
vt 0.2971 0.1877 0.0000
vt 0.2711 0.1412 0.0000
vt 0.3710 0.1230 0.0000
vt 0.3318 0.0865 0.0000
vt 0.4169 0.0600 0.0000
vt 0.3709 0.0372 0.0000
vt 0.4288 0.0172 0.0000
vt 0.3818 0.0124 0.0000
vt 0.0732 0.0800 0.0000
vt 0.3601 0.0313 0.0000
vt 0.3709 0.0124 0.0000
vt 0.0994 0.0124 0.0000
vt 0.0897 0.1248 0.0000
vt 0.3223 0.0775 0.0000
vt 0.1387 0.1552 0.0000
vt 0.2646 0.1304 0.0000
vt 0.1997 0.1595 0.0000
vt 0.4273 0.2605 0.0000
vt 0.0784 0.2599 0.0000
vt 0.0896 0.2488 0.0000
vt 0.4158 0.2493 0.0000
vt 0.4271 0.3229 0.0000
vt 0.0784 0.3223 0.0000
vt 0.9911 0.2665 0.0000
vt 0.9911 0.3318 0.0000
vt 0.9928 0.2690 0.0000
vt 0.9928 0.3293 0.0000
# 86 texture coords

g base1
usemtl Material__1
s 1
f 1/1/1 2/2/2 3/3/3 
f 3/3/3 4/4/4 1/1/1 
f 5/5/5 6/6/6 7/7/7 
f 7/7/7 8/8/8 5/5/5 
f 9/9/9 10/10/10 11/11/11 
f 12/12/12 2/13/2 1/14/1 
f 1/14/1 13/15/13 12/12/12 
f 14/16/14 9/9/9 15/17/15 
f 15/17/15 16/18/16 14/16/14 
f 12/12/12 13/15/13 17/19/17 
f 17/19/17 18/20/18 12/12/12 
f 19/21/19 20/22/20 4/23/4 
f 4/23/4 3/24/3 19/21/19 
f 19/21/19 21/25/21 7/26/7 
f 22/27/22 18/7/18 8/8/8 
f 8/8/8 23/28/23 22/27/22 
f 24/29/24 25/30/25 26/31/26 
f 26/31/26 27/32/27 24/29/24 
f 28/33/28 29/34/29 17/19/17 
f 17/19/17 13/15/13 28/33/28 
f 30/35/30 31/36/31 4/23/4 
f 4/23/4 20/22/20 30/35/30 
f 32/37/32 28/33/28 13/15/13 
f 13/15/13 1/14/1 32/37/32 
f 33/38/33 30/35/30 20/22/20 
f 20/22/20 6/39/6 33/38/33 
f 15/17/15 34/40/34 29/34/29 
f 29/34/29 28/33/28 15/17/15 
f 9/9/9 14/16/14 31/36/31 
f 31/36/31 30/35/30 9/9/9 
f 16/18/16 15/17/15 28/33/28 
f 28/33/28 32/37/32 16/18/16 
f 10/10/10 9/9/9 30/35/30 
f 30/35/30 33/38/33 10/10/10 
f 20/22/20 19/21/19 7/26/7 
f 7/26/7 6/39/6 20/22/20 
f 12/12/12 18/20/18 24/41/24 
f 33/42/33 6/6/6 5/5/5 
f 5/5/5 35/43/5 33/42/33 
f 10/44/10 33/42/33 35/43/5 
f 35/43/5 11/45/11 10/44/10 
f 25/30/25 22/27/22 23/28/23 
f 23/28/23 26/31/26 25/30/25 
f 7/26/7 21/25/21 36/46/35 
f 36/46/35 37/47/36 7/26/7 
f 24/41/24 18/20/18 22/48/22 
f 22/48/22 25/49/25 24/41/24 
f 38/50/37 39/51/38 40/52/39 
f 40/52/39 41/53/40 38/50/37 
f 39/51/38 42/54/41 43/55/42 
f 43/55/42 40/52/39 39/51/38 
f 42/54/41 44/56/43 45/57/44 
f 45/57/44 43/55/42 42/54/41 
f 44/56/43 46/58/45 47/59/46 
f 47/59/46 45/57/44 44/56/43 
f 46/58/45 48/60/47 49/61/48 
f 49/61/48 47/59/46 46/58/45 
f 48/60/47 50/62/49 51/63/50 
f 51/63/50 49/61/48 48/60/47 
f 50/62/49 52/64/51 53/65/52 
f 53/65/52 51/63/50 50/62/49 
f 52/64/51 54/66/53 55/67/54 
f 55/67/54 53/65/52 52/64/51 
f 56/68/55 57/69/56 58/70/57 
f 58/70/57 59/71/58 56/68/55 
f 56/68/55 60/72/59 61/73/60 
f 61/73/60 57/69/56 56/68/55 
f 62/74/61 63/75/62 61/73/60 
f 61/73/60 60/72/59 62/74/61 
f 62/74/61 64/76/63 63/75/62 
f 41/53/40 40/52/39 56/68/55 
f 56/68/55 59/71/58 41/53/40 
f 40/52/39 43/55/42 60/72/59 
f 60/72/59 56/68/55 40/52/39 
f 43/55/42 45/57/44 62/74/61 
f 62/74/61 60/72/59 43/55/42 
f 45/57/44 47/59/46 64/76/63 
f 64/76/63 62/74/61 45/57/44 
f 47/59/46 49/61/48 63/75/62 
f 63/75/62 64/76/63 47/59/46 
f 49/61/48 51/63/50 61/73/60 
f 61/73/60 63/75/62 49/61/48 
f 51/63/50 53/65/52 57/69/56 
f 57/69/56 61/73/60 51/63/50 
f 53/65/52 55/67/54 58/70/57 
f 58/70/57 57/69/56 53/65/52 
f 65/50/64 66/51/65 67/52/39 
f 67/52/39 68/53/66 65/50/64 
f 66/51/65 69/54/67 70/55/42 
f 70/55/42 67/52/39 66/51/65 
f 69/54/67 71/56/68 72/57/44 
f 72/57/44 70/55/42 69/54/67 
f 71/56/68 73/58/45 74/59/46 
f 74/59/46 72/57/44 71/56/68 
f 73/58/45 75/60/47 76/61/48 
f 76/61/48 74/59/46 73/58/45 
f 75/60/47 77/62/49 78/63/50 
f 78/63/50 76/61/48 75/60/47 
f 77/62/49 79/64/51 80/65/52 
f 80/65/52 78/63/50 77/62/49 
f 79/64/51 81/66/69 82/67/70 
f 82/67/70 80/65/52 79/64/51 
f 83/68/55 84/69/56 85/70/71 
f 85/70/71 86/71/72 83/68/55 
f 83/68/55 87/72/59 88/73/60 
f 88/73/60 84/69/56 83/68/55 
f 89/74/61 90/75/62 88/73/60 
f 88/73/60 87/72/59 89/74/61 
f 89/74/61 91/76/63 90/75/62 
f 68/53/66 67/52/39 83/68/55 
f 83/68/55 86/71/72 68/53/66 
f 67/52/39 70/55/42 87/72/59 
f 87/72/59 83/68/55 67/52/39 
f 70/55/42 72/57/44 89/74/61 
f 89/74/61 87/72/59 70/55/42 
f 72/57/44 74/59/46 91/76/63 
f 91/76/63 89/74/61 72/57/44 
f 74/59/46 76/61/48 90/75/62 
f 90/75/62 91/76/63 74/59/46 
f 76/61/48 78/63/50 88/73/60 
f 88/73/60 90/75/62 76/61/48 
f 78/63/50 80/65/52 84/69/56 
f 84/69/56 88/73/60 78/63/50 
f 80/65/52 82/67/70 85/70/71 
f 85/70/71 84/69/56 80/65/52 
f 82/77/70 68/78/66 86/79/72 
f 86/79/72 85/80/71 82/77/70 
f 81/81/69 65/82/64 68/78/66 
f 68/78/66 82/77/70 81/81/69 
f 32/83/32 1/1/1 4/4/4 
f 4/4/4 31/84/31 32/83/32 
f 16/85/16 32/83/32 31/84/31 
f 31/84/31 14/86/14 16/85/16 
f 17/6/17 5/5/5 8/8/8 
f 8/8/8 18/7/18 17/6/17 
f 37/27/36 23/28/23 8/8/8 
f 8/8/8 7/7/7 37/27/36 
f 21/29/21 27/32/27 26/31/26 
f 26/31/26 36/30/35 21/29/21 
f 29/42/29 35/43/5 5/5/5 
f 5/5/5 17/6/17 29/42/29 
f 34/44/34 11/45/11 35/43/5 
f 35/43/5 29/42/29 34/44/34 
f 36/30/35 26/31/26 23/28/23 
f 23/28/23 37/27/36 36/30/35 
f 9/9/9 11/11/11 15/17/15 
f 15/17/15 11/11/11 34/40/34 
# 147 faces

#
# object base2
#

v  95.0702 0.0000 -0.0000
v  95.0702 0.0000 -100.0000
v  98.7675 0.0000 -98.7676
v  98.7675 0.0000 -1.2324
v  57.4614 173.9422 0.0000
v  95.0702 173.9422 0.0000
v  95.0702 173.9422 -50.0000
v  57.4614 173.9422 -50.0000
v  100.0000 100.0000 -4.9298
v  100.0000 100.0000 -95.0702
v  100.0000 173.9422 -50.0000
v  0.0000 100.0000 -100.0000
v  95.0702 100.0000 -100.0000
v  0.0000 0.0000 -100.0000
v  100.0000 0.0000 -4.9298
v  100.0000 0.0000 -95.0702
v  57.4614 173.9422 -100.0000
v  95.0702 173.9422 -100.0000
v  0.0000 100.0000 0.0000
v  0.0000 0.0000 -0.0000
v  95.0702 100.0000 0.0000
v  0.0000 200.0000 0.0000
v  44.3018 188.2846 -100.0000
v  44.3018 188.2846 -50.0000
v  24.1841 197.9893 -50.0000
v  24.1841 197.9893 -100.0000
v  0.0000 200.0000 -100.0000
v  0.0000 200.0000 -50.0000
v  98.7675 100.0000 -98.7675
v  98.7675 173.9422 -98.7675
v  98.7675 100.0000 -1.2324
v  98.7675 173.9422 -1.2324
v  100.0000 173.9422 -95.0702
v  100.0000 173.9422 -4.9298
v  98.7675 173.9422 -50.0000
v  44.3018 188.2846 0.0000
v  24.1841 197.9893 0.0000
v  19.9985 123.3266 0.0000
v  19.3001 131.5328 0.0000
v  19.3001 131.5328 6.4191
v  19.9985 123.3266 6.4191
v  14.8559 138.2876 0.0000
v  14.8559 138.2876 6.4191
v  8.0401 140.3309 0.0000
v  8.0401 140.3309 6.4191
v  -0.0000 136.0156 0.0000
v  -0.0000 136.0156 6.4191
v  0.0000 100.1482 0.0000
v  3.2818 102.0630 0.0000
v  3.2818 102.0630 6.4191
v  -0.0000 100.1482 6.4191
v  9.2229 107.3038 0.0000
v  9.2229 107.3038 6.4191
v  16.0761 114.8178 0.0000
v  16.0761 114.8178 6.4191
v  18.9259 123.4968 7.5644
v  18.2694 131.2099 7.5644
v  15.1737 115.3572 7.5644
v  -0.0000 134.8665 7.5644
v  -0.0000 101.3224 7.5644
v  2.6399 102.8627 7.5644
v  8.1600 139.2461 7.5644
v  8.4625 107.9990 7.5644
v  14.1669 137.4454 7.5644
v  57.4614 95.3850 0.0000
v  57.4614 95.3850 6.4191
v  65.5015 99.7003 6.4191
v  65.5015 99.7003 0.0000
v  72.3173 97.6570 6.4191
v  72.3173 97.6571 0.0000
v  76.7615 90.9022 6.4191
v  76.7615 90.9022 0.0000
v  77.4600 82.6960 6.4191
v  77.4600 82.6960 0.0000
v  73.5375 74.1872 6.4191
v  73.5375 74.1872 0.0000
v  66.6843 66.6732 6.4191
v  66.6843 66.6732 0.0000
v  60.7432 61.4324 6.4191
v  60.7432 61.4324 0.0000
v  57.4614 59.5176 6.4191
v  57.4614 59.5176 0.0000
v  65.6214 98.6155 7.5644
v  57.4614 94.2359 7.5644
v  57.4614 60.6918 7.5644
v  60.1013 62.2321 7.5644
v  65.9239 67.3684 7.5644
v  71.6283 96.8148 7.5644
v  75.7308 90.5793 7.5644
v  72.6351 74.7266 7.5644
v  76.3873 82.8662 7.5644
# 91 vertices

vn 0.1185 -0.6728 0.7303
vn 0.1185 -0.6728 -0.7303
vn 0.5554 -0.6189 -0.5554
vn 0.5554 -0.6189 0.5554
vn 0.2361 0.5371 0.8098
vn 0.1185 0.6728 0.7303
vn 0.0000 1.0000 0.0000
vn 0.4024 0.9154 0.0000
vn 0.9871 -0.0000 0.1602
vn 0.9871 0.0000 -0.1602
vn 0.7071 0.7071 0.0000
vn -0.0000 0.0000 -1.0000
vn 0.1602 0.0000 -0.9871
vn 0.0000 -0.7071 -0.7071
vn 0.7303 -0.6728 0.1185
vn 0.7303 -0.6728 -0.1185
vn 0.2361 0.5371 -0.8098
vn 0.1185 0.6728 -0.7303
vn 0.0000 -0.0000 1.0000
vn 0.0000 -0.7071 0.7071
vn 0.1602 -0.0000 0.9871
vn 0.0602 0.7235 0.6877
vn 0.4443 0.5980 -0.6671
vn 0.5963 0.8027 0.0000
vn 0.2631 0.9648 0.0000
vn 0.1957 0.7177 -0.6683
vn 0.0602 0.7235 -0.6877
vn 0.0829 0.9966 0.0000
vn 0.7071 0.0000 -0.7071
vn 0.5554 0.6189 -0.5554
vn 0.7071 -0.0000 0.7071
vn 0.5554 0.6189 0.5554
vn 0.7303 0.6728 -0.1185
vn 0.7303 0.6728 0.1185
vn -0.0000 1.0000 0.0000
vn 0.4443 0.5980 0.6671
vn 0.1957 0.7177 0.6683
vn 0.9850 -0.1726 -0.0000
vn 0.9449 0.3273 0.0000
vn 0.8853 0.3055 0.3506
vn 0.9224 -0.1611 0.3511
vn 0.5972 0.8021 0.0000
vn 0.5621 0.7515 0.3455
vn -0.1005 0.9949 -0.0000
vn -0.0948 0.9343 0.3435
vn -0.4729 0.8811 -0.0000
vn -0.4357 0.8119 0.3886
vn 0.5040 -0.8637 -0.0000
vn 0.5855 -0.8107 -0.0000
vn 0.5492 -0.7590 0.3496
vn 0.4796 -0.8220 0.3069
vn 0.7012 -0.7129 0.0000
vn 0.6562 -0.6665 0.3538
vn 0.8333 -0.5528 -0.0000
vn 0.7808 -0.5167 0.3512
vn 0.4400 -0.0781 0.8946
vn 0.4213 0.1477 0.8948
vn 0.3613 -0.2415 0.9006
vn -0.1441 0.2686 0.9524
vn 0.2667 -0.4571 0.8485
vn 0.2504 -0.3483 0.9033
vn -0.0463 0.4677 0.8827
vn 0.2934 -0.2990 0.9080
vn 0.2735 0.3741 0.8861
vn -0.8582 0.5134 0.0000
vn -0.7896 0.5535 0.2649
vn -0.1005 0.9949 0.0000
vn 0.9449 0.3273 -0.0000
vn 0.7012 -0.7129 -0.0000
vn -0.4345 -0.8438 0.3150
vn -0.4980 -0.8672 -0.0000
vn -0.0462 0.4677 0.8827
vn -0.6827 0.1983 0.7033
vn -0.5262 -0.4033 0.7487
# 74 vertex normals

vt 0.9860 0.3326 0.0000
vt 0.9860 0.2657 0.0000
vt 0.9911 0.2665 0.0000
vt 0.9911 0.3318 0.0000
vt 0.6585 0.2479 0.0000
vt 0.4700 0.2479 0.0000
vt 0.4700 0.0085 0.0000
vt 0.6585 0.0085 0.0000
vt 0.2749 0.6253 0.0000
vt 0.1236 0.6255 0.0000
vt 0.1992 0.3538 0.0000
vt 0.0085 0.6259 0.0000
vt 0.1106 0.6256 0.0000
vt 0.1107 0.9929 0.0000
vt 0.0085 0.9932 0.0000
vt 0.2751 0.9926 0.0000
vt 0.1237 0.9929 0.0000
vt 0.0701 0.3540 0.0000
vt 0.1105 0.3539 0.0000
vt 0.6518 0.6250 0.0000
vt 0.6518 0.9923 0.0000
vt 0.9936 0.9926 0.0000
vt 0.9939 0.6253 0.0000
vt 0.8587 0.3535 0.0000
vt 0.6518 0.2576 0.0000
vt 0.7561 0.2479 0.0000
vt 0.7561 0.0085 0.0000
vt 0.8681 0.0085 0.0000
vt 0.8681 0.2479 0.0000
vt 0.9898 0.2479 0.0000
vt 0.9898 0.0085 0.0000
vt 0.1171 0.6256 0.0000
vt 0.1170 0.3539 0.0000
vt 0.2922 0.6253 0.0000
vt 0.3097 0.6253 0.0000
vt 0.3101 0.9926 0.0000
vt 0.2926 0.9926 0.0000
vt 0.1172 0.9929 0.0000
vt 0.2919 0.3536 0.0000
vt 0.3095 0.3536 0.0000
vt 0.1235 0.3539 0.0000
vt 0.2748 0.3536 0.0000
vt 0.9941 0.3536 0.0000
vt 0.0085 0.2585 0.0000
vt 0.4514 0.2420 0.0000
vt 0.4514 0.0085 0.0000
vt 0.4452 0.2243 0.0000
vt 0.4452 0.0085 0.0000
vt 0.8113 0.3008 0.0000
vt 0.7389 0.2651 0.0000
vt 0.0344 0.2658 0.0000
vt 0.0560 0.3014 0.0000
vt 0.2058 0.2240 0.0000
vt 0.1137 0.2148 0.0000
vt 0.1347 0.1670 0.0000
vt 0.2015 0.1717 0.0000
vt 0.0384 0.1611 0.0000
vt 0.0806 0.1326 0.0000
vt 0.0105 0.0873 0.0000
vt 0.0610 0.0821 0.0000
vt 0.0209 0.0124 0.0000
vt 0.0813 0.0124 0.0000
vt 0.4288 0.0172 0.0000
vt 0.4169 0.0600 0.0000
vt 0.3709 0.0372 0.0000
vt 0.3818 0.0124 0.0000
vt 0.3710 0.1230 0.0000
vt 0.3318 0.0865 0.0000
vt 0.2971 0.1877 0.0000
vt 0.2711 0.1412 0.0000
vt 0.1997 0.1595 0.0000
vt 0.1387 0.1552 0.0000
vt 0.2646 0.1304 0.0000
vt 0.0994 0.0124 0.0000
vt 0.3709 0.0124 0.0000
vt 0.3599 0.0312 0.0000
vt 0.0732 0.0800 0.0000
vt 0.3223 0.0775 0.0000
vt 0.0897 0.1248 0.0000
vt 0.3601 0.0313 0.0000
vt 0.4273 0.2605 0.0000
vt 0.4158 0.2493 0.0000
vt 0.0896 0.2488 0.0000
vt 0.0784 0.2599 0.0000
vt 0.4271 0.3229 0.0000
vt 0.0784 0.3223 0.0000
vt 0.8549 0.3326 0.0000
vt 0.8549 0.2657 0.0000
vt 0.9928 0.3293 0.0000
vt 0.9928 0.2690 0.0000
# 90 texture coords

g base2
usemtl Material__1
s 1
f 92/87/73 93/88/74 94/89/75 
f 94/89/75 95/90/76 92/87/73 
f 96/91/77 97/92/78 98/93/79 
f 98/93/79 99/94/80 96/91/77 
f 100/95/81 101/96/82 102/97/83 
f 103/98/84 104/99/85 93/100/74 
f 93/100/74 105/101/86 103/98/84 
f 106/102/87 107/103/88 101/96/82 
f 101/96/82 100/95/81 106/102/87 
f 103/98/84 108/104/89 109/105/90 
f 109/105/90 104/99/85 103/98/84 
f 110/106/91 111/107/92 92/108/73 
f 92/108/73 112/109/93 110/106/91 
f 110/106/91 96/110/77 113/111/94 
f 99/94/80 108/91/89 114/112/95 
f 114/112/95 115/113/96 99/94/80 
f 116/114/97 117/115/98 118/116/99 
f 118/116/99 119/117/100 116/114/97 
f 120/118/101 104/99/85 109/105/90 
f 109/105/90 121/119/102 120/118/101 
f 122/120/103 112/121/93 92/122/73 
f 92/122/73 95/123/76 122/120/103 
f 94/124/75 93/100/74 104/99/85 
f 104/99/85 120/118/101 94/124/75 
f 123/125/104 97/126/78 112/121/93 
f 112/121/93 122/120/103 123/125/104 
f 101/96/82 120/118/101 121/119/102 
f 121/119/102 124/127/105 101/96/82 
f 100/95/81 122/120/103 95/123/76 
f 95/123/76 106/102/87 100/95/81 
f 107/103/88 94/124/75 120/118/101 
f 120/118/101 101/96/82 107/103/88 
f 125/128/106 123/125/104 122/120/103 
f 122/120/103 100/95/81 125/128/106 
f 112/109/93 97/129/78 96/110/77 
f 96/110/77 110/106/91 112/109/93 
f 103/98/84 118/130/99 108/104/89 
f 98/93/79 97/92/78 123/131/104 
f 123/131/104 126/132/107 98/93/79 
f 126/132/107 123/131/104 125/133/106 
f 125/133/106 102/134/83 126/132/107 
f 115/113/96 114/112/95 117/115/98 
f 117/115/98 116/114/97 115/113/96 
f 96/110/77 127/135/108 128/136/109 
f 128/136/109 113/111/94 96/110/77 
f 118/130/99 117/137/98 114/138/95 
f 114/138/95 108/104/89 118/130/99 
f 129/139/110 130/140/111 131/141/112 
f 131/141/112 132/142/113 129/139/110 
f 130/140/111 133/143/114 134/144/115 
f 134/144/115 131/141/112 130/140/111 
f 133/143/114 135/145/116 136/146/117 
f 136/146/117 134/144/115 133/143/114 
f 135/145/116 137/147/118 138/148/119 
f 138/148/119 136/146/117 135/145/116 
f 139/149/120 140/150/121 141/151/122 
f 141/151/122 142/152/123 139/149/120 
f 140/150/121 143/153/124 144/154/125 
f 144/154/125 141/151/122 140/150/121 
f 143/153/124 145/155/126 146/156/127 
f 146/156/127 144/154/125 143/153/124 
f 145/155/126 129/139/110 132/142/113 
f 132/142/113 146/156/127 145/155/126 
f 147/157/128 148/158/129 149/159/130 
f 150/160/131 151/161/132 152/162/133 
f 152/162/133 153/163/134 150/160/131 
f 153/163/134 152/162/133 154/164/135 
f 154/164/135 155/165/136 153/163/134 
f 155/165/136 154/164/135 149/159/130 
f 149/159/130 148/158/129 155/165/136 
f 132/142/113 131/141/112 148/158/129 
f 148/158/129 147/157/128 132/142/113 
f 131/141/112 134/144/115 155/165/136 
f 155/165/136 148/158/129 131/141/112 
f 134/144/115 136/146/117 153/163/134 
f 153/163/134 155/165/136 134/144/115 
f 136/146/117 138/148/119 150/160/131 
f 150/160/131 153/163/134 136/146/117 
f 142/152/123 141/151/122 152/162/133 
f 152/162/133 151/161/132 142/152/123 
f 141/151/122 144/154/125 154/164/135 
f 154/164/135 152/162/133 141/151/122 
f 144/154/125 146/156/127 149/159/130 
f 149/159/130 154/164/135 144/154/125 
f 146/156/127 132/142/113 147/157/128 
f 147/157/128 149/159/130 146/156/127 
f 156/147/137 157/148/138 158/146/117 
f 158/146/117 159/145/139 156/147/137 
f 159/145/139 158/146/117 160/144/115 
f 160/144/115 161/143/114 159/145/139 
f 161/143/114 160/144/115 162/141/112 
f 162/141/112 163/140/140 161/143/114 
f 163/140/140 162/141/112 164/142/113 
f 164/142/113 165/139/110 163/140/140 
f 165/139/110 164/142/113 166/156/127 
f 166/156/127 167/155/126 165/139/110 
f 167/155/126 166/156/127 168/154/125 
f 168/154/125 169/153/141 167/155/126 
f 169/153/141 168/154/125 170/151/122 
f 170/151/122 171/150/121 169/153/141 
f 171/150/121 170/151/122 172/152/142 
f 172/152/142 173/149/143 171/150/121 
f 174/163/144 175/160/145 176/161/146 
f 176/161/146 177/166/133 174/163/144 
f 174/163/144 177/166/133 178/164/135 
f 178/164/135 179/165/136 174/163/144 
f 180/158/129 179/165/136 178/164/135 
f 178/164/135 181/159/130 180/158/129 
f 180/158/129 181/159/130 182/157/128 
f 157/148/138 175/160/145 174/163/144 
f 174/163/144 158/146/117 157/148/138 
f 158/146/117 174/163/144 179/165/136 
f 179/165/136 160/144/115 158/146/117 
f 160/144/115 179/165/136 180/158/129 
f 180/158/129 162/141/112 160/144/115 
f 162/141/112 180/158/129 182/157/128 
f 182/157/128 164/142/113 162/141/112 
f 164/142/113 182/157/128 181/159/130 
f 181/159/130 166/156/127 164/142/113 
f 166/156/127 181/159/130 178/164/135 
f 178/164/135 168/154/125 166/156/127 
f 168/154/125 178/164/135 177/166/133 
f 177/166/133 170/151/122 168/154/125 
f 170/151/122 177/166/133 176/161/146 
f 176/161/146 172/152/142 170/151/122 
f 172/167/142 176/168/146 175/169/145 
f 175/169/145 157/170/138 172/167/142 
f 173/171/143 172/167/142 157/170/138 
f 157/170/138 156/172/137 173/171/143 
f 93/88/74 92/87/73 111/173/92 
f 111/173/92 105/174/86 93/88/74 
f 106/175/87 95/90/76 94/89/75 
f 94/89/75 107/176/88 106/175/87 
f 108/91/89 99/94/80 98/93/79 
f 98/93/79 109/92/90 108/91/89 
f 96/91/77 99/94/80 115/113/96 
f 115/113/96 127/112/108 96/91/77 
f 128/115/109 116/114/97 119/117/100 
f 119/117/100 113/116/94 128/115/109 
f 98/93/79 126/132/107 121/131/102 
f 121/131/102 109/92/90 98/93/79 
f 126/132/107 102/134/83 124/133/105 
f 124/133/105 121/131/102 126/132/107 
f 127/112/108 115/113/96 116/114/97 
f 116/114/97 128/115/109 127/112/108 
f 100/95/81 102/97/83 125/128/106 
f 102/97/83 101/96/82 124/127/105 
# 147 faces

