# 3ds Max Wavefront OBJ Exporter v0.97b - (c)2007 guruware
# File Created: 25.01.2021 14:47:59

mtllib tale_table.mtl

#
# object base2
#

v  50.0000 77.6879 -0.0000
v  50.0000 100.0000 -0.0000
v  25.0000 100.0000 -6.6987
v  25.0000 77.6879 -6.6987
v  6.6987 100.0000 -25.0000
v  6.6987 77.6879 -25.0000
v  0.0000 100.0000 -50.0000
v  0.0000 77.6879 -50.0000
v  50.0000 77.6879 -50.0000
v  0.0000 100.0000 -100.0000
v  0.0000 77.6879 -100.0000
v  50.0000 77.6879 -100.0000
v  50.0000 100.0000 -50.0000
v  50.0000 100.0000 -100.0000
v  24.8885 -0.2979 -31.5833
v  24.8899 79.8852 -29.8301
v  29.7705 79.8852 -27.8084
v  30.9661 -0.2979 -29.0659
v  31.7922 79.8852 -22.9277
v  33.4835 -0.2979 -22.9883
v  29.7705 79.8852 -18.0471
v  30.9661 -0.2979 -16.9108
v  24.8899 79.8852 -16.0254
v  24.8885 -0.2979 -14.3933
v  20.0092 79.8852 -18.0471
v  18.8109 -0.2979 -16.9108
v  17.9876 79.8852 -22.9277
v  16.2935 -0.2979 -22.9883
v  20.0092 79.8852 -27.8084
v  18.8109 -0.2979 -29.0659
v  75.0000 77.6879 -6.6987
v  75.0000 100.0000 -6.6987
v  93.3013 77.6879 -25.0000
v  93.3013 100.0000 -25.0000
v  100.0000 77.6879 -50.0000
v  100.0000 100.0000 -50.0000
v  100.0000 77.6879 -100.0000
v  100.0000 100.0000 -100.0000
v  75.1115 -0.2979 -31.5833
v  69.0339 -0.2979 -29.0659
v  70.2295 79.8852 -27.8084
v  75.1101 79.8852 -29.8301
v  66.5165 -0.2979 -22.9883
v  68.2078 79.8852 -22.9277
v  69.0339 -0.2979 -16.9108
v  70.2295 79.8852 -18.0471
v  75.1115 -0.2979 -14.3933
v  75.1101 79.8852 -16.0254
v  81.1891 -0.2979 -16.9108
v  79.9908 79.8852 -18.0471
v  83.7065 -0.2979 -22.9883
v  82.0124 79.8852 -22.9277
v  81.1891 -0.2979 -29.0659
v  79.9908 79.8852 -27.8084
# 54 vertices

vn 0.0000 0.0000 1.0000
vn -0.5000 0.0000 0.8660
vn -0.8660 0.0000 0.5000
vn -0.9914 0.0000 0.1305
vn 0.0000 -1.0000 -0.0000
vn -0.0000 -1.0000 -0.0000
vn -1.0000 -0.0000 -0.0000
vn -0.0000 1.0000 0.0000
vn 0.0000 1.0000 0.0000
vn -0.0000 0.0308 -0.9995
vn 0.0000 0.0308 -0.9995
vn 0.7069 0.0305 -0.7066
vn 0.7066 0.0305 -0.7069
vn 0.9996 0.0297 0.0003
vn 0.9996 0.0297 -0.0003
vn 0.7067 0.0290 0.7069
vn 0.7069 0.0290 0.7067
vn 0.0000 0.0287 0.9996
vn -0.0000 0.0287 0.9996
vn -0.7067 0.0290 0.7069
vn -0.7069 0.0290 0.7067
vn -0.9996 0.0298 0.0003
vn -0.9996 0.0298 -0.0003
vn -0.7069 0.0305 -0.7066
vn -0.7067 0.0305 -0.7069
vn 0.5000 0.0000 0.8660
vn 0.8660 0.0000 0.5000
vn 0.9914 0.0000 0.1305
vn 1.0000 0.0000 -0.0000
vn -0.7066 0.0305 -0.7069
vn -0.9996 0.0297 -0.0003
vn -0.9996 0.0297 0.0003
vn 0.9996 0.0298 -0.0003
vn 0.9996 0.0298 0.0003
vn 0.7067 0.0305 -0.7069
# 35 vertex normals

vt 0.7181 0.0100 1.0000
vt 0.7181 0.0862 1.0000
vt 0.5743 0.0862 1.0000
vt 0.5743 0.0100 1.0000
vt 0.4305 0.0862 1.0000
vt 0.4305 0.0100 1.0000
vt 0.2867 0.0862 1.0000
vt 0.2867 0.0100 1.0000
vt 0.2173 0.2040 0.0000
vt 0.1153 0.2040 0.0000
vt 0.2037 0.2550 0.0000
vt 0.0136 0.0862 1.0000
vt 0.0136 0.0100 1.0000
vt 0.2173 0.1020 0.0000
vt 0.1153 0.1020 0.0000
vt 0.1100 0.5472 0.0000
vt 0.5507 0.5472 0.0000
vt 0.1690 0.3269 0.0000
vt 0.5507 0.1065 0.0000
vt 0.9913 0.5472 0.0000
vt 0.9913 0.1065 0.0000
vt 0.1663 0.2924 0.0000
vt 0.1153 0.3060 0.0000
vt 0.3303 0.1656 0.0000
vt 0.0896 0.9891 1.0000
vt 0.0896 0.4004 1.0000
vt 0.0510 0.4004 1.0000
vt 0.0510 0.9891 1.0000
vt 0.0124 0.4004 1.0000
vt 0.0124 0.9891 1.0000
vt 0.1010 0.3652 -0.2500
vt 0.0640 0.3805 -0.2500
vt 0.0270 0.3652 -0.2500
vt 0.1163 0.3282 -0.2500
vt 0.0117 0.3282 -0.2500
# 35 texture coords

g base2
usemtl Material__3
s 2
f 1/1/1 2/2/1 3/3/2 
f 3/3/2 4/4/2 1/1/1 
f 4/4/2 3/3/2 5/5/3 
f 5/5/3 6/6/3 4/4/2 
f 6/6/3 5/5/3 7/7/4 
f 7/7/4 8/8/4 6/6/3 
s 1
f 8/9/5 9/10/6 6/11/5 
s 2
f 7/7/4 10/12/7 11/13/7 
f 11/13/7 8/8/4 7/7/4 
s 1
f 9/10/6 8/9/5 11/14/5 
f 11/14/5 12/15/6 9/10/6 
f 2/16/8 13/17/9 3/18/8 
f 7/19/8 13/17/9 14/20/9 
f 14/20/9 10/21/8 7/19/8 
f 4/22/5 9/10/6 1/23/5 
f 6/11/5 9/10/6 4/22/5 
f 5/24/8 13/17/9 7/19/8 
f 3/18/8 13/17/9 5/24/8 
f 15/25/10 16/26/11 17/27/12 
f 17/27/12 18/28/13 15/25/10 
f 18/28/13 17/27/12 19/29/14 
f 19/29/14 20/30/15 18/28/13 
f 20/30/15 19/29/14 21/27/16 
f 21/27/16 22/28/17 20/30/15 
f 22/28/17 21/27/16 23/26/18 
f 23/26/18 24/25/19 22/28/17 
f 24/25/19 23/26/18 25/27/20 
f 25/27/20 26/28/21 24/25/19 
f 26/28/21 25/27/20 27/29/22 
f 27/29/22 28/30/23 26/28/21 
f 28/30/23 27/29/22 29/27/24 
f 29/27/24 30/28/25 28/30/23 
f 30/28/25 29/27/24 16/26/11 
f 16/26/11 15/25/10 30/28/25 
s 2
f 30/31/6 15/32/6 18/33/6 
f 26/31/6 28/34/6 20/35/6 
f 20/35/6 22/33/6 26/31/6 
f 26/31/6 22/33/6 24/32/6 
f 28/34/6 30/31/6 18/33/6 
f 18/33/6 20/35/6 28/34/6 
f 1/1/1 31/4/26 32/3/26 
f 32/3/26 2/2/1 1/1/1 
f 31/4/26 33/6/27 34/5/27 
f 34/5/27 32/3/26 31/4/26 
f 33/6/27 35/8/28 36/7/28 
f 36/7/28 34/5/27 33/6/27 
s 1
f 35/9/6 33/11/6 9/10/6 
s 2
f 36/7/28 35/8/28 37/13/29 
f 37/13/29 38/12/29 36/7/28 
s 1
f 9/10/6 12/15/6 37/14/6 
f 37/14/6 35/9/6 9/10/6 
f 2/16/8 32/18/9 13/17/9 
f 36/19/9 38/21/9 14/20/9 
f 14/20/9 13/17/9 36/19/9 
f 31/22/6 1/23/5 9/10/6 
f 33/11/6 31/22/6 9/10/6 
f 34/24/9 36/19/9 13/17/9 
f 32/18/9 34/24/9 13/17/9 
f 39/25/11 40/28/30 41/27/24 
f 41/27/24 42/26/10 39/25/11 
f 40/28/30 43/30/31 44/29/32 
f 44/29/32 41/27/24 40/28/30 
f 43/30/31 45/28/21 46/27/20 
f 46/27/20 44/29/32 43/30/31 
f 45/28/21 47/25/18 48/26/19 
f 48/26/19 46/27/20 45/28/21 
f 47/25/18 49/28/17 50/27/16 
f 50/27/16 48/26/19 47/25/18 
f 49/28/17 51/30/33 52/29/34 
f 52/29/34 50/27/16 49/28/17 
f 51/30/33 53/28/35 54/27/12 
f 54/27/12 52/29/34 51/30/33 
f 53/28/35 39/25/11 42/26/10 
f 42/26/10 54/27/12 53/28/35 
s 2
f 53/31/5 40/33/5 39/32/5 
f 49/31/5 45/33/5 43/35/5 
f 43/35/5 51/34/5 49/31/5 
f 49/31/5 47/32/5 45/33/5 
f 51/34/5 43/35/5 40/33/5 
f 40/33/5 53/31/5 51/34/5 
# 80 faces

#
# object base4
#

v  0.0000 77.6879 -50.0000
v  6.6987 77.6879 -25.0000
v  6.6987 100.0000 -25.0000
v  0.0000 100.0000 -50.0000
v  25.0000 77.6879 -6.6987
v  25.0000 100.0000 -6.6987
v  50.0000 77.6879 -0.0000
v  50.0000 100.0000 -0.0000
v  50.0000 77.6879 -50.0000
v  50.0000 100.0000 -50.0000
v  31.5833 -0.2979 -24.8885
v  29.0659 -0.2979 -30.9661
v  27.8084 79.8852 -29.7705
v  29.8301 79.8852 -24.8899
v  22.9883 -0.2979 -33.4835
v  22.9277 79.8852 -31.7922
v  16.9108 -0.2979 -30.9661
v  18.0471 79.8852 -29.7705
v  14.3933 -0.2979 -24.8885
v  16.0254 79.8852 -24.8899
v  16.9108 -0.2979 -18.8109
v  18.0471 79.8852 -20.0092
v  22.9883 -0.2979 -16.2935
v  22.9277 79.8852 -17.9876
v  29.0659 -0.2979 -18.8109
v  27.8084 79.8852 -20.0092
v  100.0000 77.6879 -50.0000
v  100.0000 100.0000 -50.0000
v  93.3013 100.0000 -25.0000
v  93.3013 77.6879 -25.0000
v  75.0000 100.0000 -6.6987
v  75.0000 77.6879 -6.6987
v  68.4167 -0.2979 -24.8885
v  70.1699 79.8852 -24.8899
v  72.1916 79.8852 -29.7705
v  70.9341 -0.2979 -30.9661
v  77.0723 79.8852 -31.7922
v  77.0117 -0.2979 -33.4835
v  81.9529 79.8852 -29.7705
v  83.0892 -0.2979 -30.9661
v  83.9746 79.8852 -24.8899
v  85.6067 -0.2979 -24.8885
v  81.9529 79.8852 -20.0092
v  83.0892 -0.2979 -18.8109
v  77.0723 79.8852 -17.9876
v  77.0117 -0.2979 -16.2935
v  72.1916 79.8852 -20.0092
v  70.9341 -0.2979 -18.8109
v  6.6987 100.0000 -75.0000
v  6.6987 77.6879 -75.0000
v  25.0000 100.0000 -93.3013
v  25.0000 77.6879 -93.3013
v  50.0000 100.0000 -100.0000
v  50.0000 77.6879 -100.0000
v  31.5833 -0.2979 -75.1115
v  29.8301 79.8852 -75.1101
v  27.8084 79.8852 -70.2295
v  29.0659 -0.2979 -69.0339
v  22.9277 79.8852 -68.2078
v  22.9883 -0.2979 -66.5165
v  18.0471 79.8852 -70.2295
v  16.9108 -0.2979 -69.0339
v  16.0254 79.8852 -75.1101
v  14.3933 -0.2979 -75.1115
v  18.0471 79.8852 -79.9908
v  16.9108 -0.2979 -81.1891
v  22.9277 79.8852 -82.0124
v  22.9883 -0.2979 -83.7065
v  27.8084 79.8852 -79.9908
v  29.0659 -0.2979 -81.1891
v  93.3013 77.6879 -75.0000
v  93.3013 100.0000 -75.0000
v  75.0000 77.6879 -93.3013
v  75.0000 100.0000 -93.3013
v  68.4167 -0.2979 -75.1115
v  70.9341 -0.2979 -69.0339
v  72.1916 79.8852 -70.2295
v  70.1699 79.8852 -75.1101
v  77.0117 -0.2979 -66.5165
v  77.0723 79.8852 -68.2078
v  83.0892 -0.2979 -69.0339
v  81.9529 79.8852 -70.2295
v  85.6067 -0.2979 -75.1115
v  83.9746 79.8852 -75.1101
v  83.0892 -0.2979 -81.1891
v  81.9529 79.8852 -79.9908
v  77.0117 -0.2979 -83.7065
v  77.0723 79.8852 -82.0124
v  70.9341 -0.2979 -81.1891
v  72.1916 79.8852 -79.9908
# 90 vertices

vn -1.0000 -0.0000 0.0000
vn -0.8660 0.0000 0.5000
vn -1.0000 0.0000 0.0000
vn -0.5000 0.0000 0.8660
vn 0.0000 0.0000 1.0000
vn -0.0000 -1.0000 -0.0000
vn 0.0000 -1.0000 -0.0000
vn -0.0000 -1.0000 0.0000
vn 0.0000 1.0000 0.0000
vn -0.0000 1.0000 0.0000
vn 0.0000 -1.0000 0.0000
vn 0.9995 0.0308 0.0000
vn 0.7069 0.0305 -0.7066
vn 0.7066 0.0305 -0.7069
vn 0.9995 0.0308 -0.0000
vn 0.0003 0.0297 -0.9996
vn -0.0003 0.0297 -0.9996
vn -0.7067 0.0290 -0.7069
vn -0.7069 0.0290 -0.7067
vn -0.9996 0.0287 0.0000
vn -0.9996 0.0287 -0.0000
vn -0.7067 0.0290 0.7069
vn -0.7069 0.0290 0.7067
vn 0.0003 0.0298 0.9996
vn -0.0003 0.0298 0.9996
vn 0.7069 0.0305 0.7067
vn 0.7066 0.0305 0.7069
vn 1.0000 -0.0000 0.0000
vn 1.0000 0.0000 -0.0000
vn 0.8660 0.0000 0.5000
vn 0.5000 0.0000 0.8660
vn -0.9995 0.0308 0.0000
vn -0.9995 0.0308 -0.0000
vn -0.7066 0.0305 -0.7069
vn -0.7069 0.0305 -0.7066
vn 0.7069 0.0290 -0.7067
vn 0.7067 0.0290 -0.7069
vn 0.9996 0.0287 -0.0000
vn 0.9996 0.0287 0.0000
vn 0.7069 0.0290 0.7067
vn 0.7067 0.0290 0.7069
vn -0.7066 0.0305 0.7069
vn -0.7069 0.0305 0.7067
vn -0.8660 -0.0000 -0.5000
vn -0.5000 -0.0000 -0.8660
vn 0.0000 -0.0000 -1.0000
vn 0.0000 1.0000 -0.0000
vn 0.7069 0.0305 0.7066
vn -0.0003 0.0297 0.9996
vn 0.0003 0.0297 0.9996
vn -0.0003 0.0298 -0.9996
vn 0.0003 0.0298 -0.9996
vn 0.7069 0.0305 -0.7067
vn 0.8660 -0.0000 -0.5000
vn 0.5000 -0.0000 -0.8660
vn -0.0000 1.0000 -0.0000
vn -0.7069 0.0305 0.7066
vn -0.7069 0.0305 -0.7067
# 58 vertex normals

vt 0.7181 0.0100 1.0000
vt 0.5743 0.0100 1.0000
vt 0.5743 0.0862 1.0000
vt 0.7181 0.0862 1.0000
vt 0.4305 0.0100 1.0000
vt 0.4305 0.0862 1.0000
vt 0.2867 0.0100 1.0000
vt 0.2867 0.0862 1.0000
vt 0.2173 0.2040 0.0000
vt 0.2037 0.2550 0.0000
vt 0.1153 0.2040 0.0000
vt 0.1100 0.5472 0.0000
vt 0.1690 0.3269 0.0000
vt 0.5507 0.5472 0.0000
vt 0.1663 0.2924 0.0000
vt 0.1153 0.3060 0.0000
vt 0.3303 0.1656 0.0000
vt 0.5507 0.1065 0.0000
vt 0.0896 0.9891 1.0000
vt 0.0510 0.9891 1.0000
vt 0.0510 0.4004 1.0000
vt 0.0896 0.4004 1.0000
vt 0.0124 0.9891 1.0000
vt 0.0124 0.4004 1.0000
vt 0.1010 0.3652 -0.2500
vt 0.0270 0.3652 -0.2500
vt 0.0640 0.3805 -0.2500
vt 0.0117 0.3282 -0.2500
vt 0.1163 0.3282 -0.2500
# 29 texture coords

g base4
usemtl Material__3
s 2
f 55/36/36 56/37/37 57/38/37 
f 57/38/37 58/39/38 55/36/36 
f 56/37/37 59/40/39 60/41/39 
f 60/41/39 57/38/37 56/37/37 
f 59/40/39 61/42/40 62/43/40 
f 62/43/40 60/41/39 59/40/39 
s 1
f 61/44/41 59/45/42 63/46/43 
f 58/47/44 57/48/45 64/49/45 
f 56/50/42 55/51/46 63/46/43 
f 59/45/42 56/50/42 63/46/43 
f 60/52/45 62/53/44 64/49/45 
f 57/48/45 60/52/45 64/49/45 
f 65/54/47 66/55/48 67/56/49 
f 67/56/49 68/57/50 65/54/47 
f 66/55/48 69/58/51 70/59/52 
f 70/59/52 67/56/49 66/55/48 
f 69/58/51 71/55/53 72/56/54 
f 72/56/54 70/59/52 69/58/51 
f 71/55/53 73/54/55 74/57/56 
f 74/57/56 72/56/54 71/55/53 
f 73/54/55 75/55/57 76/56/58 
f 76/56/58 74/57/56 73/54/55 
f 75/55/57 77/58/59 78/59/60 
f 78/59/60 76/56/58 75/55/57 
f 77/58/59 79/55/61 80/56/62 
f 80/56/62 78/59/60 77/58/59 
f 79/55/61 65/54/47 68/57/50 
f 68/57/50 80/56/62 79/55/61 
s 2
f 79/60/46 66/61/46 65/62/46 
f 75/60/43 71/61/46 69/63/43 
f 69/63/43 77/64/43 75/60/43 
f 75/60/43 73/62/46 71/61/46 
f 77/64/43 69/63/43 66/61/46 
f 66/61/46 79/60/46 77/64/43 
f 81/36/63 82/39/64 83/38/65 
f 83/38/65 84/37/65 81/36/63 
f 84/37/65 83/38/65 85/41/66 
f 85/41/66 86/40/66 84/37/65 
f 86/40/66 85/41/66 62/43/40 
f 62/43/40 61/42/40 86/40/66 
s 1
f 61/44/41 63/46/43 86/45/41 
f 82/47/44 64/49/45 83/48/44 
f 84/50/41 63/46/43 81/51/41 
f 86/45/41 63/46/43 84/50/41 
f 85/52/44 64/49/45 62/53/44 
f 83/48/44 64/49/45 85/52/44 
f 87/54/67 88/57/68 89/56/69 
f 89/56/69 90/55/70 87/54/67 
f 90/55/70 89/56/69 91/59/51 
f 91/59/51 92/58/52 90/55/70 
f 92/58/52 91/59/51 93/56/71 
f 93/56/71 94/55/72 92/58/52 
f 94/55/72 93/56/71 95/57/73 
f 95/57/73 96/54/74 94/55/72 
f 96/54/74 95/57/73 97/56/75 
f 97/56/75 98/55/76 96/54/74 
f 98/55/76 97/56/75 99/59/59 
f 99/59/59 100/58/60 98/55/76 
f 100/58/60 99/59/59 101/56/77 
f 101/56/77 102/55/78 100/58/60 
f 102/55/78 101/56/77 88/57/68 
f 88/57/68 87/54/67 102/55/78 
s 2
f 102/60/43 87/62/46 90/61/43 
f 98/60/46 100/64/46 92/63/46 
f 92/63/46 94/61/43 98/60/46 
f 98/60/46 94/61/43 96/62/46 
f 100/64/46 102/60/43 90/61/43 
f 90/61/43 92/63/46 100/64/46 
f 55/36/36 58/39/38 103/38/79 
f 103/38/79 104/37/79 55/36/36 
f 104/37/79 103/38/79 105/41/80 
f 105/41/80 106/40/80 104/37/79 
f 106/40/80 105/41/80 107/43/81 
f 107/43/81 108/42/81 106/40/80 
s 1
f 108/44/43 63/46/43 106/45/46 
f 58/47/44 64/49/45 103/48/82 
f 104/50/46 63/46/43 55/51/46 
f 106/45/46 63/46/43 104/50/46 
f 105/52/82 64/49/45 107/53/82 
f 103/48/82 64/49/45 105/52/82 
f 109/54/50 110/57/47 111/56/62 
f 111/56/62 112/55/83 109/54/50 
f 112/55/83 111/56/62 113/59/84 
f 113/59/84 114/58/85 112/55/83 
f 114/58/85 113/59/84 115/56/58 
f 115/56/58 116/55/57 114/58/85 
f 116/55/57 115/56/58 117/57/55 
f 117/57/55 118/54/56 116/55/57 
f 118/54/56 117/57/55 119/56/54 
f 119/56/54 120/55/53 118/54/56 
f 120/55/53 119/56/54 121/59/86 
f 121/59/86 122/58/87 120/55/53 
f 122/58/87 121/59/86 123/56/49 
f 123/56/49 124/55/88 122/58/87 
f 124/55/88 123/56/49 110/57/47 
f 110/57/47 109/54/50 124/55/88 
s 2
f 124/60/42 109/62/42 112/61/42 
f 120/60/41 122/64/41 114/63/41 
f 114/63/41 116/61/42 120/60/41 
f 120/60/41 116/61/42 118/62/42 
f 122/64/41 124/60/42 112/61/42 
f 112/61/42 114/63/41 122/64/41 
f 81/36/63 125/37/89 126/38/89 
f 126/38/89 82/39/64 81/36/63 
f 125/37/89 127/40/90 128/41/90 
f 128/41/90 126/38/89 125/37/89 
f 127/40/90 108/42/81 107/43/81 
f 107/43/81 128/41/90 127/40/90 
s 1
f 108/44/43 127/45/43 63/46/43 
f 82/47/44 126/48/91 64/49/45 
f 125/50/43 81/51/41 63/46/43 
f 127/45/43 125/50/43 63/46/43 
f 128/52/91 107/53/82 64/49/45 
f 126/48/91 128/52/91 64/49/45 
f 129/54/68 130/55/92 131/56/77 
f 131/56/77 132/57/67 129/54/68 
f 130/55/92 133/58/84 134/59/85 
f 134/59/85 131/56/77 130/55/92 
f 133/58/84 135/55/76 136/56/75 
f 136/56/75 134/59/85 133/58/84 
f 135/55/76 137/54/73 138/57/74 
f 138/57/74 136/56/75 135/55/76 
f 137/54/73 139/55/72 140/56/71 
f 140/56/71 138/57/74 137/54/73 
f 139/55/72 141/58/86 142/59/87 
f 142/59/87 140/56/71 139/55/72 
f 141/58/86 143/55/93 144/56/69 
f 144/56/69 142/59/87 141/58/86 
f 143/55/93 129/54/68 132/57/67 
f 132/57/67 144/56/69 143/55/93 
s 2
f 143/60/41 130/61/41 129/62/42 
f 139/60/42 135/61/41 133/63/42 
f 133/63/42 141/64/42 139/60/42 
f 139/60/42 137/62/42 135/61/41 
f 141/64/42 133/63/42 130/61/41 
f 130/61/41 143/60/41 141/64/42 
# 136 faces

#
# object base1
#

v  0.0000 77.6879 -50.0000
v  6.6987 77.6879 -25.0000
v  6.6987 100.0000 -25.0000
v  0.0000 100.0000 -50.0000
v  25.0000 77.6879 -6.6987
v  25.0000 100.0000 -6.6987
v  50.0000 77.6879 -0.0000
v  50.0000 100.0000 -0.0000
v  50.0000 77.6879 -50.0000
v  100.0000 77.6879 -0.0000
v  100.0000 100.0000 -0.0000
v  100.0000 77.6879 -50.0000
v  50.0000 100.0000 -50.0000
v  100.0000 100.0000 -50.0000
v  0.0000 100.0000 -100.0000
v  0.0000 77.6879 -100.0000
v  50.0000 77.6879 -100.0000
v  50.0000 100.0000 -100.0000
v  100.0000 77.6879 -100.0000
v  100.0000 100.0000 -100.0000
v  31.5833 -0.2979 -24.8885
v  29.0659 -0.2979 -30.9661
v  27.8084 79.8852 -29.7705
v  29.8301 79.8852 -24.8899
v  22.9883 -0.2979 -33.4835
v  22.9277 79.8852 -31.7922
v  16.9108 -0.2979 -30.9661
v  18.0471 79.8852 -29.7705
v  14.3933 -0.2979 -24.8885
v  16.0254 79.8852 -24.8899
v  16.9108 -0.2979 -18.8109
v  18.0471 79.8852 -20.0092
v  22.9883 -0.2979 -16.2935
v  22.9277 79.8852 -17.9876
v  29.0659 -0.2979 -18.8109
v  27.8084 79.8852 -20.0092
# 36 vertices

vn -0.9914 0.0000 0.1305
vn -0.8660 0.0000 0.5000
vn -0.5000 0.0000 0.8660
vn -0.1305 0.0000 0.9914
vn 0.0000 -1.0000 -0.0000
vn 0.0000 0.0000 1.0000
vn -0.0000 1.0000 0.0000
vn -1.0000 0.0000 -0.0000
vn 0.9995 0.0308 0.0000
vn 0.7069 0.0305 -0.7066
vn 0.7066 0.0305 -0.7069
vn 0.9995 0.0308 -0.0000
vn 0.0003 0.0297 -0.9996
vn -0.0003 0.0297 -0.9996
vn -0.7067 0.0290 -0.7069
vn -0.7069 0.0290 -0.7067
vn -0.9996 0.0287 0.0000
vn -0.9996 0.0287 -0.0000
vn -0.7067 0.0290 0.7069
vn -0.7069 0.0290 0.7067
vn 0.0003 0.0298 0.9996
vn -0.0003 0.0298 0.9996
vn 0.7069 0.0305 0.7067
vn 0.7066 0.0305 0.7069
vn 0.0000 -1.0000 0.0000
vn -0.0000 -1.0000 0.0000
# 26 vertex normals

vt 0.7181 0.0100 1.0000
vt 0.5743 0.0100 1.0000
vt 0.5743 0.0862 1.0000
vt 0.7181 0.0862 1.0000
vt 0.4305 0.0100 1.0000
vt 0.4305 0.0862 1.0000
vt 0.2867 0.0100 1.0000
vt 0.2867 0.0862 1.0000
vt 0.2173 0.2040 0.0000
vt 0.2037 0.2550 0.0000
vt 0.1153 0.2040 0.0000
vt 0.0136 0.0100 1.0000
vt 0.0136 0.0862 1.0000
vt 0.1153 0.1020 0.0000
vt 0.2173 0.1020 0.0000
vt 0.1100 0.5472 0.0000
vt 0.1690 0.3269 0.0000
vt 0.5507 0.5472 0.0000
vt 0.5507 0.1065 0.0000
vt 0.9701 0.1065 0.0000
vt 0.9701 0.5472 0.0000
vt 0.1663 0.2924 0.0000
vt 0.1153 0.3060 0.0000
vt 0.3303 0.1656 0.0000
vt 0.9771 0.0862 1.0000
vt 0.9771 0.0100 1.0000
vt 0.0134 0.3060 0.0000
vt 0.0134 0.2040 0.0000
vt 0.5507 0.9697 0.0000
vt 0.1100 0.9697 0.0000
vt 0.0134 0.1020 0.0000
vt 0.9701 0.9697 0.0000
vt 0.0896 0.9891 1.0000
vt 0.0510 0.9891 1.0000
vt 0.0510 0.4004 1.0000
vt 0.0896 0.4004 1.0000
vt 0.0124 0.9891 1.0000
vt 0.0124 0.4004 1.0000
vt 0.1010 0.3652 -0.2500
vt 0.0270 0.3652 -0.2500
vt 0.0640 0.3805 -0.2500
vt 0.0117 0.3282 -0.2500
vt 0.1163 0.3282 -0.2500
# 43 texture coords

g base1
usemtl Material__3
s 2
f 145/65/94 146/66/95 147/67/95 
f 147/67/95 148/68/94 145/65/94 
f 146/66/95 149/69/96 150/70/96 
f 150/70/96 147/67/95 146/66/95 
f 149/69/96 151/71/97 152/72/97 
f 152/72/97 150/70/96 149/69/96 
s 1
f 151/73/98 149/74/98 153/75/98 
s 2
f 152/72/97 151/71/97 154/76/99 
f 154/76/99 155/77/99 152/72/97 
s 1
f 153/75/98 156/78/98 154/79/98 
f 154/79/98 151/73/98 153/75/98 
f 148/80/100 147/81/100 157/82/100 
f 152/83/100 155/84/100 158/85/100 
f 158/85/100 157/82/100 152/83/100 
f 146/86/98 145/87/98 153/75/98 
f 149/74/98 146/86/98 153/75/98 
f 150/88/100 152/83/100 157/82/100 
f 147/81/100 150/88/100 157/82/100 
s 2
f 148/68/94 159/89/101 160/90/101 
f 160/90/101 145/65/94 148/68/94 
s 1
f 153/75/98 145/87/98 160/91/98 
f 160/91/98 161/92/98 153/75/98 
f 148/80/100 157/82/100 162/93/100 
f 162/93/100 159/94/100 148/80/100 
f 156/78/98 153/75/98 161/92/98 
f 161/92/98 163/95/98 156/78/98 
f 157/82/100 158/85/100 164/96/100 
f 164/96/100 162/93/100 157/82/100 
f 165/97/102 166/98/103 167/99/104 
f 167/99/104 168/100/105 165/97/102 
f 166/98/103 169/101/106 170/102/107 
f 170/102/107 167/99/104 166/98/103 
f 169/101/106 171/98/108 172/99/109 
f 172/99/109 170/102/107 169/101/106 
f 171/98/108 173/97/110 174/100/111 
f 174/100/111 172/99/109 171/98/108 
f 173/97/110 175/98/112 176/99/113 
f 176/99/113 174/100/111 173/97/110 
f 175/98/112 177/101/114 178/102/115 
f 178/102/115 176/99/113 175/98/112 
f 177/101/114 179/98/116 180/99/117 
f 180/99/117 178/102/115 177/101/114 
f 179/98/116 165/97/102 168/100/105 
f 168/100/105 180/99/117 179/98/116 
s 2
f 179/103/118 166/104/118 165/105/118 
f 175/103/119 171/104/118 169/106/119 
f 169/106/119 177/107/119 175/103/119 
f 175/103/119 173/105/118 171/104/118 
f 177/107/119 169/106/119 166/104/118 
f 166/104/118 179/103/118 177/107/119 
# 50 faces

#
# object base5
#

v  100.0000 100.0000 -50.0000
v  100.0000 100.0000 -0.0000
v  100.0000 77.6879 -0.0000
v  100.0000 77.6879 -50.0000
v  50.0000 77.6879 -50.0000
v  50.0000 77.6879 0.0000
v  50.0000 100.0000 -50.0000
v  50.0000 100.0000 0.0000
v  0.0000 77.6879 0.0000
v  -0.0000 77.6879 -50.0000
v  -0.0000 100.0000 -50.0000
v  0.0000 100.0000 0.0000
v  100.0000 77.6879 -100.0000
v  100.0000 100.0000 -100.0000
v  50.0000 77.6879 -100.0000
v  50.0000 100.0000 -100.0000
v  -0.0000 77.6879 -100.0000
v  -0.0000 100.0000 -100.0000
# 18 vertices

vn 1.0000 0.0000 -0.0000
vn -0.0000 -1.0000 -0.0000
vn -0.0000 -1.0000 0.0000
vn 0.0000 1.0000 -0.0000
vn 0.0000 1.0000 0.0000
vn -1.0000 -0.0000 0.0000
# 6 vertex normals

vt 0.2867 0.0862 1.0000
vt 0.0136 0.0862 1.0000
vt 0.0136 0.0100 1.0000
vt 0.2867 0.0100 1.0000
vt 0.1153 0.2040 0.0000
vt 0.2173 0.2040 0.0000
vt 0.2173 0.1020 0.0000
vt 0.1153 0.1020 0.0000
vt 0.5574 0.1065 0.0000
vt 0.5574 0.5221 0.0000
vt 0.9699 0.5221 0.0000
vt 0.9699 0.1065 0.0000
vt 0.0134 0.1020 0.0000
vt 0.0134 0.2040 0.0000
vt 0.5574 0.1067 0.0000
vt 0.9699 0.1067 0.0000
# 16 texture coords

g base5
usemtl Material__3
s 2
f 181/108/120 182/109/120 183/110/120 
f 183/110/120 184/111/120 181/108/120 
s 1
f 185/112/121 184/113/121 183/114/122 
f 183/114/122 186/115/122 185/112/121 
f 181/116/123 187/117/123 188/118/123 
f 188/118/123 182/119/123 181/116/123 
f 186/115/122 189/120/122 190/121/121 
f 190/121/121 185/112/121 186/115/122 
f 187/117/123 191/122/124 192/123/123 
f 192/123/123 188/118/123 187/117/123 
s 2
f 181/108/120 184/111/120 193/110/120 
f 193/110/120 194/109/120 181/108/120 
s 1
f 185/112/121 195/115/121 193/114/121 
f 193/114/121 184/113/121 185/112/121 
f 181/116/123 194/119/124 196/118/124 
f 196/118/124 187/117/123 181/116/123 
f 195/115/121 185/112/121 190/121/121 
f 190/121/121 197/120/121 195/115/121 
f 187/117/123 196/118/124 198/123/124 
f 198/123/124 191/122/124 187/117/123 
s 2
f 191/108/125 190/111/125 189/110/125 
f 189/110/125 192/109/125 191/108/125 
f 191/108/125 198/109/125 197/110/125 
f 197/110/125 190/111/125 191/108/125 
# 24 faces

#
# object base0
#

v  100.0000 100.0000 -50.0000
v  100.0000 100.0000 -0.0000
v  100.0000 77.6879 -0.0000
v  100.0000 77.6879 -50.0000
v  50.0000 77.6879 -50.0000
v  50.0000 77.6879 -0.0000
v  50.0000 100.0000 -50.0000
v  50.0000 100.0000 -0.0000
v  0.0000 77.6879 0.0000
v  -0.0000 77.6879 -50.0000
v  -0.0000 100.0000 -50.0000
v  0.0000 100.0000 0.0000
v  100.0000 77.6879 -100.0000
v  100.0000 100.0000 -100.0000
v  50.0000 77.6879 -100.0000
v  50.0000 100.0000 -100.0000
v  -0.0000 77.6879 -100.0000
v  -0.0000 100.0000 -100.0000
# 18 vertices

vn 1.0000 -0.0000 -0.0000
vn 1.0000 0.0000 -0.0000
vn -0.0000 -1.0000 -0.0000
vn -0.0000 -1.0000 0.0000
vn 0.0000 1.0000 -0.0000
vn 0.0000 1.0000 0.0000
vn -1.0000 -0.0000 0.0000
# 7 vertex normals

vt 0.2867 0.0862 1.0000
vt 0.0136 0.0862 1.0000
vt 0.0136 0.0100 1.0000
vt 0.2867 0.0100 1.0000
vt 0.1153 0.2040 0.0000
vt 0.2173 0.2040 0.0000
vt 0.2173 0.1020 0.0000
vt 0.1153 0.1020 0.0000
vt 0.5574 0.1065 0.0000
vt 0.5574 0.5221 0.0000
vt 0.9699 0.5221 0.0000
vt 0.9699 0.1065 0.0000
vt 0.0134 0.1020 0.0000
vt 0.0134 0.2040 0.0000
vt 0.5574 0.9662 0.0000
vt 0.9699 0.9662 0.0000
# 16 texture coords

g base0
usemtl Material__3
s 2
f 199/124/126 200/125/126 201/126/126 
f 201/126/126 202/127/127 199/124/126 
s 1
f 203/128/128 202/129/128 201/130/129 
f 201/130/129 204/131/129 203/128/128 
f 199/132/130 205/133/130 206/134/130 
f 206/134/130 200/135/130 199/132/130 
f 204/131/129 207/136/129 208/137/128 
f 208/137/128 203/128/128 204/131/129 
f 205/133/130 209/138/131 210/139/130 
f 210/139/130 206/134/130 205/133/130 
s 2
f 199/124/126 202/127/127 211/126/126 
f 211/126/126 212/125/126 199/124/126 
s 1
f 203/128/128 213/131/128 211/130/128 
f 211/130/128 202/129/128 203/128/128 
f 199/132/130 212/135/131 214/134/131 
f 214/134/131 205/133/130 199/132/130 
f 213/131/128 203/128/128 208/137/128 
f 208/137/128 215/136/128 213/131/128 
f 205/133/130 214/134/131 216/139/131 
f 216/139/131 209/138/131 205/133/130 
s 2
f 209/124/132 208/127/132 207/126/132 
f 207/126/132 210/125/132 209/124/132 
f 209/124/132 216/125/132 215/126/132 
f 215/126/132 208/127/132 209/124/132 
# 24 faces

