# 3ds Max Wavefront OBJ Exporter v0.97b - (c)2007 guruware
# File Created: 25.01.2021 14:50:09

mtllib tale_desk.mtl

#
# object base1
#

v  1.7015 88.6230 -98.2988
v  1.7015 88.6230 -1.7011
v  1.0002 88.6230 -3.8049
v  1.0002 88.6230 -96.1950
v  3.6429 98.1329 -0.0001
v  3.6430 89.8390 0.0001
v  100.0000 89.8366 -0.0001
v  100.0000 98.1329 -0.0001
v  0.0000 98.1329 -96.3572
v  0.0002 89.8391 -96.3572
v  0.0002 89.8391 -3.6427
v  0.0000 98.1329 -3.6429
v  3.6429 98.1329 -100.0001
v  100.0000 98.1329 -100.0000
v  100.0000 89.8366 -100.0000
v  3.6430 89.8390 -100.0001
v  3.8051 100.0000 -99.0001
v  3.8051 100.0000 -1.0001
v  100.0000 100.0000 -1.0001
v  100.0000 100.0000 -99.0000
v  0.9109 89.8391 -0.9106
v  0.9107 98.1329 -0.9108
v  0.9109 89.8391 -99.0894
v  0.9107 98.1329 -99.0894
v  3.8053 88.6230 -99.0001
v  100.0000 88.6205 -99.0000
v  100.0000 88.6205 -1.0000
v  3.8053 88.6230 -0.9998
v  1.0000 100.0000 -3.8052
v  1.0000 100.0000 -96.1950
v  1.7013 100.0000 -1.7014
v  1.7013 100.0000 -98.2988
v  5.4145 0.2698 -1.6826
v  5.4145 0.2698 -95.0000
v  15.4145 0.2698 -95.0000
v  15.4145 0.2698 -1.6826
v  15.4145 12.4303 -1.6826
v  15.4145 12.4303 -12.3421
v  5.4145 12.4303 -12.3421
v  5.4145 12.4303 -1.6826
v  15.4145 6.3501 -0.2186
v  5.4145 6.3501 -0.2186
v  5.4145 6.3501 -96.4640
v  15.4145 6.3501 -96.4640
v  5.4145 12.4303 -95.0000
v  15.4145 12.4303 -95.0000
v  5.4145 12.4303 -26.4842
v  15.4145 12.4303 -26.4842
v  5.4145 89.5010 -89.8619
v  15.4145 89.5010 -89.8619
v  15.4145 61.1031 -52.3671
v  5.4145 73.2637 -62.3671
v  5.4145 89.5010 -75.7198
v  15.4145 89.5010 -75.7198
v  15.4145 73.2637 -62.3671
v  5.4145 61.1031 -52.3671
v  5.4145 73.6913 -22.0833
v  15.4145 73.6913 -22.0833
v  15.4145 89.5010 -22.0833
v  5.4145 89.5010 -22.0833
v  15.4145 89.5010 -32.0836
v  15.4145 79.4292 -32.0836
v  5.4145 79.4292 -32.0836
v  5.4145 89.5010 -32.0836
v  5.4145 61.1033 -32.4349
v  5.4145 73.2638 -37.3925
v  15.4145 61.1033 -32.4349
v  15.4145 73.2638 -37.3925
v  15.4145 64.2503 -24.6712
v  5.4145 64.2503 -24.6712
v  5.4145 74.7128 -33.3587
v  15.4145 74.7128 -33.3587
# 72 vertices

vn -0.0000 -1.0000 -0.0000
vn 0.0000 0.0000 1.0000
vn -0.0000 0.0000 1.0000
vn -1.0000 -0.0000 0.0000
vn 0.0000 -0.0000 -1.0000
vn 0.0000 0.0000 -1.0000
vn 0.0000 1.0000 -0.0000
vn -0.3162 0.0000 0.9487
vn -0.9487 -0.0000 -0.3162
vn -0.9487 -0.0000 0.3162
vn -0.3162 -0.0000 -0.9487
vn -0.0000 -0.7071 -0.7071
vn -0.0000 -0.7071 0.7071
vn -0.7071 -0.7071 0.0000
vn -0.0000 0.5458 0.8379
vn -0.8380 0.5457 -0.0000
vn -0.8379 0.5457 -0.0000
vn 0.0000 0.5458 -0.8379
vn -0.6708 -0.7071 0.2236
vn -0.2236 -0.7071 -0.6708
vn -0.2650 0.5458 0.7949
vn -0.7949 0.5457 -0.2650
vn -0.2236 -0.7071 0.6708
vn -0.6708 -0.7071 -0.2236
vn -0.7949 0.5458 0.2650
vn -0.2650 0.5458 -0.7949
vn -0.0000 1.0000 -0.0000
vn 0.0000 -1.0000 -0.0000
vn 0.0000 0.9239 0.3827
vn 0.0000 -0.2810 0.9597
vn 0.0000 -0.0000 1.0000
vn 1.0000 0.0000 -0.0000
vn 0.0000 -0.2810 -0.9597
vn -1.0000 0.0000 -0.0000
vn 0.0000 0.2810 0.9597
vn 0.0000 0.2810 -0.9597
vn 0.0000 -0.7071 -0.7071
vn 0.0000 0.7071 0.7071
vn 0.0000 -0.1602 0.9871
vn 0.0000 0.1581 -0.9874
vn 0.0000 -1.0000 0.0000
vn 0.0000 -0.9871 0.1602
vn 0.0000 0.9897 -0.1431
vn 0.0000 -0.7071 0.7071
vn 0.0000 0.7178 -0.6963
# 45 vertex normals

vt 0.7445 0.0129 0.0000
vt 0.7445 0.1077 0.0000
vt 0.7452 0.1056 0.0000
vt 0.7452 0.0149 0.0000
vt 0.6748 0.4422 0.0000
vt 0.6748 0.4834 0.0000
vt 0.9958 0.4834 0.0000
vt 0.9958 0.4422 0.0000
vt 0.3468 0.4422 0.0000
vt 0.3468 0.4834 0.0000
vt 0.6556 0.4834 0.0000
vt 0.6556 0.4422 0.0000
vt 0.3276 0.4422 0.0000
vt 0.0066 0.4422 0.0000
vt 0.0066 0.4834 0.0000
vt 0.3276 0.4834 0.0000
vt 0.0293 0.9829 0.0000
vt 0.0293 0.5016 0.0000
vt 0.5017 0.5016 0.0000
vt 0.5017 0.9829 0.0000
vt 0.6652 0.4834 0.0000
vt 0.6652 0.4422 0.0000
vt 0.3372 0.4834 0.0000
vt 0.3372 0.4422 0.0000
vt 0.7425 0.0122 0.0000
vt 0.7426 0.0108 0.0000
vt 0.6480 0.0108 0.0000
vt 0.6480 0.0122 0.0000
vt 0.6480 0.1084 0.0000
vt 0.6480 0.1098 0.0000
vt 0.7426 0.1098 0.0000
vt 0.7425 0.1084 0.0000
vt 0.7466 0.1058 0.0000
vt 0.7466 0.0148 0.0000
vt 0.5017 0.4946 0.0000
vt 0.0284 0.4947 0.0000
vt 0.0086 0.5145 0.0000
vt 0.0155 0.5154 0.0000
vt 0.0155 0.9691 0.0000
vt 0.0086 0.9699 0.0000
vt 0.0284 0.9898 0.0000
vt 0.5017 0.9898 0.0000
vt 0.7456 0.1087 0.0000
vt 0.7455 0.0118 0.0000
vt 0.0189 0.5050 0.0000
vt 0.0136 0.5000 0.0000
vt 0.0189 0.9794 0.0000
vt 0.0139 0.9848 0.0000
vt 0.6526 0.3001 0.0000
vt 0.0800 0.3000 0.0000
vt 0.0800 0.2387 0.0000
vt 0.6526 0.2388 0.0000
vt 0.6526 0.4229 0.0000
vt 0.5871 0.4229 0.0000
vt 0.5872 0.3615 0.0000
vt 0.6526 0.3615 0.0000
vt 0.7165 0.4229 0.0000
vt 0.6845 0.4229 0.0000
vt 0.6845 0.3615 0.0000
vt 0.7165 0.3615 0.0000
vt 0.6615 0.3308 0.0000
vt 0.0160 0.3614 0.0000
vt 0.0480 0.3614 0.0000
vt 0.0480 0.4228 0.0000
vt 0.0160 0.4228 0.0000
vt 0.0799 0.3614 0.0000
vt 0.0710 0.3307 0.0000
vt 0.0799 0.4228 0.0000
vt 0.6616 0.3308 0.0000
vt 0.5004 0.3615 0.0000
vt 0.0799 0.3002 0.0000
vt 0.0710 0.3309 0.0000
vt 0.0799 0.3616 0.0000
vt 0.5004 0.4228 0.0000
vt 0.0767 0.1441 0.0000
vt 0.6671 0.1441 0.0000
vt 0.6673 0.2099 0.0000
vt 0.0768 0.2099 0.0000
vt 0.3836 0.0783 0.0000
vt 0.0107 0.0783 0.0000
vt 0.4768 0.0783 0.0000
vt 0.6012 0.0783 0.0000
vt 0.6011 0.0124 0.0000
vt 0.4767 0.0124 0.0000
vt 0.0106 0.0124 0.0000
vt 0.3835 0.0124 0.0000
vt 0.9168 0.3280 0.0000
vt 0.9913 0.3280 0.0000
vt 0.9913 0.4265 0.0000
vt 0.9168 0.4265 0.0000
vt 0.7598 0.4265 0.0000
vt 0.7598 0.3280 0.0000
vt 0.8387 0.3280 0.0000
vt 0.8387 0.4265 0.0000
vt 0.9168 0.1921 0.0000
vt 0.8387 0.1921 0.0000
vt 0.8387 0.0186 0.0000
vt 0.9168 0.0186 0.0000
vt 0.9913 0.0186 0.0000
vt 0.9913 0.1921 0.0000
vt 0.7598 0.0186 0.0000
vt 0.7598 0.1921 0.0000
vt 0.9913 0.2607 0.0000
vt 0.9168 0.2607 0.0000
vt 0.8387 0.2607 0.0000
vt 0.7598 0.2607 0.0000
# 106 texture coords

g base1
usemtl Material__1
s off
f 1/1/1 2/2/1 3/3/1 
f 3/3/1 4/4/1 1/1/1 
f 5/5/2 6/6/2 7/7/2 
f 7/7/3 8/8/3 5/5/3 
f 9/9/4 10/10/4 11/11/4 
f 11/11/4 12/12/4 9/9/4 
f 13/13/5 14/14/5 15/15/5 
f 15/15/6 16/16/6 13/13/6 
f 17/17/7 18/18/7 19/19/7 
f 19/19/7 20/20/7 17/17/7 
f 21/21/8 6/6/8 5/5/8 
f 5/5/8 22/22/8 21/21/8 
f 23/23/9 10/10/9 9/9/9 
f 9/9/9 24/24/9 23/23/9 
f 11/11/10 21/21/10 22/22/10 
f 22/22/10 12/12/10 11/11/10 
f 16/16/11 23/23/11 24/24/11 
f 24/24/11 13/13/11 16/16/11 
f 25/25/12 16/26/12 15/27/12 
f 15/27/12 26/28/12 25/25/12 
f 27/29/13 7/30/13 6/31/13 
f 6/31/13 28/32/13 27/29/13 
f 3/3/14 11/33/14 10/34/14 
f 10/34/14 4/4/14 3/3/14 
f 8/35/15 19/19/15 18/18/15 
f 18/18/15 5/36/15 8/35/15 
f 12/37/16 29/38/16 30/39/16 
f 30/39/17 9/40/17 12/37/17 
f 13/41/18 17/17/18 20/20/18 
f 20/20/18 14/42/18 13/41/18 
f 11/33/19 3/3/19 2/2/19 
f 2/2/19 21/43/19 11/33/19 
f 16/26/20 25/25/20 1/1/20 
f 1/1/20 23/44/20 16/26/20 
f 5/36/21 18/18/21 31/45/21 
f 31/45/21 22/46/21 5/36/21 
f 9/40/22 30/39/22 32/47/22 
f 32/47/22 24/48/22 9/40/22 
f 21/43/23 2/2/23 28/32/23 
f 28/32/23 6/31/23 21/43/23 
f 23/44/24 1/1/24 4/4/24 
f 4/4/24 10/34/24 23/44/24 
f 22/46/25 31/45/25 29/38/25 
f 29/38/25 12/37/25 22/46/25 
f 24/48/26 32/47/26 17/17/26 
f 17/17/26 13/41/26 24/48/26 
f 30/39/7 29/38/7 31/45/7 
f 31/45/27 32/47/27 30/39/27 
f 32/47/7 31/45/7 18/18/7 
f 18/18/27 17/17/27 32/47/27 
f 26/28/1 27/29/1 28/32/1 
f 28/32/1 25/25/1 26/28/1 
f 25/25/1 28/32/1 2/2/1 
f 2/2/1 1/1/1 25/25/1 
s 2
f 33/49/28 34/50/28 35/51/28 
f 35/51/28 36/52/28 33/49/28 
s 4
f 37/53/7 38/54/29 39/55/29 
f 39/55/29 40/56/7 37/53/7 
s 8
f 36/57/30 41/58/2 42/59/31 
f 42/59/31 33/60/30 36/57/30 
s 16
f 36/49/32 37/56/32 41/61/32 
s 32
f 34/62/33 43/63/6 44/64/6 
f 44/64/6 35/65/33 34/62/33 
s 64
f 34/50/34 45/66/34 43/67/34 
s 8
f 37/53/35 40/56/35 42/59/31 
f 42/59/31 41/58/2 37/53/35 
s 32
f 45/66/36 46/68/36 44/64/6 
f 44/64/6 43/63/6 45/66/36 
s 16
f 36/49/32 38/55/32 37/56/32 
s 64
f 33/49/34 42/69/34 40/56/34 
f 33/49/34 47/70/34 45/66/34 
f 45/66/34 34/50/34 33/49/34 
s 16
f 35/71/32 44/72/32 46/73/32 
s 4
f 46/68/7 45/66/7 47/70/7 
f 47/70/7 48/74/7 46/68/7 
s 2
f 47/75/37 49/76/37 50/77/37 
f 50/77/37 48/78/37 47/75/37 
s 16
f 48/75/32 51/79/32 38/80/32 
s 64
f 49/76/34 52/81/34 53/82/34 
s 16
f 36/49/32 48/70/32 38/55/32 
s 64
f 33/49/34 40/56/34 39/55/34 
f 33/49/34 39/55/34 47/70/34 
s 16
f 36/49/32 35/71/32 46/73/32 
f 46/73/32 48/70/32 36/49/32 
s 4
f 54/83/38 53/82/38 52/81/29 
f 52/81/29 55/84/29 54/83/38 
f 39/80/29 38/85/29 51/86/38 
f 51/86/38 56/79/38 39/80/29 
s 2
f 57/87/39 58/88/39 59/89/2 
f 59/89/2 60/90/2 57/87/39 
s 4
f 61/91/6 62/92/40 63/93/40 
f 63/93/40 64/94/6 61/91/6 
s 16
f 58/87/32 62/93/32 61/94/32 
f 61/94/32 59/90/32 58/87/32 
s 64
f 65/95/34 66/96/34 52/97/34 
f 52/97/34 56/98/34 65/95/34 
s 2
f 56/98/41 51/99/41 67/100/42 
f 67/100/42 65/95/42 56/98/41 
s 4
f 55/101/29 52/97/29 66/96/43 
f 66/96/43 68/102/43 55/101/29 
s 16
f 51/98/32 55/97/32 68/96/32 
f 68/96/32 67/95/32 51/98/32 
s 64
f 64/94/34 63/93/34 57/87/34 
f 57/87/34 60/90/34 64/94/34 
s 2
f 69/103/44 58/88/39 57/87/39 
f 57/87/39 70/104/44 69/103/44 
s 4
f 71/105/45 63/93/40 62/92/40 
f 62/92/40 72/106/45 71/105/45 
s 16
f 72/105/32 62/93/32 58/87/32 
f 58/87/32 69/104/32 72/105/32 
s 64
f 71/105/34 66/96/34 65/95/34 
f 65/95/34 70/104/34 71/105/34 
s 2
f 67/100/42 69/103/44 70/104/44 
f 70/104/44 65/95/42 67/100/42 
s 4
f 66/96/43 71/105/45 72/106/45 
f 72/106/45 68/102/43 66/96/43 
s 16
f 68/96/32 72/105/32 69/104/32 
f 69/104/32 67/95/32 68/96/32 
s 64
f 63/93/34 71/105/34 70/104/34 
f 70/104/34 57/87/34 63/93/34 
s 16
f 50/76/32 54/82/32 55/81/32 
s 64
f 49/76/34 47/75/34 56/79/34 
f 56/79/34 52/81/34 49/76/34 
s 16
f 48/75/32 50/76/32 55/81/32 
f 55/81/32 51/79/32 48/75/32 
s 64
f 47/75/34 39/80/34 56/79/34 
# 126 faces

#
# object base2
#

v  0.0000 88.6205 -99.0000
v  96.1949 88.6205 -98.9999
v  96.1949 88.6205 -1.0000
v  0.0000 88.6205 -1.0000
v  96.3572 89.8366 0.0000
v  96.3572 98.1329 0.0000
v  0.0000 98.1329 -0.0001
v  0.0000 89.8366 -0.0001
v  100.0000 98.1329 -3.6428
v  100.0000 89.8366 -3.6428
v  100.0000 89.8366 -96.3571
v  100.0000 98.1329 -96.3571
v  0.0000 98.1329 -100.0000
v  96.3572 98.1329 -99.9999
v  96.3572 89.8366 -99.9999
v  0.0000 89.8366 -100.0000
v  0.0000 100.0000 -1.0001
v  96.1949 100.0000 -1.0000
v  96.1949 100.0000 -98.9999
v  0.0000 100.0000 -99.0000
v  99.0893 98.1329 -0.9107
v  99.0893 89.8366 -0.9107
v  99.0893 98.1329 -99.0892
v  99.0893 89.8366 -99.0892
v  99.0000 88.6205 -96.1948
v  99.0000 88.6205 -3.8051
v  99.0000 100.0000 -96.1948
v  99.0000 100.0000 -3.8051
v  98.2987 88.6205 -1.7013
v  98.2987 88.6205 -98.2986
v  98.2987 100.0000 -1.7013
v  98.2987 100.0000 -98.2986
v  94.5855 0.2698 -1.6826
v  84.5855 0.2698 -1.6826
v  84.5855 0.2698 -95.0000
v  94.5855 0.2698 -95.0000
v  84.5855 12.4303 -1.6826
v  94.5855 12.4303 -1.6826
v  94.5855 12.4303 -12.3421
v  84.5855 12.4303 -12.3421
v  94.5855 6.3501 -0.2186
v  84.5855 6.3501 -0.2186
v  84.5855 6.3501 -96.4640
v  94.5855 6.3501 -96.4640
v  94.5855 12.4303 -95.0000
v  84.5855 12.4303 -95.0000
v  94.5855 12.4303 -26.4842
v  84.5855 12.4303 -26.4842
v  84.5855 89.5010 -89.8619
v  94.5855 89.5010 -89.8619
v  84.5855 61.1031 -52.3671
v  94.5855 89.5010 -75.7198
v  94.5855 73.2637 -62.3671
v  84.5855 89.5010 -75.7198
v  84.5855 73.2637 -62.3671
v  94.5855 61.1031 -52.3671
v  94.5855 73.6913 -22.0833
v  94.5855 89.5010 -22.0833
v  84.5855 89.5010 -22.0833
v  84.5855 73.6913 -22.0833
v  84.5855 89.5010 -32.0836
v  94.5855 89.5010 -32.0836
v  94.5855 79.4292 -32.0836
v  84.5855 79.4292 -32.0836
v  94.5855 61.1033 -32.4349
v  94.5855 73.2638 -37.3925
v  84.5855 61.1033 -32.4349
v  84.5855 73.2638 -37.3925
v  84.5855 64.2503 -24.6712
v  94.5855 64.2503 -24.6712
v  94.5855 74.7128 -33.3587
v  84.5855 74.7128 -33.3587
# 72 vertices

vn 0.0000 -1.0000 -0.0000
vn -0.0000 0.0000 1.0000
vn 1.0000 0.0000 -0.0000
vn 0.0000 -0.0000 -1.0000
vn 0.0000 1.0000 -0.0000
vn -0.0000 1.0000 -0.0000
vn 0.3162 0.0000 0.9487
vn 0.9487 -0.0000 -0.3162
vn 0.9487 0.0000 0.3162
vn 0.3162 -0.0000 -0.9487
vn 0.0000 -0.7071 -0.7071
vn 0.7071 -0.7071 -0.0000
vn -0.0000 -0.7071 0.7071
vn -0.0000 0.5458 0.8379
vn 0.8379 0.5458 -0.0000
vn 0.0000 0.5458 -0.8379
vn 0.2236 -0.7071 0.6708
vn 0.6708 -0.7071 -0.2236
vn 0.7949 0.5458 0.2650
vn 0.2650 0.5458 -0.7949
vn 0.6708 -0.7071 0.2236
vn 0.2236 -0.7071 -0.6708
vn 0.2650 0.5458 0.7949
vn 0.7949 0.5458 -0.2650
vn -0.0000 -1.0000 -0.0000
vn 0.0000 0.9239 0.3827
vn 0.0000 -0.2810 0.9597
vn 0.0000 0.0000 1.0000
vn -1.0000 0.0000 -0.0000
vn 0.0000 -0.2810 -0.9597
vn 0.0000 0.0000 -1.0000
vn 0.0000 0.2810 0.9597
vn 0.0000 0.2810 -0.9597
vn 0.0000 0.7071 0.7071
vn 0.0000 -0.1602 0.9871
vn 0.0000 0.1581 -0.9874
vn 0.0000 -1.0000 0.0000
vn 0.0000 -0.9871 0.1602
vn 0.0000 0.9897 -0.1431
vn 0.0000 -0.7071 0.7071
vn 0.0000 0.7178 -0.6963
# 41 vertex normals

vt 0.6480 0.0122 0.0000
vt 0.7425 0.0122 0.0000
vt 0.7425 0.1084 0.0000
vt 0.6480 0.1084 0.0000
vt 0.6748 0.4834 0.0000
vt 0.6748 0.4422 0.0000
vt 0.9958 0.4422 0.0000
vt 0.9958 0.4834 0.0000
vt 0.6556 0.4422 0.0000
vt 0.6556 0.4834 0.0000
vt 0.3468 0.4834 0.0000
vt 0.3468 0.4422 0.0000
vt 0.0066 0.4422 0.0000
vt 0.3276 0.4422 0.0000
vt 0.3276 0.4834 0.0000
vt 0.0066 0.4834 0.0000
vt 0.5017 0.5016 0.0000
vt 0.9741 0.5016 0.0000
vt 0.9741 0.9829 0.0000
vt 0.5017 0.9829 0.0000
vt 0.6652 0.4422 0.0000
vt 0.6652 0.4834 0.0000
vt 0.3372 0.4422 0.0000
vt 0.3372 0.4834 0.0000
vt 0.6480 0.0108 0.0000
vt 0.7426 0.0108 0.0000
vt 0.7452 0.0149 0.0000
vt 0.7466 0.0148 0.0000
vt 0.7466 0.1058 0.0000
vt 0.7452 0.1056 0.0000
vt 0.7426 0.1098 0.0000
vt 0.6480 0.1098 0.0000
vt 0.9749 0.4947 0.0000
vt 0.5017 0.4946 0.0000
vt 0.9948 0.9699 0.0000
vt 0.9879 0.9691 0.0000
vt 0.9879 0.5154 0.0000
vt 0.9948 0.5146 0.0000
vt 0.5017 0.9898 0.0000
vt 0.9749 0.9898 0.0000
vt 0.7445 0.1077 0.0000
vt 0.7456 0.1087 0.0000
vt 0.7445 0.0129 0.0000
vt 0.7455 0.0118 0.0000
vt 0.9844 0.5051 0.0000
vt 0.9895 0.4997 0.0000
vt 0.9844 0.9794 0.0000
vt 0.9898 0.9845 0.0000
vt 0.6526 0.3001 0.0000
vt 0.6526 0.2388 0.0000
vt 0.0800 0.2387 0.0000
vt 0.0800 0.3000 0.0000
vt 0.6526 0.4229 0.0000
vt 0.6526 0.3615 0.0000
vt 0.5872 0.3615 0.0000
vt 0.5871 0.4229 0.0000
vt 0.7165 0.4229 0.0000
vt 0.7165 0.3615 0.0000
vt 0.6845 0.3615 0.0000
vt 0.6845 0.4229 0.0000
vt 0.6615 0.3308 0.0000
vt 0.0160 0.3614 0.0000
vt 0.0160 0.4228 0.0000
vt 0.0480 0.4228 0.0000
vt 0.0480 0.3614 0.0000
vt 0.0710 0.3307 0.0000
vt 0.0799 0.3614 0.0000
vt 0.0799 0.4228 0.0000
vt 0.6616 0.3308 0.0000
vt 0.5004 0.3615 0.0000
vt 0.0799 0.3002 0.0000
vt 0.0799 0.3616 0.0000
vt 0.0710 0.3309 0.0000
vt 0.5004 0.4228 0.0000
vt 0.0767 0.1441 0.0000
vt 0.0768 0.2099 0.0000
vt 0.6673 0.2099 0.0000
vt 0.6671 0.1441 0.0000
vt 0.0107 0.0783 0.0000
vt 0.3836 0.0783 0.0000
vt 0.6012 0.0783 0.0000
vt 0.4768 0.0783 0.0000
vt 0.6011 0.0124 0.0000
vt 0.4767 0.0124 0.0000
vt 0.3835 0.0124 0.0000
vt 0.0106 0.0124 0.0000
vt 0.9168 0.3280 0.0000
vt 0.9168 0.4265 0.0000
vt 0.9913 0.4265 0.0000
vt 0.9913 0.3280 0.0000
vt 0.7598 0.4265 0.0000
vt 0.8387 0.4265 0.0000
vt 0.8387 0.3280 0.0000
vt 0.7598 0.3280 0.0000
vt 0.9168 0.1921 0.0000
vt 0.9168 0.0186 0.0000
vt 0.8387 0.0186 0.0000
vt 0.8387 0.1921 0.0000
vt 0.9913 0.1921 0.0000
vt 0.9913 0.0186 0.0000
vt 0.7598 0.0186 0.0000
vt 0.7598 0.1921 0.0000
vt 0.9913 0.2607 0.0000
vt 0.9168 0.2607 0.0000
vt 0.8387 0.2607 0.0000
vt 0.7598 0.2607 0.0000
# 106 texture coords

g base2
usemtl Material__1
s off
f 73/107/46 74/108/46 75/109/46 
f 75/109/46 76/110/46 73/107/46 
f 77/111/47 78/112/47 79/113/47 
f 79/113/47 80/114/47 77/111/47 
f 81/115/48 82/116/48 83/117/48 
f 83/117/48 84/118/48 81/115/48 
f 85/119/49 86/120/49 87/121/49 
f 87/121/49 88/122/49 85/119/49 
f 89/123/50 90/124/50 91/125/50 
f 91/125/51 92/126/51 89/123/51 
f 93/127/52 78/112/52 77/111/52 
f 77/111/52 94/128/52 93/127/52 
f 95/129/53 84/118/53 83/117/53 
f 83/117/53 96/130/53 95/129/53 
f 81/115/54 93/127/54 94/128/54 
f 94/128/54 82/116/54 81/115/54 
f 86/120/55 95/129/55 96/130/55 
f 96/130/55 87/121/55 86/120/55 
f 73/107/56 88/131/56 87/132/56 
f 87/132/56 74/108/56 73/107/56 
f 97/133/57 83/134/57 82/135/57 
f 82/135/57 98/136/57 97/133/57 
f 75/109/58 77/137/58 80/138/58 
f 80/138/58 76/110/58 75/109/58 
f 78/139/59 90/124/59 89/123/59 
f 89/123/59 79/140/59 78/139/59 
f 84/141/60 99/142/60 100/143/60 
f 100/143/60 81/144/60 84/141/60 
f 85/145/61 92/126/61 91/125/61 
f 91/125/61 86/146/61 85/145/61 
f 77/137/62 75/109/62 101/147/62 
f 101/147/62 94/148/62 77/137/62 
f 83/134/63 97/133/63 102/149/63 
f 102/149/63 96/150/63 83/134/63 
f 81/144/64 100/143/64 103/151/64 
f 103/151/64 93/152/64 81/144/64 
f 86/146/65 91/125/65 104/153/65 
f 104/153/65 95/154/65 86/146/65 
f 94/148/66 101/147/66 98/136/66 
f 98/136/66 82/135/66 94/148/66 
f 96/150/67 102/149/67 74/108/67 
f 74/108/67 87/132/67 96/150/67 
f 93/152/68 103/151/68 90/124/68 
f 90/124/68 78/139/68 93/152/68 
f 95/154/69 104/153/69 99/142/69 
f 99/142/69 84/141/69 95/154/69 
f 103/151/50 104/153/50 91/125/50 
f 91/125/51 90/124/51 103/151/51 
f 100/143/50 99/142/50 104/153/50 
f 104/153/51 103/151/51 100/143/51 
f 102/149/70 101/147/70 75/109/70 
f 75/109/46 74/108/46 102/149/46 
f 97/133/70 98/136/70 101/147/70 
f 101/147/46 102/149/46 97/133/46 
s 2
f 105/155/46 106/156/46 107/157/46 
f 107/157/46 108/158/46 105/155/46 
s 4
f 109/159/50 110/160/50 111/161/71 
f 111/161/71 112/162/71 109/159/50 
s 8
f 106/163/72 105/164/72 113/165/73 
f 113/165/73 114/166/73 106/163/72 
s 16
f 106/155/74 114/167/74 109/160/74 
s 32
f 108/168/75 107/169/75 115/170/76 
f 115/170/76 116/171/76 108/168/75 
s 64
f 108/158/48 116/172/48 117/173/48 
s 8
f 109/159/77 114/166/73 113/165/73 
f 113/165/73 110/160/77 109/159/77 
s 32
f 117/173/78 116/171/76 115/170/76 
f 115/170/76 118/174/78 117/173/78 
s 16
f 106/155/74 109/160/74 112/161/74 
s 64
f 105/155/48 110/160/48 113/175/48 
f 105/155/48 108/158/48 117/173/48 
f 117/173/48 119/176/48 105/155/48 
s 16
f 107/177/74 118/178/74 115/179/74 
s 4
f 118/174/50 120/180/50 119/176/50 
f 119/176/50 117/173/50 118/174/50 
s 2
f 119/181/56 120/182/56 121/183/56 
f 121/183/56 122/184/56 119/181/56 
s 16
f 120/181/74 112/185/74 123/186/74 
s 64
f 122/184/48 124/187/48 125/188/48 
s 16
f 106/155/74 112/161/74 120/176/74 
s 64
f 105/155/48 111/161/48 110/160/48 
f 105/155/48 119/176/48 111/161/48 
s 16
f 106/155/74 120/176/74 118/178/74 
f 118/178/74 107/177/74 106/155/74 
s 4
f 126/189/79 127/190/71 125/188/71 
f 125/188/71 124/187/79 126/189/79 
f 111/185/71 128/186/79 123/191/79 
f 123/191/79 112/192/71 111/185/71 
s 2
f 129/193/80 130/194/73 131/195/73 
f 131/195/73 132/196/80 129/193/80 
s 4
f 133/197/76 134/198/76 135/199/81 
f 135/199/81 136/200/81 133/197/76 
s 16
f 132/193/74 131/194/74 133/198/74 
f 133/198/74 136/199/74 132/193/74 
s 64
f 137/201/48 128/202/48 125/203/48 
f 125/203/48 138/204/48 137/201/48 
s 2
f 128/202/82 137/201/83 139/205/83 
f 139/205/83 123/206/82 128/202/82 
s 4
f 127/207/71 140/208/84 138/204/84 
f 138/204/84 125/203/71 127/207/71 
s 16
f 123/202/74 139/201/74 140/204/74 
f 140/204/74 127/203/74 123/202/74 
s 64
f 134/198/48 130/194/48 129/193/48 
f 129/193/48 135/199/48 134/198/48 
s 2
f 141/209/85 142/210/85 129/193/80 
f 129/193/80 132/196/80 141/209/85 
s 4
f 143/211/86 144/212/86 136/200/81 
f 136/200/81 135/199/81 143/211/86 
s 16
f 144/211/74 141/210/74 132/193/74 
f 132/193/74 136/199/74 144/211/74 
s 64
f 143/211/48 142/210/48 137/201/48 
f 137/201/48 138/204/48 143/211/48 
s 2
f 139/205/83 137/201/83 142/210/85 
f 142/210/85 141/209/85 139/205/83 
s 4
f 138/204/84 140/208/84 144/212/86 
f 144/212/86 143/211/86 138/204/84 
s 16
f 140/204/74 139/201/74 141/210/74 
f 141/210/74 144/211/74 140/204/74 
s 64
f 135/199/48 129/193/48 142/210/48 
f 142/210/48 143/211/48 135/199/48 
s 16
f 121/184/74 127/188/74 126/187/74 
s 64
f 122/184/48 125/188/48 128/186/48 
f 128/186/48 119/181/48 122/184/48 
s 16
f 120/181/74 123/186/74 127/188/74 
f 127/188/74 121/184/74 120/181/74 
s 64
f 119/181/48 128/186/48 111/185/48 
# 126 faces

