# 3ds Max Wavefront OBJ Exporter v0.97b - (c)2007 guruware
# File Created: 21.01.2021 15:42:38

mtllib tale_half_cabinet.mtl

#
# object base0
#

v  100.0000 50.0002 -100.0000
v  100.0000 50.0002 -0.0000
v  100.0000 0.0000 -0.0000
v  100.0000 0.0000 -100.0000
v  0.0001 50.0002 -100.0000
v  0.0000 0.0000 -100.0000
v  0.0000 0.0000 -0.0000
v  0.0001 50.0002 -0.0000
v  16.6801 41.2291 2.2090
v  16.6801 10.3778 2.2090
v  83.3199 10.3778 2.2090
v  83.3199 41.2291 2.2090
v  85.8038 39.1167 -0.1273
v  85.5991 38.9500 2.2090
v  85.5991 12.6570 2.2090
v  85.8038 12.4902 -0.1273
v  16.4239 41.3443 -0.1273
v  83.5761 41.3444 -0.1273
v  14.1962 12.4902 -0.1273
v  14.4009 12.6570 2.2090
v  14.4009 38.9499 2.2090
v  14.1962 39.1167 -0.1273
v  83.5761 10.2626 -0.1273
v  16.4239 10.2626 -0.1273
v  85.2468 40.7875 -0.1273
v  85.0293 40.6593 2.2090
v  14.7531 40.7874 -0.1273
v  14.9707 40.6593 2.2090
v  14.7531 10.8195 -0.1273
v  14.9707 10.9476 2.2090
v  85.2468 10.8195 -0.1273
v  85.0293 10.9476 2.2090
v  32.7122 35.0701 5.2380
v  31.3833 41.2291 5.2380
v  31.3833 41.2291 2.2090
v  32.7122 35.0701 2.2090
v  36.7306 29.8487 5.2380
v  36.7306 29.8487 2.2090
v  42.8439 26.3598 5.2380
v  42.8439 26.3598 2.2090
v  50.1041 25.1347 5.2380
v  50.1041 25.1347 2.2090
v  57.3644 26.3598 5.2380
v  57.3644 26.3598 2.2090
v  63.4777 29.8487 5.2380
v  63.4777 29.8487 2.2090
v  67.4960 35.0701 5.2380
v  67.4960 35.0701 2.2090
v  68.8250 41.2291 5.2380
v  68.8250 41.2291 2.2090
# 50 vertices

vn 1.0000 0.0000 -0.0000
vn 0.0000 -0.0000 -1.0000
vn 0.0000 -1.0000 -0.0000
vn 0.0000 0.0000 1.0000
vn -1.0000 0.0000 -0.0000
vn 0.0000 1.0000 -0.0000
vn -0.0000 0.0000 1.0000
vn 0.9814 0.1650 0.0978
vn 0.9833 0.1537 0.0971
vn 0.9833 -0.1537 0.0971
vn 0.9814 -0.1650 0.0977
vn -0.1697 0.9832 0.0671
vn -0.1497 0.9866 0.0651
vn 0.1497 0.9866 0.0651
vn 0.1697 0.9832 0.0671
vn -0.9814 -0.1649 0.0977
vn -0.9833 -0.1537 0.0971
vn -0.9833 0.1537 0.0971
vn -0.9814 0.1650 0.0977
vn 0.1697 -0.9832 0.0671
vn 0.1497 -0.9866 0.0651
vn -0.1497 -0.9866 0.0651
vn -0.1697 -0.9832 0.0671
vn 0.7084 0.6981 0.1042
vn 0.6976 0.7089 0.1038
vn -0.7084 0.6981 0.1042
vn -0.6976 0.7089 0.1038
vn -0.7084 -0.6981 0.1042
vn -0.6976 -0.7089 0.1038
vn 0.7084 -0.6981 0.1042
vn 0.6976 -0.7089 0.1038
vn -0.9072 -0.4207 -0.0000
vn -0.9775 -0.2109 -0.0000
vn -0.6569 -0.7540 -0.0000
vn -0.3362 -0.9418 -0.0000
vn -0.0000 -1.0000 -0.0000
vn 0.3362 -0.9418 -0.0000
vn 0.3362 -0.9418 0.0000
vn 0.6569 -0.7540 0.0000
vn 0.9072 -0.4207 0.0000
vn 0.9072 -0.4207 -0.0000
vn 0.9775 -0.2109 -0.0000
vn 0.0000 -0.0000 1.0000
vn -0.0000 -0.0000 1.0000
# 44 vertex normals

vt 0.9968 0.2486 0.0000
vt 0.5513 0.2486 0.0000
vt 0.5513 0.4897 0.0000
vt 0.9968 0.4897 0.0000
vt 0.3251 0.7521 0.0000
vt 0.4655 0.7521 0.0000
vt 0.4655 0.9932 0.0000
vt 0.3251 0.9932 0.0000
vt 0.3074 0.5790 0.0000
vt 0.3074 0.5086 0.0000
vt 0.2363 0.5086 0.0000
vt 0.2363 0.5790 0.0000
vt 0.3151 0.4897 0.0000
vt 0.3151 0.2486 0.0000
vt 0.4795 0.5085 0.0000
vt 0.9959 0.5085 0.0000
vt 0.9959 0.9960 0.0000
vt 0.4795 0.9960 0.0000
vt 0.0213 0.4594 0.0000
vt 0.2828 0.4594 0.0000
vt 0.2828 0.0382 0.0000
vt 0.0213 0.0382 0.0000
vt 0.0331 0.0094 0.0000
vt 0.0349 0.0241 0.0000
vt 0.2681 0.0241 0.0000
vt 0.2701 0.0094 0.0000
vt 0.0067 0.4618 0.0000
vt 0.0067 0.0364 0.0000
vt 0.2711 0.4882 0.0000
vt 0.2693 0.4735 0.0000
vt 0.0361 0.4735 0.0000
vt 0.0341 0.4882 0.0000
vt 0.2975 0.0358 0.0000
vt 0.2975 0.4612 0.0000
vt 0.0164 0.0172 0.0000
vt 0.0242 0.0276 0.0000
vt 0.0148 0.4785 0.0000
vt 0.0254 0.4700 0.0000
vt 0.2878 0.4804 0.0000
vt 0.2800 0.4700 0.0000
vt 0.2893 0.0191 0.0000
vt 0.2787 0.0276 0.0000
vt 0.1269 0.9604 0.0000
vt 0.0452 0.9621 0.0000
vt 0.0089 0.9928 0.0000
vt 0.1384 0.9927 0.0000
vt 0.1936 0.9143 0.0000
vt 0.2233 0.9362 0.0000
vt 0.2378 0.8440 0.0000
vt 0.2747 0.8546 0.0000
vt 0.2532 0.7608 0.0000
vt 0.2920 0.7601 0.0000
vt 0.2372 0.6778 0.0000
vt 0.2736 0.6655 0.0000
vt 0.1925 0.6078 0.0000
vt 0.2209 0.5835 0.0000
vt 0.1258 0.5623 0.0000
vt 0.1314 0.5194 0.0000
vt 0.0493 0.5562 0.0000
vt 0.0102 0.5142 0.0000
# 60 texture coords

g base0
usemtl Material__1
s 4
f 1/1/1 2/2/1 3/3/1 
f 3/3/1 4/4/1 1/1/1 
s 8
f 5/5/2 1/6/2 4/7/2 
f 4/7/2 6/8/2 5/5/2 
s 2
f 4/9/3 3/10/3 7/11/3 
f 7/11/3 6/12/3 4/9/3 
s 8
f 7/13/4 3/3/4 2/2/4 
f 2/2/4 8/14/4 7/13/4 
s 4
f 7/3/5 8/2/5 5/1/5 
f 5/1/5 6/4/5 7/3/5 
s 2
f 2/15/6 1/16/6 5/17/6 
f 5/17/6 8/18/6 2/15/6 
s 8
f 9/19/7 10/20/7 11/21/7 
f 11/21/7 12/22/7 9/19/7 
s 1
f 13/23/8 14/24/9 15/25/10 
f 15/25/10 16/26/11 13/23/8 
f 17/27/12 9/19/13 12/22/14 
f 12/22/14 18/28/15 17/27/12 
f 19/29/16 20/30/17 21/31/18 
f 21/31/18 22/32/19 19/29/16 
f 23/33/20 11/21/21 10/20/22 
f 10/20/22 24/34/23 23/33/20 
f 14/24/9 13/23/8 25/35/24 
f 25/35/24 26/36/25 14/24/9 
f 9/19/13 17/27/12 27/37/26 
f 27/37/26 28/38/27 9/19/13 
f 20/30/17 19/29/16 29/39/28 
f 29/39/28 30/40/29 20/30/17 
f 11/21/21 23/33/20 31/41/30 
f 31/41/30 32/42/31 11/21/21 
f 26/36/25 25/35/24 18/28/15 
f 18/28/15 12/22/14 26/36/25 
f 28/38/27 27/37/26 22/32/19 
f 22/32/19 21/31/18 28/38/27 
f 30/40/29 29/39/28 24/34/23 
f 24/34/23 10/20/22 30/40/29 
f 32/42/31 31/41/30 16/26/11 
f 16/26/11 15/25/10 32/42/31 
s 8
f 9/19/7 28/38/4 30/40/4 
f 30/40/4 10/20/7 9/19/7 
f 28/38/4 21/31/4 20/30/4 
f 20/30/4 30/40/4 28/38/4 
f 32/42/7 15/25/7 14/24/4 
f 14/24/4 26/36/4 32/42/7 
f 11/21/7 32/42/7 26/36/4 
f 26/36/4 12/22/7 11/21/7 
s 1
f 33/43/32 34/44/33 35/45/33 
f 35/45/33 36/46/32 33/43/32 
f 37/47/34 33/43/32 36/46/32 
f 36/46/32 38/48/34 37/47/34 
f 39/49/35 37/47/34 38/48/34 
f 38/48/34 40/50/35 39/49/35 
f 41/51/3 39/49/35 40/50/35 
f 40/50/35 42/52/36 41/51/3 
f 43/53/37 41/51/3 42/52/36 
f 42/52/36 44/54/38 43/53/37 
f 45/55/39 43/53/37 44/54/38 
f 44/54/38 46/56/39 45/55/39 
f 47/57/40 45/55/39 46/56/39 
f 46/56/39 48/58/41 47/57/40 
f 49/59/42 47/57/40 48/58/41 
f 48/58/41 50/60/42 49/59/42 
s 8
f 49/59/43 34/44/43 33/43/43 
f 33/43/43 47/57/44 49/59/43 
s 2
f 50/60/6 35/45/6 34/44/6 
f 34/44/6 49/59/6 50/60/6 
s 8
f 47/57/44 33/43/43 37/47/44 
f 37/47/44 45/55/44 47/57/44 
f 45/55/44 37/47/44 39/49/4 
f 39/49/4 43/53/4 45/55/44 
f 39/49/4 41/51/4 43/53/4 
# 71 faces

#
# object base3
#

v  0.0001 50.0002 -100.0000
v  100.0000 50.0002 -100.0000
v  100.0000 0.0000 -100.0000
v  0.0000 0.0000 -100.0000
v  100.0000 0.0000 -0.0000
v  0.0000 0.0000 -0.0000
v  100.0000 50.0002 -0.0000
v  0.0001 50.0002 -0.0000
v  16.6801 41.2291 2.2090
v  16.6801 10.3778 2.2090
v  83.3199 10.3778 2.2090
v  83.3199 41.2291 2.2090
v  85.8038 39.1167 -0.1273
v  85.5991 38.9500 2.2090
v  85.5991 12.6570 2.2090
v  85.8038 12.4902 -0.1273
v  16.4239 41.3443 -0.1273
v  83.5761 41.3444 -0.1273
v  14.1962 12.4902 -0.1273
v  14.4009 12.6570 2.2090
v  14.4009 38.9499 2.2090
v  14.1962 39.1167 -0.1273
v  83.5761 10.2626 -0.1273
v  16.4239 10.2626 -0.1273
v  85.2468 40.7875 -0.1273
v  85.0293 40.6593 2.2090
v  14.7531 40.7874 -0.1273
v  14.9707 40.6593 2.2090
v  14.7531 10.8195 -0.1273
v  14.9707 10.9476 2.2090
v  85.2468 10.8195 -0.1273
v  85.0293 10.9476 2.2090
v  32.7122 35.0701 5.2380
v  31.3833 41.2291 5.2380
v  31.3833 41.2291 2.2090
v  32.7122 35.0701 2.2090
v  36.7306 29.8487 5.2380
v  36.7306 29.8487 2.2090
v  42.8439 26.3598 5.2380
v  42.8439 26.3598 2.2090
v  50.1041 25.1347 5.2380
v  50.1041 25.1347 2.2090
v  57.3644 26.3598 5.2380
v  57.3644 26.3598 2.2090
v  63.4777 29.8487 5.2380
v  63.4777 29.8487 2.2090
v  67.4960 35.0701 5.2380
v  67.4960 35.0701 2.2090
v  68.8250 41.2291 5.2380
v  68.8250 41.2291 2.2090
# 50 vertices

vn 0.0000 -0.0000 -1.0000
vn 0.0000 -1.0000 -0.0000
vn 0.0000 0.0000 1.0000
vn 0.0000 1.0000 -0.0000
vn -0.0000 0.0000 1.0000
vn 0.9814 0.1650 0.0978
vn 0.9833 0.1537 0.0971
vn 0.9833 -0.1537 0.0971
vn 0.9814 -0.1650 0.0977
vn -0.1697 0.9832 0.0671
vn -0.1497 0.9866 0.0651
vn 0.1497 0.9866 0.0651
vn 0.1697 0.9832 0.0671
vn -0.9814 -0.1649 0.0977
vn -0.9833 -0.1537 0.0971
vn -0.9833 0.1537 0.0971
vn -0.9814 0.1650 0.0977
vn 0.1697 -0.9832 0.0671
vn 0.1497 -0.9866 0.0651
vn -0.1497 -0.9866 0.0651
vn -0.1697 -0.9832 0.0671
vn 0.7084 0.6981 0.1042
vn 0.6976 0.7089 0.1038
vn -0.7084 0.6981 0.1042
vn -0.6976 0.7089 0.1038
vn -0.7084 -0.6981 0.1042
vn -0.6976 -0.7089 0.1038
vn 0.7084 -0.6981 0.1042
vn 0.6976 -0.7089 0.1038
vn -0.9072 -0.4207 -0.0000
vn -0.9775 -0.2109 -0.0000
vn -0.6569 -0.7540 -0.0000
vn -0.3362 -0.9418 -0.0000
vn -0.0000 -1.0000 -0.0000
vn 0.3362 -0.9418 -0.0000
vn 0.3362 -0.9418 0.0000
vn 0.6569 -0.7540 0.0000
vn 0.9072 -0.4207 0.0000
vn 0.9072 -0.4207 -0.0000
vn 0.9775 -0.2109 -0.0000
vn 0.0000 -0.0000 1.0000
vn -0.0000 -0.0000 1.0000
# 42 vertex normals

vt 0.3251 0.7521 0.0000
vt 0.4655 0.7521 0.0000
vt 0.4655 0.9932 0.0000
vt 0.3251 0.9932 0.0000
vt 0.3074 0.5790 0.0000
vt 0.3074 0.5086 0.0000
vt 0.2363 0.5086 0.0000
vt 0.2363 0.5790 0.0000
vt 0.3151 0.4897 0.0000
vt 0.5513 0.4897 0.0000
vt 0.5513 0.2486 0.0000
vt 0.3151 0.2486 0.0000
vt 0.4795 0.5806 0.0000
vt 0.9959 0.5806 0.0000
vt 0.9959 0.9235 0.0000
vt 0.4795 0.9235 0.0000
vt 0.0213 0.4594 0.0000
vt 0.2828 0.4594 0.0000
vt 0.2828 0.0382 0.0000
vt 0.0213 0.0382 0.0000
vt 0.0331 0.0094 0.0000
vt 0.0349 0.0241 0.0000
vt 0.2681 0.0241 0.0000
vt 0.2701 0.0094 0.0000
vt 0.0067 0.4618 0.0000
vt 0.0067 0.0364 0.0000
vt 0.2711 0.4882 0.0000
vt 0.2693 0.4735 0.0000
vt 0.0361 0.4735 0.0000
vt 0.0341 0.4882 0.0000
vt 0.2975 0.0358 0.0000
vt 0.2975 0.4612 0.0000
vt 0.0164 0.0172 0.0000
vt 0.0242 0.0276 0.0000
vt 0.0148 0.4785 0.0000
vt 0.0254 0.4700 0.0000
vt 0.2878 0.4804 0.0000
vt 0.2800 0.4700 0.0000
vt 0.2893 0.0191 0.0000
vt 0.2787 0.0276 0.0000
vt 0.1269 0.9604 0.0000
vt 0.0452 0.9621 0.0000
vt 0.0089 0.9928 0.0000
vt 0.1384 0.9927 0.0000
vt 0.1936 0.9143 0.0000
vt 0.2233 0.9362 0.0000
vt 0.2378 0.8440 0.0000
vt 0.2747 0.8546 0.0000
vt 0.2532 0.7608 0.0000
vt 0.2920 0.7601 0.0000
vt 0.2372 0.6778 0.0000
vt 0.2736 0.6655 0.0000
vt 0.1925 0.6078 0.0000
vt 0.2209 0.5835 0.0000
vt 0.1258 0.5623 0.0000
vt 0.1314 0.5194 0.0000
vt 0.0493 0.5562 0.0000
vt 0.0102 0.5142 0.0000
# 58 texture coords

g base3
usemtl Material__1
s 4
f 51/61/45 52/62/45 53/63/45 
f 53/63/45 54/64/45 51/61/45 
s 2
f 53/65/46 55/66/46 56/67/46 
f 56/67/46 54/68/46 53/65/46 
s 4
f 56/69/47 55/70/47 57/71/47 
f 57/71/47 58/72/47 56/69/47 
s 2
f 57/73/48 52/74/48 51/75/48 
f 51/75/48 58/76/48 57/73/48 
s 4
f 59/77/49 60/78/49 61/79/49 
f 61/79/49 62/80/49 59/77/49 
s 1
f 63/81/50 64/82/51 65/83/52 
f 65/83/52 66/84/53 63/81/50 
f 67/85/54 59/77/55 62/80/56 
f 62/80/56 68/86/57 67/85/54 
f 69/87/58 70/88/59 71/89/60 
f 71/89/60 72/90/61 69/87/58 
f 73/91/62 61/79/63 60/78/64 
f 60/78/64 74/92/65 73/91/62 
f 64/82/51 63/81/50 75/93/66 
f 75/93/66 76/94/67 64/82/51 
f 59/77/55 67/85/54 77/95/68 
f 77/95/68 78/96/69 59/77/55 
f 70/88/59 69/87/58 79/97/70 
f 79/97/70 80/98/71 70/88/59 
f 61/79/63 73/91/62 81/99/72 
f 81/99/72 82/100/73 61/79/63 
f 76/94/67 75/93/66 68/86/57 
f 68/86/57 62/80/56 76/94/67 
f 78/96/69 77/95/68 72/90/61 
f 72/90/61 71/89/60 78/96/69 
f 80/98/71 79/97/70 74/92/65 
f 74/92/65 60/78/64 80/98/71 
f 82/100/73 81/99/72 66/84/53 
f 66/84/53 65/83/52 82/100/73 
s 4
f 59/77/49 78/96/47 80/98/47 
f 80/98/47 60/78/49 59/77/49 
f 78/96/47 71/89/47 70/88/47 
f 70/88/47 80/98/47 78/96/47 
f 82/100/49 65/83/49 64/82/47 
f 64/82/47 76/94/47 82/100/49 
f 61/79/49 82/100/49 76/94/47 
f 76/94/47 62/80/49 61/79/49 
s 1
f 83/101/74 84/102/75 85/103/75 
f 85/103/75 86/104/74 83/101/74 
f 87/105/76 83/101/74 86/104/74 
f 86/104/74 88/106/76 87/105/76 
f 89/107/77 87/105/76 88/106/76 
f 88/106/76 90/108/77 89/107/77 
f 91/109/46 89/107/77 90/108/77 
f 90/108/77 92/110/78 91/109/46 
f 93/111/79 91/109/46 92/110/78 
f 92/110/78 94/112/80 93/111/79 
f 95/113/81 93/111/79 94/112/80 
f 94/112/80 96/114/81 95/113/81 
f 97/115/82 95/113/81 96/114/81 
f 96/114/81 98/116/83 97/115/82 
f 99/117/84 97/115/82 98/116/83 
f 98/116/83 100/118/84 99/117/84 
s 4
f 99/117/85 84/102/85 83/101/85 
f 83/101/85 97/115/86 99/117/85 
s 2
f 100/118/48 85/103/48 84/102/48 
f 84/102/48 99/117/48 100/118/48 
s 4
f 97/115/86 83/101/85 87/105/86 
f 87/105/86 95/113/86 97/115/86 
f 95/113/86 87/105/86 89/107/47 
f 89/107/47 93/111/47 95/113/86 
f 89/107/47 91/109/47 93/111/47 
# 67 faces

#
# object base2
#

v  0.0000 50.0001 -100.0000
v  0.0000 -0.0000 -100.0000
v  0.0000 0.0000 -0.0000
v  0.0000 50.0002 -0.0000
v  99.9999 50.0001 -100.0000
v  100.0000 -0.0000 -100.0000
v  100.0000 0.0000 -0.0000
v  99.9999 50.0002 -0.0000
v  83.3199 41.2291 2.2090
v  16.6801 41.2291 2.2090
v  16.6801 10.3778 2.2090
v  83.3199 10.3778 2.2090
v  14.1962 39.1167 -0.1273
v  14.1962 12.4902 -0.1273
v  14.4009 12.6570 2.2090
v  14.4009 38.9500 2.2090
v  83.5761 41.3443 -0.1273
v  16.4239 41.3444 -0.1273
v  85.8038 12.4902 -0.1273
v  85.8038 39.1167 -0.1273
v  85.5991 38.9499 2.2090
v  85.5991 12.6570 2.2090
v  16.4239 10.2626 -0.1273
v  83.5761 10.2626 -0.1273
v  14.9707 40.6593 2.2090
v  14.7532 40.7875 -0.1273
v  85.0293 40.6593 2.2090
v  85.2469 40.7874 -0.1273
v  85.0293 10.9476 2.2090
v  85.2469 10.8195 -0.1273
v  14.9707 10.9476 2.2090
v  14.7532 10.8195 -0.1273
v  67.2878 35.0701 5.2380
v  67.2878 35.0701 2.2090
v  68.6167 41.2291 2.2090
v  68.6167 41.2291 5.2380
v  63.2694 29.8487 5.2380
v  63.2694 29.8487 2.2090
v  57.1561 26.3598 5.2380
v  57.1561 26.3598 2.2090
v  49.8959 25.1347 5.2380
v  49.8959 25.1347 2.2090
v  42.6356 26.3598 5.2380
v  42.6356 26.3598 2.2090
v  36.5223 29.8487 5.2380
v  36.5223 29.8487 2.2090
v  32.5040 35.0701 5.2380
v  32.5040 35.0701 2.2090
v  31.1750 41.2291 5.2380
v  31.1750 41.2291 2.2090
# 50 vertices

vn -1.0000 0.0000 -0.0000
vn 0.0000 -0.0000 -1.0000
vn 0.0000 -1.0000 0.0000
vn 0.0000 0.0000 1.0000
vn 0.0000 1.0000 -0.0000
vn -0.9814 0.1650 0.0978
vn -0.9814 -0.1650 0.0977
vn -0.9833 -0.1537 0.0971
vn -0.9833 0.1537 0.0971
vn 0.1697 0.9832 0.0671
vn -0.1697 0.9832 0.0671
vn -0.1497 0.9866 0.0651
vn 0.1497 0.9866 0.0651
vn 0.9814 -0.1649 0.0977
vn 0.9814 0.1650 0.0977
vn 0.9833 0.1537 0.0971
vn 0.9833 -0.1537 0.0971
vn -0.1697 -0.9832 0.0671
vn 0.1697 -0.9832 0.0671
vn 0.1497 -0.9866 0.0651
vn -0.1497 -0.9866 0.0651
vn -0.6976 0.7089 0.1038
vn -0.7084 0.6981 0.1042
vn 0.6976 0.7089 0.1038
vn 0.7084 0.6981 0.1042
vn 0.6976 -0.7089 0.1038
vn 0.7084 -0.6981 0.1042
vn -0.6976 -0.7089 0.1038
vn -0.7084 -0.6981 0.1042
vn -0.0000 0.0000 1.0000
vn 0.9072 -0.4207 -0.0000
vn 0.9775 -0.2109 -0.0000
vn 0.6569 -0.7540 -0.0000
vn 0.3362 -0.9418 -0.0000
vn 0.0000 -1.0000 -0.0000
vn -0.0000 -1.0000 -0.0000
vn -0.3362 -0.9418 -0.0000
vn -0.3362 -0.9418 0.0000
vn -0.6569 -0.7540 0.0000
vn -0.9072 -0.4207 0.0000
vn -0.9072 -0.4207 -0.0000
vn -0.9775 -0.2109 -0.0000
vn 0.0000 -0.0000 1.0000
# 43 vertex normals

vt 0.9968 0.2486 0.0000
vt 0.9968 0.4897 0.0000
vt 0.5513 0.4897 0.0000
vt 0.5513 0.2486 0.0000
vt 0.3251 0.7521 0.0000
vt 0.3251 0.9932 0.0000
vt 0.4655 0.9932 0.0000
vt 0.4655 0.7521 0.0000
vt 0.3074 0.5790 0.0000
vt 0.2363 0.5790 0.0000
vt 0.2363 0.5086 0.0000
vt 0.3074 0.5086 0.0000
vt 0.3151 0.4897 0.0000
vt 0.3151 0.2486 0.0000
vt 0.4795 0.5085 0.0000
vt 0.4795 0.9235 0.0000
vt 0.9959 0.9235 0.0000
vt 0.9959 0.5085 0.0000
vt 0.0213 0.4594 0.0000
vt 0.0213 0.0382 0.0000
vt 0.2828 0.0382 0.0000
vt 0.2828 0.4594 0.0000
vt 0.0331 0.0094 0.0000
vt 0.2701 0.0094 0.0000
vt 0.2681 0.0241 0.0000
vt 0.0349 0.0241 0.0000
vt 0.0067 0.4618 0.0000
vt 0.0067 0.0364 0.0000
vt 0.2711 0.4882 0.0000
vt 0.0341 0.4882 0.0000
vt 0.0361 0.4735 0.0000
vt 0.2693 0.4735 0.0000
vt 0.2975 0.0358 0.0000
vt 0.2975 0.4612 0.0000
vt 0.0242 0.0276 0.0000
vt 0.0164 0.0172 0.0000
vt 0.0254 0.4700 0.0000
vt 0.0148 0.4785 0.0000
vt 0.2800 0.4700 0.0000
vt 0.2878 0.4804 0.0000
vt 0.2787 0.0276 0.0000
vt 0.2893 0.0191 0.0000
vt 0.1269 0.9604 0.0000
vt 0.1384 0.9927 0.0000
vt 0.0089 0.9928 0.0000
vt 0.0452 0.9621 0.0000
vt 0.1936 0.9143 0.0000
vt 0.2233 0.9362 0.0000
vt 0.2378 0.8440 0.0000
vt 0.2747 0.8546 0.0000
vt 0.2532 0.7608 0.0000
vt 0.2920 0.7601 0.0000
vt 0.2372 0.6778 0.0000
vt 0.2736 0.6655 0.0000
vt 0.1925 0.6078 0.0000
vt 0.2209 0.5835 0.0000
vt 0.1258 0.5623 0.0000
vt 0.1314 0.5194 0.0000
vt 0.0493 0.5562 0.0000
vt 0.0102 0.5142 0.0000
# 60 texture coords

g base2
usemtl Material__1
s 4
f 101/119/87 102/120/87 103/121/87 
f 103/121/87 104/122/87 101/119/87 
s 8
f 105/123/88 106/124/88 102/125/88 
f 102/125/88 101/126/88 105/123/88 
s 2
f 102/127/89 106/128/89 107/129/89 
f 107/129/89 103/130/89 102/127/89 
s 8
f 107/131/90 108/132/90 104/122/90 
f 104/122/90 103/121/90 107/131/90 
s 2
f 104/133/91 108/134/91 105/135/91 
f 105/135/91 101/136/91 104/133/91 
s 8
f 109/137/90 110/138/90 111/139/90 
f 111/139/90 112/140/90 109/137/90 
s 1
f 113/141/92 114/142/93 115/143/94 
f 115/143/94 116/144/95 113/141/92 
f 117/145/96 118/146/97 110/138/98 
f 110/138/98 109/137/99 117/145/96 
f 119/147/100 120/148/101 121/149/102 
f 121/149/102 122/150/103 119/147/100 
f 123/151/104 124/152/105 112/140/106 
f 112/140/106 111/139/107 123/151/104 
f 116/144/95 125/153/108 126/154/109 
f 126/154/109 113/141/92 116/144/95 
f 109/137/99 127/155/110 128/156/111 
f 128/156/111 117/145/96 109/137/99 
f 122/150/103 129/157/112 130/158/113 
f 130/158/113 119/147/100 122/150/103 
f 111/139/107 131/159/114 132/160/115 
f 132/160/115 123/151/104 111/139/107 
f 125/153/108 110/138/98 118/146/97 
f 118/146/97 126/154/109 125/153/108 
f 127/155/110 121/149/102 120/148/101 
f 120/148/101 128/156/111 127/155/110 
f 129/157/112 112/140/106 124/152/105 
f 124/152/105 130/158/113 129/157/112 
f 131/159/114 115/143/94 114/142/93 
f 114/142/93 132/160/115 131/159/114 
s 8
f 109/137/90 112/140/90 129/157/116 
f 129/157/116 127/155/90 109/137/90 
f 127/155/90 129/157/116 122/150/90 
f 122/150/90 121/149/116 127/155/90 
f 131/159/90 125/153/116 116/144/90 
f 116/144/90 115/143/116 131/159/90 
f 111/139/90 110/138/90 125/153/116 
f 125/153/116 131/159/90 111/139/90 
s 1
f 133/161/117 134/162/117 135/163/118 
f 135/163/118 136/164/118 133/161/117 
f 137/165/119 138/166/119 134/162/117 
f 134/162/117 133/161/117 137/165/119 
f 139/167/120 140/168/120 138/166/119 
f 138/166/119 137/165/119 139/167/120 
f 141/169/121 142/170/122 140/168/120 
f 140/168/120 139/167/120 141/169/121 
f 143/171/123 144/172/124 142/170/122 
f 142/170/122 141/169/121 143/171/123 
f 145/173/125 146/174/125 144/172/124 
f 144/172/124 143/171/123 145/173/125 
f 147/175/126 148/176/127 146/174/125 
f 146/174/125 145/173/125 147/175/126 
f 149/177/128 150/178/128 148/176/127 
f 148/176/127 147/175/126 149/177/128 
s 8
f 149/177/90 147/175/129 133/161/129 
f 133/161/129 136/164/90 149/177/90 
s 2
f 150/178/91 149/177/91 136/164/91 
f 136/164/91 135/163/91 150/178/91 
s 8
f 147/175/129 145/173/129 137/165/129 
f 137/165/129 133/161/129 147/175/129 
f 145/173/129 143/171/90 139/167/90 
f 139/167/90 137/165/129 145/173/129 
f 139/167/90 143/171/90 141/169/90 
# 69 faces

