# 3ds Max Wavefront OBJ Exporter v0.97b - (c)2007 guruware
# File Created: 22.01.2021 10:32:18

mtllib ??\tale_stairs.mtl

#
# object base
#

v  0.0000 100.0000 -50.0000
v  0.0000 100.0000 -100.0000
v  0.0000 50.0000 -100.0000
v  0.0000 50.0000 -50.0000
v  100.0000 50.0000 -100.0000
v  100.0000 100.0000 -100.0000
v  100.0000 100.0000 -50.0000
v  100.0000 50.0000 -50.0000
v  78.3175 88.7469 -50.0000
v  21.6825 88.7469 -50.0000
v  89.1588 88.7469 -100.0000
v  10.8413 88.7469 -100.0000
v  10.8413 50.0000 -60.4802
v  21.6825 50.0000 -60.4802
v  21.6825 50.0000 -50.0000
v  21.6825 88.7469 -60.4802
v  78.3175 50.0000 -60.4802
v  78.3175 50.0000 -50.0000
v  78.3175 88.7469 -60.4802
v  10.8413 50.0000 -100.0000
v  89.1588 50.0000 -100.0000
v  89.1588 50.0000 -60.4802
v  10.8413 88.7469 -60.4802
v  89.1588 88.7469 -60.4802
v  -0.0000 50.0000 0.0000
v  0.0000 0.0000 -50.0000
v  -0.0000 0.0000 0.0000
v  100.0000 0.0000 -50.0000
v  100.0000 50.0000 0.0000
v  100.0000 0.0000 0.0000
v  78.3175 38.7469 0.0000
v  21.6825 38.7469 0.0000
v  89.1587 38.7469 -50.0000
v  10.8412 38.7469 -50.0000
v  10.8412 0.0000 -10.4802
v  21.6825 0.0000 -10.4802
v  21.6825 0.0000 0.0000
v  21.6825 38.7469 -10.4802
v  78.3175 0.0000 -10.4802
v  78.3175 0.0000 0.0000
v  78.3175 38.7469 -10.4802
v  10.8412 0.0000 -50.0000
v  89.1587 0.0000 -50.0000
v  89.1587 0.0000 -10.4802
v  10.8412 38.7469 -10.4802
v  89.1587 38.7469 -10.4802
v  36.4681 38.7469 -54.7047
v  36.4681 62.3261 -54.7047
v  38.1412 67.3453 -54.7047
v  50.0000 38.7469 -54.7047
v  61.8588 67.3453 -54.7047
v  63.5319 62.3261 -54.7047
v  63.5319 38.7469 -54.7047
v  36.4681 38.7469 -50.0000
v  50.0000 38.7469 -50.0000
v  38.1412 67.3453 -50.0000
v  36.4681 62.3261 -50.0000
v  61.8588 67.3453 -50.0000
v  56.8396 70.3063 -50.0000
v  50.0000 71.1079 -50.0000
v  63.5319 38.7469 -50.0000
v  63.5319 62.3261 -50.0000
v  56.8396 70.3063 -54.7047
v  50.0000 71.1079 -54.7047
v  43.1604 70.3063 -54.7047
v  43.1604 70.3063 -50.0000
v  41.3830 77.3300 -54.4742
v  47.2716 77.3300 -54.4742
v  47.2716 68.4167 -54.4742
v  41.3830 68.4167 -54.4742
v  47.2716 77.3300 -50.2305
v  47.2716 68.4166 -50.2305
v  46.5584 79.3473 -54.4742
v  44.3273 80.0556 -54.4742
v  44.3273 80.0556 -50.2305
v  46.5584 79.3473 -50.2305
v  42.0963 79.3473 -54.4742
v  42.0963 79.3473 -50.2305
v  41.3830 68.4166 -50.2305
v  41.3830 77.3300 -50.2305
v  58.6170 77.3300 -54.4742
v  58.6170 68.4167 -54.4742
v  52.7284 68.4167 -54.4742
v  52.7284 77.3300 -54.4742
v  52.7284 68.4166 -50.2305
v  52.7284 77.3300 -50.2305
v  53.4416 79.3473 -54.4742
v  53.4416 79.3473 -50.2305
v  55.6727 80.0556 -50.2305
v  55.6727 80.0556 -54.4742
v  57.9037 79.3473 -50.2305
v  57.9037 79.3473 -54.4742
v  58.6170 77.3300 -50.2305
v  58.6170 68.4166 -50.2305
v  36.4681 38.7469 -15.1849
v  50.0000 38.7469 -15.1849
v  38.1412 21.4017 -15.1849
v  36.4681 26.4209 -15.1849
v  61.8588 21.4017 -15.1849
v  63.5319 38.7469 -15.1849
v  63.5319 26.4209 -15.1849
v  36.4681 38.7469 -10.4802
v  36.4681 26.4209 -10.4802
v  38.1412 21.4017 -10.4802
v  50.0000 38.7469 -10.4802
v  61.8588 21.4017 -10.4802
v  50.0000 17.6391 -10.4802
v  56.8396 18.4407 -10.4802
v  63.5319 38.7469 -10.4802
v  63.5319 26.4209 -10.4802
v  56.8396 18.4407 -15.1849
v  50.0000 17.6391 -15.1849
v  43.1604 18.4407 -10.4802
v  43.1604 18.4407 -15.1849
v  41.3830 11.4170 -14.9544
v  41.3830 20.3303 -14.9544
v  47.2716 20.3303 -14.9544
v  47.2716 11.4170 -14.9544
v  47.2716 20.3303 -10.7107
v  47.2716 11.4170 -10.7107
v  46.5584 9.3996 -14.9544
v  46.5584 9.3996 -10.7107
v  44.3273 8.6913 -10.7107
v  44.3273 8.6913 -14.9544
v  42.0963 9.3996 -10.7107
v  42.0963 9.3996 -14.9544
v  41.3830 11.4170 -10.7107
v  41.3830 20.3303 -10.7107
v  58.6170 11.4170 -14.9544
v  52.7284 11.4170 -14.9544
v  52.7284 20.3303 -14.9544
v  58.6170 20.3303 -14.9544
v  52.7284 11.4170 -10.7107
v  52.7284 20.3303 -10.7107
v  53.4416 9.3996 -14.9544
v  55.6727 8.6913 -14.9544
v  55.6727 8.6913 -10.7107
v  53.4416 9.3996 -10.7107
v  57.9037 9.3996 -14.9544
v  57.9037 9.3996 -10.7107
v  58.6170 20.3303 -10.7107
v  58.6170 11.4170 -10.7107
# 142 vertices

vn -1.0000 0.0000 -0.0000
vn 1.0000 0.0000 0.0000
vn 0.0000 1.0000 -0.0000
vn -0.0000 -0.0000 1.0000
vn -0.0000 0.0000 1.0000
vn 0.0000 -0.0000 -1.0000
vn 0.0000 0.0000 -1.0000
vn 0.0000 -1.0000 -0.0000
vn 1.0000 -0.0000 0.0000
vn -1.0000 -0.0000 -0.0000
vn 1.0000 0.0000 -0.0000
vn -0.0000 -0.0000 -1.0000
vn -0.0000 0.0000 -1.0000
vn 0.0000 -0.0000 1.0000
vn 0.0000 0.0000 1.0000
vn -0.7071 -0.7071 -0.0000
vn 0.7071 -0.7071 -0.0000
vn 0.9871 0.1602 -0.0000
vn 0.3191 0.9477 -0.0000
vn -0.0000 1.0000 -0.0000
vn -0.3191 0.9477 -0.0000
vn -0.9871 0.1602 -0.0000
vn 0.9487 0.3162 -0.0000
vn -0.5081 0.8613 -0.0000
vn 0.5081 0.8613 -0.0000
vn -0.9487 0.3162 -0.0000
vn 0.9856 0.1691 -0.0000
vn 0.3026 0.9531 -0.0000
vn -0.3026 0.9531 -0.0000
vn -0.9856 0.1691 -0.0000
vn 0.9428 0.3333 -0.0000
vn -0.9428 0.3333 -0.0000
vn 0.9871 -0.1602 0.0000
vn 0.3191 -0.9477 0.0000
vn -0.0000 -1.0000 -0.0000
vn 0.0000 -1.0000 0.0000
vn -0.3191 -0.9477 -0.0000
vn -0.9871 -0.1602 -0.0000
vn 0.9487 -0.3162 0.0000
vn -0.5081 -0.8613 -0.0000
vn 0.5081 -0.8613 0.0000
vn -0.9487 -0.3162 -0.0000
vn 0.9856 -0.1691 0.0000
vn 0.3026 -0.9531 0.0000
vn -0.3026 -0.9531 -0.0000
vn -0.9856 -0.1691 -0.0000
vn 0.9428 -0.3333 0.0000
vn -0.9428 -0.3333 -0.0000
# 48 vertex normals

vt 0.3643 0.9931 0.0000
vt 0.3643 0.6795 0.0000
vt 0.6943 0.6795 0.0000
vt 0.6943 0.9931 0.0000
vt 0.0081 0.6795 0.0000
vt 0.0081 0.0073 0.0000
vt 0.3643 0.0073 0.0000
vt 0.4393 0.5339 0.0000
vt 0.3643 0.0079 0.0000
vt 0.4393 0.1535 0.0000
vt 0.6963 0.1706 0.0000
vt 0.6704 0.2018 0.0000
vt 0.4829 0.2018 0.0000
vt 0.4570 0.1705 0.0000
vt 0.1851 0.8812 0.0000
vt 0.2205 0.8385 0.0000
vt 0.2204 0.7958 0.0000
vt 0.1849 0.7959 0.0000
vt 0.3533 0.7656 0.0000
vt 0.3533 0.6991 0.0000
vt 0.2126 0.6991 0.0000
vt 0.2126 0.7656 0.0000
vt 0.4570 0.3095 0.0000
vt 0.4829 0.3095 0.0000
vt 0.6963 0.3095 0.0000
vt 0.6704 0.3095 0.0000
vt 0.3545 0.8808 0.0000
vt 0.3544 0.8381 0.0000
vt 0.6943 0.0079 0.0000
vt 0.6943 0.1535 0.0000
vt 0.6943 0.5339 0.0000
vt 0.0094 0.7656 0.0000
vt 0.0094 0.6991 0.0000
vt 0.6058 0.3026 0.0000
vt 0.5899 0.2359 0.0000
vt 0.6058 0.2359 0.0000
vt 0.6622 0.3026 0.0000
vt 0.6622 0.2359 0.0000
vt 0.4918 0.3026 0.0000
vt 0.4918 0.2359 0.0000
vt 0.5075 0.2359 0.0000
vt 0.2386 0.7814 0.0000
vt 0.3509 0.7814 0.0000
vt 0.3509 0.8234 0.0000
vt 0.2386 0.8234 0.0000
vt 0.7166 0.9915 0.0000
vt 0.7166 0.5720 0.0000
vt 0.7502 0.4826 0.0000
vt 0.9881 0.9915 0.0000
vt 0.8509 0.4233 0.0000
vt 0.9881 0.4116 0.0000
vt 0.2466 0.9494 0.0000
vt 0.3477 0.9494 0.0000
vt 0.3477 0.9897 0.0000
vt 0.2466 0.9897 0.0000
vt 0.1446 0.9494 0.0000
vt 0.1446 0.9897 0.0000
vt 0.0615 0.9494 0.0000
vt 0.0099 0.9494 0.0000
vt 0.0099 0.9897 0.0000
vt 0.0615 0.9897 0.0000
vt 0.1051 0.9897 0.0000
vt 0.1051 0.9494 0.0000
vt 0.5869 0.4714 0.0000
vt 0.6829 0.4714 0.0000
vt 0.6829 0.3225 0.0000
vt 0.5869 0.3225 0.0000
vt 0.1644 0.8403 0.0000
vt 0.0625 0.8403 0.0000
vt 0.0625 0.8807 0.0000
vt 0.1644 0.8807 0.0000
vt 0.0364 0.8403 0.0000
vt 0.0105 0.8403 0.0000
vt 0.0105 0.8807 0.0000
vt 0.0364 0.8807 0.0000
vt 0.5986 0.5052 0.0000
vt 0.6713 0.5052 0.0000
vt 0.6349 0.5170 0.0000
vt 0.9879 0.0122 0.0000
vt 0.7166 0.0122 0.0000
vt 0.9543 0.3483 0.0000
vt 0.9879 0.2507 0.0000
vt 0.7166 0.4161 0.0000
vt 0.8537 0.4016 0.0000
vt 0.2466 0.8936 0.0000
vt 0.2466 0.9339 0.0000
vt 0.1446 0.9339 0.0000
vt 0.1446 0.8936 0.0000
vt 0.0615 0.8936 0.0000
vt 0.0615 0.9339 0.0000
vt 0.0099 0.9339 0.0000
vt 0.0099 0.8936 0.0000
vt 0.1051 0.9339 0.0000
vt 0.1051 0.8936 0.0000
vt 0.4638 0.4714 0.0000
vt 0.4638 0.3225 0.0000
vt 0.5597 0.3225 0.0000
vt 0.5597 0.4714 0.0000
vt 0.1644 0.7838 0.0000
vt 0.1644 0.8242 0.0000
vt 0.0625 0.8242 0.0000
vt 0.0625 0.7838 0.0000
vt 0.0364 0.7838 0.0000
vt 0.0364 0.8242 0.0000
vt 0.0105 0.8242 0.0000
vt 0.0105 0.7838 0.0000
vt 0.4754 0.5052 0.0000
vt 0.5481 0.5052 0.0000
vt 0.5118 0.5170 0.0000
# 109 texture coords

g base
usemtl Material__1
s 4
f 1/1/1 2/2/1 3/3/1 
f 3/3/1 4/4/1 1/1/1 
f 5/3/2 6/2/2 7/1/2 
f 7/1/2 8/4/2 5/3/2 
s 2
f 6/5/3 2/6/3 1/7/3 
f 1/7/3 7/2/3 6/5/3 
s 1
f 9/8/4 7/2/4 1/9/5 
f 1/9/5 10/10/5 9/8/4 
f 6/11/6 11/12/6 12/13/7 
f 12/13/7 2/14/7 6/11/6 
s 2
f 4/15/8 13/16/8 14/17/8 
f 14/17/8 15/18/8 4/15/8 
s 4
f 15/19/9 14/20/9 16/21/9 
f 16/21/9 10/22/2 15/19/9 
f 17/20/10 18/19/1 9/22/10 
f 9/22/10 19/21/10 17/20/10 
s 1
f 3/23/7 2/14/7 12/13/7 
f 12/13/7 20/24/7 3/23/7 
f 6/11/6 5/25/7 21/26/7 
f 21/26/7 11/12/6 6/11/6 
s 2
f 5/27/8 8/15/8 22/16/8 
f 22/16/8 21/28/8 5/27/8 
s 1
f 1/9/5 4/29/5 15/30/5 
f 15/30/5 10/10/5 1/9/5 
f 9/8/4 18/31/5 8/3/4 
f 8/3/4 7/2/4 9/8/4 
s 2
f 9/32/8 10/22/8 16/21/8 
f 16/21/8 19/33/8 9/32/8 
f 8/15/8 18/18/8 17/17/8 
f 17/17/8 22/16/8 8/15/8 
f 3/27/8 20/28/8 13/16/8 
f 13/16/8 4/15/8 3/27/8 
f 12/34/8 16/35/8 23/36/8 
s 4
f 20/37/11 12/34/11 23/36/11 
f 23/36/11 13/38/11 20/37/11 
f 11/37/10 21/34/10 22/36/10 
f 22/36/10 24/38/10 11/37/10 
s 2
f 11/39/8 24/40/8 19/41/8 
f 12/34/8 11/39/8 19/41/8 
f 19/41/8 16/35/8 12/34/8 
s 1
f 24/42/6 22/43/7 17/44/6 
f 17/44/6 19/45/6 24/42/6 
f 13/43/7 23/42/7 16/45/7 
f 16/45/7 14/44/7 13/43/7 
s 4
f 25/1/1 4/2/1 26/3/1 
f 26/3/1 27/4/1 25/1/1 
f 28/3/2 8/2/2 29/1/2 
f 29/1/2 30/4/2 28/3/2 
s 2
f 8/5/3 4/6/3 25/7/3 
f 25/7/3 29/2/3 8/5/3 
s 1
f 31/8/5 29/2/5 25/9/4 
f 25/9/4 32/10/4 31/8/5 
f 8/11/6 33/12/6 34/13/7 
f 34/13/7 4/14/7 8/11/6 
s 2
f 27/15/8 35/16/8 36/17/8 
f 36/17/8 37/18/8 27/15/8 
s 4
f 37/19/2 36/20/2 38/21/2 
f 38/21/2 32/22/11 37/19/2 
f 39/20/10 40/19/1 31/22/10 
f 31/22/10 41/21/10 39/20/10 
s 1
f 26/23/7 4/14/7 34/13/7 
f 34/13/7 42/24/7 26/23/7 
f 8/11/6 28/25/7 43/26/7 
f 43/26/7 33/12/6 8/11/6 
s 2
f 28/27/8 30/15/8 44/16/8 
f 44/16/8 43/28/8 28/27/8 
s 1
f 25/9/4 27/29/5 37/30/5 
f 37/30/5 32/10/4 25/9/4 
f 31/8/5 40/31/5 30/3/4 
f 30/3/4 29/2/5 31/8/5 
s 2
f 31/32/8 32/22/8 38/21/8 
f 38/21/8 41/33/8 31/32/8 
f 30/15/8 40/18/8 39/17/8 
f 39/17/8 44/16/8 30/15/8 
f 26/27/8 42/28/8 35/16/8 
f 35/16/8 27/15/8 26/27/8 
f 34/34/8 38/35/8 45/36/8 
s 4
f 42/37/2 34/34/2 45/36/2 
f 45/36/2 35/38/2 42/37/2 
f 33/37/10 43/34/10 44/36/10 
f 44/36/10 46/38/10 33/37/10 
s 2
f 33/39/8 46/40/8 41/41/8 
f 34/34/8 33/39/8 41/41/8 
f 41/41/8 38/35/8 34/34/8 
s 1
f 46/42/6 44/43/12 39/44/12 
f 39/44/12 41/45/6 46/42/6 
f 35/43/7 45/42/7 38/45/7 
f 38/45/7 36/44/7 35/43/7 
s 2
f 47/46/13 48/47/13 49/48/13 
f 49/48/13 50/49/7 47/46/13 
f 51/48/12 52/47/7 53/46/7 
f 53/46/7 50/49/7 51/48/12 
f 54/46/14 55/49/14 56/48/5 
f 56/48/5 57/47/14 54/46/14 
f 58/48/15 59/50/15 60/51/15 
f 60/51/15 55/49/14 58/48/15 
s 1
f 47/52/16 50/53/8 55/54/8 
f 55/54/8 54/55/16 47/52/16 
f 50/53/8 53/52/17 61/55/17 
f 61/55/17 55/54/8 50/53/8 
f 53/52/17 52/56/18 62/57/18 
f 62/57/18 61/55/17 53/52/17 
s 4
f 63/58/19 64/59/3 60/60/20 
f 60/60/20 59/61/19 63/58/19 
f 64/59/3 65/58/21 66/61/21 
f 66/61/21 60/60/20 64/59/3 
s 1
f 48/56/22 47/52/16 54/55/16 
f 54/55/16 57/57/22 48/56/22 
f 58/62/23 62/57/18 52/56/18 
f 52/56/18 51/63/23 58/62/23 
s 4
f 56/62/24 66/61/21 65/58/21 
f 65/58/21 49/63/24 56/62/24 
f 59/61/19 58/62/25 51/63/25 
f 51/63/25 63/58/19 59/61/19 
s 1
f 57/57/22 56/62/26 49/63/26 
f 49/63/26 48/56/22 57/57/22 
s 2
f 49/48/13 65/50/7 64/51/12 
f 64/51/12 50/49/7 49/48/13 
f 60/51/15 66/50/5 56/48/5 
f 56/48/5 55/49/14 60/51/15 
f 64/51/12 63/50/12 51/48/12 
f 51/48/12 50/49/7 64/51/12 
f 61/46/4 62/47/4 58/48/15 
f 58/48/15 55/49/14 61/46/4 
f 67/64/7 68/65/7 69/66/7 
f 69/66/7 70/67/7 67/64/7 
s 1
f 69/68/11 68/69/27 71/70/27 
f 71/70/27 72/71/11 69/68/11 
s 4
f 73/72/28 74/73/20 75/74/3 
f 75/74/3 76/75/28 73/72/28 
f 74/73/20 77/72/29 78/75/29 
f 78/75/29 75/74/3 74/73/20 
s 1
f 67/69/30 70/68/1 79/71/1 
f 79/71/1 80/70/30 67/69/30 
f 76/75/31 71/70/27 68/69/27 
f 68/69/27 73/72/31 76/75/31 
f 80/70/30 78/75/32 77/72/32 
f 77/72/32 67/69/30 80/70/30 
s 2
f 71/65/14 80/64/14 79/67/14 
f 79/67/14 72/66/14 71/65/14 
f 77/76/7 73/77/7 68/65/7 
f 68/65/7 67/64/7 77/76/7 
f 76/77/14 78/76/14 80/64/14 
f 80/64/14 71/65/14 76/77/14 
f 77/76/7 74/78/7 73/77/7 
f 76/77/14 75/78/15 78/76/14 
f 81/64/6 82/67/7 83/66/7 
f 83/66/7 84/65/13 81/64/6 
s 1
f 83/68/1 85/71/1 86/70/30 
f 86/70/30 84/69/30 83/68/1 
s 4
f 87/72/29 88/75/29 89/74/20 
f 89/74/20 90/73/3 87/72/29 
f 90/73/3 89/74/20 91/75/28 
f 91/75/28 92/72/28 90/73/3 
s 1
f 81/69/27 93/70/27 94/71/11 
f 94/71/11 82/68/11 81/69/27 
f 88/75/32 87/72/32 84/69/30 
f 84/69/30 86/70/30 88/75/32 
f 93/70/27 81/69/27 92/72/31 
f 92/72/31 91/75/31 93/70/27 
s 2
f 86/65/14 85/66/14 94/67/14 
f 94/67/14 93/64/14 86/65/14 
f 92/76/12 81/64/6 84/65/13 
f 84/65/13 87/77/13 92/76/12 
f 88/77/14 86/65/14 93/64/14 
f 93/64/14 91/76/14 88/77/14 
f 92/76/12 87/77/13 90/78/13 
f 88/77/14 91/76/14 89/78/14 
f 95/79/6 96/80/6 97/81/6 
f 97/81/6 98/82/12 95/79/6 
f 99/81/6 96/80/6 100/79/6 
f 100/79/6 101/82/6 99/81/6 
f 102/79/5 103/82/5 104/81/5 
f 104/81/5 105/80/5 102/79/5 
f 106/81/5 105/80/5 107/83/5 
f 107/83/5 108/84/4 106/81/5 
s 1
f 100/85/2 109/86/2 110/87/33 
f 110/87/33 101/88/33 100/85/2 
s 4
f 111/89/34 108/90/34 107/91/35 
f 107/91/35 112/92/36 111/89/34 
f 112/92/36 107/91/35 113/90/37 
f 113/90/37 114/89/37 112/92/36 
s 1
f 98/88/38 103/87/38 102/86/10 
f 102/86/10 95/85/10 98/88/38 
f 106/93/39 99/94/39 101/88/33 
f 101/88/33 110/87/33 106/93/39 
s 4
f 104/93/40 97/94/40 114/89/37 
f 114/89/37 113/90/37 104/93/40 
f 108/90/34 111/89/34 99/94/41 
f 99/94/41 106/93/41 108/90/34 
s 1
f 103/87/38 98/88/38 97/94/42 
f 97/94/42 104/93/42 103/87/38 
s 2
f 97/81/6 96/80/6 112/83/6 
f 112/83/6 114/84/6 97/81/6 
f 107/83/5 105/80/5 104/81/5 
f 104/81/5 113/84/4 107/83/5 
f 112/83/6 96/80/6 99/81/6 
f 99/81/6 111/84/6 112/83/6 
f 109/79/5 105/80/5 106/81/5 
f 106/81/5 110/82/15 109/79/5 
f 115/95/6 116/96/6 117/97/6 
f 117/97/6 118/98/6 115/95/6 
s 1
f 117/99/2 119/100/2 120/101/43 
f 120/101/43 118/102/43 117/99/2 
s 4
f 121/103/44 122/104/44 123/105/35 
f 123/105/35 124/106/36 121/103/44 
f 124/106/36 123/105/35 125/104/45 
f 125/104/45 126/103/45 124/106/36 
s 1
f 115/102/46 127/101/46 128/100/10 
f 128/100/10 116/99/10 115/102/46 
f 122/104/47 121/103/47 118/102/43 
f 118/102/43 120/101/43 122/104/47 
f 127/101/46 115/102/46 126/103/48 
f 126/103/48 125/104/48 127/101/46 
s 2
f 120/98/15 119/97/15 128/96/15 
f 128/96/15 127/95/15 120/98/15 
f 126/107/6 115/95/6 118/98/6 
f 118/98/6 121/108/6 126/107/6 
f 122/108/15 120/98/15 127/95/15 
f 127/95/15 125/107/15 122/108/15 
f 126/107/6 121/108/6 124/109/6 
f 122/108/15 125/107/15 123/109/15 
f 129/95/6 130/98/6 131/97/6 
f 131/97/6 132/96/6 129/95/6 
s 1
f 131/99/10 130/102/46 133/101/46 
f 133/101/46 134/100/10 131/99/10 
s 4
f 135/103/45 136/106/36 137/105/35 
f 137/105/35 138/104/45 135/103/45 
f 136/106/36 139/103/44 140/104/44 
f 140/104/44 137/105/35 136/106/36 
s 1
f 129/102/43 132/99/2 141/100/2 
f 141/100/2 142/101/43 129/102/43 
f 138/104/48 133/101/46 130/102/46 
f 130/102/46 135/103/48 138/104/48 
f 142/101/43 140/104/47 139/103/47 
f 139/103/47 129/102/43 142/101/43 
s 2
f 133/98/5 142/95/5 141/96/5 
f 141/96/5 134/97/5 133/98/5 
f 139/107/6 135/108/6 130/98/6 
f 130/98/6 129/95/6 139/107/6 
f 138/108/5 140/107/5 142/95/5 
f 142/95/5 133/98/5 138/108/5 
f 139/107/6 136/109/6 135/108/6 
f 138/108/5 137/109/5 140/107/5 
# 244 faces

