# Max2Obj Version 4.0 Mar 10th, 2001
#
# object base to come ...
#
v  100.000000 -1.070118 -100.000000
v  8.911110 33.702049 -91.088890
v  100.000000 -1.070122 0.000000
v  96.117989 17.144825 -96.117989
v  3.882011 17.144821 -3.882008
v  94.176979 17.147472 -94.176971
v  5.823017 17.147472 -94.176979
v  94.176987 17.147469 -5.823009
v  5.940502 26.072798 -5.940495
v  8.911110 33.702049 -8.911110
v  5.823021 17.147469 -5.823009
v  94.059494 26.072802 -94.059494
v  5.940498 26.072802 -94.059494
v  94.059502 26.072798 -5.940495
v  3.882008 17.144825 -96.117989
v  96.117996 17.144821 -3.882008
v  91.385956 32.939125 -91.385941
v  8.614048 32.939125 -91.385956
v  8.614048 32.939125 -8.614048
v  91.385956 32.939125 -8.614048
v  0.388199 0.751376 -99.611801
v  99.611801 0.751373 -0.388199
v  99.611801 0.751375 -99.611801
v  0.388203 0.751371 -0.388199
v  91.088890 33.702049 -91.088882
v  91.088890 33.702049 -8.911110
v  0.000000 -1.070118 -100.000000
v  0.000000 -1.070122 0.000000
v  49.999992 33.702049 -89.551208
v  77.966934 33.702049 -77.966934
v  77.966942 33.702049 -22.033054
v  50.000000 33.702049 -10.448765
v  22.033062 33.702049 -22.033054
v  77.966934 29.574089 -77.966934
v  89.551224 29.574089 -49.999992
v  50.000000 29.574089 -10.448765
v  22.033064 29.574089 -77.966927
v  49.999992 32.917736 -89.551208
v  77.966934 32.917736 -77.966934
v  89.551224 32.917736 -49.999992
v  77.966942 32.917736 -22.033054
v  50.000000 32.917736 -10.448765
v  22.033062 32.917736 -22.033054
v  10.448776 32.917736 -49.999989
v  22.033064 32.917736 -77.966927
v  89.551224 33.702049 -49.999992
v  10.448776 33.702049 -49.999989
v  22.033064 33.702049 -77.966927
v  50.000000 29.574093 -49.999989
v  49.999992 29.574089 -89.551208
v  77.966942 29.574089 -22.033054
v  22.033062 29.574089 -22.033054
v  10.448776 29.574089 -49.999989
v  80.285744 32.366955 -80.296059
v  84.342262 34.568447 -76.773712
v  80.552826 37.110954 -80.563148
v  89.065765 34.568447 -89.076096
v  78.263695 34.568447 -78.274017
v  76.763382 34.568447 -84.352585
v  19.703939 32.366955 -80.285744
v  23.226286 34.568447 -84.342262
v  19.436850 37.110954 -80.552826
v  10.923901 34.568447 -89.065765
v  21.725981 34.568447 -78.263695
v  15.647415 34.568447 -76.763382
v  19.714254 32.366955 -19.703943
v  15.657738 34.568447 -23.226290
v  19.447172 37.110954 -19.436853
v  10.934231 34.568447 -10.923904
v  21.736303 34.568447 -21.725985
v  23.236616 34.568447 -15.647415
v  80.296059 32.366955 -19.714258
v  76.773712 34.568447 -15.657738
v  80.563148 37.110954 -19.447176
v  89.076096 34.568447 -10.934235
v  78.274017 34.568447 -21.736307
v  84.352585 34.568447 -23.236620
# 77 vertices

vt  0.501429 0.014330 1.412800
vt  0.014192 0.014330 1.412800
vt  0.501429 0.280211 1.161008
vt  0.989063 0.014329 1.412800
vt  0.501360 0.014329 1.412800
vt  0.014192 0.128815 1.303110
vt  0.989063 0.128881 1.303110
vt  0.014192 0.153969 1.248265
vt  0.501429 0.154182 1.248265
vt  0.501360 0.154335 1.248265
vt  0.989063 0.217094 1.244946
vt  0.989063 0.280211 1.161008
vt  0.989063 0.154296 1.248265
vt  0.014192 0.217094 1.244945
vt  0.501429 0.217094 1.244946
vt  0.501360 0.217094 1.244946
vt  0.501471 0.128826 1.303110
vt  0.501360 0.128847 1.303110
vt  0.014192 0.263798 1.169402
vt  0.501429 0.263798 1.169402
vt  0.989063 0.263798 1.169402
vt  0.501360 0.263798 1.169402
vt  0.501429 0.032542 1.401832
vt  0.501360 0.032542 1.401832
vt  0.014192 0.032542 1.401832
vt  0.989063 0.032542 1.401832
vt  0.014192 0.280211 1.161008
vt  0.501360 0.280211 1.161008
vt  0.014237 0.032542 1.401832
vt  0.014237 0.014330 1.412800
vt  0.014237 0.154182 1.248265
vt  0.014181 0.128796 1.303110
vt  0.014237 0.217094 1.244945
vt  0.014237 0.263798 1.169402
vt  0.014237 0.280211 1.161008
vt  0.014237 0.032542 1.401832
vt  0.989013 0.014329 1.412800
vt  0.989111 0.128823 1.303110
vt  0.989013 0.217094 1.244946
vt  0.989013 0.280211 1.161008
vt  0.989175 0.154178 1.248265
vt  0.989013 0.263798 1.169402
vt  0.989013 0.032542 1.401832
vt  0.886748 0.612894 0.999500
vt  0.964583 0.612894 0.999501
vt  0.886748 0.690728 0.999500
vt  0.964583 0.690728 0.999500
vt  0.734829 0.433350 0.500000
vt  0.768439 0.514491 0.500000
vt  0.730368 0.551243 0.500000
vt  0.730368 0.308862 0.500000
vt  0.849581 0.313323 0.500000
vt  0.768439 0.352208 0.500000
vt  0.972749 0.308862 0.500000
vt  0.968288 0.433350 0.500000
vt  0.930722 0.352208 0.500000
vt  0.972749 0.551243 0.500000
vt  0.849581 0.546782 0.500000
vt  0.930722 0.514491 0.500000
vt  0.030245 0.319387 0.999001
vt  0.195577 0.319387 0.999001
vt  0.360843 0.319387 0.999001
vt  0.526140 0.319387 0.999001
vt  0.691472 0.319387 0.999001
vt  0.526120 0.319387 0.999001
vt  0.360713 0.319387 0.999001
vt  0.195457 0.319387 0.999001
vt  0.030245 0.409748 0.999001
vt  0.195577 0.409748 0.999001
vt  0.360843 0.409748 0.999001
vt  0.526140 0.409748 0.999001
vt  0.691472 0.409748 0.999001
vt  0.526120 0.409748 0.999001
vt  0.360713 0.409748 0.999001
vt  0.195525 0.409748 0.999001
vt  0.030245 0.430944 0.999001
vt  0.195577 0.430944 0.999001
vt  0.360843 0.430944 0.999001
vt  0.526140 0.430944 0.999001
vt  0.691472 0.430944 0.999001
vt  0.526120 0.430944 0.999001
vt  0.360713 0.430944 0.999001
vt  0.195525 0.430944 0.999001
vt  0.691492 0.319387 0.999001
vt  0.691492 0.409748 0.999001
vt  0.030241 0.319387 0.999001
vt  0.030243 0.409748 0.999001
vt  0.691492 0.430944 0.999001
vt  0.030245 0.430944 0.999001
vt  0.498188 0.971980 1.000000
vt  0.024852 0.971980 0.000000
vt  0.163489 0.637547 0.000000
vt  0.498188 0.498910 0.000000
vt  0.832887 0.637547 0.000000
vt  0.971524 0.971980 0.000000
vt  0.832887 0.637121 0.000000
vt  0.498188 0.498484 0.000000
vt  0.163489 0.637121 0.000000
vt  0.498188 0.972086 1.000000
vt  0.024852 0.972086 0.000000
vt  0.971524 0.972086 0.000000
vt  0.096313 0.546575 0.000499
vt  0.277863 0.546575 0.669445
vt  0.029146 0.546575 0.669445
vt  0.096254 0.459840 0.669445
vt  0.096254 0.633310 0.669445
vt  0.096254 0.546575 0.999501
vt  0.096313 0.546575 0.000499
vt  0.277863 0.546575 0.669445
vt  0.029146 0.546575 0.669445
vt  0.096254 0.459840 0.669445
vt  0.096254 0.633310 0.669445
vt  0.096254 0.546575 0.999501
vt  0.096313 0.546575 0.000499
vt  0.277863 0.546575 0.669445
vt  0.029146 0.546575 0.669445
vt  0.096254 0.459840 0.669445
vt  0.096254 0.633310 0.669445
vt  0.096254 0.546575 0.999501
vt  0.096313 0.546575 0.000499
vt  0.277863 0.546575 0.669445
vt  0.029146 0.546575 0.669445
vt  0.096254 0.459840 0.669445
vt  0.096254 0.633310 0.669445
vt  0.096254 0.546575 0.999501
# 125 texture vertices

vn  1.335310 0.569166 -1.335311
vn  -1.788096 0.699839 -0.009252
vn  1.317026 0.565269 1.335308
vn  0.001071 1.570799 -0.001071
vn  -1.567750 1.119521 0.001071
vn  0.000029 2.377684 -0.003214
vn  -0.003214 4.712387 -0.003214
vn  0.003214 4.712387 0.003214
vn  -1.483011 0.040368 1.583820
vn  -1.788098 1.392473 1.788096
vn  -0.003184 4.690891 0.003214
vn  0.100810 0.022174 -1.583820
vn  -1.583820 0.041695 -1.583820
vn  1.583820 0.041695 1.583820
vn  -1.737278 1.155650 -0.001071
vn  0.001042 1.549303 0.001071
vn  0.080161 0.727445 -1.788095
vn  -1.139407 0.474866 -0.080161
vn  -1.139404 1.139887 1.788095
vn  1.788096 1.392467 1.788095
vn  -0.169529 0.406385 -1.737278
vn  1.737278 0.740501 1.737278
vn  0.018285 0.374148 -1.737278
vn  -1.335309 0.654835 1.737278
vn  0.009247 0.699836 -1.788096
vn  1.788096 1.392473 1.788098
vn  -0.018285 0.288482 -1.335310
vn  -1.335310 0.569168 1.335308
vn  -0.591204 3.926990 1.427295
vn  -0.601117 3.926991 1.451227
vn  -1.451227 3.926991 -0.601118
vn  -0.601118 3.926991 -1.451226
vn  0.601118 3.926991 -1.451226
vn  -0.548985 0.630262 0.548985
vn  -0.776382 0.630262 0.000000
vn  -0.000000 0.630262 -0.776382
vn  0.548985 0.630262 0.548985
vn  -0.000000 0.000000 1.000000
vn  -0.707107 0.000000 0.707107
vn  -1.000000 0.000000 0.000000
vn  -0.707107 0.000000 -0.707107
vn  0.000000 0.000000 -1.000000
vn  0.707107 0.000000 -0.707107
vn  1.000000 0.000000 0.000000
vn  0.707107 0.000000 0.707107
vn  -1.451226 3.926991 0.601118
vn  1.451226 3.926991 -0.601118
vn  1.451226 3.926991 0.601118
vn  -0.000000 1.000000 -0.000000
vn  0.000000 0.630263 0.776382
vn  -0.548985 0.630262 -0.548985
vn  0.548985 0.630262 -0.548985
vn  0.776382 0.630262 0.000000
vn  -0.429055 -2.353678 0.365169
vn  0.417352 0.611895 0.588752
vn  -0.144842 0.978796 0.144842
vn  0.135270 -0.001799 -0.091862
vn  -0.370702 -0.005191 1.501922
vn  -0.767720 -0.533350 -0.883477
vn  0.365169 -2.353677 0.429055
vn  0.588751 0.611895 -0.417352
vn  0.144842 0.978796 0.144842
vn  -0.091862 -0.001799 -0.135270
vn  1.501922 -0.005191 0.370703
vn  -0.883477 -0.533350 0.767720
vn  0.429055 -2.353677 -0.365169
vn  -0.417352 0.611894 -0.588752
vn  0.144842 0.978796 -0.144842
vn  -0.135270 -0.001800 0.091862
vn  0.370703 -0.005191 -1.501922
vn  0.767720 -0.533350 0.883477
vn  -0.365169 -2.353677 -0.429055
vn  -0.588751 0.611895 0.417352
vn  -0.144842 0.978796 -0.144842
vn  0.091862 -0.001799 0.135270
vn  -1.501922 -0.005191 -0.370703
vn  0.883477 -0.533350 -0.767720
# 77 vertex normals

g base
s 1
f 21/23/21 23/29/23 1/30/1
f 1/30/1 27/1/27 21/23/21
f 3/5/3 22/24/22 24/43/24
f 24/43/24 28/37/28 3/5/3
f 23/25/23 22/24/22 3/5/3
f 3/5/3 1/2/1 23/25/23
f 18/20/18 19/21/19 10/12/10
f 10/12/10 2/3/2 18/20/18
f 7/9/7 6/31/6 4/32/4
f 4/32/4 15/17/15 7/9/7
f 8/10/8 11/41/11 5/38/5
f 5/38/5 16/18/16 8/10/8
f 6/8/6 8/10/8 16/18/16
f 16/18/16 4/6/4 6/8/6
f 21/23/21 24/26/24 5/7/5
f 5/7/5 15/17/15 21/23/21
f 15/17/15 5/7/5 11/13/11
f 11/13/11 7/9/7 15/17/15
f 13/15/13 12/33/12 6/31/6
f 6/31/6 7/9/7 13/15/13
f 14/16/14 9/39/9 11/41/11
f 11/41/11 8/10/8 14/16/14
f 12/14/12 14/16/14 8/10/8
f 8/10/8 6/8/6 12/14/12
f 7/9/7 11/13/11 9/11/9
f 9/11/9 13/15/13 7/9/7
f 18/20/18 17/34/17 12/33/12
f 12/33/12 13/15/13 18/20/18
f 20/22/20 19/42/19 9/39/9
f 9/39/9 14/16/14 20/22/20
f 17/19/17 20/22/20 14/16/14
f 14/16/14 12/14/12 17/19/17
f 13/15/13 9/11/9 19/21/19
f 19/21/19 18/20/18 13/15/13
f 2/3/2 25/35/25 17/34/17
f 17/34/17 18/20/18 2/3/2
f 26/28/26 10/40/10 19/42/19
f 19/42/19 20/22/20 26/28/26
f 25/27/25 26/28/26 20/22/20
f 20/22/20 17/19/17 25/27/25
f 15/17/15 4/32/4 23/36/23
f 23/36/23 21/23/21 15/17/15
f 16/18/16 5/38/5 24/43/24
f 24/43/24 22/24/22 16/18/16
f 4/6/4 16/18/16 22/24/22
f 22/24/22 23/25/23 4/6/4
f 27/1/27 28/4/28 24/26/24
f 24/26/24 21/23/21 27/1/27
f 27/44/27 1/45/1 3/47/3
f 3/47/3 28/46/28 27/44/27
f 47/48/47 48/49/48 2/50/2
f 10/51/10 32/52/32 33/53/33
f 26/54/26 46/55/46 31/56/31
f 25/57/25 29/58/29 30/59/30
f 2/50/2 48/49/48 29/58/29
f 29/58/29 25/57/25 2/50/2
f 10/51/10 33/53/33 47/48/47
f 47/48/47 2/50/2 10/51/10
f 26/54/26 31/56/31 32/52/32
f 32/52/32 10/51/10 26/54/26
f 25/57/25 30/59/30 46/55/46
f 46/55/46 26/54/26 25/57/25
f 29/76/29 38/68/38 39/69/39
f 39/69/39 30/77/30 29/76/29
f 30/77/30 39/69/39 40/70/40
f 40/70/40 46/78/46 30/77/30
f 46/78/46 40/70/40 41/71/41
f 41/71/41 31/79/31 46/78/46
f 31/79/31 41/71/41 42/85/42
f 42/85/42 32/88/32 31/79/31
f 32/80/32 42/72/42 43/73/43
f 43/73/43 33/81/33 32/80/32
f 33/81/33 43/73/43 44/74/44
f 44/74/44 47/82/47 33/81/33
f 47/82/47 44/74/44 45/75/45
f 45/75/45 48/83/48 47/82/47
f 48/83/48 45/75/45 38/87/38
f 38/87/38 29/89/29 48/83/48
f 50/60/50 34/61/34 39/69/39
f 39/69/39 38/68/38 50/60/50
f 34/61/34 35/62/35 40/70/40
f 40/70/40 39/69/39 34/61/34
f 35/62/35 51/63/51 41/71/41
f 41/71/41 40/70/40 35/62/35
f 51/63/51 36/84/36 42/85/42
f 42/85/42 41/71/41 51/63/51
f 36/64/36 52/65/52 43/73/43
f 43/73/43 42/72/42 36/64/36
f 52/65/52 53/66/53 44/74/44
f 44/74/44 43/73/43 52/65/52
f 53/66/53 37/67/37 45/75/45
f 45/75/45 44/74/44 53/66/53
f 37/67/37 50/86/50 38/87/38
f 38/87/38 45/75/45 37/67/37
f 34/92/34 50/100/50 49/99/49
f 35/93/35 34/92/34 49/99/49
f 51/94/51 35/93/35 49/99/49
f 36/101/36 51/94/51 49/99/49
f 52/96/52 36/95/36 49/90/49
f 53/97/53 52/96/52 49/90/49
f 37/98/37 53/97/53 49/90/49
f 50/91/50 37/98/37 49/90/49
f 57/103/57 56/107/56 55/106/55
f 54/102/54 59/105/59 57/103/57
f 54/102/54 55/106/55 58/104/58
f 58/104/58 55/106/55 56/107/56
f 54/102/54 58/104/58 59/105/59
f 54/102/54 57/103/57 55/106/55
f 57/103/57 59/105/59 56/107/56
f 56/107/56 59/105/59 58/104/58
f 63/109/63 62/113/62 61/112/61
f 60/108/60 65/111/65 63/109/63
f 60/108/60 61/112/61 64/110/64
f 64/110/64 61/112/61 62/113/62
f 60/108/60 64/110/64 65/111/65
f 60/108/60 63/109/63 61/112/61
f 63/109/63 65/111/65 62/113/62
f 62/113/62 65/111/65 64/110/64
f 69/115/69 68/119/68 67/118/67
f 66/114/66 71/117/71 69/115/69
f 66/114/66 67/118/67 70/116/70
f 70/116/70 67/118/67 68/119/68
f 66/114/66 70/116/70 71/117/71
f 66/114/66 69/115/69 67/118/67
f 69/115/69 71/117/71 68/119/68
f 68/119/68 71/117/71 70/116/70
f 75/121/75 74/125/74 73/124/73
f 72/120/72 77/123/77 75/121/75
f 72/120/72 73/124/73 76/122/76
f 76/122/76 73/124/73 74/125/74
f 72/120/72 76/122/76 77/123/77
f 72/120/72 75/121/75 73/124/73
f 75/121/75 77/123/77 74/125/74
f 74/125/74 77/123/77 76/122/76
# 134 faces

g
