# Max2Obj Version 4.0 Mar 10th, 2001
#
# object _top to come ...
#
v  16.916229 0.000000 -83.083771
v  0.000000 48.475845 -50.000004
v  14.644661 48.475842 -85.355347
v  50.000000 48.475842 -100.000000
v  14.644657 48.475849 -14.644669
v  25.900352 88.015472 -74.099655
v  25.900349 88.015480 -25.900362
v  15.917953 88.015480 -50.000008
v  3.212482 0.000000 -50.000000
v  50.000000 -0.000004 -96.787521
v  100.000000 48.475845 -50.000004
v  85.355339 48.475842 -85.355347
v  50.000000 48.475849 -0.000004
v  85.355347 48.475849 -14.644669
v  96.787521 100.073021 -50.000008
v  83.083771 100.073029 -16.916237
v  84.147659 100.064575 -50.000008
v  74.146042 100.064575 -25.853970
v  50.000000 0.000004 -3.212486
v  50.000000 98.831917 -50.000008
v  96.787521 0.000000 -50.000000
v  83.083771 0.000000 -16.916237
v  50.000000 88.015472 -84.082062
v  16.916225 0.000000 -16.916237
v  74.099655 88.015480 -25.900362
v  84.082047 88.015480 -50.000008
v  74.099648 88.015472 -74.099655
v  50.000000 88.015480 -15.917965
v  83.083771 0.000000 -83.083771
v  3.212482 100.073021 -50.000008
v  16.916229 100.073013 -83.083771
v  50.000000 100.073013 -96.787521
v  16.916225 100.073029 -16.916237
v  15.852341 100.064575 -50.000008
v  25.853958 100.064568 -74.146049
v  50.000000 100.064568 -84.147659
v  25.853954 100.064575 -25.853970
v  83.083771 100.073013 -83.083771
v  50.000000 100.073029 -3.212486
v  74.146042 100.064568 -74.146049
v  50.000000 100.064575 -15.852345
v  49.865314 98.512184 -49.305077
v  50.775215 98.512184 -50.214993
v  51.124748 105.481506 -48.881916
v  49.865314 105.050751 -47.698421
v  49.865314 98.512184 -51.124889
v  49.865314 105.912262 -50.065392
v  48.955410 98.512184 -50.214993
v  48.605877 105.481506 -48.881916
v  52.241470 112.384354 -44.026112
v  49.865311 110.230820 -43.021919
v  49.865311 114.537888 -45.030319
v  47.489151 112.384354 -44.026112
v  52.913521 115.232918 -37.440289
v  49.865311 112.470306 -36.152042
v  49.865311 117.995529 -38.728535
v  46.817101 115.232918 -37.440289
v  50.000000 93.288017 -65.490067
v  36.585213 93.288017 -57.745029
v  36.585213 93.288017 -42.254967
v  35.287331 99.810638 -58.494362
v  35.287331 99.810638 -41.505634
v  50.000000 99.810638 -50.000000
v  63.414787 93.288017 -57.745029
v  63.414787 93.288017 -42.254967
v  50.000000 93.288017 -34.509937
v  50.000000 99.810638 -66.988724
v  64.712669 99.810638 -58.494362
v  64.712669 99.810638 -41.505634
v  50.000000 99.810638 -33.011272
# 70 vertices

vt  0.498263 0.018588 0.435315
vt  0.243802 0.018588 0.680461
vt  0.751193 0.018588 0.680461
vt  0.498263 0.318542 0.499501
vt  0.243802 0.318542 0.736077
vt  0.988733 0.318542 1.116917
vt  0.751193 0.318542 0.736077
vt  0.498263 0.626446 0.435315
vt  0.243802 0.626446 0.680461
vt  0.988733 0.626446 1.059897
vt  0.751193 0.626446 0.680461
vt  0.988733 0.767706 0.926048
vt  0.498263 0.716780 0.301588
vt  0.243802 0.716780 0.570398
vt  0.988733 0.716780 0.944057
vt  0.751193 0.716780 0.570398
vt  0.243802 0.767706 0.553827
vt  0.751193 0.767706 0.553827
vt  0.498263 0.767706 0.280284
vt  0.988733 0.018588 1.059896
vt  0.013872 0.018588 1.059896
vt  0.013872 0.318542 1.116917
vt  0.013872 0.626446 1.059896
vt  0.013872 0.716780 0.944057
vt  0.013872 0.767706 0.926048
vt  0.788765 0.804548 0.999501
vt  0.700012 0.908964 0.890167
vt  0.877518 0.908964 0.890167
vt  0.788765 0.952214 0.890167
vt  0.663249 0.804548 0.890167
vt  0.914281 0.804548 0.890167
vt  0.519889 0.791799 0.000500
vt  0.405847 0.847373 0.000500
vt  0.633931 0.847373 0.000500
vt  0.358609 0.981540 0.000500
vt  0.681169 0.981540 0.000500
vt  0.504344 0.018588 0.435315
vt  0.758806 0.018588 0.680461
vt  0.251415 0.018588 0.680461
vt  0.504344 0.318542 0.499501
vt  0.758806 0.318542 0.736077
vt  0.013874 0.318542 1.116917
vt  0.251415 0.318542 0.736077
vt  0.504344 0.626446 0.435315
vt  0.758806 0.626446 0.680461
vt  0.013874 0.626446 1.059897
vt  0.251415 0.626446 0.680461
vt  0.013874 0.767706 0.926048
vt  0.504344 0.716780 0.301588
vt  0.758806 0.716780 0.570398
vt  0.013874 0.716780 0.944057
vt  0.251415 0.716780 0.570398
vt  0.758806 0.767706 0.553827
vt  0.251415 0.767706 0.553827
vt  0.504344 0.767706 0.280284
vt  0.013874 0.018588 1.059896
vt  0.988735 0.018588 1.059896
vt  0.988735 0.318542 1.116917
vt  0.988735 0.626446 1.059896
vt  0.988735 0.716780 0.944057
vt  0.988735 0.767706 0.926048
vt  0.788765 0.804548 0.999501
vt  0.700012 0.908964 0.890167
vt  0.877518 0.908964 0.890167
vt  0.788765 0.952214 0.890167
vt  0.663249 0.804548 0.890167
vt  0.914281 0.804548 0.890167
vt  0.519889 0.791799 0.000500
vt  0.405847 0.847373 0.000500
vt  0.633931 0.847373 0.000500
vt  0.358609 0.981540 0.000500
vt  0.681169 0.981540 0.000500
vt  0.015350 0.878149 1.000000
vt  0.015350 0.927538 1.000000
vt  0.118219 0.927538 1.000000
vt  0.118219 0.878149 1.000000
vt  0.015350 0.927412 1.000000
vt  0.015350 0.976789 1.000000
vt  0.118219 0.976789 1.000000
vt  0.118219 0.927412 1.000000
vt  0.015350 0.976789 1.000000
vt  0.015350 0.927463 1.000000
vt  0.118219 0.927463 1.000000
vt  0.118219 0.976789 1.000000
vt  0.015350 0.878149 1.000000
vt  0.118219 0.878149 1.000000
vt  0.118219 0.878149 1.000000
vt  0.221088 0.927538 1.000000
vt  0.221088 0.878149 1.000000
vt  0.118219 0.976789 1.000000
vt  0.221088 0.976789 1.000000
vt  0.221088 0.927412 1.000000
vt  0.118219 0.976789 1.000000
vt  0.221088 0.927463 1.000000
vt  0.221088 0.976789 1.000000
vt  0.118219 0.878149 1.000000
vt  0.221088 0.878149 1.000000
vt  0.221088 0.878149 1.000000
vt  0.326123 0.927538 1.000000
vt  0.326123 0.878149 1.000000
vt  0.221088 0.976789 1.000000
vt  0.326123 0.976789 1.000000
vt  0.326123 0.927412 1.000000
vt  0.221088 0.976789 1.000000
vt  0.326123 0.927463 1.000000
vt  0.326123 0.976789 1.000000
vt  0.221088 0.878149 1.000000
vt  0.326123 0.878149 1.000000
vt  0.350898 0.834842 0.250000
vt  0.350898 0.809044 0.250000
vt  0.376696 0.809044 0.250000
vt  0.376696 0.834842 0.250000
vt  0.018443 0.797391 1.000000
vt  0.116970 0.797391 1.000000
vt  0.215496 0.797391 1.000000
vt  0.314023 0.797391 1.000000
vt  0.018443 0.848879 1.000000
vt  0.116970 0.848879 1.000000
vt  0.215496 0.848879 1.000000
vt  0.314023 0.848879 1.000000
vt  0.989115 0.839117 0.250000
vt  0.923586 0.876951 0.250000
vt  0.923586 0.952618 0.250000
vt  0.989115 0.990451 0.250000
vt  0.989115 0.914784 0.250000
vt  0.018443 0.797391 1.000000
vt  0.116970 0.797391 1.000000
vt  0.215496 0.797391 1.000000
vt  0.314023 0.797391 1.000000
vt  0.018443 0.848879 1.000000
vt  0.116970 0.848879 1.000000
vt  0.215496 0.848879 1.000000
vt  0.314023 0.848879 1.000000
vt  0.989115 0.839117 0.250000
vt  0.923586 0.876951 0.250000
vt  0.923586 0.952618 0.250000
vt  0.989115 0.990451 0.250000
vt  0.989115 0.914784 0.250000
# 138 texture vertices

vn  -2.081513 -2.551273 -2.081513
vn  -0.999998 -0.001966 -0.000000
vn  -0.707105 -0.001966 -0.707105
vn  0.000000 -0.001966 -0.999998
vn  -0.707105 -0.001966 0.707105
vn  0.489451 0.721717 0.489451
vn  0.489451 0.721717 -0.489451
vn  0.692188 0.721717 -0.000000
vn  -2.943703 -0.587777 0.000000
vn  -0.609661 -0.882937 -1.471851
vn  0.999998 -0.001966 -0.000000
vn  0.707105 -0.001966 -0.707105
vn  0.000000 -0.001966 0.999998
vn  0.707105 -0.001966 0.707105
vn  2.941294 0.543695 0.000100
vn  2.079653 1.361240 2.079191
vn  -0.592668 0.805447 -0.000000
vn  -0.419080 0.805447 -0.419080
vn  -0.609661 -0.490238 1.471852
vn  -0.000000 1.000000 -0.000000
vn  2.943703 -0.587777 0.000000
vn  2.081512 -2.551273 2.081512
vn  -0.000000 0.721717 0.692188
vn  -2.081512 -2.551273 2.081512
vn  -0.489451 0.721717 -0.489451
vn  -0.692188 0.721717 -0.000000
vn  -0.489451 0.721717 0.489451
vn  -0.000000 0.721718 -0.692188
vn  2.081513 -2.551273 -2.081513
vn  -2.940988 1.000687 0.000226
vn  -2.079191 1.361240 -2.079653
vn  -0.608886 1.269668 -1.469980
vn  -2.079653 1.361240 2.079191
vn  0.592668 0.805447 -0.000000
vn  0.419079 0.805447 0.419079
vn  -0.000000 0.805447 0.592668
vn  0.419080 0.805447 -0.419080
vn  2.079192 1.361240 -2.079653
vn  -0.608985 0.909115 1.470221
vn  -0.419079 0.805447 0.419079
vn  -0.000000 0.805447 -0.592668
vn  0.001064 -0.236940 0.971524
vn  0.995632 -0.032216 -0.087629
vn  0.992186 -0.029798 -0.121160
vn  0.000096 -0.484212 0.874951
vn  0.000404 0.140897 -0.990024
vn  0.004788 0.322135 -0.946681
vn  -0.995500 -0.034672 -0.088186
vn  -0.991790 -0.042469 -0.120620
vn  0.980286 0.018122 -0.196751
vn  -0.000150 -0.828147 0.560511
vn  0.001644 0.737313 -0.675549
vn  -0.981765 0.020774 -0.188962
vn  2.123001 0.224728 0.541535
vn  0.000001 -1.340433 2.076989
vn  -0.000000 2.556037 0.385424
vn  -2.123002 0.224729 0.541536
vn  0.000000 -0.223929 -0.974605
vn  -0.844033 -0.223929 -0.487303
vn  -0.844033 -0.223929 0.487303
vn  -2.145826 -0.569306 -1.238893
vn  -2.145827 -0.569306 1.238894
vn  0.000000 1.000000 0.000000
vn  0.844033 -0.223929 -0.487303
vn  0.844033 -0.223929 0.487303
vn  0.000000 -0.223930 0.974605
vn  -0.715275 -0.284653 -1.238893
vn  2.145827 -0.569306 -1.238893
vn  2.145827 -0.569306 1.238894
vn  -0.715275 -0.284653 1.238894
# 70 vertex normals

g _top
s 1
f 9/1/9 2/4/2 3/5/3
f 3/5/3 1/2/1 9/1/9
f 1/2/1 3/5/3 4/22/4
f 4/22/4 10/21/10 1/2/1
f 19/20/19 13/6/13 5/7/5
f 5/7/5 24/3/24 19/20/19
f 24/3/24 5/7/5 2/4/2
f 2/4/2 9/1/9 24/3/24
f 2/4/2 30/8/30 31/9/31
f 31/9/31 3/5/3 2/4/2
f 3/5/3 31/9/31 32/23/32
f 32/23/32 4/22/4 3/5/3
f 13/6/13 39/10/39 33/11/33
f 33/11/33 5/7/5 13/6/13
f 5/7/5 33/11/33 30/8/30
f 30/8/30 2/4/2 5/7/5
f 30/8/30 34/13/34 35/14/35
f 35/14/35 31/9/31 30/8/30
f 31/9/31 35/14/35 36/24/36
f 36/24/36 32/23/32 31/9/31
f 39/10/39 41/15/41 37/16/37
f 37/16/37 33/11/33 39/10/39
f 33/11/33 37/16/37 34/13/34
f 34/13/34 30/8/30 33/11/33
f 34/13/34 37/16/37 7/18/7
f 7/18/7 8/19/8 34/13/34
f 34/13/34 8/19/8 6/17/6
f 6/17/6 35/14/35 34/13/34
f 41/15/41 28/12/28 7/18/7
f 7/18/7 37/16/37 41/15/41
f 36/24/36 35/14/35 6/17/6
f 6/17/6 23/25/23 36/24/36
f 20/26/20 23/30/23 6/27/6
f 8/29/8 7/28/7 20/26/20
f 6/27/6 8/29/8 20/26/20
f 7/28/7 28/31/28 20/26/20
f 19/36/19 24/34/24 9/32/9
f 10/35/10 19/36/19 9/32/9
f 1/33/1 10/35/10 9/32/9
f 21/37/21 29/38/29 12/41/12
f 12/41/12 11/40/11 21/37/21
f 29/38/29 10/57/10 4/58/4
f 4/58/4 12/41/12 29/38/29
f 19/56/19 22/39/22 14/43/14
f 14/43/14 13/42/13 19/56/19
f 22/39/22 21/37/21 11/40/11
f 11/40/11 14/43/14 22/39/22
f 11/40/11 12/41/12 38/45/38
f 38/45/38 15/44/15 11/40/11
f 12/41/12 4/58/4 32/59/32
f 32/59/32 38/45/38 12/41/12
f 13/42/13 14/43/14 16/47/16
f 16/47/16 39/46/39 13/42/13
f 14/43/14 11/40/11 15/44/15
f 15/44/15 16/47/16 14/43/14
f 15/44/15 38/45/38 40/50/40
f 40/50/40 17/49/17 15/44/15
f 38/45/38 32/59/32 36/60/36
f 36/60/36 40/50/40 38/45/38
f 39/46/39 16/47/16 18/52/18
f 18/52/18 41/51/41 39/46/39
f 16/47/16 15/44/15 17/49/17
f 17/49/17 18/52/18 16/47/16
f 17/49/17 26/55/26 25/54/25
f 25/54/25 18/52/18 17/49/17
f 17/49/17 40/50/40 27/53/27
f 27/53/27 26/55/26 17/49/17
f 41/51/41 18/52/18 25/54/25
f 25/54/25 28/48/28 41/51/41
f 36/60/36 23/61/23 27/53/27
f 27/53/27 40/50/40 36/60/36
f 20/62/20 27/63/27 23/66/23
f 26/65/26 20/62/20 25/64/25
f 27/63/27 20/62/20 26/65/26
f 25/64/25 20/62/20 28/67/28
f 21/68/21 22/70/22 19/72/19
f 21/68/21 19/72/19 10/71/10
f 29/69/29 21/68/21 10/71/10
f 42/73/42 43/74/43 44/75/44
f 44/75/44 45/76/45 42/73/42
f 43/77/43 46/78/46 47/79/47
f 47/79/47 44/80/44 43/77/43
f 46/81/46 48/82/48 49/83/49
f 49/83/49 47/84/47 46/81/46
f 48/82/48 42/85/42 45/86/45
f 45/86/45 49/83/49 48/82/48
f 45/87/45 44/75/44 50/88/50
f 50/88/50 51/89/51 45/87/45
f 44/80/44 47/90/47 52/91/52
f 52/91/52 50/92/50 44/80/44
f 47/93/47 49/83/49 53/94/53
f 53/94/53 52/95/52 47/93/47
f 49/83/49 45/96/45 51/97/51
f 51/97/51 53/94/53 49/83/49
f 51/98/51 50/88/50 54/99/54
f 54/99/54 55/100/55 51/98/51
f 50/92/50 52/101/52 56/102/56
f 56/102/56 54/103/54 50/92/50
f 52/104/52 53/94/53 57/105/57
f 57/105/57 56/106/56 52/104/52
f 53/94/53 51/107/51 55/108/55
f 55/108/55 57/105/57 53/94/53
f 54/110/54 56/111/56 57/112/57
f 57/112/57 55/109/55 54/110/54
s 8
f 58/113/58 59/114/59 61/118/61
f 61/118/61 67/117/67 58/113/58
f 59/114/59 60/115/60 62/119/62
f 62/119/62 61/118/61 59/114/59
f 60/115/60 66/116/66 70/120/70
f 70/120/70 62/119/62 60/115/60
s 1
f 63/125/63 62/123/62 70/124/70
f 67/121/67 61/122/61 63/125/63
f 63/125/63 61/122/61 62/123/62
s 8
f 58/126/58 67/130/67 68/131/68
f 68/131/68 64/127/64 58/126/58
f 64/127/64 68/131/68 69/132/69
f 69/132/69 65/128/65 64/127/64
f 65/128/65 69/132/69 70/133/70
f 70/133/70 66/129/66 65/128/65
s 1
f 63/138/63 70/137/70 69/136/69
f 67/134/67 63/138/63 68/135/68
f 63/138/63 69/136/69 68/135/68
# 122 faces

g
