# 3ds Max Wavefront OBJ Exporter v0.97b - (c)2007 guruware
# File Created: 15.03.2019 17:58:12

mtllib transfer_block.mtl

#
# object base
#

v  100.0000 -0.0000 -100.0000
v  -0.0000 -0.0000 -100.0000
v  -0.0000 100.0000 -100.0000
v  100.0000 100.0000 -100.0000
v  -0.0000 100.0000 -0.0000
v  -0.0000 -0.0000 -0.0000
v  100.0000 -0.0000 -0.0000
v  100.0000 100.0000 -0.0000
v  50.0000 84.7744 7.6741
v  50.0000 84.7744 -7.0953
v  24.2364 74.1028 -7.0953
v  24.2364 74.1028 7.6741
v  13.5648 48.3392 -7.0953
v  13.5648 48.3392 7.6741
v  24.2364 22.5756 -7.0953
v  24.2364 22.5756 7.6741
v  50.0000 11.9039 -7.0953
v  50.0000 11.9039 7.6741
v  29.8895 68.4496 7.6741
v  50.0000 76.7797 7.6741
v  29.8895 28.2288 7.6741
v  50.0000 19.8987 7.6741
v  50.0000 48.3392 4.4193
v  19.9085 48.3392 4.4193
v  28.7221 27.0613 4.4193
v  21.5595 48.3392 7.6741
v  28.7221 69.6171 4.4193
v  50.0000 78.4306 4.4194
v  50.0000 18.2477 4.4194
v  50.0000 76.7797 1.4503
v  29.8895 68.4496 1.4503
v  21.5595 48.3392 1.4503
v  29.8895 28.2288 1.4503
v  50.0000 19.8987 1.4503
v  75.7636 74.1028 7.6741
v  75.7636 74.1028 -7.0953
v  86.4352 48.3392 7.6741
v  86.4352 48.3392 -7.0953
v  75.7636 22.5756 7.6741
v  75.7636 22.5756 -7.0953
v  70.1104 68.4496 7.6741
v  70.1104 28.2288 7.6741
v  71.2779 27.0613 4.4193
v  80.0914 48.3392 4.4193
v  78.4405 48.3392 7.6741
v  71.2779 69.6171 4.4193
v  70.1104 68.4496 1.4503
v  78.4405 48.3392 1.4503
v  70.1104 28.2288 1.4503
# 49 vertices

vn 0.0000 0.0000 -1.0000
vn 0.0000 0.0000 1.0000
vn 0.0000 -1.0000 -0.0000
vn 1.0000 0.0000 -0.0000
vn 0.0000 1.0000 -0.0000
vn -1.0000 0.0000 -0.0000
vn 0.0000 0.7764 0.6303
vn -0.7071 0.7071 -0.0000
vn -0.5490 0.5490 0.6303
vn -0.7764 0.0000 0.6303
vn -0.7071 -0.7071 -0.0000
vn -0.5490 -0.5490 0.6303
vn 0.0000 -0.7764 0.6303
vn 0.4203 -0.4203 0.8042
vn 0.0000 -0.5944 0.8042
vn 0.4203 0.4203 0.8042
vn 0.0000 0.5944 0.8042
vn 0.0000 -0.0000 1.0000
vn -0.0000 0.0000 1.0000
vn 0.5944 -0.0000 0.8042
vn -0.0000 -0.0000 1.0000
vn 0.7071 -0.7071 -0.0000
vn 1.0000 -0.0000 -0.0000
vn 0.7071 0.7071 -0.0000
vn 0.5490 0.5490 0.6303
vn 0.7764 0.0000 0.6303
vn 0.5490 -0.5490 0.6303
vn -0.4203 -0.4203 0.8042
vn -0.4203 0.4203 0.8042
vn -0.5944 -0.0000 0.8042
vn -1.0000 -0.0000 -0.0000
# 31 vertex normals

vt 0.4933 0.0129 0.0000
vt 0.0128 0.0129 0.0000
vt 0.0128 0.4935 0.0000
vt 0.4933 0.4935 0.0000
vt 0.9882 0.0129 0.0000
vt 0.5077 0.0129 0.0000
vt 0.5077 0.4934 0.0000
vt 0.9882 0.4934 0.0000
vt 0.9884 0.0129 0.0000
vt 0.5078 0.0129 0.0000
vt 0.5078 0.4935 0.0000
vt 0.9884 0.4935 0.0000
vt 0.0127 0.9918 0.0000
vt 0.4933 0.9918 0.0000
vt 0.4933 0.5112 0.0000
vt 0.0127 0.5112 0.0000
vt 0.8514 0.9859 0.0000
vt 0.7893 0.9859 0.0000
vt 0.7893 0.8684 0.0000
vt 0.8514 0.8684 0.0000
vt 0.7893 0.7509 0.0000
vt 0.8514 0.7509 0.0000
vt 0.7893 0.6349 0.0000
vt 0.8514 0.6349 0.0000
vt 0.7893 0.5170 0.0000
vt 0.8514 0.5170 0.0000
vt 0.8825 0.9859 0.0000
vt 0.8825 0.8684 0.0000
vt 0.9452 0.8684 0.0000
vt 0.9452 0.9859 0.0000
vt 0.9452 0.6349 0.0000
vt 0.8825 0.6349 0.0000
vt 0.8825 0.5170 0.0000
vt 0.9452 0.5170 0.0000
vt 0.6452 0.9775 0.0000
vt 0.6452 0.8579 0.0000
vt 0.7298 0.8930 0.0000
vt 0.8825 0.7509 0.0000
vt 0.9452 0.7509 0.0000
vt 0.5607 0.8930 0.0000
vt 0.5257 0.9775 0.0000
vt 0.7648 0.9775 0.0000
vt 0.9829 0.9859 0.0000
vt 0.9829 0.8684 0.0000
vt 0.9829 0.7509 0.0000
vt 0.9829 0.6349 0.0000
vt 0.9829 0.5170 0.0000
# 47 texture coords

g base
usemtl 01___Default
s 1
f 1/1/1 2/2/1 3/3/1 
f 3/3/1 4/4/1 1/1/1 
f 5/3/2 6/2/2 7/1/2 
f 7/1/2 8/4/2 5/3/2 
f 6/5/3 2/6/3 1/7/3 
f 1/7/3 7/8/3 6/5/3 
f 7/9/4 1/10/4 4/11/4 
f 4/11/4 8/12/4 7/9/4 
f 8/13/5 4/14/5 3/15/5 
f 3/15/5 5/16/5 8/13/5 
f 5/12/6 3/11/6 2/10/6 
f 2/10/6 6/9/6 5/12/6 
f 9/17/7 10/18/5 11/19/8 
f 11/19/8 12/20/9 9/17/7 
f 12/20/9 11/19/8 13/21/6 
f 13/21/6 14/22/10 12/20/9 
f 14/22/10 13/21/6 15/23/11 
f 15/23/11 16/24/12 14/22/10 
f 16/24/12 15/23/11 17/25/3 
f 17/25/3 18/26/13 16/24/12 
f 9/27/7 12/28/9 19/29/14 
f 19/29/14 20/30/15 9/27/7 
f 21/31/16 16/32/12 18/33/13 
f 18/33/13 22/34/17 21/31/16 
f 23/35/18 24/36/2 25/37/19 
f 19/29/14 12/28/9 14/38/10 
f 14/38/10 26/39/20 19/29/14 
f 27/40/21 23/35/18 28/41/18 
f 29/42/2 23/35/18 25/37/19 
f 14/38/10 16/32/12 21/31/16 
f 21/31/16 26/39/20 14/38/10 
f 24/36/2 23/35/18 27/40/21 
f 30/43/3 20/30/15 19/29/14 
f 19/29/14 31/44/22 30/43/3 
f 31/44/22 19/29/14 26/39/20 
f 26/39/20 32/45/23 31/44/22 
f 32/45/23 26/39/20 21/31/16 
f 21/31/16 33/46/24 32/45/23 
f 33/46/24 21/31/16 22/34/17 
f 22/34/17 34/47/5 33/46/24 
f 9/17/7 35/20/25 36/19/24 
f 36/19/24 10/18/5 9/17/7 
f 35/20/25 37/22/26 38/21/4 
f 38/21/4 36/19/24 35/20/25 
f 37/22/26 39/24/27 40/23/22 
f 40/23/22 38/21/4 37/22/26 
f 39/24/27 18/26/13 17/25/3 
f 17/25/3 40/23/22 39/24/27 
f 9/27/7 20/30/15 41/29/28 
f 41/29/28 35/28/25 9/27/7 
f 42/31/29 22/34/17 18/33/13 
f 18/33/13 39/32/27 42/31/29 
f 23/35/18 43/37/2 44/36/2 
f 41/29/28 45/39/30 37/38/26 
f 37/38/26 35/28/25 41/29/28 
f 46/40/18 28/41/18 23/35/18 
f 29/42/2 43/37/2 23/35/18 
f 37/38/26 45/39/30 42/31/29 
f 42/31/29 39/32/27 37/38/26 
f 44/36/2 46/40/18 23/35/18 
f 30/43/3 47/44/11 41/29/28 
f 41/29/28 20/30/15 30/43/3 
f 47/44/11 48/45/31 45/39/30 
f 45/39/30 41/29/28 47/44/11 
f 48/45/31 49/46/8 42/31/29 
f 42/31/29 45/39/30 48/45/31 
f 49/46/8 34/47/5 22/34/17 
f 22/34/17 42/31/29 49/46/8 
# 68 faces

