# 3ds Max Wavefront OBJ Exporter v0.97b - (c)2007 guruware
# File Created: 02.07.2020 11:37:22

mtllib triangle_wings.mtl

#
# object empennage_down_2
#

v  100.0000 75.0000 -100.0000
v  -0.0000 75.0000 -0.0000
v  100.0000 75.0000 -0.0000
v  -0.0000 25.0000 -0.0000
v  100.0000 25.0000 -0.0000
v  100.0000 25.0000 -100.0000
v  0.0000 75.0000 -100.0000
v  0.0000 25.0000 -100.0000
# 8 vertices

vn 0.0000 1.0000 -0.0000
vn -0.0000 0.0000 1.0000
vn 1.0000 0.0000 0.0000
vn -0.0000 -1.0000 0.0000
vn -1.0000 -0.0000 -0.0000
vn -1.0000 0.0000 -0.0000
vn 0.0000 -0.0000 -1.0000
vn 0.0000 0.0000 -1.0000
vn -0.0000 -1.0000 -0.0000
# 9 vertex normals

vt 0.9787 0.6480 0.0000
vt 0.0142 0.6480 0.0000
vt 0.4950 0.0783 0.0000
vt 0.9810 0.8184 0.0000
vt 0.2847 0.8184 0.0000
vt 0.2847 0.6682 0.0000
vt 0.9810 0.6682 0.0000
vt 0.0150 0.6484 0.0000
vt 0.4952 0.0782 0.0000
vt 0.9753 0.6484 0.0000
# 10 texture coords

g empennage_down_2
usemtl eeee
s off
f 1/1/1 2/2/1 3/3/1 
f 4/4/2 5/5/2 3/6/2 
f 3/6/2 2/7/2 4/4/2 
f 1/7/3 3/6/3 5/5/3 
f 5/5/3 6/4/3 1/7/3 
f 6/8/4 5/9/4 4/10/4 
f 1/1/1 7/3/1 2/2/1 
f 4/4/5 2/7/5 7/6/5 
f 7/6/6 8/5/6 4/4/6 
f 1/7/7 6/4/7 8/5/7 
f 8/5/8 7/6/8 1/7/8 
f 6/8/9 4/10/9 8/9/9 
# 12 faces

#
# object empennage_down_1
#

v  -0.0000 75.0000 -100.0000
v  100.0000 75.0000 -0.0000
v  100.0000 75.0000 -100.0000
v  100.0000 25.0000 -0.0000
v  100.0000 25.0000 -100.0000
v  -0.0000 25.0000 -100.0000
# 6 vertices

vn 0.0000 1.0000 -0.0000
vn 1.0000 0.0000 -0.0000
vn -0.0000 0.0000 -1.0000
vn 0.0000 -1.0000 -0.0000
vn -0.7071 -0.0000 0.7071
# 5 vertex normals

vt 0.9787 0.6480 0.0000
vt 0.0142 0.6480 0.0000
vt 0.4950 0.0783 0.0000
vt 0.9810 0.8184 0.0000
vt 0.2847 0.8184 0.0000
vt 0.2847 0.6682 0.0000
vt 0.9810 0.6682 0.0000
vt 0.9782 0.6470 0.0000
vt 0.4935 0.0791 0.0000
vt 0.0154 0.6470 0.0000
vt 0.9834 0.9900 0.0000
vt 0.0890 0.9900 0.0000
vt 0.0890 0.8374 0.0000
vt 0.9834 0.8374 0.0000
# 14 texture coords

g empennage_down_1
usemtl eeee
s off
f 9/11/10 10/12/10 11/13/10 
f 12/14/11 13/15/11 11/16/11 
f 11/16/11 10/17/11 12/14/11 
f 9/17/12 11/16/12 13/15/12 
f 13/15/12 14/14/12 9/17/12 
f 14/18/13 13/19/13 12/20/13 
f 14/21/14 12/22/14 10/23/14 
f 10/23/14 9/24/14 14/21/14 
# 8 faces

#
# object empennage_up_1
#

v  75.0000 100.0000 -100.0000
v  75.0000 0.0000 -0.0000
v  75.0000 0.0000 -100.0000
v  25.0000 0.0000 -0.0000
v  25.0000 0.0000 -100.0000
v  25.0000 100.0000 -100.0000
# 6 vertices

vn 1.0000 -0.0000 0.0000
vn 0.0000 -1.0000 0.0000
vn 0.0000 0.0000 -1.0000
vn -1.0000 0.0000 -0.0000
vn -0.0000 0.7071 0.7071
# 5 vertex normals

vt 0.9787 0.6480 0.0000
vt 0.0142 0.6480 0.0000
vt 0.4950 0.0783 0.0000
vt 0.9810 0.8184 0.0000
vt 0.2847 0.8184 0.0000
vt 0.2847 0.6682 0.0000
vt 0.9810 0.6682 0.0000
vt 0.9782 0.6470 0.0000
vt 0.4935 0.0791 0.0000
vt 0.0154 0.6470 0.0000
vt 0.9834 0.9900 0.0000
vt 0.0890 0.9900 0.0000
vt 0.0890 0.8374 0.0000
vt 0.9834 0.8374 0.0000
# 14 texture coords

g empennage_up_1
usemtl eeee
s off
f 15/25/15 16/26/15 17/27/15 
f 18/28/16 19/29/16 17/30/16 
f 17/30/16 16/31/16 18/28/16 
f 15/31/17 17/30/17 19/29/17 
f 19/29/17 20/28/17 15/31/17 
f 20/32/18 19/33/18 18/34/18 
f 20/35/19 18/36/19 16/37/19 
f 16/37/19 15/38/19 20/35/19 
# 8 faces

#
# object empennage_up_2
#

v  25.0000 100.0000 -0.0000
v  25.0000 0.0000 -100.0000
v  25.0000 0.0000 -0.0000
v  75.0000 0.0000 -100.0000
v  75.0000 0.0000 -0.0000
v  75.0000 100.0000 0.0000
v  25.0000 100.0000 -100.0000
v  75.0000 100.0000 -100.0000
# 8 vertices

vn -1.0000 -0.0000 -0.0000
vn -0.0000 -1.0000 -0.0000
vn -0.0000 -0.0000 1.0000
vn 1.0000 0.0000 0.0000
vn 0.0000 0.0000 -1.0000
vn 0.0000 1.0000 0.0000
vn -0.0000 1.0000 0.0000
vn 1.0000 0.0000 -0.0000
# 8 vertex normals

vt 0.9787 0.6480 0.0000
vt 0.0142 0.6480 0.0000
vt 0.4950 0.0783 0.0000
vt 0.9810 0.8184 0.0000
vt 0.2847 0.8184 0.0000
vt 0.2847 0.6682 0.0000
vt 0.9810 0.6682 0.0000
vt 0.0150 0.6484 0.0000
vt 0.4952 0.0782 0.0000
vt 0.9753 0.6484 0.0000
# 10 texture coords

g empennage_up_2
usemtl eeee
s off
f 21/39/20 22/40/20 23/41/20 
f 24/42/21 25/43/21 23/44/21 
f 23/44/21 22/45/21 24/42/21 
f 21/45/22 23/44/22 25/43/22 
f 25/43/22 26/42/22 21/45/22 
f 26/46/23 25/47/23 24/48/23 
f 21/39/20 27/41/20 22/40/20 
f 24/42/24 22/45/24 27/44/24 
f 27/44/24 28/43/24 24/42/24 
f 21/45/25 26/42/25 28/43/25 
f 28/43/26 27/44/26 21/45/26 
f 26/46/27 24/48/27 28/47/27 
# 12 faces

#
# object empennage_up_3
#

v  25.0000 0.0000 -100.0000
v  25.0000 100.0000 0.0000
v  25.0000 100.0000 -100.0000
v  75.0000 100.0000 0.0000
v  75.0000 100.0000 -100.0000
v  75.0000 0.0000 -100.0000
# 6 vertices

vn -1.0000 0.0000 0.0000
vn -0.0000 1.0000 0.0000
vn -0.0000 0.0000 -1.0000
vn 1.0000 -0.0000 -0.0000
vn 0.0000 -0.7071 0.7071
# 5 vertex normals

vt 0.9787 0.6480 0.0000
vt 0.0142 0.6480 0.0000
vt 0.4950 0.0783 0.0000
vt 0.9810 0.8184 0.0000
vt 0.2847 0.8184 0.0000
vt 0.2847 0.6682 0.0000
vt 0.9810 0.6682 0.0000
vt 0.9782 0.6470 0.0000
vt 0.4935 0.0791 0.0000
vt 0.0154 0.6470 0.0000
vt 0.9834 0.9900 0.0000
vt 0.0890 0.9900 0.0000
vt 0.0890 0.8374 0.0000
vt 0.9834 0.8374 0.0000
# 14 texture coords

g empennage_up_3
usemtl eeee
s off
f 29/49/28 30/50/28 31/51/28 
f 32/52/29 33/53/29 31/54/29 
f 31/54/29 30/55/29 32/52/29 
f 29/55/30 31/54/30 33/53/30 
f 33/53/30 34/52/30 29/55/30 
f 34/56/31 33/57/31 32/58/31 
f 34/59/32 32/60/32 30/61/32 
f 30/61/32 29/62/32 34/59/32 
# 8 faces

