# 3ds Max Wavefront OBJ Exporter v0.97b - (c)2007 guruware
# File Created: 02.03.2021 14:59:21

mtllib western_desk.mtl

#
# object base1
#

v  43.5187 34.6508 -93.4026
v  43.5187 34.6508 -6.5975
v  7.8844 34.6508 -6.5975
v  7.8844 34.6508 -93.4026
v  7.8844 50.2946 -93.4026
v  44.2124 37.8048 -93.4026
v  7.8844 50.2946 -6.5975
v  44.2124 37.8048 -6.5975
v  49.1452 41.6970 -93.4026
v  49.1452 41.6970 -6.5974
v  78.5930 44.7781 -93.4026
v  78.5930 44.7781 -6.5974
v  100.0000 45.1978 -93.4026
v  100.0000 45.1977 -6.5974
v  100.0000 50.2946 -93.4026
v  100.0000 50.2946 -6.5974
v  100.0000 48.5432 -1.8629
v  3.7258 48.5432 -1.8629
v  3.7258 48.5432 -98.1371
v  100.0000 48.5432 -98.1371
v  100.0000 88.6690 -0.0000
v  100.0000 88.6690 -100.0000
v  -0.0000 88.6690 -100.0000
v  -0.0000 88.6690 -0.0000
v  100.0000 53.4556 -1.8629
v  3.7258 53.4556 -1.8629
v  3.7258 53.4557 -98.1371
v  100.0000 53.4557 -98.1371
v  2.8294 82.3322 -1.4147
v  3.6914 75.9953 -1.8457
v  100.0000 75.9953 -1.8457
v  100.0000 82.3322 -1.4147
v  2.8294 82.3322 -98.5853
v  3.6914 75.9953 -98.1543
v  100.0000 82.3322 -98.5853
v  100.0000 75.9953 -98.1543
v  -0.0000 73.2186 -0.0000
v  100.0000 73.2186 -0.0000
v  -0.0000 73.2186 -100.0000
v  100.0000 73.2186 -100.0000
v  -0.0000 62.4540 -0.0000
v  100.0000 62.4540 -0.0000
v  -0.0000 62.4541 -100.0000
v  100.0000 62.4541 -100.0000
v  41.6073 -0.0000 -7.8294
v  9.4571 -0.0000 -7.8294
v  9.4571 -0.0000 -32.9590
v  41.6073 -0.0000 -32.9590
v  42.0371 3.4473 -7.3995
v  9.0273 3.4473 -7.3995
v  9.0273 3.4473 -33.3888
v  42.0371 3.4473 -33.3888
v  10.3957 34.8188 -9.1087
v  10.3957 13.7891 -9.1087
v  40.6687 13.7891 -9.1087
v  40.6687 34.8188 -9.1087
v  10.3957 34.8188 -31.6796
v  10.3957 13.7891 -31.6796
v  40.6687 34.8188 -31.6796
v  40.6687 13.7891 -31.6796
v  8.6692 12.1618 -7.0414
v  7.5320 6.8946 -5.9042
v  43.5324 6.8946 -5.9042
v  42.3952 12.1618 -7.0414
v  8.6692 12.1618 -33.7469
v  7.5320 6.8946 -34.8841
v  42.3952 12.1618 -33.7469
v  43.5324 6.8946 -34.8841
v  41.6073 0.0000 -92.1707
v  41.6073 0.0000 -67.0411
v  9.4571 0.0000 -67.0411
v  9.4571 0.0000 -92.1707
v  9.0273 3.4473 -92.6005
v  42.0371 3.4473 -92.6005
v  9.0273 3.4473 -66.6112
v  42.0371 3.4473 -66.6112
v  10.3957 34.8188 -90.8913
v  40.6687 34.8188 -90.8913
v  40.6687 13.7891 -90.8913
v  10.3957 13.7891 -90.8913
v  10.3957 34.8188 -68.3205
v  10.3957 13.7891 -68.3205
v  40.6687 34.8188 -68.3205
v  40.6687 13.7891 -68.3205
v  8.6692 12.1618 -92.9586
v  42.3952 12.1618 -92.9586
v  43.5324 6.8946 -94.0958
v  7.5320 6.8946 -94.0958
v  8.6692 12.1618 -66.2531
v  7.5320 6.8946 -65.1159
v  42.3952 12.1618 -66.2531
v  43.5324 6.8946 -65.1159
# 92 vertices

vn 0.6266 -0.7794 -0.0000
vn 0.0000 -1.0000 -0.0000
vn -0.0000 -0.0000 -1.0000
vn 0.0000 0.0000 -1.0000
vn 0.0000 -0.0000 -1.0000
vn -1.0000 -0.0000 -0.0000
vn 0.8474 -0.5309 -0.0000
vn 0.3766 -0.9264 -0.0000
vn 0.0619 -0.9981 -0.0000
vn 0.0196 -0.9998 -0.0000
vn 0.0000 0.0000 1.0000
vn -0.0000 -0.0000 1.0000
vn -0.0000 0.0000 1.0000
vn -0.0000 1.0000 0.0000
vn -0.0000 -0.1019 0.9948
vn -0.0000 -0.1130 0.9936
vn -1.0000 0.0000 -0.0000
vn -0.9785 -0.2061 -0.0000
vn 0.0000 -0.1130 -0.9936
vn 0.0000 -0.1019 -0.9948
vn -0.0000 -0.1553 0.9879
vn -0.0000 -0.0679 0.9977
vn -0.0000 -0.1433 0.9897
vn -0.9584 -0.2853 -0.0000
vn -0.9909 -0.1348 -0.0000
vn 0.0000 -0.1433 -0.9897
vn 0.0000 -0.0679 -0.9977
vn 0.0000 -0.1553 -0.9879
vn -0.3162 0.7797 0.5405
vn -0.4331 0.8218 0.3702
vn -0.0000 0.5536 0.8328
vn -0.3162 0.7797 -0.5405
vn -0.4331 0.8218 -0.3702
vn 0.0000 0.5536 -0.8328
vn -0.0000 -0.2179 0.9760
vn -0.9131 -0.4077 -0.0000
vn 0.0000 -0.2179 -0.9760
vn -0.0000 -0.0876 0.9962
vn -0.9832 -0.1825 -0.0000
vn 0.0000 -0.0876 -0.9962
vn 0.0000 -0.1237 0.9923
vn 0.0000 -0.2839 0.9589
vn -0.9923 -0.1237 -0.0000
vn -0.9589 -0.2839 -0.0000
vn 0.0000 -0.1237 -0.9923
vn 0.0000 -0.2839 -0.9589
vn 0.9923 -0.1237 -0.0000
vn 0.9589 -0.2839 -0.0000
vn 1.0000 0.0000 -0.0000
vn 0.0000 0.2110 0.9775
vn 0.0000 -0.0768 0.9970
vn -0.9775 0.2110 0.0000
vn -0.9970 -0.0768 -0.0000
vn 0.0000 0.2110 -0.9775
vn 0.0000 -0.0768 -0.9970
vn 0.9775 0.2110 0.0000
vn 0.9970 -0.0768 -0.0000
vn -0.3987 0.8525 0.3381
vn -0.3581 0.8554 0.3743
vn 0.3581 0.8554 0.3743
vn 0.3987 0.8525 0.3381
vn -0.3987 0.8525 -0.3381
vn -0.3581 0.8554 -0.3743
vn 0.3987 0.8525 -0.3381
vn 0.3581 0.8554 -0.3743
vn -0.0000 -0.1237 0.9923
vn -0.0000 -0.2839 0.9589
vn -0.9775 0.2110 -0.0000
vn -0.0000 0.2110 0.9775
vn -0.0000 -0.0768 0.9970
vn 0.9775 0.2110 -0.0000
# 71 vertex normals

vt 0.9458 0.3892 0.0000
vt 0.8310 0.3892 0.0000
vt 0.8310 0.3531 0.0000
vt 0.9458 0.3531 0.0000
vt 0.9263 0.2717 0.0000
vt 0.9263 0.1421 0.0000
vt 0.9878 0.1421 0.0000
vt 0.9387 0.2743 0.0000
vt 0.9263 0.0085 0.0000
vt 0.9878 0.0085 0.0000
vt 0.9458 0.3960 0.0000
vt 0.8310 0.3960 0.0000
vt 0.9458 0.4063 0.0000
vt 0.8310 0.4063 0.0000
vt 0.9458 0.4478 0.0000
vt 0.8310 0.4478 0.0000
vt 0.9458 0.4778 0.0000
vt 0.8310 0.4778 0.0000
vt 0.9878 0.4772 0.0000
vt 0.9678 0.4772 0.0000
vt 0.9662 0.3993 0.0000
vt 0.9540 0.2922 0.0000
vt 0.9013 0.2637 0.0000
vt 0.8319 0.2637 0.0000
vt 0.8319 0.3321 0.0000
vt 0.9013 0.3321 0.0000
vt 0.0099 0.5080 0.0000
vt 0.0099 0.9889 0.0000
vt 0.4957 0.9889 0.0000
vt 0.4957 0.5080 0.0000
vt 0.9871 0.9723 0.0000
vt 0.9871 0.4985 0.0000
vt 0.9598 0.4985 0.0000
vt 0.9598 0.9723 0.0000
vt 0.7404 0.5102 0.0000
vt 0.7404 0.9840 0.0000
vt 0.7131 0.9840 0.0000
vt 0.7131 0.5102 0.0000
vt 0.7990 0.9767 0.0000
vt 0.8343 0.9724 0.0000
vt 0.8343 0.4985 0.0000
vt 0.7990 0.4985 0.0000
vt 0.5523 0.5080 0.0000
vt 0.5876 0.5101 0.0000
vt 0.5876 0.9841 0.0000
vt 0.5523 0.9862 0.0000
vt 0.8497 0.9906 0.0000
vt 0.8497 0.4985 0.0000
vt 0.6031 0.5010 0.0000
vt 0.6031 0.9932 0.0000
vt 0.7637 0.9906 0.0000
vt 0.7637 0.4985 0.0000
vt 0.5170 0.5010 0.0000
vt 0.5170 0.9932 0.0000
vt 0.9097 0.9906 0.0000
vt 0.9097 0.4985 0.0000
vt 0.6630 0.5010 0.0000
vt 0.6630 0.9932 0.0000
vt 0.9007 0.2386 0.0000
vt 0.9007 0.1808 0.0000
vt 0.8531 0.1808 0.0000
vt 0.8531 0.2386 0.0000
vt 0.8178 0.0052 0.0000
vt 0.4084 0.0052 0.0000
vt 0.4029 0.0506 0.0000
vt 0.8233 0.0506 0.0000
vt 0.0336 0.0052 0.0000
vt 0.3495 0.0052 0.0000
vt 0.3549 0.0506 0.0000
vt 0.0282 0.0506 0.0000
vt 0.8058 0.4798 0.0000
vt 0.8058 0.2029 0.0000
vt 0.4203 0.2029 0.0000
vt 0.4203 0.4798 0.0000
vt 0.0497 0.4798 0.0000
vt 0.0497 0.2029 0.0000
vt 0.3334 0.2029 0.0000
vt 0.3334 0.4798 0.0000
vt 0.8278 0.1653 0.0000
vt 0.8423 0.0960 0.0000
vt 0.3838 0.0960 0.0000
vt 0.3983 0.1653 0.0000
vt 0.0237 0.1653 0.0000
vt 0.0094 0.0960 0.0000
vt 0.3737 0.0960 0.0000
vt 0.3594 0.1653 0.0000
# 86 texture coords

g base1
usemtl Material__3
s 2
f 1/1/1 2/2/1 3/3/2 
f 3/3/2 4/4/2 1/1/1 
s 4
f 1/5/3 4/6/4 5/7/5 
f 5/7/5 6/8/3 1/5/3 
s 1
f 4/6/6 3/9/6 7/10/6 
f 7/10/6 5/7/6 4/6/6 
s 2
f 1/1/1 6/11/7 8/12/7 
f 8/12/7 2/2/1 1/1/1 
f 9/13/8 10/14/8 8/12/7 
f 8/12/7 6/11/7 9/13/8 
f 11/15/9 12/16/9 10/14/8 
f 10/14/8 9/13/8 11/15/9 
f 13/17/10 14/18/10 12/16/9 
f 12/16/9 11/15/9 13/17/10 
s 4
f 5/7/5 15/19/4 13/20/4 
f 13/20/4 11/21/4 5/7/5 
f 5/7/5 11/21/4 9/22/4 
f 5/7/5 9/22/4 6/8/3 
f 2/5/11 8/8/12 7/7/12 
f 7/7/12 3/6/11 2/5/11 
f 7/7/12 12/21/13 14/20/13 
f 14/20/13 16/19/13 7/7/12 
f 7/7/12 10/22/13 12/21/13 
f 7/7/12 8/8/12 10/22/13 
s 2
f 17/23/2 18/24/2 19/25/2 
f 19/25/2 20/26/2 17/23/2 
f 21/27/14 22/28/14 23/29/14 
f 23/29/14 24/30/14 21/27/14 
s 4
f 18/31/13 17/32/13 25/33/15 
f 25/33/15 26/34/16 18/31/13 
s 1
f 19/35/17 18/36/17 26/37/18 
f 26/37/18 27/38/18 19/35/17 
s 4
f 20/32/4 19/31/4 27/34/19 
f 27/34/19 28/33/20 20/32/4 
f 29/39/21 30/40/22 31/41/22 
f 31/41/22 32/42/23 29/39/21 
s 1
f 33/43/24 34/44/25 30/45/25 
f 30/45/25 29/46/24 33/43/24 
s 4
f 35/42/26 36/41/27 34/40/27 
f 34/40/27 33/39/28 35/42/26 
s 2
f 30/40/29 37/47/30 38/48/31 
f 38/48/31 31/41/31 30/40/29 
f 34/44/32 39/49/33 37/50/30 
f 37/50/30 30/45/29 34/44/32 
f 36/41/34 40/48/34 39/47/33 
f 39/47/33 34/40/32 36/41/34 
s 4
f 24/51/35 29/39/21 32/42/23 
f 32/42/23 21/52/35 24/51/35 
s 1
f 23/53/36 33/43/24 29/46/24 
f 29/46/24 24/54/36 23/53/36 
s 4
f 22/52/37 35/42/26 33/39/28 
f 33/39/28 23/51/37 22/52/37 
f 37/47/13 41/55/38 42/56/15 
f 42/56/15 38/48/13 37/47/13 
s 1
f 39/49/17 43/57/39 41/58/39 
f 41/58/39 37/50/17 39/49/17 
s 4
f 40/48/4 44/56/20 43/55/40 
f 43/55/40 39/47/4 40/48/4 
f 41/55/38 26/34/16 25/33/15 
f 25/33/15 42/56/15 41/55/38 
s 1
f 43/57/39 27/38/18 26/37/18 
f 26/37/18 41/58/39 43/57/39 
s 4
f 44/56/20 28/33/20 27/34/19 
f 27/34/19 43/55/40 44/56/20 
s 2
f 45/59/2 46/60/2 47/61/2 
f 47/61/2 48/62/2 45/59/2 
s 4
f 46/63/41 45/64/41 49/65/42 
f 49/65/42 50/66/42 46/63/41 
s 1
f 47/67/43 46/68/43 50/69/44 
f 50/69/44 51/70/44 47/67/43 
s 4
f 48/64/45 47/63/45 51/66/46 
f 51/66/46 52/65/46 48/64/45 
s 1
f 45/68/47 48/67/47 52/70/48 
f 52/70/48 49/69/48 45/68/47 
s 4
f 53/71/11 54/72/11 55/73/11 
f 55/73/11 56/74/11 53/71/11 
s 1
f 57/75/17 58/76/17 54/77/17 
f 54/77/17 53/78/17 57/75/17 
s 4
f 59/74/4 60/73/4 58/72/4 
f 58/72/4 57/71/4 59/74/4 
s 1
f 56/78/49 55/77/49 60/76/49 
f 60/76/49 59/75/49 56/78/49 
s 4
f 61/79/50 62/80/51 63/81/51 
f 63/81/51 64/82/50 61/79/50 
s 1
f 65/83/52 66/84/53 62/85/53 
f 62/85/53 61/86/52 65/83/52 
s 4
f 67/82/54 68/81/55 66/80/55 
f 66/80/55 65/79/54 67/82/54 
s 1
f 64/86/56 63/85/57 68/84/57 
f 68/84/57 67/83/56 64/86/56 
s 2
f 54/72/58 61/79/59 64/82/60 
f 64/82/60 55/73/61 54/72/58 
f 58/76/62 65/83/63 61/86/59 
f 61/86/59 54/77/58 58/76/62 
f 60/73/64 67/82/65 65/79/63 
f 65/79/63 58/72/62 60/73/64 
f 55/77/61 64/86/60 67/83/65 
f 67/83/65 60/76/64 55/77/61 
s 4
f 62/80/51 50/66/42 49/65/42 
f 49/65/42 63/81/51 62/80/51 
s 1
f 66/84/53 51/70/44 50/69/44 
f 50/69/44 62/85/53 66/84/53 
s 4
f 68/81/55 52/65/46 51/66/46 
f 51/66/46 66/80/55 68/81/55 
s 1
f 63/85/57 49/69/48 52/70/48 
f 52/70/48 68/84/57 63/85/57 
s 2
f 69/59/2 70/62/2 71/61/2 
f 71/61/2 72/60/2 69/59/2 
s 4
f 72/63/45 73/66/46 74/65/46 
f 74/65/46 69/64/45 72/63/45 
s 1
f 71/67/43 75/70/44 73/69/44 
f 73/69/44 72/68/43 71/67/43 
s 4
f 70/64/66 76/65/67 75/66/67 
f 75/66/67 71/63/41 70/64/66 
s 1
f 69/68/47 74/69/48 76/70/48 
f 76/70/48 70/67/47 69/68/47 
s 4
f 77/71/4 78/74/4 79/73/4 
f 79/73/4 80/72/4 77/71/4 
s 1
f 81/75/17 77/78/17 80/77/17 
f 80/77/17 82/76/17 81/75/17 
s 4
f 83/74/12 81/71/12 82/72/12 
f 82/72/12 84/73/12 83/74/12 
s 1
f 78/78/49 83/75/49 84/76/49 
f 84/76/49 79/77/49 78/78/49 
s 4
f 85/79/54 86/82/54 87/81/55 
f 87/81/55 88/80/55 85/79/54 
s 1
f 89/83/68 85/86/68 88/85/53 
f 88/85/53 90/84/53 89/83/68 
s 4
f 91/82/69 89/79/69 90/80/70 
f 90/80/70 92/81/70 91/82/69 
s 1
f 86/86/71 91/83/71 92/84/57 
f 92/84/57 87/85/57 86/86/71 
s 2
f 80/72/62 79/73/64 86/82/65 
f 86/82/65 85/79/63 80/72/62 
f 82/76/58 80/77/62 85/86/63 
f 85/86/63 89/83/59 82/76/58 
f 84/73/61 82/72/58 89/79/59 
f 89/79/59 91/82/60 84/73/61 
f 79/77/64 84/76/61 91/83/60 
f 91/83/60 86/86/65 79/77/64 
s 4
f 88/80/55 87/81/55 74/65/46 
f 74/65/46 73/66/46 88/80/55 
s 1
f 90/84/53 88/85/53 73/69/44 
f 73/69/44 75/70/44 90/84/53 
s 4
f 92/81/70 90/80/70 75/66/67 
f 75/66/67 76/65/67 92/81/70 
s 1
f 87/85/57 92/84/57 76/70/48 
f 76/70/48 74/69/48 87/85/57 
# 148 faces

#
# object base2
#

v  56.4813 34.6508 -93.4026
v  92.1156 34.6508 -93.4026
v  92.1156 34.6508 -6.5974
v  56.4813 34.6508 -6.5974
v  55.7876 37.8048 -93.4026
v  92.1156 50.2946 -93.4026
v  92.1156 50.2946 -6.5974
v  55.7876 37.8048 -6.5974
v  50.8548 41.6970 -93.4026
v  50.8548 41.6970 -6.5974
v  21.4069 44.7781 -93.4026
v  21.4069 44.7781 -6.5974
v  -0.0000 45.1978 -93.4026
v  -0.0000 45.1977 -6.5974
v  -0.0000 50.2946 -93.4026
v  -0.0000 50.2946 -6.5974
v  -0.0000 48.5432 -1.8629
v  -0.0000 48.5432 -98.1371
v  96.2742 48.5432 -98.1371
v  96.2742 48.5432 -1.8629
v  -0.0000 88.6690 -0.0000
v  100.0000 88.6690 -0.0000
v  100.0000 88.6690 -100.0000
v  -0.0000 88.6690 -100.0000
v  96.2742 53.4556 -1.8629
v  -0.0000 53.4556 -1.8629
v  96.2742 53.4557 -98.1371
v  -0.0000 53.4557 -98.1371
v  97.1706 82.3322 -1.4147
v  -0.0000 82.3322 -1.4147
v  -0.0000 75.9953 -1.8457
v  96.3086 75.9953 -1.8457
v  97.1706 82.3322 -98.5853
v  96.3086 75.9953 -98.1543
v  -0.0000 82.3322 -98.5853
v  -0.0000 75.9953 -98.1543
v  -0.0000 73.2186 -0.0000
v  100.0000 73.2186 -0.0000
v  100.0000 73.2186 -100.0000
v  -0.0000 73.2186 -100.0000
v  -0.0000 62.4540 -0.0000
v  100.0000 62.4540 -0.0000
v  100.0000 62.4541 -100.0000
v  -0.0000 62.4541 -100.0000
v  58.3927 -0.0000 -7.8293
v  58.3927 -0.0000 -32.9590
v  90.5429 -0.0000 -32.9590
v  90.5429 -0.0000 -7.8293
v  90.9727 3.4473 -7.3995
v  57.9629 3.4473 -7.3995
v  90.9727 3.4473 -33.3888
v  57.9629 3.4473 -33.3888
v  89.6043 34.8188 -9.1087
v  59.3313 34.8188 -9.1087
v  59.3313 13.7891 -9.1087
v  89.6043 13.7891 -9.1087
v  89.6043 34.8188 -31.6796
v  89.6043 13.7891 -31.6796
v  59.3313 34.8188 -31.6796
v  59.3313 13.7891 -31.6796
v  91.3308 12.1618 -7.0414
v  57.6048 12.1618 -7.0414
v  56.4676 6.8946 -5.9042
v  92.4680 6.8946 -5.9042
v  91.3308 12.1618 -33.7469
v  92.4680 6.8946 -34.8841
v  57.6048 12.1618 -33.7469
v  56.4676 6.8946 -34.8841
v  58.3927 0.0000 -92.1707
v  90.5429 0.0000 -92.1707
v  90.5429 0.0000 -67.0410
v  58.3927 0.0000 -67.0410
v  57.9629 3.4473 -92.6005
v  90.9727 3.4473 -92.6005
v  90.9727 3.4473 -66.6112
v  57.9629 3.4473 -66.6112
v  89.6043 34.8188 -90.8913
v  89.6043 13.7891 -90.8913
v  59.3313 13.7891 -90.8913
v  59.3313 34.8188 -90.8913
v  89.6043 34.8188 -68.3204
v  89.6043 13.7891 -68.3204
v  59.3313 34.8188 -68.3204
v  59.3313 13.7891 -68.3204
v  91.3308 12.1618 -92.9586
v  92.4680 6.8946 -94.0958
v  56.4676 6.8946 -94.0958
v  57.6048 12.1618 -92.9586
v  91.3308 12.1618 -66.2531
v  92.4680 6.8946 -65.1159
v  57.6048 12.1618 -66.2531
v  56.4676 6.8946 -65.1159
# 92 vertices

vn -0.6266 -0.7794 -0.0000
vn 0.0000 -1.0000 -0.0000
vn 0.0000 -0.0000 -1.0000
vn 0.0000 0.0000 -1.0000
vn 1.0000 -0.0000 0.0000
vn -0.8474 -0.5309 -0.0000
vn -0.3766 -0.9264 -0.0000
vn -0.0619 -0.9981 -0.0000
vn -0.0196 -0.9998 -0.0000
vn 0.0000 0.0000 1.0000
vn -0.0000 0.0000 1.0000
vn -0.0000 -0.0000 1.0000
vn -0.0000 1.0000 0.0000
vn -0.0000 -0.1130 0.9936
vn -0.0000 -0.1019 0.9948
vn 1.0000 0.0000 0.0000
vn 0.9785 -0.2061 0.0000
vn 0.0000 -0.1019 -0.9948
vn 0.0000 -0.1130 -0.9936
vn -0.0000 -0.1553 0.9879
vn -0.0000 -0.1433 0.9897
vn -0.0000 -0.0679 0.9977
vn 0.9584 -0.2853 0.0000
vn 0.9909 -0.1348 0.0000
vn 0.0000 -0.1433 -0.9897
vn 0.0000 -0.1553 -0.9879
vn 0.0000 -0.0679 -0.9977
vn 0.3162 0.7797 0.5405
vn -0.0000 0.5536 0.8328
vn 0.4331 0.8218 0.3702
vn 0.3162 0.7797 -0.5405
vn 0.4331 0.8218 -0.3702
vn 0.0000 0.5536 -0.8328
vn -0.0000 -0.2179 0.9760
vn 0.9131 -0.4077 0.0000
vn 0.0000 -0.2179 -0.9760
vn -0.0000 -0.0876 0.9962
vn 0.9832 -0.1825 0.0000
vn 0.0000 -0.0876 -0.9962
vn -0.0000 -1.0000 -0.0000
vn 0.0000 -0.1237 0.9923
vn 0.0000 -0.2839 0.9589
vn 0.9923 -0.1237 0.0000
vn 0.9589 -0.2839 -0.0000
vn 0.9589 -0.2839 0.0000
vn -0.0000 -0.1237 -0.9923
vn 0.0000 -0.2839 -0.9589
vn -0.9923 -0.1237 -0.0000
vn -0.9589 -0.2839 -0.0000
vn -0.0000 0.0000 -1.0000
vn -1.0000 0.0000 -0.0000
vn 0.0000 0.2110 0.9775
vn 0.0000 -0.0768 0.9970
vn 0.9775 0.2110 0.0000
vn 0.9970 -0.0768 -0.0000
vn 0.0000 0.2110 -0.9775
vn -0.0000 0.2110 -0.9775
vn -0.0000 -0.0768 -0.9970
vn 0.0000 -0.0768 -0.9970
vn -0.9775 0.2110 0.0000
vn -0.9775 0.2110 -0.0000
vn -0.9970 -0.0768 -0.0000
vn 0.3987 0.8525 0.3381
vn -0.3987 0.8525 0.3381
vn -0.3581 0.8554 0.3743
vn 0.3581 0.8554 0.3743
vn 0.3987 0.8525 -0.3381
vn 0.3581 0.8554 -0.3743
vn -0.3987 0.8525 -0.3381
vn -0.3581 0.8554 -0.3743
vn 0.0000 -0.1237 -0.9923
vn 0.9923 -0.1237 -0.0000
vn -0.0000 -0.1237 0.9923
vn -0.0000 -0.2839 0.9589
vn 1.0000 0.0000 -0.0000
vn 0.9775 0.2110 -0.0000
vn 0.9970 -0.0768 0.0000
vn -0.0000 0.2110 0.9775
vn -0.0000 -0.0768 0.9970
# 79 vertex normals

vt 0.9458 0.3892 0.0000
vt 0.9458 0.3531 0.0000
vt 0.8310 0.3531 0.0000
vt 0.8310 0.3892 0.0000
vt 0.9263 0.2717 0.0000
vt 0.9387 0.2743 0.0000
vt 0.9878 0.1421 0.0000
vt 0.9263 0.1421 0.0000
vt 0.9878 0.0085 0.0000
vt 0.9263 0.0085 0.0000
vt 0.8310 0.3960 0.0000
vt 0.9458 0.3960 0.0000
vt 0.9458 0.4063 0.0000
vt 0.8310 0.4063 0.0000
vt 0.9458 0.4478 0.0000
vt 0.8310 0.4478 0.0000
vt 0.9458 0.4778 0.0000
vt 0.8310 0.4778 0.0000
vt 0.9662 0.3993 0.0000
vt 0.9678 0.4772 0.0000
vt 0.9878 0.4772 0.0000
vt 0.9540 0.2922 0.0000
vt 0.9013 0.2637 0.0000
vt 0.9013 0.3321 0.0000
vt 0.8319 0.3321 0.0000
vt 0.8319 0.2637 0.0000
vt 0.0099 0.5080 0.0000
vt 0.4957 0.5080 0.0000
vt 0.4957 0.9889 0.0000
vt 0.0099 0.9889 0.0000
vt 0.9871 0.9723 0.0000
vt 0.9598 0.9723 0.0000
vt 0.9598 0.4985 0.0000
vt 0.9871 0.4985 0.0000
vt 0.7404 0.5102 0.0000
vt 0.7131 0.5102 0.0000
vt 0.7131 0.9840 0.0000
vt 0.7404 0.9840 0.0000
vt 0.7990 0.9767 0.0000
vt 0.7990 0.4985 0.0000
vt 0.8343 0.4985 0.0000
vt 0.8343 0.9724 0.0000
vt 0.5523 0.5080 0.0000
vt 0.5523 0.9862 0.0000
vt 0.5876 0.9841 0.0000
vt 0.5876 0.5101 0.0000
vt 0.8497 0.4985 0.0000
vt 0.8497 0.9906 0.0000
vt 0.6031 0.9932 0.0000
vt 0.6031 0.5010 0.0000
vt 0.7637 0.9906 0.0000
vt 0.7637 0.4985 0.0000
vt 0.5170 0.5010 0.0000
vt 0.5170 0.9932 0.0000
vt 0.9097 0.4985 0.0000
vt 0.9097 0.9906 0.0000
vt 0.6630 0.9932 0.0000
vt 0.6630 0.5010 0.0000
vt 0.9007 0.2386 0.0000
vt 0.8531 0.2386 0.0000
vt 0.8531 0.1808 0.0000
vt 0.9007 0.1808 0.0000
vt 0.8178 0.0052 0.0000
vt 0.8233 0.0506 0.0000
vt 0.4029 0.0506 0.0000
vt 0.4084 0.0052 0.0000
vt 0.0336 0.0052 0.0000
vt 0.0282 0.0506 0.0000
vt 0.3549 0.0506 0.0000
vt 0.3495 0.0052 0.0000
vt 0.8058 0.4798 0.0000
vt 0.4203 0.4798 0.0000
vt 0.4203 0.2029 0.0000
vt 0.8058 0.2029 0.0000
vt 0.0497 0.4798 0.0000
vt 0.3334 0.4798 0.0000
vt 0.3334 0.2029 0.0000
vt 0.0497 0.2029 0.0000
vt 0.8278 0.1653 0.0000
vt 0.3983 0.1653 0.0000
vt 0.3838 0.0960 0.0000
vt 0.8423 0.0960 0.0000
vt 0.0237 0.1653 0.0000
vt 0.3594 0.1653 0.0000
vt 0.3737 0.0960 0.0000
vt 0.0094 0.0960 0.0000
# 86 texture coords

g base2
usemtl Material__3
s 2
f 93/87/72 94/88/73 95/89/73 
f 95/89/73 96/90/72 93/87/72 
s 4
f 93/91/74 97/92/74 98/93/74 
f 98/93/74 94/94/75 93/91/74 
s 1
f 94/94/76 98/93/76 99/95/76 
f 99/95/76 95/96/76 94/94/76 
s 2
f 93/87/72 96/90/72 100/97/77 
f 100/97/77 97/98/77 93/87/72 
f 101/99/78 97/98/77 100/97/77 
f 100/97/77 102/100/78 101/99/78 
f 103/101/79 101/99/78 102/100/78 
f 102/100/78 104/102/79 103/101/79 
f 105/103/80 103/101/79 104/102/79 
f 104/102/79 106/104/80 105/103/80 
s 4
f 98/93/74 103/105/75 105/106/75 
f 105/106/75 107/107/75 98/93/74 
f 98/93/74 101/108/75 103/105/75 
f 98/93/74 97/92/74 101/108/75 
f 96/91/81 95/94/81 99/93/82 
f 99/93/82 100/92/81 96/91/81 
f 99/93/82 108/107/82 106/106/83 
f 106/106/83 104/105/83 99/93/82 
f 99/93/82 104/105/83 102/108/82 
f 99/93/82 102/108/82 100/92/81 
s 2
f 109/109/73 110/110/73 111/111/73 
f 111/111/73 112/112/73 109/109/73 
f 113/113/84 114/114/84 115/115/84 
f 115/115/84 116/116/84 113/113/84 
s 4
f 112/117/82 117/118/85 118/119/86 
f 118/119/86 109/120/82 112/117/82 
s 1
f 111/121/87 119/122/88 117/123/88 
f 117/123/88 112/124/87 111/121/87 
s 4
f 110/120/75 120/119/89 119/118/90 
f 119/118/90 111/117/75 110/120/75 
f 121/125/91 122/126/92 123/127/93 
f 123/127/93 124/128/93 121/125/91 
s 1
f 125/129/94 121/130/94 124/131/95 
f 124/131/95 126/132/95 125/129/94 
s 4
f 127/126/96 125/125/97 126/128/98 
f 126/128/98 128/127/98 127/126/96 
s 2
f 124/128/99 123/127/100 129/133/100 
f 129/133/100 130/134/101 124/128/99 
f 126/132/102 124/131/99 130/135/101 
f 130/135/101 131/136/103 126/132/102 
f 128/127/104 126/128/102 131/134/103 
f 131/134/103 132/133/104 128/127/104 
s 4
f 114/137/105 113/138/105 122/126/92 
f 122/126/92 121/125/91 114/137/105 
s 1
f 115/139/106 114/140/106 121/130/94 
f 121/130/94 125/129/94 115/139/106 
s 4
f 116/138/107 115/137/107 125/125/97 
f 125/125/97 127/126/96 116/138/107 
f 130/134/82 129/133/82 133/141/86 
f 133/141/86 134/142/108 130/134/82 
s 1
f 131/136/87 130/135/87 134/143/109 
f 134/143/109 135/144/109 131/136/87 
s 4
f 132/133/75 131/134/75 135/142/110 
f 135/142/110 136/141/89 132/133/75 
f 134/142/108 133/141/86 118/119/86 
f 118/119/86 117/118/85 134/142/108 
s 1
f 135/144/109 134/143/109 117/123/88 
f 117/123/88 119/122/88 135/144/109 
s 4
f 136/141/89 135/142/110 119/118/90 
f 119/118/90 120/119/89 136/141/89 
s 2
f 137/145/111 138/146/111 139/147/111 
f 139/147/111 140/148/73 137/145/111 
s 4
f 140/149/112 141/150/113 142/151/113 
f 142/151/113 137/152/112 140/149/112 
s 1
f 139/153/114 143/154/115 141/155/116 
f 141/155/116 140/156/114 139/153/114 
s 4
f 138/152/117 144/151/118 143/150/118 
f 143/150/118 139/149/117 138/152/117 
s 1
f 137/156/119 142/155/120 144/154/120 
f 144/154/120 138/153/119 137/156/119 
s 4
f 145/157/81 146/158/81 147/159/81 
f 147/159/81 148/160/81 145/157/81 
s 1
f 149/161/76 145/162/87 148/163/76 
f 148/163/76 150/164/76 149/161/76 
s 4
f 151/158/121 149/157/121 150/160/121 
f 150/160/121 152/159/75 151/158/121 
s 1
f 146/162/122 151/161/122 152/164/122 
f 152/164/122 147/163/122 146/162/122 
s 4
f 153/165/123 154/166/123 155/167/124 
f 155/167/124 156/168/124 153/165/123 
s 1
f 157/169/125 153/170/125 156/171/126 
f 156/171/126 158/172/126 157/169/125 
s 4
f 159/166/127 157/165/128 158/168/129 
f 158/168/129 160/167/130 159/166/127 
s 1
f 154/170/131 159/169/132 160/172/133 
f 160/172/133 155/171/133 154/170/131 
s 2
f 148/160/134 147/159/135 154/166/136 
f 154/166/136 153/165/137 148/160/134 
f 150/164/138 148/163/134 153/170/137 
f 153/170/137 157/169/139 150/164/138 
f 152/159/140 150/160/138 157/165/139 
f 157/165/139 159/166/141 152/159/140 
f 147/163/135 152/164/140 159/169/141 
f 159/169/141 154/170/136 147/163/135 
s 4
f 156/168/124 155/167/124 142/151/113 
f 142/151/113 141/150/113 156/168/124 
s 1
f 158/172/126 156/171/126 141/155/116 
f 141/155/116 143/154/115 158/172/126 
s 4
f 160/167/130 158/168/129 143/150/118 
f 143/150/118 144/151/118 160/167/130 
s 1
f 155/171/133 160/172/133 144/154/120 
f 144/154/120 142/155/120 155/171/133 
s 2
f 161/145/73 162/148/73 163/147/73 
f 163/147/73 164/146/73 161/145/73 
s 4
f 162/149/142 161/152/142 165/151/118 
f 165/151/118 166/150/118 162/149/142 
s 1
f 163/153/114 162/156/143 166/155/116 
f 166/155/116 167/154/116 163/153/114 
s 4
f 164/152/144 163/149/144 167/150/145 
f 167/150/145 168/151/145 164/152/144 
s 1
f 161/156/119 164/153/119 168/154/120 
f 168/154/120 165/155/120 161/156/119 
s 4
f 169/157/75 170/160/75 171/159/75 
f 171/159/75 172/158/75 169/157/75 
s 1
f 173/161/146 174/164/146 170/163/146 
f 170/163/146 169/162/146 173/161/146 
s 4
f 175/158/83 176/159/82 174/160/83 
f 174/160/83 173/157/83 175/158/83 
s 1
f 172/162/122 171/163/122 176/164/122 
f 176/164/122 175/161/122 172/162/122 
s 4
f 177/165/127 178/168/130 179/167/130 
f 179/167/130 180/166/127 177/165/127 
s 1
f 181/169/147 182/172/148 178/171/126 
f 178/171/126 177/170/147 181/169/147 
s 4
f 183/166/149 184/167/150 182/168/150 
f 182/168/150 181/165/149 183/166/149 
s 1
f 180/170/132 179/171/133 184/172/133 
f 184/172/133 183/169/132 180/170/132 
s 2
f 170/160/138 177/165/139 180/166/141 
f 180/166/141 171/159/140 170/160/138 
f 174/164/134 181/169/137 177/170/139 
f 177/170/139 170/163/138 174/164/134 
f 176/159/135 183/166/136 181/165/137 
f 181/165/137 174/160/134 176/159/135 
f 171/163/140 180/170/141 183/169/136 
f 183/169/136 176/164/135 171/163/140 
s 4
f 178/168/130 166/150/118 165/151/118 
f 165/151/118 179/167/130 178/168/130 
s 1
f 182/172/148 167/154/116 166/155/116 
f 166/155/116 178/171/126 182/172/148 
s 4
f 184/167/150 168/151/145 167/150/145 
f 167/150/145 182/168/150 184/167/150 
s 1
f 179/171/133 165/155/120 168/154/120 
f 168/154/120 184/172/133 179/171/133 
# 148 faces

