# 3ds Max Wavefront OBJ Exporter v0.97b - (c)2007 guruware
# File Created: 03.03.2021 15:51:23

mtllib 波希米亚_组合柜+餐桌模型贴图提交\西域楼梯\western_stairs.mtl

#
# object base
#

v  0.0000 50.0000 -0.0000
v  43.8013 17.7943 -0.0000
v  50.0000 21.7679 -0.0000
v  50.0000 50.0000 -0.0000
v  0.0000 -0.0000 -0.0000
v  9.5882 -0.0000 -8.0523
v  19.1763 -0.0000 -8.0523
v  19.1763 -0.0000 -0.0000
v  22.4573 8.3543 -0.0000
v  22.4573 8.3543 -8.0523
v  48.9305 18.5880 -0.0000
v  48.9305 18.5880 -8.0522
v  50.0000 21.7679 -8.0522
v  43.8013 17.7943 -8.0523
v  46.9193 17.3635 -8.0523
v  46.9193 17.3635 -0.0000
v  39.0133 15.2818 -0.0000
v  39.0133 15.2818 -8.0523
v  30.3987 12.5895 -0.0000
v  30.3987 12.5895 -8.0523
v  36.8384 11.0063 -8.0523
v  36.8384 11.0063 -0.0000
v  9.5882 39.7502 -8.0523
v  9.5882 -0.0000 -41.9478
v  9.5882 39.7502 -41.9478
v  0.0000 50.0000 -50.0000
v  50.0000 50.0000 -50.0000
v  50.0000 21.7679 -50.0000
v  43.8013 17.7943 -50.0000
v  0.0000 -0.0000 -50.0000
v  19.1763 -0.0000 -50.0000
v  19.1763 -0.0000 -41.9478
v  22.4573 8.3543 -50.0000
v  22.4573 8.3543 -41.9478
v  50.0000 21.7679 -41.9478
v  48.9305 18.5880 -41.9478
v  48.9305 18.5880 -50.0000
v  46.9193 17.3635 -50.0000
v  46.9193 17.3635 -41.9478
v  43.8013 17.7943 -41.9478
v  39.0133 15.2818 -50.0000
v  39.0133 15.2818 -41.9478
v  30.3987 12.5895 -50.0000
v  36.8384 11.0063 -50.0000
v  36.8384 11.0063 -41.9478
v  30.3987 12.5895 -41.9478
v  100.0000 50.0000 -0.0000
v  56.1987 17.7943 -0.0000
v  100.0000 -0.0000 -0.0000
v  80.8237 -0.0000 -0.0000
v  80.8237 -0.0000 -8.0523
v  90.4118 -0.0000 -8.0523
v  77.5427 8.3543 -0.0000
v  77.5427 8.3543 -8.0523
v  51.0695 18.5880 -8.0522
v  51.0695 18.5880 -0.0000
v  53.0807 17.3635 -0.0000
v  53.0807 17.3635 -8.0523
v  56.1987 17.7943 -8.0523
v  60.9867 15.2818 -0.0000
v  60.9867 15.2818 -8.0523
v  69.6013 12.5895 -0.0000
v  63.1616 11.0063 -0.0000
v  63.1616 11.0063 -8.0523
v  69.6013 12.5895 -8.0523
v  90.4118 39.7502 -8.0523
v  90.4118 39.7502 -41.9478
v  90.4118 -0.0000 -41.9478
v  100.0000 50.0000 -50.0000
v  56.1987 17.7943 -50.0000
v  100.0000 -0.0000 -50.0000
v  80.8237 -0.0000 -41.9478
v  80.8237 -0.0000 -50.0000
v  77.5427 8.3543 -50.0000
v  77.5427 8.3543 -41.9478
v  51.0695 18.5880 -50.0000
v  51.0695 18.5880 -41.9478
v  56.1987 17.7943 -41.9478
v  53.0807 17.3635 -41.9478
v  53.0807 17.3635 -50.0000
v  60.9867 15.2818 -50.0000
v  60.9867 15.2818 -41.9478
v  69.6013 12.5895 -50.0000
v  69.6013 12.5895 -41.9478
v  63.1616 11.0063 -41.9478
v  63.1616 11.0063 -50.0000
v  0.0000 100.0000 -50.0000
v  43.8013 67.7943 -50.0000
v  50.0000 71.7679 -50.0000
v  50.0000 100.0000 -50.0000
v  9.5882 50.0000 -58.0522
v  19.1763 50.0000 -58.0522
v  19.1763 50.0000 -50.0000
v  22.4573 58.3543 -50.0000
v  22.4573 58.3543 -58.0522
v  48.9305 68.5880 -50.0000
v  48.9305 68.5880 -58.0522
v  50.0000 71.7679 -58.0522
v  43.8013 67.7943 -58.0522
v  46.9193 67.3635 -58.0522
v  46.9193 67.3635 -50.0000
v  39.0133 65.2819 -50.0000
v  39.0133 65.2819 -58.0522
v  30.3987 62.5895 -50.0000
v  30.3987 62.5895 -58.0522
v  36.8384 61.0063 -58.0522
v  36.8384 61.0063 -50.0000
v  9.5882 89.7502 -58.0522
v  9.5882 50.0000 -91.9477
v  9.5882 89.7502 -91.9477
v  0.0000 100.0000 -100.0000
v  50.0000 100.0000 -100.0000
v  50.0000 71.7679 -100.0000
v  43.8013 67.7943 -100.0000
v  0.0000 50.0000 -100.0000
v  19.1763 50.0000 -100.0000
v  19.1763 50.0000 -91.9477
v  22.4573 58.3543 -100.0000
v  22.4573 58.3543 -91.9477
v  50.0000 71.7679 -91.9477
v  48.9305 68.5880 -91.9477
v  48.9305 68.5880 -100.0000
v  46.9193 67.3635 -100.0000
v  46.9193 67.3635 -91.9477
v  43.8013 67.7943 -91.9477
v  39.0133 65.2819 -100.0000
v  39.0133 65.2819 -91.9477
v  30.3987 62.5895 -100.0000
v  36.8384 61.0063 -100.0000
v  36.8384 61.0063 -91.9477
v  30.3987 62.5895 -91.9477
v  100.0000 100.0000 -50.0000
v  56.1987 67.7943 -50.0000
v  80.8237 50.0000 -50.0000
v  80.8237 50.0000 -58.0522
v  90.4118 50.0000 -58.0522
v  77.5427 58.3543 -50.0000
v  77.5427 58.3543 -58.0522
v  51.0695 68.5880 -58.0522
v  51.0695 68.5880 -50.0000
v  53.0807 67.3635 -50.0000
v  53.0807 67.3635 -58.0522
v  56.1987 67.7943 -58.0522
v  60.9867 65.2819 -50.0000
v  60.9867 65.2819 -58.0522
v  69.6013 62.5895 -50.0000
v  63.1616 61.0063 -50.0000
v  63.1616 61.0063 -58.0522
v  69.6013 62.5895 -58.0522
v  90.4118 89.7502 -58.0522
v  90.4118 89.7502 -91.9477
v  90.4118 50.0000 -91.9477
v  100.0000 100.0000 -100.0000
v  56.1987 67.7943 -100.0000
v  100.0000 50.0000 -100.0000
v  80.8237 50.0000 -91.9477
v  80.8237 50.0000 -100.0000
v  77.5427 58.3543 -100.0000
v  77.5427 58.3543 -91.9477
v  51.0695 68.5880 -100.0000
v  51.0695 68.5880 -91.9477
v  56.1987 67.7943 -91.9477
v  53.0807 67.3635 -91.9477
v  53.0807 67.3635 -100.0000
v  60.9867 65.2819 -100.0000
v  60.9867 65.2819 -91.9477
v  69.6013 62.5895 -100.0000
v  69.6013 62.5895 -91.9477
v  63.1616 61.0063 -91.9477
v  63.1616 61.0063 -100.0000
# 170 vertices

vn -0.0000 -0.0000 1.0000
vn -0.0000 0.0000 1.0000
vn 0.0000 -1.0000 0.0000
vn 0.0000 -0.9926 -0.1213
vn 0.4507 -0.6613 -0.5996
vn 0.5632 -0.8263 0.0000
vn 0.7468 -0.6650 0.0000
vn 0.7308 -0.6508 -0.2061
vn -0.0000 -1.0000 0.0000
vn 0.7812 -0.6242 -0.0000
vn 0.6019 -0.4809 -0.6375
vn 0.0000 -0.5951 -0.8037
vn 0.1721 -0.9851 -0.0000
vn 0.1675 -0.9586 -0.2301
vn 0.1565 -0.7533 -0.6388
vn 0.2034 -0.9791 -0.0000
vn 0.7116 -0.7026 0.0000
vn 0.6876 -0.6789 -0.2574
vn 0.1241 -0.9923 0.0000
vn 0.1220 -0.9756 -0.1823
vn 0.3362 -0.7338 -0.5904
vn 0.4165 -0.9091 0.0000
vn 0.5774 -0.5774 -0.5774
vn 0.0000 0.0000 -1.0000
vn 0.0000 -0.0000 -1.0000
vn 0.8448 0.0000 -0.5351
vn 0.8448 0.0000 0.5351
vn 0.5774 -0.5774 0.5774
vn -0.0000 -0.0000 -1.0000
vn -0.0000 0.0000 -1.0000
vn 0.0000 -1.0000 -0.0000
vn 0.5632 -0.8263 -0.0000
vn 0.4507 -0.6613 0.5996
vn 0.0000 -0.9926 0.1213
vn 0.7468 -0.6650 -0.0000
vn 0.7308 -0.6508 0.2061
vn -0.0000 -0.5951 0.8037
vn 0.6019 -0.4809 0.6375
vn 0.1565 -0.7533 0.6388
vn 0.1675 -0.9586 0.2301
vn 0.7116 -0.7026 -0.0000
vn 0.6876 -0.6789 0.2574
vn 0.1241 -0.9923 -0.0000
vn 0.4165 -0.9091 -0.0000
vn 0.3362 -0.7338 0.5904
vn 0.1220 -0.9756 0.1823
vn -1.0000 -0.0000 -0.0000
vn -1.0000 0.0000 -0.0000
vn -0.0000 1.0000 -0.0000
vn 0.0000 1.0000 -0.0000
vn 0.0000 0.0000 1.0000
vn 0.0000 -0.0000 1.0000
vn -0.5632 -0.8263 -0.0000
vn -0.4507 -0.6613 -0.5996
vn -0.0000 -0.9926 -0.1213
vn -0.7468 -0.6650 -0.0000
vn -0.7308 -0.6508 -0.2061
vn -0.6019 -0.4809 -0.6375
vn -0.7812 -0.6242 0.0000
vn -0.1721 -0.9851 0.0000
vn -0.2034 -0.9791 0.0000
vn -0.1565 -0.7533 -0.6388
vn -0.1675 -0.9586 -0.2301
vn -0.7116 -0.7026 0.0000
vn -0.6876 -0.6789 -0.2574
vn -0.1241 -0.9923 0.0000
vn -0.4165 -0.9091 0.0000
vn -0.3362 -0.7338 -0.5904
vn -0.1220 -0.9756 -0.1823
vn -0.5774 -0.5774 -0.5774
vn -0.8448 0.0000 -0.5351
vn -0.5774 -0.5774 0.5774
vn -0.8448 0.0000 0.5351
vn -0.0000 -1.0000 -0.0000
vn -0.0000 -0.9926 0.1213
vn -0.4507 -0.6613 0.5996
vn -0.7308 -0.6508 0.2061
vn -0.6019 -0.4809 0.6375
vn -0.1675 -0.9586 0.2301
vn -0.1565 -0.7533 0.6388
vn -0.6876 -0.6789 0.2574
vn -0.1241 -0.9923 -0.0000
vn -0.1220 -0.9756 0.1823
vn -0.3362 -0.7338 0.5904
vn -0.4165 -0.9091 -0.0000
vn 1.0000 -0.0000 0.0000
vn 0.0000 1.0000 0.0000
vn -0.0000 -0.5951 -0.8037
vn 0.5774 -0.5774 -0.5773
vn 0.0000 -0.5951 0.8037
vn -1.0000 0.0000 0.0000
vn -0.0000 1.0000 0.0000
vn -0.5632 -0.8263 0.0000
vn -0.5774 -0.5774 0.5773
vn -0.7116 -0.7026 -0.0000
vn 1.0000 0.0000 0.0000
# 96 vertex normals

vt 0.4996 0.4991 0.0000
vt 0.9296 0.1829 0.0000
vt 0.9904 0.2219 0.0000
vt 0.9904 0.4991 0.0000
vt 0.2198 0.9910 0.0000
vt 0.2198 0.9203 0.0000
vt 0.2996 0.9203 0.0000
vt 0.2996 0.9910 0.0000
vt 0.7201 0.0903 0.0000
vt 0.4996 0.0083 0.0000
vt 0.6879 0.0083 0.0000
vt 0.3371 0.9910 0.0000
vt 0.3371 0.9203 0.0000
vt 0.4818 0.9910 0.0000
vt 0.4678 0.9910 0.0000
vt 0.4678 0.9203 0.0000
vt 0.4818 0.9203 0.0000
vt 0.4448 0.9910 0.0000
vt 0.4448 0.9203 0.0000
vt 0.4579 0.9203 0.0000
vt 0.4580 0.9910 0.0000
vt 0.4223 0.9910 0.0000
vt 0.4223 0.9203 0.0000
vt 0.3746 0.9910 0.0000
vt 0.3746 0.9203 0.0000
vt 0.4023 0.9203 0.0000
vt 0.4023 0.9910 0.0000
vt 0.2679 0.9028 0.0000
vt 0.4127 0.8049 0.0000
vt 0.4353 0.8422 0.0000
vt 0.4798 0.9028 0.0000
vt 0.0137 0.6501 0.0000
vt 0.0137 0.5228 0.0000
vt 0.2448 0.5228 0.0000
vt 0.2448 0.6501 0.0000
vt 0.3638 0.7127 0.0000
vt 0.3807 0.7177 0.0000
vt 0.3873 0.7271 0.0000
vt 0.3850 0.7418 0.0000
vt 0.3984 0.7643 0.0000
vt 0.4211 0.7746 0.0000
vt 0.4798 0.8577 0.0000
vt 0.7980 0.1318 0.0000
vt 0.8612 0.1163 0.0000
vt 0.8826 0.1583 0.0000
vt 0.9602 0.1787 0.0000
vt 0.9799 0.1907 0.0000
vt 0.0094 0.4991 0.0000
vt 0.0094 0.0083 0.0000
vt 0.9904 0.9893 0.0000
vt 0.4996 0.9893 0.0000
vt 0.0112 0.9910 0.0000
vt 0.0112 0.9203 0.0000
vt 0.2679 0.5225 0.0000
vt 0.4353 0.5831 0.0000
vt 0.4127 0.6204 0.0000
vt 0.4798 0.5225 0.0000
vt 0.2448 0.9048 0.0000
vt 0.0137 0.9048 0.0000
vt 0.3850 0.6835 0.0000
vt 0.3873 0.6982 0.0000
vt 0.3807 0.7076 0.0000
vt 0.3984 0.6610 0.0000
vt 0.4211 0.6507 0.0000
vt 0.4798 0.5676 0.0000
# 65 texture coords

g base
usemtl Material__1
s 1
f 1/1/1 2/2/1 3/3/1 
f 3/3/1 4/4/2 1/1/1 
s 2
f 5/5/3 6/6/4 7/7/5 
f 7/7/5 8/8/6 5/5/3 
s 1
f 9/9/1 5/10/1 8/11/1 
s 2
f 9/12/7 8/8/6 7/7/5 
f 7/7/5 10/13/8 9/12/7 
f 3/14/9 11/15/10 12/16/11 
f 12/16/11 13/17/12 3/14/9 
f 2/18/13 14/19/14 15/20/15 
f 15/20/15 16/21/16 2/18/13 
f 17/22/17 18/23/18 14/19/14 
f 14/19/14 2/18/13 17/22/17 
f 19/24/19 20/25/20 21/26/21 
f 21/26/21 22/27/22 19/24/19 
f 9/12/7 10/13/8 20/25/20 
f 20/25/20 19/24/19 9/12/7 
f 16/21/16 15/20/15 12/16/11 
f 12/16/11 11/15/10 16/21/16 
f 22/27/22 21/26/21 18/23/18 
f 18/23/18 17/22/17 22/27/22 
s 1
f 23/28/23 20/29/24 10/30/25 
f 10/30/25 6/31/26 23/28/23 
f 23/32/23 6/33/26 24/34/27 
f 24/34/27 25/35/28 23/32/23 
s 2
f 13/36/12 12/37/11 15/38/15 
f 15/38/15 14/39/14 13/36/12 
f 18/40/18 21/41/21 20/29/20 
s 1
f 23/28/23 18/40/25 20/29/24 
f 23/28/23 14/39/24 18/40/25 
s 2
f 10/30/8 7/42/5 6/31/4 
s 1
f 9/9/1 1/1/1 5/10/1 
f 19/43/2 22/44/1 17/45/1 
f 16/46/1 11/47/1 3/3/1 
f 3/3/1 2/2/1 16/46/1 
f 1/1/1 9/9/1 19/43/2 
f 1/1/1 19/43/2 17/45/1 
f 1/1/1 17/45/1 2/2/1 
f 26/1/29 27/4/24 28/3/24 
f 28/3/24 29/2/30 26/1/29 
s 2
f 30/5/31 31/8/32 32/7/33 
f 32/7/33 24/6/34 30/5/31 
s 1
f 33/9/29 31/11/29 30/10/29 
s 2
f 33/12/35 34/13/36 32/7/33 
f 32/7/33 31/8/32 33/12/35 
f 28/14/31 35/17/37 36/16/38 
f 36/16/38 37/15/10 28/14/31 
f 29/18/13 38/21/16 39/20/39 
f 39/20/39 40/19/40 29/18/13 
f 41/22/41 29/18/13 40/19/40 
f 40/19/40 42/23/42 41/22/41 
f 43/24/43 44/27/44 45/26/45 
f 45/26/45 46/25/46 43/24/43 
s 4
f 1/1/47 26/48/47 30/49/48 
f 30/49/48 5/10/48 1/1/47 
s 2
f 1/1/49 4/4/50 27/50/49 
f 27/50/49 26/51/49 1/1/49 
f 33/12/35 43/24/43 46/25/46 
f 46/25/46 34/13/36 33/12/35 
f 38/21/16 37/15/10 36/16/38 
f 36/16/38 39/20/39 38/21/16 
f 44/27/44 41/22/41 42/23/42 
f 42/23/42 45/26/45 44/27/44 
s 1
f 25/28/28 34/30/2 46/29/51 
f 34/30/2 25/28/28 24/31/27 
s 2
f 5/5/3 30/52/31 24/53/34 
f 24/53/34 6/6/4 5/5/3 
f 35/36/37 40/39/40 39/38/39 
f 39/38/39 36/37/38 35/36/37 
f 42/40/42 46/29/46 45/41/45 
s 1
f 25/28/28 46/29/51 42/40/1 
f 25/28/28 42/40/1 40/39/51 
s 2
f 34/30/36 24/31/34 32/42/33 
s 1
f 33/9/29 30/10/29 26/1/29 
f 43/43/30 41/45/30 44/44/30 
f 38/46/30 29/2/30 28/3/24 
f 28/3/24 37/47/30 38/46/30 
f 26/1/29 43/43/30 33/9/29 
f 26/1/29 41/45/30 43/43/30 
f 26/1/29 29/2/30 41/45/30 
f 47/1/52 4/4/2 3/3/1 
f 3/3/1 48/2/52 47/1/52 
s 2
f 49/5/9 50/8/53 51/7/54 
f 51/7/54 52/6/55 49/5/9 
s 1
f 53/9/52 50/11/52 49/10/52 
s 2
f 53/12/56 54/13/57 51/7/54 
f 51/7/54 50/8/53 53/12/56 
f 3/14/9 13/17/12 55/16/58 
f 55/16/58 56/15/59 3/14/9 
f 48/18/60 57/21/61 58/20/62 
f 58/20/62 59/19/63 48/18/60 
f 60/22/64 48/18/60 59/19/63 
f 59/19/63 61/23/65 60/22/64 
f 62/24/66 63/27/67 64/26/68 
f 64/26/68 65/25/69 62/24/66 
f 53/12/56 62/24/66 65/25/69 
f 65/25/69 54/13/57 53/12/56 
f 57/21/61 56/15/59 55/16/58 
f 55/16/58 58/20/62 57/21/61 
f 63/27/67 60/22/64 61/23/65 
f 61/23/65 64/26/68 63/27/67 
s 1
f 66/54/70 54/55/30 65/56/30 
f 54/55/30 66/54/70 52/57/71 
f 66/32/70 67/35/72 68/34/73 
f 68/34/73 52/33/71 66/32/70 
f 23/32/23 25/35/28 67/58/72 
f 67/58/72 66/59/70 23/32/23 
s 2
f 13/36/12 59/60/63 58/61/62 
f 58/61/62 55/62/58 13/36/12 
f 61/63/65 65/56/69 64/64/68 
s 1
f 66/54/70 65/56/30 61/63/30 
f 66/54/70 61/63/30 59/60/30 
f 66/54/70 13/36/25 23/28/23 
s 2
f 54/55/57 52/57/55 51/65/54 
s 1
f 53/9/52 49/10/52 47/1/52 
f 62/43/51 60/45/52 63/44/1 
f 57/46/52 48/2/52 3/3/1 
f 3/3/1 56/47/52 57/46/52 
f 47/1/52 62/43/51 53/9/52 
f 47/1/52 60/45/52 62/43/51 
f 47/1/52 48/2/52 60/45/52 
f 69/1/24 70/2/24 28/3/24 
f 28/3/24 27/4/24 69/1/24 
s 2
f 71/5/74 68/6/75 72/7/76 
f 72/7/76 73/8/53 71/5/74 
s 1
f 74/9/25 71/10/25 73/11/25 
s 2
f 74/12/56 73/8/53 72/7/76 
f 72/7/76 75/13/77 74/12/56 
f 28/14/31 76/15/59 77/16/78 
f 77/16/78 35/17/37 28/14/31 
f 70/18/60 78/19/79 79/20/80 
f 79/20/80 80/21/61 70/18/60 
f 81/22/64 82/23/81 78/19/79 
f 78/19/79 70/18/60 81/22/64 
f 83/24/82 84/25/83 85/26/84 
f 85/26/84 86/27/85 83/24/82 
s 4
f 47/1/86 49/10/86 71/49/86 
f 71/49/86 69/48/86 47/1/86 
s 2
f 47/1/87 69/51/87 27/50/49 
f 27/50/49 4/4/50 47/1/87 
f 74/12/56 75/13/77 84/25/83 
f 84/25/83 83/24/82 74/12/56 
f 80/21/61 79/20/80 77/16/78 
f 77/16/78 76/15/59 80/21/61 
f 86/27/85 85/26/84 82/23/81 
f 82/23/81 81/22/64 86/27/85 
s 1
f 67/54/72 84/56/2 75/55/2 
f 75/55/2 68/57/73 67/54/72 
s 2
f 49/5/9 52/6/55 68/53/75 
f 68/53/75 71/52/74 49/5/9 
f 35/36/37 77/62/78 79/61/80 
f 79/61/80 78/60/79 35/36/37 
f 82/63/81 85/64/84 84/56/83 
s 1
f 67/54/72 82/63/52 84/56/2 
f 67/54/72 78/60/2 82/63/52 
f 67/54/72 35/36/2 78/60/2 
s 2
f 75/55/77 72/65/76 68/57/75 
s 1
f 74/9/25 69/1/24 71/10/25 
f 83/43/24 86/44/24 81/45/24 
f 80/46/30 76/47/30 28/3/24 
f 28/3/24 70/2/24 80/46/30 
f 69/1/24 74/9/25 83/43/24 
f 69/1/24 83/43/24 81/45/24 
f 69/1/24 81/45/24 70/2/24 
f 25/28/28 40/39/51 35/36/2 
f 67/54/72 25/28/28 35/36/2 
f 66/54/70 59/60/30 13/36/25 
f 13/36/25 14/39/24 23/28/23 
f 87/1/1 88/2/1 89/3/1 
f 89/3/1 90/4/2 87/1/1 
s 2
f 26/5/3 91/6/4 92/7/5 
f 92/7/5 93/8/6 26/5/3 
s 1
f 94/9/1 26/10/1 93/11/1 
s 2
f 94/12/7 93/8/6 92/7/5 
f 92/7/5 95/13/8 94/12/7 
f 89/14/9 96/15/10 97/16/11 
f 97/16/11 98/17/88 89/14/9 
f 88/18/13 99/19/14 100/20/15 
f 100/20/15 101/21/16 88/18/13 
f 102/22/17 103/23/18 99/19/14 
f 99/19/14 88/18/13 102/22/17 
f 104/24/19 105/25/20 106/26/21 
f 106/26/21 107/27/22 104/24/19 
f 94/12/7 95/13/8 105/25/20 
f 105/25/20 104/24/19 94/12/7 
f 101/21/16 100/20/15 97/16/11 
f 97/16/11 96/15/10 101/21/16 
f 107/27/22 106/26/21 103/23/18 
f 103/23/18 102/22/17 107/27/22 
s 1
f 108/28/89 105/29/25 95/30/25 
f 95/30/25 91/31/26 108/28/89 
f 108/32/89 91/33/26 109/34/27 
f 109/34/27 110/35/28 108/32/89 
s 2
f 98/36/88 97/37/11 100/38/15 
f 100/38/15 99/39/14 98/36/88 
f 103/40/18 106/41/21 105/29/20 
s 1
f 108/28/89 103/40/24 105/29/25 
f 108/28/89 99/39/25 103/40/24 
s 2
f 95/30/8 92/42/5 91/31/4 
s 1
f 94/9/1 87/1/1 26/10/1 
f 104/43/2 107/44/51 102/45/1 
f 101/46/1 96/47/52 89/3/1 
f 89/3/1 88/2/1 101/46/1 
f 87/1/1 94/9/1 104/43/2 
f 87/1/1 104/43/2 102/45/1 
f 87/1/1 102/45/1 88/2/1 
f 111/1/30 112/4/24 113/3/24 
f 113/3/24 114/2/30 111/1/30 
s 2
f 115/5/31 116/8/32 117/7/33 
f 117/7/33 109/6/34 115/5/31 
s 1
f 118/9/30 116/11/29 115/10/29 
s 2
f 118/12/35 119/13/36 117/7/33 
f 117/7/33 116/8/32 118/12/35 
f 113/14/9 120/17/90 121/16/38 
f 121/16/38 122/15/10 113/14/9 
f 114/18/13 123/21/16 124/20/39 
f 124/20/39 125/19/40 114/18/13 
f 126/22/41 114/18/13 125/19/40 
f 125/19/40 127/23/42 126/22/41 
f 128/24/43 129/27/44 130/26/45 
f 130/26/45 131/25/46 128/24/43 
s 4
f 87/1/91 111/48/91 115/49/91 
f 115/49/91 26/10/91 87/1/91 
s 2
f 87/1/49 90/4/49 112/50/87 
f 112/50/87 111/51/92 87/1/49 
f 118/12/35 128/24/43 131/25/46 
f 131/25/46 119/13/36 118/12/35 
f 123/21/16 122/15/10 121/16/38 
f 121/16/38 124/20/39 123/21/16 
f 129/27/44 126/22/41 127/23/42 
f 127/23/42 130/26/45 129/27/44 
s 1
f 110/28/28 119/30/52 131/29/1 
f 119/30/52 110/28/28 109/31/27 
s 2
f 26/5/3 115/52/31 109/53/34 
f 109/53/34 91/6/4 26/5/3 
f 120/36/90 125/39/40 124/38/39 
f 124/38/39 121/37/38 120/36/90 
f 127/40/42 131/29/46 130/41/45 
s 1
f 110/28/28 131/29/1 127/40/51 
f 110/28/28 127/40/51 125/39/51 
s 2
f 119/30/36 109/31/34 117/42/33 
s 1
f 118/9/30 115/10/29 111/1/30 
f 128/43/24 126/45/30 129/44/30 
f 123/46/30 114/2/30 113/3/24 
f 113/3/24 122/47/30 123/46/30 
f 111/1/30 128/43/24 118/9/30 
f 111/1/30 126/45/30 128/43/24 
f 111/1/30 114/2/30 126/45/30 
f 132/1/52 90/4/2 89/3/1 
f 89/3/1 133/2/52 132/1/52 
s 2
f 69/5/9 134/8/93 135/7/54 
f 135/7/54 136/6/4 69/5/9 
s 1
f 137/9/52 134/11/52 69/10/52 
s 2
f 137/12/56 138/13/57 135/7/54 
f 135/7/54 134/8/93 137/12/56 
f 89/14/9 98/17/88 139/16/58 
f 139/16/58 140/15/59 89/14/9 
f 133/18/60 141/21/61 142/20/62 
f 142/20/62 143/19/63 133/18/60 
f 144/22/64 133/18/60 143/19/63 
f 143/19/63 145/23/65 144/22/64 
f 146/24/66 147/27/67 148/26/68 
f 148/26/68 149/25/69 146/24/66 
f 137/12/56 146/24/66 149/25/69 
f 149/25/69 138/13/57 137/12/56 
f 141/21/61 140/15/59 139/16/58 
f 139/16/58 142/20/62 141/21/61 
f 147/27/67 144/22/64 145/23/65 
f 145/23/65 148/26/68 147/27/67 
s 1
f 150/54/70 138/55/30 149/56/30 
f 138/55/30 150/54/70 136/57/71 
f 150/32/70 151/35/94 152/34/73 
f 152/34/73 136/33/71 150/32/70 
f 108/32/89 110/35/28 151/58/94 
f 151/58/94 150/59/70 108/32/89 
s 2
f 98/36/88 143/60/63 142/61/62 
f 142/61/62 139/62/58 98/36/88 
f 145/63/65 149/56/69 148/64/68 
s 1
f 150/54/70 149/56/30 145/63/30 
f 150/54/70 145/63/30 143/60/30 
f 150/54/70 98/36/25 108/28/89 
s 2
f 138/55/57 136/57/4 135/65/54 
s 1
f 137/9/52 69/10/52 132/1/52 
f 146/43/2 144/45/52 147/44/1 
f 141/46/52 133/2/52 89/3/1 
f 89/3/1 140/47/1 141/46/52 
f 132/1/52 146/43/2 137/9/52 
f 132/1/52 144/45/52 146/43/2 
f 132/1/52 133/2/52 144/45/52 
f 153/1/25 154/2/24 113/3/24 
f 113/3/24 112/4/24 153/1/25 
s 2
f 155/5/74 152/6/75 156/7/76 
f 156/7/76 157/8/53 155/5/74 
s 1
f 158/9/25 155/10/25 157/11/25 
s 2
f 158/12/56 157/8/53 156/7/76 
f 156/7/76 159/13/77 158/12/56 
f 113/14/9 160/15/59 161/16/78 
f 161/16/78 120/17/90 113/14/9 
f 154/18/60 162/19/79 163/20/80 
f 163/20/80 164/21/61 154/18/60 
f 165/22/95 166/23/81 162/19/79 
f 162/19/79 154/18/60 165/22/95 
f 167/24/82 168/25/83 169/26/84 
f 169/26/84 170/27/85 167/24/82 
s 4
f 132/1/86 69/10/96 155/49/86 
f 155/49/86 153/48/86 132/1/86 
s 2
f 132/1/87 153/51/87 112/50/87 
f 112/50/87 90/4/49 132/1/87 
f 158/12/56 159/13/77 168/25/83 
f 168/25/83 167/24/82 158/12/56 
f 164/21/61 163/20/80 161/16/78 
f 161/16/78 160/15/59 164/21/61 
f 170/27/85 169/26/84 166/23/81 
f 166/23/81 165/22/95 170/27/85 
s 1
f 151/54/94 168/56/2 159/55/2 
f 159/55/2 152/57/73 151/54/94 
s 2
f 69/5/9 136/6/4 152/53/75 
f 152/53/75 155/52/74 69/5/9 
f 120/36/90 161/62/78 163/61/80 
f 163/61/80 162/60/79 120/36/90 
f 166/63/81 169/64/84 168/56/83 
s 1
f 151/54/94 166/63/1 168/56/2 
f 151/54/94 162/60/2 166/63/1 
f 151/54/94 120/36/2 162/60/2 
s 2
f 159/55/77 156/65/76 152/57/75 
s 1
f 158/9/25 153/1/25 155/10/25 
f 167/43/24 170/44/30 165/45/24 
f 164/46/30 160/47/30 113/3/24 
f 113/3/24 154/2/24 164/46/30 
f 153/1/25 158/9/25 167/43/24 
f 153/1/25 167/43/24 165/45/24 
f 153/1/25 165/45/24 154/2/24 
f 110/28/28 125/39/51 120/36/2 
f 151/54/94 110/28/28 120/36/2 
f 150/54/70 143/60/30 98/36/25 
f 98/36/25 99/39/25 108/28/89 
# 336 faces

