# 3ds Max Wavefront OBJ Exporter v0.97b - (c)2007 guruware
# File Created: 05.03.2021 17:08:15

mtllib western_table.mtl

#
# object base4
#

v  -0.0000 81.6624 -0.0000
v  -0.0000 81.6623 -100.0000
v  100.0000 81.6624 -100.0000
v  100.0000 81.6624 0.0000
v  100.0000 100.0000 -100.0000
v  -0.0000 100.0000 -100.0000
v  -0.0000 100.0000 -0.0000
v  100.0000 100.0000 -0.0000
v  8.7937 0.0000 -91.5551
v  7.7368 0.0000 -88.5215
v  5.0853 82.2349 -88.5215
v  6.8273 82.2349 -93.5215
v  8.7937 0.0000 -85.4879
v  11.8273 0.0000 -84.4310
v  11.8273 82.2350 -81.7795
v  6.8273 82.2350 -83.5215
v  14.8608 0.0000 -85.4880
v  15.9177 0.0000 -88.5215
v  18.5692 82.2349 -88.5215
v  16.8272 82.2350 -83.5215
v  14.8608 0.0000 -91.5551
v  11.8273 0.0000 -92.6120
v  11.8272 82.2349 -95.2635
v  16.8272 82.2349 -93.5215
v  8.7937 0.0000 -8.4449
v  6.8273 82.2350 -6.4785
v  5.0853 82.2350 -11.4785
v  7.7368 0.0000 -11.4785
v  8.7937 0.0000 -14.5121
v  6.8273 82.2350 -16.4785
v  11.8273 82.2350 -18.2205
v  11.8273 0.0000 -15.5690
v  14.8608 0.0000 -14.5121
v  16.8273 82.2350 -16.4785
v  18.5692 82.2350 -11.4785
v  15.9177 0.0000 -11.4785
v  14.8608 0.0000 -8.4449
v  16.8272 82.2350 -6.4785
v  11.8272 82.2350 -4.7365
v  11.8273 0.0000 -7.3880
v  91.2063 0.0000 -91.5551
v  93.1727 82.2349 -93.5215
v  94.9147 82.2349 -88.5215
v  92.2632 0.0000 -88.5215
v  91.2063 0.0000 -85.4879
v  93.1727 82.2350 -83.5215
v  88.1727 82.2350 -81.7795
v  88.1727 0.0000 -84.4310
v  85.1392 0.0000 -85.4880
v  83.1728 82.2350 -83.5215
v  81.4307 82.2349 -88.5215
v  84.0823 0.0000 -88.5215
v  85.1392 0.0000 -91.5551
v  83.1728 82.2349 -93.5215
v  88.1727 82.2349 -95.2635
v  88.1727 0.0000 -92.6120
v  91.2063 0.0000 -8.4449
v  92.2632 0.0000 -11.4785
v  94.9147 82.2350 -11.4785
v  93.1727 82.2350 -6.4785
v  91.2063 0.0000 -14.5121
v  88.1727 0.0000 -15.5690
v  88.1727 82.2350 -18.2205
v  93.1727 82.2350 -16.4785
v  85.1392 0.0000 -14.5121
v  84.0823 0.0000 -11.4785
v  81.4307 82.2350 -11.4785
v  83.1728 82.2350 -16.4785
v  85.1392 0.0000 -8.4449
v  88.1727 0.0000 -7.3880
v  88.1727 82.2350 -4.7365
v  83.1728 82.2350 -6.4785
# 72 vertices

vn -0.0000 -1.0000 0.0000
vn 0.0000 -1.0000 0.0000
vn 0.0000 1.0000 -0.0000
vn 1.0000 -0.0000 0.0000
vn 0.0000 0.0000 1.0000
vn -0.0000 -0.0000 1.0000
vn -1.0000 0.0000 0.0000
vn -1.0000 0.0000 -0.0000
vn 0.0000 0.0000 -1.0000
vn -0.7067 -0.0338 -0.7067
vn -0.9995 -0.0322 0.0000
vn -0.7067 -0.0338 0.7067
vn 0.0000 -0.0322 0.9995
vn -0.0000 -0.0322 0.9995
vn 0.7067 -0.0338 0.7067
vn 0.9995 -0.0322 0.0000
vn 0.7067 -0.0338 -0.7067
vn 0.0000 -0.0322 -0.9995
vn 0.0000 -1.0000 -0.0000
vn -0.9995 -0.0322 -0.0000
vn -0.0000 -0.0322 -0.9995
vn 0.9995 -0.0322 -0.0000
# 22 vertex normals

vt 0.5406 0.8638 0.0000
vt 0.6639 0.8638 0.0000
vt 0.6639 0.9805 0.0000
vt 0.5406 0.9805 0.0000
vt 0.0201 0.8334 0.0000
vt 0.0201 0.0145 0.0000
vt 0.8550 0.0145 0.0000
vt 0.8550 0.8334 0.0000
vt 0.9919 0.4850 0.0000
vt 0.8874 0.4850 0.0000
vt 0.8874 0.9880 0.0000
vt 0.9919 0.9880 0.0000
vt 0.8874 0.0058 0.0000
vt 0.9919 0.0058 0.0000
vt 0.4949 0.9191 0.0000
vt 0.4949 0.9846 0.0000
vt 0.0220 0.9846 0.0000
vt 0.0220 0.9191 0.0000
vt 0.4949 0.8609 0.0000
vt 0.0220 0.8609 0.0000
vt 0.8202 0.9249 0.0000
vt 0.8377 0.8747 0.0000
vt 0.7025 0.8747 0.0000
vt 0.7200 0.9249 0.0000
vt 0.8202 0.9248 0.0000
vt 0.7200 0.9248 0.0000
vt 0.7701 0.9424 0.0000
vt 0.7701 0.9423 0.0000
# 28 texture coords

g base4
usemtl Material__2
s 2
f 1/1/1 2/2/2 3/3/1 
f 3/3/1 4/4/1 1/1/1 
f 5/5/3 6/6/3 7/7/3 
f 7/7/3 8/8/3 5/5/3 
s 4
f 3/9/4 5/10/4 8/11/4 
f 8/11/4 4/12/4 3/9/4 
s 1
f 4/9/5 8/10/5 7/13/6 
f 7/13/6 1/14/6 4/9/5 
s 4
f 1/12/7 7/11/7 6/10/8 
f 6/10/8 2/9/8 1/12/7 
s 1
f 3/9/9 2/14/9 6/13/9 
f 6/13/9 5/10/9 3/9/9 
f 9/15/10 10/16/11 11/17/11 
f 11/17/11 12/18/10 9/15/10 
f 13/15/12 14/19/13 15/20/14 
f 15/20/14 16/18/12 13/15/12 
f 17/15/15 18/16/16 19/17/16 
f 19/17/16 20/18/15 17/15/15 
f 21/15/17 22/19/18 23/20/18 
f 23/20/18 24/18/17 21/15/17 
s 2
f 21/21/19 18/22/19 10/23/19 
f 10/23/19 9/24/19 21/21/19 
s 1
f 13/15/12 16/18/12 11/17/11 
f 11/17/11 10/16/11 13/15/12 
f 21/15/17 24/18/17 19/17/16 
f 19/17/16 18/16/16 21/15/17 
s 2
f 17/25/19 13/26/19 10/23/19 
f 10/23/19 18/22/19 17/25/19 
s 1
f 17/15/15 20/18/15 15/20/14 
f 15/20/14 14/19/13 17/15/15 
f 9/15/10 12/18/10 23/20/18 
f 23/20/18 22/19/18 9/15/10 
s 2
f 9/24/19 22/27/19 21/21/19 
f 17/25/19 14/28/19 13/26/19 
s 1
f 25/15/12 26/18/12 27/17/20 
f 27/17/20 28/16/20 25/15/12 
f 29/15/10 30/18/10 31/20/21 
f 31/20/21 32/19/18 29/15/10 
f 33/15/17 34/18/17 35/17/16 
f 35/17/16 36/16/16 33/15/17 
f 37/15/15 38/18/15 39/20/14 
f 39/20/14 40/19/14 37/15/15 
s 2
f 37/21/19 25/24/19 28/23/19 
f 28/23/19 36/22/19 37/21/19 
s 1
f 29/15/10 28/16/20 27/17/20 
f 27/17/20 30/18/10 29/15/10 
f 37/15/15 36/16/16 35/17/16 
f 35/17/16 38/18/15 37/15/15 
s 2
f 33/25/19 36/22/19 28/23/19 
f 28/23/19 29/26/19 33/25/19 
s 1
f 33/15/17 32/19/18 31/20/21 
f 31/20/21 34/18/17 33/15/17 
f 25/15/12 40/19/14 39/20/14 
f 39/20/14 26/18/12 25/15/12 
s 2
f 25/24/19 37/21/19 40/27/19 
f 33/25/19 29/26/19 32/28/19 
s 1
f 41/15/17 42/18/17 43/17/16 
f 43/17/16 44/16/16 41/15/17 
f 45/15/15 46/18/15 47/20/13 
f 47/20/13 48/19/14 45/15/15 
f 49/15/12 50/18/12 51/17/11 
f 51/17/11 52/16/11 49/15/12 
f 53/15/10 54/18/10 55/20/21 
f 55/20/21 56/19/18 53/15/10 
s 2
f 53/21/19 41/24/19 44/23/19 
f 44/23/19 52/22/19 53/21/19 
s 1
f 45/15/15 44/16/16 43/17/16 
f 43/17/16 46/18/15 45/15/15 
f 53/15/10 52/16/11 51/17/11 
f 51/17/11 54/18/10 53/15/10 
s 2
f 49/25/19 52/22/19 44/23/19 
f 44/23/19 45/26/19 49/25/19 
s 1
f 49/15/12 48/19/14 47/20/13 
f 47/20/13 50/18/12 49/15/12 
f 41/15/17 56/19/18 55/20/21 
f 55/20/21 42/18/17 41/15/17 
s 2
f 41/24/19 53/21/19 56/27/19 
f 49/25/19 45/26/19 48/28/19 
s 1
f 57/15/15 58/16/22 59/17/22 
f 59/17/22 60/18/15 57/15/15 
f 61/15/17 62/19/21 63/20/21 
f 63/20/21 64/18/17 61/15/17 
f 65/15/10 66/16/11 67/17/20 
f 67/17/20 68/18/10 65/15/10 
f 69/15/12 70/19/14 71/20/13 
f 71/20/13 72/18/12 69/15/12 
s 2
f 69/21/19 66/22/19 58/23/19 
f 58/23/19 57/24/19 69/21/19 
s 1
f 61/15/17 64/18/17 59/17/22 
f 59/17/22 58/16/22 61/15/17 
f 69/15/12 72/18/12 67/17/20 
f 67/17/20 66/16/11 69/15/12 
s 2
f 65/25/19 61/26/19 58/23/19 
f 58/23/19 66/22/19 65/25/19 
s 1
f 65/15/10 68/18/10 63/20/21 
f 63/20/21 62/19/21 65/15/10 
f 57/15/15 60/18/15 71/20/13 
f 71/20/13 70/19/14 57/15/15 
s 2
f 57/24/19 70/27/19 69/21/19 
f 65/25/19 62/28/19 61/26/19 
# 100 faces

#
# object base2
#

v  -0.0000 81.6624 -0.0000
v  0.0000 81.6623 -100.0000
v  100.0000 81.6624 -100.0000
v  100.0000 81.6624 0.0000
v  100.0000 100.0000 -100.0000
v  0.0000 100.0000 -100.0000
v  -0.0000 100.0000 -0.0000
v  100.0000 100.0000 0.0000
v  91.5551 0.0000 -8.7937
v  93.5215 82.2349 -6.8273
v  88.5215 82.2349 -5.0853
v  88.5215 0.0000 -7.7368
v  85.4879 0.0000 -8.7937
v  83.5215 82.2350 -6.8273
v  81.7794 82.2350 -11.8273
v  84.4310 0.0000 -11.8273
v  85.4879 0.0000 -14.8608
v  83.5215 82.2350 -16.8272
v  88.5215 82.2349 -18.5692
v  88.5215 0.0000 -15.9177
v  91.5551 0.0000 -14.8608
v  93.5215 82.2349 -16.8272
v  95.2635 82.2349 -11.8273
v  92.6120 0.0000 -11.8273
v  8.4449 0.0000 -8.7937
v  11.4785 0.0000 -7.7368
v  11.4785 82.2350 -5.0853
v  6.4785 82.2350 -6.8273
v  14.5120 0.0000 -8.7937
v  15.5690 0.0000 -11.8273
v  18.2205 82.2350 -11.8273
v  16.4785 82.2350 -6.8273
v  14.5120 0.0000 -14.8608
v  11.4785 0.0000 -15.9177
v  11.4785 82.2350 -18.5693
v  16.4785 82.2350 -16.8272
v  8.4449 0.0000 -14.8608
v  7.3880 0.0000 -11.8273
v  4.7365 82.2350 -11.8273
v  6.4785 82.2350 -16.8272
# 40 vertices

vn -0.0000 -1.0000 0.0000
vn 0.0000 -1.0000 0.0000
vn 0.0000 1.0000 -0.0000
vn 1.0000 0.0000 0.0000
vn -0.0000 0.0000 1.0000
vn -0.0000 -0.0000 1.0000
vn -1.0000 0.0000 -0.0000
vn 0.0000 0.0000 -1.0000
vn 0.7067 -0.0338 0.7067
vn -0.0000 -0.0322 0.9995
vn -0.7067 -0.0338 0.7067
vn -0.9995 -0.0322 0.0000
vn -0.9995 -0.0322 -0.0000
vn -0.7067 -0.0338 -0.7067
vn -0.0000 -0.0322 -0.9995
vn 0.0000 -0.0322 -0.9995
vn 0.7067 -0.0338 -0.7067
vn 0.9995 -0.0322 -0.0000
vn 0.9995 -0.0322 0.0000
vn 0.0000 -1.0000 -0.0000
vn 0.0000 -0.0322 0.9995
# 21 vertex normals

vt 0.5406 0.8638 0.0000
vt 0.6639 0.8638 0.0000
vt 0.6639 0.9805 0.0000
vt 0.5406 0.9805 0.0000
vt 0.0201 0.8334 0.0000
vt 0.0201 0.0145 0.0000
vt 0.8550 0.0145 0.0000
vt 0.8550 0.8334 0.0000
vt 0.9919 0.4847 0.0000
vt 0.8874 0.4847 0.0000
vt 0.8874 0.9880 0.0000
vt 0.9919 0.9880 0.0000
vt 0.8874 0.0058 0.0000
vt 0.9919 0.0058 0.0000
vt 0.4949 0.9265 0.0000
vt 0.0220 0.9265 0.0000
vt 0.0220 0.8609 0.0000
vt 0.4949 0.8609 0.0000
vt 0.0220 0.9846 0.0000
vt 0.4949 0.9846 0.0000
vt 0.8202 0.9249 0.0000
vt 0.7200 0.9249 0.0000
vt 0.7025 0.8747 0.0000
vt 0.8377 0.8747 0.0000
vt 0.8202 0.9248 0.0000
vt 0.7200 0.9248 0.0000
vt 0.7701 0.9424 0.0000
vt 0.7701 0.9423 0.0000
# 28 texture coords

g base2
usemtl Material__2
s 2
f 73/29/23 74/30/24 75/31/23 
f 75/31/23 76/32/23 73/29/23 
f 77/33/25 78/34/25 79/35/25 
f 79/35/25 80/36/25 77/33/25 
s 1
f 75/37/26 77/38/26 80/39/26 
f 80/39/26 76/40/26 75/37/26 
s 4
f 76/37/27 80/38/27 79/41/28 
f 79/41/28 73/42/28 76/37/27 
s 1
f 73/40/29 79/39/29 78/38/29 
f 78/38/29 74/37/29 73/40/29 
s 4
f 75/37/30 74/42/30 78/41/30 
f 78/41/30 77/38/30 75/37/30 
s 1
f 81/43/31 82/44/31 83/45/32 
f 83/45/32 84/46/32 81/43/31 
f 85/43/33 86/44/33 87/47/34 
f 87/47/34 88/48/35 85/43/33 
f 89/43/36 90/44/36 91/45/37 
f 91/45/37 92/46/38 89/43/36 
f 93/43/39 94/44/39 95/47/40 
f 95/47/40 96/48/41 93/43/39 
s 2
f 93/49/42 81/50/42 84/51/42 
f 84/51/42 92/52/42 93/49/42 
s 1
f 85/43/33 84/46/32 83/45/32 
f 83/45/32 86/44/33 85/43/33 
f 93/43/39 92/46/38 91/45/37 
f 91/45/37 94/44/39 93/43/39 
s 2
f 89/53/42 92/52/42 84/51/42 
f 84/51/42 85/54/42 89/53/42 
s 1
f 89/43/36 88/48/35 87/47/34 
f 87/47/34 90/44/36 89/43/36 
f 81/43/31 96/48/41 95/47/40 
f 95/47/40 82/44/31 81/43/31 
s 2
f 81/50/42 93/49/42 96/55/42 
f 89/53/42 85/54/42 88/56/42 
s 1
f 97/43/33 98/46/43 99/45/43 
f 99/45/43 100/44/33 97/43/33 
f 101/43/31 102/48/40 103/47/40 
f 103/47/40 104/44/31 101/43/31 
f 105/43/39 106/46/37 107/45/38 
f 107/45/38 108/44/39 105/43/39 
f 109/43/36 110/48/35 111/47/34 
f 111/47/34 112/44/36 109/43/36 
s 2
f 109/49/42 106/52/42 98/51/42 
f 98/51/42 97/50/42 109/49/42 
s 1
f 101/43/31 104/44/31 99/45/43 
f 99/45/43 98/46/43 101/43/31 
f 109/43/36 112/44/36 107/45/38 
f 107/45/38 106/46/37 109/43/36 
s 2
f 105/53/42 101/54/42 98/51/42 
f 98/51/42 106/52/42 105/53/42 
s 1
f 105/43/39 108/44/39 103/47/40 
f 103/47/40 102/48/40 105/43/39 
f 97/43/33 100/44/33 111/47/34 
f 111/47/34 110/48/35 97/43/33 
s 2
f 97/50/42 110/55/42 109/49/42 
f 105/53/42 102/56/42 101/54/42 
# 56 faces

#
# object base1
#

v  -0.0000 81.6624 -0.0000
v  0.0000 81.6623 -100.0000
v  100.0000 81.6624 -100.0000
v  100.0000 81.6624 0.0000
v  100.0000 100.0000 -100.0000
v  0.0000 100.0000 -100.0000
v  -0.0000 100.0000 -0.0000
v  100.0000 100.0000 -0.0000
v  8.4449 0.0000 -8.7937
v  11.4785 0.0000 -7.7368
v  11.4785 82.2350 -5.0853
v  6.4785 82.2350 -6.8273
v  14.5120 0.0000 -8.7937
v  15.5690 0.0000 -11.8273
v  18.2205 82.2350 -11.8273
v  16.4785 82.2350 -6.8273
v  14.5120 0.0000 -14.8608
v  11.4785 0.0000 -15.9177
v  11.4785 82.2350 -18.5693
v  16.4785 82.2350 -16.8272
v  8.4449 0.0000 -14.8608
v  7.3880 0.0000 -11.8273
v  4.7365 82.2350 -11.8273
v  6.4785 82.2350 -16.8272
# 24 vertices

vn -0.0000 -1.0000 0.0000
vn 0.0000 -1.0000 0.0000
vn 0.0000 1.0000 -0.0000
vn 1.0000 -0.0000 0.0000
vn -0.0000 0.0000 1.0000
vn -0.0000 -0.0000 1.0000
vn -1.0000 0.0000 -0.0000
vn 0.0000 0.0000 -1.0000
vn -0.7067 -0.0338 0.7067
vn 0.0000 -0.0322 0.9995
vn 0.7067 -0.0338 0.7067
vn 0.9995 -0.0322 -0.0000
vn 0.7067 -0.0338 -0.7067
vn -0.0000 -0.0322 -0.9995
vn 0.0000 -0.0322 -0.9995
vn -0.7067 -0.0338 -0.7067
vn -0.9995 -0.0322 -0.0000
vn -0.9995 -0.0322 0.0000
vn 0.0000 -1.0000 -0.0000
# 19 vertex normals

vt 0.5406 0.8638 0.0000
vt 0.6639 0.8638 0.0000
vt 0.6639 0.9805 0.0000
vt 0.5406 0.9805 0.0000
vt 0.0201 0.8334 0.0000
vt 0.0201 0.0145 0.0000
vt 0.8550 0.0145 0.0000
vt 0.8550 0.8334 0.0000
vt 0.9919 0.4855 0.0000
vt 0.8874 0.4855 0.0000
vt 0.8874 0.9880 0.0000
vt 0.9919 0.9880 0.0000
vt 0.8874 0.0058 0.0000
vt 0.9919 0.0058 0.0000
vt 0.4949 0.9265 0.0000
vt 0.4949 0.8609 0.0000
vt 0.0220 0.8609 0.0000
vt 0.0220 0.9265 0.0000
vt 0.4949 0.9846 0.0000
vt 0.0220 0.9846 0.0000
vt 0.8202 0.9249 0.0000
vt 0.8377 0.8747 0.0000
vt 0.7025 0.8747 0.0000
vt 0.7200 0.9249 0.0000
vt 0.8202 0.9248 0.0000
vt 0.7200 0.9248 0.0000
vt 0.7701 0.9424 0.0000
vt 0.7701 0.9423 0.0000
# 28 texture coords

g base1
usemtl Material__2
s 2
f 113/57/44 114/58/45 115/59/44 
f 115/59/44 116/60/44 113/57/44 
f 117/61/46 118/62/46 119/63/46 
f 119/63/46 120/64/46 117/61/46 
s 1
f 115/65/47 117/66/47 120/67/47 
f 120/67/47 116/68/47 115/65/47 
s 4
f 116/65/48 120/66/48 119/69/49 
f 119/69/49 113/70/49 116/65/48 
s 1
f 113/68/50 119/67/50 118/66/50 
f 118/66/50 114/65/50 113/68/50 
s 4
f 115/65/51 114/70/51 118/69/51 
f 118/69/51 117/66/51 115/65/51 
s 1
f 121/71/52 122/72/53 123/73/53 
f 123/73/53 124/74/52 121/71/52 
f 125/71/54 126/75/55 127/76/55 
f 127/76/55 128/74/54 125/71/54 
f 129/71/56 130/72/57 131/73/58 
f 131/73/58 132/74/56 129/71/56 
f 133/71/59 134/75/60 135/76/61 
f 135/76/61 136/74/59 133/71/59 
s 2
f 133/77/62 130/78/62 122/79/62 
f 122/79/62 121/80/62 133/77/62 
s 1
f 125/71/54 128/74/54 123/73/53 
f 123/73/53 122/72/53 125/71/54 
f 133/71/59 136/74/59 131/73/58 
f 131/73/58 130/72/57 133/71/59 
s 2
f 129/81/62 125/82/62 122/79/62 
f 122/79/62 130/78/62 129/81/62 
s 1
f 129/71/56 132/74/56 127/76/55 
f 127/76/55 126/75/55 129/71/56 
f 121/71/52 124/74/52 135/76/61 
f 135/76/61 134/75/60 121/71/52 
s 2
f 121/80/62 134/83/62 133/77/62 
f 129/81/62 126/84/62 125/82/62 
# 34 faces

#
# object base0
#

v  -0.0000 81.6624 -0.0000
v  -0.0000 81.6623 -100.0000
v  100.0000 81.6624 -100.0000
v  100.0000 81.6624 0.0000
v  100.0000 100.0000 -100.0000
v  -0.0000 100.0000 -100.0000
v  -0.0000 100.0000 -0.0000
v  100.0000 100.0000 -0.0000
# 8 vertices

vn -0.0000 -0.7071 0.7071
vn 0.0000 -0.7071 -0.7071
vn 0.0000 0.7071 -0.7071
vn -0.0000 0.7071 0.7071
vn 0.0000 0.7071 0.7071
vn 1.0000 -0.0000 0.0000
vn -1.0000 0.0000 0.0000
vn -1.0000 0.0000 -0.0000
# 8 vertex normals

vt 0.5406 0.8638 0.0000
vt 0.6639 0.8638 0.0000
vt 0.6639 0.9805 0.0000
vt 0.5406 0.9805 0.0000
vt 0.0201 0.8334 0.0000
vt 0.0201 0.0145 0.0000
vt 0.8550 0.0145 0.0000
vt 0.8550 0.8334 0.0000
vt 0.9919 0.4842 0.0000
vt 0.8874 0.4842 0.0000
vt 0.8874 0.9880 0.0000
vt 0.9919 0.9880 0.0000
vt 0.8874 0.0058 0.0000
vt 0.9919 0.0058 0.0000
# 14 texture coords

g base0
usemtl Material__2
s 1
f 137/85/63 138/86/64 139/87/64 
f 139/87/64 140/88/63 137/85/63 
f 141/89/65 142/90/65 143/91/66 
f 143/91/66 144/92/67 141/89/65 
s 4
f 139/93/68 141/94/68 144/95/68 
f 144/95/68 140/96/68 139/93/68 
s 1
f 140/93/63 144/94/67 143/97/66 
f 143/97/66 137/98/63 140/93/63 
s 4
f 137/96/69 143/95/69 142/94/70 
f 142/94/70 138/93/70 137/96/69 
s 1
f 139/93/64 138/98/64 142/97/65 
f 142/97/65 141/94/65 139/93/64 
# 12 faces

