# 3ds Max Wavefront OBJ Exporter v0.97b - (c)2007 guruware
# File Created: 02.03.2021 15:48:29

mtllib 波希米亚_组合柜+餐桌模型贴图提交\橱柜\西域橱柜\western_cabinet.mtl

#
# object base0
#

v  100.0000 0.0000 -0.0000
v  100.0000 -0.0000 -100.0000
v  100.0000 100.0002 -100.0000
v  100.0000 100.0002 -0.0000
v  0.0000 -0.0000 -100.0000
v  0.0001 100.0002 -100.0000
v  0.0000 0.0000 -0.0000
v  0.0001 100.0002 -0.0000
v  56.7274 84.3429 0.0000
v  55.4791 85.9523 0.0000
v  55.4791 85.9523 2.3546
v  56.7274 84.3429 2.3546
v  50.0000 86.8062 0.0000
v  50.0000 86.8062 2.3546
v  44.5209 85.9523 0.0000
v  44.5209 85.9523 2.3546
v  43.2726 84.3429 0.0000
v  43.2726 84.3429 2.3546
v  44.5209 82.7336 0.0000
v  44.5209 82.7336 2.3546
v  50.0000 81.8796 0.0000
v  50.0000 81.8796 2.3546
v  55.4791 82.7336 0.0000
v  55.4791 82.7336 2.3546
v  56.7274 34.3820 0.0000
v  55.4791 35.9914 0.0000
v  55.4791 35.9914 2.3546
v  56.7274 34.3820 2.3546
v  50.0000 36.8453 0.0000
v  50.0000 36.8453 2.3546
v  44.5209 35.9914 0.0000
v  44.5209 35.9914 2.3546
v  43.2726 34.3820 0.0000
v  43.2726 34.3820 2.3546
v  44.5209 32.7727 0.0000
v  44.5209 32.7727 2.3546
v  50.0000 31.9188 0.0000
v  50.0000 31.9188 2.3546
v  55.4791 32.7727 0.0000
v  55.4791 32.7727 2.3546
v  56.7274 84.3429 -100.0000
v  56.7274 84.3429 -102.3546
v  55.4791 85.9523 -102.3546
v  55.4791 85.9523 -100.0000
v  50.0000 86.8062 -102.3546
v  50.0000 86.8062 -100.0000
v  44.5209 85.9523 -102.3546
v  44.5209 85.9523 -100.0000
v  43.2726 84.3429 -102.3546
v  43.2726 84.3429 -100.0000
v  44.5209 82.7336 -102.3546
v  44.5209 82.7336 -100.0000
v  50.0000 81.8796 -102.3546
v  50.0000 81.8796 -100.0000
v  55.4791 82.7336 -102.3546
v  55.4791 82.7336 -100.0000
v  56.7274 34.3820 -100.0000
v  56.7274 34.3820 -102.3546
v  55.4791 35.9914 -102.3546
v  55.4791 35.9914 -100.0000
v  50.0000 36.8453 -102.3546
v  50.0000 36.8453 -100.0000
v  44.5209 35.9914 -102.3546
v  44.5209 35.9914 -100.0000
v  43.2726 34.3820 -102.3546
v  43.2726 34.3820 -100.0000
v  44.5209 32.7727 -102.3546
v  44.5209 32.7727 -100.0000
v  50.0000 31.9188 -102.3546
v  50.0000 31.9188 -100.0000
v  55.4791 32.7727 -102.3546
v  55.4791 32.7727 -100.0000
# 72 vertices

vn 1.0000 0.0000 -0.0000
vn 0.0000 0.0000 -1.0000
vn 0.0000 -1.0000 0.0000
vn 0.0000 0.0000 1.0000
vn -1.0000 0.0000 -0.0000
vn 0.0000 1.0000 -0.0000
vn 1.0000 -0.0000 -0.0000
vn 0.5080 0.8614 -0.0000
vn -0.0000 1.0000 -0.0000
vn -0.5080 0.8614 -0.0000
vn -1.0000 -0.0000 -0.0000
vn -0.5080 -0.8614 -0.0000
vn 0.0000 -1.0000 -0.0000
vn 0.5080 -0.8614 -0.0000
vn 0.0000 -0.0000 1.0000
vn -0.0000 -0.0000 1.0000
vn -0.0000 -1.0000 -0.0000
vn -0.0000 -0.0000 -1.0000
vn 0.0000 -0.0000 -1.0000
# 19 vertex normals

vt 0.9919 0.5073 0.0000
vt 0.5066 0.5073 0.0000
vt 0.5066 0.9926 0.0000
vt 0.9919 0.9926 0.0000
vt 0.0073 0.0073 0.0000
vt 0.0073 0.4927 0.0000
vt 0.4927 0.4927 0.0000
vt 0.4927 0.0073 0.0000
vt 0.6227 0.0073 0.0000
vt 0.6227 0.3766 0.0000
vt 0.9919 0.3766 0.0000
vt 0.9919 0.0073 0.0000
vt 0.9920 0.5073 0.0000
vt 0.9920 0.9926 0.0000
vt 0.4927 0.5073 0.0000
vt 0.4927 0.9926 0.0000
vt 0.0073 0.9926 0.0000
vt 0.0073 0.5073 0.0000
vt 0.7496 0.4282 1.0000
vt 0.7831 0.4282 1.0000
vt 0.7831 0.4677 1.0000
vt 0.7496 0.4677 1.0000
vt 0.8684 0.4282 1.0000
vt 0.8684 0.4677 1.0000
vt 0.7161 0.4282 1.0000
vt 0.7161 0.4677 1.0000
vt 0.6308 0.4282 1.0000
vt 0.6308 0.4677 1.0000
vt 0.5587 0.4850 0.2500
vt 0.5292 0.4457 0.2500
vt 0.5882 0.4457 0.2500
vt 0.5169 0.3511 0.2500
vt 0.6004 0.3511 0.2500
# 33 texture coords

g base0
usemtl Material__1
s 1
f 1/1/1 2/2/1 3/3/1 
f 3/3/1 4/4/1 1/1/1 
s 4
f 5/5/2 6/6/2 3/7/2 
f 3/7/2 2/8/2 5/5/2 
s 2
f 7/9/3 5/10/3 2/11/3 
f 2/11/3 1/12/3 7/9/3 
s 4
f 7/5/4 1/8/4 4/7/4 
f 4/7/4 8/6/4 7/5/4 
s 1
f 6/3/5 5/2/5 7/13/5 
f 7/13/5 8/14/5 6/3/5 
s 2
f 3/15/6 6/16/6 8/17/6 
f 8/17/6 4/18/6 3/15/6 
s 1
f 9/19/7 10/20/8 11/21/8 
f 11/21/8 12/22/1 9/19/7 
f 10/20/8 13/23/9 14/24/6 
f 14/24/6 11/21/8 10/20/8 
f 13/23/9 15/20/10 16/21/10 
f 16/21/10 14/24/6 13/23/9 
f 15/20/10 17/19/11 18/22/5 
f 18/22/5 16/21/10 15/20/10 
f 17/19/11 19/25/12 20/26/12 
f 20/26/12 18/22/5 17/19/11 
f 19/25/12 21/27/13 22/28/13 
f 22/28/13 20/26/12 19/25/12 
f 21/27/13 23/25/14 24/26/14 
f 24/26/14 22/28/13 21/27/13 
f 23/25/14 9/19/7 12/22/1 
f 12/22/1 24/26/14 23/25/14 
s 4
f 12/29/15 11/30/15 24/31/15 
f 16/30/15 18/29/15 20/31/15 
f 14/32/16 22/33/16 24/31/15 
f 24/31/15 11/30/15 14/32/16 
f 16/30/15 20/31/15 22/33/16 
f 22/33/16 14/32/16 16/30/15 
s 1
f 25/19/7 26/20/8 27/21/8 
f 27/21/8 28/22/1 25/19/7 
f 26/20/8 29/23/9 30/24/6 
f 30/24/6 27/21/8 26/20/8 
f 29/23/9 31/20/10 32/21/10 
f 32/21/10 30/24/6 29/23/9 
f 31/20/10 33/19/11 34/22/5 
f 34/22/5 32/21/10 31/20/10 
f 33/19/11 35/25/12 36/26/12 
f 36/26/12 34/22/5 33/19/11 
f 35/25/12 37/27/13 38/28/13 
f 38/28/13 36/26/12 35/25/12 
f 37/27/13 39/25/14 40/26/14 
f 40/26/14 38/28/13 37/27/13 
f 39/25/14 25/19/7 28/22/1 
f 28/22/1 40/26/14 39/25/14 
s 4
f 28/29/15 27/30/15 40/31/15 
f 32/30/15 34/29/15 36/31/15 
f 30/32/16 38/33/16 40/31/15 
f 40/31/15 27/30/15 30/32/16 
f 32/30/15 36/31/15 38/33/16 
f 38/33/16 30/32/16 32/30/15 
s 1
f 41/19/7 42/22/1 43/21/8 
f 43/21/8 44/20/8 41/19/7 
f 44/20/8 43/21/8 45/24/6 
f 45/24/6 46/23/9 44/20/8 
f 46/23/9 45/24/6 47/21/10 
f 47/21/10 48/20/10 46/23/9 
f 48/20/10 47/21/10 49/22/11 
f 49/22/11 50/19/5 48/20/10 
f 50/19/5 49/22/11 51/26/12 
f 51/26/12 52/25/12 50/19/5 
f 52/25/12 51/26/12 53/28/17 
f 53/28/17 54/27/13 52/25/12 
f 54/27/13 53/28/17 55/26/14 
f 55/26/14 56/25/14 54/27/13 
f 56/25/14 55/26/14 42/22/1 
f 42/22/1 41/19/7 56/25/14 
s 4
f 42/29/2 55/31/18 43/30/2 
f 47/30/19 51/31/2 49/29/2 
f 45/32/18 43/30/2 55/31/18 
f 55/31/18 53/33/18 45/32/18 
f 47/30/19 45/32/18 53/33/18 
f 53/33/18 51/31/2 47/30/19 
s 1
f 57/19/7 58/22/1 59/21/8 
f 59/21/8 60/20/8 57/19/7 
f 60/20/8 59/21/8 61/24/6 
f 61/24/6 62/23/9 60/20/8 
f 62/23/9 61/24/6 63/21/10 
f 63/21/10 64/20/10 62/23/9 
f 64/20/10 63/21/10 65/22/11 
f 65/22/11 66/19/5 64/20/10 
f 66/19/5 65/22/11 67/26/12 
f 67/26/12 68/25/12 66/19/5 
f 68/25/12 67/26/12 69/28/17 
f 69/28/17 70/27/13 68/25/12 
f 70/27/13 69/28/17 71/26/14 
f 71/26/14 72/25/14 70/27/13 
f 72/25/14 71/26/14 58/22/1 
f 58/22/1 57/19/7 72/25/14 
s 4
f 58/29/2 71/31/18 59/30/2 
f 63/30/19 67/31/2 65/29/2 
f 61/32/18 59/30/2 71/31/18 
f 71/31/18 69/33/18 61/32/18 
f 63/30/19 61/32/18 69/33/18 
f 69/33/18 67/31/2 63/30/19 
# 100 faces

#
# object base1
#

v  100.0000 0.0000 -0.0000
v  100.0000 -0.0000 -100.0000
v  100.0000 100.0002 -100.0000
v  100.0000 100.0002 -0.0000
v  0.0000 -0.0000 -100.0000
v  0.0001 100.0002 -100.0000
v  0.0000 0.0000 -0.0000
v  0.0001 100.0002 -0.0000
v  56.7274 84.3429 0.0000
v  55.4791 85.9523 0.0000
v  55.4791 85.9523 2.3546
v  56.7274 84.3429 2.3546
v  50.0000 86.8062 0.0000
v  50.0000 86.8062 2.3546
v  44.5209 85.9523 0.0000
v  44.5209 85.9523 2.3546
v  43.2726 84.3429 0.0000
v  43.2726 84.3429 2.3546
v  44.5209 82.7336 0.0000
v  44.5209 82.7336 2.3546
v  50.0000 81.8796 0.0000
v  50.0000 81.8796 2.3546
v  55.4791 82.7336 0.0000
v  55.4791 82.7336 2.3546
v  56.7274 34.3820 0.0000
v  55.4791 35.9914 0.0000
v  55.4791 35.9914 2.3546
v  56.7274 34.3820 2.3546
v  50.0000 36.8453 0.0000
v  50.0000 36.8453 2.3546
v  44.5209 35.9914 0.0000
v  44.5209 35.9914 2.3546
v  43.2726 34.3820 0.0000
v  43.2726 34.3820 2.3546
v  44.5209 32.7727 0.0000
v  44.5209 32.7727 2.3546
v  50.0000 31.9188 0.0000
v  50.0000 31.9188 2.3546
v  55.4791 32.7727 0.0000
v  55.4791 32.7727 2.3546
v  56.7274 84.3429 -100.0000
v  56.7274 84.3429 -102.3546
v  55.4791 85.9523 -102.3546
v  55.4791 85.9523 -100.0000
v  50.0000 86.8062 -102.3546
v  50.0000 86.8062 -100.0000
v  44.5209 85.9523 -102.3546
v  44.5209 85.9523 -100.0000
v  43.2726 84.3429 -102.3546
v  43.2726 84.3429 -100.0000
v  44.5209 82.7336 -102.3546
v  44.5209 82.7336 -100.0000
v  50.0000 81.8796 -102.3546
v  50.0000 81.8796 -100.0000
v  55.4791 82.7336 -102.3546
v  55.4791 82.7336 -100.0000
v  56.7274 34.3820 -100.0000
v  56.7274 34.3820 -102.3546
v  55.4791 35.9914 -102.3546
v  55.4791 35.9914 -100.0000
v  50.0000 36.8453 -102.3546
v  50.0000 36.8453 -100.0000
v  44.5209 35.9914 -102.3546
v  44.5209 35.9914 -100.0000
v  43.2726 34.3820 -102.3546
v  43.2726 34.3820 -100.0000
v  44.5209 32.7727 -102.3546
v  44.5209 32.7727 -100.0000
v  50.0000 31.9188 -102.3546
v  50.0000 31.9188 -100.0000
v  55.4791 32.7727 -102.3546
v  55.4791 32.7727 -100.0000
# 72 vertices

vn 1.0000 0.0000 -0.0000
vn 0.0000 0.0000 -1.0000
vn 0.0000 -1.0000 0.0000
vn 0.0000 0.0000 1.0000
vn 0.0000 1.0000 -0.0000
vn 1.0000 -0.0000 -0.0000
vn 0.5080 0.8614 -0.0000
vn -0.0000 1.0000 -0.0000
vn -0.5080 0.8614 -0.0000
vn -1.0000 -0.0000 -0.0000
vn -1.0000 0.0000 -0.0000
vn -0.5080 -0.8614 -0.0000
vn 0.0000 -1.0000 -0.0000
vn 0.5080 -0.8614 -0.0000
vn 0.0000 -0.0000 1.0000
vn -0.0000 -0.0000 1.0000
vn -0.0000 -1.0000 -0.0000
vn -0.0000 -0.0000 -1.0000
vn 0.0000 -0.0000 -1.0000
# 19 vertex normals

vt 0.9919 0.5073 0.0000
vt 0.5066 0.5073 0.0000
vt 0.5066 0.9926 0.0000
vt 0.9919 0.9926 0.0000
vt 0.0073 0.0073 0.0000
vt 0.0073 0.4927 0.0000
vt 0.4927 0.4927 0.0000
vt 0.4927 0.0073 0.0000
vt 0.6227 0.0073 0.0000
vt 0.6227 0.3766 0.0000
vt 0.9919 0.3766 0.0000
vt 0.9919 0.0073 0.0000
vt 0.4927 0.5073 0.0000
vt 0.4927 0.9804 0.0000
vt 0.0073 0.9804 0.0000
vt 0.0073 0.5073 0.0000
vt 0.7496 0.4282 1.0000
vt 0.7831 0.4282 1.0000
vt 0.7831 0.4677 1.0000
vt 0.7496 0.4677 1.0000
vt 0.8684 0.4282 1.0000
vt 0.8684 0.4677 1.0000
vt 0.7161 0.4282 1.0000
vt 0.7161 0.4677 1.0000
vt 0.6308 0.4282 1.0000
vt 0.6308 0.4677 1.0000
vt 0.5587 0.4850 0.2500
vt 0.5292 0.4457 0.2500
vt 0.5882 0.4457 0.2500
vt 0.5169 0.3511 0.2500
vt 0.6004 0.3511 0.2500
# 31 texture coords

g base1
usemtl Material__1
s 1
f 73/34/20 74/35/20 75/36/20 
f 75/36/20 76/37/20 73/34/20 
s 4
f 77/38/21 78/39/21 75/40/21 
f 75/40/21 74/41/21 77/38/21 
s 2
f 79/42/22 77/43/22 74/44/22 
f 74/44/22 73/45/22 79/42/22 
s 4
f 79/38/23 73/41/23 76/40/23 
f 76/40/23 80/39/23 79/38/23 
s 2
f 75/46/24 78/47/24 80/48/24 
f 80/48/24 76/49/24 75/46/24 
s 1
f 81/50/25 82/51/26 83/52/26 
f 83/52/26 84/53/20 81/50/25 
f 82/51/26 85/54/27 86/55/24 
f 86/55/24 83/52/26 82/51/26 
f 85/54/27 87/51/28 88/52/28 
f 88/52/28 86/55/24 85/54/27 
f 87/51/28 89/50/29 90/53/30 
f 90/53/30 88/52/28 87/51/28 
f 89/50/29 91/56/31 92/57/31 
f 92/57/31 90/53/30 89/50/29 
f 91/56/31 93/58/32 94/59/32 
f 94/59/32 92/57/31 91/56/31 
f 93/58/32 95/56/33 96/57/33 
f 96/57/33 94/59/32 93/58/32 
f 95/56/33 81/50/25 84/53/20 
f 84/53/20 96/57/33 95/56/33 
s 4
f 84/60/34 83/61/34 96/62/34 
f 88/61/34 90/60/34 92/62/34 
f 86/63/35 94/64/35 96/62/34 
f 96/62/34 83/61/34 86/63/35 
f 88/61/34 92/62/34 94/64/35 
f 94/64/35 86/63/35 88/61/34 
s 1
f 97/50/25 98/51/26 99/52/26 
f 99/52/26 100/53/20 97/50/25 
f 98/51/26 101/54/27 102/55/24 
f 102/55/24 99/52/26 98/51/26 
f 101/54/27 103/51/28 104/52/28 
f 104/52/28 102/55/24 101/54/27 
f 103/51/28 105/50/29 106/53/30 
f 106/53/30 104/52/28 103/51/28 
f 105/50/29 107/56/31 108/57/31 
f 108/57/31 106/53/30 105/50/29 
f 107/56/31 109/58/32 110/59/32 
f 110/59/32 108/57/31 107/56/31 
f 109/58/32 111/56/33 112/57/33 
f 112/57/33 110/59/32 109/58/32 
f 111/56/33 97/50/25 100/53/20 
f 100/53/20 112/57/33 111/56/33 
s 4
f 100/60/34 99/61/34 112/62/34 
f 104/61/34 106/60/34 108/62/34 
f 102/63/35 110/64/35 112/62/34 
f 112/62/34 99/61/34 102/63/35 
f 104/61/34 108/62/34 110/64/35 
f 110/64/35 102/63/35 104/61/34 
s 1
f 113/50/25 114/53/20 115/52/26 
f 115/52/26 116/51/26 113/50/25 
f 116/51/26 115/52/26 117/55/24 
f 117/55/24 118/54/27 116/51/26 
f 118/54/27 117/55/24 119/52/28 
f 119/52/28 120/51/28 118/54/27 
f 120/51/28 119/52/28 121/53/29 
f 121/53/29 122/50/30 120/51/28 
f 122/50/30 121/53/29 123/57/31 
f 123/57/31 124/56/31 122/50/30 
f 124/56/31 123/57/31 125/59/36 
f 125/59/36 126/58/32 124/56/31 
f 126/58/32 125/59/36 127/57/33 
f 127/57/33 128/56/33 126/58/32 
f 128/56/33 127/57/33 114/53/20 
f 114/53/20 113/50/25 128/56/33 
s 4
f 114/60/21 127/62/37 115/61/21 
f 119/61/38 123/62/21 121/60/21 
f 117/63/37 115/61/21 127/62/37 
f 127/62/37 125/64/37 117/63/37 
f 119/61/38 117/63/37 125/64/37 
f 125/64/37 123/62/21 119/61/38 
s 1
f 129/50/25 130/53/20 131/52/26 
f 131/52/26 132/51/26 129/50/25 
f 132/51/26 131/52/26 133/55/24 
f 133/55/24 134/54/27 132/51/26 
f 134/54/27 133/55/24 135/52/28 
f 135/52/28 136/51/28 134/54/27 
f 136/51/28 135/52/28 137/53/29 
f 137/53/29 138/50/30 136/51/28 
f 138/50/30 137/53/29 139/57/31 
f 139/57/31 140/56/31 138/50/30 
f 140/56/31 139/57/31 141/59/36 
f 141/59/36 142/58/32 140/56/31 
f 142/58/32 141/59/36 143/57/33 
f 143/57/33 144/56/33 142/58/32 
f 144/56/33 143/57/33 130/53/20 
f 130/53/20 129/50/25 144/56/33 
s 4
f 130/60/21 143/62/37 131/61/21 
f 135/61/38 139/62/21 137/60/21 
f 133/63/37 131/61/21 143/62/37 
f 143/62/37 141/64/37 133/63/37 
f 135/61/38 133/63/37 141/64/37 
f 141/64/37 139/62/21 135/61/38 
# 98 faces

#
# object base2
#

v  0.0000 -0.0000 -100.0000
v  0.0001 100.0002 -100.0000
v  100.0000 100.0002 -100.0000
v  100.0000 -0.0000 -100.0000
v  0.0000 0.0000 -0.0000
v  100.0000 0.0000 -0.0000
v  100.0000 100.0002 -0.0000
v  0.0001 100.0002 -0.0000
v  56.7274 84.3429 0.0000
v  55.4791 85.9523 0.0000
v  55.4791 85.9523 2.3546
v  56.7274 84.3429 2.3546
v  50.0000 86.8062 0.0000
v  50.0000 86.8062 2.3546
v  44.5209 85.9523 0.0000
v  44.5209 85.9523 2.3546
v  43.2726 84.3429 0.0000
v  43.2726 84.3429 2.3546
v  44.5209 82.7336 0.0000
v  44.5209 82.7336 2.3546
v  50.0000 81.8796 0.0000
v  50.0000 81.8796 2.3546
v  55.4791 82.7336 0.0000
v  55.4791 82.7336 2.3546
v  56.7274 34.3820 0.0000
v  55.4791 35.9914 0.0000
v  55.4791 35.9914 2.3546
v  56.7274 34.3820 2.3546
v  50.0000 36.8453 0.0000
v  50.0000 36.8453 2.3546
v  44.5209 35.9914 0.0000
v  44.5209 35.9914 2.3546
v  43.2726 34.3820 0.0000
v  43.2726 34.3820 2.3546
v  44.5209 32.7727 0.0000
v  44.5209 32.7727 2.3546
v  50.0000 31.9188 0.0000
v  50.0000 31.9188 2.3546
v  55.4791 32.7727 0.0000
v  55.4791 32.7727 2.3546
v  56.7274 84.3429 -100.0000
v  56.7274 84.3429 -102.3546
v  55.4791 85.9523 -102.3546
v  55.4791 85.9523 -100.0000
v  50.0000 86.8062 -102.3546
v  50.0000 86.8062 -100.0000
v  44.5209 85.9523 -102.3546
v  44.5209 85.9523 -100.0000
v  43.2726 84.3429 -102.3546
v  43.2726 84.3429 -100.0000
v  44.5209 82.7336 -102.3546
v  44.5209 82.7336 -100.0000
v  50.0000 81.8796 -102.3546
v  50.0000 81.8796 -100.0000
v  55.4791 82.7336 -102.3546
v  55.4791 82.7336 -100.0000
v  56.7274 34.3820 -100.0000
v  56.7274 34.3820 -102.3546
v  55.4791 35.9914 -102.3546
v  55.4791 35.9914 -100.0000
v  50.0000 36.8453 -102.3546
v  50.0000 36.8453 -100.0000
v  44.5209 35.9914 -102.3546
v  44.5209 35.9914 -100.0000
v  43.2726 34.3820 -102.3546
v  43.2726 34.3820 -100.0000
v  44.5209 32.7727 -102.3546
v  44.5209 32.7727 -100.0000
v  50.0000 31.9188 -102.3546
v  50.0000 31.9188 -100.0000
v  55.4791 32.7727 -102.3546
v  55.4791 32.7727 -100.0000
# 72 vertices

vn 0.0000 0.0000 -1.0000
vn 0.0000 -1.0000 0.0000
vn 0.0000 0.0000 1.0000
vn 0.0000 1.0000 -0.0000
vn 1.0000 -0.0000 -0.0000
vn 0.5080 0.8614 -0.0000
vn 1.0000 0.0000 -0.0000
vn -0.0000 1.0000 -0.0000
vn -0.5080 0.8614 -0.0000
vn -1.0000 -0.0000 -0.0000
vn -1.0000 0.0000 -0.0000
vn -0.5080 -0.8614 -0.0000
vn 0.0000 -1.0000 -0.0000
vn 0.5080 -0.8614 -0.0000
vn 0.0000 -0.0000 1.0000
vn -0.0000 -0.0000 1.0000
vn -0.0000 -1.0000 -0.0000
vn -0.0000 -0.0000 -1.0000
vn 0.0000 -0.0000 -1.0000
# 19 vertex normals

vt 0.0073 0.0073 0.0000
vt 0.0073 0.4927 0.0000
vt 0.4927 0.4927 0.0000
vt 0.4927 0.0073 0.0000
vt 0.6227 0.0073 0.0000
vt 0.6227 0.3766 0.0000
vt 0.9919 0.3766 0.0000
vt 0.9919 0.0073 0.0000
vt 0.4927 0.5195 0.0000
vt 0.4927 0.9804 0.0000
vt 0.0073 0.9804 0.0000
vt 0.0073 0.5195 0.0000
vt 0.7496 0.4282 1.0000
vt 0.7831 0.4282 1.0000
vt 0.7831 0.4677 1.0000
vt 0.7496 0.4677 1.0000
vt 0.8684 0.4282 1.0000
vt 0.8684 0.4677 1.0000
vt 0.7161 0.4282 1.0000
vt 0.7161 0.4677 1.0000
vt 0.6308 0.4282 1.0000
vt 0.6308 0.4677 1.0000
vt 0.5587 0.4850 0.2500
vt 0.5292 0.4457 0.2500
vt 0.5882 0.4457 0.2500
vt 0.5169 0.3511 0.2500
vt 0.6004 0.3511 0.2500
# 27 texture coords

g base2
usemtl Material__1
s 4
f 145/65/39 146/66/39 147/67/39 
f 147/67/39 148/68/39 145/65/39 
s 2
f 149/69/40 145/70/40 148/71/40 
f 148/71/40 150/72/40 149/69/40 
s 4
f 149/65/41 150/68/41 151/67/41 
f 151/67/41 152/66/41 149/65/41 
s 2
f 147/73/42 146/74/42 152/75/42 
f 152/75/42 151/76/42 147/73/42 
s 1
f 153/77/43 154/78/44 155/79/44 
f 155/79/44 156/80/45 153/77/43 
f 154/78/44 157/81/46 158/82/42 
f 158/82/42 155/79/44 154/78/44 
f 157/81/46 159/78/47 160/79/47 
f 160/79/47 158/82/42 157/81/46 
f 159/78/47 161/77/48 162/80/49 
f 162/80/49 160/79/47 159/78/47 
f 161/77/48 163/83/50 164/84/50 
f 164/84/50 162/80/49 161/77/48 
f 163/83/50 165/85/51 166/86/51 
f 166/86/51 164/84/50 163/83/50 
f 165/85/51 167/83/52 168/84/52 
f 168/84/52 166/86/51 165/85/51 
f 167/83/52 153/77/43 156/80/45 
f 156/80/45 168/84/52 167/83/52 
s 4
f 156/87/53 155/88/53 168/89/53 
f 160/88/53 162/87/53 164/89/53 
f 158/90/54 166/91/54 168/89/53 
f 168/89/53 155/88/53 158/90/54 
f 160/88/53 164/89/53 166/91/54 
f 166/91/54 158/90/54 160/88/53 
s 1
f 169/77/43 170/78/44 171/79/44 
f 171/79/44 172/80/45 169/77/43 
f 170/78/44 173/81/46 174/82/42 
f 174/82/42 171/79/44 170/78/44 
f 173/81/46 175/78/47 176/79/47 
f 176/79/47 174/82/42 173/81/46 
f 175/78/47 177/77/48 178/80/49 
f 178/80/49 176/79/47 175/78/47 
f 177/77/48 179/83/50 180/84/50 
f 180/84/50 178/80/49 177/77/48 
f 179/83/50 181/85/51 182/86/51 
f 182/86/51 180/84/50 179/83/50 
f 181/85/51 183/83/52 184/84/52 
f 184/84/52 182/86/51 181/85/51 
f 183/83/52 169/77/43 172/80/45 
f 172/80/45 184/84/52 183/83/52 
s 4
f 172/87/53 171/88/53 184/89/53 
f 176/88/53 178/87/53 180/89/53 
f 174/90/54 182/91/54 184/89/53 
f 184/89/53 171/88/53 174/90/54 
f 176/88/53 180/89/53 182/91/54 
f 182/91/54 174/90/54 176/88/53 
s 1
f 185/77/43 186/80/45 187/79/44 
f 187/79/44 188/78/44 185/77/43 
f 188/78/44 187/79/44 189/82/42 
f 189/82/42 190/81/46 188/78/44 
f 190/81/46 189/82/42 191/79/47 
f 191/79/47 192/78/47 190/81/46 
f 192/78/47 191/79/47 193/80/48 
f 193/80/48 194/77/49 192/78/47 
f 194/77/49 193/80/48 195/84/50 
f 195/84/50 196/83/50 194/77/49 
f 196/83/50 195/84/50 197/86/55 
f 197/86/55 198/85/51 196/83/50 
f 198/85/51 197/86/55 199/84/52 
f 199/84/52 200/83/52 198/85/51 
f 200/83/52 199/84/52 186/80/45 
f 186/80/45 185/77/43 200/83/52 
s 4
f 186/87/39 199/89/56 187/88/39 
f 191/88/57 195/89/39 193/87/39 
f 189/90/56 187/88/39 199/89/56 
f 199/89/56 197/91/56 189/90/56 
f 191/88/57 189/90/56 197/91/56 
f 197/91/56 195/89/39 191/88/57 
s 1
f 201/77/43 202/80/45 203/79/44 
f 203/79/44 204/78/44 201/77/43 
f 204/78/44 203/79/44 205/82/42 
f 205/82/42 206/81/46 204/78/44 
f 206/81/46 205/82/42 207/79/47 
f 207/79/47 208/78/47 206/81/46 
f 208/78/47 207/79/47 209/80/48 
f 209/80/48 210/77/49 208/78/47 
f 210/77/49 209/80/48 211/84/50 
f 211/84/50 212/83/50 210/77/49 
f 212/83/50 211/84/50 213/86/55 
f 213/86/55 214/85/51 212/83/50 
f 214/85/51 213/86/55 215/84/52 
f 215/84/52 216/83/52 214/85/51 
f 216/83/52 215/84/52 202/80/45 
f 202/80/45 201/77/43 216/83/52 
s 4
f 202/87/39 215/89/56 203/88/39 
f 207/88/57 211/89/39 209/87/39 
f 205/90/56 203/88/39 215/89/56 
f 215/89/56 213/91/56 205/90/56 
f 207/88/57 205/90/56 213/91/56 
f 213/91/56 211/89/39 207/88/57 
# 96 faces

