# 3ds Max Wavefront OBJ Exporter v0.97b - (c)2007 guruware
# File Created: 05.03.2021 17:37:34

mtllib western_toilet.mtl

#
# object base
#

v  78.0686 15.0615 -68.1060
v  77.4512 14.9654 -44.0396
v  73.5788 -0.0000 -47.4976
v  73.7932 -0.0000 -68.1060
v  65.6518 14.9350 -18.7219
v  50.0000 14.9341 -16.9537
v  50.0000 -0.0000 -24.8015
v  63.8268 -0.0000 -25.8877
v  81.4070 30.5255 -68.1060
v  81.0701 30.5255 -41.3786
v  67.7810 30.5255 -12.4273
v  50.0000 30.5255 -10.6063
v  72.0894 -0.0000 -34.4444
v  75.1276 14.9405 -28.4533
v  77.8094 30.5255 -23.3728
v  84.8345 42.1147 -70.7829
v  85.0619 42.1147 -40.5066
v  85.0619 30.5255 -40.5066
v  84.8345 30.5255 -70.7829
v  81.3102 42.1147 -21.5203
v  81.3102 30.5255 -21.5203
v  69.0690 42.1147 -8.5783
v  69.0690 30.5255 -8.5783
v  50.0000 42.1147 -6.3730
v  50.0000 30.5255 -6.3730
v  77.8237 42.1147 -61.2831
v  77.9483 42.1147 -41.6278
v  15.1655 42.1147 -70.7829
v  22.1763 42.1147 -61.2831
v  65.4604 42.1147 -17.5103
v  50.0000 42.1147 -15.9709
v  75.0791 42.1147 -27.0188
v  77.8237 38.0474 -61.2831
v  77.9483 38.0474 -41.6278
v  65.4604 38.0474 -17.5103
v  50.0000 38.0474 -15.9709
v  75.0791 38.0474 -27.0188
v  79.3053 36.1496 -63.0456
v  79.4491 36.1496 -41.3899
v  66.1548 36.1496 -15.8945
v  50.0000 36.1496 -13.7418
v  76.3935 36.1496 -26.0158
v  79.3053 32.3748 -63.0456
v  79.4491 32.3748 -41.3899
v  76.3935 32.3748 -26.0158
v  66.1548 32.3748 -15.8945
v  72.9353 18.8884 -58.9864
v  73.0494 18.8884 -41.3779
v  70.6243 18.8884 -29.3812
v  62.4986 18.8884 -21.9863
v  50.0000 16.0770 -40.0658
v  50.0000 18.8884 -58.9864
v  26.2068 -0.0000 -68.1060
v  21.9314 15.0615 -68.1060
v  15.1655 30.5255 -70.7829
v  18.5930 30.5255 -68.1060
v  50.0000 18.8884 -21.1756
v  50.0000 32.3748 -13.7418
v  26.4212 -0.0000 -47.4976
v  22.5488 14.9654 -44.0396
v  34.3482 14.9350 -18.7219
v  36.1732 -0.0000 -25.8877
v  18.9299 30.5255 -41.3786
v  32.2190 30.5255 -12.4273
v  24.8724 14.9405 -28.4533
v  27.9106 -0.0000 -34.4444
v  22.1906 30.5255 -23.3728
v  14.9381 30.5255 -40.5066
v  14.9381 42.1147 -40.5066
v  18.6898 30.5255 -21.5202
v  18.6898 42.1147 -21.5203
v  30.9310 30.5255 -8.5783
v  30.9310 42.1147 -8.5783
v  22.0517 42.1147 -41.6278
v  34.5396 42.1147 -17.5103
v  24.9209 42.1147 -27.0188
v  22.0517 38.0474 -41.6278
v  22.1763 38.0474 -61.2831
v  34.5396 38.0474 -17.5103
v  24.9209 38.0474 -27.0188
v  20.5509 36.1496 -41.3899
v  20.6947 36.1496 -63.0456
v  33.8452 36.1496 -15.8945
v  23.6065 36.1496 -26.0158
v  20.5509 32.3748 -41.3899
v  20.6947 32.3748 -63.0456
v  33.8452 32.3748 -15.8945
v  23.6065 32.3748 -26.0158
v  26.9506 18.8884 -41.3779
v  27.0647 18.8884 -58.9864
v  37.5014 18.8884 -21.9863
v  29.3757 18.8884 -29.3812
v  78.2126 26.7082 -100.0000
v  78.2126 26.7082 -70.5391
v  78.0686 -0.0000 -70.5391
v  78.0686 -0.0000 -100.0000
v  84.7900 87.0599 -70.5391
v  84.7900 54.0889 -70.5391
v  84.7900 54.0889 -100.0000
v  84.7900 87.0599 -100.0000
v  81.5510 26.7082 -100.0000
v  81.5510 54.0889 -100.0000
v  81.5510 54.0889 -70.5391
v  81.5510 26.7082 -70.5391
v  83.3145 -0.0000 -85.2696
v  83.3145 0.5766 -87.3976
v  83.3145 0.5766 -83.1415
v  75.0849 97.7297 -100.0000
v  75.0849 97.7297 -70.5391
v  83.3145 1.6402 -98.9840
v  83.3145 54.5320 -98.9840
v  83.3145 1.6402 -93.4982
v  83.3145 -0.0000 -96.2411
v  83.3145 0.5766 -98.3691
v  83.3145 0.5766 -94.1131
v  83.3145 -0.0000 -90.7553
v  83.3145 0.5766 -92.8833
v  83.3145 0.5766 -88.6273
v  83.3145 1.6402 -71.5551
v  83.3145 0.5766 -72.1700
v  83.3145 0.5766 -76.4260
v  83.3145 1.6402 -77.0409
v  83.3145 0.5766 -77.6558
v  83.3145 0.5766 -81.9118
v  83.3145 1.6402 -82.5267
v  83.3145 1.6402 -88.0124
v  83.3145 -0.0000 -74.2980
v  83.3145 -0.0000 -79.7838
v  83.3145 54.5320 -71.5551
v  21.7874 26.7082 -100.0000
v  21.9314 -0.0000 -100.0000
v  21.9314 -0.0000 -70.5391
v  21.7874 26.7082 -70.5391
v  15.2100 87.0599 -70.5391
v  15.2100 87.0599 -100.0000
v  15.2100 54.0889 -100.0000
v  15.2100 54.0889 -70.5391
v  18.4490 26.7082 -100.0000
v  18.4490 26.7082 -70.5391
v  18.4490 54.0889 -70.5391
v  18.4490 54.0889 -100.0000
v  24.9151 97.7297 -100.0000
v  24.9151 97.7297 -70.5391
v  16.6855 -0.0000 -85.2696
v  16.6855 0.5766 -83.1415
v  16.6855 0.5766 -87.3976
v  16.6855 1.6402 -98.9840
v  16.6855 1.6402 -93.4982
v  16.6855 54.5320 -98.9840
v  16.6855 -0.0000 -96.2411
v  16.6855 0.5766 -94.1131
v  16.6855 0.5766 -98.3691
v  16.6855 -0.0000 -90.7553
v  16.6855 0.5766 -88.6273
v  16.6855 0.5766 -92.8833
v  16.6855 1.6402 -71.5551
v  16.6855 1.6402 -77.0409
v  16.6855 0.5766 -76.4260
v  16.6855 0.5766 -72.1700
v  16.6855 1.6402 -82.5267
v  16.6855 0.5766 -81.9118
v  16.6855 0.5766 -77.6558
v  16.6855 1.6402 -88.0124
v  16.6855 -0.0000 -74.2980
v  16.6855 -0.0000 -79.7838
v  16.6855 54.5320 -71.5551
v  88.6157 67.9526 -85.3110
v  84.2768 67.9526 -85.1295
v  84.2768 64.5259 -86.3957
v  88.6157 64.6351 -86.5210
v  84.2768 63.1065 -89.6655
v  88.6157 63.2609 -89.6756
v  84.2768 64.5259 -93.0301
v  88.6157 64.6351 -92.9342
v  84.2768 67.9526 -94.5620
v  88.6157 67.9526 -94.4137
v  84.2768 71.3793 -93.3599
v  88.6157 71.2701 -93.2414
v  84.2768 72.7987 -90.0782
v  88.6157 72.6443 -90.0753
v  84.2768 71.3793 -86.6495
v  88.6157 71.2701 -86.7791
# 182 vertices

vn 0.7003 -0.1719 -0.6928
vn 0.9644 -0.2515 0.0819
vn 0.9630 -0.2613 0.0655
vn 0.6269 -0.1779 -0.7585
vn 0.4018 -0.4108 0.8184
vn 0.0000 -0.4226 0.9063
vn 0.0000 -0.4520 0.8920
vn 0.4009 -0.4365 0.8054
vn 0.7450 -0.1661 -0.6461
vn 0.9683 -0.2323 0.0923
vn 0.4068 -0.3869 0.8275
vn 0.0000 -0.3771 0.9262
vn 0.8786 -0.3206 0.3540
vn 0.8495 -0.3190 0.4203
vn 0.8365 -0.3014 0.4576
vn 0.5750 0.5777 -0.5793
vn 0.7253 0.6850 0.0682
vn 0.9956 0.0000 0.0936
vn 0.7044 0.0000 -0.7098
vn 0.6756 0.6496 0.3486
vn 0.8887 0.0000 0.4585
vn 0.3449 0.6376 0.6888
vn 0.4477 0.0000 0.8942
vn 0.0000 0.6821 0.7312
vn 0.0000 0.0000 1.0000
vn -0.0000 -1.0000 -0.0000
vn -0.0000 -1.0000 0.0000
vn -0.3017 0.9038 0.3036
vn -0.6801 0.7303 -0.0640
vn -0.5750 0.5777 -0.5793
vn 0.3017 0.9038 0.3036
vn -0.2606 0.7905 -0.5543
vn -0.0000 0.7301 -0.6833
vn -0.5517 0.7797 -0.2961
vn -0.7049 0.0000 0.7093
vn -0.9956 0.0000 -0.0937
vn -0.4254 0.0000 -0.9050
vn -0.0000 0.0000 -1.0000
vn -0.8811 0.0000 -0.4729
vn -0.7781 -0.6241 -0.0710
vn -0.4774 -0.7684 0.4262
vn -0.4401 -0.7711 0.4602
vn -0.7779 -0.6238 -0.0750
vn -0.0000 -0.7528 -0.6583
vn -0.3162 -0.6794 -0.6621
vn -0.3081 -0.6861 -0.6591
vn -0.0000 -0.7614 -0.6483
vn -0.6767 -0.6510 -0.3438
vn -0.6609 -0.6531 -0.3698
vn -0.9955 -0.0000 -0.0946
vn -0.7048 0.0000 0.7095
vn -0.6972 0.2256 0.6805
vn -0.9721 0.2159 -0.0913
vn -0.4404 -0.0000 -0.8978
vn -0.8806 -0.0000 -0.4739
vn -0.8586 0.2186 -0.4636
vn -0.4290 0.2251 -0.8748
vn -0.4437 0.7375 0.5091
vn -0.6028 0.7957 -0.0588
vn -0.5524 0.7759 -0.3046
vn -0.2491 0.7807 -0.5732
vn 0.0000 1.0000 -0.0058
vn -0.0000 0.7564 0.6541
vn -0.6269 -0.1779 -0.7585
vn -0.7003 -0.1719 -0.6928
vn -0.7044 0.0000 -0.7098
vn 0.0000 -1.0000 0.0000
vn -0.0000 0.8126 -0.5828
vn -0.0000 0.2315 -0.9728
vn -0.9630 -0.2613 0.0655
vn -0.9644 -0.2515 0.0819
vn -0.4018 -0.4108 0.8184
vn -0.4009 -0.4365 0.8054
vn -0.9683 -0.2323 0.0923
vn -0.7450 -0.1661 -0.6461
vn 0.0000 -1.0000 -0.0000
vn -0.4068 -0.3869 0.8275
vn -0.8495 -0.3190 0.4203
vn -0.8786 -0.3206 0.3540
vn -0.8365 -0.3014 0.4576
vn -0.9956 0.0000 0.0936
vn -0.7253 0.6850 0.0682
vn -0.8887 0.0000 0.4585
vn -0.6756 0.6496 0.3486
vn -0.4477 0.0000 0.8942
vn -0.3449 0.6376 0.6888
vn 0.6801 0.7303 -0.0640
vn 0.2606 0.7905 -0.5543
vn 0.5517 0.7797 -0.2961
vn 0.9956 0.0000 -0.0937
vn 0.7049 0.0000 0.7093
vn 0.4254 0.0000 -0.9050
vn 0.8811 0.0000 -0.4729
vn 0.7781 -0.6241 -0.0710
vn 0.7779 -0.6238 -0.0750
vn 0.4401 -0.7711 0.4602
vn 0.4774 -0.7684 0.4262
vn 0.3081 -0.6861 -0.6591
vn 0.3162 -0.6794 -0.6621
vn 0.6609 -0.6531 -0.3698
vn 0.6767 -0.6510 -0.3438
vn 0.9955 -0.0000 -0.0946
vn 0.9721 0.2159 -0.0913
vn 0.6972 0.2256 0.6805
vn 0.7048 0.0000 0.7095
vn 0.4404 -0.0000 -0.8978
vn 0.4290 0.2251 -0.8748
vn 0.8586 0.2186 -0.4636
vn 0.8806 -0.0000 -0.4739
vn 0.6028 0.7957 -0.0588
vn 0.4437 0.7375 0.5091
vn 0.2491 0.7807 -0.5732
vn 0.5524 0.7759 -0.3046
vn 1.0000 -0.0054 0.0000
vn 1.0000 -0.0054 -0.0000
vn 1.0000 0.0000 -0.0000
vn 0.0000 0.0000 -1.0000
vn 0.7398 0.6729 -0.0000
vn 0.4044 0.9146 -0.0000
vn -1.0000 -0.0054 0.0000
vn -1.0000 -0.0054 -0.0000
vn -1.0000 0.0000 -0.0000
vn -0.4044 0.9146 -0.0000
vn -0.7398 0.6729 -0.0000
vn 0.0407 0.0328 0.9986
vn 0.0415 0.0312 0.9986
vn 0.0393 -0.6857 0.7268
vn 0.0379 -0.6852 0.7274
vn 0.0359 -0.9993 0.0060
vn 0.0355 -0.9994 0.0053
vn 0.0335 -0.7145 -0.6989
vn 0.0337 -0.7137 -0.6996
vn 0.0339 -0.0409 -0.9986
vn 0.0347 -0.0407 -0.9986
vn 0.0365 0.6815 -0.7309
vn 0.0368 0.6818 -0.7306
vn 0.0359 0.9993 -0.0082
vn 0.0362 0.9993 -0.0077
vn 0.0382 0.7144 0.6987
vn 0.0391 0.7149 0.6981
# 140 vertex normals

vt 0.3710 0.1038 0.0000
vt 0.2547 0.1038 0.0000
vt 0.2547 0.0114 0.0000
vt 0.3710 0.0114 0.0000
vt 0.1017 0.1038 0.0000
vt 0.0142 0.1038 0.0000
vt 0.0142 0.0114 0.0000
vt 0.1017 0.0114 0.0000
vt 0.3710 0.2002 0.0000
vt 0.2547 0.2002 0.0000
vt 0.1017 0.2002 0.0000
vt 0.0142 0.2002 0.0000
vt 0.1751 0.0114 0.0000
vt 0.1751 0.1038 0.0000
vt 0.1751 0.2002 0.0000
vt 0.3710 0.2880 0.0000
vt 0.2547 0.2880 0.0000
vt 0.2547 0.2185 0.0000
vt 0.3710 0.2185 0.0000
vt 0.1751 0.2880 0.0000
vt 0.1751 0.2185 0.0000
vt 0.1017 0.2880 0.0000
vt 0.1017 0.2185 0.0000
vt 0.0142 0.2880 0.0000
vt 0.0142 0.2185 0.0000
vt 0.3710 0.3385 0.0000
vt 0.2547 0.3385 0.0000
vt 0.6791 0.3385 0.0000
vt 0.6791 0.2880 0.0000
vt 0.1017 0.3385 0.0000
vt 0.0142 0.3385 0.0000
vt 0.1751 0.3385 0.0000
vt 0.3710 0.3626 0.0000
vt 0.2547 0.3626 0.0000
vt 0.1017 0.3626 0.0000
vt 0.0142 0.3626 0.0000
vt 0.1751 0.3626 0.0000
vt 0.3710 0.3734 0.0000
vt 0.2547 0.3734 0.0000
vt 0.1017 0.3734 0.0000
vt 0.0145 0.3734 0.0000
vt 0.1751 0.3734 0.0000
vt 0.3710 0.4063 0.0000
vt 0.2547 0.4063 0.0000
vt 0.1751 0.4063 0.0000
vt 0.1017 0.4063 0.0000
vt 0.3710 0.4901 0.0000
vt 0.2547 0.4901 0.0000
vt 0.1751 0.4901 0.0000
vt 0.1017 0.4901 0.0000
vt 0.9870 0.1202 0.0000
vt 0.9875 0.0120 0.0000
vt 0.8235 0.1260 0.0000
vt 0.9111 0.2366 0.0000
vt 0.9690 0.1923 0.0000
vt 0.8235 0.0120 0.0000
vt 0.6791 0.1038 0.0000
vt 0.6791 0.0114 0.0000
vt 0.6791 0.2185 0.0000
vt 0.6791 0.2002 0.0000
vt 0.8235 0.2416 0.0000
vt 0.0145 0.4063 0.0000
vt 0.0146 0.4901 0.0000
vt 0.9037 0.3032 0.0000
vt 0.9075 0.2725 0.0000
vt 0.9075 0.3339 0.0000
vt 0.6791 0.3626 0.0000
vt 0.6791 0.3734 0.0000
vt 0.6791 0.4063 0.0000
vt 0.5250 0.4901 0.0000
vt 0.7956 0.0791 0.0000
vt 0.7135 0.0792 0.0000
vt 0.7135 0.0399 0.0000
vt 0.7956 0.0399 0.0000
vt 0.7135 0.2317 0.0000
vt 0.7135 0.1398 0.0000
vt 0.7956 0.1397 0.0000
vt 0.7956 0.2316 0.0000
vt 0.7956 0.0884 0.0000
vt 0.7956 0.1307 0.0000
vt 0.7135 0.1308 0.0000
vt 0.7135 0.0885 0.0000
vt 0.0854 0.9908 0.0000
vt 0.3144 0.9907 0.0000
vt 0.3144 0.9682 0.0000
vt 0.5046 0.9681 0.0000
vt 0.5046 0.9449 0.0000
vt 0.8511 0.4354 0.0000
vt 0.8729 0.4413 0.0000
vt 0.8293 0.4413 0.0000
vt 0.7956 0.2718 0.0000
vt 0.7135 0.2719 0.0000
vt 0.9916 0.4523 0.0000
vt 0.9911 0.9940 0.0000
vt 0.9354 0.4523 0.0000
vt 0.9635 0.4355 0.0000
vt 0.9853 0.4414 0.0000
vt 0.9417 0.4414 0.0000
vt 0.9073 0.4354 0.0000
vt 0.9291 0.4414 0.0000
vt 0.8855 0.4413 0.0000
vt 0.7107 0.4521 0.0000
vt 0.7170 0.4412 0.0000
vt 0.7606 0.4412 0.0000
vt 0.7668 0.4521 0.0000
vt 0.7732 0.4412 0.0000
vt 0.8167 0.4413 0.0000
vt 0.8230 0.4522 0.0000
vt 0.8792 0.4522 0.0000
vt 0.7388 0.4353 0.0000
vt 0.7950 0.4354 0.0000
vt 0.7102 0.9938 0.0000
vt 0.7956 0.0088 0.0000
vt 0.7135 0.0088 0.0000
vt 0.7956 0.4117 0.0000
vt 0.7135 0.4116 0.0000
vt 0.0113 0.9235 0.0000
vt 0.0854 0.5068 0.0000
vt 0.0113 0.5742 0.0000
vt 0.3144 0.5295 0.0000
vt 0.3144 0.5070 0.0000
vt 0.5046 0.5528 0.0000
vt 0.5046 0.5296 0.0000
vt 0.9483 0.3747 0.0000
vt 0.9483 0.4109 0.0000
vt 0.9110 0.4109 0.0000
vt 0.9110 0.3747 0.0000
vt 0.8714 0.4109 0.0000
vt 0.8714 0.3747 0.0000
vt 0.8276 0.4109 0.0000
vt 0.8276 0.3747 0.0000
vt 0.9843 0.4109 0.0000
vt 0.9843 0.3747 0.0000
vt 0.8585 0.3372 -0.2500
vt 0.8287 0.3496 -0.2500
vt 0.8287 0.2653 -0.2500
vt 0.8585 0.2776 -0.2500
vt 0.8709 0.3074 -0.2500
vt 0.9862 0.2497 0.0000
vt 0.9862 0.3566 0.0000
vt 0.9469 0.3560 0.0000
vt 0.9469 0.2504 0.0000
vt 0.9219 0.3525 0.0000
vt 0.9219 0.2538 0.0000
vt 0.6901 0.9438 0.0000
vt 0.6901 0.5539 0.0000
vt 0.6791 0.4901 0.0000
# 147 texture coords

g base
usemtl Material__1
s 1
f 1/1/1 2/2/2 3/3/3 
f 3/3/3 4/4/4 1/1/1 
f 5/5/5 6/6/6 7/7/7 
f 7/7/7 8/8/8 5/5/5 
f 2/2/2 1/1/1 9/9/9 
f 9/9/9 10/10/10 2/2/2 
f 11/11/11 12/12/12 6/6/6 
f 6/6/6 5/5/5 11/11/11 
f 8/8/8 13/13/13 14/14/14 
f 14/14/14 5/5/5 8/8/8 
f 5/5/5 14/14/14 15/15/15 
f 15/15/15 11/11/11 5/5/5 
f 10/10/10 15/15/15 14/14/14 
f 14/14/14 2/2/2 10/10/10 
f 3/3/3 2/2/2 14/14/14 
f 14/14/14 13/13/13 3/3/3 
f 16/16/16 17/17/17 18/18/18 
f 18/18/18 19/19/19 16/16/16 
f 17/17/17 20/20/20 21/21/21 
f 21/21/21 18/18/18 17/17/17 
f 20/20/20 22/22/22 23/23/23 
f 23/23/23 21/21/21 20/20/20 
f 22/22/22 24/24/24 25/25/25 
f 25/25/25 23/23/23 22/22/22 
s 2
f 23/23/26 25/25/26 12/12/26 
f 12/12/26 11/11/26 23/23/26 
f 23/23/26 11/11/26 15/15/26 
f 15/15/26 21/21/26 23/23/26 
f 18/18/26 21/21/26 15/15/26 
f 15/15/26 10/10/26 18/18/26 
f 19/19/27 18/18/26 10/10/26 
f 10/10/26 9/9/27 19/19/27 
s 1
f 17/17/17 16/16/16 26/26/28 
f 26/26/28 27/27/29 17/17/17 
f 28/16/30 29/26/31 26/28/28 
f 26/28/28 16/29/16 28/16/30 
f 24/24/24 22/22/22 30/30/32 
f 30/30/32 31/31/33 24/24/24 
f 22/22/22 20/20/20 32/32/34 
f 32/32/34 30/30/32 22/22/22 
f 20/20/20 17/17/17 27/27/29 
f 27/27/29 32/32/34 20/20/20 
f 27/27/29 26/26/28 33/33/35 
f 33/33/35 34/34/36 27/27/29 
f 31/31/33 30/30/32 35/35/37 
f 35/35/37 36/36/38 31/31/33 
f 30/30/32 32/32/34 37/37/39 
f 37/37/39 35/35/37 30/30/32 
f 32/32/34 27/27/29 34/34/36 
f 34/34/36 37/37/39 32/32/34 
s 2
f 34/34/40 33/33/41 38/38/42 
f 38/38/42 39/39/43 34/34/40 
f 36/36/44 35/35/45 40/40/46 
f 40/40/46 41/41/47 36/36/44 
f 35/35/45 37/37/48 42/42/49 
f 42/42/49 40/40/46 35/35/45 
f 37/37/48 34/34/40 39/39/43 
f 39/39/43 42/42/49 37/37/48 
s 1
f 39/39/50 38/38/51 43/43/52 
f 43/43/52 44/44/53 39/39/50 
f 40/40/54 42/42/55 45/45/56 
f 45/45/56 46/46/57 40/40/54 
f 42/42/55 39/39/50 44/44/53 
f 44/44/53 45/45/56 42/42/55 
f 44/44/53 43/43/52 47/47/58 
f 47/47/58 48/48/59 44/44/53 
f 46/46/57 45/45/56 49/49/60 
f 49/49/60 50/50/61 46/46/57 
f 45/45/56 44/44/53 48/48/59 
f 48/48/59 49/49/60 45/45/56 
f 48/51/59 47/52/58 51/53/62 
f 50/54/61 49/55/60 51/53/62 
f 49/55/60 48/51/59 51/53/62 
f 47/52/58 52/56/63 51/53/62 
f 1/57/1 4/58/4 53/4/64 
f 53/4/64 54/1/65 1/57/1 
f 16/29/16 19/59/19 55/19/66 
f 55/19/66 28/16/30 16/29/16 
s 2
f 9/60/27 56/9/67 55/19/67 
f 55/19/67 19/59/27 9/60/27 
s 1
f 57/61/68 50/54/61 51/53/62 
f 40/40/54 46/46/57 58/62/69 
f 58/62/69 41/41/38 40/40/54 
f 58/62/69 46/46/57 50/50/61 
f 50/50/61 57/63/68 58/62/69 
f 54/1/65 53/4/64 59/3/70 
f 59/3/70 60/2/71 54/1/65 
f 61/5/72 62/8/73 7/7/7 
f 7/7/7 6/6/6 61/5/72 
f 60/2/71 63/10/74 56/9/75 
f 56/9/75 54/1/65 60/2/71 
s 2
f 7/64/76 62/65/76 8/66/76 
s 1
f 64/11/77 61/5/72 6/6/6 
f 6/6/6 12/12/12 64/11/77 
f 62/8/73 61/5/72 65/14/78 
f 65/14/78 66/13/79 62/8/73 
f 61/5/72 64/11/77 67/15/80 
f 67/15/80 65/14/78 61/5/72 
f 63/10/74 60/2/71 65/14/78 
f 65/14/78 67/15/80 63/10/74 
f 59/3/70 66/13/79 65/14/78 
f 65/14/78 60/2/71 59/3/70 
f 28/16/30 55/19/66 68/18/81 
f 68/18/81 69/17/82 28/16/30 
f 69/17/82 68/18/81 70/21/83 
f 70/21/83 71/20/84 69/17/82 
f 71/20/84 70/21/83 72/23/85 
f 72/23/85 73/22/86 71/20/84 
f 73/22/86 72/23/85 25/25/25 
f 25/25/25 24/24/24 73/22/86 
s 2
f 72/23/76 64/11/76 12/12/26 
f 12/12/26 25/25/26 72/23/76 
f 72/23/76 70/21/76 67/15/76 
f 67/15/76 64/11/76 72/23/76 
f 68/18/76 63/10/76 67/15/76 
f 67/15/76 70/21/76 68/18/76 
f 55/19/67 56/9/67 63/10/76 
f 63/10/76 68/18/76 55/19/67 
s 1
f 69/17/82 74/27/87 29/26/31 
f 29/26/31 28/16/30 69/17/82 
f 24/24/24 31/31/33 75/30/88 
f 75/30/88 73/22/86 24/24/24 
f 73/22/86 75/30/88 76/32/89 
f 76/32/89 71/20/84 73/22/86 
f 71/20/84 76/32/89 74/27/87 
f 74/27/87 69/17/82 71/20/84 
f 74/27/87 77/34/90 78/33/91 
f 78/33/91 29/26/31 74/27/87 
f 78/33/91 33/67/35 26/28/28 
f 26/28/28 29/26/31 78/33/91 
f 31/31/33 36/36/38 79/35/92 
f 79/35/92 75/30/88 31/31/33 
f 75/30/88 79/35/92 80/37/93 
f 80/37/93 76/32/89 75/30/88 
f 76/32/89 80/37/93 77/34/90 
f 77/34/90 74/27/87 76/32/89 
s 2
f 77/34/94 81/39/95 82/38/96 
f 82/38/96 78/33/97 77/34/94 
f 78/33/97 82/38/96 38/68/42 
f 38/68/42 33/67/41 78/33/97 
f 36/36/44 41/41/47 83/40/98 
f 83/40/98 79/35/99 36/36/44 
f 79/35/99 83/40/98 84/42/100 
f 84/42/100 80/37/101 79/35/99 
f 80/37/101 84/42/100 81/39/95 
f 81/39/95 77/34/94 80/37/101 
s 1
f 81/39/102 85/44/103 86/43/104 
f 86/43/104 82/38/105 81/39/102 
f 86/43/104 43/69/52 38/68/51 
f 38/68/51 82/38/105 86/43/104 
f 83/40/106 87/46/107 88/45/108 
f 88/45/108 84/42/109 83/40/106 
f 84/42/109 88/45/108 85/44/103 
f 85/44/103 81/39/102 84/42/109 
f 85/44/103 89/48/110 90/47/111 
f 90/47/111 86/43/104 85/44/103 
f 86/43/104 52/70/63 43/69/52 
f 87/46/107 91/50/112 92/49/113 
f 92/49/113 88/45/108 87/46/107 
f 88/45/108 92/49/113 89/48/110 
f 89/48/110 85/44/103 88/45/108 
f 89/51/110 51/53/62 90/52/111 
f 91/54/112 51/53/62 92/55/113 
f 92/55/113 51/53/62 89/51/110 
f 90/52/111 51/53/62 52/56/63 
f 9/60/9 1/57/1 54/1/65 
f 54/1/65 56/9/75 9/60/9 
f 57/61/68 51/53/62 91/54/112 
f 83/40/106 41/41/38 58/62/69 
f 58/62/69 87/46/107 83/40/106 
f 58/62/69 57/63/68 91/50/112 
f 91/50/112 87/46/107 58/62/69 
f 93/71/114 94/72/115 95/73/114 
f 95/73/114 96/74/114 93/71/114 
f 97/75/116 98/76/116 99/77/116 
f 99/77/116 100/78/116 97/75/116 
f 101/79/116 102/80/116 103/81/116 
f 103/81/116 104/82/116 101/79/116 
s 2
f 99/77/76 98/76/76 103/81/76 
f 103/81/76 102/80/76 99/77/76 
f 101/79/76 104/82/76 94/72/76 
f 94/72/76 93/71/76 101/79/76 
s 4
f 100/83/117 99/84/117 102/85/117 
f 102/85/117 101/86/117 93/87/117 
s 1
f 105/88/116 106/89/116 107/90/116 
s 2
f 97/75/118 100/78/118 108/91/119 
f 108/91/119 109/92/119 97/75/118 
s 1
f 110/93/116 111/94/116 112/95/116 
f 113/96/116 114/97/116 115/98/116 
f 116/99/116 117/100/116 118/101/116 
f 119/102/116 120/103/116 121/104/116 
f 121/104/116 122/105/116 119/102/116 
f 122/105/116 123/106/116 124/107/116 
f 124/107/116 125/108/116 122/105/116 
f 110/93/116 112/95/116 115/98/116 
f 115/98/116 114/97/116 110/93/116 
f 112/95/116 126/109/116 118/101/116 
f 118/101/116 117/100/116 112/95/116 
f 120/103/116 127/110/116 121/104/116 
f 123/106/116 128/111/116 124/107/116 
f 126/109/116 125/108/116 107/90/116 
f 107/90/116 106/89/116 126/109/116 
f 129/112/116 119/102/116 122/105/116 
f 129/112/116 122/105/116 125/108/116 
f 111/94/116 129/112/116 125/108/116 
f 125/108/116 126/109/116 111/94/116 
f 111/94/116 126/109/116 112/95/116 
s 4
f 97/83/25 103/85/25 98/84/25 
f 103/85/25 94/87/25 104/86/25 
s 1
f 130/71/120 131/74/120 132/73/120 
f 132/73/120 133/72/121 130/71/120 
s 2
f 131/113/67 96/74/67 95/73/67 
f 95/73/67 132/114/67 131/113/67 
s 1
f 134/75/122 135/78/122 136/77/122 
f 136/77/122 137/76/122 134/75/122 
f 138/79/122 139/82/122 140/81/122 
f 140/81/122 141/80/122 138/79/122 
s 2
f 108/91/119 142/115/123 143/116/123 
f 143/116/123 109/92/119 108/91/119 
s 4
f 108/117/117 100/83/117 135/118/117 
f 135/118/117 142/119/117 108/117/117 
s 2
f 136/77/26 141/80/26 140/81/26 
f 140/81/26 137/76/26 136/77/26 
f 138/79/76 130/71/76 133/72/76 
f 133/72/76 139/82/76 138/79/76 
s 4
f 135/118/117 141/120/117 136/121/117 
f 141/120/117 130/122/117 138/123/117 
s 1
f 144/88/122 145/90/122 146/89/122 
s 2
f 134/75/124 143/92/123 142/91/123 
f 142/91/123 135/78/124 134/75/124 
s 1
f 147/93/122 148/95/122 149/94/122 
f 150/96/122 151/98/122 152/97/122 
f 153/99/122 154/101/122 155/100/122 
f 156/102/122 157/105/122 158/104/122 
f 158/104/122 159/103/122 156/102/122 
f 157/105/122 160/108/122 161/107/122 
f 161/107/122 162/106/122 157/105/122 
f 147/93/122 152/97/122 151/98/122 
f 151/98/122 148/95/122 147/93/122 
f 148/95/122 155/100/122 154/101/122 
f 154/101/122 163/109/122 148/95/122 
f 159/103/122 158/104/122 164/110/122 
f 162/106/122 161/107/122 165/111/122 
f 163/109/122 146/89/122 145/90/122 
f 145/90/122 160/108/122 163/109/122 
f 166/112/122 157/105/122 156/102/122 
f 166/112/122 160/108/122 157/105/122 
f 149/94/122 163/109/122 160/108/122 
f 160/108/122 166/112/122 149/94/122 
f 149/94/122 148/95/122 163/109/122 
s 4
f 134/118/25 97/83/25 109/117/25 
f 109/117/25 143/119/25 134/118/25 
f 134/118/25 137/121/25 140/120/25 
f 140/120/25 139/123/25 133/122/25 
s 1
f 167/124/125 168/125/126 169/126/127 
f 169/126/127 170/127/128 167/124/125 
f 170/127/128 169/126/127 171/128/129 
f 171/128/129 172/129/130 170/127/128 
f 172/129/130 171/128/129 173/130/131 
f 173/130/131 174/131/132 172/129/130 
f 174/131/132 173/130/131 175/128/133 
f 175/128/133 176/129/134 174/131/132 
f 176/129/134 175/128/133 177/126/135 
f 177/126/135 178/127/136 176/129/134 
f 178/127/136 177/126/135 179/125/137 
f 179/125/137 180/124/138 178/127/136 
f 180/124/138 179/125/137 181/132/139 
f 181/132/139 182/133/140 180/124/138 
f 182/133/140 181/132/139 168/125/126 
f 168/125/126 167/124/125 182/133/140 
s 2
f 170/134/116 172/135/116 180/136/116 
f 180/136/116 182/137/116 170/134/116 
f 174/134/116 178/137/116 180/136/116 
f 180/136/116 172/135/116 174/134/116 
f 182/137/116 167/138/116 170/134/116 
f 174/134/116 176/138/116 178/137/116 
f 53/139/76 4/140/76 3/141/76 
f 3/141/76 59/142/76 53/139/76 
f 59/142/76 3/141/76 13/143/76 
f 13/143/76 66/144/76 59/142/76 
f 66/144/76 13/143/76 8/66/76 
f 8/66/76 62/65/76 66/144/76 
s 4
f 96/145/117 131/146/117 130/122/117 
f 130/122/117 93/87/117 96/145/117 
f 93/87/117 130/122/117 141/120/117 
f 141/120/117 102/85/117 93/87/117 
f 140/120/25 103/85/25 97/83/25 
f 97/83/25 134/118/25 140/120/25 
f 133/122/25 94/87/25 103/85/25 
f 103/85/25 140/120/25 133/122/25 
f 132/146/25 95/145/25 94/87/25 
f 94/87/25 133/122/25 132/146/25 
f 102/85/117 141/120/117 135/118/117 
f 135/118/117 100/83/117 102/85/117 
s 1
f 52/70/63 47/147/58 43/69/52 
f 86/43/104 90/47/111 52/70/63 
# 296 faces

