# 3ds Max Wavefront OBJ Exporter v0.97b - (c)2007 guruware
# File Created: 02.03.2021 17:03:43

mtllib 波希米亚_组合柜+餐桌模型贴图提交\组合柜\western_group_cabinet.mtl

#
# object close1
#

v  100.0000 0.0000 -0.0000
v  100.0000 -0.0000 -100.0000
v  100.0000 100.0002 -100.0000
v  100.0000 100.0002 -0.0000
v  -0.0000 -0.0000 -100.0000
v  0.0001 100.0002 -100.0000
v  -0.0000 0.0000 -0.0000
v  0.0001 100.0002 -0.0000
v  43.5788 38.6495 1.2513
v  48.3310 38.6495 1.2513
v  48.3310 55.5229 1.2513
v  43.5788 55.5229 1.2513
v  43.5788 38.6495 0.0000
v  48.3310 38.6495 0.0000
v  48.3310 55.5229 0.0000
v  43.5788 55.5229 0.0000
v  52.6756 38.6495 1.2513
v  57.4278 38.6495 1.2513
v  57.4278 55.5229 1.2513
v  52.6756 55.5229 1.2513
v  52.6756 38.6495 0.0000
v  57.4278 38.6495 0.0000
v  57.4278 55.5229 0.0000
v  52.6756 55.5229 0.0000
v  43.5788 38.6495 -101.2513
v  43.5788 55.5229 -101.2513
v  48.3310 55.5229 -101.2513
v  48.3310 38.6495 -101.2513
v  43.5788 38.6495 -100.0000
v  48.3310 38.6495 -100.0000
v  48.3310 55.5229 -100.0000
v  43.5788 55.5229 -100.0000
v  52.6756 38.6495 -101.2513
v  52.6756 55.5229 -101.2513
v  57.4278 55.5229 -101.2513
v  57.4278 38.6495 -101.2513
v  52.6756 38.6495 -100.0000
v  57.4278 38.6495 -100.0000
v  57.4278 55.5229 -100.0000
v  52.6756 55.5229 -100.0000
# 40 vertices

vn 1.0000 0.0000 -0.0000
vn 0.0000 0.0000 -1.0000
vn 0.0000 -1.0000 0.0000
vn 0.0000 0.0000 1.0000
vn -1.0000 0.0000 -0.0000
vn 0.0000 1.0000 -0.0000
vn 0.0000 -0.0000 1.0000
vn -0.7071 -0.7071 -0.0000
vn 0.7071 -0.7071 -0.0000
vn 0.7071 0.7071 -0.0000
vn -0.7071 0.7071 -0.0000
vn 0.0000 -0.0000 -1.0000
# 12 vertex normals

vt 0.9919 0.5073 0.0000
vt 0.5066 0.5073 0.0000
vt 0.5066 0.9926 0.0000
vt 0.9919 0.9926 0.0000
vt 0.4927 0.0073 0.0000
vt 0.0073 0.0073 0.0000
vt 0.0073 0.4927 0.0000
vt 0.4927 0.4927 0.0000
vt 0.6227 0.0073 0.0000
vt 0.6227 0.3766 0.0000
vt 0.9919 0.3766 0.0000
vt 0.9919 0.0073 0.0000
vt 0.9920 0.5073 0.0000
vt 0.9920 0.9926 0.0000
vt 0.4927 0.9926 0.0000
vt 0.0073 0.9926 0.0000
vt 0.0073 0.5073 0.0000
vt 0.4927 0.5073 0.0000
vt 0.5281 0.2659 0.0000
vt 0.5864 0.2659 0.0000
vt 0.5864 0.4741 0.0000
vt 0.5281 0.4741 0.0000
vt 0.5281 0.2558 0.0000
vt 0.5864 0.2558 0.0000
vt 0.6007 0.2659 0.0000
vt 0.6007 0.4740 0.0000
vt 0.5864 0.4841 0.0000
vt 0.5281 0.4841 0.0000
vt 0.5138 0.4740 0.0000
vt 0.5138 0.2659 0.0000
# 30 texture coords

g close1
usemtl Material__30
s 1
f 1/1/1 2/2/1 3/3/1 
f 3/3/1 4/4/1 1/1/1 
s 4
f 2/5/2 5/6/2 6/7/2 
f 6/7/2 3/8/2 2/5/2 
s 2
f 7/9/3 5/10/3 2/11/3 
f 2/11/3 1/12/3 7/9/3 
s 4
f 7/6/4 1/5/4 4/8/4 
f 4/8/4 8/7/4 7/6/4 
s 1
f 6/3/5 5/2/5 7/13/5 
f 7/13/5 8/14/5 6/3/5 
s 2
f 6/15/6 8/16/6 4/17/6 
f 4/17/6 3/18/6 6/15/6 
s 4
f 9/19/7 10/20/7 11/21/7 
f 11/21/7 12/22/7 9/19/7 
s 1
f 13/23/8 14/24/9 10/20/9 
f 10/20/9 9/19/8 13/23/8 
f 14/25/9 15/26/10 11/21/10 
f 11/21/10 10/20/9 14/25/9 
f 15/27/10 16/28/11 12/22/11 
f 12/22/11 11/21/10 15/27/10 
f 16/29/11 13/30/8 9/19/8 
f 9/19/8 12/22/11 16/29/11 
s 4
f 17/19/7 18/20/7 19/21/7 
f 19/21/7 20/22/7 17/19/7 
s 1
f 21/23/8 22/24/9 18/20/9 
f 18/20/9 17/19/8 21/23/8 
f 22/25/9 23/26/10 19/21/10 
f 19/21/10 18/20/9 22/25/9 
f 23/27/10 24/28/11 20/22/11 
f 20/22/11 19/21/10 23/27/10 
f 24/29/11 21/30/8 17/19/8 
f 17/19/8 20/22/11 24/29/11 
s 4
f 25/19/12 26/22/12 27/21/12 
f 27/21/12 28/20/12 25/19/12 
s 1
f 29/23/8 25/19/8 28/20/9 
f 28/20/9 30/24/9 29/23/8 
f 30/25/9 28/20/9 27/21/10 
f 27/21/10 31/26/10 30/25/9 
f 31/27/10 27/21/10 26/22/11 
f 26/22/11 32/28/11 31/27/10 
f 32/29/11 26/22/11 25/19/8 
f 25/19/8 29/30/8 32/29/11 
s 4
f 33/19/12 34/22/12 35/21/12 
f 35/21/12 36/20/12 33/19/12 
s 1
f 37/23/8 33/19/8 36/20/9 
f 36/20/9 38/24/9 37/23/8 
f 38/25/9 36/20/9 35/21/10 
f 35/21/10 39/26/10 38/25/9 
f 39/27/10 35/21/10 34/22/11 
f 34/22/11 40/28/11 39/27/10 
f 40/29/11 34/22/11 33/19/8 
f 33/19/8 37/30/8 40/29/11 
# 52 faces

#
# object close3_down
#

v  100.0000 0.0000 -0.0000
v  100.0000 -0.0000 -100.0000
v  100.0000 100.0002 -100.0000
v  100.0000 100.0002 -0.0000
v  -0.0000 -0.0000 -100.0000
v  0.0001 100.0002 -100.0000
v  -0.0000 0.0000 -0.0000
v  0.0001 100.0002 -0.0000
v  43.5788 38.6495 1.2513
v  48.3310 38.6495 1.2513
v  48.3310 55.5229 1.2513
v  43.5788 55.5229 1.2513
v  43.5788 38.6495 0.0000
v  48.3310 38.6495 0.0000
v  48.3310 55.5229 0.0000
v  43.5788 55.5229 0.0000
v  52.6756 38.6495 1.2513
v  57.4278 38.6495 1.2513
v  57.4278 55.5229 1.2513
v  52.6756 55.5229 1.2513
v  52.6756 38.6495 0.0000
v  57.4278 38.6495 0.0000
v  57.4278 55.5229 0.0000
v  52.6756 55.5229 0.0000
v  43.5788 38.6495 -101.2513
v  43.5788 55.5229 -101.2513
v  48.3310 55.5229 -101.2513
v  48.3310 38.6495 -101.2513
v  43.5788 38.6495 -100.0000
v  48.3310 38.6495 -100.0000
v  48.3310 55.5229 -100.0000
v  43.5788 55.5229 -100.0000
v  52.6756 38.6495 -101.2513
v  52.6756 55.5229 -101.2513
v  57.4278 55.5229 -101.2513
v  57.4278 38.6495 -101.2513
v  52.6756 38.6495 -100.0000
v  57.4278 38.6495 -100.0000
v  57.4278 55.5229 -100.0000
v  52.6756 55.5229 -100.0000
# 40 vertices

vn 1.0000 0.0000 -0.0000
vn 0.0000 0.0000 -1.0000
vn 0.0000 -1.0000 0.0000
vn 0.0000 0.0000 1.0000
vn -1.0000 0.0000 -0.0000
vn 0.0000 -0.0000 1.0000
vn -0.7071 -0.7071 -0.0000
vn 0.7071 -0.7071 -0.0000
vn 0.7071 0.7071 -0.0000
vn -0.7071 0.7071 -0.0000
vn 0.0000 -0.0000 -1.0000
# 11 vertex normals

vt 0.9919 0.5073 0.0000
vt 0.5066 0.5073 0.0000
vt 0.5066 0.9926 0.0000
vt 0.9919 0.9926 0.0000
vt 0.4927 0.0073 0.0000
vt 0.0073 0.0073 0.0000
vt 0.0073 0.4927 0.0000
vt 0.4927 0.4927 0.0000
vt 0.6227 0.0073 0.0000
vt 0.6227 0.3766 0.0000
vt 0.9919 0.3766 0.0000
vt 0.9919 0.0073 0.0000
vt 0.9920 0.5073 0.0000
vt 0.9920 0.9926 0.0000
vt 0.5281 0.2659 0.0000
vt 0.5864 0.2659 0.0000
vt 0.5864 0.4741 0.0000
vt 0.5281 0.4741 0.0000
vt 0.5281 0.2558 0.0000
vt 0.5864 0.2558 0.0000
vt 0.6007 0.2659 0.0000
vt 0.6007 0.4740 0.0000
vt 0.5864 0.4841 0.0000
vt 0.5281 0.4841 0.0000
vt 0.5138 0.4740 0.0000
vt 0.5138 0.2659 0.0000
# 26 texture coords

g close3_down
usemtl Material__30
s 1
f 41/31/13 42/32/13 43/33/13 
f 43/33/13 44/34/13 41/31/13 
s 4
f 42/35/14 45/36/14 46/37/14 
f 46/37/14 43/38/14 42/35/14 
s 2
f 47/39/15 45/40/15 42/41/15 
f 42/41/15 41/42/15 47/39/15 
s 4
f 47/36/16 41/35/16 44/38/16 
f 44/38/16 48/37/16 47/36/16 
s 1
f 46/33/17 45/32/17 47/43/17 
f 47/43/17 48/44/17 46/33/17 
s 4
f 49/45/18 50/46/18 51/47/18 
f 51/47/18 52/48/18 49/45/18 
s 1
f 53/49/19 54/50/20 50/46/20 
f 50/46/20 49/45/19 53/49/19 
f 54/51/20 55/52/21 51/47/21 
f 51/47/21 50/46/20 54/51/20 
f 55/53/21 56/54/22 52/48/22 
f 52/48/22 51/47/21 55/53/21 
f 56/55/22 53/56/19 49/45/19 
f 49/45/19 52/48/22 56/55/22 
s 4
f 57/45/18 58/46/18 59/47/18 
f 59/47/18 60/48/18 57/45/18 
s 1
f 61/49/19 62/50/20 58/46/20 
f 58/46/20 57/45/19 61/49/19 
f 62/51/20 63/52/21 59/47/21 
f 59/47/21 58/46/20 62/51/20 
f 63/53/21 64/54/22 60/48/22 
f 60/48/22 59/47/21 63/53/21 
f 64/55/22 61/56/19 57/45/19 
f 57/45/19 60/48/22 64/55/22 
s 4
f 65/45/23 66/48/23 67/47/23 
f 67/47/23 68/46/23 65/45/23 
s 1
f 69/49/19 65/45/19 68/46/20 
f 68/46/20 70/50/20 69/49/19 
f 70/51/20 68/46/20 67/47/21 
f 67/47/21 71/52/21 70/51/20 
f 71/53/21 67/47/21 66/48/22 
f 66/48/22 72/54/22 71/53/21 
f 72/55/22 66/48/22 65/45/19 
f 65/45/19 69/56/19 72/55/22 
s 4
f 73/45/23 74/48/23 75/47/23 
f 75/47/23 76/46/23 73/45/23 
s 1
f 77/49/19 73/45/19 76/46/20 
f 76/46/20 78/50/20 77/49/19 
f 78/51/20 76/46/20 75/47/21 
f 75/47/21 79/52/21 78/51/20 
f 79/53/21 75/47/21 74/48/22 
f 74/48/22 80/54/22 79/53/21 
f 80/55/22 74/48/22 73/45/19 
f 73/45/19 77/56/19 80/55/22 
# 50 faces

#
# object close3_up
#

v  100.0000 0.0000 -0.0000
v  100.0000 -0.0000 -100.0000
v  100.0000 100.0002 -100.0000
v  100.0000 100.0002 -0.0000
v  -0.0000 -0.0000 -100.0000
v  0.0001 100.0002 -100.0000
v  -0.0000 0.0000 -0.0000
v  0.0001 100.0002 -0.0000
v  43.5788 38.6495 1.2513
v  48.3310 38.6495 1.2513
v  48.3310 55.5229 1.2513
v  43.5788 55.5229 1.2513
v  43.5788 38.6495 0.0000
v  48.3310 38.6495 0.0000
v  48.3310 55.5229 0.0000
v  43.5788 55.5229 0.0000
v  52.6756 38.6495 1.2513
v  57.4278 38.6495 1.2513
v  57.4278 55.5229 1.2513
v  52.6756 55.5229 1.2513
v  52.6756 38.6495 0.0000
v  57.4278 38.6495 0.0000
v  57.4278 55.5229 0.0000
v  52.6756 55.5229 0.0000
v  43.5788 38.6495 -101.2513
v  43.5788 55.5229 -101.2513
v  48.3310 55.5229 -101.2513
v  48.3310 38.6495 -101.2513
v  43.5788 38.6495 -100.0000
v  48.3310 38.6495 -100.0000
v  48.3310 55.5229 -100.0000
v  43.5788 55.5229 -100.0000
v  52.6756 38.6495 -101.2513
v  52.6756 55.5229 -101.2513
v  57.4278 55.5229 -101.2513
v  57.4278 38.6495 -101.2513
v  52.6756 38.6495 -100.0000
v  57.4278 38.6495 -100.0000
v  57.4278 55.5229 -100.0000
v  52.6756 55.5229 -100.0000
# 40 vertices

vn 1.0000 0.0000 -0.0000
vn 0.0000 0.0000 -1.0000
vn 0.0000 0.0000 1.0000
vn -1.0000 0.0000 -0.0000
vn 0.0000 1.0000 -0.0000
vn 0.0000 -0.0000 1.0000
vn -0.7071 -0.7071 -0.0000
vn 0.7071 -0.7071 -0.0000
vn 0.7071 0.7071 -0.0000
vn -0.7071 0.7071 -0.0000
vn 0.0000 -0.0000 -1.0000
# 11 vertex normals

vt 0.9919 0.5073 0.0000
vt 0.5066 0.5073 0.0000
vt 0.5066 0.9926 0.0000
vt 0.9919 0.9926 0.0000
vt 0.4927 0.0073 0.0000
vt 0.0073 0.0073 0.0000
vt 0.0073 0.4927 0.0000
vt 0.4927 0.4927 0.0000
vt 0.9920 0.5073 0.0000
vt 0.9920 0.9926 0.0000
vt 0.4927 0.9926 0.0000
vt 0.0073 0.9926 0.0000
vt 0.0073 0.5073 0.0000
vt 0.4927 0.5073 0.0000
vt 0.5281 0.2659 0.0000
vt 0.5864 0.2659 0.0000
vt 0.5864 0.4741 0.0000
vt 0.5281 0.4741 0.0000
vt 0.5281 0.2558 0.0000
vt 0.5864 0.2558 0.0000
vt 0.6007 0.2659 0.0000
vt 0.6007 0.4740 0.0000
vt 0.5864 0.4841 0.0000
vt 0.5281 0.4841 0.0000
vt 0.5138 0.4740 0.0000
vt 0.5138 0.2659 0.0000
# 26 texture coords

g close3_up
usemtl Material__30
s 1
f 81/57/24 82/58/24 83/59/24 
f 83/59/24 84/60/24 81/57/24 
s 4
f 82/61/25 85/62/25 86/63/25 
f 86/63/25 83/64/25 82/61/25 
f 87/62/26 81/61/26 84/64/26 
f 84/64/26 88/63/26 87/62/26 
s 1
f 86/59/27 85/58/27 87/65/27 
f 87/65/27 88/66/27 86/59/27 
s 2
f 86/67/28 88/68/28 84/69/28 
f 84/69/28 83/70/28 86/67/28 
s 4
f 89/71/29 90/72/29 91/73/29 
f 91/73/29 92/74/29 89/71/29 
s 1
f 93/75/30 94/76/31 90/72/31 
f 90/72/31 89/71/30 93/75/30 
f 94/77/31 95/78/32 91/73/32 
f 91/73/32 90/72/31 94/77/31 
f 95/79/32 96/80/33 92/74/33 
f 92/74/33 91/73/32 95/79/32 
f 96/81/33 93/82/30 89/71/30 
f 89/71/30 92/74/33 96/81/33 
s 4
f 97/71/29 98/72/29 99/73/29 
f 99/73/29 100/74/29 97/71/29 
s 1
f 101/75/30 102/76/31 98/72/31 
f 98/72/31 97/71/30 101/75/30 
f 102/77/31 103/78/32 99/73/32 
f 99/73/32 98/72/31 102/77/31 
f 103/79/32 104/80/33 100/74/33 
f 100/74/33 99/73/32 103/79/32 
f 104/81/33 101/82/30 97/71/30 
f 97/71/30 100/74/33 104/81/33 
s 4
f 105/71/34 106/74/34 107/73/34 
f 107/73/34 108/72/34 105/71/34 
s 1
f 109/75/30 105/71/30 108/72/31 
f 108/72/31 110/76/31 109/75/30 
f 110/77/31 108/72/31 107/73/32 
f 107/73/32 111/78/32 110/77/31 
f 111/79/32 107/73/32 106/74/33 
f 106/74/33 112/80/33 111/79/32 
f 112/81/33 106/74/33 105/71/30 
f 105/71/30 109/82/30 112/81/33 
s 4
f 113/71/34 114/74/34 115/73/34 
f 115/73/34 116/72/34 113/71/34 
s 1
f 117/75/30 113/71/30 116/72/31 
f 116/72/31 118/76/31 117/75/30 
f 118/77/31 116/72/31 115/73/32 
f 115/73/32 119/78/32 118/77/31 
f 119/79/32 115/73/32 114/74/33 
f 114/74/33 120/80/33 119/79/32 
f 120/81/33 114/74/33 113/71/30 
f 113/71/30 117/82/30 120/81/33 
# 50 faces

#
# object close2
#

v  100.0000 -0.0000 -100.0000
v  -0.0000 -0.0000 -100.0000
v  0.0001 100.0002 -100.0000
v  100.0000 100.0002 -100.0000
v  -0.0000 0.0000 -0.0000
v  100.0000 0.0000 -0.0000
v  100.0000 100.0002 -0.0000
v  0.0001 100.0002 -0.0000
v  43.5788 38.6495 1.2513
v  48.3310 38.6495 1.2513
v  48.3310 55.5229 1.2513
v  43.5788 55.5229 1.2513
v  43.5788 38.6495 0.0000
v  48.3310 38.6495 0.0000
v  48.3310 55.5229 0.0000
v  43.5788 55.5229 0.0000
v  52.6756 38.6495 1.2513
v  57.4278 38.6495 1.2513
v  57.4278 55.5229 1.2513
v  52.6756 55.5229 1.2513
v  52.6756 38.6495 0.0000
v  57.4278 38.6495 0.0000
v  57.4278 55.5229 0.0000
v  52.6756 55.5229 0.0000
v  43.5788 38.6495 -101.2513
v  43.5788 55.5229 -101.2513
v  48.3310 55.5229 -101.2513
v  48.3310 38.6495 -101.2513
v  43.5788 38.6495 -100.0000
v  48.3310 38.6495 -100.0000
v  48.3310 55.5229 -100.0000
v  43.5788 55.5229 -100.0000
v  52.6756 38.6495 -101.2513
v  52.6756 55.5229 -101.2513
v  57.4278 55.5229 -101.2513
v  57.4278 38.6495 -101.2513
v  52.6756 38.6495 -100.0000
v  57.4278 38.6495 -100.0000
v  57.4278 55.5229 -100.0000
v  52.6756 55.5229 -100.0000
# 40 vertices

vn 0.0000 0.0000 -1.0000
vn 0.0000 -1.0000 0.0000
vn 0.0000 0.0000 1.0000
vn -1.0000 0.0000 -0.0000
vn 0.0000 1.0000 -0.0000
vn 0.0000 -0.0000 1.0000
vn -0.7071 -0.7071 -0.0000
vn 0.7071 -0.7071 -0.0000
vn 0.7071 0.7071 -0.0000
vn -0.7071 0.7071 -0.0000
vn 0.0000 -0.0000 -1.0000
# 11 vertex normals

vt 0.4927 0.0073 0.0000
vt 0.0073 0.0073 0.0000
vt 0.0073 0.4927 0.0000
vt 0.4927 0.4927 0.0000
vt 0.6227 0.0073 0.0000
vt 0.6227 0.3766 0.0000
vt 0.9919 0.3766 0.0000
vt 0.9919 0.0073 0.0000
vt 0.5066 0.9926 0.0000
vt 0.5066 0.5073 0.0000
vt 0.9920 0.5073 0.0000
vt 0.9920 0.9926 0.0000
vt 0.4927 0.9926 0.0000
vt 0.0073 0.9926 0.0000
vt 0.0073 0.5073 0.0000
vt 0.4927 0.5073 0.0000
vt 0.5281 0.2659 0.0000
vt 0.5864 0.2659 0.0000
vt 0.5864 0.4741 0.0000
vt 0.5281 0.4741 0.0000
vt 0.5281 0.2558 0.0000
vt 0.5864 0.2558 0.0000
vt 0.6007 0.2659 0.0000
vt 0.6007 0.4740 0.0000
vt 0.5864 0.4841 0.0000
vt 0.5281 0.4841 0.0000
vt 0.5138 0.4740 0.0000
vt 0.5138 0.2659 0.0000
# 28 texture coords

g close2
usemtl Material__30
s 4
f 121/83/35 122/84/35 123/85/35 
f 123/85/35 124/86/35 121/83/35 
s 2
f 125/87/36 122/88/36 121/89/36 
f 121/89/36 126/90/36 125/87/36 
s 4
f 125/84/37 126/83/37 127/86/37 
f 127/86/37 128/85/37 125/84/37 
s 1
f 123/91/38 122/92/38 125/93/38 
f 125/93/38 128/94/38 123/91/38 
s 2
f 123/95/39 128/96/39 127/97/39 
f 127/97/39 124/98/39 123/95/39 
s 4
f 129/99/40 130/100/40 131/101/40 
f 131/101/40 132/102/40 129/99/40 
s 1
f 133/103/41 134/104/42 130/100/42 
f 130/100/42 129/99/41 133/103/41 
f 134/105/42 135/106/43 131/101/43 
f 131/101/43 130/100/42 134/105/42 
f 135/107/43 136/108/44 132/102/44 
f 132/102/44 131/101/43 135/107/43 
f 136/109/44 133/110/41 129/99/41 
f 129/99/41 132/102/44 136/109/44 
s 4
f 137/99/40 138/100/40 139/101/40 
f 139/101/40 140/102/40 137/99/40 
s 1
f 141/103/41 142/104/42 138/100/42 
f 138/100/42 137/99/41 141/103/41 
f 142/105/42 143/106/43 139/101/43 
f 139/101/43 138/100/42 142/105/42 
f 143/107/43 144/108/44 140/102/44 
f 140/102/44 139/101/43 143/107/43 
f 144/109/44 141/110/41 137/99/41 
f 137/99/41 140/102/44 144/109/44 
s 4
f 145/99/45 146/102/45 147/101/45 
f 147/101/45 148/100/45 145/99/45 
s 1
f 149/103/41 145/99/41 148/100/42 
f 148/100/42 150/104/42 149/103/41 
f 150/105/42 148/100/42 147/101/43 
f 147/101/43 151/106/43 150/105/42 
f 151/107/43 147/101/43 146/102/44 
f 146/102/44 152/108/44 151/107/43 
f 152/109/44 146/102/44 145/99/41 
f 145/99/41 149/110/41 152/109/44 
s 4
f 153/99/45 154/102/45 155/101/45 
f 155/101/45 156/100/45 153/99/45 
s 1
f 157/103/41 153/99/41 156/100/42 
f 156/100/42 158/104/42 157/103/41 
f 158/105/42 156/100/42 155/101/43 
f 155/101/43 159/106/43 158/105/42 
f 159/107/43 155/101/43 154/102/44 
f 154/102/44 160/108/44 159/107/43 
f 160/109/44 154/102/44 153/99/41 
f 153/99/41 157/110/41 160/109/44 
# 50 faces

