# 3ds Max Wavefront OBJ Exporter v0.97b - (c)2007 guruware
# File Created: 04.03.2021 18:10:08

mtllib 波希米亚_组合柜+餐桌模型贴图提交\西域地毯\western_carpet.mtl

#
# object base
#

v  -0.0000 0.0000 -100.0331
v  100.0000 0.0000 -100.0331
v  100.0000 0.0000 -0.0000
v  -0.0000 0.0000 -0.0000
v  100.0000 1.8962 -0.0000
v  100.0000 1.8962 -100.0331
v  -0.0000 1.8962 -100.0331
v  -0.0000 1.8962 -0.0000
v  100.0000 0.0000 -200.0661
v  -0.0000 0.0000 -200.0661
v  -0.0000 1.8962 -200.0661
v  100.0000 1.8962 -200.0661
# 12 vertices

vn 0.0000 -1.0000 -0.0000
vn 0.0000 1.0000 -0.0000
vn -0.7071 0.0000 0.7071
vn 0.7071 0.0000 0.7071
vn 1.0000 0.0000 -0.0000
vn -1.0000 0.0000 -0.0000
vn 0.7071 0.0000 -0.7071
vn -0.7071 0.0000 -0.7071
# 8 vertex normals

vt 0.9961 0.4980 0.0000
vt 0.1890 0.4981 0.0000
vt 0.1894 0.0078 0.0000
vt 0.9965 0.0077 0.0000
vt 0.0120 0.9788 0.0000
vt 0.0120 0.6045 0.0000
vt 0.1322 0.6045 0.0000
vt 0.1322 0.9788 0.0000
vt 0.0171 0.2288 0.0000
vt 0.1372 0.2288 0.0000
vt 0.1372 0.4160 0.0000
vt 0.0171 0.4160 0.0000
vt 0.0171 0.0417 0.0000
vt 0.1372 0.0417 0.0000
vt 0.9958 0.9882 0.0000
vt 0.1887 0.9884 0.0000
# 16 texture coords

g base
usemtl Material__4
s 2
f 1/1/1 2/2/1 3/3/1 
f 3/3/1 4/4/1 1/1/1 
f 5/4/2 6/1/2 7/2/2 
f 7/2/2 8/3/2 5/4/2 
s 1
f 4/5/3 3/6/4 5/7/4 
f 5/7/4 8/8/3 4/5/3 
f 2/9/5 6/10/5 5/11/4 
f 5/11/4 3/12/4 2/9/5 
f 4/13/3 8/14/3 7/10/6 
f 7/10/6 1/9/6 4/13/3 
f 9/5/7 10/6/8 11/7/8 
f 11/7/8 12/8/7 9/5/7 
f 1/9/6 7/10/6 11/11/8 
f 11/11/8 10/12/8 1/9/6 
s 2
f 10/15/1 9/16/1 2/2/1 
f 2/2/1 1/1/1 10/15/1 
f 12/15/2 11/16/2 7/2/2 
f 7/2/2 6/1/2 12/15/2 
s 1
f 9/13/7 12/14/7 6/10/5 
f 6/10/5 2/9/5 9/13/7 
# 20 faces

