# 3ds Max Wavefront OBJ Exporter v0.97b - (c)2007 guruware
# File Created: 18.05.2020 17:42:04

mtllib wings.mtl

#
# object wings_1
#

v  0.0000 25.0000 -0.0000
v  0.0000 25.0000 -100.0000
v  100.0000 25.0000 -100.0000
v  100.0000 25.0000 -0.0000
v  100.0000 70.8774 -33.3600
v  100.0000 75.0000 -50.0000
v  0.0000 75.0000 -50.0000
v  0.0000 70.8774 -33.3600
v  100.0000 45.5497 -0.0000
v  -0.0000 45.5497 -0.0000
v  100.0000 75.0000 -100.0000
v  0.0000 75.0000 -100.0000
v  100.0000 62.7918 -19.1933
v  0.0000 62.7918 -19.1933
# 14 vertices

vn 0.0000 -1.0000 -0.0000
vn 0.0000 0.9849 0.1732
vn 0.0000 0.9989 0.0469
vn 0.0000 0.0000 1.0000
vn 1.0000 0.0000 -0.0000
vn 0.0000 0.0000 -1.0000
vn -1.0000 0.0000 -0.0000
vn 0.0000 0.9101 0.4143
vn 0.0000 0.9179 0.3967
vn -1.0000 -0.0000 -0.0000
vn 0.0000 1.0000 -0.0000
vn 0.0000 0.8685 0.4957
vn 1.0000 -0.0000 0.0000
# 13 vertex normals

vt 0.6815 0.0071 0.0000
vt 0.6815 0.3617 0.0000
vt 0.9878 0.3617 0.0000
vt 0.9878 0.0071 0.0000
vt 0.5048 0.2115 0.0000
vt 0.5048 0.2946 0.0000
vt 0.0121 0.2946 0.0000
vt 0.0121 0.2115 0.0000
vt 0.9904 0.6989 0.0000
vt 0.9904 0.7538 0.0000
vt 0.5270 0.7538 0.0000
vt 0.5270 0.6989 0.0000
vt 0.6346 0.3859 0.0000
vt 0.6243 0.2864 0.0000
vt 0.5298 0.6879 0.0000
vt 0.9790 0.9883 0.0000
vt 0.9790 0.8949 0.0000
vt 0.5329 0.8949 0.0000
vt 0.5329 0.9883 0.0000
vt 0.6346 0.6879 0.0000
vt 0.0121 0.0108 0.0000
vt 0.5048 0.0108 0.0000
vt 0.5048 0.1221 0.0000
vt 0.0121 0.1221 0.0000
vt 0.5298 0.0833 0.0000
vt 0.5626 0.0833 0.0000
vt 0.5048 0.5240 0.0000
vt 0.0121 0.5240 0.0000
vt 0.0121 0.1304 0.0000
vt 0.5048 0.1304 0.0000
vt 0.6032 0.2003 0.0000
# 31 texture coords

g wings_1
usemtl eee
s off
f 1/1/1 2/2/1 3/3/1 
f 3/3/1 4/4/1 1/1/1 
f 5/5/2 6/6/3 7/7/3 
f 7/7/3 8/8/2 5/5/2 
f 4/9/4 9/10/4 10/11/4 
f 10/11/4 1/12/4 4/9/4 
f 6/13/5 5/14/5 3/15/5 
f 11/16/6 3/17/6 2/18/6 
f 2/18/6 12/19/6 11/16/6 
f 2/15/7 7/13/7 12/20/7 
f 10/21/8 9/22/8 13/23/9 
f 13/23/9 14/24/9 10/21/8 
f 1/25/10 10/26/10 2/15/10 
f 6/6/3 11/27/11 12/28/11 
f 12/28/11 7/7/3 6/6/3 
f 8/8/12 14/29/12 13/30/12 
f 13/30/12 5/5/12 8/8/12 
f 3/15/5 11/20/5 6/13/5 
f 9/26/5 4/25/5 3/15/5 
f 10/26/7 14/31/7 2/15/7 
f 5/14/5 13/31/5 3/15/5 
f 8/14/7 7/13/7 2/15/7 
f 14/31/11 8/14/11 2/15/7 
f 13/31/13 9/26/13 3/15/6 
# 24 faces

#
# object wings_2
#

v  0.3362 25.0000 -100.0000
v  100.3362 25.0000 -100.0000
v  100.3362 25.0000 -0.0000
v  0.3362 25.0000 -0.0000
v  100.3362 75.0000 -100.0000
v  0.3362 75.0000 -100.0000
v  0.3362 75.0000 -0.0000
v  100.3362 75.0000 -0.0000
# 8 vertices

vn 0.0000 -1.0000 -0.0000
vn 0.0000 1.0000 -0.0000
vn 0.0000 0.0000 1.0000
vn 1.0000 0.0000 -0.0000
vn 0.0000 -0.0000 -1.0000
vn -1.0000 0.0000 -0.0000
# 6 vertex normals

vt 0.6815 0.6915 0.0000
vt 0.9878 0.6915 0.0000
vt 0.9878 0.3751 0.0000
vt 0.6815 0.3751 0.0000
vt 0.5048 0.9909 0.0000
vt 0.0121 0.9909 0.0000
vt 0.0121 0.5240 0.0000
vt 0.5048 0.5240 0.0000
vt 0.5329 0.7772 0.0000
vt 0.9790 0.7772 0.0000
vt 0.9790 0.8707 0.0000
vt 0.5329 0.8707 0.0000
vt 0.6561 0.1931 0.0000
vt 0.6561 0.0088 0.0000
vt 0.6158 0.0088 0.0000
vt 0.6158 0.1931 0.0000
vt 0.9790 0.8949 0.0000
vt 0.5329 0.8949 0.0000
vt 0.5329 0.9883 0.0000
vt 0.9790 0.9883 0.0000
# 20 texture coords

g wings_2
usemtl eee
s off
f 15/32/14 16/33/14 17/34/14 
f 17/34/14 18/35/14 15/32/14 
f 19/36/15 20/37/15 21/38/15 
f 21/38/15 22/39/15 19/36/15 
f 18/40/16 17/41/16 22/42/16 
f 22/42/16 21/43/16 18/40/16 
f 19/44/17 22/45/17 17/46/17 
f 17/46/17 16/47/17 19/44/17 
f 16/48/18 15/49/18 20/50/18 
f 20/50/18 19/51/18 16/48/18 
f 21/45/19 20/44/19 15/47/19 
f 15/47/19 18/46/19 21/45/19 
# 12 faces

