# Max2Obj Version 4.0 Mar 10th, 2001
#
mtllib ./wire.mtl
g
# object wire to come ...
#
v  0.473765 44.082882 -48.578018
v  33.426868 44.082882 -48.578018
v  66.379974 44.082882 -48.578018
v  99.333076 44.082882 -48.578018
v  0.473765 55.798435 -51.175293
v  33.426868 55.798435 -51.175293
v  66.379974 55.798435 -51.175293
v  99.333076 55.798435 -51.175293
v  0.473765 44.082882 -48.578018
v  33.426868 44.082882 -48.578018
v  66.379974 44.082882 -48.578018
v  99.333076 44.082882 -48.578018
v  0.473765 55.798435 -51.175293
v  33.426868 55.798435 -51.175293
v  66.379974 55.798435 -51.175293
v  99.333076 55.798435 -51.175293
# 16 vertices

vt  0.020980 0.020709 0.500000
vt  0.972014 0.024854 0.500000
vt  0.972014 0.024854 0.500000
vt  0.972014 0.024854 0.500000
vt  0.020980 0.964949 0.500000
vt  0.972014 0.969094 0.500000
vt  0.972014 0.969094 0.500000
vt  0.972014 0.969094 0.500000
vt  0.020980 0.020709 0.500000
vt  0.020980 0.964949 0.500000
vt  0.020980 0.020709 0.500000
vt  0.020980 0.964949 0.500000
vt  0.020980 0.020709 0.500000
vt  0.972014 0.024854 0.500000
vt  0.972014 0.024854 0.500000
vt  0.972014 0.024854 0.500000
vt  0.020980 0.964949 0.500000
vt  0.972014 0.969094 0.500000
vt  0.972014 0.969094 0.500000
vt  0.972014 0.969094 0.500000
vt  0.020980 0.020709 0.500000
vt  0.020980 0.964949 0.500000
vt  0.020980 0.020709 0.500000
vt  0.020980 0.964949 0.500000
# 24 texture vertices

vn  0.000000 0.216440 0.976296
vn  0.000000 0.216440 0.976296
vn  0.000000 0.216440 0.976296
vn  0.000000 0.216440 0.976296
vn  0.000000 0.216440 0.976296
vn  0.000000 0.216440 0.976296
vn  0.000000 0.216440 0.976296
vn  0.000000 0.216440 0.976296
vn  0.000000 -0.216440 -0.976296
vn  0.000000 -0.216440 -0.976296
vn  0.000000 -0.216440 -0.976296
vn  0.000000 -0.216440 -0.976296
vn  0.000000 -0.216440 -0.976296
vn  0.000000 -0.216440 -0.976296
vn  0.000000 -0.216440 -0.976296
vn  0.000000 -0.216440 -0.976296
# 16 vertex normals

g wire
usemtl 01_-_Default
f 1/1/1 2/2/2 6/6/6
f 6/6/6 5/5/5 1/1/1
f 2/9/2 3/3/3 7/7/7
f 7/7/7 6/10/6 2/9/2
f 3/11/3 4/4/4 8/8/8
f 8/8/8 7/12/7 3/11/3
f 9/13/9 13/17/13 14/18/14
f 14/18/14 10/14/10 9/13/9
f 10/21/10 14/22/14 15/19/15
f 15/19/15 11/15/11 10/21/10
f 11/23/11 15/24/15 16/20/16
f 16/20/16 12/16/12 11/23/11
# 12 faces

g
